<?xml version="1.0" encoding="utf-8"?>
<!-- Generator: Adobe Illustrator 25.4.1, SVG Export Plug-In . SVG Version: 6.00 Build 0)  -->
<svg version="1.1" id="Слой_1" xmlns="http://www.w3.org/2000/svg" xmlns:xlink="http://www.w3.org/1999/xlink" x="0px" y="0px"
	 viewBox="0 0 282 359" style="enable-background:new 0 0 282 359;" xml:space="preserve">
<style type="text/css">
	.st0{fill:#FFFFFF;}
	.st1{fill:none;stroke:#000000;stroke-width:9;stroke-miterlimit:10;}
	.st2{fill:none;stroke:#000000;stroke-width:5;stroke-miterlimit:10;}
	.st3{fill:#FFFFFF;stroke:#000000;stroke-width:9;stroke-miterlimit:10;}
	.st4{fill:none;stroke:#000000;stroke-width:7;stroke-miterlimit:10;}
	.st5{stroke:#000000;stroke-width:3;stroke-miterlimit:10;}
	.st6{fill:#FFFFFF;stroke:#000000;stroke-width:4;stroke-miterlimit:10;}
	.st7{stroke:#000000;stroke-width:2;stroke-miterlimit:10;}
	.st8{fill:#FFFFFF;stroke:#000000;stroke-width:2;stroke-miterlimit:10;}
	.st9{stroke:#000000;stroke-miterlimit:10;}
	.st10{fill:none;stroke:#000000;stroke-miterlimit:10;}
	.st11{fill:#FFFFFF;stroke:#000000;stroke-miterlimit:10;}
	.st12{stroke:#FFFFFF;stroke-width:9;stroke-miterlimit:10;}
	.st13{fill:none;stroke:#FFFFFF;stroke-width:7;stroke-miterlimit:10;}
	.st14{fill:#FFFFFF;stroke:#FFFFFF;stroke-width:3;stroke-miterlimit:10;}
	.st15{fill:none;stroke:#FFFFFF;stroke-width:9;stroke-miterlimit:10;}
	.st16{fill:none;stroke:#FFFFFF;stroke-width:5;stroke-miterlimit:10;}
	.st17{fill:#FFFFFF;stroke:#FFFFFF;stroke-width:6;stroke-miterlimit:10;}
	.st18{fill:none;stroke:#FFFFFF;stroke-width:6;stroke-miterlimit:10;}
	.st19{fill:none;stroke:#00FFF0;stroke-width:9;stroke-miterlimit:10;}
	.st20{fill:none;stroke:#00FFF0;stroke-width:20;stroke-miterlimit:10;}
	.st21{fill:#00FFF0;stroke:#00FFFF;stroke-width:9;stroke-miterlimit:10;}
	.st22{fill:#00FFF0;stroke:#00FFF0;stroke-width:9;stroke-miterlimit:10;}
	.st23{fill:none;stroke:#FFFFFF;stroke-width:20;stroke-miterlimit:10;}
	.st24{fill:none;stroke:#FF433F;stroke-width:16;stroke-miterlimit:10;}
	.st25{fill:#FF433F;stroke:#FF433F;stroke-width:16;stroke-miterlimit:10;}
	.st26{fill:none;stroke:#00FFF0;stroke-width:10;stroke-miterlimit:10;}
	.st27{fill:#00FFFF;stroke:#00FFFF;stroke-width:10;stroke-miterlimit:10;}
	.st28{fill:#00FFF0;stroke:#00FFF0;stroke-width:10;stroke-miterlimit:10;}
	.st29{fill:none;stroke:#00FFFF;stroke-width:32;stroke-miterlimit:10;}
	.st30{fill:none;stroke:#00FFFF;stroke-width:30;stroke-miterlimit:10;}
	.st31{fill:none;stroke:#00FFFF;stroke-width:20;stroke-miterlimit:10;}
	.st32{fill:none;stroke:#00FFFF;stroke-width:10;stroke-miterlimit:10;}
	.st33{fill:#FFFFFF;stroke:#00FFFF;stroke-width:13;stroke-miterlimit:10;}
	.st34{fill:#00FFFF;stroke:#00FFFF;stroke-width:15;stroke-miterlimit:10;}
	.st35{fill:#FFFFFF;stroke:#000000;stroke-width:8;stroke-miterlimit:10;}
	.st36{fill:none;stroke:#000000;stroke-width:10;stroke-miterlimit:10;}
	.st37{fill:#FFFFFF;stroke:#000000;stroke-width:10;stroke-miterlimit:10;}
	.st38{fill:#FFFFFF;stroke:#00FFFF;stroke-width:10;stroke-miterlimit:10;}
	.st39{fill:#FFFFFF;stroke:#00FFFF;stroke-width:5;stroke-miterlimit:10;}
	.st40{fill:none;stroke:#00FFFF;stroke-width:5;stroke-miterlimit:10;}
	.st41{fill:none;stroke:#000000;stroke-width:6;stroke-miterlimit:10;}
	.st42{fill:none;stroke:#000000;stroke-width:4;stroke-miterlimit:10;}
	.st43{fill:#00FFFF;stroke:#00FFFF;stroke-width:13;stroke-miterlimit:10;}
	.st44{fill:none;stroke:#000000;stroke-width:13;stroke-miterlimit:10;}
	.st45{fill:none;stroke:#000000;stroke-width:12;stroke-miterlimit:10;}
	.st46{stroke:#000000;stroke-width:5;stroke-miterlimit:10;}
	.st47{stroke:#000000;stroke-width:6;stroke-miterlimit:10;}
	.st48{fill:#00F4FF;}
	.st49{fill:#FF3435;}
	.st50{fill:#F26900;}
	.st51{fill:none;stroke:#000000;stroke-width:23;stroke-miterlimit:10;}
	.st52{fill:#00FFF0;}
	.st53{fill:none;stroke:#000000;stroke-width:15;stroke-miterlimit:10;}
	.st54{fill:#FFFFFF;stroke:#000000;stroke-width:15;stroke-miterlimit:10;}
	.st55{fill:none;stroke:#000000;stroke-width:11;stroke-miterlimit:10;}
	.st56{fill:none;stroke:#000000;stroke-width:17;stroke-miterlimit:10;}
	.st57{fill:#00FFF0;stroke:#000000;stroke-width:7;stroke-miterlimit:10;}
</style>
<g>
	<g>
		<rect x="1636.5" y="-1429.5" class="st0" width="309" height="137"/>
		<path d="M1941-1425v128h-300v-128H1941 M1950-1434h-318v146h318V-1434L1950-1434z"/>
	</g>
	<g>
		<line class="st1" x1="1791.5" y1="-1290" x2="1791.5" y2="-1249"/>
	</g>
	<line class="st2" x1="1717.5" y1="-1249.5" x2="1869" y2="-1249.5"/>
</g>
<g>
	<rect x="1494.92" y="-1400.07" class="st0" width="2.98" height="9.71"/>
	<rect x="1494.92" y="-1390.36" class="st0" width="12.89" height="2.65"/>
	<rect x="1504.84" y="-1400.07" class="st0" width="2.98" height="9.71"/>
	<rect x="1504.84" y="-1387.71" class="st0" width="2.98" height="9.71"/>
	<rect x="1513.76" y="-1400.07" class="st0" width="2.98" height="9.71"/>
	<rect x="1513.76" y="-1390.36" class="st0" width="12.89" height="2.65"/>
	<rect x="1523.68" y="-1400.07" class="st0" width="2.98" height="9.71"/>
	<rect x="1523.68" y="-1387.71" class="st0" width="2.98" height="9.71"/>
	<rect x="1485" y="-1400.07" class="st0" width="2.98" height="22.07"/>
	<rect x="1541.53" y="-1400.07" class="st0" width="2.98" height="22.07"/>
	<rect x="1542.52" y="-1400.07" class="st0" width="12.89" height="1.77"/>
	<rect x="1554.42" y="-1398.3" class="st0" width="0.99" height="0"/>
	<rect x="1542.52" y="-1390.36" class="st0" width="12.89" height="1.77"/>
	<rect x="1558.39" y="-1400.07" class="st0" width="2.98" height="22.07"/>
	<rect x="1559.38" y="-1400.07" class="st0" width="12.89" height="1.77"/>
	<rect x="1571.28" y="-1398.3" class="st0" width="0.99" height="0"/>
	<rect x="1559.38" y="-1390.36" class="st0" width="12.89" height="1.77"/>
	<rect x="1569.3" y="-1400.07" class="st0" width="2.98" height="11.48"/>
	<rect x="1576.24" y="-1400.07" class="st0" width="2.98" height="11.48"/>
	<rect x="1577.23" y="-1400.07" class="st0" width="12.89" height="1.77"/>
	<rect x="1589.14" y="-1398.3" class="st0" width="0.99" height="0"/>
	<rect x="1577.23" y="-1390.36" class="st0" width="12.89" height="1.77"/>
	<rect x="1587.15" y="-1388.59" class="st0" width="2.98" height="10.59"/>
	<rect x="1576.24" y="-1379.76" class="st0" width="12.89" height="1.77"/>
	<rect x="1986.83" y="-1491" width="1064.17" height="211"/>
</g>
<g>
	<rect x="1483.5" y="-1354.87" class="st3" width="88.33" height="197.25"/>
	<line class="st4" x1="1573.45" y1="-1156" x2="1623.31" y2="-1177.68"/>
	<line class="st4" x1="1574.54" y1="-1356.5" x2="1623.31" y2="-1340.24"/>
	<line class="st4" x1="1621.14" y1="-1343.49" x2="1621.14" y2="-1174.42"/>
	
		<rect x="1571.92" y="-1189.09" transform="matrix(0.934 -0.3573 0.3573 0.934 526.8527 492.4769)" class="st5" width="48.77" height="18.82"/>
	
		<rect x="1573.41" y="-1197.64" transform="matrix(0.9881 -0.1538 0.1538 0.9881 202.2374 231.326)" class="st5" width="46.19" height="11.92"/>
	
		<rect x="1573.4" y="-1348.75" transform="matrix(0.9487 0.3162 -0.3162 0.9487 -343.3755 -573.9401)" class="st5" width="46.61" height="7.59"/>
	<rect x="1576.71" y="-1245.95" class="st5" width="42.27" height="9.75"/>
	<rect x="1612.47" y="-1313.15" class="st5" width="5.42" height="31.43"/>
	<rect x="1538.77" y="-1335.91" class="st5" width="10.84" height="45.52"/>
	<rect x="1576.71" y="-1345.66" class="st5" width="29.58" height="89"/>
	<rect x="1575.62" y="-1229.7" class="st5" width="42.27" height="9.75"/>
	<rect x="1493.25" y="-1342.41" class="st5" width="2.17" height="7.59"/>
	<rect x="1493.25" y="-1329.41" class="st5" width="2.17" height="7.59"/>
</g>
<g>
	<rect x="1926" y="-1204" class="st6" width="25" height="39"/>
	<rect x="1936" y="-1198" class="st7" width="5" height="12"/>
	<rect x="1927" y="-1203" class="st8" width="5" height="13"/>
	<rect x="1945" y="-1203" class="st8" width="5" height="13"/>
	<rect x="1924" y="-1189" class="st6" width="1" height="6"/>
	<rect x="1924" y="-1178" class="st6" width="1" height="6"/>
</g>
<g>
	<rect x="1782" y="-1235" width="4" height="13"/>
	<rect x="1938" y="-1231" width="3" height="25"/>
	<rect x="1618" y="-1235" width="323" height="4"/>
	<rect x="1694" y="-1293" width="4" height="59"/>
</g>
<g>
	<rect x="1652.5" y="-1219.5" class="st2" width="258" height="74"/>
	<rect x="1667" y="-1162" width="34" height="8"/>
	<rect x="1713" y="-1162" width="134" height="8"/>
	<rect x="1856" y="-1162" width="34" height="8"/>
	<g>
		<rect x="1670.5" y="-1207.5" class="st2" width="11" height="4"/>
		<rect x="1690.5" y="-1207.5" class="st2" width="11" height="4"/>
		<rect x="1670.5" y="-1195.5" class="st2" width="11" height="4"/>
		<rect x="1690.5" y="-1195.5" class="st2" width="11" height="4"/>
		<rect x="1670.5" y="-1183.5" class="st2" width="11" height="4"/>
		<rect x="1690.5" y="-1183.5" class="st2" width="11" height="4"/>
	</g>
	<g>
		<rect x="1857.5" y="-1207.5" class="st2" width="11" height="4"/>
		<rect x="1877.5" y="-1207.5" class="st2" width="11" height="4"/>
		<rect x="1857.5" y="-1195.5" class="st2" width="11" height="4"/>
		<rect x="1877.5" y="-1195.5" class="st2" width="11" height="4"/>
		<rect x="1857.5" y="-1183.5" class="st2" width="11" height="4"/>
		<rect x="1877.5" y="-1183.5" class="st2" width="11" height="4"/>
	</g>
	<g>
		<rect x="1715.5" y="-1207.5" class="st2" width="11" height="4"/>
		<rect x="1735.5" y="-1207.5" class="st2" width="11" height="4"/>
		<rect x="1715.5" y="-1195.5" class="st2" width="11" height="4"/>
		<rect x="1735.5" y="-1195.5" class="st2" width="11" height="4"/>
		<rect x="1715.5" y="-1183.5" class="st2" width="11" height="4"/>
		<rect x="1735.5" y="-1183.5" class="st2" width="11" height="4"/>
		<rect x="1754.5" y="-1207.5" class="st2" width="11" height="4"/>
		<rect x="1774.5" y="-1207.5" class="st2" width="11" height="4"/>
		<rect x="1754.5" y="-1195.5" class="st2" width="11" height="4"/>
		<rect x="1774.5" y="-1195.5" class="st2" width="11" height="4"/>
		<rect x="1754.5" y="-1183.5" class="st2" width="11" height="4"/>
		<rect x="1774.5" y="-1183.5" class="st2" width="11" height="4"/>
		<rect x="1793.5" y="-1207.5" class="st2" width="11" height="4"/>
		<rect x="1813.5" y="-1207.5" class="st2" width="11" height="4"/>
		<rect x="1793.5" y="-1195.5" class="st2" width="11" height="4"/>
		<rect x="1813.5" y="-1195.5" class="st2" width="11" height="4"/>
		<rect x="1793.5" y="-1183.5" class="st2" width="11" height="4"/>
		<rect x="1813.5" y="-1183.5" class="st2" width="11" height="4"/>
		<rect x="1833.5" y="-1207.5" class="st2" width="11" height="4"/>
		<rect x="1833.5" y="-1195.5" class="st2" width="11" height="4"/>
		<rect x="1833.5" y="-1183.5" class="st2" width="11" height="4"/>
	</g>
</g>
<rect x="1861.5" y="-1341.5" transform="matrix(6.123234e-17 -1 1 6.123234e-17 3174 557)" class="st9" width="8" height="66"/>
<rect x="1646" y="-1418" width="15" height="15"/>
<rect x="1666" y="-1418" width="2" height="15"/>
<rect x="1666" y="-1418" width="7" height="2"/>
<rect x="1666" y="-1412" width="7" height="2"/>
<rect x="1673" y="-1418" width="2" height="8"/>
<rect x="1677" y="-1418" width="2" height="15"/>
<rect x="1679" y="-1405" width="7" height="2"/>
<rect x="1679" y="-1411" width="7" height="2"/>
<rect x="1679" y="-1418" width="7" height="2"/>
<rect x="1688" y="-1418" width="2" height="15"/>
<rect x="1690" y="-1405" width="7" height="2"/>
<rect x="1690" y="-1418" width="7" height="2"/>
<rect x="1744.5" y="-1383.5" class="st9" width="45" height="45"/>
<line class="st10" x1="1789.5" y1="-1338.5" x2="1800.5" y2="-1345.5"/>
<line class="st10" x1="1788.5" y1="-1382.5" x2="1800.9" y2="-1389.76"/>
<line class="st10" x1="1744.5" y1="-1383.5" x2="1755.5" y2="-1389.5"/>
<line class="st10" x1="1755" y1="-1389.5" x2="1800" y2="-1389.5"/>
<line class="st10" x1="1800.5" y1="-1345" x2="1800.5" y2="-1390"/>
<line class="st10" x1="1786.2" y1="-1363.63" x2="1798.61" y2="-1370.88"/>
<rect x="1754.5" y="-1388.5" class="st9" width="46" height="43"/>
<rect x="1794.5" y="-1382.5" class="st9" width="2" height="1"/>
<rect x="1787.46" y="-1346.65" transform="matrix(0.8632 -0.5049 0.5049 0.8632 923.9072 721.2335)" class="st9" width="10.58" height="5"/>
<rect x="1780.5" y="-1354.5" class="st9" width="13" height="6"/>
<rect x="1746.18" y="-1386.1" transform="matrix(0.8632 -0.5049 0.5049 0.8632 938.1769 694.994)" class="st9" width="10.58" height="5"/>
<rect x="1744.5" y="-1338.5" class="st9" width="1" height="43"/>
<rect x="1868" y="-1462" transform="matrix(6.123234e-17 -1 1 6.123234e-17 3257.5 479.5)" class="st9" width="1" height="146"/>
<rect x="1671" y="-1412" width="2" height="4"/>
<rect x="1673" y="-1408" width="2" height="5"/>
<g>
	<rect x="1650.5" y="-1315.5" class="st9" width="1" height="14"/>
	<rect x="1657" y="-1309" transform="matrix(6.123234e-17 -1 1 6.123234e-17 2959.5 355.5)" class="st9" width="1" height="14"/>
</g>
<g>
	
		<rect x="1921" y="-1309" transform="matrix(-3.267951e-07 -1 1 -3.267951e-07 3223.5007 619.4996)" class="st9" width="1" height="14"/>
	
		<rect x="1927.5" y="-1315.5" transform="matrix(-1 3.267942e-07 -3.267942e-07 -1 3855.9995 -2617.0007)" class="st9" width="1" height="14"/>
</g>
<g>
	
		<rect x="1927.5" y="-1418.5" transform="matrix(-1 3.267960e-07 -3.267960e-07 -1 3855.9995 -2823.0007)" class="st9" width="1" height="14"/>
	
		<rect x="1921" y="-1425" transform="matrix(3.267942e-07 1 -1 3.267942e-07 503.4994 -3339.4995)" class="st9" width="1" height="14"/>
</g>
<g>
	<rect x="1660.5" y="-1383.5" class="st9" width="24" height="3"/>
	<rect x="1687.5" y="-1383.5" class="st9" width="24" height="3"/>
	<rect x="1660.5" y="-1377.5" class="st9" width="13" height="3"/>
	<rect x="1676.5" y="-1377.5" class="st9" width="35" height="3"/>
	<rect x="1697.5" y="-1371.5" class="st9" width="14" height="3"/>
	<rect x="1660.5" y="-1365.5" class="st9" width="24" height="3"/>
	<rect x="1665.5" y="-1371.5" class="st9" width="30" height="3"/>
	<rect x="1660.5" y="-1371.5" class="st9" width="3" height="3"/>
	<rect x="1687.5" y="-1365.5" class="st9" width="3" height="3"/>
	<rect x="1693.5" y="-1365.5" class="st9" width="3" height="3"/>
	<rect x="1699.5" y="-1365.5" class="st9" width="12" height="3"/>
</g>
<rect x="1682" y="-1378" transform="matrix(6.123234e-17 -1 1 6.123234e-17 3038.5 333.5)" class="st9" width="8" height="51"/>
<rect x="1822.5" y="-1377.5" class="st9" width="84" height="3"/>
<rect x="1822.5" y="-1376.5" class="st9" width="0" height="33"/>
<rect x="1906.5" y="-1376.06" class="st9" width="0" height="32.56"/>
<rect x="1822.5" y="-1344.5" class="st9" width="84" height="1"/>
<rect x="1899.5" y="-1377.5" class="st11" width="3" height="3"/>
<rect x="1896.5" y="-1376.5" class="st11" width="3" height="2"/>
<rect x="1891.5" y="-1358.5" transform="matrix(6.123234e-17 -1 1 6.123234e-17 3240 544)" class="st9" width="1" height="21"/>
<rect x="1826.5" y="-1362.5" class="st9" width="1" height="15"/>
<g>
	<rect x="2015.86" y="-1484.02" class="st12" width="88.33" height="197.25"/>
	<line class="st13" x1="2105.81" y1="-1285.14" x2="2155.67" y2="-1306.82"/>
	<line class="st13" x1="2106.9" y1="-1485.64" x2="2155.67" y2="-1469.38"/>
	<line class="st13" x1="2153.5" y1="-1472.64" x2="2153.5" y2="-1303.57"/>
	
		<rect x="2104.28" y="-1318.23" transform="matrix(0.934 -0.3573 0.3573 0.934 608.1326 674.1593)" class="st14" width="48.77" height="18.82"/>
	
		<rect x="2105.77" y="-1326.79" transform="matrix(0.9881 -0.1538 0.1538 0.9881 228.4277 311.6529)" class="st14" width="46.19" height="11.92"/>
	
		<rect x="2105.76" y="-1477.89" transform="matrix(0.9487 0.3162 -0.3162 0.9487 -356.8947 -748.9145)" class="st14" width="46.61" height="7.59"/>
	<rect x="2109.07" y="-1375.1" class="st14" width="42.27" height="9.75"/>
	<rect x="2144.83" y="-1442.29" class="st14" width="5.42" height="31.43"/>
	<rect x="2071.13" y="-1465.05" class="st14" width="10.84" height="45.52"/>
	<rect x="2109.07" y="-1474.8" class="st14" width="29.58" height="89"/>
	<rect x="2107.98" y="-1358.84" class="st14" width="42.27" height="9.75"/>
	<rect x="2025.61" y="-1471.55" class="st14" width="2.17" height="7.59"/>
	<rect x="2025.61" y="-1458.55" class="st14" width="2.17" height="7.59"/>
</g>
<g>
	<g>
		<rect x="2173.76" y="-1467.5" width="309" height="137"/>
		<path class="st0" d="M2478.26-1463v128h-300v-128H2478.26 M2487.26-1472h-318v146h318V-1472L2487.26-1472z"/>
	</g>
	<g>
		<line class="st15" x1="2328.76" y1="-1328" x2="2328.76" y2="-1287"/>
	</g>
	<line class="st16" x1="2254.76" y1="-1287.5" x2="2406.26" y2="-1287.5"/>
</g>
<g>
	<path class="st0" d="M2192.99-1426.18h5.65v-5.65h50.85v11.3h-45.2v45.2h45.2v11.3h-50.85v-5.65h-5.65V-1426.18z"/>
	<path class="st0" d="M2260.79-1420.53h11.3v33.9h22.6v-33.9h11.3v62.15h-5.65v5.65h-33.9v-11.3h28.25v-11.3h-28.25v-5.65h-5.65
		V-1420.53z"/>
	<path class="st0" d="M2317.29-1431.83h11.3v16.95h28.25v5.65h5.65v39.55h-5.65v5.65h-39.55V-1431.83z M2328.59-1375.33h22.6v-28.25
		h-22.6V-1375.33z"/>
	<path class="st0" d="M2373.79-1414.88h5.65v-5.65h33.9v5.65h5.65v28.25h-33.9v11.3h28.25v11.3h-33.9v-5.65h-5.65V-1414.88z
		 M2385.09-1397.93h22.6v-11.3h-22.6V-1397.93z"/>
	<path class="st0" d="M2430.29-1420.53h11.3v5.65h5.65v-5.65h22.6v5.65h5.65v11.3h-11.3v-5.65h-16.95v5.65h-5.65v39.55h-11.3
		V-1420.53z"/>
</g>
<rect x="3051" y="-1490" class="st0" width="764.9" height="209.66"/>
<text transform="matrix(1.2222 0 0 1 3071 -1327.5195)" style="font-family:'Roboto-Regular'; font-size:186.4234px;">Games</text>
<g>
	<path class="st0" d="M2520.11-1445.54h18.43v73.73h18.43v-36.87h18.43v36.87h18.43v-73.73h18.43v82.95h-9.22v9.22h-9.22v18.43
		h-18.43v-18.43h-18.43v18.43h-18.43v-18.43h-9.22v-9.22h-9.22V-1445.54z"/>
	<path class="st0" d="M2630.7-1417.89h9.22v-9.22h55.3v9.22h9.22v73.73h-9.22v9.22h-55.3v-9.22h-9.22V-1417.89z M2649.13-1353.38
		H2686v-55.3h-36.87V-1353.38z"/>
	<path class="st0" d="M2722.86-1427.11h18.43v9.22h9.22v-9.22h36.86v9.22h9.22v18.43h-18.43v-9.22h-27.65v9.22h-9.22v64.51h-18.43
		V-1427.11z"/>
	<path class="st0" d="M2815.03-1445.54h18.43v110.59h-18.43V-1445.54z"/>
	<path class="st0" d="M2851.89-1408.68h9.22v-9.22h46.08v-27.65h18.43v110.59h-64.51v-9.22h-9.22V-1408.68z M2870.32-1353.38h36.87
		v-46.08h-36.87V-1353.38z"/>
	<path class="st0" d="M2944.05-1417.89h9.22v-9.22h64.51v18.43h-55.3v18.43h46.08v9.22h9.22v36.87h-9.22v9.22h-64.51v-18.43h55.3
		v-18.43h-46.08v-9.22h-9.22V-1417.89z"/>
</g>
<g>
	<rect x="2017.91" y="-1258.68" class="st3" width="88.33" height="197.25"/>
	<line class="st4" x1="2107.86" y1="-1059.81" x2="2157.72" y2="-1081.49"/>
	<line class="st4" x1="2108.95" y1="-1260.31" x2="2157.72" y2="-1244.05"/>
	<line class="st4" x1="2155.55" y1="-1247.3" x2="2155.55" y2="-1078.23"/>
	
		<rect x="2106.33" y="-1092.9" transform="matrix(0.934 -0.3573 0.3573 0.934 527.7592 689.7646)" class="st5" width="48.77" height="18.82"/>
	
		<rect x="2107.82" y="-1101.45" transform="matrix(0.9881 -0.1538 0.1538 0.9881 193.802 314.6479)" class="st5" width="46.19" height="11.92"/>
	
		<rect x="2107.81" y="-1252.56" transform="matrix(0.9487 0.3162 -0.3162 0.9487 -285.5333 -737.999)" class="st5" width="46.61" height="7.59"/>
	<rect x="2111.11" y="-1149.76" class="st5" width="42.27" height="9.75"/>
	<rect x="2146.88" y="-1216.96" class="st5" width="5.42" height="31.43"/>
	<rect x="2073.18" y="-1239.72" class="st5" width="10.84" height="45.52"/>
	<rect x="2111.11" y="-1249.47" class="st5" width="29.58" height="89"/>
	<rect x="2110.03" y="-1133.51" class="st5" width="42.27" height="9.75"/>
	<rect x="2027.66" y="-1246.22" class="st5" width="2.17" height="7.59"/>
	<rect x="2027.66" y="-1233.21" class="st5" width="2.17" height="7.59"/>
</g>
<g>
	<g>
		<path d="M2508.3-1247v136.94h-300V-1247H2508.3 M2517.3-1256h-318v154.94h318V-1256L2517.3-1256z"/>
	</g>
	<g>
		<line class="st1" x1="2358.8" y1="-1103.18" x2="2358.8" y2="-1059.67"/>
	</g>
	<line class="st2" x1="2284.8" y1="-1060.2" x2="2436.3" y2="-1060.2"/>
</g>
<g>
	<rect x="3260" y="-1255" width="713" height="204.76"/>
	<g>
		<g>
			<path class="st0" d="M3441.96-1094.2h-9.1c-0.79-1.52-1.19-8.1-1.39-20.43c-4.96,8.84-15.8,21.92-44.23,21.92
				c-39.43,0-59.67-28.14-59.67-64.74c0-38.44,21.62-67.32,61.9-67.32c29.74,0,49.37,14.62,53.67,38.31h-11
				c-5.82-18-19.22-28.84-43.06-28.84c-34.19,0-49.72,24.95-49.72,57.29c0,29.27,14.98,55.83,48.38,55.83
				c34.13,0,43.63-20.87,43.63-49.01v-1.46h-44.02v-9.49h54.62V-1094.2z"/>
			<path class="st0" d="M3540.35-1111.83c0,8.12,0.78,14.7,1.37,17.63h-9.79c-0.79-2.2-1.37-6.27-1.76-14.06
				c-3.34,6.78-11.94,16.27-32.09,16.27c-22.79,0-32.62-13.83-32.62-27.65c0-20.27,16.72-29.49,46.15-29.49c8.17,0,14.64,0,18.55,0
				v-9.31c0-9.15-2.94-21.35-25.1-21.35c-19.64,0-22.58,9.64-24.72,17.17h-10.18c1.18-10.27,7.95-25.86,35.11-25.86
				c22.47,0,35.07,8.86,35.07,29.15V-1111.83z M3530.35-1141.04c-3.7,0-12.64,0-19.06,0c-21.67,0-35.05,5.32-35.05,21
				c0,11.49,8.73,19.35,22.39,19.35c27.83,0,31.72-17.35,31.72-37.06V-1141.04z"/>
			<path class="st0" d="M3572.55-1162.51c0-7.92,0-16.55-0.2-23.75h9.99c0.2,3.11,0.6,10.96,0.41,16.26
				c4.14-9.15,13.15-18.47,29.4-18.47c13.75,0,24.48,6.45,28.4,18.13c4.93-9.53,14.71-18.13,31.96-18.13
				c15.16,0,30.83,8.14,30.83,33.7v60.57h-10.19v-59.42c0-12.25-4.68-25.57-22.78-25.57c-18.88,0-27.42,14.2-27.42,31.97v53.02h-10
				v-59.22c0-13.35-4.28-25.76-22.2-25.76c-18.87,0-28,15.62-28,34.33v50.65h-10.2V-1162.51z"/>
			<path class="st0" d="M3737.97-1139.03c0.19,23.48,12.81,38.13,31.53,38.13c18.29,0,24.51-9.63,28.02-17.14h10.4
				c-4.11,12.13-14.52,26.05-38.82,26.05c-29.9,0-41.54-24.09-41.54-47.49c0-26.39,13.98-48.99,42.71-48.99
				c30.31,0,39.97,24.45,39.97,41.89c0,2.59,0,5.15-0.2,7.55H3737.97z M3799.66-1147.3c-0.2-18.06-10.66-32.3-29.77-32.3
				c-20.06,0-29.2,13.15-31.33,32.3H3799.66z"/>
			<path class="st0" d="M3834.5-1119.66c3.31,11.86,12.28,18.98,27.67,18.98c17.31,0,24.3-7.46,24.3-17.66
				c0-10.39-4.7-15.48-26.51-20.42c-25.48-5.75-31.74-12.97-31.74-25.14c0-12.72,10.21-24.56,32.56-24.56
				c22.36,0,32.95,12.76,34.5,25.82h-10.18c-1.75-7.63-8.13-17.14-24.74-17.14c-16.9,0-21.76,7.82-21.76,15.12
				c0,8.38,4.67,12.57,24.03,16.97c27.8,6.28,34.62,14.79,34.62,28.6c0,16.72-14.48,27.11-35.3,27.11
				c-22.55,0-35.11-11.1-37.84-27.67H3834.5z"/>
		</g>
	</g>
</g>
<g>
	<g>
		<path d="M2585.34-1058.43l-45.35-172.09h13.64c11.1,42.11,35.54,135.97,39.25,156.1h0.23c3.11-16.31,29.8-110.7,41.24-156.1h14.43
			c10.72,41.85,36.74,142.16,39.38,155.82h0.23c5.16-24.63,32.31-115.07,43.44-155.82h13.34l-49.99,172.09h-14.99
			c-10.73-40.51-36.01-139.14-38.88-154.21h-0.23c-4.25,22.55-29.32,111.6-40.96,154.21H2585.34z"/>
		<path d="M2865.22-1120.21c0,34.28-18.12,64.73-53.1,64.73c-31.75,0-51.48-27.32-51.48-64.47c0-35.26,18.59-64.49,52.66-64.49
			C2844.55-1184.44,2865.22-1158.85,2865.22-1120.21z M2773.53-1119.96c0,29.16,14.88,52.57,39.52,52.57
			c25.11,0,39.28-21.73,39.28-52.57c0-28.97-13.95-52.58-39.75-52.58C2786.12-1172.54,2773.53-1149.42,2773.53-1119.96z"/>
		<path d="M2894.11-1148.02c0-20.48-0.23-29.39-0.23-33.47h11.94c0.24,3.91,0.48,11.88,0.48,27.43
			c6.76-18.36,21.71-29.42,40.72-30.38v13.72c-24.36,1.67-40.72,19.14-40.72,48.53v63.76h-12.19V-1148.02z"/>
		<path d="M2970.47-1058.43v-181.21h12.19v181.21H2970.47z"/>
		<path d="M3111.69-1239.64v145.81c0,11.8,0,23.12,0.23,35.4h-11.7c-0.47-2.97-0.72-14.42-0.72-20.5
			c-5.86,14.89-18.92,23.45-39.25,23.45c-30.46,0-48.75-26.06-48.75-63.01c0-37.9,19.93-65.95,51.84-65.95
			c23.29,0,32.66,10.49,36.16,18.31v-73.51H3111.69z M3024.4-1119c0,33.5,16.47,51.59,36.53,51.59c30.75,0,39.06-22.33,39.06-55.45
			c0-31.51-7.17-49.67-36.98-49.67C3039.95-1172.52,3024.4-1153.2,3024.4-1119z"/>
		<path d="M3150.43-1092.46c3.95,15.86,14.66,25.36,33.04,25.36c20.66,0,29.01-9.97,29.01-23.61c0-13.89-5.61-20.7-31.66-27.29
			c-30.42-7.68-37.89-17.34-37.89-33.61c0-17.01,12.19-32.83,38.88-32.83c26.69,0,39.34,17.06,41.19,34.51h-12.15
			c-2.09-10.21-9.71-22.91-29.53-22.91c-20.18,0-25.98,10.46-25.98,20.21c0,11.21,5.58,16.8,28.7,22.68
			c33.19,8.39,41.33,19.78,41.33,38.23c0,22.35-17.29,36.24-42.15,36.24c-26.92,0-41.92-14.84-45.18-36.98H3150.43z"/>
	</g>
</g>
<line class="st17" x1="2376" y1="-1349" x2="2463" y2="-1349"/>
<line class="st18" x1="2186" y1="-1451" x2="2186" y2="-1348"/>
<rect x="1968" y="-1505" width="20" height="228"/>
<rect x="2267" y="-1397" class="st0" width="14" height="3"/>
<rect x="2264" y="-1397" width="9" height="3"/>
<rect x="2328" y="-1426" class="st0" width="4" height="9"/>
<rect x="2325" y="-1426" width="4" height="9"/>
<rect x="2441" y="-1392" class="st0" width="3" height="22"/>
<rect x="2446" y="-1377" class="st0" width="1" height="1"/>
<rect x="2439" y="-1392" width="3" height="22"/>
<rect x="2244" y="-1371" width="7" height="5"/>
<rect x="2398" y="-1423" width="22" height="5"/>
<line class="st19" x1="4382" y1="-893.5" x2="4581" y2="-893.5"/>
<line class="st19" x1="4376" y1="-910.5" x2="4586" y2="-910.5"/>
<g>
	<line class="st19" x1="4495" y1="-710.5" x2="4611" y2="-710.5"/>
	<line class="st19" x1="4646.5" y1="-862.5" x2="4699.5" y2="-648.5"/>
	<line class="st19" x1="4650.5" y1="-623.5" x2="4701.5" y2="-651.5"/>
	<line class="st19" x1="4587.5" y1="-709.5" x2="4655.5" y2="-623.5"/>
</g>
<g>
	<line class="st19" x1="4406.5" y1="-891.5" x2="4420.5" y2="-833.5"/>
	<line class="st19" x1="4417" y1="-835.5" x2="4478" y2="-835.5"/>
</g>
<g>
	<line class="st19" x1="4557" y1="-890.5" x2="4543" y2="-832.5"/>
	<line class="st19" x1="4547" y1="-834.5" x2="4486" y2="-834.5"/>
</g>
<g>
	<line class="st19" x1="4469" y1="-710.5" x2="4353" y2="-710.5"/>
	<line class="st19" x1="4317.32" y1="-862.31" x2="4264.32" y2="-648.31"/>
	<line class="st19" x1="4313.32" y1="-623.31" x2="4262.32" y2="-651.31"/>
	<line class="st19" x1="4376.32" y1="-709.31" x2="4308.32" y2="-623.31"/>
</g>
<g>
	<line class="st19" x1="4300.5" y1="-886.5" x2="4376.5" y2="-920.5"/>
	<line class="st19" x1="4313.08" y1="-861.04" x2="4389.08" y2="-895.04"/>
	<line class="st19" x1="4371.5" y1="-921.5" x2="4385.5" y2="-892.5"/>
	<line class="st19" x1="4303.08" y1="-890.54" x2="4317.08" y2="-861.54"/>
</g>
<g>
	<line class="st19" x1="4662.38" y1="-886.77" x2="4586.38" y2="-920.77"/>
	<line class="st19" x1="4649.79" y1="-861.31" x2="4573.79" y2="-895.31"/>
	<line class="st19" x1="4591.38" y1="-921.77" x2="4577.38" y2="-892.77"/>
	<line class="st19" x1="4659.79" y1="-890.81" x2="4645.79" y2="-861.81"/>
</g>
<g>
	<line class="st19" x1="4356.5" y1="-712.5" x2="4315.5" y2="-659.5"/>
	<line class="st19" x1="4309.5" y1="-651.5" x2="4303.5" y2="-644.5"/>
</g>
<g>
	<line class="st19" x1="4607.09" y1="-711.87" x2="4648.09" y2="-658.87"/>
	<line class="st19" x1="4654.09" y1="-650.87" x2="4660.09" y2="-643.87"/>
</g>
<line class="st19" x1="4435" y1="-817.5" x2="4454" y2="-817.5"/>
<line class="st19" x1="4510" y1="-817.5" x2="4529" y2="-817.5"/>
<line class="st19" x1="4402.5" y1="-771" x2="4402.5" y2="-745"/>
<g>
	<line class="st19" x1="4419.5" y1="-788" x2="4419.5" y2="-762"/>
	<line class="st19" x1="4419.5" y1="-754" x2="4419.5" y2="-728"/>
	<line class="st19" x1="4403" y1="-766.5" x2="4423" y2="-766.5"/>
	<line class="st19" x1="4403" y1="-749.5" x2="4423" y2="-749.5"/>
	<line class="st19" x1="4416" y1="-784.5" x2="4442" y2="-784.5"/>
</g>
<g>
	<line class="st19" x1="4437.5" y1="-728" x2="4437.5" y2="-754"/>
	<line class="st19" x1="4437.5" y1="-762" x2="4437.5" y2="-788"/>
	<line class="st19" x1="4454" y1="-749.5" x2="4434" y2="-749.5"/>
	<line class="st19" x1="4454" y1="-766.5" x2="4434" y2="-766.5"/>
	<line class="st19" x1="4441" y1="-731.5" x2="4415" y2="-731.5"/>
</g>
<line class="st19" x1="4454.5" y1="-771" x2="4454.5" y2="-745"/>
<path class="st19" d="M4493.5-864.5c0.23,15.57-24.23,15.57-24,0C4469.27-880.07,4493.73-880.07,4493.5-864.5z"/>
<g>
	<path class="st19" d="M4380.5-826.5c0.25,16.87-26.25,16.87-26,0C4354.25-843.37,4380.75-843.37,4380.5-826.5z"/>
	<path class="st19" d="M4397.22-826.82c0.56,38.05-59.21,38.05-58.65,0C4338.02-864.87,4397.78-864.87,4397.22-826.82z"/>
</g>
<g>
	<path class="st19" d="M4561.39-757.46c0.25,16.87-26.25,16.87-26,0C4535.14-774.33,4561.64-774.33,4561.39-757.46z"/>
	<path class="st19" d="M4578.11-757.79c0.56,38.05-59.21,38.05-58.65,0C4518.91-795.83,4578.67-795.83,4578.11-757.79z"/>
</g>
<path class="st19" d="M4603.5-849.5c0.17,11.68-18.17,11.68-18,0C4585.33-861.18,4603.67-861.18,4603.5-849.5z"/>
<path class="st19" d="M4603.5-803.5c0.17,11.68-18.17,11.68-18,0C4585.33-815.18,4603.67-815.18,4603.5-803.5z"/>
<path class="st19" d="M4626.5-826.5c0.17,11.68-18.17,11.68-18,0C4608.33-838.18,4626.67-838.18,4626.5-826.5z"/>
<path class="st19" d="M4580.5-826.5c0.17,11.68-18.17,11.68-18,0C4562.33-838.18,4580.67-838.18,4580.5-826.5z"/>
<path class="st19" d="M4483.5-709.5c-1.78,0.26-2.26-0.22-2-2C4483.28-711.76,4483.76-711.28,4483.5-709.5z"/>
<g>
	<line class="st19" x1="3658.5" y1="47.5" x2="3658.5" y2="-155.5"/>
	<line class="st19" x1="3606.5" y1="48" x2="3606.5" y2="-366.5"/>
	<line class="st19" x1="3765.74" y1="47.53" x2="3765.5" y2="-395.5"/>
	<line class="st19" x1="3658.5" y1="-165" x2="3658.5" y2="-395.5"/>
	<line class="st19" x1="3606.5" y1="43.5" x2="3770.5" y2="43.5"/>
	<line class="st19" x1="3603" y1="15.5" x2="3662.5" y2="15.5"/>
	<line class="st19" x1="3602.5" y1="-362.5" x2="3658.5" y2="-362.5"/>
	<line class="st19" x1="3654.5" y1="-391.5" x2="3769.5" y2="-391.5"/>
	<line class="st19" x1="3699.5" y1="-387.5" x2="3699.5" y2="-145.5"/>
	<line class="st19" x1="3725.5" y1="-394" x2="3725.5" y2="-283.5"/>
	<line class="st19" x1="3725.34" y1="-257.65" x2="3725.5" y2="-146.5"/>
	<line class="st19" x1="3698.5" y1="-150.5" x2="3729.5" y2="-150.5"/>
	<line class="st19" x1="3725.5" y1="-276" x2="3725.5" y2="-266.5"/>
	<line class="st19" x1="3623.5" y1="-349.5" x2="3623.5" y2="-305.5"/>
	<line class="st19" x1="3641.5" y1="-349.5" x2="3641.5" y2="-305.5"/>
	<line class="st19" x1="3619.5" y1="-345.5" x2="3645.5" y2="-345.5"/>
	<line class="st19" x1="3619" y1="-309.5" x2="3645.5" y2="-309.5"/>
	<line class="st19" x1="3624.17" y1="-41.68" x2="3624.17" y2="2.32"/>
	<line class="st19" x1="3642.17" y1="-41.68" x2="3642.17" y2="2.32"/>
	<line class="st19" x1="3620.17" y1="-37.68" x2="3646.17" y2="-37.68"/>
	<line class="st19" x1="3619.67" y1="-1.68" x2="3646.17" y2="-1.68"/>
	<line class="st19" x1="3632.5" y1="-67" x2="3632.5" y2="-50.5"/>
	<circle class="st19" cx="3712.5" cy="-123.5" r="9"/>
	<circle class="st19" cx="3712.5" cy="-19.5" r="13"/>
	<g>
		<line class="st19" x1="3778" y1="-75.5" x2="3894" y2="-75.5"/>
		<line class="st19" x1="3929.5" y1="-227.5" x2="3982.5" y2="-13.5"/>
		<line class="st19" x1="3933.5" y1="11.5" x2="3984.5" y2="-16.5"/>
		<line class="st19" x1="3870.5" y1="-74.5" x2="3938.5" y2="11.5"/>
	</g>
	<g>
		<line class="st19" x1="3840" y1="-255.5" x2="3826" y2="-197.5"/>
		<line class="st19" x1="3830" y1="-199.5" x2="3769" y2="-199.5"/>
	</g>
	<g>
		<line class="st19" x1="3945.38" y1="-251.77" x2="3869.38" y2="-285.77"/>
		<line class="st19" x1="3932.79" y1="-226.31" x2="3856.79" y2="-260.31"/>
		<line class="st19" x1="3874.38" y1="-286.77" x2="3860.38" y2="-257.77"/>
		<line class="st19" x1="3942.79" y1="-255.81" x2="3928.79" y2="-226.81"/>
	</g>
	<g>
		<line class="st19" x1="3890.09" y1="-76.87" x2="3931.09" y2="-23.87"/>
		<line class="st19" x1="3937.09" y1="-15.87" x2="3943.09" y2="-8.87"/>
	</g>
	<line class="st19" x1="3793" y1="-182.5" x2="3812" y2="-182.5"/>
	<g>
		<path class="st19" d="M3844.39-122.46c0.25,16.87-26.25,16.87-26,0C3818.14-139.33,3844.64-139.33,3844.39-122.46z"/>
		<path class="st19" d="M3861.11-122.79c0.56,38.05-59.21,38.05-58.65,0C3801.91-160.83,3861.67-160.83,3861.11-122.79z"/>
	</g>
	<path class="st19" d="M3886.5-214.5c0.17,11.68-18.17,11.68-18,0C3868.33-226.18,3886.67-226.18,3886.5-214.5z"/>
	<path class="st19" d="M3886.5-168.5c0.17,11.68-18.17,11.68-18,0C3868.33-180.18,3886.67-180.18,3886.5-168.5z"/>
	<path class="st19" d="M3909.5-191.5c0.17,11.68-18.17,11.68-18,0C3891.33-203.18,3909.67-203.18,3909.5-191.5z"/>
	<path class="st19" d="M3863.5-191.5c0.17,11.68-18.17,11.68-18,0C3845.33-203.18,3863.67-203.18,3863.5-191.5z"/>
	<path class="st19" d="M3766.5-74.5c-1.78,0.26-2.26-0.22-2-2C3766.28-76.76,3766.76-76.28,3766.5-74.5z"/>
	<line class="st19" x1="3765.5" y1="-274.5" x2="3868.5" y2="-274.5"/>
	<line class="st19" x1="3764" y1="-257.5" x2="3867" y2="-257.5"/>
	<path class="st19" d="M3783.5-227c0,1.17,0.02,9.21-6,12.5c-2.8,1.53-7.31,2.25-10,0c-0.92-0.77-1.98-2.18-2-12
		c-0.02-8.39,0.01-12.62,2-14c3.16-2.2,8.84-0.02,12,3C3783.48-233.7,3783.5-228.53,3783.5-227z"/>
</g>
<rect x="2467.5" y="147.5" class="st19" width="286" height="343"/>
<line class="st20" x1="2503.5" y1="186.5" x2="2718.5" y2="186.5"/>
<line class="st20" x1="2503.5" y1="228.5" x2="2718.5" y2="228.5"/>
<rect x="2508.5" y="265.5" class="st19" width="106" height="106"/>
<rect x="2649.5" y="265.5" class="st19" width="8" height="106"/>
<rect x="2677.5" y="265.5" class="st19" width="9" height="106"/>
<rect x="2706.5" y="265.5" class="st19" width="8" height="106"/>
<line class="st19" x1="2508.5" y1="404.5" x2="2587" y2="404.5"/>
<line class="st19" x1="2599.5" y1="404.5" x2="2647.5" y2="404.5"/>
<line class="st19" x1="2661.5" y1="404.5" x2="2692.5" y2="404.5"/>
<line class="st19" x1="2702.5" y1="404.5" x2="2718.5" y2="404.5"/>
<line class="st19" x1="2508.5" y1="421.5" x2="2661.5" y2="421.5"/>
<line class="st19" x1="2671.5" y1="421.5" x2="2718.5" y2="421.5"/>
<line class="st19" x1="2508.5" y1="442.5" x2="2559.5" y2="442.5"/>
<line class="st19" x1="2570.5" y1="442.5" x2="2661.5" y2="442.5"/>
<line class="st19" x1="2671.5" y1="442.5" x2="2718.5" y2="442.5"/>
<line class="st19" x1="2508.5" y1="460.5" x2="2718.5" y2="460.5"/>
<line class="st19" x1="2466.5" y1="147.5" x2="2484.5" y2="125.5"/>
<line class="st19" x1="2750.53" y1="147.55" x2="2768.53" y2="125.55"/>
<line class="st19" x1="2753.53" y1="490.55" x2="2771.53" y2="468.55"/>
<path class="st19" d="M2782.5,275.5"/>
<line class="st19" x1="2480.5" y1="127.5" x2="2770.5" y2="127.5"/>
<line class="st19" x1="2769.5" y1="471.5" x2="2769.5" y2="125.5"/>
<circle class="st19" cx="2561.5" cy="318.5" r="38"/>
<line class="st19" x1="2525.5" y1="306.5" x2="2594.5" y2="306.5"/>
<line class="st19" x1="2525.5" y1="329.5" x2="2594.5" y2="329.5"/>
<ellipse class="st19" cx="2561.5" cy="318.5" rx="13" ry="38"/>
<rect x="2865.47" y="582.12" class="st19" width="286" height="343"/>
<line class="st19" x1="2864.47" y1="582.12" x2="2882.47" y2="560.12"/>
<line class="st19" x1="3148.51" y1="582.17" x2="3166.51" y2="560.17"/>
<line class="st19" x1="3151.51" y1="925.17" x2="3169.51" y2="903.17"/>
<path class="st19" d="M3180.47,710.12"/>
<line class="st19" x1="2878.47" y1="562.12" x2="3168.47" y2="562.12"/>
<line class="st19" x1="3167.47" y1="906.12" x2="3167.47" y2="560.12"/>
<rect x="2878.5" y="566.5" class="st21" width="283" height="13"/>
<rect x="3157.5" y="576.5" class="st22" width="4" height="333"/>
<rect x="2864.5" y="591.5" class="st22" width="278" height="324"/>
<g>
	<line class="st23" x1="2905.47" y1="618.12" x2="3120.47" y2="618.12"/>
	<line class="st23" x1="2905.47" y1="660.12" x2="3120.47" y2="660.12"/>
	<rect x="2910.47" y="697.12" class="st15" width="106" height="106"/>
	<rect x="3051.47" y="697.12" class="st15" width="8" height="106"/>
	<rect x="3079.47" y="697.12" class="st15" width="9" height="106"/>
	<rect x="3108.47" y="697.12" class="st15" width="8" height="106"/>
	<line class="st15" x1="2910.47" y1="836.12" x2="2988.97" y2="836.12"/>
	<line class="st15" x1="3001.47" y1="836.12" x2="3049.47" y2="836.12"/>
	<line class="st15" x1="3063.47" y1="836.12" x2="3094.47" y2="836.12"/>
	<line class="st15" x1="3104.47" y1="836.12" x2="3120.47" y2="836.12"/>
	<line class="st15" x1="2910.47" y1="853.12" x2="3063.47" y2="853.12"/>
	<line class="st15" x1="3073.47" y1="853.12" x2="3120.47" y2="853.12"/>
	<line class="st15" x1="2910.47" y1="874.12" x2="2961.47" y2="874.12"/>
	<line class="st15" x1="2972.47" y1="874.12" x2="3063.47" y2="874.12"/>
	<line class="st15" x1="3073.47" y1="874.12" x2="3120.47" y2="874.12"/>
	<line class="st15" x1="2910.47" y1="892.12" x2="3120.47" y2="892.12"/>
	<circle class="st15" cx="2963.47" cy="750.12" r="38"/>
	<line class="st15" x1="2927.47" y1="738.12" x2="2996.47" y2="738.12"/>
	<line class="st15" x1="2927.47" y1="761.12" x2="2996.47" y2="761.12"/>
	<ellipse class="st15" cx="2963.47" cy="750.12" rx="13" ry="38"/>
</g>
<path class="st19" d="M3370.68,760.34L3370.68,760.34c-22.41,23.27-59.44,23.97-82.72,1.56v0c-23.27-22.41-23.97-59.44-1.56-82.72
	l0,0c22.41-23.27,59.44-23.97,82.72-1.56v0C3392.39,700.03,3393.09,737.06,3370.68,760.34z"/>
<rect x="3423.61" y="769.21" transform="matrix(0.6936 -0.7203 0.7203 0.6936 462.9667 2721.1853)" class="st19" width="13.55" height="94.28"/>
<line class="st19" x1="3369.5" y1="757.5" x2="3394.5" y2="781.5"/>
<line class="st19" x1="3290.5" y1="691.5" x2="3331.76" y2="691.5"/>
<line class="st19" x1="3336.92" y1="691.5" x2="3366.5" y2="691.5"/>
<line class="st19" x1="3290.5" y1="704.39" x2="3315.43" y2="704.39"/>
<line class="st19" x1="3318.87" y1="704.39" x2="3367" y2="704.39"/>
<line class="st19" x1="3290.5" y1="717.29" x2="3333.48" y2="717.29"/>
<line class="st19" x1="3367" y1="717.29" x2="3353.25" y2="717.29"/>
<line class="st19" x1="3290.5" y1="729.32" x2="3327.46" y2="729.32"/>
<line class="st19" x1="3330.9" y1="729.32" x2="3367" y2="729.32"/>
<line class="st19" x1="3290.5" y1="743.5" x2="3366.5" y2="743.5"/>
<line class="st19" x1="3351.1" y1="717.29" x2="3337.35" y2="717.29"/>
<polygon class="st24" points="3746.15,590.24 3961.65,963.5 3530.65,963.5 "/>
<rect x="3742" y="699" class="st24" width="8" height="177"/>
<rect x="3742.19" y="916" class="st24" width="8" height="8.07"/>
<rect x="4325" y="882" class="st25" width="50" height="50"/>
<rect x="4259" y="944" class="st25" width="50" height="50"/>
<rect x="4193" y="878" class="st25" width="50" height="50"/>
<rect x="4391" y="816" class="st25" width="50" height="50"/>
<rect x="4061" y="746" class="st25" width="50" height="50"/>
<rect x="4457" y="750" class="st25" width="50" height="50"/>
<rect x="4061" y="683" class="st25" width="50" height="50"/>
<rect x="4457" y="687" class="st25" width="50" height="50"/>
<rect x="4127" y="812" class="st25" width="50" height="50"/>
<rect x="4061" y="620" class="st25" width="50" height="50"/>
<rect x="4457" y="624" class="st25" width="50" height="50"/>
<rect x="4127" y="556" class="st25" width="50" height="50"/>
<rect x="4391" y="560" class="st25" width="50" height="50"/>
<rect x="4325" y="560" class="st25" width="50" height="50"/>
<rect x="4193" y="556" class="st25" width="50" height="50"/>
<rect x="4259" y="620" class="st25" width="50" height="50"/>
<g>
	
		<rect x="4892.27" y="471.5" transform="matrix(0.7071 -0.7071 0.7071 0.7071 1042.0691 3736.1333)" class="st25" width="277.36" height="277.36"/>
	
		<rect x="5067.13" y="640.52" transform="matrix(0.7071 -0.7071 0.7071 0.7071 969.6155 3910.6819)" class="st25" width="276.58" height="288.79"/>
	
		<rect x="5233.36" y="488.82" transform="matrix(0.7071 -0.7071 0.7071 0.7071 1129.7266 3982.3931)" class="st25" width="277.36" height="277.36"/>
</g>
<g>
	<rect x="4569" y="1209" class="st26" width="25" height="25"/>
	<rect x="4594" y="1184" class="st26" width="50" height="25"/>
	<rect x="4644" y="1209" class="st26" width="25" height="25"/>
	<rect x="4544" y="1234" class="st26" width="25" height="74"/>
	<rect x="4594" y="1333" class="st26" width="25" height="25"/>
	<rect x="4569" y="1308" class="st26" width="25" height="25"/>
	<rect x="4669" y="1234" class="st26" width="25" height="25"/>
	<rect x="4669" y="1408" class="st26" width="25" height="25"/>
	<g>
		<rect x="4619" y="1358" class="st26" width="25" height="25"/>
		<rect x="4644" y="1383" class="st26" width="25" height="25"/>
	</g>
	<rect x="4769" y="1209" transform="matrix(-1 -4.489266e-11 4.489266e-11 -1 9563 2443)" class="st26" width="25" height="25"/>
	<rect x="4719" y="1184" transform="matrix(-1 -4.489266e-11 4.489266e-11 -1 9488 2393)" class="st26" width="50" height="25"/>
	<rect x="4694" y="1209" transform="matrix(-1 -4.489266e-11 4.489266e-11 -1 9413 2443)" class="st26" width="25" height="25"/>
	<rect x="4794" y="1234" transform="matrix(-1 -4.489266e-11 4.489266e-11 -1 9613 2542)" class="st26" width="25" height="74"/>
	<rect x="4744" y="1333" transform="matrix(-1 -4.489266e-11 4.489266e-11 -1 9513 2691)" class="st26" width="25" height="25"/>
	<rect x="4769" y="1308" transform="matrix(-1 -4.489266e-11 4.489266e-11 -1 9563 2641)" class="st26" width="25" height="25"/>
	<g>
		<rect x="4719" y="1358" transform="matrix(-1 -4.489266e-11 4.489266e-11 -1 9463 2741)" class="st26" width="25" height="25"/>
		<rect x="4694" y="1383" transform="matrix(-1 -4.489266e-11 4.489266e-11 -1 9413 2791)" class="st26" width="25" height="25"/>
	</g>
</g>
<g>
	<rect x="4788.65" y="1588.46" class="st26" width="25" height="25"/>
	<rect x="4813.65" y="1563.46" class="st26" width="50" height="25"/>
	<rect x="4863.65" y="1588.46" class="st26" width="25" height="25"/>
	<rect x="4763.65" y="1613.46" class="st26" width="25" height="98.54"/>
	<rect x="4814" y="1737" class="st26" width="25" height="25"/>
	<rect x="4789" y="1712" class="st26" width="25" height="25"/>
	<rect x="4888.65" y="1613.46" class="st26" width="25" height="25"/>
	<rect x="4889" y="1812" class="st26" width="25" height="25"/>
	<g>
		<rect x="4839" y="1762" class="st26" width="25" height="25"/>
		<rect x="4864" y="1787" class="st26" width="25" height="25"/>
	</g>
	
		<rect x="4988.65" y="1588.46" transform="matrix(-1 -4.489266e-11 4.489266e-11 -1 10002.2979 3201.9148)" class="st26" width="25" height="25"/>
	
		<rect x="4938.65" y="1563.46" transform="matrix(-1 -4.489266e-11 4.489266e-11 -1 9927.2979 3151.9148)" class="st26" width="50" height="25"/>
	
		<rect x="4913.65" y="1588.46" transform="matrix(-1 -4.489266e-11 4.489266e-11 -1 9852.2979 3201.9148)" class="st26" width="25" height="25"/>
	
		<rect x="5013.65" y="1613.46" transform="matrix(-1 -5.980828e-11 5.980828e-11 -1 10052.2979 3325.4575)" class="st26" width="25" height="98.54"/>
	<rect x="4964" y="1737" transform="matrix(-1 -4.489266e-11 4.489266e-11 -1 9953 3499)" class="st26" width="25" height="25"/>
	<rect x="4989" y="1712" transform="matrix(-1 -4.489266e-11 4.489266e-11 -1 10003 3449)" class="st26" width="25" height="25"/>
	<g>
		<rect x="4939" y="1762" transform="matrix(-1 -4.489266e-11 4.489266e-11 -1 9903 3549)" class="st26" width="25" height="25"/>
		<rect x="4914" y="1787" transform="matrix(-1 -4.489266e-11 4.489266e-11 -1 9853 3599)" class="st26" width="25" height="25"/>
	</g>
</g>
<g>
	<rect x="5225" y="1358" class="st26" width="285" height="247"/>
	<line class="st26" x1="5225" y1="1409" x2="5510" y2="1409"/>
	<g>
		<rect x="5276" y="1322" class="st27" width="30" height="64"/>
		<rect x="5429" y="1322" class="st28" width="30" height="64"/>
	</g>
	<g>
		<rect x="5276" y="1454" class="st28" width="37" height="37"/>
		<rect x="5311" y="1454" class="st26" width="37" height="37"/>
		<rect x="5348" y="1454" class="st26" width="37" height="37"/>
		<rect x="5385" y="1454" class="st26" width="37" height="37"/>
		<rect x="5422" y="1454" class="st26" width="37" height="37"/>
		<g>
			<rect x="5276" y="1491" class="st26" width="37" height="37"/>
			<rect x="5311" y="1491" class="st26" width="37" height="37"/>
			<rect x="5348" y="1491" class="st26" width="37" height="37"/>
			<rect x="5385" y="1491" class="st26" width="37" height="37"/>
			<rect x="5422" y="1491" class="st26" width="37" height="37"/>
		</g>
		<rect x="5276" y="1528" class="st26" width="37" height="37"/>
		<rect x="5311" y="1528" class="st26" width="37" height="37"/>
		<rect x="5348" y="1528" class="st26" width="37" height="37"/>
		<rect x="5385" y="1528" class="st26" width="37" height="37"/>
		<rect x="5422" y="1528" class="st28" width="37" height="37"/>
	</g>
</g>
<line class="st29" x1="2455.01" y1="-73" x2="2454.51" y2="-300.5"/>
<rect x="2530.87" y="-324.96" transform="matrix(0.7071 -0.7071 0.7071 0.7071 891.6537 1729.3737)" class="st30" width="5" height="226.65"/>
<rect x="2373.82" y="-325.22" transform="matrix(-0.7071 -0.7071 0.7071 -0.7071 4206.4619 1318.5863)" class="st30" width="5" height="226.65"/>
<rect x="2530.51" y="-421.01" transform="matrix(0.7071 -0.7071 0.7071 0.7071 959.4641 1700.9933)" class="st30" width="5" height="226.65"/>
<rect x="2373.47" y="-421.27" transform="matrix(-0.7071 -0.7071 0.7071 -0.7071 4273.7729 1154.3785)" class="st30" width="5" height="226.65"/>
<rect x="1596" y="-420" class="st31" width="2" height="278"/>
<rect x="1581" y="-493" class="st30" width="30" height="107"/>
<line class="st32" x1="1559" y1="-144" x2="1558.5" y2="-275.02"/>
<line class="st32" x1="1624.09" y1="-246.85" x2="1624.09" y2="-362.89"/>
<line class="st32" x1="1566" y1="-281" x2="1566.09" y2="-354.89"/>
<line class="st32" x1="1631.09" y1="-131.85" x2="1631" y2="-232"/>
<rect x="1571" y="-502" class="st33" width="50" height="126"/>
<line class="st32" x1="1544.13" y1="-214.79" x2="1544.13" y2="-330.83"/>
<line class="st32" x1="1669" y1="-550" x2="1630.78" y2="-509.34"/>
<line class="st32" x1="1695" y1="-502" x2="1635.9" y2="-485.71"/>
<line class="st32" x1="1677.23" y1="-348.57" x2="1632.34" y2="-381.73"/>
<line class="st32" x1="1696" y1="-398" x2="1635.86" y2="-414.47"/>
<line class="st32" x1="1709" y1="-449" x2="1638.89" y2="-449.15"/>
<g>
	<line class="st32" x1="1521.07" y1="-552.78" x2="1559.29" y2="-512.12"/>
	<line class="st32" x1="1495.07" y1="-504.78" x2="1554.17" y2="-488.48"/>
	<line class="st32" x1="1512.83" y1="-351.35" x2="1557.72" y2="-384.5"/>
	<line class="st32" x1="1494.07" y1="-400.78" x2="1554.2" y2="-417.25"/>
	<line class="st32" x1="1481.07" y1="-451.78" x2="1551.18" y2="-451.92"/>
</g>
<line class="st32" x1="1643.02" y1="-194.21" x2="1643.02" y2="-310.25"/>
<rect x="1190" y="-406" class="st31" width="2" height="278"/>
<rect x="1175.99" y="-478.68" class="st30" width="30" height="107"/>
<line class="st32" x1="1153.99" y1="-129.68" x2="1153.49" y2="-260.7"/>
<line class="st32" x1="1219.07" y1="-232.53" x2="1219.07" y2="-348.57"/>
<line class="st32" x1="1160.99" y1="-266.68" x2="1161.07" y2="-340.57"/>
<line class="st32" x1="1226.07" y1="-117.53" x2="1225.99" y2="-217.68"/>
<rect x="1165.99" y="-487.68" class="st33" width="50" height="126"/>
<line class="st32" x1="1134.12" y1="-187.47" x2="1134.12" y2="-303.5"/>
<line class="st32" x1="1244.01" y1="-179.89" x2="1244.01" y2="-295.93"/>
<line class="st32" x1="1142.62" y1="-342.62" x2="1142.62" y2="-458.66"/>
<line class="st32" x1="1264.62" y1="-310.62" x2="1265" y2="-415"/>
<line class="st32" x1="1237.43" y1="-401.45" x2="1238" y2="-485"/>
<line class="st32" x1="1562.99" y1="-568.16" x2="1578.84" y2="-514.65"/>
<line class="st32" x1="1631.84" y1="-566.16" x2="1615.99" y2="-512.65"/>
<g>
	<rect x="1106.5" y="132.5" class="st34" width="89" height="89"/>
	<rect x="1243.5" y="132.5" class="st34" width="89" height="89"/>
	<rect x="1243.5" y="259.5" class="st34" width="89" height="89"/>
	<rect x="1106.5" y="259.5" class="st34" width="89" height="89"/>
</g>
<rect x="71" y="-636" class="st3" width="113" height="59.19"/>
<line class="st35" x1="106" y1="-579" x2="83.49" y2="-555.49"/>
<line class="st35" x1="83" y1="-579" x2="83" y2="-553"/>
<rect x="106" y="-622.07" transform="matrix(-1 -5.327662e-11 5.327662e-11 -1 307.2234 -1184.9565)" class="st3" width="95.22" height="59.19"/>
<line class="st35" x1="166.22" y1="-565.07" x2="188.73" y2="-541.57"/>
<line class="st35" x1="189.22" y1="-565.07" x2="189.22" y2="-539.07"/>
<g>
	<g>
		<line class="st36" x1="68.94" y1="593.37" x2="68.94" y2="526.37"/>
		<g>
			<line class="st36" x1="64.94" y1="530.37" x2="159.94" y2="530.37"/>
			<line class="st36" x1="154.94" y1="526.37" x2="154.94" y2="594.37"/>
			<circle class="st36" cx="110.94" cy="486.37" r="40"/>
		</g>
	</g>
	<g>
		<line class="st37" x1="107" y1="613" x2="107" y2="546"/>
		<g>
			<line class="st37" x1="103" y1="550" x2="198" y2="550"/>
			<line class="st37" x1="193" y1="546" x2="193" y2="614"/>
			<circle class="st37" cx="149" cy="506" r="40"/>
		</g>
	</g>
</g>
<polygon class="st38" points="771,-292 771,-183.21 855,-206.47 855,-318.02 "/>
<polygon class="st38" points="766,-291.66 766,-182.87 682,-206.13 682,-317.68 "/>
<path class="st38" d="M968-746"/>
<polygon class="st39" points="818,-749 818,-712.74 851,-695 886,-711 886,-749 852,-765.51 "/>
<g>
	<polyline class="st39" points="818,-749 851.5,-735.5 886,-749 	"/>
</g>
<line class="st40" x1="851.5" y1="-735.5" x2="851.5" y2="-695.5"/>
<line class="st40" x1="837.05" y1="-757.57" x2="869.5" y2="-742.5"/>
<g>
	<rect x="82" y="-141" class="st41" width="122" height="84"/>
	<rect x="67" y="-177" class="st41" width="151" height="36"/>
	<path class="st42" d="M217.28-177C166.9-177.09,116.38-177,66-177c-0.06,0-0.03-1.94,0-2c4.14-7.6,8.34-13.38,12.48-21h124.83
		c5.14,6.68,10.28,13.37,15.42,20.05C219.66-178.75,218.8-177,217.28-177z"/>
	<path class="st41" d="M234-205"/>
	<path class="st41" d="M247-194"/>
	<rect x="122" y="-139" class="st42" width="41" height="19"/>
</g>
<line class="st43" x1="1241" y1="-703" x2="1241" y2="-584"/>
<line class="st43" x1="1348" y1="-632" x2="1241" y2="-584"/>
<line class="st43" x1="1134" y1="-631" x2="1241" y2="-584"/>
<line class="st43" x1="1134" y1="-747" x2="1134" y2="-631"/>
<line class="st43" x1="1348" y1="-747" x2="1348" y2="-632"/>
<line class="st43" x1="1134" y1="-747" x2="1241" y2="-700"/>
<line class="st43" x1="1348" y1="-747" x2="1241" y2="-700"/>
<line class="st43" x1="1241" y1="-790" x2="1134" y2="-747"/>
<line class="st43" x1="1348" y1="-747" x2="1241" y2="-790"/>
<g>
	<line class="st44" x1="128.5" y1="738.5" x2="128.5" y2="661.5"/>
	<line class="st44" x1="128.5" y1="749" x2="128.5" y2="762.5"/>
</g>
<g>
	<circle class="st45" cx="136.16" cy="1144.24" r="58.76"/>
	<line class="st45" x1="80.5" y1="1125.69" x2="187.18" y2="1125.69"/>
	<line class="st45" x1="80.5" y1="1161.25" x2="187.18" y2="1161.25"/>
	<ellipse class="st45" cx="136.16" cy="1144.24" rx="20.1" ry="58.76"/>
</g>
<g>
	<rect x="61" y="-801" class="st2" width="140" height="75"/>
	<g>
		<line class="st46" x1="71.5" y1="-785.5" x2="90.5" y2="-785.5"/>
		<line class="st5" x1="71.5" y1="-774.5" x2="186.5" y2="-774.5"/>
		<line class="st5" x1="72" y1="-761.5" x2="187" y2="-761.5"/>
		<line class="st5" x1="72" y1="-735.5" x2="187" y2="-735.5"/>
		<line class="st5" x1="97.5" y1="-761" x2="97.5" y2="-736"/>
		<line class="st5" x1="160.5" y1="-761" x2="160.5" y2="-736"/>
		<g>
			<polygon class="st47" points="81.19,-803 93.82,-803 101.9,-817 89.28,-817 			"/>
			<polygon class="st47" points="157.66,-817 145.75,-817 137.66,-803 149.58,-803 			"/>
			<polygon class="st47" points="201.98,-817 193.9,-803 207.5,-803 207.5,-817 			"/>
			<polygon class="st47" points="129.9,-817 117.75,-817 109.66,-803 121.82,-803 			"/>
			<polygon class="st47" points="73.43,-817 55,-817 55,-803 65.35,-803 			"/>
			<polygon class="st47" points="186.13,-817 173.51,-817 165.43,-803 178.05,-803 			"/>
		</g>
		<g>
			<polygon class="st47" points="86.95,-820.62 99.18,-823.73 87.9,-835.3 75.66,-832.2 			"/>
			<polygon class="st47" points="196.18,-848.38 206.21,-850.93 202.76,-864.5 184.9,-859.96 			"/>
			<polygon class="st47" points="114.81,-842.14 103.26,-839.21 114.54,-827.63 126.09,-830.57 			"/>
			<polygon class="st47" points="60.31,-828.29 54.96,-826.93 58.41,-813.36 71.59,-816.71 			"/>
			<polygon class="st47" points="169.54,-856.05 157.3,-852.94 168.59,-841.37 180.82,-844.47 			"/>
			<polygon class="st47" points="141.95,-849.04 130.17,-846.05 141.45,-834.47 153.23,-837.46 			"/>
		</g>
		<rect x="61" y="-826" class="st47" width="19" height="18"/>
	</g>
</g>
<g>
	<rect x="72" y="-1006" class="st41" width="109" height="72"/>
	<rect x="72" y="-1023" class="st41" width="109" height="17"/>
	<polyline class="st41" points="88,-993 108,-973 88,-953 	"/>
	<line class="st41" x1="119" y1="-953" x2="166" y2="-953"/>
</g>
<g>
	<rect x="5427" y="-1257" width="1170" height="315"/>
	<text transform="matrix(1 0 0 1 5877.7021 -1058.4043)" class="st0" style="font-family:'PixelFont-7'; font-size:113px;">Шапка</text>
</g>
<g>
	<rect x="5427" y="-942" class="st48" width="1170" height="183"/>
	<text transform="matrix(1 0 0 1 5671.5742 -819.3193)" style="font-family:'PixelFont-7'; font-size:113px;">Боковое меню</text>
</g>
<g>
	<rect x="5427" y="-759" class="st49" width="1170" height="644"/>
	<text transform="matrix(1 0 0 1 5823.915 -420.3828)" style="font-family:'PixelFont-7'; font-size:113px;">Контент</text>
</g>
<g>
	<rect x="5427" y="-115" class="st50" width="1170" height="352"/>
	<text transform="matrix(1 0 0 1 5830.0215 112.1699)" style="font-family:'PixelFont-7'; font-size:113px;">Подвал</text>
</g>
<line class="st51" x1="6683.5" y1="-500.5" x2="7091.5" y2="-500.5"/>
<g>
	<rect x="7443" y="-1252" width="1170" height="315"/>
	<text transform="matrix(1 0 0 1 7893.7021 -1053.4043)" class="st0" style="font-family:'PixelFont-7'; font-size:113px;">Шапка</text>
</g>
<g>
	
		<rect x="6858.5" y="-532.5" transform="matrix(5.242391e-11 -1 1 5.242391e-11 7800.5 6918.4995)" class="st48" width="1002" height="183"/>
	
		<text transform="matrix(4.489659e-11 -0.8564 1 3.844990e-11 7390.6807 -149.457)" style="font-family:'PixelFont-7'; font-size:113px;">Боковое меню</text>
</g>
<g>
	<rect x="7443" y="-935" class="st49" width="1170" height="644"/>
	<text transform="matrix(1 0 0 1 7839.915 -596.3828)" style="font-family:'PixelFont-7'; font-size:113px;">Контент</text>
</g>
<g>
	<rect x="7443" y="-291" class="st50" width="1170" height="352"/>
	<text transform="matrix(1 0 0 1 7846.0215 -63.8301)" style="font-family:'PixelFont-7'; font-size:113px;">Подвал</text>
</g>
<g>
	<rect x="1049" y="758" class="st52" width="113" height="132"/>
	<rect x="1049" y="680" class="st52" width="339" height="90"/>
	<rect x="1275" y="758" class="st52" width="113" height="132"/>
	<polygon class="st52" points="1049,680 1218.5,582.89 1385.66,680 	"/>
	
		<rect x="976.7" y="580.81" transform="matrix(0.866 -0.5 0.5 0.866 -148.8995 634.9135)" class="st52" width="267.23" height="29"/>
	
		<rect x="1193.56" y="580.44" transform="matrix(-0.866 -0.5 0.5 -0.866 2179.0652 1773.7511)" class="st52" width="267.23" height="29"/>
	<rect x="1341" y="502" class="st52" width="48" height="116"/>
</g>
<rect x="2018.86" y="154.65" class="st19" width="286" height="343"/>
<line class="st20" x1="2054.86" y1="193.65" x2="2269.86" y2="193.65"/>
<line class="st20" x1="2055" y1="223" x2="2270" y2="223"/>
<rect x="2203.5" y="412.5" transform="matrix(4.502005e-11 -1 1 4.502005e-11 1742 2673)" class="st19" width="8" height="106"/>
<rect x="2203" y="384" transform="matrix(4.486906e-11 -1 1 4.486906e-11 1770.5 2644.5)" class="st19" width="9" height="106"/>
<rect x="2203.5" y="355.5" transform="matrix(4.479268e-11 -1 1 4.479268e-11 1799 2616)" class="st19" width="8" height="106"/>
<line class="st19" x1="2054.85" y1="306.65" x2="2133.35" y2="306.66"/>
<line class="st19" x1="2145.86" y1="306.65" x2="2193.86" y2="306.65"/>
<line class="st19" x1="2207.86" y1="306.65" x2="2238.86" y2="306.65"/>
<line class="st19" x1="2248.86" y1="306.65" x2="2264.86" y2="306.65"/>
<line class="st19" x1="2054.86" y1="323.65" x2="2207.86" y2="323.65"/>
<line class="st19" x1="2217.86" y1="323.65" x2="2264.86" y2="323.65"/>
<line class="st19" x1="2054.86" y1="344.65" x2="2105.86" y2="344.65"/>
<line class="st19" x1="2116.86" y1="344.65" x2="2207.86" y2="344.65"/>
<line class="st19" x1="2217.86" y1="344.65" x2="2264.86" y2="344.65"/>
<line class="st19" x1="2054.86" y1="362.65" x2="2264.86" y2="362.65"/>
<line class="st19" x1="2017.86" y1="154.65" x2="2035.86" y2="132.65"/>
<line class="st19" x1="2301.89" y1="154.71" x2="2319.89" y2="132.71"/>
<line class="st19" x1="2304.89" y1="497.71" x2="2322.89" y2="475.71"/>
<path class="st19" d="M2333.86,282.65"/>
<line class="st19" x1="2031.86" y1="134.65" x2="2321.86" y2="134.65"/>
<line class="st19" x1="2320.86" y1="478.65" x2="2320.86" y2="132.65"/>
<rect x="2055" y="399" class="st52" width="51" height="74"/>
<line class="st20" x1="2131" y1="256" x2="2270" y2="256"/>
<rect x="1599.5" y="152.5" class="st19" width="286" height="343"/>
<line class="st20" x1="1639.37" y1="186.64" x2="1854.37" y2="186.64"/>
<line class="st20" x1="1639.51" y1="215.98" x2="1854.51" y2="215.98"/>
<rect x="1788.01" y="405.48" transform="matrix(4.502005e-11 -1 1 4.502005e-11 1333.5271 2250.4907)" class="st19" width="8" height="106"/>
<rect x="1787.51" y="376.98" transform="matrix(4.486906e-11 -1 1 4.486906e-11 1362.0271 2221.9907)" class="st19" width="9" height="106"/>
<rect x="1788.01" y="348.48" transform="matrix(4.479268e-11 -1 1 4.479268e-11 1390.5271 2193.4907)" class="st19" width="8" height="106"/>
<line class="st19" x1="1639.36" y1="299.63" x2="1717.86" y2="299.64"/>
<line class="st19" x1="1730.37" y1="299.64" x2="1778.37" y2="299.64"/>
<line class="st19" x1="1792.37" y1="299.64" x2="1823.37" y2="299.64"/>
<line class="st19" x1="1833.37" y1="299.64" x2="1849.37" y2="299.64"/>
<line class="st19" x1="1639.37" y1="316.64" x2="1792.37" y2="316.64"/>
<line class="st19" x1="1802.37" y1="316.64" x2="1849.37" y2="316.64"/>
<line class="st19" x1="1639.37" y1="337.64" x2="1690.37" y2="337.64"/>
<line class="st19" x1="1701.37" y1="337.64" x2="1792.37" y2="337.64"/>
<line class="st19" x1="1802.37" y1="337.64" x2="1849.37" y2="337.64"/>
<line class="st19" x1="1639.37" y1="355.64" x2="1849.37" y2="355.64"/>
<rect x="1639.51" y="391.98" class="st52" width="51" height="74"/>
<line class="st20" x1="1640" y1="249" x2="1779" y2="249"/>
<rect x="-62.4" y="-1163.64" style="fill:none;" width="539.4" height="77.64"/>
<text transform="matrix(1 0 0 1 -62.4043 -1095.8398)" style="font-family:'PixelFont-7'; font-size:113px;">Submenu</text>
<g>
	<line class="st37" x1="165" y1="-292" x2="165" y2="-359"/>
	<line class="st36" x1="161" y1="-355" x2="256" y2="-355"/>
	<line class="st36" x1="251" y1="-359" x2="251" y2="-291"/>
	<circle class="st36" cx="207" cy="-399" r="40"/>
	<line class="st37" x1="31" y1="-293" x2="31" y2="-360"/>
	<line class="st36" x1="27" y1="-356" x2="122" y2="-356"/>
	<line class="st36" x1="117" y1="-360" x2="117" y2="-292"/>
	<path class="st36" d="M114-405c1.46,24.76-18.26,45.17-41,45c-20.86-0.15-40-17.58-40-40c0-22.19,18.77-39.69,40-40
		C92.89-440.29,110.63-425.45,114-405z"/>
	<line class="st53" x1="87.93" y1="-280.53" x2="87.93" y2="-364.52"/>
	<line class="st53" x1="82.91" y1="-359.5" x2="202" y2="-359.5"/>
	<line class="st53" x1="195.73" y1="-364.52" x2="195.73" y2="-279.28"/>
	<circle class="st54" cx="140.58" cy="-414.66" r="50.14"/>
</g>
<line class="st32" x1="2146" y1="1055" x2="2146" y2="892"/>
<line class="st32" x1="1951" y1="892" x2="2146" y2="892"/>
<g>
	<polyline class="st36" points="232,124 232,15.17 63.49,15.17 14,40 14,315 142.13,315 	"/>
	<polyline class="st36" points="60.43,315 60,339 260.6,339 260.6,274.57 	"/>
	<polyline class="st36" points="260.6,87.68 260.6,42.74 232,42.74 	"/>
	<polyline class="st36" points="63,15 63,40 13.51,39.83 	"/>
	<line class="st36" x1="48" y1="95" x2="208" y2="95"/>
	<line class="st36" x1="48" y1="121" x2="208" y2="121"/>
	<line class="st36" x1="48" y1="148" x2="208" y2="148"/>
	<line class="st36" x1="48" y1="175" x2="208" y2="175"/>
	<line class="st36" x1="48" y1="202" x2="208" y2="202"/>
	<line class="st36" x1="48" y1="229" x2="208" y2="229"/>
	<g>
		
			<rect x="214.93" y="176.34" transform="matrix(-0.9247 -0.3808 0.3808 -0.9247 341.0338 560.1625)" class="st36" width="22" height="140"/>
		<path class="st55" d="M208.03,317.38l-16.17,17.36c-1.46,1.49-3.99,0.45-3.99-1.64l0.74-23.71"/>
		
			<rect x="239.13" y="167.72" transform="matrix(-0.9247 -0.3808 0.3808 -0.9247 425.6653 432.6606)" class="st4" width="33" height="13"/>
		<path class="st42" d="M251.13,152.34l23.12,9.52c1.02,0.42,1.51,1.59,1.09,2.61l-2.68,6.5c-0.42,1.02-1.59,1.51-2.61,1.09
			l-23.12-9.52c-1.02-0.42-1.51-1.59-1.09-2.61l2.68-6.5C248.94,152.41,250.11,151.92,251.13,152.34z"/>
	</g>
</g>
<g>
	<polyline class="st56" points="94.5,868.65 94.5,839.5 162.27,839.5 162.27,868.65 162.27,884.84 128.39,884.84 128.39,912.51 
		128.39,914.72 128.39,917.2 128.39,919.68 	"/>
	<rect x="120.03" y="931.81" class="st57" width="16.19" height="16.19"/>
</g>
</svg>
