<?xml version="1.0" encoding="utf-8"?>
<!-- Generator: Adobe Illustrator 25.4.1, SVG Export Plug-In . SVG Version: 6.00 Build 0)  -->
<svg version="1.1" id="Слой_1" xmlns="http://www.w3.org/2000/svg" xmlns:xlink="http://www.w3.org/1999/xlink" x="0px" y="0px"
	 viewBox="0 0 191 180" style="enable-background:new 0 0 191 180;" xml:space="preserve">
<style type="text/css">
	.st0{fill:#FFFFFF;}
	.st1{fill:none;stroke:#000000;stroke-width:9;stroke-miterlimit:10;}
	.st2{fill:none;stroke:#000000;stroke-width:5;stroke-miterlimit:10;}
	.st3{fill:#FFFFFF;stroke:#000000;stroke-width:9;stroke-miterlimit:10;}
	.st4{fill:none;stroke:#000000;stroke-width:7;stroke-miterlimit:10;}
	.st5{stroke:#000000;stroke-width:3;stroke-miterlimit:10;}
	.st6{fill:#FFFFFF;stroke:#000000;stroke-width:4;stroke-miterlimit:10;}
	.st7{stroke:#000000;stroke-width:2;stroke-miterlimit:10;}
	.st8{fill:#FFFFFF;stroke:#000000;stroke-width:2;stroke-miterlimit:10;}
	.st9{stroke:#000000;stroke-miterlimit:10;}
	.st10{fill:none;stroke:#000000;stroke-miterlimit:10;}
	.st11{fill:#FFFFFF;stroke:#000000;stroke-miterlimit:10;}
	.st12{stroke:#FFFFFF;stroke-width:9;stroke-miterlimit:10;}
	.st13{fill:none;stroke:#FFFFFF;stroke-width:7;stroke-miterlimit:10;}
	.st14{fill:#FFFFFF;stroke:#FFFFFF;stroke-width:3;stroke-miterlimit:10;}
	.st15{fill:none;stroke:#FFFFFF;stroke-width:9;stroke-miterlimit:10;}
	.st16{fill:none;stroke:#FFFFFF;stroke-width:5;stroke-miterlimit:10;}
	.st17{fill:#FFFFFF;stroke:#FFFFFF;stroke-width:6;stroke-miterlimit:10;}
	.st18{fill:none;stroke:#FFFFFF;stroke-width:6;stroke-miterlimit:10;}
	.st19{fill:none;stroke:#00FFF0;stroke-width:9;stroke-miterlimit:10;}
	.st20{fill:none;stroke:#00FFF0;stroke-width:20;stroke-miterlimit:10;}
	.st21{fill:#00FFF0;stroke:#00FFFF;stroke-width:9;stroke-miterlimit:10;}
	.st22{fill:#00FFF0;stroke:#00FFF0;stroke-width:9;stroke-miterlimit:10;}
	.st23{fill:none;stroke:#FFFFFF;stroke-width:20;stroke-miterlimit:10;}
	.st24{fill:none;stroke:#FF433F;stroke-width:16;stroke-miterlimit:10;}
	.st25{fill:#FF433F;stroke:#FF433F;stroke-width:16;stroke-miterlimit:10;}
	.st26{fill:none;stroke:#00FFF0;stroke-width:10;stroke-miterlimit:10;}
	.st27{fill:#00FFFF;stroke:#00FFFF;stroke-width:10;stroke-miterlimit:10;}
	.st28{fill:#00FFF0;stroke:#00FFF0;stroke-width:10;stroke-miterlimit:10;}
	.st29{fill:none;stroke:#00FFFF;stroke-width:32;stroke-miterlimit:10;}
	.st30{fill:none;stroke:#00FFFF;stroke-width:30;stroke-miterlimit:10;}
	.st31{fill:none;stroke:#00FFFF;stroke-width:20;stroke-miterlimit:10;}
	.st32{fill:none;stroke:#00FFFF;stroke-width:10;stroke-miterlimit:10;}
	.st33{fill:#FFFFFF;stroke:#00FFFF;stroke-width:13;stroke-miterlimit:10;}
	.st34{fill:#00FFFF;stroke:#00FFFF;stroke-width:15;stroke-miterlimit:10;}
	.st35{fill:#FFFFFF;stroke:#000000;stroke-width:8;stroke-miterlimit:10;}
	.st36{fill:none;stroke:#000000;stroke-width:10;stroke-miterlimit:10;}
	.st37{fill:#FFFFFF;stroke:#000000;stroke-width:10;stroke-miterlimit:10;}
	.st38{fill:#FFFFFF;stroke:#00FFFF;stroke-width:10;stroke-miterlimit:10;}
	.st39{fill:#FFFFFF;stroke:#00FFFF;stroke-width:5;stroke-miterlimit:10;}
	.st40{fill:none;stroke:#00FFFF;stroke-width:5;stroke-miterlimit:10;}
	.st41{fill:none;stroke:#000000;stroke-width:6;stroke-miterlimit:10;}
	.st42{fill:none;stroke:#000000;stroke-width:4;stroke-miterlimit:10;}
	.st43{fill:#00FFFF;stroke:#00FFFF;stroke-width:13;stroke-miterlimit:10;}
	.st44{fill:none;stroke:#000000;stroke-width:13;stroke-miterlimit:10;}
	.st45{fill:none;stroke:#000000;stroke-width:12;stroke-miterlimit:10;}
	.st46{stroke:#000000;stroke-width:5;stroke-miterlimit:10;}
	.st47{stroke:#000000;stroke-width:6;stroke-miterlimit:10;}
	.st48{fill:#00F4FF;}
	.st49{fill:#FF3435;}
	.st50{fill:#F26900;}
	.st51{fill:none;stroke:#000000;stroke-width:23;stroke-miterlimit:10;}
	.st52{fill:#00FFF0;}
	.st53{fill:none;stroke:#000000;stroke-width:15;stroke-miterlimit:10;}
	.st54{fill:#FFFFFF;stroke:#000000;stroke-width:15;stroke-miterlimit:10;}
	.st55{fill:none;stroke:#000000;stroke-width:11;stroke-miterlimit:10;}
	.st56{fill:none;stroke:#000000;stroke-width:17;stroke-miterlimit:10;}
	.st57{fill:#00FFF0;stroke:#000000;stroke-width:7;stroke-miterlimit:10;}
</style>
<g>
	<g>
		<rect x="1588.5" y="-1214.5" class="st0" width="309" height="137"/>
		<path d="M1893-1210v128h-300v-128H1893 M1902-1219h-318v146h318V-1219L1902-1219z"/>
	</g>
	<g>
		<line class="st1" x1="1743.5" y1="-1075" x2="1743.5" y2="-1034"/>
	</g>
	<line class="st2" x1="1669.5" y1="-1034.5" x2="1821" y2="-1034.5"/>
</g>
<g>
	<rect x="1446.92" y="-1185.07" class="st0" width="2.98" height="9.71"/>
	<rect x="1446.92" y="-1175.36" class="st0" width="12.89" height="2.65"/>
	<rect x="1456.84" y="-1185.07" class="st0" width="2.98" height="9.71"/>
	<rect x="1456.84" y="-1172.71" class="st0" width="2.98" height="9.71"/>
	<rect x="1465.76" y="-1185.07" class="st0" width="2.98" height="9.71"/>
	<rect x="1465.76" y="-1175.36" class="st0" width="12.89" height="2.65"/>
	<rect x="1475.68" y="-1185.07" class="st0" width="2.98" height="9.71"/>
	<rect x="1475.68" y="-1172.71" class="st0" width="2.98" height="9.71"/>
	<rect x="1437" y="-1185.07" class="st0" width="2.98" height="22.07"/>
	<rect x="1493.53" y="-1185.07" class="st0" width="2.98" height="22.07"/>
	<rect x="1494.52" y="-1185.07" class="st0" width="12.89" height="1.77"/>
	<rect x="1506.42" y="-1183.3" class="st0" width="0.99" height="0"/>
	<rect x="1494.52" y="-1175.36" class="st0" width="12.89" height="1.77"/>
	<rect x="1510.39" y="-1185.07" class="st0" width="2.98" height="22.07"/>
	<rect x="1511.38" y="-1185.07" class="st0" width="12.89" height="1.77"/>
	<rect x="1523.28" y="-1183.3" class="st0" width="0.99" height="0"/>
	<rect x="1511.38" y="-1175.36" class="st0" width="12.89" height="1.77"/>
	<rect x="1521.3" y="-1185.07" class="st0" width="2.98" height="11.48"/>
	<rect x="1528.24" y="-1185.07" class="st0" width="2.98" height="11.48"/>
	<rect x="1529.23" y="-1185.07" class="st0" width="12.89" height="1.77"/>
	<rect x="1541.14" y="-1183.3" class="st0" width="0.99" height="0"/>
	<rect x="1529.23" y="-1175.36" class="st0" width="12.89" height="1.77"/>
	<rect x="1539.15" y="-1173.59" class="st0" width="2.98" height="10.59"/>
	<rect x="1528.24" y="-1164.76" class="st0" width="12.89" height="1.77"/>
	<rect x="1938.83" y="-1276" width="1064.17" height="211"/>
</g>
<g>
	<rect x="1435.5" y="-1139.87" class="st3" width="88.33" height="197.25"/>
	<line class="st4" x1="1525.45" y1="-941" x2="1575.31" y2="-962.68"/>
	<line class="st4" x1="1526.54" y1="-1141.5" x2="1575.31" y2="-1125.24"/>
	<line class="st4" x1="1573.14" y1="-1128.49" x2="1573.14" y2="-959.42"/>
	
		<rect x="1523.92" y="-974.09" transform="matrix(0.934 -0.3573 0.3573 0.934 446.8674 489.5183)" class="st5" width="48.77" height="18.82"/>
	
		<rect x="1525.41" y="-982.64" transform="matrix(0.9881 -0.1538 0.1538 0.9881 168.6053 226.5021)" class="st5" width="46.19" height="11.92"/>
	
		<rect x="1525.4" y="-1133.75" transform="matrix(0.9487 0.3162 -0.3162 0.9487 -277.8498 -547.728)" class="st5" width="46.61" height="7.59"/>
	<rect x="1528.71" y="-1030.95" class="st5" width="42.27" height="9.75"/>
	<rect x="1564.47" y="-1098.15" class="st5" width="5.42" height="31.43"/>
	<rect x="1490.77" y="-1120.91" class="st5" width="10.84" height="45.52"/>
	<rect x="1528.71" y="-1130.66" class="st5" width="29.58" height="89"/>
	<rect x="1527.62" y="-1014.7" class="st5" width="42.27" height="9.75"/>
	<rect x="1445.25" y="-1127.41" class="st5" width="2.17" height="7.59"/>
	<rect x="1445.25" y="-1114.41" class="st5" width="2.17" height="7.59"/>
</g>
<g>
	<rect x="1878" y="-989" class="st6" width="25" height="39"/>
	<rect x="1888" y="-983" class="st7" width="5" height="12"/>
	<rect x="1879" y="-988" class="st8" width="5" height="13"/>
	<rect x="1897" y="-988" class="st8" width="5" height="13"/>
	<rect x="1876" y="-974" class="st6" width="1" height="6"/>
	<rect x="1876" y="-963" class="st6" width="1" height="6"/>
</g>
<g>
	<rect x="1734" y="-1020" width="4" height="13"/>
	<rect x="1890" y="-1016" width="3" height="25"/>
	<rect x="1570" y="-1020" width="323" height="4"/>
	<rect x="1646" y="-1078" width="4" height="59"/>
</g>
<g>
	<rect x="1604.5" y="-1004.5" class="st2" width="258" height="74"/>
	<rect x="1619" y="-947" width="34" height="8"/>
	<rect x="1665" y="-947" width="134" height="8"/>
	<rect x="1808" y="-947" width="34" height="8"/>
	<g>
		<rect x="1622.5" y="-992.5" class="st2" width="11" height="4"/>
		<rect x="1642.5" y="-992.5" class="st2" width="11" height="4"/>
		<rect x="1622.5" y="-980.5" class="st2" width="11" height="4"/>
		<rect x="1642.5" y="-980.5" class="st2" width="11" height="4"/>
		<rect x="1622.5" y="-968.5" class="st2" width="11" height="4"/>
		<rect x="1642.5" y="-968.5" class="st2" width="11" height="4"/>
	</g>
	<g>
		<rect x="1809.5" y="-992.5" class="st2" width="11" height="4"/>
		<rect x="1829.5" y="-992.5" class="st2" width="11" height="4"/>
		<rect x="1809.5" y="-980.5" class="st2" width="11" height="4"/>
		<rect x="1829.5" y="-980.5" class="st2" width="11" height="4"/>
		<rect x="1809.5" y="-968.5" class="st2" width="11" height="4"/>
		<rect x="1829.5" y="-968.5" class="st2" width="11" height="4"/>
	</g>
	<g>
		<rect x="1667.5" y="-992.5" class="st2" width="11" height="4"/>
		<rect x="1687.5" y="-992.5" class="st2" width="11" height="4"/>
		<rect x="1667.5" y="-980.5" class="st2" width="11" height="4"/>
		<rect x="1687.5" y="-980.5" class="st2" width="11" height="4"/>
		<rect x="1667.5" y="-968.5" class="st2" width="11" height="4"/>
		<rect x="1687.5" y="-968.5" class="st2" width="11" height="4"/>
		<rect x="1706.5" y="-992.5" class="st2" width="11" height="4"/>
		<rect x="1726.5" y="-992.5" class="st2" width="11" height="4"/>
		<rect x="1706.5" y="-980.5" class="st2" width="11" height="4"/>
		<rect x="1726.5" y="-980.5" class="st2" width="11" height="4"/>
		<rect x="1706.5" y="-968.5" class="st2" width="11" height="4"/>
		<rect x="1726.5" y="-968.5" class="st2" width="11" height="4"/>
		<rect x="1745.5" y="-992.5" class="st2" width="11" height="4"/>
		<rect x="1765.5" y="-992.5" class="st2" width="11" height="4"/>
		<rect x="1745.5" y="-980.5" class="st2" width="11" height="4"/>
		<rect x="1765.5" y="-980.5" class="st2" width="11" height="4"/>
		<rect x="1745.5" y="-968.5" class="st2" width="11" height="4"/>
		<rect x="1765.5" y="-968.5" class="st2" width="11" height="4"/>
		<rect x="1785.5" y="-992.5" class="st2" width="11" height="4"/>
		<rect x="1785.5" y="-980.5" class="st2" width="11" height="4"/>
		<rect x="1785.5" y="-968.5" class="st2" width="11" height="4"/>
	</g>
</g>
<rect x="1813.5" y="-1126.5" transform="matrix(6.123234e-17 -1 1 6.123234e-17 2911 724)" class="st9" width="8" height="66"/>
<rect x="1598" y="-1203" width="15" height="15"/>
<rect x="1618" y="-1203" width="2" height="15"/>
<rect x="1618" y="-1203" width="7" height="2"/>
<rect x="1618" y="-1197" width="7" height="2"/>
<rect x="1625" y="-1203" width="2" height="8"/>
<rect x="1629" y="-1203" width="2" height="15"/>
<rect x="1631" y="-1190" width="7" height="2"/>
<rect x="1631" y="-1196" width="7" height="2"/>
<rect x="1631" y="-1203" width="7" height="2"/>
<rect x="1640" y="-1203" width="2" height="15"/>
<rect x="1642" y="-1190" width="7" height="2"/>
<rect x="1642" y="-1203" width="7" height="2"/>
<rect x="1696.5" y="-1168.5" class="st9" width="45" height="45"/>
<line class="st10" x1="1741.5" y1="-1123.5" x2="1752.5" y2="-1130.5"/>
<line class="st10" x1="1740.5" y1="-1167.5" x2="1752.9" y2="-1174.76"/>
<line class="st10" x1="1696.5" y1="-1168.5" x2="1707.5" y2="-1174.5"/>
<line class="st10" x1="1707" y1="-1174.5" x2="1752" y2="-1174.5"/>
<line class="st10" x1="1752.5" y1="-1130" x2="1752.5" y2="-1175"/>
<line class="st10" x1="1738.2" y1="-1148.63" x2="1750.61" y2="-1155.88"/>
<rect x="1706.5" y="-1173.5" class="st9" width="46" height="43"/>
<rect x="1746.5" y="-1167.5" class="st9" width="2" height="1"/>
<rect x="1739.46" y="-1131.65" transform="matrix(0.8632 -0.5049 0.5049 0.8632 808.7903 726.4138)" class="st9" width="10.58" height="5"/>
<rect x="1732.5" y="-1139.5" class="st9" width="13" height="6"/>
<rect x="1698.18" y="-1171.1" transform="matrix(0.8632 -0.5049 0.5049 0.8632 823.0601 700.1743)" class="st9" width="10.58" height="5"/>
<rect x="1696.5" y="-1123.5" class="st9" width="1" height="43"/>
<rect x="1820" y="-1247" transform="matrix(6.123234e-17 -1 1 6.123234e-17 2994.5 646.5)" class="st9" width="1" height="146"/>
<rect x="1623" y="-1197" width="2" height="4"/>
<rect x="1625" y="-1193" width="2" height="5"/>
<g>
	<rect x="1602.5" y="-1100.5" class="st9" width="1" height="14"/>
	<rect x="1609" y="-1094" transform="matrix(6.123234e-17 -1 1 6.123234e-17 2696.5 522.5)" class="st9" width="1" height="14"/>
</g>
<g>
	
		<rect x="1873" y="-1094" transform="matrix(-3.267951e-07 -1 1 -3.267951e-07 2960.5007 786.4996)" class="st9" width="1" height="14"/>
	
		<rect x="1879.5" y="-1100.5" transform="matrix(-1 3.267942e-07 -3.267942e-07 -1 3759.9998 -2187.0007)" class="st9" width="1" height="14"/>
</g>
<g>
	
		<rect x="1879.5" y="-1203.5" transform="matrix(-1 3.267960e-07 -3.267960e-07 -1 3759.9995 -2393.0007)" class="st9" width="1" height="14"/>
	
		<rect x="1873" y="-1210" transform="matrix(3.267942e-07 1 -1 3.267942e-07 670.4994 -3076.4995)" class="st9" width="1" height="14"/>
</g>
<g>
	<rect x="1612.5" y="-1168.5" class="st9" width="24" height="3"/>
	<rect x="1639.5" y="-1168.5" class="st9" width="24" height="3"/>
	<rect x="1612.5" y="-1162.5" class="st9" width="13" height="3"/>
	<rect x="1628.5" y="-1162.5" class="st9" width="35" height="3"/>
	<rect x="1649.5" y="-1156.5" class="st9" width="14" height="3"/>
	<rect x="1612.5" y="-1150.5" class="st9" width="24" height="3"/>
	<rect x="1617.5" y="-1156.5" class="st9" width="30" height="3"/>
	<rect x="1612.5" y="-1156.5" class="st9" width="3" height="3"/>
	<rect x="1639.5" y="-1150.5" class="st9" width="3" height="3"/>
	<rect x="1645.5" y="-1150.5" class="st9" width="3" height="3"/>
	<rect x="1651.5" y="-1150.5" class="st9" width="12" height="3"/>
</g>
<rect x="1634" y="-1163" transform="matrix(6.123234e-17 -1 1 6.123234e-17 2775.5 500.5)" class="st9" width="8" height="51"/>
<rect x="1774.5" y="-1162.5" class="st9" width="84" height="3"/>
<rect x="1774.5" y="-1161.5" class="st9" width="0" height="33"/>
<rect x="1858.5" y="-1161.06" class="st9" width="0" height="32.56"/>
<rect x="1774.5" y="-1129.5" class="st9" width="84" height="1"/>
<rect x="1851.5" y="-1162.5" class="st11" width="3" height="3"/>
<rect x="1848.5" y="-1161.5" class="st11" width="3" height="2"/>
<rect x="1843.5" y="-1143.5" transform="matrix(6.123234e-17 -1 1 6.123234e-17 2977 711)" class="st9" width="1" height="21"/>
<rect x="1778.5" y="-1147.5" class="st9" width="1" height="15"/>
<g>
	<rect x="1967.86" y="-1269.02" class="st12" width="88.33" height="197.25"/>
	<line class="st13" x1="2057.81" y1="-1070.14" x2="2107.67" y2="-1091.82"/>
	<line class="st13" x1="2058.9" y1="-1270.64" x2="2107.67" y2="-1254.38"/>
	<line class="st13" x1="2105.5" y1="-1257.64" x2="2105.5" y2="-1088.57"/>
	
		<rect x="2056.28" y="-1103.23" transform="matrix(0.934 -0.3573 0.3573 0.934 528.1472 671.2007)" class="st14" width="48.77" height="18.82"/>
	
		<rect x="2057.77" y="-1111.79" transform="matrix(0.9881 -0.1538 0.1538 0.9881 194.7955 306.8289)" class="st14" width="46.19" height="11.92"/>
	
		<rect x="2057.76" y="-1262.89" transform="matrix(0.9487 0.3162 -0.3162 0.9487 -291.3689 -722.7025)" class="st14" width="46.61" height="7.59"/>
	<rect x="2061.07" y="-1160.1" class="st14" width="42.27" height="9.75"/>
	<rect x="2096.83" y="-1227.29" class="st14" width="5.42" height="31.43"/>
	<rect x="2023.13" y="-1250.05" class="st14" width="10.84" height="45.52"/>
	<rect x="2061.07" y="-1259.8" class="st14" width="29.58" height="89"/>
	<rect x="2059.98" y="-1143.84" class="st14" width="42.27" height="9.75"/>
	<rect x="1977.61" y="-1256.55" class="st14" width="2.17" height="7.59"/>
	<rect x="1977.61" y="-1243.55" class="st14" width="2.17" height="7.59"/>
</g>
<g>
	<g>
		<rect x="2125.76" y="-1252.5" width="309" height="137"/>
		<path class="st0" d="M2430.26-1248v128h-300v-128H2430.26 M2439.26-1257h-318v146h318V-1257L2439.26-1257z"/>
	</g>
	<g>
		<line class="st15" x1="2280.76" y1="-1113" x2="2280.76" y2="-1072"/>
	</g>
	<line class="st16" x1="2206.76" y1="-1072.5" x2="2358.26" y2="-1072.5"/>
</g>
<g>
	<path class="st0" d="M2144.99-1211.18h5.65v-5.65h50.85v11.3h-45.2v45.2h45.2v11.3h-50.85v-5.65h-5.65V-1211.18z"/>
	<path class="st0" d="M2212.79-1205.53h11.3v33.9h22.6v-33.9h11.3v62.15h-5.65v5.65h-33.9v-11.3h28.25v-11.3h-28.25v-5.65h-5.65
		V-1205.53z"/>
	<path class="st0" d="M2269.29-1216.83h11.3v16.95h28.25v5.65h5.65v39.55h-5.65v5.65h-39.55V-1216.83z M2280.59-1160.33h22.6v-28.25
		h-22.6V-1160.33z"/>
	<path class="st0" d="M2325.79-1199.88h5.65v-5.65h33.9v5.65h5.65v28.25h-33.9v11.3h28.25v11.3h-33.9v-5.65h-5.65V-1199.88z
		 M2337.09-1182.93h22.6v-11.3h-22.6V-1182.93z"/>
	<path class="st0" d="M2382.29-1205.53h11.3v5.65h5.65v-5.65h22.6v5.65h5.65v11.3h-11.3v-5.65h-16.95v5.65h-5.65v39.55h-11.3
		V-1205.53z"/>
</g>
<rect x="3003" y="-1275" class="st0" width="764.9" height="209.66"/>
<text transform="matrix(1.2222 0 0 1 3023 -1112.5195)" style="font-family:'Roboto-Regular'; font-size:186.4234px;">Games</text>
<g>
	<path class="st0" d="M2472.11-1230.54h18.43v73.73h18.43v-36.87h18.43v36.87h18.43v-73.73h18.43v82.95h-9.22v9.22h-9.22v18.43
		h-18.43v-18.43h-18.43v18.43h-18.43v-18.43h-9.22v-9.22h-9.22V-1230.54z"/>
	<path class="st0" d="M2582.7-1202.89h9.22v-9.22h55.3v9.22h9.22v73.73h-9.22v9.22h-55.3v-9.22h-9.22V-1202.89z M2601.13-1138.38
		H2638v-55.3h-36.87V-1138.38z"/>
	<path class="st0" d="M2674.86-1212.11h18.43v9.22h9.22v-9.22h36.86v9.22h9.22v18.43h-18.43v-9.22h-27.65v9.22h-9.22v64.51h-18.43
		V-1212.11z"/>
	<path class="st0" d="M2767.03-1230.54h18.43v110.59h-18.43V-1230.54z"/>
	<path class="st0" d="M2803.89-1193.68h9.22v-9.22h46.08v-27.65h18.43v110.59h-64.51v-9.22h-9.22V-1193.68z M2822.32-1138.38h36.87
		v-46.08h-36.87V-1138.38z"/>
	<path class="st0" d="M2896.05-1202.89h9.22v-9.22h64.51v18.43h-55.3v18.43h46.08v9.22h9.22v36.87h-9.22v9.22h-64.51v-18.43h55.3
		v-18.43h-46.08v-9.22h-9.22V-1202.89z"/>
</g>
<g>
	<rect x="1969.91" y="-1043.68" class="st3" width="88.33" height="197.25"/>
	<line class="st4" x1="2059.86" y1="-844.81" x2="2109.72" y2="-866.49"/>
	<line class="st4" x1="2060.95" y1="-1045.31" x2="2109.72" y2="-1029.05"/>
	<line class="st4" x1="2107.55" y1="-1032.3" x2="2107.55" y2="-863.23"/>
	
		<rect x="2058.33" y="-877.9" transform="matrix(0.934 -0.3573 0.3573 0.934 447.7738 686.806)" class="st5" width="48.77" height="18.82"/>
	
		<rect x="2059.82" y="-886.45" transform="matrix(0.9881 -0.1538 0.1538 0.9881 160.1699 309.824)" class="st5" width="46.19" height="11.92"/>
	
		<rect x="2059.81" y="-1037.56" transform="matrix(0.9487 0.3162 -0.3162 0.9487 -220.0075 -711.787)" class="st5" width="46.61" height="7.59"/>
	<rect x="2063.11" y="-934.76" class="st5" width="42.27" height="9.75"/>
	<rect x="2098.88" y="-1001.96" class="st5" width="5.42" height="31.43"/>
	<rect x="2025.18" y="-1024.72" class="st5" width="10.84" height="45.52"/>
	<rect x="2063.11" y="-1034.47" class="st5" width="29.58" height="89"/>
	<rect x="2062.03" y="-918.51" class="st5" width="42.27" height="9.75"/>
	<rect x="1979.66" y="-1031.22" class="st5" width="2.17" height="7.59"/>
	<rect x="1979.66" y="-1018.21" class="st5" width="2.17" height="7.59"/>
</g>
<g>
	<g>
		<path d="M2460.3-1032v136.94h-300V-1032H2460.3 M2469.3-1041h-318v154.94h318V-1041L2469.3-1041z"/>
	</g>
	<g>
		<line class="st1" x1="2310.8" y1="-888.18" x2="2310.8" y2="-844.67"/>
	</g>
	<line class="st2" x1="2236.8" y1="-845.2" x2="2388.3" y2="-845.2"/>
</g>
<g>
	<rect x="3212" y="-1040" width="713" height="204.76"/>
	<g>
		<g>
			<path class="st0" d="M3393.96-879.2h-9.1c-0.79-1.52-1.19-8.1-1.39-20.43c-4.96,8.84-15.8,21.92-44.23,21.92
				c-39.43,0-59.67-28.14-59.67-64.74c0-38.44,21.62-67.32,61.9-67.32c29.74,0,49.37,14.62,53.67,38.31h-11
				c-5.82-18-19.22-28.84-43.06-28.84c-34.19,0-49.72,24.95-49.72,57.29c0,29.27,14.98,55.83,48.38,55.83
				c34.13,0,43.63-20.87,43.63-49.01v-1.46h-44.02v-9.49h54.62V-879.2z"/>
			<path class="st0" d="M3492.35-896.83c0,8.12,0.78,14.7,1.37,17.63h-9.79c-0.79-2.2-1.37-6.27-1.76-14.06
				c-3.34,6.78-11.94,16.27-32.09,16.27c-22.79,0-32.62-13.83-32.62-27.65c0-20.27,16.72-29.49,46.15-29.49c8.17,0,14.64,0,18.55,0
				v-9.31c0-9.15-2.94-21.35-25.1-21.35c-19.64,0-22.58,9.64-24.72,17.17h-10.18c1.18-10.27,7.95-25.86,35.11-25.86
				c22.47,0,35.07,8.86,35.07,29.15V-896.83z M3482.35-926.04c-3.7,0-12.64,0-19.06,0c-21.67,0-35.05,5.32-35.05,21
				c0,11.49,8.73,19.35,22.39,19.35c27.83,0,31.72-17.35,31.72-37.06V-926.04z"/>
			<path class="st0" d="M3524.55-947.51c0-7.92,0-16.55-0.2-23.75h9.99c0.2,3.11,0.6,10.96,0.41,16.26
				c4.14-9.15,13.15-18.47,29.4-18.47c13.75,0,24.48,6.45,28.4,18.13c4.93-9.53,14.71-18.13,31.96-18.13
				c15.16,0,30.83,8.14,30.83,33.7v60.57h-10.19v-59.42c0-12.25-4.68-25.57-22.78-25.57c-18.88,0-27.42,14.2-27.42,31.97v53.02h-10
				v-59.22c0-13.35-4.28-25.76-22.2-25.76c-18.87,0-28,15.62-28,34.33v50.65h-10.2V-947.51z"/>
			<path class="st0" d="M3689.97-924.03c0.19,23.48,12.81,38.13,31.53,38.13c18.29,0,24.51-9.63,28.02-17.14h10.4
				c-4.11,12.13-14.52,26.05-38.82,26.05c-29.9,0-41.54-24.09-41.54-47.49c0-26.39,13.98-48.99,42.71-48.99
				c30.31,0,39.97,24.45,39.97,41.89c0,2.59,0,5.15-0.2,7.55H3689.97z M3751.66-932.3c-0.2-18.06-10.66-32.3-29.77-32.3
				c-20.06,0-29.2,13.15-31.33,32.3H3751.66z"/>
			<path class="st0" d="M3786.5-904.66c3.31,11.86,12.28,18.98,27.67,18.98c17.31,0,24.3-7.46,24.3-17.66
				c0-10.39-4.7-15.48-26.51-20.42c-25.48-5.75-31.74-12.97-31.74-25.14c0-12.72,10.21-24.56,32.56-24.56
				c22.36,0,32.95,12.76,34.5,25.82h-10.18c-1.75-7.63-8.13-17.14-24.74-17.14c-16.9,0-21.76,7.82-21.76,15.12
				c0,8.38,4.67,12.57,24.03,16.97c27.8,6.28,34.62,14.79,34.62,28.6c0,16.72-14.48,27.11-35.3,27.11
				c-22.55,0-35.11-11.1-37.84-27.67H3786.5z"/>
		</g>
	</g>
</g>
<g>
	<g>
		<path d="M2537.34-843.43l-45.35-172.09h13.64c11.1,42.11,35.54,135.97,39.25,156.1h0.23c3.11-16.31,29.8-110.7,41.24-156.1h14.43
			c10.72,41.85,36.74,142.16,39.38,155.82h0.23c5.16-24.63,32.31-115.07,43.44-155.82h13.34l-49.99,172.09h-14.99
			c-10.73-40.51-36.01-139.14-38.88-154.21h-0.23c-4.25,22.55-29.32,111.6-40.96,154.21H2537.34z"/>
		<path d="M2817.22-905.21c0,34.28-18.12,64.73-53.1,64.73c-31.75,0-51.48-27.32-51.48-64.47c0-35.26,18.59-64.49,52.66-64.49
			C2796.55-969.44,2817.22-943.85,2817.22-905.21z M2725.53-904.96c0,29.16,14.88,52.57,39.52,52.57
			c25.11,0,39.28-21.73,39.28-52.57c0-28.97-13.95-52.58-39.75-52.58C2738.12-957.54,2725.53-934.42,2725.53-904.96z"/>
		<path d="M2846.11-933.02c0-20.48-0.23-29.39-0.23-33.47h11.94c0.24,3.91,0.48,11.88,0.48,27.43
			c6.76-18.36,21.71-29.42,40.72-30.38v13.72c-24.36,1.67-40.72,19.14-40.72,48.53v63.76h-12.19V-933.02z"/>
		<path d="M2922.47-843.43v-181.21h12.19v181.21H2922.47z"/>
		<path d="M3063.69-1024.64v145.81c0,11.8,0,23.12,0.23,35.4h-11.7c-0.47-2.97-0.72-14.42-0.72-20.5
			c-5.86,14.89-18.92,23.45-39.25,23.45c-30.46,0-48.75-26.06-48.75-63.01c0-37.9,19.93-65.95,51.84-65.95
			c23.29,0,32.66,10.49,36.16,18.31v-73.51H3063.69z M2976.4-904c0,33.5,16.47,51.59,36.53,51.59c30.75,0,39.06-22.33,39.06-55.45
			c0-31.51-7.17-49.67-36.98-49.67C2991.95-957.52,2976.4-938.2,2976.4-904z"/>
		<path d="M3102.43-877.46c3.95,15.86,14.66,25.36,33.04,25.36c20.66,0,29.01-9.97,29.01-23.61c0-13.89-5.61-20.7-31.66-27.29
			c-30.42-7.68-37.89-17.34-37.89-33.61c0-17.01,12.19-32.83,38.88-32.83c26.69,0,39.34,17.06,41.19,34.51h-12.15
			c-2.09-10.21-9.71-22.91-29.53-22.91c-20.18,0-25.98,10.46-25.98,20.21c0,11.21,5.58,16.8,28.7,22.68
			c33.19,8.39,41.33,19.78,41.33,38.23c0,22.35-17.29,36.24-42.15,36.24c-26.92,0-41.92-14.84-45.18-36.98H3102.43z"/>
	</g>
</g>
<line class="st17" x1="2328" y1="-1134" x2="2415" y2="-1134"/>
<line class="st18" x1="2138" y1="-1236" x2="2138" y2="-1133"/>
<rect x="1920" y="-1290" width="20" height="228"/>
<rect x="2219" y="-1182" class="st0" width="14" height="3"/>
<rect x="2216" y="-1182" width="9" height="3"/>
<rect x="2280" y="-1211" class="st0" width="4" height="9"/>
<rect x="2277" y="-1211" width="4" height="9"/>
<rect x="2393" y="-1177" class="st0" width="3" height="22"/>
<rect x="2398" y="-1162" class="st0" width="1" height="1"/>
<rect x="2391" y="-1177" width="3" height="22"/>
<rect x="2196" y="-1156" width="7" height="5"/>
<rect x="2350" y="-1208" width="22" height="5"/>
<line class="st19" x1="4334" y1="-678.5" x2="4533" y2="-678.5"/>
<line class="st19" x1="4328" y1="-695.5" x2="4538" y2="-695.5"/>
<g>
	<line class="st19" x1="4447" y1="-495.5" x2="4563" y2="-495.5"/>
	<line class="st19" x1="4598.5" y1="-647.5" x2="4651.5" y2="-433.5"/>
	<line class="st19" x1="4602.5" y1="-408.5" x2="4653.5" y2="-436.5"/>
	<line class="st19" x1="4539.5" y1="-494.5" x2="4607.5" y2="-408.5"/>
</g>
<g>
	<line class="st19" x1="4358.5" y1="-676.5" x2="4372.5" y2="-618.5"/>
	<line class="st19" x1="4369" y1="-620.5" x2="4430" y2="-620.5"/>
</g>
<g>
	<line class="st19" x1="4509" y1="-675.5" x2="4495" y2="-617.5"/>
	<line class="st19" x1="4499" y1="-619.5" x2="4438" y2="-619.5"/>
</g>
<g>
	<line class="st19" x1="4421" y1="-495.5" x2="4305" y2="-495.5"/>
	<line class="st19" x1="4269.32" y1="-647.31" x2="4216.32" y2="-433.31"/>
	<line class="st19" x1="4265.32" y1="-408.31" x2="4214.32" y2="-436.31"/>
	<line class="st19" x1="4328.32" y1="-494.31" x2="4260.32" y2="-408.31"/>
</g>
<g>
	<line class="st19" x1="4252.5" y1="-671.5" x2="4328.5" y2="-705.5"/>
	<line class="st19" x1="4265.08" y1="-646.04" x2="4341.08" y2="-680.04"/>
	<line class="st19" x1="4323.5" y1="-706.5" x2="4337.5" y2="-677.5"/>
	<line class="st19" x1="4255.08" y1="-675.54" x2="4269.08" y2="-646.54"/>
</g>
<g>
	<line class="st19" x1="4614.38" y1="-671.77" x2="4538.38" y2="-705.77"/>
	<line class="st19" x1="4601.79" y1="-646.31" x2="4525.79" y2="-680.31"/>
	<line class="st19" x1="4543.38" y1="-706.77" x2="4529.38" y2="-677.77"/>
	<line class="st19" x1="4611.79" y1="-675.81" x2="4597.79" y2="-646.81"/>
</g>
<g>
	<line class="st19" x1="4308.5" y1="-497.5" x2="4267.5" y2="-444.5"/>
	<line class="st19" x1="4261.5" y1="-436.5" x2="4255.5" y2="-429.5"/>
</g>
<g>
	<line class="st19" x1="4559.09" y1="-496.87" x2="4600.09" y2="-443.87"/>
	<line class="st19" x1="4606.09" y1="-435.87" x2="4612.09" y2="-428.87"/>
</g>
<line class="st19" x1="4387" y1="-602.5" x2="4406" y2="-602.5"/>
<line class="st19" x1="4462" y1="-602.5" x2="4481" y2="-602.5"/>
<line class="st19" x1="4354.5" y1="-556" x2="4354.5" y2="-530"/>
<g>
	<line class="st19" x1="4371.5" y1="-573" x2="4371.5" y2="-547"/>
	<line class="st19" x1="4371.5" y1="-539" x2="4371.5" y2="-513"/>
	<line class="st19" x1="4355" y1="-551.5" x2="4375" y2="-551.5"/>
	<line class="st19" x1="4355" y1="-534.5" x2="4375" y2="-534.5"/>
	<line class="st19" x1="4368" y1="-569.5" x2="4394" y2="-569.5"/>
</g>
<g>
	<line class="st19" x1="4389.5" y1="-513" x2="4389.5" y2="-539"/>
	<line class="st19" x1="4389.5" y1="-547" x2="4389.5" y2="-573"/>
	<line class="st19" x1="4406" y1="-534.5" x2="4386" y2="-534.5"/>
	<line class="st19" x1="4406" y1="-551.5" x2="4386" y2="-551.5"/>
	<line class="st19" x1="4393" y1="-516.5" x2="4367" y2="-516.5"/>
</g>
<line class="st19" x1="4406.5" y1="-556" x2="4406.5" y2="-530"/>
<path class="st19" d="M4445.5-649.5c0.23,15.57-24.23,15.57-24,0C4421.27-665.07,4445.73-665.07,4445.5-649.5z"/>
<g>
	<path class="st19" d="M4332.5-611.5c0.25,16.87-26.25,16.87-26,0C4306.25-628.37,4332.75-628.37,4332.5-611.5z"/>
	<path class="st19" d="M4349.22-611.82c0.56,38.05-59.21,38.05-58.65,0C4290.02-649.87,4349.78-649.87,4349.22-611.82z"/>
</g>
<g>
	<path class="st19" d="M4513.39-542.46c0.25,16.87-26.25,16.87-26,0C4487.14-559.33,4513.64-559.33,4513.39-542.46z"/>
	<path class="st19" d="M4530.11-542.79c0.56,38.05-59.21,38.05-58.65,0C4470.91-580.83,4530.67-580.83,4530.11-542.79z"/>
</g>
<path class="st19" d="M4555.5-634.5c0.17,11.68-18.17,11.68-18,0C4537.33-646.18,4555.67-646.18,4555.5-634.5z"/>
<path class="st19" d="M4555.5-588.5c0.17,11.68-18.17,11.68-18,0C4537.33-600.18,4555.67-600.18,4555.5-588.5z"/>
<path class="st19" d="M4578.5-611.5c0.17,11.68-18.17,11.68-18,0C4560.33-623.18,4578.67-623.18,4578.5-611.5z"/>
<path class="st19" d="M4532.5-611.5c0.17,11.68-18.17,11.68-18,0C4514.33-623.18,4532.67-623.18,4532.5-611.5z"/>
<path class="st19" d="M4435.5-494.5c-1.78,0.26-2.26-0.22-2-2C4435.28-496.76,4435.76-496.28,4435.5-494.5z"/>
<g>
	<line class="st19" x1="3610.5" y1="262.5" x2="3610.5" y2="59.5"/>
	<line class="st19" x1="3558.5" y1="263" x2="3558.5" y2="-151.5"/>
	<line class="st19" x1="3717.74" y1="262.53" x2="3717.5" y2="-180.5"/>
	<line class="st19" x1="3610.5" y1="50" x2="3610.5" y2="-180.5"/>
	<line class="st19" x1="3558.5" y1="258.5" x2="3722.5" y2="258.5"/>
	<line class="st19" x1="3555" y1="230.5" x2="3614.5" y2="230.5"/>
	<line class="st19" x1="3554.5" y1="-147.5" x2="3610.5" y2="-147.5"/>
	<line class="st19" x1="3606.5" y1="-176.5" x2="3721.5" y2="-176.5"/>
	<line class="st19" x1="3651.5" y1="-172.5" x2="3651.5" y2="69.5"/>
	<line class="st19" x1="3677.5" y1="-179" x2="3677.5" y2="-68.5"/>
	<line class="st19" x1="3677.34" y1="-42.65" x2="3677.5" y2="68.5"/>
	<line class="st19" x1="3650.5" y1="64.5" x2="3681.5" y2="64.5"/>
	<line class="st19" x1="3677.5" y1="-61" x2="3677.5" y2="-51.5"/>
	<line class="st19" x1="3575.5" y1="-134.5" x2="3575.5" y2="-90.5"/>
	<line class="st19" x1="3593.5" y1="-134.5" x2="3593.5" y2="-90.5"/>
	<line class="st19" x1="3571.5" y1="-130.5" x2="3597.5" y2="-130.5"/>
	<line class="st19" x1="3571" y1="-94.5" x2="3597.5" y2="-94.5"/>
	<line class="st19" x1="3576.17" y1="173.32" x2="3576.17" y2="217.32"/>
	<line class="st19" x1="3594.17" y1="173.32" x2="3594.17" y2="217.32"/>
	<line class="st19" x1="3572.17" y1="177.32" x2="3598.17" y2="177.32"/>
	<line class="st19" x1="3571.67" y1="213.32" x2="3598.17" y2="213.32"/>
	<line class="st19" x1="3584.5" y1="148" x2="3584.5" y2="164.5"/>
	<circle class="st19" cx="3664.5" cy="91.5" r="9"/>
	<circle class="st19" cx="3664.5" cy="195.5" r="13"/>
	<g>
		<line class="st19" x1="3730" y1="139.5" x2="3846" y2="139.5"/>
		<line class="st19" x1="3881.5" y1="-12.5" x2="3934.5" y2="201.5"/>
		<line class="st19" x1="3885.5" y1="226.5" x2="3936.5" y2="198.5"/>
		<line class="st19" x1="3822.5" y1="140.5" x2="3890.5" y2="226.5"/>
	</g>
	<g>
		<line class="st19" x1="3792" y1="-40.5" x2="3778" y2="17.5"/>
		<line class="st19" x1="3782" y1="15.5" x2="3721" y2="15.5"/>
	</g>
	<g>
		<line class="st19" x1="3897.38" y1="-36.77" x2="3821.38" y2="-70.77"/>
		<line class="st19" x1="3884.79" y1="-11.31" x2="3808.79" y2="-45.31"/>
		<line class="st19" x1="3826.38" y1="-71.77" x2="3812.38" y2="-42.77"/>
		<line class="st19" x1="3894.79" y1="-40.81" x2="3880.79" y2="-11.81"/>
	</g>
	<g>
		<line class="st19" x1="3842.09" y1="138.13" x2="3883.09" y2="191.13"/>
		<line class="st19" x1="3889.09" y1="199.13" x2="3895.09" y2="206.13"/>
	</g>
	<line class="st19" x1="3745" y1="32.5" x2="3764" y2="32.5"/>
	<g>
		<path class="st19" d="M3796.39,92.54c0.25,16.87-26.25,16.87-26,0C3770.14,75.67,3796.64,75.67,3796.39,92.54z"/>
		<path class="st19" d="M3813.11,92.21c0.56,38.05-59.21,38.05-58.65,0C3753.91,54.17,3813.67,54.17,3813.11,92.21z"/>
	</g>
	<path class="st19" d="M3838.5,0.5c0.17,11.68-18.17,11.68-18,0C3820.33-11.18,3838.67-11.18,3838.5,0.5z"/>
	<path class="st19" d="M3838.5,46.5c0.17,11.68-18.17,11.68-18,0C3820.33,34.82,3838.67,34.82,3838.5,46.5z"/>
	<path class="st19" d="M3861.5,23.5c0.17,11.68-18.17,11.68-18,0C3843.33,11.82,3861.67,11.82,3861.5,23.5z"/>
	<path class="st19" d="M3815.5,23.5c0.17,11.68-18.17,11.68-18,0C3797.33,11.82,3815.67,11.82,3815.5,23.5z"/>
	<path class="st19" d="M3718.5,140.5c-1.78,0.26-2.26-0.22-2-2C3718.28,138.24,3718.76,138.72,3718.5,140.5z"/>
	<line class="st19" x1="3717.5" y1="-59.5" x2="3820.5" y2="-59.5"/>
	<line class="st19" x1="3716" y1="-42.5" x2="3819" y2="-42.5"/>
	<path class="st19" d="M3735.5-12c0,1.17,0.02,9.21-6,12.5c-2.8,1.53-7.31,2.25-10,0c-0.92-0.77-1.98-2.18-2-12
		c-0.02-8.39,0.01-12.62,2-14c3.16-2.2,8.84-0.02,12,3C3735.48-18.7,3735.5-13.53,3735.5-12z"/>
</g>
<rect x="2419.5" y="362.5" class="st19" width="286" height="343"/>
<line class="st20" x1="2455.5" y1="401.5" x2="2670.5" y2="401.5"/>
<line class="st20" x1="2455.5" y1="443.5" x2="2670.5" y2="443.5"/>
<rect x="2460.5" y="480.5" class="st19" width="106" height="106"/>
<rect x="2601.5" y="480.5" class="st19" width="8" height="106"/>
<rect x="2629.5" y="480.5" class="st19" width="9" height="106"/>
<rect x="2658.5" y="480.5" class="st19" width="8" height="106"/>
<line class="st19" x1="2460.5" y1="619.5" x2="2539" y2="619.5"/>
<line class="st19" x1="2551.5" y1="619.5" x2="2599.5" y2="619.5"/>
<line class="st19" x1="2613.5" y1="619.5" x2="2644.5" y2="619.5"/>
<line class="st19" x1="2654.5" y1="619.5" x2="2670.5" y2="619.5"/>
<line class="st19" x1="2460.5" y1="636.5" x2="2613.5" y2="636.5"/>
<line class="st19" x1="2623.5" y1="636.5" x2="2670.5" y2="636.5"/>
<line class="st19" x1="2460.5" y1="657.5" x2="2511.5" y2="657.5"/>
<line class="st19" x1="2522.5" y1="657.5" x2="2613.5" y2="657.5"/>
<line class="st19" x1="2623.5" y1="657.5" x2="2670.5" y2="657.5"/>
<line class="st19" x1="2460.5" y1="675.5" x2="2670.5" y2="675.5"/>
<line class="st19" x1="2418.5" y1="362.5" x2="2436.5" y2="340.5"/>
<line class="st19" x1="2702.53" y1="362.55" x2="2720.53" y2="340.55"/>
<line class="st19" x1="2705.53" y1="705.55" x2="2723.53" y2="683.55"/>
<path class="st19" d="M2734.5,490.5"/>
<line class="st19" x1="2432.5" y1="342.5" x2="2722.5" y2="342.5"/>
<line class="st19" x1="2721.5" y1="686.5" x2="2721.5" y2="340.5"/>
<circle class="st19" cx="2513.5" cy="533.5" r="38"/>
<line class="st19" x1="2477.5" y1="521.5" x2="2546.5" y2="521.5"/>
<line class="st19" x1="2477.5" y1="544.5" x2="2546.5" y2="544.5"/>
<ellipse class="st19" cx="2513.5" cy="533.5" rx="13" ry="38"/>
<rect x="2817.47" y="797.12" class="st19" width="286" height="343"/>
<line class="st19" x1="2816.47" y1="797.12" x2="2834.47" y2="775.12"/>
<line class="st19" x1="3100.51" y1="797.17" x2="3118.51" y2="775.17"/>
<line class="st19" x1="3103.51" y1="1140.17" x2="3121.51" y2="1118.17"/>
<path class="st19" d="M3132.47,925.12"/>
<line class="st19" x1="2830.47" y1="777.12" x2="3120.47" y2="777.12"/>
<line class="st19" x1="3119.47" y1="1121.12" x2="3119.47" y2="775.12"/>
<rect x="2830.5" y="781.5" class="st21" width="283" height="13"/>
<rect x="3109.5" y="791.5" class="st22" width="4" height="333"/>
<rect x="2816.5" y="806.5" class="st22" width="278" height="324"/>
<g>
	<line class="st23" x1="2857.47" y1="833.12" x2="3072.47" y2="833.12"/>
	<line class="st23" x1="2857.47" y1="875.12" x2="3072.47" y2="875.12"/>
	<rect x="2862.47" y="912.12" class="st15" width="106" height="106"/>
	<rect x="3003.47" y="912.12" class="st15" width="8" height="106"/>
	<rect x="3031.47" y="912.12" class="st15" width="9" height="106"/>
	<rect x="3060.47" y="912.12" class="st15" width="8" height="106"/>
	<line class="st15" x1="2862.47" y1="1051.12" x2="2940.97" y2="1051.12"/>
	<line class="st15" x1="2953.47" y1="1051.12" x2="3001.47" y2="1051.12"/>
	<line class="st15" x1="3015.47" y1="1051.12" x2="3046.47" y2="1051.12"/>
	<line class="st15" x1="3056.47" y1="1051.12" x2="3072.47" y2="1051.12"/>
	<line class="st15" x1="2862.47" y1="1068.12" x2="3015.47" y2="1068.12"/>
	<line class="st15" x1="3025.47" y1="1068.12" x2="3072.47" y2="1068.12"/>
	<line class="st15" x1="2862.47" y1="1089.12" x2="2913.47" y2="1089.12"/>
	<line class="st15" x1="2924.47" y1="1089.12" x2="3015.47" y2="1089.12"/>
	<line class="st15" x1="3025.47" y1="1089.12" x2="3072.47" y2="1089.12"/>
	<line class="st15" x1="2862.47" y1="1107.12" x2="3072.47" y2="1107.12"/>
	<circle class="st15" cx="2915.47" cy="965.12" r="38"/>
	<line class="st15" x1="2879.47" y1="953.12" x2="2948.47" y2="953.12"/>
	<line class="st15" x1="2879.47" y1="976.12" x2="2948.47" y2="976.12"/>
	<ellipse class="st15" cx="2915.47" cy="965.12" rx="13" ry="38"/>
</g>
<path class="st19" d="M3322.68,975.34L3322.68,975.34c-22.41,23.27-59.44,23.97-82.72,1.56v0c-23.27-22.41-23.97-59.44-1.56-82.72
	l0,0c22.41-23.27,59.44-23.97,82.72-1.56v0C3344.39,915.03,3345.09,952.06,3322.68,975.34z"/>
<rect x="3375.61" y="984.21" transform="matrix(0.6936 -0.7203 0.7203 0.6936 293.3856 2752.4817)" class="st19" width="13.55" height="94.28"/>
<line class="st19" x1="3321.5" y1="972.5" x2="3346.5" y2="996.5"/>
<line class="st19" x1="3242.5" y1="906.5" x2="3283.76" y2="906.5"/>
<line class="st19" x1="3288.92" y1="906.5" x2="3318.5" y2="906.5"/>
<line class="st19" x1="3242.5" y1="919.39" x2="3267.43" y2="919.39"/>
<line class="st19" x1="3270.87" y1="919.39" x2="3319" y2="919.39"/>
<line class="st19" x1="3242.5" y1="932.29" x2="3285.48" y2="932.29"/>
<line class="st19" x1="3319" y1="932.29" x2="3305.25" y2="932.29"/>
<line class="st19" x1="3242.5" y1="944.32" x2="3279.46" y2="944.32"/>
<line class="st19" x1="3282.9" y1="944.32" x2="3319" y2="944.32"/>
<line class="st19" x1="3242.5" y1="958.5" x2="3318.5" y2="958.5"/>
<line class="st19" x1="3303.1" y1="932.29" x2="3289.35" y2="932.29"/>
<polygon class="st24" points="3698.15,805.24 3913.65,1178.5 3482.65,1178.5 "/>
<rect x="3694" y="914" class="st24" width="8" height="177"/>
<rect x="3694.19" y="1131" class="st24" width="8" height="8.07"/>
<rect x="4277" y="1097" class="st25" width="50" height="50"/>
<rect x="4211" y="1159" class="st25" width="50" height="50"/>
<rect x="4145" y="1093" class="st25" width="50" height="50"/>
<rect x="4343" y="1031" class="st25" width="50" height="50"/>
<rect x="4013" y="961" class="st25" width="50" height="50"/>
<rect x="4409" y="965" class="st25" width="50" height="50"/>
<rect x="4013" y="898" class="st25" width="50" height="50"/>
<rect x="4409" y="902" class="st25" width="50" height="50"/>
<rect x="4079" y="1027" class="st25" width="50" height="50"/>
<rect x="4013" y="835" class="st25" width="50" height="50"/>
<rect x="4409" y="839" class="st25" width="50" height="50"/>
<rect x="4079" y="771" class="st25" width="50" height="50"/>
<rect x="4343" y="775" class="st25" width="50" height="50"/>
<rect x="4277" y="775" class="st25" width="50" height="50"/>
<rect x="4145" y="771" class="st25" width="50" height="50"/>
<rect x="4211" y="835" class="st25" width="50" height="50"/>
<g>
	
		<rect x="4844.27" y="686.5" transform="matrix(0.7071 -0.7071 0.7071 0.7071 875.9823 3765.1643)" class="st25" width="277.36" height="277.36"/>
	
		<rect x="5019.13" y="855.52" transform="matrix(0.7071 -0.7071 0.7071 0.7071 803.5287 3939.7129)" class="st25" width="276.58" height="288.79"/>
	
		<rect x="5185.36" y="703.82" transform="matrix(0.7071 -0.7071 0.7071 0.7071 963.6397 4011.4238)" class="st25" width="277.36" height="277.36"/>
</g>
<g>
	<rect x="4521" y="1424" class="st26" width="25" height="25"/>
	<rect x="4546" y="1399" class="st26" width="50" height="25"/>
	<rect x="4596" y="1424" class="st26" width="25" height="25"/>
	<rect x="4496" y="1449" class="st26" width="25" height="74"/>
	<rect x="4546" y="1548" class="st26" width="25" height="25"/>
	<rect x="4521" y="1523" class="st26" width="25" height="25"/>
	<rect x="4621" y="1449" class="st26" width="25" height="25"/>
	<rect x="4621" y="1623" class="st26" width="25" height="25"/>
	<g>
		<rect x="4571" y="1573" class="st26" width="25" height="25"/>
		<rect x="4596" y="1598" class="st26" width="25" height="25"/>
	</g>
	<rect x="4721" y="1424" transform="matrix(-1 -4.489266e-11 4.489266e-11 -1 9467 2873)" class="st26" width="25" height="25"/>
	<rect x="4671" y="1399" transform="matrix(-1 -4.489266e-11 4.489266e-11 -1 9392 2823)" class="st26" width="50" height="25"/>
	<rect x="4646" y="1424" transform="matrix(-1 -4.489266e-11 4.489266e-11 -1 9317 2873)" class="st26" width="25" height="25"/>
	<rect x="4746" y="1449" transform="matrix(-1 -4.489266e-11 4.489266e-11 -1 9517 2972)" class="st26" width="25" height="74"/>
	<rect x="4696" y="1548" transform="matrix(-1 -4.489266e-11 4.489266e-11 -1 9417 3121)" class="st26" width="25" height="25"/>
	<rect x="4721" y="1523" transform="matrix(-1 -4.489266e-11 4.489266e-11 -1 9467 3071)" class="st26" width="25" height="25"/>
	<g>
		<rect x="4671" y="1573" transform="matrix(-1 -4.489266e-11 4.489266e-11 -1 9367 3171)" class="st26" width="25" height="25"/>
		<rect x="4646" y="1598" transform="matrix(-1 -4.489266e-11 4.489266e-11 -1 9317 3221)" class="st26" width="25" height="25"/>
	</g>
</g>
<g>
	<rect x="4740.65" y="1803.46" class="st26" width="25" height="25"/>
	<rect x="4765.65" y="1778.46" class="st26" width="50" height="25"/>
	<rect x="4815.65" y="1803.46" class="st26" width="25" height="25"/>
	<rect x="4715.65" y="1828.46" class="st26" width="25" height="98.54"/>
	<rect x="4766" y="1952" class="st26" width="25" height="25"/>
	<rect x="4741" y="1927" class="st26" width="25" height="25"/>
	<rect x="4840.65" y="1828.46" class="st26" width="25" height="25"/>
	<rect x="4841" y="2027" class="st26" width="25" height="25"/>
	<g>
		<rect x="4791" y="1977" class="st26" width="25" height="25"/>
		<rect x="4816" y="2002" class="st26" width="25" height="25"/>
	</g>
	
		<rect x="4940.65" y="1803.46" transform="matrix(-1 -4.489266e-11 4.489266e-11 -1 9906.2979 3631.9148)" class="st26" width="25" height="25"/>
	
		<rect x="4890.65" y="1778.46" transform="matrix(-1 -4.489266e-11 4.489266e-11 -1 9831.2979 3581.9148)" class="st26" width="50" height="25"/>
	
		<rect x="4865.65" y="1803.46" transform="matrix(-1 -4.489266e-11 4.489266e-11 -1 9756.2979 3631.9148)" class="st26" width="25" height="25"/>
	
		<rect x="4965.65" y="1828.46" transform="matrix(-1 -5.980828e-11 5.980828e-11 -1 9956.2979 3755.4575)" class="st26" width="25" height="98.54"/>
	<rect x="4916" y="1952" transform="matrix(-1 -4.489266e-11 4.489266e-11 -1 9857 3929)" class="st26" width="25" height="25"/>
	<rect x="4941" y="1927" transform="matrix(-1 -4.489266e-11 4.489266e-11 -1 9907 3879)" class="st26" width="25" height="25"/>
	<g>
		<rect x="4891" y="1977" transform="matrix(-1 -4.489266e-11 4.489266e-11 -1 9807 3979)" class="st26" width="25" height="25"/>
		<rect x="4866" y="2002" transform="matrix(-1 -4.489266e-11 4.489266e-11 -1 9757 4029)" class="st26" width="25" height="25"/>
	</g>
</g>
<g>
	<rect x="5177" y="1573" class="st26" width="285" height="247"/>
	<line class="st26" x1="5177" y1="1624" x2="5462" y2="1624"/>
	<g>
		<rect x="5228" y="1537" class="st27" width="30" height="64"/>
		<rect x="5381" y="1537" class="st28" width="30" height="64"/>
	</g>
	<g>
		<rect x="5228" y="1669" class="st28" width="37" height="37"/>
		<rect x="5263" y="1669" class="st26" width="37" height="37"/>
		<rect x="5300" y="1669" class="st26" width="37" height="37"/>
		<rect x="5337" y="1669" class="st26" width="37" height="37"/>
		<rect x="5374" y="1669" class="st26" width="37" height="37"/>
		<g>
			<rect x="5228" y="1706" class="st26" width="37" height="37"/>
			<rect x="5263" y="1706" class="st26" width="37" height="37"/>
			<rect x="5300" y="1706" class="st26" width="37" height="37"/>
			<rect x="5337" y="1706" class="st26" width="37" height="37"/>
			<rect x="5374" y="1706" class="st26" width="37" height="37"/>
		</g>
		<rect x="5228" y="1743" class="st26" width="37" height="37"/>
		<rect x="5263" y="1743" class="st26" width="37" height="37"/>
		<rect x="5300" y="1743" class="st26" width="37" height="37"/>
		<rect x="5337" y="1743" class="st26" width="37" height="37"/>
		<rect x="5374" y="1743" class="st28" width="37" height="37"/>
	</g>
</g>
<line class="st29" x1="2407.01" y1="142" x2="2406.51" y2="-85.5"/>
<rect x="2482.87" y="-109.96" transform="matrix(0.7071 -0.7071 0.7071 0.7071 725.5669 1758.4047)" class="st30" width="5" height="226.65"/>
<rect x="2325.82" y="-110.22" transform="matrix(-0.7071 -0.7071 0.7071 -0.7071 3972.4929 1651.6732)" class="st30" width="5" height="226.65"/>
<rect x="2482.51" y="-206.01" transform="matrix(0.7071 -0.7071 0.7071 0.7071 793.3772 1730.0242)" class="st30" width="5" height="226.65"/>
<rect x="2325.47" y="-206.27" transform="matrix(-0.7071 -0.7071 0.7071 -0.7071 4039.804 1487.4653)" class="st30" width="5" height="226.65"/>
<rect x="1548" y="-205" class="st31" width="2" height="278"/>
<rect x="1533" y="-278" class="st30" width="30" height="107"/>
<line class="st32" x1="1511" y1="71" x2="1510.5" y2="-60.02"/>
<line class="st32" x1="1576.09" y1="-31.85" x2="1576.09" y2="-147.89"/>
<line class="st32" x1="1518" y1="-66" x2="1518.09" y2="-139.89"/>
<line class="st32" x1="1583.09" y1="83.15" x2="1583" y2="-17"/>
<rect x="1523" y="-287" class="st33" width="50" height="126"/>
<line class="st32" x1="1496.13" y1="0.21" x2="1496.13" y2="-115.83"/>
<line class="st32" x1="1621" y1="-335" x2="1582.78" y2="-294.34"/>
<line class="st32" x1="1647" y1="-287" x2="1587.9" y2="-270.71"/>
<line class="st32" x1="1629.23" y1="-133.57" x2="1584.34" y2="-166.73"/>
<line class="st32" x1="1648" y1="-183" x2="1587.86" y2="-199.47"/>
<line class="st32" x1="1661" y1="-234" x2="1590.89" y2="-234.15"/>
<g>
	<line class="st32" x1="1473.07" y1="-337.78" x2="1511.29" y2="-297.12"/>
	<line class="st32" x1="1447.07" y1="-289.78" x2="1506.17" y2="-273.48"/>
	<line class="st32" x1="1464.83" y1="-136.35" x2="1509.72" y2="-169.5"/>
	<line class="st32" x1="1446.07" y1="-185.78" x2="1506.2" y2="-202.25"/>
	<line class="st32" x1="1433.07" y1="-236.78" x2="1503.18" y2="-236.92"/>
</g>
<line class="st32" x1="1595.02" y1="20.79" x2="1595.02" y2="-95.25"/>
<rect x="1142" y="-191" class="st31" width="2" height="278"/>
<rect x="1127.99" y="-263.68" class="st30" width="30" height="107"/>
<line class="st32" x1="1105.99" y1="85.32" x2="1105.49" y2="-45.7"/>
<line class="st32" x1="1171.07" y1="-17.53" x2="1171.07" y2="-133.57"/>
<line class="st32" x1="1112.99" y1="-51.68" x2="1113.07" y2="-125.57"/>
<line class="st32" x1="1178.07" y1="97.47" x2="1177.99" y2="-2.68"/>
<rect x="1117.99" y="-272.68" class="st33" width="50" height="126"/>
<line class="st32" x1="1086.12" y1="27.53" x2="1086.12" y2="-88.5"/>
<line class="st32" x1="1196.01" y1="35.11" x2="1196.01" y2="-80.93"/>
<line class="st32" x1="1094.62" y1="-127.62" x2="1094.62" y2="-243.66"/>
<line class="st32" x1="1216.62" y1="-95.62" x2="1217" y2="-200"/>
<line class="st32" x1="1189.43" y1="-186.45" x2="1190" y2="-270"/>
<line class="st32" x1="1514.99" y1="-353.16" x2="1530.84" y2="-299.65"/>
<line class="st32" x1="1583.84" y1="-351.16" x2="1567.99" y2="-297.65"/>
<g>
	<rect x="1058.5" y="347.5" class="st34" width="89" height="89"/>
	<rect x="1195.5" y="347.5" class="st34" width="89" height="89"/>
	<rect x="1195.5" y="474.5" class="st34" width="89" height="89"/>
	<rect x="1058.5" y="474.5" class="st34" width="89" height="89"/>
</g>
<rect x="23" y="-421" class="st3" width="113" height="59.19"/>
<line class="st35" x1="58" y1="-364" x2="35.49" y2="-340.49"/>
<line class="st35" x1="35" y1="-364" x2="35" y2="-338"/>
<rect x="58" y="-407.07" transform="matrix(-1 -5.327662e-11 5.327662e-11 -1 211.2234 -754.9565)" class="st3" width="95.22" height="59.19"/>
<line class="st35" x1="118.22" y1="-350.07" x2="140.73" y2="-326.57"/>
<line class="st35" x1="141.22" y1="-350.07" x2="141.22" y2="-324.07"/>
<g>
	<g>
		<line class="st36" x1="20.94" y1="808.37" x2="20.94" y2="741.37"/>
		<g>
			<line class="st36" x1="16.94" y1="745.37" x2="111.94" y2="745.37"/>
			<line class="st36" x1="106.94" y1="741.37" x2="106.94" y2="809.37"/>
			<circle class="st36" cx="62.94" cy="701.37" r="40"/>
		</g>
	</g>
	<g>
		<line class="st37" x1="59" y1="828" x2="59" y2="761"/>
		<g>
			<line class="st37" x1="55" y1="765" x2="150" y2="765"/>
			<line class="st37" x1="145" y1="761" x2="145" y2="829"/>
			<circle class="st37" cx="101" cy="721" r="40"/>
		</g>
	</g>
</g>
<polygon class="st38" points="723,-77 723,31.79 807,8.53 807,-103.02 "/>
<polygon class="st38" points="718,-76.66 718,32.13 634,8.87 634,-102.68 "/>
<path class="st38" d="M920-531"/>
<polygon class="st39" points="770,-534 770,-497.74 803,-480 838,-496 838,-534 804,-550.51 "/>
<g>
	<polyline class="st39" points="770,-534 803.5,-520.5 838,-534 	"/>
</g>
<line class="st40" x1="803.5" y1="-520.5" x2="803.5" y2="-480.5"/>
<line class="st40" x1="789.05" y1="-542.57" x2="821.5" y2="-527.5"/>
<g>
	<rect x="34" y="74" class="st41" width="122" height="84"/>
	<rect x="19" y="38" class="st41" width="151" height="36"/>
	<path class="st42" d="M169.28,38C118.9,37.91,68.38,38,18,38c-0.06,0-0.03-1.94,0-2c4.14-7.6,8.34-13.37,12.48-21h124.83
		c5.14,6.68,10.28,13.37,15.42,20.05C171.66,36.25,170.8,38,169.28,38z"/>
	<path class="st41" d="M186,10"/>
	<path class="st41" d="M199,21"/>
	<rect x="74" y="76" class="st42" width="41" height="19"/>
</g>
<line class="st43" x1="1193" y1="-488" x2="1193" y2="-369"/>
<line class="st43" x1="1300" y1="-417" x2="1193" y2="-369"/>
<line class="st43" x1="1086" y1="-416" x2="1193" y2="-369"/>
<line class="st43" x1="1086" y1="-532" x2="1086" y2="-416"/>
<line class="st43" x1="1300" y1="-532" x2="1300" y2="-417"/>
<line class="st43" x1="1086" y1="-532" x2="1193" y2="-485"/>
<line class="st43" x1="1300" y1="-532" x2="1193" y2="-485"/>
<line class="st43" x1="1193" y1="-575" x2="1086" y2="-532"/>
<line class="st43" x1="1300" y1="-532" x2="1193" y2="-575"/>
<g>
	<line class="st44" x1="80.5" y1="953.5" x2="80.5" y2="876.5"/>
	<line class="st44" x1="80.5" y1="964" x2="80.5" y2="977.5"/>
</g>
<g>
	<circle class="st45" cx="88.16" cy="1359.24" r="58.76"/>
	<line class="st45" x1="32.5" y1="1340.69" x2="139.18" y2="1340.69"/>
	<line class="st45" x1="32.5" y1="1376.25" x2="139.18" y2="1376.25"/>
	<ellipse class="st45" cx="88.16" cy="1359.24" rx="20.1" ry="58.76"/>
</g>
<g>
	<rect x="13" y="-586" class="st2" width="140" height="75"/>
	<g>
		<line class="st46" x1="23.5" y1="-570.5" x2="42.5" y2="-570.5"/>
		<line class="st5" x1="23.5" y1="-559.5" x2="138.5" y2="-559.5"/>
		<line class="st5" x1="24" y1="-546.5" x2="139" y2="-546.5"/>
		<line class="st5" x1="24" y1="-520.5" x2="139" y2="-520.5"/>
		<line class="st5" x1="49.5" y1="-546" x2="49.5" y2="-521"/>
		<line class="st5" x1="112.5" y1="-546" x2="112.5" y2="-521"/>
		<g>
			<polygon class="st47" points="33.19,-588 45.82,-588 53.9,-602 41.28,-602 			"/>
			<polygon class="st47" points="109.66,-602 97.75,-602 89.66,-588 101.58,-588 			"/>
			<polygon class="st47" points="153.98,-602 145.9,-588 159.5,-588 159.5,-602 			"/>
			<polygon class="st47" points="81.9,-602 69.75,-602 61.66,-588 73.82,-588 			"/>
			<polygon class="st47" points="25.43,-602 7,-602 7,-588 17.35,-588 			"/>
			<polygon class="st47" points="138.13,-602 125.51,-602 117.43,-588 130.05,-588 			"/>
		</g>
		<g>
			<polygon class="st47" points="38.95,-605.62 51.18,-608.73 39.9,-620.3 27.66,-617.2 			"/>
			<polygon class="st47" points="148.18,-633.38 158.21,-635.93 154.76,-649.5 136.9,-644.96 			"/>
			<polygon class="st47" points="66.81,-627.14 55.26,-624.21 66.54,-612.63 78.09,-615.57 			"/>
			<polygon class="st47" points="12.31,-613.29 6.96,-611.93 10.41,-598.36 23.59,-601.71 			"/>
			<polygon class="st47" points="121.54,-641.05 109.3,-637.94 120.59,-626.37 132.82,-629.47 			"/>
			<polygon class="st47" points="93.95,-634.04 82.17,-631.05 93.45,-619.47 105.23,-622.46 			"/>
		</g>
		<rect x="13" y="-611" class="st47" width="19" height="18"/>
	</g>
</g>
<g>
	<rect x="24" y="-791" class="st41" width="109" height="72"/>
	<rect x="24" y="-808" class="st41" width="109" height="17"/>
	<polyline class="st41" points="40,-778 60,-758 40,-738 	"/>
	<line class="st41" x1="71" y1="-738" x2="118" y2="-738"/>
</g>
<g>
	<rect x="5379" y="-1042" width="1170" height="315"/>
	<text transform="matrix(1 0 0 1 5829.7021 -843.4043)" class="st0" style="font-family:'PixelFont-7'; font-size:113px;">Шапка</text>
</g>
<g>
	<rect x="5379" y="-727" class="st48" width="1170" height="183"/>
	<text transform="matrix(1 0 0 1 5623.5742 -604.3193)" style="font-family:'PixelFont-7'; font-size:113px;">Боковое меню</text>
</g>
<g>
	<rect x="5379" y="-544" class="st49" width="1170" height="644"/>
	<text transform="matrix(1 0 0 1 5775.915 -205.3828)" style="font-family:'PixelFont-7'; font-size:113px;">Контент</text>
</g>
<g>
	<rect x="5379" y="100" class="st50" width="1170" height="352"/>
	<text transform="matrix(1 0 0 1 5782.0215 327.1699)" style="font-family:'PixelFont-7'; font-size:113px;">Подвал</text>
</g>
<line class="st51" x1="6635.5" y1="-285.5" x2="7043.5" y2="-285.5"/>
<g>
	<rect x="7395" y="-1037" width="1170" height="315"/>
	<text transform="matrix(1 0 0 1 7845.7021 -838.4043)" class="st0" style="font-family:'PixelFont-7'; font-size:113px;">Шапка</text>
</g>
<g>
	
		<rect x="6810.5" y="-317.5" transform="matrix(5.242391e-11 -1 1 5.242391e-11 7537.5 7085.4995)" class="st48" width="1002" height="183"/>
	
		<text transform="matrix(4.489659e-11 -0.8564 1 3.844990e-11 7342.6807 65.543)" style="font-family:'PixelFont-7'; font-size:113px;">Боковое меню</text>
</g>
<g>
	<rect x="7395" y="-720" class="st49" width="1170" height="644"/>
	<text transform="matrix(1 0 0 1 7791.915 -381.3828)" style="font-family:'PixelFont-7'; font-size:113px;">Контент</text>
</g>
<g>
	<rect x="7395" y="-76" class="st50" width="1170" height="352"/>
	<text transform="matrix(1 0 0 1 7798.0215 151.1699)" style="font-family:'PixelFont-7'; font-size:113px;">Подвал</text>
</g>
<g>
	<rect x="1001" y="973" class="st52" width="113" height="132"/>
	<rect x="1001" y="895" class="st52" width="339" height="90"/>
	<rect x="1227" y="973" class="st52" width="113" height="132"/>
	<polygon class="st52" points="1001,895 1170.5,797.89 1337.66,895 	"/>
	<rect x="928.7" y="795.81" transform="matrix(0.866 -0.5 0.5 0.866 -262.8303 639.718)" class="st52" width="267.23" height="29"/>
	
		<rect x="1145.56" y="795.44" transform="matrix(-0.866 -0.5 0.5 -0.866 1981.996 2150.9465)" class="st52" width="267.23" height="29"/>
	<rect x="1293" y="717" class="st52" width="48" height="116"/>
</g>
<rect x="1970.86" y="369.65" class="st19" width="286" height="343"/>
<line class="st20" x1="2006.86" y1="408.65" x2="2221.86" y2="408.65"/>
<line class="st20" x1="2007" y1="438" x2="2222" y2="438"/>
<rect x="2155.5" y="627.5" transform="matrix(4.502005e-11 -1 1 4.502005e-11 1479 2840)" class="st19" width="8" height="106"/>
<rect x="2155" y="599" transform="matrix(4.486906e-11 -1 1 4.486906e-11 1507.5 2811.5)" class="st19" width="9" height="106"/>
<rect x="2155.5" y="570.5" transform="matrix(4.479268e-11 -1 1 4.479268e-11 1536 2783)" class="st19" width="8" height="106"/>
<line class="st19" x1="2006.85" y1="521.65" x2="2085.35" y2="521.66"/>
<line class="st19" x1="2097.86" y1="521.65" x2="2145.86" y2="521.65"/>
<line class="st19" x1="2159.86" y1="521.65" x2="2190.86" y2="521.65"/>
<line class="st19" x1="2200.86" y1="521.65" x2="2216.86" y2="521.65"/>
<line class="st19" x1="2006.86" y1="538.65" x2="2159.86" y2="538.65"/>
<line class="st19" x1="2169.86" y1="538.65" x2="2216.86" y2="538.65"/>
<line class="st19" x1="2006.86" y1="559.65" x2="2057.86" y2="559.65"/>
<line class="st19" x1="2068.86" y1="559.65" x2="2159.86" y2="559.65"/>
<line class="st19" x1="2169.86" y1="559.65" x2="2216.86" y2="559.65"/>
<line class="st19" x1="2006.86" y1="577.65" x2="2216.86" y2="577.65"/>
<line class="st19" x1="1969.86" y1="369.65" x2="1987.86" y2="347.65"/>
<line class="st19" x1="2253.89" y1="369.71" x2="2271.89" y2="347.71"/>
<line class="st19" x1="2256.89" y1="712.71" x2="2274.89" y2="690.71"/>
<path class="st19" d="M2285.86,497.65"/>
<line class="st19" x1="1983.86" y1="349.65" x2="2273.86" y2="349.65"/>
<line class="st19" x1="2272.86" y1="693.65" x2="2272.86" y2="347.65"/>
<rect x="2007" y="614" class="st52" width="51" height="74"/>
<line class="st20" x1="2083" y1="471" x2="2222" y2="471"/>
<rect x="1551.5" y="367.5" class="st19" width="286" height="343"/>
<line class="st20" x1="1591.37" y1="401.64" x2="1806.37" y2="401.64"/>
<line class="st20" x1="1591.51" y1="430.98" x2="1806.51" y2="430.98"/>
<rect x="1740.01" y="620.48" transform="matrix(4.502005e-11 -1 1 4.502005e-11 1070.5271 2417.4907)" class="st19" width="8" height="106"/>
<rect x="1739.51" y="591.98" transform="matrix(4.486906e-11 -1 1 4.486906e-11 1099.0271 2388.9907)" class="st19" width="9" height="106"/>
<rect x="1740.01" y="563.48" transform="matrix(4.479268e-11 -1 1 4.479268e-11 1127.5271 2360.4907)" class="st19" width="8" height="106"/>
<line class="st19" x1="1591.36" y1="514.63" x2="1669.86" y2="514.64"/>
<line class="st19" x1="1682.37" y1="514.64" x2="1730.37" y2="514.64"/>
<line class="st19" x1="1744.37" y1="514.64" x2="1775.37" y2="514.64"/>
<line class="st19" x1="1785.37" y1="514.64" x2="1801.37" y2="514.64"/>
<line class="st19" x1="1591.37" y1="531.64" x2="1744.37" y2="531.64"/>
<line class="st19" x1="1754.37" y1="531.64" x2="1801.37" y2="531.64"/>
<line class="st19" x1="1591.37" y1="552.64" x2="1642.37" y2="552.64"/>
<line class="st19" x1="1653.37" y1="552.64" x2="1744.37" y2="552.64"/>
<line class="st19" x1="1754.37" y1="552.64" x2="1801.37" y2="552.64"/>
<line class="st19" x1="1591.37" y1="570.64" x2="1801.37" y2="570.64"/>
<rect x="1591.51" y="606.98" class="st52" width="51" height="74"/>
<line class="st20" x1="1592" y1="464" x2="1731" y2="464"/>
<rect x="-110.4" y="-948.64" style="fill:none;" width="539.4" height="77.64"/>
<text transform="matrix(1 0 0 1 -110.4043 -880.8398)" style="font-family:'PixelFont-7'; font-size:113px;">Submenu</text>
<g>
	<line class="st37" x1="117" y1="-77" x2="117" y2="-144"/>
	<line class="st36" x1="113" y1="-140" x2="208" y2="-140"/>
	<line class="st36" x1="203" y1="-144" x2="203" y2="-76"/>
	<circle class="st36" cx="159" cy="-184" r="40"/>
	<line class="st37" x1="-17" y1="-78" x2="-17" y2="-145"/>
	<line class="st36" x1="-21" y1="-141" x2="74" y2="-141"/>
	<line class="st36" x1="69" y1="-145" x2="69" y2="-77"/>
	<path class="st36" d="M66-190c1.46,24.76-18.26,45.17-41,45c-20.86-0.15-40-17.58-40-40c0-22.19,18.77-39.69,40-40
		C44.89-225.29,62.63-210.45,66-190z"/>
	<line class="st53" x1="39.93" y1="-65.53" x2="39.93" y2="-149.52"/>
	<line class="st53" x1="34.91" y1="-144.5" x2="154" y2="-144.5"/>
	<line class="st53" x1="147.73" y1="-149.52" x2="147.73" y2="-64.28"/>
	<circle class="st54" cx="92.58" cy="-199.66" r="50.14"/>
</g>
<line class="st32" x1="2098" y1="1270" x2="2098" y2="1107"/>
<line class="st32" x1="1903" y1="1107" x2="2098" y2="1107"/>
<g>
	<polyline class="st36" points="184,339 184,230.17 15.49,230.17 -34,255 -34,530 94.13,530 	"/>
	<polyline class="st36" points="12.43,530 12,554 212.6,554 212.6,489.57 	"/>
	<polyline class="st36" points="212.6,302.68 212.6,257.74 184,257.74 	"/>
	<polyline class="st36" points="15,230 15,255 -34.49,254.83 	"/>
	<line class="st36" x1="0" y1="310" x2="160" y2="310"/>
	<line class="st36" x1="0" y1="336" x2="160" y2="336"/>
	<line class="st36" x1="0" y1="363" x2="160" y2="363"/>
	<line class="st36" x1="0" y1="390" x2="160" y2="390"/>
	<line class="st36" x1="0" y1="417" x2="160" y2="417"/>
	<line class="st36" x1="0" y1="444" x2="160" y2="444"/>
	<g>
		
			<rect x="166.93" y="391.34" transform="matrix(-0.9247 -0.3808 0.3808 -0.9247 166.7782 955.6854)" class="st36" width="22" height="140"/>
		<path class="st55" d="M160.03,532.38l-16.17,17.36c-1.46,1.49-3.99,0.45-3.99-1.64l0.74-23.71"/>
		
			<rect x="191.13" y="382.72" transform="matrix(-0.9247 -0.3808 0.3808 -0.9247 251.4097 828.1835)" class="st4" width="33" height="13"/>
		<path class="st42" d="M203.13,367.34l23.12,9.52c1.02,0.42,1.51,1.59,1.09,2.61l-2.68,6.5c-0.42,1.02-1.59,1.51-2.61,1.09
			l-23.12-9.52c-1.02-0.42-1.51-1.59-1.09-2.61l2.68-6.5C200.94,367.41,202.11,366.92,203.13,367.34z"/>
	</g>
</g>
<g>
	<polyline class="st56" points="46.5,1083.65 46.5,1054.5 114.27,1054.5 114.27,1083.65 114.27,1099.84 80.39,1099.84 
		80.39,1127.51 80.39,1129.72 80.39,1132.2 80.39,1134.68 	"/>
	<rect x="72.03" y="1146.81" class="st57" width="16.19" height="16.19"/>
</g>
</svg>
