<?xml version="1.0" encoding="utf-8"?>
<!-- Generator: Adobe Illustrator 25.4.1, SVG Export Plug-In . SVG Version: 6.00 Build 0)  -->
<svg version="1.1" id="Слой_1" xmlns="http://www.w3.org/2000/svg" xmlns:xlink="http://www.w3.org/1999/xlink" x="0px" y="0px"
	 viewBox="0 0 171 158" style="enable-background:new 0 0 171 158;" xml:space="preserve">
<style type="text/css">
	.st0{fill:#FFFFFF;}
	.st1{fill:none;stroke:#000000;stroke-width:9;stroke-miterlimit:10;}
	.st2{fill:none;stroke:#000000;stroke-width:5;stroke-miterlimit:10;}
	.st3{fill:#FFFFFF;stroke:#000000;stroke-width:9;stroke-miterlimit:10;}
	.st4{fill:none;stroke:#000000;stroke-width:7;stroke-miterlimit:10;}
	.st5{stroke:#000000;stroke-width:3;stroke-miterlimit:10;}
	.st6{fill:#FFFFFF;stroke:#000000;stroke-width:4;stroke-miterlimit:10;}
	.st7{stroke:#000000;stroke-width:2;stroke-miterlimit:10;}
	.st8{fill:#FFFFFF;stroke:#000000;stroke-width:2;stroke-miterlimit:10;}
	.st9{stroke:#000000;stroke-miterlimit:10;}
	.st10{fill:none;stroke:#000000;stroke-miterlimit:10;}
	.st11{fill:#FFFFFF;stroke:#000000;stroke-miterlimit:10;}
	.st12{stroke:#FFFFFF;stroke-width:9;stroke-miterlimit:10;}
	.st13{fill:none;stroke:#FFFFFF;stroke-width:7;stroke-miterlimit:10;}
	.st14{fill:#FFFFFF;stroke:#FFFFFF;stroke-width:3;stroke-miterlimit:10;}
	.st15{fill:none;stroke:#FFFFFF;stroke-width:9;stroke-miterlimit:10;}
	.st16{fill:none;stroke:#FFFFFF;stroke-width:5;stroke-miterlimit:10;}
	.st17{fill:#FFFFFF;stroke:#FFFFFF;stroke-width:6;stroke-miterlimit:10;}
	.st18{fill:none;stroke:#FFFFFF;stroke-width:6;stroke-miterlimit:10;}
	.st19{fill:none;stroke:#00FFF0;stroke-width:9;stroke-miterlimit:10;}
	.st20{fill:none;stroke:#00FFF0;stroke-width:20;stroke-miterlimit:10;}
	.st21{fill:#00FFF0;stroke:#00FFFF;stroke-width:9;stroke-miterlimit:10;}
	.st22{fill:#00FFF0;stroke:#00FFF0;stroke-width:9;stroke-miterlimit:10;}
	.st23{fill:none;stroke:#FFFFFF;stroke-width:20;stroke-miterlimit:10;}
	.st24{fill:none;stroke:#FF433F;stroke-width:16;stroke-miterlimit:10;}
	.st25{fill:#FF433F;stroke:#FF433F;stroke-width:16;stroke-miterlimit:10;}
	.st26{fill:none;stroke:#00FFF0;stroke-width:10;stroke-miterlimit:10;}
	.st27{fill:#00FFFF;stroke:#00FFFF;stroke-width:10;stroke-miterlimit:10;}
	.st28{fill:#00FFF0;stroke:#00FFF0;stroke-width:10;stroke-miterlimit:10;}
	.st29{fill:none;stroke:#00FFFF;stroke-width:32;stroke-miterlimit:10;}
	.st30{fill:none;stroke:#00FFFF;stroke-width:30;stroke-miterlimit:10;}
	.st31{fill:none;stroke:#00FFFF;stroke-width:20;stroke-miterlimit:10;}
	.st32{fill:none;stroke:#00FFFF;stroke-width:10;stroke-miterlimit:10;}
	.st33{fill:#FFFFFF;stroke:#00FFFF;stroke-width:13;stroke-miterlimit:10;}
	.st34{fill:#00FFFF;stroke:#00FFFF;stroke-width:15;stroke-miterlimit:10;}
	.st35{fill:#FFFFFF;stroke:#000000;stroke-width:8;stroke-miterlimit:10;}
	.st36{fill:none;stroke:#000000;stroke-width:10;stroke-miterlimit:10;}
	.st37{fill:#FFFFFF;stroke:#000000;stroke-width:10;stroke-miterlimit:10;}
	.st38{fill:#FFFFFF;stroke:#00FFFF;stroke-width:10;stroke-miterlimit:10;}
	.st39{fill:#FFFFFF;stroke:#00FFFF;stroke-width:5;stroke-miterlimit:10;}
	.st40{fill:none;stroke:#00FFFF;stroke-width:5;stroke-miterlimit:10;}
	.st41{fill:none;stroke:#000000;stroke-width:6;stroke-miterlimit:10;}
	.st42{fill:none;stroke:#000000;stroke-width:4;stroke-miterlimit:10;}
	.st43{fill:#00FFFF;stroke:#00FFFF;stroke-width:13;stroke-miterlimit:10;}
	.st44{fill:none;stroke:#000000;stroke-width:13;stroke-miterlimit:10;}
	.st45{fill:none;stroke:#000000;stroke-width:12;stroke-miterlimit:10;}
	.st46{stroke:#000000;stroke-width:5;stroke-miterlimit:10;}
	.st47{stroke:#000000;stroke-width:6;stroke-miterlimit:10;}
	.st48{fill:#00F4FF;}
	.st49{fill:#FF3435;}
	.st50{fill:#F26900;}
	.st51{fill:none;stroke:#000000;stroke-width:23;stroke-miterlimit:10;}
	.st52{fill:#00FFF0;}
	.st53{fill:none;stroke:#000000;stroke-width:15;stroke-miterlimit:10;}
	.st54{fill:#FFFFFF;stroke:#000000;stroke-width:15;stroke-miterlimit:10;}
	.st55{fill:none;stroke:#000000;stroke-width:11;stroke-miterlimit:10;}
	.st56{fill:none;stroke:#000000;stroke-width:17;stroke-miterlimit:10;}
	.st57{fill:#00FFF0;stroke:#000000;stroke-width:7;stroke-miterlimit:10;}
</style>
<g>
	<g>
		<rect x="1591.5" y="-553.5" class="st0" width="309" height="137"/>
		<path d="M1896-549v128h-300v-128H1896 M1905-558h-318v146h318V-558L1905-558z"/>
	</g>
	<g>
		<line class="st1" x1="1746.5" y1="-414" x2="1746.5" y2="-373"/>
	</g>
	<line class="st2" x1="1672.5" y1="-373.5" x2="1824" y2="-373.5"/>
</g>
<g>
	<rect x="1449.92" y="-524.07" class="st0" width="2.98" height="9.71"/>
	<rect x="1449.92" y="-514.36" class="st0" width="12.89" height="2.65"/>
	<rect x="1459.84" y="-524.07" class="st0" width="2.98" height="9.71"/>
	<rect x="1459.84" y="-511.71" class="st0" width="2.98" height="9.71"/>
	<rect x="1468.76" y="-524.07" class="st0" width="2.98" height="9.71"/>
	<rect x="1468.76" y="-514.36" class="st0" width="12.89" height="2.65"/>
	<rect x="1478.68" y="-524.07" class="st0" width="2.98" height="9.71"/>
	<rect x="1478.68" y="-511.71" class="st0" width="2.98" height="9.71"/>
	<rect x="1440" y="-524.07" class="st0" width="2.98" height="22.07"/>
	<rect x="1496.53" y="-524.07" class="st0" width="2.98" height="22.07"/>
	<rect x="1497.52" y="-524.07" class="st0" width="12.89" height="1.77"/>
	<rect x="1509.42" y="-522.3" class="st0" width="0.99" height="0"/>
	<rect x="1497.52" y="-514.36" class="st0" width="12.89" height="1.77"/>
	<rect x="1513.39" y="-524.07" class="st0" width="2.98" height="22.07"/>
	<rect x="1514.38" y="-524.07" class="st0" width="12.89" height="1.77"/>
	<rect x="1526.28" y="-522.3" class="st0" width="0.99" height="0"/>
	<rect x="1514.38" y="-514.36" class="st0" width="12.89" height="1.77"/>
	<rect x="1524.3" y="-524.07" class="st0" width="2.98" height="11.48"/>
	<rect x="1531.24" y="-524.07" class="st0" width="2.98" height="11.48"/>
	<rect x="1532.23" y="-524.07" class="st0" width="12.89" height="1.77"/>
	<rect x="1544.14" y="-522.3" class="st0" width="0.99" height="0"/>
	<rect x="1532.23" y="-514.36" class="st0" width="12.89" height="1.77"/>
	<rect x="1542.15" y="-512.59" class="st0" width="2.98" height="10.59"/>
	<rect x="1531.24" y="-503.76" class="st0" width="12.89" height="1.77"/>
	<rect x="1941.83" y="-615" width="1064.17" height="211"/>
</g>
<g>
	<rect x="1438.5" y="-478.87" class="st3" width="88.33" height="197.25"/>
	<line class="st4" x1="1528.45" y1="-280" x2="1578.31" y2="-301.68"/>
	<line class="st4" x1="1529.54" y1="-480.5" x2="1578.31" y2="-464.24"/>
	<line class="st4" x1="1576.14" y1="-467.49" x2="1576.14" y2="-298.42"/>
	
		<rect x="1526.92" y="-313.09" transform="matrix(0.934 -0.3573 0.3573 0.934 210.8976 534.2202)" class="st5" width="48.77" height="18.82"/>
	
		<rect x="1528.41" y="-321.64" transform="matrix(0.9881 -0.1538 0.1538 0.9881 66.9969 234.8252)" class="st5" width="46.19" height="11.92"/>
	
		<rect x="1528.4" y="-472.75" transform="matrix(0.9487 0.3162 -0.3162 0.9487 -68.6693 -514.7563)" class="st5" width="46.61" height="7.59"/>
	<rect x="1531.71" y="-369.95" class="st5" width="42.27" height="9.75"/>
	<rect x="1567.47" y="-437.15" class="st5" width="5.42" height="31.43"/>
	<rect x="1493.77" y="-459.91" class="st5" width="10.84" height="45.52"/>
	<rect x="1531.71" y="-469.66" class="st5" width="29.58" height="89"/>
	<rect x="1530.62" y="-353.7" class="st5" width="42.27" height="9.75"/>
	<rect x="1448.25" y="-466.41" class="st5" width="2.17" height="7.59"/>
	<rect x="1448.25" y="-453.41" class="st5" width="2.17" height="7.59"/>
</g>
<g>
	<rect x="1881" y="-328" class="st6" width="25" height="39"/>
	<rect x="1891" y="-322" class="st7" width="5" height="12"/>
	<rect x="1882" y="-327" class="st8" width="5" height="13"/>
	<rect x="1900" y="-327" class="st8" width="5" height="13"/>
	<rect x="1879" y="-313" class="st6" width="1" height="6"/>
	<rect x="1879" y="-302" class="st6" width="1" height="6"/>
</g>
<g>
	<rect x="1737" y="-359" width="4" height="13"/>
	<rect x="1893" y="-355" width="3" height="25"/>
	<rect x="1573" y="-359" width="323" height="4"/>
	<rect x="1649" y="-417" width="4" height="59"/>
</g>
<g>
	<rect x="1607.5" y="-343.5" class="st2" width="258" height="74"/>
	<rect x="1622" y="-286" width="34" height="8"/>
	<rect x="1668" y="-286" width="134" height="8"/>
	<rect x="1811" y="-286" width="34" height="8"/>
	<g>
		<rect x="1625.5" y="-331.5" class="st2" width="11" height="4"/>
		<rect x="1645.5" y="-331.5" class="st2" width="11" height="4"/>
		<rect x="1625.5" y="-319.5" class="st2" width="11" height="4"/>
		<rect x="1645.5" y="-319.5" class="st2" width="11" height="4"/>
		<rect x="1625.5" y="-307.5" class="st2" width="11" height="4"/>
		<rect x="1645.5" y="-307.5" class="st2" width="11" height="4"/>
	</g>
	<g>
		<rect x="1812.5" y="-331.5" class="st2" width="11" height="4"/>
		<rect x="1832.5" y="-331.5" class="st2" width="11" height="4"/>
		<rect x="1812.5" y="-319.5" class="st2" width="11" height="4"/>
		<rect x="1832.5" y="-319.5" class="st2" width="11" height="4"/>
		<rect x="1812.5" y="-307.5" class="st2" width="11" height="4"/>
		<rect x="1832.5" y="-307.5" class="st2" width="11" height="4"/>
	</g>
	<g>
		<rect x="1670.5" y="-331.5" class="st2" width="11" height="4"/>
		<rect x="1690.5" y="-331.5" class="st2" width="11" height="4"/>
		<rect x="1670.5" y="-319.5" class="st2" width="11" height="4"/>
		<rect x="1690.5" y="-319.5" class="st2" width="11" height="4"/>
		<rect x="1670.5" y="-307.5" class="st2" width="11" height="4"/>
		<rect x="1690.5" y="-307.5" class="st2" width="11" height="4"/>
		<rect x="1709.5" y="-331.5" class="st2" width="11" height="4"/>
		<rect x="1729.5" y="-331.5" class="st2" width="11" height="4"/>
		<rect x="1709.5" y="-319.5" class="st2" width="11" height="4"/>
		<rect x="1729.5" y="-319.5" class="st2" width="11" height="4"/>
		<rect x="1709.5" y="-307.5" class="st2" width="11" height="4"/>
		<rect x="1729.5" y="-307.5" class="st2" width="11" height="4"/>
		<rect x="1748.5" y="-331.5" class="st2" width="11" height="4"/>
		<rect x="1768.5" y="-331.5" class="st2" width="11" height="4"/>
		<rect x="1748.5" y="-319.5" class="st2" width="11" height="4"/>
		<rect x="1768.5" y="-319.5" class="st2" width="11" height="4"/>
		<rect x="1748.5" y="-307.5" class="st2" width="11" height="4"/>
		<rect x="1768.5" y="-307.5" class="st2" width="11" height="4"/>
		<rect x="1788.5" y="-331.5" class="st2" width="11" height="4"/>
		<rect x="1788.5" y="-319.5" class="st2" width="11" height="4"/>
		<rect x="1788.5" y="-307.5" class="st2" width="11" height="4"/>
	</g>
</g>
<rect x="1816.5" y="-465.5" transform="matrix(6.123234e-17 -1 1 6.123234e-17 2253 1388)" class="st9" width="8" height="66"/>
<rect x="1601" y="-542" width="15" height="15"/>
<rect x="1621" y="-542" width="2" height="15"/>
<rect x="1621" y="-542" width="7" height="2"/>
<rect x="1621" y="-536" width="7" height="2"/>
<rect x="1628" y="-542" width="2" height="8"/>
<rect x="1632" y="-542" width="2" height="15"/>
<rect x="1634" y="-529" width="7" height="2"/>
<rect x="1634" y="-535" width="7" height="2"/>
<rect x="1634" y="-542" width="7" height="2"/>
<rect x="1643" y="-542" width="2" height="15"/>
<rect x="1645" y="-529" width="7" height="2"/>
<rect x="1645" y="-542" width="7" height="2"/>
<rect x="1699.5" y="-507.5" class="st9" width="45" height="45"/>
<line class="st10" x1="1744.5" y1="-462.5" x2="1755.5" y2="-469.5"/>
<line class="st10" x1="1743.5" y1="-506.5" x2="1755.9" y2="-513.76"/>
<line class="st10" x1="1699.5" y1="-507.5" x2="1710.5" y2="-513.5"/>
<line class="st10" x1="1710" y1="-513.5" x2="1755" y2="-513.5"/>
<line class="st10" x1="1755.5" y1="-469" x2="1755.5" y2="-514"/>
<line class="st10" x1="1741.2" y1="-487.63" x2="1753.61" y2="-494.88"/>
<rect x="1709.5" y="-512.5" class="st9" width="46" height="43"/>
<rect x="1749.5" y="-506.5" class="st9" width="2" height="1"/>
<rect x="1742.46" y="-470.65" transform="matrix(0.8632 -0.5049 0.5049 0.8632 475.4729 818.3614)" class="st9" width="10.58" height="5"/>
<rect x="1735.5" y="-478.5" class="st9" width="13" height="6"/>
<rect x="1701.18" y="-510.1" transform="matrix(0.8632 -0.5049 0.5049 0.8632 489.7426 792.1219)" class="st9" width="10.58" height="5"/>
<rect x="1699.5" y="-462.5" class="st9" width="1" height="43"/>
<rect x="1823" y="-586" transform="matrix(6.123234e-17 -1 1 6.123234e-17 2336.5 1310.5)" class="st9" width="1" height="146"/>
<rect x="1626" y="-536" width="2" height="4"/>
<rect x="1628" y="-532" width="2" height="5"/>
<g>
	<rect x="1605.5" y="-439.5" class="st9" width="1" height="14"/>
	<rect x="1612" y="-433" transform="matrix(6.123234e-17 -1 1 6.123234e-17 2038.5 1186.5)" class="st9" width="1" height="14"/>
</g>
<g>
	
		<rect x="1876" y="-433" transform="matrix(-3.267951e-07 -1 1 -3.267951e-07 2302.5007 1450.4999)" class="st9" width="1" height="14"/>
	
		<rect x="1882.5" y="-439.5" transform="matrix(-1 3.267942e-07 -3.267942e-07 -1 3765.9998 -865.0006)" class="st9" width="1" height="14"/>
</g>
<g>
	
		<rect x="1882.5" y="-542.5" transform="matrix(-1 3.267960e-07 -3.267960e-07 -1 3765.9998 -1071.0006)" class="st9" width="1" height="14"/>
	
		<rect x="1876" y="-549" transform="matrix(3.267942e-07 1 -1 3.267942e-07 1334.4994 -2418.4998)" class="st9" width="1" height="14"/>
</g>
<g>
	<rect x="1615.5" y="-507.5" class="st9" width="24" height="3"/>
	<rect x="1642.5" y="-507.5" class="st9" width="24" height="3"/>
	<rect x="1615.5" y="-501.5" class="st9" width="13" height="3"/>
	<rect x="1631.5" y="-501.5" class="st9" width="35" height="3"/>
	<rect x="1652.5" y="-495.5" class="st9" width="14" height="3"/>
	<rect x="1615.5" y="-489.5" class="st9" width="24" height="3"/>
	<rect x="1620.5" y="-495.5" class="st9" width="30" height="3"/>
	<rect x="1615.5" y="-495.5" class="st9" width="3" height="3"/>
	<rect x="1642.5" y="-489.5" class="st9" width="3" height="3"/>
	<rect x="1648.5" y="-489.5" class="st9" width="3" height="3"/>
	<rect x="1654.5" y="-489.5" class="st9" width="12" height="3"/>
</g>
<rect x="1637" y="-502" transform="matrix(6.123234e-17 -1 1 6.123234e-17 2117.5 1164.5)" class="st9" width="8" height="51"/>
<rect x="1777.5" y="-501.5" class="st9" width="84" height="3"/>
<rect x="1777.5" y="-500.5" class="st9" width="0" height="33"/>
<rect x="1861.5" y="-500.06" class="st9" width="0" height="32.56"/>
<rect x="1777.5" y="-468.5" class="st9" width="84" height="1"/>
<rect x="1854.5" y="-501.5" class="st11" width="3" height="3"/>
<rect x="1851.5" y="-500.5" class="st11" width="3" height="2"/>
<rect x="1846.5" y="-482.5" transform="matrix(6.123234e-17 -1 1 6.123234e-17 2319 1375)" class="st9" width="1" height="21"/>
<rect x="1781.5" y="-486.5" class="st9" width="1" height="15"/>
<g>
	<rect x="1970.86" y="-608.02" class="st12" width="88.33" height="197.25"/>
	<line class="st13" x1="2060.81" y1="-409.14" x2="2110.67" y2="-430.82"/>
	<line class="st13" x1="2061.9" y1="-609.64" x2="2110.67" y2="-593.38"/>
	<line class="st13" x1="2108.5" y1="-596.64" x2="2108.5" y2="-427.57"/>
	
		<rect x="2059.28" y="-442.23" transform="matrix(0.934 -0.3573 0.3573 0.934 292.1774 715.9026)" class="st14" width="48.77" height="18.82"/>
	
		<rect x="2060.77" y="-450.79" transform="matrix(0.9881 -0.1538 0.1538 0.9881 93.1872 315.152)" class="st14" width="46.19" height="11.92"/>
	
		<rect x="2060.76" y="-601.89" transform="matrix(0.9487 0.3162 -0.3162 0.9487 -82.1884 -689.7308)" class="st14" width="46.61" height="7.59"/>
	<rect x="2064.07" y="-499.1" class="st14" width="42.27" height="9.75"/>
	<rect x="2099.83" y="-566.29" class="st14" width="5.42" height="31.43"/>
	<rect x="2026.13" y="-589.05" class="st14" width="10.84" height="45.52"/>
	<rect x="2064.07" y="-598.8" class="st14" width="29.58" height="89"/>
	<rect x="2062.98" y="-482.84" class="st14" width="42.27" height="9.75"/>
	<rect x="1980.61" y="-595.55" class="st14" width="2.17" height="7.59"/>
	<rect x="1980.61" y="-582.55" class="st14" width="2.17" height="7.59"/>
</g>
<g>
	<g>
		<rect x="2128.76" y="-591.5" width="309" height="137"/>
		<path class="st0" d="M2433.26-587v128h-300v-128H2433.26 M2442.26-596h-318v146h318V-596L2442.26-596z"/>
	</g>
	<g>
		<line class="st15" x1="2283.76" y1="-452" x2="2283.76" y2="-411"/>
	</g>
	<line class="st16" x1="2209.76" y1="-411.5" x2="2361.26" y2="-411.5"/>
</g>
<g>
	<path class="st0" d="M2147.99-550.18h5.65v-5.65h50.85v11.3h-45.2v45.2h45.2v11.3h-50.85v-5.65h-5.65V-550.18z"/>
	<path class="st0" d="M2215.79-544.53h11.3v33.9h22.6v-33.9h11.3v62.15h-5.65v5.65h-33.9v-11.3h28.25v-11.3h-28.25v-5.65h-5.65
		V-544.53z"/>
	<path class="st0" d="M2272.29-555.83h11.3v16.95h28.25v5.65h5.65v39.55h-5.65v5.65h-39.55V-555.83z M2283.59-499.33h22.6v-28.25
		h-22.6V-499.33z"/>
	<path class="st0" d="M2328.79-538.88h5.65v-5.65h33.9v5.65h5.65v28.25h-33.9v11.3h28.25v11.3h-33.9v-5.65h-5.65V-538.88z
		 M2340.09-521.93h22.6v-11.3h-22.6V-521.93z"/>
	<path class="st0" d="M2385.29-544.53h11.3v5.65h5.65v-5.65h22.6v5.65h5.65v11.3h-11.3v-5.65h-16.95v5.65h-5.65v39.55h-11.3V-544.53
		z"/>
</g>
<rect x="3006" y="-614" class="st0" width="764.9" height="209.66"/>
<text transform="matrix(1.2222 0 0 1 3026 -451.5195)" style="font-family:'Roboto-Regular'; font-size:186.4234px;">Games</text>
<g>
	<path class="st0" d="M2475.11-569.54h18.43v73.73h18.43v-36.87h18.43v36.87h18.43v-73.73h18.43v82.95h-9.22v9.22h-9.22v18.43
		h-18.43v-18.43h-18.43v18.43h-18.43v-18.43h-9.22v-9.22h-9.22V-569.54z"/>
	<path class="st0" d="M2585.7-541.89h9.22v-9.22h55.3v9.22h9.22v73.73h-9.22v9.22h-55.3v-9.22h-9.22V-541.89z M2604.13-477.38H2641
		v-55.3h-36.87V-477.38z"/>
	<path class="st0" d="M2677.86-551.11h18.43v9.22h9.22v-9.22h36.86v9.22h9.22v18.43h-18.43v-9.22h-27.65v9.22h-9.22v64.51h-18.43
		V-551.11z"/>
	<path class="st0" d="M2770.03-569.54h18.43v110.59h-18.43V-569.54z"/>
	<path class="st0" d="M2806.89-532.68h9.22v-9.22h46.08v-27.65h18.43v110.59h-64.51v-9.22h-9.22V-532.68z M2825.32-477.38h36.87
		v-46.08h-36.87V-477.38z"/>
	<path class="st0" d="M2899.05-541.89h9.22v-9.22h64.51v18.43h-55.3v18.43h46.08v9.22h9.22v36.87h-9.22v9.22h-64.51v-18.43h55.3
		v-18.43h-46.08v-9.22h-9.22V-541.89z"/>
</g>
<g>
	<rect x="1972.91" y="-382.68" class="st3" width="88.33" height="197.25"/>
	<line class="st4" x1="2062.86" y1="-183.81" x2="2112.72" y2="-205.49"/>
	<line class="st4" x1="2063.95" y1="-384.31" x2="2112.72" y2="-368.05"/>
	<line class="st4" x1="2110.55" y1="-371.3" x2="2110.55" y2="-202.23"/>
	
		<rect x="2061.33" y="-216.9" transform="matrix(0.934 -0.3573 0.3573 0.934 211.804 731.5078)" class="st5" width="48.77" height="18.82"/>
	
		<rect x="2062.82" y="-225.45" transform="matrix(0.9881 -0.1538 0.1538 0.9881 58.5616 318.1471)" class="st5" width="46.19" height="11.92"/>
	
		<rect x="2062.81" y="-376.56" transform="matrix(0.9487 0.3162 -0.3162 0.9487 -10.827 -678.8154)" class="st5" width="46.61" height="7.59"/>
	<rect x="2066.11" y="-273.76" class="st5" width="42.27" height="9.75"/>
	<rect x="2101.88" y="-340.96" class="st5" width="5.42" height="31.43"/>
	<rect x="2028.18" y="-363.72" class="st5" width="10.84" height="45.52"/>
	<rect x="2066.11" y="-373.47" class="st5" width="29.58" height="89"/>
	<rect x="2065.03" y="-257.51" class="st5" width="42.27" height="9.75"/>
	<rect x="1982.66" y="-370.22" class="st5" width="2.17" height="7.59"/>
	<rect x="1982.66" y="-357.21" class="st5" width="2.17" height="7.59"/>
</g>
<g>
	<g>
		<path d="M2463.3-371v136.94h-300V-371H2463.3 M2472.3-380h-318v154.94h318V-380L2472.3-380z"/>
	</g>
	<g>
		<line class="st1" x1="2313.8" y1="-227.18" x2="2313.8" y2="-183.67"/>
	</g>
	<line class="st2" x1="2239.8" y1="-184.2" x2="2391.3" y2="-184.2"/>
</g>
<g>
	<rect x="3215" y="-379" width="713" height="204.76"/>
	<g>
		<g>
			<path class="st0" d="M3396.96-218.2h-9.1c-0.79-1.52-1.19-8.1-1.39-20.43c-4.96,8.84-15.8,21.92-44.23,21.92
				c-39.43,0-59.67-28.14-59.67-64.74c0-38.44,21.62-67.32,61.9-67.32c29.74,0,49.37,14.62,53.67,38.31h-11
				c-5.82-18-19.22-28.84-43.06-28.84c-34.19,0-49.72,24.95-49.72,57.29c0,29.27,14.98,55.83,48.38,55.83
				c34.13,0,43.63-20.87,43.63-49.01v-1.46h-44.02v-9.49h54.62V-218.2z"/>
			<path class="st0" d="M3495.35-235.83c0,8.12,0.78,14.7,1.37,17.63h-9.79c-0.79-2.2-1.37-6.27-1.76-14.06
				c-3.34,6.78-11.94,16.27-32.09,16.27c-22.79,0-32.62-13.83-32.62-27.65c0-20.27,16.72-29.49,46.15-29.49c8.17,0,14.64,0,18.55,0
				v-9.31c0-9.15-2.94-21.35-25.1-21.35c-19.64,0-22.58,9.64-24.72,17.17h-10.18c1.18-10.27,7.95-25.86,35.11-25.86
				c22.47,0,35.07,8.86,35.07,29.15V-235.83z M3485.35-265.04c-3.7,0-12.64,0-19.06,0c-21.67,0-35.05,5.32-35.05,21
				c0,11.49,8.73,19.35,22.39,19.35c27.83,0,31.72-17.35,31.72-37.06V-265.04z"/>
			<path class="st0" d="M3527.55-286.51c0-7.92,0-16.55-0.2-23.75h9.99c0.2,3.11,0.6,10.96,0.41,16.26
				c4.14-9.15,13.15-18.47,29.4-18.47c13.75,0,24.48,6.45,28.4,18.13c4.93-9.53,14.71-18.13,31.96-18.13
				c15.16,0,30.83,8.14,30.83,33.7v60.57h-10.19v-59.42c0-12.25-4.68-25.57-22.78-25.57c-18.88,0-27.42,14.2-27.42,31.97v53.02h-10
				v-59.22c0-13.35-4.28-25.76-22.2-25.76c-18.87,0-28,15.62-28,34.33v50.65h-10.2V-286.51z"/>
			<path class="st0" d="M3692.97-263.03c0.19,23.48,12.81,38.13,31.53,38.13c18.29,0,24.51-9.63,28.02-17.14h10.4
				c-4.11,12.13-14.52,26.05-38.82,26.05c-29.9,0-41.54-24.09-41.54-47.49c0-26.39,13.98-48.99,42.71-48.99
				c30.31,0,39.97,24.45,39.97,41.89c0,2.59,0,5.15-0.2,7.55H3692.97z M3754.66-271.3c-0.2-18.06-10.66-32.3-29.77-32.3
				c-20.06,0-29.2,13.15-31.33,32.3H3754.66z"/>
			<path class="st0" d="M3789.5-243.66c3.31,11.86,12.28,18.98,27.67,18.98c17.31,0,24.3-7.46,24.3-17.66
				c0-10.39-4.7-15.48-26.51-20.42c-25.48-5.75-31.74-12.97-31.74-25.14c0-12.72,10.21-24.56,32.56-24.56
				c22.36,0,32.95,12.76,34.5,25.82h-10.18c-1.75-7.63-8.13-17.14-24.74-17.14c-16.9,0-21.76,7.82-21.76,15.12
				c0,8.38,4.67,12.57,24.03,16.97c27.8,6.28,34.62,14.79,34.62,28.6c0,16.72-14.48,27.11-35.3,27.11
				c-22.55,0-35.11-11.1-37.84-27.67H3789.5z"/>
		</g>
	</g>
</g>
<g>
	<g>
		<path d="M2540.34-182.43l-45.35-172.09h13.64c11.1,42.11,35.54,135.97,39.25,156.1h0.23c3.11-16.31,29.8-110.7,41.24-156.1h14.43
			c10.72,41.85,36.74,142.16,39.38,155.82h0.23c5.16-24.63,32.31-115.07,43.44-155.82h13.34l-49.99,172.09h-14.99
			c-10.73-40.51-36.01-139.14-38.88-154.21h-0.23c-4.25,22.55-29.32,111.6-40.96,154.21H2540.34z"/>
		<path d="M2820.22-244.21c0,34.28-18.12,64.73-53.1,64.73c-31.75,0-51.48-27.32-51.48-64.47c0-35.26,18.59-64.49,52.66-64.49
			C2799.55-308.44,2820.22-282.85,2820.22-244.21z M2728.53-243.96c0,29.16,14.88,52.57,39.52,52.57
			c25.11,0,39.28-21.73,39.28-52.57c0-28.97-13.95-52.58-39.75-52.58C2741.12-296.54,2728.53-273.42,2728.53-243.96z"/>
		<path d="M2849.11-272.02c0-20.48-0.23-29.39-0.23-33.47h11.94c0.24,3.91,0.48,11.88,0.48,27.43
			c6.76-18.36,21.71-29.42,40.72-30.38v13.72c-24.36,1.67-40.72,19.14-40.72,48.53v63.76h-12.19V-272.02z"/>
		<path d="M2925.47-182.43v-181.21h12.19v181.21H2925.47z"/>
		<path d="M3066.69-363.64v145.81c0,11.8,0,23.12,0.23,35.4h-11.7c-0.47-2.97-0.72-14.42-0.72-20.5
			c-5.86,14.89-18.92,23.45-39.25,23.45c-30.46,0-48.75-26.06-48.75-63.01c0-37.9,19.93-65.95,51.84-65.95
			c23.29,0,32.66,10.49,36.16,18.31v-73.51H3066.69z M2979.4-243c0,33.5,16.47,51.59,36.53,51.59c30.75,0,39.06-22.33,39.06-55.45
			c0-31.51-7.17-49.67-36.98-49.67C2994.95-296.52,2979.4-277.2,2979.4-243z"/>
		<path d="M3105.43-216.46c3.95,15.86,14.66,25.36,33.04,25.36c20.66,0,29.01-9.97,29.01-23.61c0-13.89-5.61-20.7-31.66-27.29
			c-30.42-7.68-37.89-17.34-37.89-33.61c0-17.01,12.19-32.83,38.88-32.83c26.69,0,39.34,17.06,41.19,34.51h-12.15
			c-2.09-10.21-9.71-22.91-29.53-22.91c-20.18,0-25.98,10.46-25.98,20.21c0,11.21,5.58,16.8,28.7,22.68
			c33.19,8.39,41.33,19.78,41.33,38.23c0,22.35-17.29,36.24-42.15,36.24c-26.92,0-41.92-14.84-45.18-36.98H3105.43z"/>
	</g>
</g>
<line class="st17" x1="2331" y1="-473" x2="2418" y2="-473"/>
<line class="st18" x1="2141" y1="-575" x2="2141" y2="-472"/>
<rect x="1923" y="-629" width="20" height="228"/>
<rect x="2222" y="-521" class="st0" width="14" height="3"/>
<rect x="2219" y="-521" width="9" height="3"/>
<rect x="2283" y="-550" class="st0" width="4" height="9"/>
<rect x="2280" y="-550" width="4" height="9"/>
<rect x="2396" y="-516" class="st0" width="3" height="22"/>
<rect x="2401" y="-501" class="st0" width="1" height="1"/>
<rect x="2394" y="-516" width="3" height="22"/>
<rect x="2199" y="-495" width="7" height="5"/>
<rect x="2353" y="-547" width="22" height="5"/>
<line class="st19" x1="4337" y1="-17.5" x2="4536" y2="-17.5"/>
<line class="st19" x1="4331" y1="-34.5" x2="4541" y2="-34.5"/>
<g>
	<line class="st19" x1="4450" y1="165.5" x2="4566" y2="165.5"/>
	<line class="st19" x1="4601.5" y1="13.5" x2="4654.5" y2="227.5"/>
	<line class="st19" x1="4605.5" y1="252.5" x2="4656.5" y2="224.5"/>
	<line class="st19" x1="4542.5" y1="166.5" x2="4610.5" y2="252.5"/>
</g>
<g>
	<line class="st19" x1="4361.5" y1="-15.5" x2="4375.5" y2="42.5"/>
	<line class="st19" x1="4372" y1="40.5" x2="4433" y2="40.5"/>
</g>
<g>
	<line class="st19" x1="4512" y1="-14.5" x2="4498" y2="43.5"/>
	<line class="st19" x1="4502" y1="41.5" x2="4441" y2="41.5"/>
</g>
<g>
	<line class="st19" x1="4424" y1="165.5" x2="4308" y2="165.5"/>
	<line class="st19" x1="4272.32" y1="13.69" x2="4219.32" y2="227.69"/>
	<line class="st19" x1="4268.32" y1="252.69" x2="4217.32" y2="224.69"/>
	<line class="st19" x1="4331.32" y1="166.69" x2="4263.32" y2="252.69"/>
</g>
<g>
	<line class="st19" x1="4255.5" y1="-10.5" x2="4331.5" y2="-44.5"/>
	<line class="st19" x1="4268.08" y1="14.96" x2="4344.08" y2="-19.04"/>
	<line class="st19" x1="4326.5" y1="-45.5" x2="4340.5" y2="-16.5"/>
	<line class="st19" x1="4258.08" y1="-14.54" x2="4272.08" y2="14.46"/>
</g>
<g>
	<line class="st19" x1="4617.38" y1="-10.77" x2="4541.38" y2="-44.77"/>
	<line class="st19" x1="4604.79" y1="14.69" x2="4528.79" y2="-19.31"/>
	<line class="st19" x1="4546.38" y1="-45.77" x2="4532.38" y2="-16.77"/>
	<line class="st19" x1="4614.79" y1="-14.81" x2="4600.79" y2="14.19"/>
</g>
<g>
	<line class="st19" x1="4311.5" y1="163.5" x2="4270.5" y2="216.5"/>
	<line class="st19" x1="4264.5" y1="224.5" x2="4258.5" y2="231.5"/>
</g>
<g>
	<line class="st19" x1="4562.09" y1="164.13" x2="4603.09" y2="217.13"/>
	<line class="st19" x1="4609.09" y1="225.13" x2="4615.09" y2="232.13"/>
</g>
<line class="st19" x1="4390" y1="58.5" x2="4409" y2="58.5"/>
<line class="st19" x1="4465" y1="58.5" x2="4484" y2="58.5"/>
<line class="st19" x1="4357.5" y1="105" x2="4357.5" y2="131"/>
<g>
	<line class="st19" x1="4374.5" y1="88" x2="4374.5" y2="114"/>
	<line class="st19" x1="4374.5" y1="122" x2="4374.5" y2="148"/>
	<line class="st19" x1="4358" y1="109.5" x2="4378" y2="109.5"/>
	<line class="st19" x1="4358" y1="126.5" x2="4378" y2="126.5"/>
	<line class="st19" x1="4371" y1="91.5" x2="4397" y2="91.5"/>
</g>
<g>
	<line class="st19" x1="4392.5" y1="148" x2="4392.5" y2="122"/>
	<line class="st19" x1="4392.5" y1="114" x2="4392.5" y2="88"/>
	<line class="st19" x1="4409" y1="126.5" x2="4389" y2="126.5"/>
	<line class="st19" x1="4409" y1="109.5" x2="4389" y2="109.5"/>
	<line class="st19" x1="4396" y1="144.5" x2="4370" y2="144.5"/>
</g>
<line class="st19" x1="4409.5" y1="105" x2="4409.5" y2="131"/>
<path class="st19" d="M4448.5,11.5c0.23,15.57-24.23,15.57-24,0C4424.27-4.07,4448.73-4.07,4448.5,11.5z"/>
<g>
	<path class="st19" d="M4335.5,49.5c0.25,16.87-26.25,16.87-26,0C4309.25,32.63,4335.75,32.63,4335.5,49.5z"/>
	<path class="st19" d="M4352.22,49.18c0.56,38.05-59.21,38.05-58.65,0C4293.02,11.13,4352.78,11.13,4352.22,49.18z"/>
</g>
<g>
	<path class="st19" d="M4516.39,118.54c0.25,16.87-26.25,16.87-26,0C4490.14,101.67,4516.64,101.67,4516.39,118.54z"/>
	<path class="st19" d="M4533.11,118.21c0.56,38.05-59.21,38.05-58.65,0C4473.91,80.17,4533.67,80.17,4533.11,118.21z"/>
</g>
<path class="st19" d="M4558.5,26.5c0.17,11.68-18.17,11.68-18,0C4540.33,14.82,4558.67,14.82,4558.5,26.5z"/>
<path class="st19" d="M4558.5,72.5c0.17,11.68-18.17,11.68-18,0C4540.33,60.82,4558.67,60.82,4558.5,72.5z"/>
<path class="st19" d="M4581.5,49.5c0.17,11.68-18.17,11.68-18,0C4563.33,37.82,4581.67,37.82,4581.5,49.5z"/>
<path class="st19" d="M4535.5,49.5c0.17,11.68-18.17,11.68-18,0C4517.33,37.82,4535.67,37.82,4535.5,49.5z"/>
<path class="st19" d="M4438.5,166.5c-1.78,0.26-2.26-0.22-2-2C4438.28,164.24,4438.76,164.72,4438.5,166.5z"/>
<g>
	<line class="st19" x1="3613.5" y1="923.5" x2="3613.5" y2="720.5"/>
	<line class="st19" x1="3561.5" y1="924" x2="3561.5" y2="509.5"/>
	<line class="st19" x1="3720.74" y1="923.53" x2="3720.5" y2="480.5"/>
	<line class="st19" x1="3613.5" y1="711" x2="3613.5" y2="480.5"/>
	<line class="st19" x1="3561.5" y1="919.5" x2="3725.5" y2="919.5"/>
	<line class="st19" x1="3558" y1="891.5" x2="3617.5" y2="891.5"/>
	<line class="st19" x1="3557.5" y1="513.5" x2="3613.5" y2="513.5"/>
	<line class="st19" x1="3609.5" y1="484.5" x2="3724.5" y2="484.5"/>
	<line class="st19" x1="3654.5" y1="488.5" x2="3654.5" y2="730.5"/>
	<line class="st19" x1="3680.5" y1="482" x2="3680.5" y2="592.5"/>
	<line class="st19" x1="3680.34" y1="618.35" x2="3680.5" y2="729.5"/>
	<line class="st19" x1="3653.5" y1="725.5" x2="3684.5" y2="725.5"/>
	<line class="st19" x1="3680.5" y1="600" x2="3680.5" y2="609.5"/>
	<line class="st19" x1="3578.5" y1="526.5" x2="3578.5" y2="570.5"/>
	<line class="st19" x1="3596.5" y1="526.5" x2="3596.5" y2="570.5"/>
	<line class="st19" x1="3574.5" y1="530.5" x2="3600.5" y2="530.5"/>
	<line class="st19" x1="3574" y1="566.5" x2="3600.5" y2="566.5"/>
	<line class="st19" x1="3579.17" y1="834.32" x2="3579.17" y2="878.32"/>
	<line class="st19" x1="3597.17" y1="834.32" x2="3597.17" y2="878.32"/>
	<line class="st19" x1="3575.17" y1="838.32" x2="3601.17" y2="838.32"/>
	<line class="st19" x1="3574.67" y1="874.32" x2="3601.17" y2="874.32"/>
	<line class="st19" x1="3587.5" y1="809" x2="3587.5" y2="825.5"/>
	<circle class="st19" cx="3667.5" cy="752.5" r="9"/>
	<circle class="st19" cx="3667.5" cy="856.5" r="13"/>
	<g>
		<line class="st19" x1="3733" y1="800.5" x2="3849" y2="800.5"/>
		<line class="st19" x1="3884.5" y1="648.5" x2="3937.5" y2="862.5"/>
		<line class="st19" x1="3888.5" y1="887.5" x2="3939.5" y2="859.5"/>
		<line class="st19" x1="3825.5" y1="801.5" x2="3893.5" y2="887.5"/>
	</g>
	<g>
		<line class="st19" x1="3795" y1="620.5" x2="3781" y2="678.5"/>
		<line class="st19" x1="3785" y1="676.5" x2="3724" y2="676.5"/>
	</g>
	<g>
		<line class="st19" x1="3900.38" y1="624.23" x2="3824.38" y2="590.23"/>
		<line class="st19" x1="3887.79" y1="649.69" x2="3811.79" y2="615.69"/>
		<line class="st19" x1="3829.38" y1="589.23" x2="3815.38" y2="618.23"/>
		<line class="st19" x1="3897.79" y1="620.19" x2="3883.79" y2="649.19"/>
	</g>
	<g>
		<line class="st19" x1="3845.09" y1="799.13" x2="3886.09" y2="852.13"/>
		<line class="st19" x1="3892.09" y1="860.13" x2="3898.09" y2="867.13"/>
	</g>
	<line class="st19" x1="3748" y1="693.5" x2="3767" y2="693.5"/>
	<g>
		<path class="st19" d="M3799.39,753.54c0.25,16.87-26.25,16.87-26,0C3773.14,736.67,3799.64,736.67,3799.39,753.54z"/>
		<path class="st19" d="M3816.11,753.21c0.56,38.05-59.21,38.05-58.65,0C3756.91,715.17,3816.67,715.17,3816.11,753.21z"/>
	</g>
	<path class="st19" d="M3841.5,661.5c0.17,11.68-18.17,11.68-18,0C3823.33,649.82,3841.67,649.82,3841.5,661.5z"/>
	<path class="st19" d="M3841.5,707.5c0.17,11.68-18.17,11.68-18,0C3823.33,695.82,3841.67,695.82,3841.5,707.5z"/>
	<path class="st19" d="M3864.5,684.5c0.17,11.68-18.17,11.68-18,0C3846.33,672.82,3864.67,672.82,3864.5,684.5z"/>
	<path class="st19" d="M3818.5,684.5c0.17,11.68-18.17,11.68-18,0C3800.33,672.82,3818.67,672.82,3818.5,684.5z"/>
	<path class="st19" d="M3721.5,801.5c-1.78,0.26-2.26-0.22-2-2C3721.28,799.24,3721.76,799.72,3721.5,801.5z"/>
	<line class="st19" x1="3720.5" y1="601.5" x2="3823.5" y2="601.5"/>
	<line class="st19" x1="3719" y1="618.5" x2="3822" y2="618.5"/>
	<path class="st19" d="M3738.5,649c0,1.17,0.02,9.21-6,12.5c-2.8,1.53-7.31,2.25-10,0c-0.92-0.77-1.98-2.18-2-12
		c-0.02-8.39,0.01-12.62,2-14c3.16-2.2,8.84-0.02,12,3C3738.48,642.3,3738.5,647.47,3738.5,649z"/>
</g>
<rect x="2422.5" y="1023.5" class="st19" width="286" height="343"/>
<line class="st20" x1="2458.5" y1="1062.5" x2="2673.5" y2="1062.5"/>
<line class="st20" x1="2458.5" y1="1104.5" x2="2673.5" y2="1104.5"/>
<rect x="2463.5" y="1141.5" class="st19" width="106" height="106"/>
<rect x="2604.5" y="1141.5" class="st19" width="8" height="106"/>
<rect x="2632.5" y="1141.5" class="st19" width="9" height="106"/>
<rect x="2661.5" y="1141.5" class="st19" width="8" height="106"/>
<line class="st19" x1="2463.5" y1="1280.5" x2="2542" y2="1280.5"/>
<line class="st19" x1="2554.5" y1="1280.5" x2="2602.5" y2="1280.5"/>
<line class="st19" x1="2616.5" y1="1280.5" x2="2647.5" y2="1280.5"/>
<line class="st19" x1="2657.5" y1="1280.5" x2="2673.5" y2="1280.5"/>
<line class="st19" x1="2463.5" y1="1297.5" x2="2616.5" y2="1297.5"/>
<line class="st19" x1="2626.5" y1="1297.5" x2="2673.5" y2="1297.5"/>
<line class="st19" x1="2463.5" y1="1318.5" x2="2514.5" y2="1318.5"/>
<line class="st19" x1="2525.5" y1="1318.5" x2="2616.5" y2="1318.5"/>
<line class="st19" x1="2626.5" y1="1318.5" x2="2673.5" y2="1318.5"/>
<line class="st19" x1="2463.5" y1="1336.5" x2="2673.5" y2="1336.5"/>
<line class="st19" x1="2421.5" y1="1023.5" x2="2439.5" y2="1001.5"/>
<line class="st19" x1="2705.53" y1="1023.55" x2="2723.53" y2="1001.55"/>
<line class="st19" x1="2708.53" y1="1366.55" x2="2726.53" y2="1344.55"/>
<path class="st19" d="M2737.5,1151.5"/>
<line class="st19" x1="2435.5" y1="1003.5" x2="2725.5" y2="1003.5"/>
<line class="st19" x1="2724.5" y1="1347.5" x2="2724.5" y2="1001.5"/>
<circle class="st19" cx="2516.5" cy="1194.5" r="38"/>
<line class="st19" x1="2480.5" y1="1182.5" x2="2549.5" y2="1182.5"/>
<line class="st19" x1="2480.5" y1="1205.5" x2="2549.5" y2="1205.5"/>
<ellipse class="st19" cx="2516.5" cy="1194.5" rx="13" ry="38"/>
<rect x="2820.47" y="1458.12" class="st19" width="286" height="343"/>
<line class="st19" x1="2819.47" y1="1458.12" x2="2837.47" y2="1436.12"/>
<line class="st19" x1="3103.51" y1="1458.17" x2="3121.51" y2="1436.17"/>
<line class="st19" x1="3106.51" y1="1801.17" x2="3124.51" y2="1779.17"/>
<path class="st19" d="M3135.47,1586.12"/>
<line class="st19" x1="2833.47" y1="1438.12" x2="3123.47" y2="1438.12"/>
<line class="st19" x1="3122.47" y1="1782.12" x2="3122.47" y2="1436.12"/>
<rect x="2833.5" y="1442.5" class="st21" width="283" height="13"/>
<rect x="3112.5" y="1452.5" class="st22" width="4" height="333"/>
<rect x="2819.5" y="1467.5" class="st22" width="278" height="324"/>
<g>
	<line class="st23" x1="2860.47" y1="1494.12" x2="3075.47" y2="1494.12"/>
	<line class="st23" x1="2860.47" y1="1536.12" x2="3075.47" y2="1536.12"/>
	<rect x="2865.47" y="1573.12" class="st15" width="106" height="106"/>
	<rect x="3006.47" y="1573.12" class="st15" width="8" height="106"/>
	<rect x="3034.47" y="1573.12" class="st15" width="9" height="106"/>
	<rect x="3063.47" y="1573.12" class="st15" width="8" height="106"/>
	<line class="st15" x1="2865.47" y1="1712.12" x2="2943.97" y2="1712.12"/>
	<line class="st15" x1="2956.47" y1="1712.12" x2="3004.47" y2="1712.12"/>
	<line class="st15" x1="3018.47" y1="1712.12" x2="3049.47" y2="1712.12"/>
	<line class="st15" x1="3059.47" y1="1712.12" x2="3075.47" y2="1712.12"/>
	<line class="st15" x1="2865.47" y1="1729.12" x2="3018.47" y2="1729.12"/>
	<line class="st15" x1="3028.47" y1="1729.12" x2="3075.47" y2="1729.12"/>
	<line class="st15" x1="2865.47" y1="1750.12" x2="2916.47" y2="1750.12"/>
	<line class="st15" x1="2927.47" y1="1750.12" x2="3018.47" y2="1750.12"/>
	<line class="st15" x1="3028.47" y1="1750.12" x2="3075.47" y2="1750.12"/>
	<line class="st15" x1="2865.47" y1="1768.12" x2="3075.47" y2="1768.12"/>
	<circle class="st15" cx="2918.47" cy="1626.12" r="38"/>
	<line class="st15" x1="2882.47" y1="1614.12" x2="2951.47" y2="1614.12"/>
	<line class="st15" x1="2882.47" y1="1637.12" x2="2951.47" y2="1637.12"/>
	<ellipse class="st15" cx="2918.47" cy="1626.12" rx="13" ry="38"/>
</g>
<path class="st19" d="M3325.68,1636.34L3325.68,1636.34c-22.41,23.27-59.44,23.97-82.72,1.56l0,0
	c-23.27-22.41-23.97-59.44-1.56-82.72l0,0c22.41-23.27,59.44-23.97,82.72-1.56v0C3347.39,1576.03,3348.09,1613.06,3325.68,1636.34z"
	/>
<rect x="3378.61" y="1645.21" transform="matrix(0.6936 -0.7203 0.7203 0.6936 -181.8446 2957.1641)" class="st19" width="13.55" height="94.28"/>
<line class="st19" x1="3324.5" y1="1633.5" x2="3349.5" y2="1657.5"/>
<line class="st19" x1="3245.5" y1="1567.5" x2="3286.76" y2="1567.5"/>
<line class="st19" x1="3291.92" y1="1567.5" x2="3321.5" y2="1567.5"/>
<line class="st19" x1="3245.5" y1="1580.39" x2="3270.43" y2="1580.39"/>
<line class="st19" x1="3273.87" y1="1580.39" x2="3322" y2="1580.39"/>
<line class="st19" x1="3245.5" y1="1593.29" x2="3288.48" y2="1593.29"/>
<line class="st19" x1="3322" y1="1593.29" x2="3308.25" y2="1593.29"/>
<line class="st19" x1="3245.5" y1="1605.32" x2="3282.46" y2="1605.32"/>
<line class="st19" x1="3285.9" y1="1605.32" x2="3322" y2="1605.32"/>
<line class="st19" x1="3245.5" y1="1619.5" x2="3321.5" y2="1619.5"/>
<line class="st19" x1="3306.1" y1="1593.29" x2="3292.35" y2="1593.29"/>
<polygon class="st24" points="3701.15,1466.24 3916.65,1839.5 3485.65,1839.5 "/>
<rect x="3697" y="1575" class="st24" width="8" height="177"/>
<rect x="3697.19" y="1792" class="st24" width="8" height="8.07"/>
<rect x="4280" y="1758" class="st25" width="50" height="50"/>
<rect x="4214" y="1820" class="st25" width="50" height="50"/>
<rect x="4148" y="1754" class="st25" width="50" height="50"/>
<rect x="4346" y="1692" class="st25" width="50" height="50"/>
<rect x="4016" y="1622" class="st25" width="50" height="50"/>
<rect x="4412" y="1626" class="st25" width="50" height="50"/>
<rect x="4016" y="1559" class="st25" width="50" height="50"/>
<rect x="4412" y="1563" class="st25" width="50" height="50"/>
<rect x="4082" y="1688" class="st25" width="50" height="50"/>
<rect x="4016" y="1496" class="st25" width="50" height="50"/>
<rect x="4412" y="1500" class="st25" width="50" height="50"/>
<rect x="4082" y="1432" class="st25" width="50" height="50"/>
<rect x="4346" y="1436" class="st25" width="50" height="50"/>
<rect x="4280" y="1436" class="st25" width="50" height="50"/>
<rect x="4148" y="1432" class="st25" width="50" height="50"/>
<rect x="4214" y="1496" class="st25" width="50" height="50"/>
<g>
	
		<rect x="4847.27" y="1347.5" transform="matrix(0.7071 -0.7071 0.7071 0.7071 409.4634 3960.8879)" class="st25" width="277.36" height="277.36"/>
	
		<rect x="5022.13" y="1516.52" transform="matrix(0.7071 -0.7071 0.7071 0.7071 337.0098 4135.4365)" class="st25" width="276.58" height="288.79"/>
	
		<rect x="5188.36" y="1364.82" transform="matrix(0.7071 -0.7071 0.7071 0.7071 497.1208 4207.1475)" class="st25" width="277.36" height="277.36"/>
</g>
<g>
	<rect x="4524" y="2085" class="st26" width="25" height="25"/>
	<rect x="4549" y="2060" class="st26" width="50" height="25"/>
	<rect x="4599" y="2085" class="st26" width="25" height="25"/>
	<rect x="4499" y="2110" class="st26" width="25" height="74"/>
	<rect x="4549" y="2209" class="st26" width="25" height="25"/>
	<rect x="4524" y="2184" class="st26" width="25" height="25"/>
	<rect x="4624" y="2110" class="st26" width="25" height="25"/>
	<rect x="4624" y="2284" class="st26" width="25" height="25"/>
	<g>
		<rect x="4574" y="2234" class="st26" width="25" height="25"/>
		<rect x="4599" y="2259" class="st26" width="25" height="25"/>
	</g>
	<rect x="4724" y="2085" transform="matrix(-1 -4.489266e-11 4.489266e-11 -1 9473 4195)" class="st26" width="25" height="25"/>
	<rect x="4674" y="2060" transform="matrix(-1 -4.489266e-11 4.489266e-11 -1 9398 4145)" class="st26" width="50" height="25"/>
	<rect x="4649" y="2085" transform="matrix(-1 -4.489266e-11 4.489266e-11 -1 9323 4195)" class="st26" width="25" height="25"/>
	<rect x="4749" y="2110" transform="matrix(-1 -4.489266e-11 4.489266e-11 -1 9523 4294)" class="st26" width="25" height="74"/>
	<rect x="4699" y="2209" transform="matrix(-1 -4.489266e-11 4.489266e-11 -1 9423 4443)" class="st26" width="25" height="25"/>
	<rect x="4724" y="2184" transform="matrix(-1 -4.489266e-11 4.489266e-11 -1 9473 4393)" class="st26" width="25" height="25"/>
	<g>
		<rect x="4674" y="2234" transform="matrix(-1 -4.489266e-11 4.489266e-11 -1 9373 4493)" class="st26" width="25" height="25"/>
		<rect x="4649" y="2259" transform="matrix(-1 -4.489266e-11 4.489266e-11 -1 9323 4543)" class="st26" width="25" height="25"/>
	</g>
</g>
<g>
	<rect x="4743.65" y="2464.46" class="st26" width="25" height="25"/>
	<rect x="4768.65" y="2439.46" class="st26" width="50" height="25"/>
	<rect x="4818.65" y="2464.46" class="st26" width="25" height="25"/>
	<rect x="4718.65" y="2489.46" class="st26" width="25" height="98.54"/>
	<rect x="4769" y="2613" class="st26" width="25" height="25"/>
	<rect x="4744" y="2588" class="st26" width="25" height="25"/>
	<rect x="4843.65" y="2489.46" class="st26" width="25" height="25"/>
	<rect x="4844" y="2688" class="st26" width="25" height="25"/>
	<g>
		<rect x="4794" y="2638" class="st26" width="25" height="25"/>
		<rect x="4819" y="2663" class="st26" width="25" height="25"/>
	</g>
	
		<rect x="4943.65" y="2464.46" transform="matrix(-1 -4.489266e-11 4.489266e-11 -1 9912.2979 4953.915)" class="st26" width="25" height="25"/>
	
		<rect x="4893.65" y="2439.46" transform="matrix(-1 -4.489266e-11 4.489266e-11 -1 9837.2979 4903.915)" class="st26" width="50" height="25"/>
	
		<rect x="4868.65" y="2464.46" transform="matrix(-1 -4.489266e-11 4.489266e-11 -1 9762.2979 4953.915)" class="st26" width="25" height="25"/>
	
		<rect x="4968.65" y="2489.46" transform="matrix(-1 -5.980828e-11 5.980828e-11 -1 9962.2979 5077.4575)" class="st26" width="25" height="98.54"/>
	<rect x="4919" y="2613" transform="matrix(-1 -4.489266e-11 4.489266e-11 -1 9863 5251)" class="st26" width="25" height="25"/>
	<rect x="4944" y="2588" transform="matrix(-1 -4.489266e-11 4.489266e-11 -1 9913 5201)" class="st26" width="25" height="25"/>
	<g>
		<rect x="4894" y="2638" transform="matrix(-1 -4.489266e-11 4.489266e-11 -1 9813 5301)" class="st26" width="25" height="25"/>
		<rect x="4869" y="2663" transform="matrix(-1 -4.489266e-11 4.489266e-11 -1 9763 5351)" class="st26" width="25" height="25"/>
	</g>
</g>
<g>
	<rect x="5180" y="2234" class="st26" width="285" height="247"/>
	<line class="st26" x1="5180" y1="2285" x2="5465" y2="2285"/>
	<g>
		<rect x="5231" y="2198" class="st27" width="30" height="64"/>
		<rect x="5384" y="2198" class="st28" width="30" height="64"/>
	</g>
	<g>
		<rect x="5231" y="2330" class="st28" width="37" height="37"/>
		<rect x="5266" y="2330" class="st26" width="37" height="37"/>
		<rect x="5303" y="2330" class="st26" width="37" height="37"/>
		<rect x="5340" y="2330" class="st26" width="37" height="37"/>
		<rect x="5377" y="2330" class="st26" width="37" height="37"/>
		<g>
			<rect x="5231" y="2367" class="st26" width="37" height="37"/>
			<rect x="5266" y="2367" class="st26" width="37" height="37"/>
			<rect x="5303" y="2367" class="st26" width="37" height="37"/>
			<rect x="5340" y="2367" class="st26" width="37" height="37"/>
			<rect x="5377" y="2367" class="st26" width="37" height="37"/>
		</g>
		<rect x="5231" y="2404" class="st26" width="37" height="37"/>
		<rect x="5266" y="2404" class="st26" width="37" height="37"/>
		<rect x="5303" y="2404" class="st26" width="37" height="37"/>
		<rect x="5340" y="2404" class="st26" width="37" height="37"/>
		<rect x="5377" y="2404" class="st28" width="37" height="37"/>
	</g>
</g>
<line class="st29" x1="2410.01" y1="803" x2="2409.51" y2="575.5"/>
<rect x="2485.87" y="551.04" transform="matrix(0.7071 -0.7071 0.7071 0.7071 259.048 1954.1284)" class="st30" width="5" height="226.65"/>
<rect x="2328.82" y="550.78" transform="matrix(-0.7071 -0.7071 0.7071 -0.7071 3510.2166 2782.1921)" class="st30" width="5" height="226.65"/>
<rect x="2485.51" y="454.99" transform="matrix(0.7071 -0.7071 0.7071 0.7071 326.8583 1925.7479)" class="st30" width="5" height="226.65"/>
<rect x="2328.47" y="454.73" transform="matrix(-0.7071 -0.7071 0.7071 -0.7071 3577.5276 2617.9844)" class="st30" width="5" height="226.65"/>
<rect x="1551" y="456" class="st31" width="2" height="278"/>
<rect x="1536" y="383" class="st30" width="30" height="107"/>
<line class="st32" x1="1514" y1="732" x2="1513.5" y2="600.98"/>
<line class="st32" x1="1579.09" y1="629.15" x2="1579.09" y2="513.11"/>
<line class="st32" x1="1521" y1="595" x2="1521.09" y2="521.11"/>
<line class="st32" x1="1586.09" y1="744.15" x2="1586" y2="644"/>
<rect x="1526" y="374" class="st33" width="50" height="126"/>
<line class="st32" x1="1499.13" y1="661.21" x2="1499.13" y2="545.17"/>
<line class="st32" x1="1624" y1="326" x2="1585.78" y2="366.66"/>
<line class="st32" x1="1650" y1="374" x2="1590.9" y2="390.29"/>
<line class="st32" x1="1632.23" y1="527.43" x2="1587.34" y2="494.27"/>
<line class="st32" x1="1651" y1="478" x2="1590.86" y2="461.53"/>
<line class="st32" x1="1664" y1="427" x2="1593.89" y2="426.85"/>
<g>
	<line class="st32" x1="1476.07" y1="323.22" x2="1514.29" y2="363.88"/>
	<line class="st32" x1="1450.07" y1="371.22" x2="1509.17" y2="387.52"/>
	<line class="st32" x1="1467.83" y1="524.65" x2="1512.72" y2="491.5"/>
	<line class="st32" x1="1449.07" y1="475.22" x2="1509.2" y2="458.75"/>
	<line class="st32" x1="1436.07" y1="424.22" x2="1506.18" y2="424.08"/>
</g>
<line class="st32" x1="1598.02" y1="681.79" x2="1598.02" y2="565.75"/>
<rect x="1145" y="470" class="st31" width="2" height="278"/>
<rect x="1130.99" y="397.32" class="st30" width="30" height="107"/>
<line class="st32" x1="1108.99" y1="746.32" x2="1108.49" y2="615.3"/>
<line class="st32" x1="1174.07" y1="643.47" x2="1174.07" y2="527.43"/>
<line class="st32" x1="1115.99" y1="609.32" x2="1116.07" y2="535.43"/>
<line class="st32" x1="1181.07" y1="758.47" x2="1180.99" y2="658.32"/>
<rect x="1120.99" y="388.32" class="st33" width="50" height="126"/>
<line class="st32" x1="1089.12" y1="688.53" x2="1089.12" y2="572.5"/>
<line class="st32" x1="1199.01" y1="696.11" x2="1199.01" y2="580.07"/>
<line class="st32" x1="1097.62" y1="533.38" x2="1097.62" y2="417.34"/>
<line class="st32" x1="1219.62" y1="565.38" x2="1220" y2="461"/>
<line class="st32" x1="1192.43" y1="474.55" x2="1193" y2="391"/>
<line class="st32" x1="1517.99" y1="307.84" x2="1533.84" y2="361.35"/>
<line class="st32" x1="1586.84" y1="309.84" x2="1570.99" y2="363.35"/>
<g>
	<rect x="1061.5" y="1008.5" class="st34" width="89" height="89"/>
	<rect x="1198.5" y="1008.5" class="st34" width="89" height="89"/>
	<rect x="1198.5" y="1135.5" class="st34" width="89" height="89"/>
	<rect x="1061.5" y="1135.5" class="st34" width="89" height="89"/>
</g>
<rect x="26" y="240" class="st3" width="113" height="59.19"/>
<line class="st35" x1="61" y1="297" x2="38.49" y2="320.51"/>
<line class="st35" x1="38" y1="297" x2="38" y2="323"/>
<rect x="61" y="253.93" transform="matrix(-1 -5.327662e-11 5.327662e-11 -1 217.2234 567.0435)" class="st3" width="95.22" height="59.19"/>
<line class="st35" x1="121.22" y1="310.93" x2="143.73" y2="334.43"/>
<line class="st35" x1="144.22" y1="310.93" x2="144.22" y2="336.93"/>
<g>
	<g>
		<line class="st36" x1="23.94" y1="1469.37" x2="23.94" y2="1402.37"/>
		<g>
			<line class="st36" x1="19.94" y1="1406.37" x2="114.94" y2="1406.37"/>
			<line class="st36" x1="109.94" y1="1402.37" x2="109.94" y2="1470.37"/>
			<circle class="st36" cx="65.94" cy="1362.37" r="40"/>
		</g>
	</g>
	<g>
		<line class="st37" x1="62" y1="1489" x2="62" y2="1422"/>
		<g>
			<line class="st37" x1="58" y1="1426" x2="153" y2="1426"/>
			<line class="st37" x1="148" y1="1422" x2="148" y2="1490"/>
			<circle class="st37" cx="104" cy="1382" r="40"/>
		</g>
	</g>
</g>
<polygon class="st38" points="726,584 726,692.79 810,669.53 810,557.98 "/>
<polygon class="st38" points="721,584.34 721,693.13 637,669.87 637,558.32 "/>
<path class="st38" d="M923,130"/>
<polygon class="st39" points="773,127 773,163.26 806,181 841,165 841,127 807,110.49 "/>
<g>
	<polyline class="st39" points="773,127 806.5,140.5 841,127 	"/>
</g>
<line class="st40" x1="806.5" y1="140.5" x2="806.5" y2="180.5"/>
<line class="st40" x1="792.05" y1="118.43" x2="824.5" y2="133.5"/>
<g>
	<rect x="38" y="738" class="st41" width="122" height="84"/>
	<rect x="23" y="702" class="st41" width="151" height="36"/>
	<path class="st42" d="M177,702c-51.67,0-103.33,0-155,0c4.16-7.67,8.32-15.33,12.48-23c41.61,0,83.22,0,124.83,0
		C165.21,686.67,171.11,694.33,177,702z"/>
	<path class="st41" d="M190,674"/>
	<path class="st41" d="M203,685"/>
	<rect x="78" y="740" class="st42" width="41" height="19"/>
</g>
<line class="st43" x1="1196" y1="173" x2="1196" y2="292"/>
<line class="st43" x1="1303" y1="244" x2="1196" y2="292"/>
<line class="st43" x1="1089" y1="245" x2="1196" y2="292"/>
<line class="st43" x1="1089" y1="129" x2="1089" y2="245"/>
<line class="st43" x1="1303" y1="129" x2="1303" y2="244"/>
<line class="st43" x1="1089" y1="129" x2="1196" y2="176"/>
<line class="st43" x1="1303" y1="129" x2="1196" y2="176"/>
<line class="st43" x1="1196" y1="86" x2="1089" y2="129"/>
<line class="st43" x1="1303" y1="129" x2="1196" y2="86"/>
<g>
	<line class="st44" x1="83.5" y1="1614.5" x2="83.5" y2="1537.5"/>
	<line class="st44" x1="83.5" y1="1625" x2="83.5" y2="1638.5"/>
</g>
<g>
	<circle class="st45" cx="91.16" cy="2020.24" r="58.76"/>
	<line class="st45" x1="35.5" y1="2001.69" x2="142.18" y2="2001.69"/>
	<line class="st45" x1="35.5" y1="2037.25" x2="142.18" y2="2037.25"/>
	<ellipse class="st45" cx="91.16" cy="2020.24" rx="20.1" ry="58.76"/>
</g>
<g>
	<rect x="16" y="75" class="st2" width="140" height="75"/>
	<g>
		<line class="st46" x1="26.5" y1="90.5" x2="45.5" y2="90.5"/>
		<line class="st5" x1="26.5" y1="101.5" x2="141.5" y2="101.5"/>
		<line class="st5" x1="27" y1="114.5" x2="142" y2="114.5"/>
		<line class="st5" x1="27" y1="140.5" x2="142" y2="140.5"/>
		<line class="st5" x1="52.5" y1="115" x2="52.5" y2="140"/>
		<line class="st5" x1="115.5" y1="115" x2="115.5" y2="140"/>
		<g>
			<polygon class="st47" points="36.19,73 48.82,73 56.9,59 44.28,59 			"/>
			<polygon class="st47" points="112.66,59 100.75,59 92.66,73 104.58,73 			"/>
			<polygon class="st47" points="156.98,59 148.9,73 162.5,73 162.5,59 			"/>
			<polygon class="st47" points="84.9,59 72.75,59 64.66,73 76.82,73 			"/>
			<polygon class="st47" points="28.43,59 10,59 10,73 20.35,73 			"/>
			<polygon class="st47" points="141.13,59 128.51,59 120.43,73 133.05,73 			"/>
		</g>
		<g>
			<polygon class="st47" points="41.95,55.38 54.18,52.27 42.9,40.7 30.66,43.8 			"/>
			<polygon class="st47" points="151.18,27.62 161.21,25.07 157.76,11.5 139.9,16.04 			"/>
			<polygon class="st47" points="69.81,33.86 58.26,36.79 69.54,48.37 81.09,45.43 			"/>
			<polygon class="st47" points="15.31,47.71 9.96,49.07 13.41,62.64 26.59,59.29 			"/>
			<polygon class="st47" points="124.54,19.95 112.3,23.06 123.59,34.63 135.82,31.53 			"/>
			<polygon class="st47" points="96.95,26.96 85.17,29.95 96.45,41.53 108.23,38.54 			"/>
		</g>
		<rect x="16" y="50" class="st47" width="19" height="18"/>
	</g>
</g>
<g>
	<rect x="27" y="-130" class="st41" width="109" height="72"/>
	<rect x="27" y="-147" class="st41" width="109" height="17"/>
	<polyline class="st41" points="43,-117 63,-97 43,-77 	"/>
	<line class="st41" x1="74" y1="-77" x2="121" y2="-77"/>
</g>
<g>
	<rect x="5382" y="-381" width="1170" height="315"/>
	<text transform="matrix(1 0 0 1 5832.7021 -182.4043)" class="st0" style="font-family:'PixelFont-7'; font-size:113px;">Шапка</text>
</g>
<g>
	<rect x="5382" y="-66" class="st48" width="1170" height="183"/>
	<text transform="matrix(1 0 0 1 5626.5742 56.6807)" style="font-family:'PixelFont-7'; font-size:113px;">Боковое меню</text>
</g>
<g>
	<rect x="5382" y="117" class="st49" width="1170" height="644"/>
	<text transform="matrix(1 0 0 1 5778.915 455.6172)" style="font-family:'PixelFont-7'; font-size:113px;">Контент</text>
</g>
<g>
	<rect x="5382" y="761" class="st50" width="1170" height="352"/>
	<text transform="matrix(1 0 0 1 5785.0215 988.1699)" style="font-family:'PixelFont-7'; font-size:113px;">Подвал</text>
</g>
<line class="st51" x1="6638.5" y1="375.5" x2="7046.5" y2="375.5"/>
<g>
	<rect x="7398" y="-376" width="1170" height="315"/>
	<text transform="matrix(1 0 0 1 7848.7021 -177.4043)" class="st0" style="font-family:'PixelFont-7'; font-size:113px;">Шапка</text>
</g>
<g>
	
		<rect x="6813.5" y="343.5" transform="matrix(5.242391e-11 -1 1 5.242391e-11 6879.5 7749.4995)" class="st48" width="1002" height="183"/>
	
		<text transform="matrix(4.489659e-11 -0.8564 1 3.844990e-11 7345.6807 726.543)" style="font-family:'PixelFont-7'; font-size:113px;">Боковое меню</text>
</g>
<g>
	<rect x="7398" y="-59" class="st49" width="1170" height="644"/>
	<text transform="matrix(1 0 0 1 7794.915 279.6172)" style="font-family:'PixelFont-7'; font-size:113px;">Контент</text>
</g>
<g>
	<rect x="7398" y="585" class="st50" width="1170" height="352"/>
	<text transform="matrix(1 0 0 1 7801.0215 812.1699)" style="font-family:'PixelFont-7'; font-size:113px;">Подвал</text>
</g>
<g>
	<rect x="1004" y="1634" class="st52" width="113" height="132"/>
	<rect x="1004" y="1556" class="st52" width="339" height="90"/>
	<rect x="1230" y="1634" class="st52" width="113" height="132"/>
	<polygon class="st52" points="1004,1556 1173.5,1458.89 1340.66,1556 	"/>
	
		<rect x="931.7" y="1456.81" transform="matrix(0.866 -0.5 0.5 0.866 -592.9284 729.7753)" class="st52" width="267.23" height="29"/>
	
		<rect x="1148.56" y="1456.44" transform="matrix(-0.866 -0.5 0.5 -0.866 1657.0941 3385.8894)" class="st52" width="267.23" height="29"/>
	<rect x="1296" y="1378" class="st52" width="48" height="116"/>
</g>
<rect x="1973.86" y="1030.65" class="st19" width="286" height="343"/>
<line class="st20" x1="2009.86" y1="1069.65" x2="2224.86" y2="1069.65"/>
<line class="st20" x1="2010" y1="1099" x2="2225" y2="1099"/>
<rect x="2158.5" y="1288.5" transform="matrix(4.502005e-11 -1 1 4.502005e-11 821 3504)" class="st19" width="8" height="106"/>
<rect x="2158" y="1260" transform="matrix(4.486906e-11 -1 1 4.486906e-11 849.5 3475.5)" class="st19" width="9" height="106"/>
<rect x="2158.5" y="1231.5" transform="matrix(4.479268e-11 -1 1 4.479268e-11 878 3447)" class="st19" width="8" height="106"/>
<line class="st19" x1="2009.85" y1="1182.65" x2="2088.35" y2="1182.66"/>
<line class="st19" x1="2100.86" y1="1182.65" x2="2148.86" y2="1182.65"/>
<line class="st19" x1="2162.86" y1="1182.65" x2="2193.86" y2="1182.65"/>
<line class="st19" x1="2203.86" y1="1182.65" x2="2219.86" y2="1182.65"/>
<line class="st19" x1="2009.86" y1="1199.65" x2="2162.86" y2="1199.65"/>
<line class="st19" x1="2172.86" y1="1199.65" x2="2219.86" y2="1199.65"/>
<line class="st19" x1="2009.86" y1="1220.65" x2="2060.86" y2="1220.65"/>
<line class="st19" x1="2071.86" y1="1220.65" x2="2162.86" y2="1220.65"/>
<line class="st19" x1="2172.86" y1="1220.65" x2="2219.86" y2="1220.65"/>
<line class="st19" x1="2009.86" y1="1238.65" x2="2219.86" y2="1238.65"/>
<line class="st19" x1="1972.86" y1="1030.65" x2="1990.86" y2="1008.65"/>
<line class="st19" x1="2256.89" y1="1030.71" x2="2274.89" y2="1008.71"/>
<line class="st19" x1="2259.89" y1="1373.71" x2="2277.89" y2="1351.71"/>
<path class="st19" d="M2288.86,1158.65"/>
<line class="st19" x1="1986.86" y1="1010.65" x2="2276.86" y2="1010.65"/>
<line class="st19" x1="2275.86" y1="1354.65" x2="2275.86" y2="1008.65"/>
<rect x="2010" y="1275" class="st52" width="51" height="74"/>
<line class="st20" x1="2086" y1="1132" x2="2225" y2="1132"/>
<rect x="1554.5" y="1028.5" class="st19" width="286" height="343"/>
<line class="st20" x1="1594.37" y1="1062.64" x2="1809.37" y2="1062.64"/>
<line class="st20" x1="1594.51" y1="1091.98" x2="1809.51" y2="1091.98"/>
<rect x="1743.01" y="1281.48" transform="matrix(4.502005e-11 -1 1 4.502005e-11 412.5272 3081.4907)" class="st19" width="8" height="106"/>
<rect x="1742.51" y="1252.98" transform="matrix(4.486906e-11 -1 1 4.486906e-11 441.0272 3052.9907)" class="st19" width="9" height="106"/>
<rect x="1743.01" y="1224.48" transform="matrix(4.479268e-11 -1 1 4.479268e-11 469.5272 3024.4907)" class="st19" width="8" height="106"/>
<line class="st19" x1="1594.36" y1="1175.63" x2="1672.86" y2="1175.64"/>
<line class="st19" x1="1685.37" y1="1175.64" x2="1733.37" y2="1175.64"/>
<line class="st19" x1="1747.37" y1="1175.64" x2="1778.37" y2="1175.64"/>
<line class="st19" x1="1788.37" y1="1175.64" x2="1804.37" y2="1175.64"/>
<line class="st19" x1="1594.37" y1="1192.64" x2="1747.37" y2="1192.64"/>
<line class="st19" x1="1757.37" y1="1192.64" x2="1804.37" y2="1192.64"/>
<line class="st19" x1="1594.37" y1="1213.64" x2="1645.37" y2="1213.64"/>
<line class="st19" x1="1656.37" y1="1213.64" x2="1747.37" y2="1213.64"/>
<line class="st19" x1="1757.37" y1="1213.64" x2="1804.37" y2="1213.64"/>
<line class="st19" x1="1594.37" y1="1231.64" x2="1804.37" y2="1231.64"/>
<rect x="1594.51" y="1267.98" class="st52" width="51" height="74"/>
<line class="st20" x1="1595" y1="1125" x2="1734" y2="1125"/>
<rect x="-107.4" y="-287.64" style="fill:none;" width="539.4" height="77.64"/>
<text transform="matrix(1 0 0 1 -107.4043 -219.8398)" style="font-family:'PixelFont-7'; font-size:113px;">Submenu</text>
<g>
	<line class="st37" x1="120" y1="584" x2="120" y2="517"/>
	<line class="st36" x1="116" y1="521" x2="211" y2="521"/>
	<line class="st36" x1="206" y1="517" x2="206" y2="585"/>
	<circle class="st36" cx="162" cy="477" r="40"/>
	<line class="st37" x1="-14" y1="583" x2="-14" y2="516"/>
	<line class="st36" x1="-18" y1="520" x2="77" y2="520"/>
	<line class="st36" x1="72" y1="516" x2="72" y2="584"/>
	<path class="st36" d="M69,471c1.46,24.76-18.26,45.17-41,45c-20.86-0.15-40-17.58-40-40c0-22.19,18.77-39.69,40-40
		C47.89,435.71,65.63,450.55,69,471z"/>
	<line class="st53" x1="42.93" y1="595.47" x2="42.93" y2="511.48"/>
	<line class="st53" x1="37.91" y1="516.5" x2="157" y2="516.5"/>
	<line class="st53" x1="150.73" y1="511.48" x2="150.73" y2="596.72"/>
	<circle class="st54" cx="95.58" cy="461.34" r="50.14"/>
</g>
<line class="st32" x1="2101" y1="1931" x2="2101" y2="1768"/>
<line class="st32" x1="1906" y1="1768" x2="2101" y2="1768"/>
<g>
	<polyline class="st36" points="187,1000 187,891.17 18.49,891.17 -31,916 -31,1191 97.13,1191 	"/>
	<polyline class="st36" points="15.43,1191 15,1215 215.6,1215 215.6,1150.57 	"/>
	<polyline class="st36" points="215.6,963.68 215.6,918.74 187,918.74 	"/>
	<polyline class="st36" points="18,891 18,916 -31.49,915.83 	"/>
	<line class="st36" x1="3" y1="971" x2="163" y2="971"/>
	<line class="st36" x1="3" y1="997" x2="163" y2="997"/>
	<line class="st36" x1="3" y1="1024" x2="163" y2="1024"/>
	<line class="st36" x1="3" y1="1051" x2="163" y2="1051"/>
	<line class="st36" x1="3" y1="1078" x2="163" y2="1078"/>
	<line class="st36" x1="3" y1="1105" x2="163" y2="1105"/>
	<g>
		
			<rect x="169.93" y="1052.34" transform="matrix(-0.9247 -0.3808 0.3808 -0.9247 -79.1568 2229.0264)" class="st36" width="22" height="140"/>
		<path class="st55" d="M163.03,1193.38l-16.17,17.36c-1.46,1.49-3.99,0.45-3.99-1.64l0.74-23.71"/>
		
			<rect x="194.13" y="1043.72" transform="matrix(-0.9247 -0.3808 0.3808 -0.9247 5.4747 2101.5244)" class="st4" width="33" height="13"/>
		<path class="st42" d="M206.13,1028.34l23.12,9.52c1.02,0.42,1.51,1.59,1.09,2.61l-2.68,6.5c-0.42,1.02-1.59,1.51-2.61,1.09
			l-23.12-9.52c-1.02-0.42-1.51-1.59-1.09-2.61l2.68-6.5C203.94,1028.41,205.11,1027.92,206.13,1028.34z"/>
	</g>
</g>
<g>
	<polyline class="st56" points="49.5,1744.65 49.5,1715.5 117.27,1715.5 117.27,1744.65 117.27,1760.84 83.39,1760.84 
		83.39,1788.51 83.39,1790.72 83.39,1793.2 83.39,1795.68 	"/>
	<rect x="75.03" y="1807.81" class="st57" width="16.19" height="16.19"/>
</g>
</svg>
