<?xml version="1.0" encoding="utf-8"?>
<!-- Generator: Adobe Illustrator 25.4.1, SVG Export Plug-In . SVG Version: 6.00 Build 0)  -->
<svg version="1.1" id="Слой_1" xmlns="http://www.w3.org/2000/svg" xmlns:xlink="http://www.w3.org/1999/xlink" x="0px" y="0px"
	 viewBox="0 0 140 110" style="enable-background:new 0 0 140 110;" xml:space="preserve">
<style type="text/css">
	.st0{fill:#FFFFFF;}
	.st1{fill:none;stroke:#000000;stroke-width:9;stroke-miterlimit:10;}
	.st2{fill:none;stroke:#000000;stroke-width:5;stroke-miterlimit:10;}
	.st3{fill:#FFFFFF;stroke:#000000;stroke-width:9;stroke-miterlimit:10;}
	.st4{fill:none;stroke:#000000;stroke-width:7;stroke-miterlimit:10;}
	.st5{stroke:#000000;stroke-width:3;stroke-miterlimit:10;}
	.st6{fill:#FFFFFF;stroke:#000000;stroke-width:4;stroke-miterlimit:10;}
	.st7{stroke:#000000;stroke-width:2;stroke-miterlimit:10;}
	.st8{fill:#FFFFFF;stroke:#000000;stroke-width:2;stroke-miterlimit:10;}
	.st9{stroke:#000000;stroke-miterlimit:10;}
	.st10{fill:none;stroke:#000000;stroke-miterlimit:10;}
	.st11{fill:#FFFFFF;stroke:#000000;stroke-miterlimit:10;}
	.st12{stroke:#FFFFFF;stroke-width:9;stroke-miterlimit:10;}
	.st13{fill:none;stroke:#FFFFFF;stroke-width:7;stroke-miterlimit:10;}
	.st14{fill:#FFFFFF;stroke:#FFFFFF;stroke-width:3;stroke-miterlimit:10;}
	.st15{fill:none;stroke:#FFFFFF;stroke-width:9;stroke-miterlimit:10;}
	.st16{fill:none;stroke:#FFFFFF;stroke-width:5;stroke-miterlimit:10;}
	.st17{fill:#FFFFFF;stroke:#FFFFFF;stroke-width:6;stroke-miterlimit:10;}
	.st18{fill:none;stroke:#FFFFFF;stroke-width:6;stroke-miterlimit:10;}
	.st19{fill:none;stroke:#00FFF0;stroke-width:9;stroke-miterlimit:10;}
	.st20{fill:none;stroke:#00FFF0;stroke-width:20;stroke-miterlimit:10;}
	.st21{fill:#00FFF0;stroke:#00FFFF;stroke-width:9;stroke-miterlimit:10;}
	.st22{fill:#00FFF0;stroke:#00FFF0;stroke-width:9;stroke-miterlimit:10;}
	.st23{fill:none;stroke:#FFFFFF;stroke-width:20;stroke-miterlimit:10;}
	.st24{fill:none;stroke:#FF433F;stroke-width:16;stroke-miterlimit:10;}
	.st25{fill:#FF433F;stroke:#FF433F;stroke-width:16;stroke-miterlimit:10;}
	.st26{fill:none;stroke:#00FFF0;stroke-width:10;stroke-miterlimit:10;}
	.st27{fill:#00FFFF;stroke:#00FFFF;stroke-width:10;stroke-miterlimit:10;}
	.st28{fill:#00FFF0;stroke:#00FFF0;stroke-width:10;stroke-miterlimit:10;}
	.st29{fill:none;stroke:#00FFFF;stroke-width:32;stroke-miterlimit:10;}
	.st30{fill:none;stroke:#00FFFF;stroke-width:30;stroke-miterlimit:10;}
	.st31{fill:none;stroke:#00FFFF;stroke-width:20;stroke-miterlimit:10;}
	.st32{fill:none;stroke:#00FFFF;stroke-width:10;stroke-miterlimit:10;}
	.st33{fill:#FFFFFF;stroke:#00FFFF;stroke-width:13;stroke-miterlimit:10;}
	.st34{fill:#00FFFF;stroke:#00FFFF;stroke-width:15;stroke-miterlimit:10;}
	.st35{fill:#FFFFFF;stroke:#00FFFF;stroke-width:9;stroke-miterlimit:10;}
	.st36{fill:#FFFFFF;stroke:#00FFFF;stroke-width:8;stroke-miterlimit:10;}
	.st37{fill:#FFFFFF;stroke:#00FFFF;stroke-width:10;stroke-miterlimit:10;}
	.st38{fill:#FFFFFF;stroke:#00FFFF;stroke-width:5;stroke-miterlimit:10;}
	.st39{fill:none;stroke:#00FFFF;stroke-width:5;stroke-miterlimit:10;}
	.st40{fill:none;stroke:#00FFFF;stroke-width:6;stroke-miterlimit:10;}
	.st41{fill:none;stroke:#00FFFF;stroke-width:4;stroke-miterlimit:10;}
	.st42{fill:#00FFFF;stroke:#00FFFF;stroke-width:13;stroke-miterlimit:10;}
	.st43{fill:none;stroke:#00FFFF;stroke-width:13;stroke-miterlimit:10;}
	.st44{fill:none;stroke:#00FFF0;stroke-width:12;stroke-miterlimit:10;}
	.st45{fill:none;stroke:#00FFF0;stroke-width:5;stroke-miterlimit:10;}
	.st46{fill:none;stroke:#00FFF0;stroke-width:3;stroke-miterlimit:10;}
	.st47{fill:#00FFFF;stroke:#00FFF0;stroke-width:6;stroke-miterlimit:10;}
	.st48{fill:none;stroke:#000000;stroke-width:6;stroke-miterlimit:10;}
	.st49{fill:#00F4FF;}
	.st50{fill:#FF3435;}
	.st51{fill:#F26900;}
	.st52{fill:none;stroke:#000000;stroke-width:23;stroke-miterlimit:10;}
	.st53{fill:#00FFF0;}
	.st54{fill:#FFFFFF;stroke:#00FFF0;stroke-width:10;stroke-miterlimit:10;}
	.st55{fill:none;stroke:#00FFF0;stroke-width:15;stroke-miterlimit:10;}
	.st56{fill:#FFFFFF;stroke:#00FFF0;stroke-width:15;stroke-miterlimit:10;}
	.st57{fill:none;stroke:#00FFFF;stroke-width:11;stroke-miterlimit:10;}
	.st58{fill:none;stroke:#00FFFF;stroke-width:7;stroke-miterlimit:10;}
	.st59{fill:none;stroke:#00FFFF;stroke-width:17;stroke-miterlimit:10;}
	.st60{fill:#00FFF0;stroke:#00FFFF;stroke-width:7;stroke-miterlimit:10;}
</style>
<g>
	<g>
		<rect x="1575.5" y="-396.5" class="st0" width="309" height="137"/>
		<path d="M1880-392v128h-300v-128H1880 M1889-401h-318v146h318V-401L1889-401z"/>
	</g>
	<g>
		<line class="st1" x1="1730.5" y1="-257" x2="1730.5" y2="-216"/>
	</g>
	<line class="st2" x1="1656.5" y1="-216.5" x2="1808" y2="-216.5"/>
</g>
<g>
	<rect x="1433.92" y="-367.07" class="st0" width="2.98" height="9.71"/>
	<rect x="1433.92" y="-357.36" class="st0" width="12.89" height="2.65"/>
	<rect x="1443.84" y="-367.07" class="st0" width="2.98" height="9.71"/>
	<rect x="1443.84" y="-354.71" class="st0" width="2.98" height="9.71"/>
	<rect x="1452.76" y="-367.07" class="st0" width="2.98" height="9.71"/>
	<rect x="1452.76" y="-357.36" class="st0" width="12.89" height="2.65"/>
	<rect x="1462.68" y="-367.07" class="st0" width="2.98" height="9.71"/>
	<rect x="1462.68" y="-354.71" class="st0" width="2.98" height="9.71"/>
	<rect x="1424" y="-367.07" class="st0" width="2.98" height="22.07"/>
	<rect x="1480.53" y="-367.07" class="st0" width="2.98" height="22.07"/>
	<rect x="1481.52" y="-367.07" class="st0" width="12.89" height="1.77"/>
	<rect x="1493.42" y="-365.3" class="st0" width="0.99" height="0"/>
	<rect x="1481.52" y="-357.36" class="st0" width="12.89" height="1.77"/>
	<rect x="1497.39" y="-367.07" class="st0" width="2.98" height="22.07"/>
	<rect x="1498.38" y="-367.07" class="st0" width="12.89" height="1.77"/>
	<rect x="1510.28" y="-365.3" class="st0" width="0.99" height="0"/>
	<rect x="1498.38" y="-357.36" class="st0" width="12.89" height="1.77"/>
	<rect x="1508.3" y="-367.07" class="st0" width="2.98" height="11.48"/>
	<rect x="1515.24" y="-367.07" class="st0" width="2.98" height="11.48"/>
	<rect x="1516.23" y="-367.07" class="st0" width="12.89" height="1.77"/>
	<rect x="1528.14" y="-365.3" class="st0" width="0.99" height="0"/>
	<rect x="1516.23" y="-357.36" class="st0" width="12.89" height="1.77"/>
	<rect x="1526.15" y="-355.59" class="st0" width="2.98" height="10.59"/>
	<rect x="1515.24" y="-346.76" class="st0" width="12.89" height="1.77"/>
	<rect x="1925.83" y="-458" width="1064.17" height="211"/>
</g>
<g>
	<rect x="1422.5" y="-321.87" class="st3" width="88.33" height="197.25"/>
	<line class="st4" x1="1512.45" y1="-123" x2="1562.31" y2="-144.68"/>
	<line class="st4" x1="1513.54" y1="-323.5" x2="1562.31" y2="-307.24"/>
	<line class="st4" x1="1560.14" y1="-310.49" x2="1560.14" y2="-141.42"/>
	
		<rect x="1510.92" y="-156.09" transform="matrix(0.934 -0.3573 0.3573 0.934 153.7471 538.8665)" class="st5" width="48.77" height="18.82"/>
	
		<rect x="1512.41" y="-164.64" transform="matrix(0.9881 -0.1538 0.1538 0.9881 42.6642 234.2322)" class="st5" width="46.19" height="11.92"/>
	
		<rect x="1512.4" y="-315.75" transform="matrix(0.9487 0.3162 -0.3162 0.9487 -19.8426 -501.64)" class="st5" width="46.61" height="7.59"/>
	<rect x="1515.71" y="-212.95" class="st5" width="42.27" height="9.75"/>
	<rect x="1551.47" y="-280.15" class="st5" width="5.42" height="31.43"/>
	<rect x="1477.77" y="-302.91" class="st5" width="10.84" height="45.52"/>
	<rect x="1515.71" y="-312.66" class="st5" width="29.58" height="89"/>
	<rect x="1514.62" y="-196.7" class="st5" width="42.27" height="9.75"/>
	<rect x="1432.25" y="-309.41" class="st5" width="2.17" height="7.59"/>
	<rect x="1432.25" y="-296.41" class="st5" width="2.17" height="7.59"/>
</g>
<g>
	<rect x="1865" y="-171" class="st6" width="25" height="39"/>
	<rect x="1875" y="-165" class="st7" width="5" height="12"/>
	<rect x="1866" y="-170" class="st8" width="5" height="13"/>
	<rect x="1884" y="-170" class="st8" width="5" height="13"/>
	<rect x="1863" y="-156" class="st6" width="1" height="6"/>
	<rect x="1863" y="-145" class="st6" width="1" height="6"/>
</g>
<g>
	<rect x="1721" y="-202" width="4" height="13"/>
	<rect x="1877" y="-198" width="3" height="25"/>
	<rect x="1557" y="-202" width="323" height="4"/>
	<rect x="1633" y="-260" width="4" height="59"/>
</g>
<g>
	<rect x="1591.5" y="-186.5" class="st2" width="258" height="74"/>
	<rect x="1606" y="-129" width="34" height="8"/>
	<rect x="1652" y="-129" width="134" height="8"/>
	<rect x="1795" y="-129" width="34" height="8"/>
	<g>
		<rect x="1609.5" y="-174.5" class="st2" width="11" height="4"/>
		<rect x="1629.5" y="-174.5" class="st2" width="11" height="4"/>
		<rect x="1609.5" y="-162.5" class="st2" width="11" height="4"/>
		<rect x="1629.5" y="-162.5" class="st2" width="11" height="4"/>
		<rect x="1609.5" y="-150.5" class="st2" width="11" height="4"/>
		<rect x="1629.5" y="-150.5" class="st2" width="11" height="4"/>
	</g>
	<g>
		<rect x="1796.5" y="-174.5" class="st2" width="11" height="4"/>
		<rect x="1816.5" y="-174.5" class="st2" width="11" height="4"/>
		<rect x="1796.5" y="-162.5" class="st2" width="11" height="4"/>
		<rect x="1816.5" y="-162.5" class="st2" width="11" height="4"/>
		<rect x="1796.5" y="-150.5" class="st2" width="11" height="4"/>
		<rect x="1816.5" y="-150.5" class="st2" width="11" height="4"/>
	</g>
	<g>
		<rect x="1654.5" y="-174.5" class="st2" width="11" height="4"/>
		<rect x="1674.5" y="-174.5" class="st2" width="11" height="4"/>
		<rect x="1654.5" y="-162.5" class="st2" width="11" height="4"/>
		<rect x="1674.5" y="-162.5" class="st2" width="11" height="4"/>
		<rect x="1654.5" y="-150.5" class="st2" width="11" height="4"/>
		<rect x="1674.5" y="-150.5" class="st2" width="11" height="4"/>
		<rect x="1693.5" y="-174.5" class="st2" width="11" height="4"/>
		<rect x="1713.5" y="-174.5" class="st2" width="11" height="4"/>
		<rect x="1693.5" y="-162.5" class="st2" width="11" height="4"/>
		<rect x="1713.5" y="-162.5" class="st2" width="11" height="4"/>
		<rect x="1693.5" y="-150.5" class="st2" width="11" height="4"/>
		<rect x="1713.5" y="-150.5" class="st2" width="11" height="4"/>
		<rect x="1732.5" y="-174.5" class="st2" width="11" height="4"/>
		<rect x="1752.5" y="-174.5" class="st2" width="11" height="4"/>
		<rect x="1732.5" y="-162.5" class="st2" width="11" height="4"/>
		<rect x="1752.5" y="-162.5" class="st2" width="11" height="4"/>
		<rect x="1732.5" y="-150.5" class="st2" width="11" height="4"/>
		<rect x="1752.5" y="-150.5" class="st2" width="11" height="4"/>
		<rect x="1772.5" y="-174.5" class="st2" width="11" height="4"/>
		<rect x="1772.5" y="-162.5" class="st2" width="11" height="4"/>
		<rect x="1772.5" y="-150.5" class="st2" width="11" height="4"/>
	</g>
</g>
<rect x="1800.5" y="-308.5" transform="matrix(6.123234e-17 -1 1 6.123234e-17 2080 1529)" class="st9" width="8" height="66"/>
<rect x="1585" y="-385" width="15" height="15"/>
<rect x="1605" y="-385" width="2" height="15"/>
<rect x="1605" y="-385" width="7" height="2"/>
<rect x="1605" y="-379" width="7" height="2"/>
<rect x="1612" y="-385" width="2" height="8"/>
<rect x="1616" y="-385" width="2" height="15"/>
<rect x="1618" y="-372" width="7" height="2"/>
<rect x="1618" y="-378" width="7" height="2"/>
<rect x="1618" y="-385" width="7" height="2"/>
<rect x="1627" y="-385" width="2" height="15"/>
<rect x="1629" y="-372" width="7" height="2"/>
<rect x="1629" y="-385" width="7" height="2"/>
<rect x="1683.5" y="-350.5" class="st9" width="45" height="45"/>
<line class="st10" x1="1728.5" y1="-305.5" x2="1739.5" y2="-312.5"/>
<line class="st10" x1="1727.5" y1="-349.5" x2="1739.9" y2="-356.76"/>
<line class="st10" x1="1683.5" y1="-350.5" x2="1694.5" y2="-356.5"/>
<line class="st10" x1="1694" y1="-356.5" x2="1739" y2="-356.5"/>
<line class="st10" x1="1739.5" y1="-312" x2="1739.5" y2="-357"/>
<line class="st10" x1="1725.2" y1="-330.63" x2="1737.61" y2="-337.88"/>
<rect x="1693.5" y="-355.5" class="st9" width="46" height="43"/>
<rect x="1733.5" y="-349.5" class="st9" width="2" height="1"/>
<rect x="1726.46" y="-313.65" transform="matrix(0.8632 -0.5049 0.5049 0.8632 394.0172 831.7628)" class="st9" width="10.58" height="5"/>
<rect x="1719.5" y="-321.5" class="st9" width="13" height="6"/>
<rect x="1685.18" y="-353.1" transform="matrix(0.8632 -0.5049 0.5049 0.8632 408.2869 805.5233)" class="st9" width="10.58" height="5"/>
<rect x="1683.5" y="-305.5" class="st9" width="1" height="43"/>
<rect x="1807" y="-429" transform="matrix(6.123234e-17 -1 1 6.123234e-17 2163.5 1451.5)" class="st9" width="1" height="146"/>
<rect x="1610" y="-379" width="2" height="4"/>
<rect x="1612" y="-375" width="2" height="5"/>
<g>
	<rect x="1589.5" y="-282.5" class="st9" width="1" height="14"/>
	<rect x="1596" y="-276" transform="matrix(6.123234e-17 -1 1 6.123234e-17 1865.5 1327.5)" class="st9" width="1" height="14"/>
</g>
<g>
	
		<rect x="1860" y="-276" transform="matrix(-3.267951e-07 -1 1 -3.267951e-07 2129.5005 1591.4999)" class="st9" width="1" height="14"/>
	
		<rect x="1866.5" y="-282.5" transform="matrix(-1 3.267942e-07 -3.267942e-07 -1 3734 -551.0006)" class="st9" width="1" height="14"/>
</g>
<g>
	
		<rect x="1866.5" y="-385.5" transform="matrix(-1 3.267960e-07 -3.267960e-07 -1 3734 -757.0006)" class="st9" width="1" height="14"/>
	
		<rect x="1860" y="-392" transform="matrix(3.267942e-07 1 -1 3.267942e-07 1475.4994 -2245.4998)" class="st9" width="1" height="14"/>
</g>
<g>
	<rect x="1599.5" y="-350.5" class="st9" width="24" height="3"/>
	<rect x="1626.5" y="-350.5" class="st9" width="24" height="3"/>
	<rect x="1599.5" y="-344.5" class="st9" width="13" height="3"/>
	<rect x="1615.5" y="-344.5" class="st9" width="35" height="3"/>
	<rect x="1636.5" y="-338.5" class="st9" width="14" height="3"/>
	<rect x="1599.5" y="-332.5" class="st9" width="24" height="3"/>
	<rect x="1604.5" y="-338.5" class="st9" width="30" height="3"/>
	<rect x="1599.5" y="-338.5" class="st9" width="3" height="3"/>
	<rect x="1626.5" y="-332.5" class="st9" width="3" height="3"/>
	<rect x="1632.5" y="-332.5" class="st9" width="3" height="3"/>
	<rect x="1638.5" y="-332.5" class="st9" width="12" height="3"/>
</g>
<rect x="1621" y="-345" transform="matrix(6.123234e-17 -1 1 6.123234e-17 1944.5 1305.5)" class="st9" width="8" height="51"/>
<rect x="1761.5" y="-344.5" class="st9" width="84" height="3"/>
<rect x="1761.5" y="-343.5" class="st9" width="0" height="33"/>
<rect x="1845.5" y="-343.06" class="st9" width="0" height="32.56"/>
<rect x="1761.5" y="-311.5" class="st9" width="84" height="1"/>
<rect x="1838.5" y="-344.5" class="st11" width="3" height="3"/>
<rect x="1835.5" y="-343.5" class="st11" width="3" height="2"/>
<rect x="1830.5" y="-325.5" transform="matrix(6.123234e-17 -1 1 6.123234e-17 2146 1516)" class="st9" width="1" height="21"/>
<rect x="1765.5" y="-329.5" class="st9" width="1" height="15"/>
<g>
	<rect x="1954.86" y="-451.02" class="st12" width="88.33" height="197.25"/>
	<line class="st13" x1="2044.81" y1="-252.14" x2="2094.67" y2="-273.82"/>
	<line class="st13" x1="2045.9" y1="-452.64" x2="2094.67" y2="-436.38"/>
	<line class="st13" x1="2092.5" y1="-439.64" x2="2092.5" y2="-270.57"/>
	
		<rect x="2043.28" y="-285.23" transform="matrix(0.934 -0.3573 0.3573 0.934 235.0269 720.5489)" class="st14" width="48.77" height="18.82"/>
	
		<rect x="2044.77" y="-293.79" transform="matrix(0.9881 -0.1538 0.1538 0.9881 68.8545 314.559)" class="st14" width="46.19" height="11.92"/>
	
		<rect x="2044.76" y="-444.89" transform="matrix(0.9487 0.3162 -0.3162 0.9487 -33.3617 -676.6144)" class="st14" width="46.61" height="7.59"/>
	<rect x="2048.07" y="-342.1" class="st14" width="42.27" height="9.75"/>
	<rect x="2083.83" y="-409.29" class="st14" width="5.42" height="31.43"/>
	<rect x="2010.13" y="-432.05" class="st14" width="10.84" height="45.52"/>
	<rect x="2048.07" y="-441.8" class="st14" width="29.58" height="89"/>
	<rect x="2046.98" y="-325.84" class="st14" width="42.27" height="9.75"/>
	<rect x="1964.61" y="-438.55" class="st14" width="2.17" height="7.59"/>
	<rect x="1964.61" y="-425.55" class="st14" width="2.17" height="7.59"/>
</g>
<g>
	<g>
		<rect x="2112.76" y="-434.5" width="309" height="137"/>
		<path class="st0" d="M2417.26-430v128h-300v-128H2417.26 M2426.26-439h-318v146h318V-439L2426.26-439z"/>
	</g>
	<g>
		<line class="st15" x1="2267.76" y1="-295" x2="2267.76" y2="-254"/>
	</g>
	<line class="st16" x1="2193.76" y1="-254.5" x2="2345.26" y2="-254.5"/>
</g>
<g>
	<path class="st0" d="M2131.99-393.18h5.65v-5.65h50.85v11.3h-45.2v45.2h45.2v11.3h-50.85v-5.65h-5.65V-393.18z"/>
	<path class="st0" d="M2199.79-387.53h11.3v33.9h22.6v-33.9h11.3v62.15h-5.65v5.65h-33.9v-11.3h28.25v-11.3h-28.25v-5.65h-5.65
		V-387.53z"/>
	<path class="st0" d="M2256.29-398.83h11.3v16.95h28.25v5.65h5.65v39.55h-5.65v5.65h-39.55V-398.83z M2267.59-342.33h22.6v-28.25
		h-22.6V-342.33z"/>
	<path class="st0" d="M2312.79-381.88h5.65v-5.65h33.9v5.65h5.65v28.25h-33.9v11.3h28.25v11.3h-33.9v-5.65h-5.65V-381.88z
		 M2324.09-364.93h22.6v-11.3h-22.6V-364.93z"/>
	<path class="st0" d="M2369.29-387.53h11.3v5.65h5.65v-5.65h22.6v5.65h5.65v11.3h-11.3v-5.65h-16.95v5.65h-5.65v39.55h-11.3V-387.53
		z"/>
</g>
<rect x="2990" y="-457" class="st0" width="764.9" height="209.66"/>
<text transform="matrix(1.2222 0 0 1 3010 -294.5195)" style="font-family:'Roboto-Regular'; font-size:186.4234px;">Games</text>
<g>
	<path class="st0" d="M2459.11-412.54h18.43v73.73h18.43v-36.87h18.43v36.87h18.43v-73.73h18.43v82.95h-9.22v9.22h-9.22v18.43
		h-18.43v-18.43h-18.43v18.43h-18.43v-18.43h-9.22v-9.22h-9.22V-412.54z"/>
	<path class="st0" d="M2569.7-384.89h9.22v-9.22h55.3v9.22h9.22v73.73h-9.22v9.22h-55.3v-9.22h-9.22V-384.89z M2588.13-320.38H2625
		v-55.3h-36.87V-320.38z"/>
	<path class="st0" d="M2661.86-394.11h18.43v9.22h9.22v-9.22h36.86v9.22h9.22v18.43h-18.43v-9.22h-27.65v9.22h-9.22v64.51h-18.43
		V-394.11z"/>
	<path class="st0" d="M2754.03-412.54h18.43v110.59h-18.43V-412.54z"/>
	<path class="st0" d="M2790.89-375.68h9.22v-9.22h46.08v-27.65h18.43v110.59h-64.51v-9.22h-9.22V-375.68z M2809.32-320.38h36.87
		v-46.08h-36.87V-320.38z"/>
	<path class="st0" d="M2883.05-384.89h9.22v-9.22h64.51v18.43h-55.3v18.43h46.08v9.22h9.22v36.87h-9.22v9.22h-64.51v-18.43h55.3
		v-18.43h-46.08v-9.22h-9.22V-384.89z"/>
</g>
<g>
	<rect x="1956.91" y="-225.68" class="st3" width="88.33" height="197.25"/>
	<line class="st4" x1="2046.86" y1="-26.81" x2="2096.72" y2="-48.49"/>
	<line class="st4" x1="2047.95" y1="-227.31" x2="2096.72" y2="-211.05"/>
	<line class="st4" x1="2094.55" y1="-214.3" x2="2094.55" y2="-45.23"/>
	
		<rect x="2045.33" y="-59.9" transform="matrix(0.934 -0.3573 0.3573 0.934 154.6536 736.1542)" class="st5" width="48.77" height="18.82"/>
	
		<rect x="2046.82" y="-68.45" transform="matrix(0.9881 -0.1538 0.1538 0.9881 34.2289 317.5541)" class="st5" width="46.19" height="11.92"/>
	
		<rect x="2046.81" y="-219.56" transform="matrix(0.9487 0.3162 -0.3162 0.9487 37.9997 -665.699)" class="st5" width="46.61" height="7.59"/>
	<rect x="2050.11" y="-116.76" class="st5" width="42.27" height="9.75"/>
	<rect x="2085.88" y="-183.96" class="st5" width="5.42" height="31.43"/>
	<rect x="2012.18" y="-206.72" class="st5" width="10.84" height="45.52"/>
	<rect x="2050.11" y="-216.47" class="st5" width="29.58" height="89"/>
	<rect x="2049.03" y="-100.51" class="st5" width="42.27" height="9.75"/>
	<rect x="1966.66" y="-213.22" class="st5" width="2.17" height="7.59"/>
	<rect x="1966.66" y="-200.21" class="st5" width="2.17" height="7.59"/>
</g>
<g>
	<g>
		<path d="M2447.3-214v136.94h-300V-214H2447.3 M2456.3-223h-318v154.94h318V-223L2456.3-223z"/>
	</g>
	<g>
		<line class="st1" x1="2297.8" y1="-70.18" x2="2297.8" y2="-26.67"/>
	</g>
	<line class="st2" x1="2223.8" y1="-27.2" x2="2375.3" y2="-27.2"/>
</g>
<g>
	<rect x="3199" y="-222" width="713" height="204.76"/>
	<g>
		<g>
			<path class="st0" d="M3380.96-61.2h-9.1c-0.79-1.52-1.19-8.1-1.39-20.43c-4.96,8.84-15.8,21.92-44.23,21.92
				c-39.43,0-59.67-28.14-59.67-64.74c0-38.44,21.62-67.32,61.9-67.32c29.74,0,49.37,14.62,53.67,38.31h-11
				c-5.82-18-19.22-28.84-43.06-28.84c-34.19,0-49.72,24.95-49.72,57.29c0,29.27,14.98,55.83,48.38,55.83
				c34.13,0,43.63-20.87,43.63-49.01v-1.46h-44.02v-9.49h54.62V-61.2z"/>
			<path class="st0" d="M3479.35-78.83c0,8.12,0.78,14.7,1.37,17.63h-9.79c-0.79-2.2-1.37-6.27-1.76-14.06
				c-3.34,6.78-11.94,16.27-32.09,16.27c-22.79,0-32.62-13.83-32.62-27.65c0-20.27,16.72-29.49,46.15-29.49c8.17,0,14.64,0,18.55,0
				v-9.31c0-9.15-2.94-21.35-25.1-21.35c-19.64,0-22.58,9.64-24.72,17.17h-10.18c1.18-10.27,7.95-25.86,35.11-25.86
				c22.47,0,35.07,8.86,35.07,29.15V-78.83z M3469.35-108.04c-3.7,0-12.64,0-19.06,0c-21.67,0-35.05,5.32-35.05,21
				c0,11.49,8.73,19.35,22.39,19.35c27.83,0,31.72-17.35,31.72-37.06V-108.04z"/>
			<path class="st0" d="M3511.55-129.51c0-7.92,0-16.55-0.2-23.75h9.99c0.2,3.11,0.6,10.96,0.41,16.26
				c4.14-9.15,13.15-18.47,29.4-18.47c13.75,0,24.48,6.45,28.4,18.13c4.93-9.53,14.71-18.13,31.96-18.13
				c15.16,0,30.83,8.14,30.83,33.7v60.57h-10.19v-59.42c0-12.25-4.68-25.57-22.78-25.57c-18.88,0-27.42,14.2-27.42,31.97v53.02h-10
				v-59.22c0-13.35-4.28-25.76-22.2-25.76c-18.87,0-28,15.62-28,34.33v50.65h-10.2V-129.51z"/>
			<path class="st0" d="M3676.97-106.03c0.19,23.48,12.81,38.13,31.53,38.13c18.29,0,24.51-9.63,28.02-17.14h10.4
				c-4.11,12.13-14.52,26.05-38.82,26.05c-29.9,0-41.54-24.09-41.54-47.49c0-26.39,13.98-48.99,42.71-48.99
				c30.31,0,39.97,24.45,39.97,41.89c0,2.59,0,5.15-0.2,7.55H3676.97z M3738.66-114.3c-0.2-18.06-10.66-32.3-29.77-32.3
				c-20.06,0-29.2,13.15-31.33,32.3H3738.66z"/>
			<path class="st0" d="M3773.5-86.66c3.31,11.86,12.28,18.98,27.67,18.98c17.31,0,24.3-7.46,24.3-17.66
				c0-10.39-4.7-15.48-26.51-20.42c-25.48-5.75-31.74-12.97-31.74-25.14c0-12.72,10.21-24.56,32.56-24.56
				c22.36,0,32.95,12.76,34.5,25.82h-10.18c-1.75-7.63-8.13-17.14-24.74-17.14c-16.9,0-21.76,7.82-21.76,15.12
				c0,8.38,4.67,12.57,24.03,16.97c27.8,6.28,34.62,14.79,34.62,28.6c0,16.72-14.48,27.11-35.3,27.11
				c-22.55,0-35.11-11.1-37.84-27.67H3773.5z"/>
		</g>
	</g>
</g>
<g>
	<g>
		<path d="M2524.34-25.43l-45.35-172.09h13.64c11.1,42.11,35.54,135.97,39.25,156.1h0.23c3.11-16.31,29.8-110.7,41.24-156.1h14.43
			c10.72,41.85,36.74,142.16,39.38,155.82h0.23c5.16-24.63,32.31-115.07,43.44-155.82h13.34l-49.99,172.09h-14.99
			c-10.73-40.51-36.01-139.14-38.88-154.21h-0.23c-4.25,22.55-29.32,111.6-40.96,154.21H2524.34z"/>
		<path d="M2804.22-87.21c0,34.28-18.12,64.73-53.1,64.73c-31.75,0-51.48-27.32-51.48-64.47c0-35.26,18.59-64.49,52.66-64.49
			C2783.55-151.44,2804.22-125.85,2804.22-87.21z M2712.53-86.96c0,29.16,14.88,52.57,39.52,52.57c25.11,0,39.28-21.73,39.28-52.57
			c0-28.97-13.95-52.58-39.75-52.58C2725.12-139.54,2712.53-116.42,2712.53-86.96z"/>
		<path d="M2833.11-115.02c0-20.48-0.23-29.39-0.23-33.47h11.94c0.24,3.91,0.48,11.88,0.48,27.43
			c6.76-18.36,21.71-29.42,40.72-30.38v13.72c-24.36,1.67-40.72,19.14-40.72,48.53v63.76h-12.19V-115.02z"/>
		<path d="M2909.47-25.43v-181.21h12.19v181.21H2909.47z"/>
		<path d="M3050.69-206.64v145.81c0,11.8,0,23.12,0.23,35.4h-11.7c-0.47-2.97-0.72-14.42-0.72-20.5
			c-5.86,14.89-18.92,23.45-39.25,23.45c-30.46,0-48.75-26.06-48.75-63.01c0-37.9,19.93-65.95,51.84-65.95
			c23.29,0,32.66,10.49,36.16,18.31v-73.51H3050.69z M2963.4-86c0,33.5,16.47,51.59,36.53,51.59c30.75,0,39.06-22.33,39.06-55.45
			c0-31.51-7.17-49.67-36.98-49.67C2978.95-139.52,2963.4-120.2,2963.4-86z"/>
		<path d="M3089.43-59.46c3.95,15.86,14.66,25.36,33.04,25.36c20.66,0,29.01-9.97,29.01-23.61c0-13.89-5.61-20.7-31.66-27.29
			c-30.42-7.68-37.89-17.34-37.89-33.61c0-17.01,12.19-32.83,38.88-32.83c26.69,0,39.34,17.06,41.19,34.51h-12.15
			c-2.09-10.21-9.71-22.91-29.53-22.91c-20.18,0-25.98,10.46-25.98,20.21c0,11.21,5.58,16.8,28.7,22.68
			c33.19,8.39,41.33,19.78,41.33,38.23c0,22.35-17.29,36.24-42.15,36.24c-26.92,0-41.92-14.84-45.18-36.98H3089.43z"/>
	</g>
</g>
<line class="st17" x1="2315" y1="-316" x2="2402" y2="-316"/>
<line class="st18" x1="2125" y1="-418" x2="2125" y2="-315"/>
<rect x="1907" y="-472" width="20" height="228"/>
<rect x="2206" y="-364" class="st0" width="14" height="3"/>
<rect x="2203" y="-364" width="9" height="3"/>
<rect x="2267" y="-393" class="st0" width="4" height="9"/>
<rect x="2264" y="-393" width="4" height="9"/>
<rect x="2380" y="-359" class="st0" width="3" height="22"/>
<rect x="2385" y="-344" class="st0" width="1" height="1"/>
<rect x="2378" y="-359" width="3" height="22"/>
<rect x="2183" y="-338" width="7" height="5"/>
<rect x="2337" y="-390" width="22" height="5"/>
<line class="st19" x1="4321" y1="139.5" x2="4520" y2="139.5"/>
<line class="st19" x1="4315" y1="122.5" x2="4525" y2="122.5"/>
<g>
	<line class="st19" x1="4434" y1="322.5" x2="4550" y2="322.5"/>
	<line class="st19" x1="4585.5" y1="170.5" x2="4638.5" y2="384.5"/>
	<line class="st19" x1="4589.5" y1="409.5" x2="4640.5" y2="381.5"/>
	<line class="st19" x1="4526.5" y1="323.5" x2="4594.5" y2="409.5"/>
</g>
<g>
	<line class="st19" x1="4345.5" y1="141.5" x2="4359.5" y2="199.5"/>
	<line class="st19" x1="4356" y1="197.5" x2="4417" y2="197.5"/>
</g>
<g>
	<line class="st19" x1="4496" y1="142.5" x2="4482" y2="200.5"/>
	<line class="st19" x1="4486" y1="198.5" x2="4425" y2="198.5"/>
</g>
<g>
	<line class="st19" x1="4408" y1="322.5" x2="4292" y2="322.5"/>
	<line class="st19" x1="4256.32" y1="170.69" x2="4203.32" y2="384.69"/>
	<line class="st19" x1="4252.32" y1="409.69" x2="4201.32" y2="381.69"/>
	<line class="st19" x1="4315.32" y1="323.69" x2="4247.32" y2="409.69"/>
</g>
<g>
	<line class="st19" x1="4239.5" y1="146.5" x2="4315.5" y2="112.5"/>
	<line class="st19" x1="4252.08" y1="171.96" x2="4328.08" y2="137.96"/>
	<line class="st19" x1="4310.5" y1="111.5" x2="4324.5" y2="140.5"/>
	<line class="st19" x1="4242.08" y1="142.46" x2="4256.08" y2="171.46"/>
</g>
<g>
	<line class="st19" x1="4601.38" y1="146.23" x2="4525.38" y2="112.23"/>
	<line class="st19" x1="4588.79" y1="171.69" x2="4512.79" y2="137.69"/>
	<line class="st19" x1="4530.38" y1="111.23" x2="4516.38" y2="140.23"/>
	<line class="st19" x1="4598.79" y1="142.19" x2="4584.79" y2="171.19"/>
</g>
<g>
	<line class="st19" x1="4295.5" y1="320.5" x2="4254.5" y2="373.5"/>
	<line class="st19" x1="4248.5" y1="381.5" x2="4242.5" y2="388.5"/>
</g>
<g>
	<line class="st19" x1="4546.09" y1="321.13" x2="4587.09" y2="374.13"/>
	<line class="st19" x1="4593.09" y1="382.13" x2="4599.09" y2="389.13"/>
</g>
<line class="st19" x1="4374" y1="215.5" x2="4393" y2="215.5"/>
<line class="st19" x1="4449" y1="215.5" x2="4468" y2="215.5"/>
<line class="st19" x1="4341.5" y1="262" x2="4341.5" y2="288"/>
<g>
	<line class="st19" x1="4358.5" y1="245" x2="4358.5" y2="271"/>
	<line class="st19" x1="4358.5" y1="279" x2="4358.5" y2="305"/>
	<line class="st19" x1="4342" y1="266.5" x2="4362" y2="266.5"/>
	<line class="st19" x1="4342" y1="283.5" x2="4362" y2="283.5"/>
	<line class="st19" x1="4355" y1="248.5" x2="4381" y2="248.5"/>
</g>
<g>
	<line class="st19" x1="4376.5" y1="305" x2="4376.5" y2="279"/>
	<line class="st19" x1="4376.5" y1="271" x2="4376.5" y2="245"/>
	<line class="st19" x1="4393" y1="283.5" x2="4373" y2="283.5"/>
	<line class="st19" x1="4393" y1="266.5" x2="4373" y2="266.5"/>
	<line class="st19" x1="4380" y1="301.5" x2="4354" y2="301.5"/>
</g>
<line class="st19" x1="4393.5" y1="262" x2="4393.5" y2="288"/>
<path class="st19" d="M4432.5,168.5c0.23,15.57-24.23,15.57-24,0C4408.27,152.93,4432.73,152.93,4432.5,168.5z"/>
<g>
	<path class="st19" d="M4319.5,206.5c0.25,16.87-26.25,16.87-26,0C4293.25,189.63,4319.75,189.63,4319.5,206.5z"/>
	<path class="st19" d="M4336.22,206.18c0.56,38.05-59.21,38.05-58.65,0C4277.02,168.13,4336.78,168.13,4336.22,206.18z"/>
</g>
<g>
	<path class="st19" d="M4500.39,275.54c0.25,16.87-26.25,16.87-26,0C4474.14,258.67,4500.64,258.67,4500.39,275.54z"/>
	<path class="st19" d="M4517.11,275.21c0.56,38.05-59.21,38.05-58.65,0C4457.91,237.17,4517.67,237.17,4517.11,275.21z"/>
</g>
<path class="st19" d="M4542.5,183.5c0.17,11.68-18.17,11.68-18,0C4524.33,171.82,4542.67,171.82,4542.5,183.5z"/>
<path class="st19" d="M4542.5,229.5c0.17,11.68-18.17,11.68-18,0C4524.33,217.82,4542.67,217.82,4542.5,229.5z"/>
<path class="st19" d="M4565.5,206.5c0.17,11.68-18.17,11.68-18,0C4547.33,194.82,4565.67,194.82,4565.5,206.5z"/>
<path class="st19" d="M4519.5,206.5c0.17,11.68-18.17,11.68-18,0C4501.33,194.82,4519.67,194.82,4519.5,206.5z"/>
<path class="st19" d="M4422.5,323.5c-1.78,0.26-2.26-0.22-2-2C4422.28,321.24,4422.76,321.72,4422.5,323.5z"/>
<g>
	<line class="st19" x1="3597.5" y1="1080.5" x2="3597.5" y2="877.5"/>
	<line class="st19" x1="3545.5" y1="1081" x2="3545.5" y2="666.5"/>
	<line class="st19" x1="3704.74" y1="1080.53" x2="3704.5" y2="637.5"/>
	<line class="st19" x1="3597.5" y1="868" x2="3597.5" y2="637.5"/>
	<line class="st19" x1="3545.5" y1="1076.5" x2="3709.5" y2="1076.5"/>
	<line class="st19" x1="3542" y1="1048.5" x2="3601.5" y2="1048.5"/>
	<line class="st19" x1="3541.5" y1="670.5" x2="3597.5" y2="670.5"/>
	<line class="st19" x1="3593.5" y1="641.5" x2="3708.5" y2="641.5"/>
	<line class="st19" x1="3638.5" y1="645.5" x2="3638.5" y2="887.5"/>
	<line class="st19" x1="3664.5" y1="639" x2="3664.5" y2="749.5"/>
	<line class="st19" x1="3664.34" y1="775.35" x2="3664.5" y2="886.5"/>
	<line class="st19" x1="3637.5" y1="882.5" x2="3668.5" y2="882.5"/>
	<line class="st19" x1="3664.5" y1="757" x2="3664.5" y2="766.5"/>
	<line class="st19" x1="3562.5" y1="683.5" x2="3562.5" y2="727.5"/>
	<line class="st19" x1="3580.5" y1="683.5" x2="3580.5" y2="727.5"/>
	<line class="st19" x1="3558.5" y1="687.5" x2="3584.5" y2="687.5"/>
	<line class="st19" x1="3558" y1="723.5" x2="3584.5" y2="723.5"/>
	<line class="st19" x1="3563.17" y1="991.32" x2="3563.17" y2="1035.32"/>
	<line class="st19" x1="3581.17" y1="991.32" x2="3581.17" y2="1035.32"/>
	<line class="st19" x1="3559.17" y1="995.32" x2="3585.17" y2="995.32"/>
	<line class="st19" x1="3558.67" y1="1031.32" x2="3585.17" y2="1031.32"/>
	<line class="st19" x1="3571.5" y1="966" x2="3571.5" y2="982.5"/>
	<circle class="st19" cx="3651.5" cy="909.5" r="9"/>
	<circle class="st19" cx="3651.5" cy="1013.5" r="13"/>
	<g>
		<line class="st19" x1="3717" y1="957.5" x2="3833" y2="957.5"/>
		<line class="st19" x1="3868.5" y1="805.5" x2="3921.5" y2="1019.5"/>
		<line class="st19" x1="3872.5" y1="1044.5" x2="3923.5" y2="1016.5"/>
		<line class="st19" x1="3809.5" y1="958.5" x2="3877.5" y2="1044.5"/>
	</g>
	<g>
		<line class="st19" x1="3779" y1="777.5" x2="3765" y2="835.5"/>
		<line class="st19" x1="3769" y1="833.5" x2="3708" y2="833.5"/>
	</g>
	<g>
		<line class="st19" x1="3884.38" y1="781.23" x2="3808.38" y2="747.23"/>
		<line class="st19" x1="3871.79" y1="806.69" x2="3795.79" y2="772.69"/>
		<line class="st19" x1="3813.38" y1="746.23" x2="3799.38" y2="775.23"/>
		<line class="st19" x1="3881.79" y1="777.19" x2="3867.79" y2="806.19"/>
	</g>
	<g>
		<line class="st19" x1="3829.09" y1="956.13" x2="3870.09" y2="1009.13"/>
		<line class="st19" x1="3876.09" y1="1017.13" x2="3882.09" y2="1024.13"/>
	</g>
	<line class="st19" x1="3732" y1="850.5" x2="3751" y2="850.5"/>
	<g>
		<path class="st19" d="M3783.39,910.54c0.25,16.87-26.25,16.87-26,0C3757.14,893.67,3783.64,893.67,3783.39,910.54z"/>
		<path class="st19" d="M3800.11,910.21c0.56,38.05-59.21,38.05-58.65,0C3740.91,872.17,3800.67,872.17,3800.11,910.21z"/>
	</g>
	<path class="st19" d="M3825.5,818.5c0.17,11.68-18.17,11.68-18,0C3807.33,806.82,3825.67,806.82,3825.5,818.5z"/>
	<path class="st19" d="M3825.5,864.5c0.17,11.68-18.17,11.68-18,0C3807.33,852.82,3825.67,852.82,3825.5,864.5z"/>
	<path class="st19" d="M3848.5,841.5c0.17,11.68-18.17,11.68-18,0C3830.33,829.82,3848.67,829.82,3848.5,841.5z"/>
	<path class="st19" d="M3802.5,841.5c0.17,11.68-18.17,11.68-18,0C3784.33,829.82,3802.67,829.82,3802.5,841.5z"/>
	<path class="st19" d="M3705.5,958.5c-1.78,0.26-2.26-0.22-2-2C3705.28,956.24,3705.76,956.72,3705.5,958.5z"/>
	<line class="st19" x1="3704.5" y1="758.5" x2="3807.5" y2="758.5"/>
	<line class="st19" x1="3703" y1="775.5" x2="3806" y2="775.5"/>
	<path class="st19" d="M3722.5,806c0,1.17,0.02,9.21-6,12.5c-2.8,1.53-7.31,2.25-10,0c-0.92-0.77-1.98-2.18-2-12
		c-0.02-8.39,0.01-12.62,2-14c3.16-2.2,8.84-0.02,12,3C3722.48,799.3,3722.5,804.47,3722.5,806z"/>
</g>
<rect x="2406.5" y="1180.5" class="st19" width="286" height="343"/>
<line class="st20" x1="2442.5" y1="1219.5" x2="2657.5" y2="1219.5"/>
<line class="st20" x1="2442.5" y1="1261.5" x2="2657.5" y2="1261.5"/>
<rect x="2447.5" y="1298.5" class="st19" width="106" height="106"/>
<rect x="2588.5" y="1298.5" class="st19" width="8" height="106"/>
<rect x="2616.5" y="1298.5" class="st19" width="9" height="106"/>
<rect x="2645.5" y="1298.5" class="st19" width="8" height="106"/>
<line class="st19" x1="2447.5" y1="1437.5" x2="2526" y2="1437.5"/>
<line class="st19" x1="2538.5" y1="1437.5" x2="2586.5" y2="1437.5"/>
<line class="st19" x1="2600.5" y1="1437.5" x2="2631.5" y2="1437.5"/>
<line class="st19" x1="2641.5" y1="1437.5" x2="2657.5" y2="1437.5"/>
<line class="st19" x1="2447.5" y1="1454.5" x2="2600.5" y2="1454.5"/>
<line class="st19" x1="2610.5" y1="1454.5" x2="2657.5" y2="1454.5"/>
<line class="st19" x1="2447.5" y1="1475.5" x2="2498.5" y2="1475.5"/>
<line class="st19" x1="2509.5" y1="1475.5" x2="2600.5" y2="1475.5"/>
<line class="st19" x1="2610.5" y1="1475.5" x2="2657.5" y2="1475.5"/>
<line class="st19" x1="2447.5" y1="1493.5" x2="2657.5" y2="1493.5"/>
<line class="st19" x1="2405.5" y1="1180.5" x2="2423.5" y2="1158.5"/>
<line class="st19" x1="2689.53" y1="1180.55" x2="2707.53" y2="1158.55"/>
<line class="st19" x1="2692.53" y1="1523.55" x2="2710.53" y2="1501.55"/>
<path class="st19" d="M2721.5,1308.5"/>
<line class="st19" x1="2419.5" y1="1160.5" x2="2709.5" y2="1160.5"/>
<line class="st19" x1="2708.5" y1="1504.5" x2="2708.5" y2="1158.5"/>
<circle class="st19" cx="2500.5" cy="1351.5" r="38"/>
<line class="st19" x1="2464.5" y1="1339.5" x2="2533.5" y2="1339.5"/>
<line class="st19" x1="2464.5" y1="1362.5" x2="2533.5" y2="1362.5"/>
<ellipse class="st19" cx="2500.5" cy="1351.5" rx="13" ry="38"/>
<rect x="2804.47" y="1615.12" class="st19" width="286" height="343"/>
<line class="st19" x1="2803.47" y1="1615.12" x2="2821.47" y2="1593.12"/>
<line class="st19" x1="3087.51" y1="1615.17" x2="3105.51" y2="1593.17"/>
<line class="st19" x1="3090.51" y1="1958.17" x2="3108.51" y2="1936.17"/>
<path class="st19" d="M3119.47,1743.12"/>
<line class="st19" x1="2817.47" y1="1595.12" x2="3107.47" y2="1595.12"/>
<line class="st19" x1="3106.47" y1="1939.12" x2="3106.47" y2="1593.12"/>
<rect x="2817.5" y="1599.5" class="st21" width="283" height="13"/>
<rect x="3096.5" y="1609.5" class="st22" width="4" height="333"/>
<rect x="2803.5" y="1624.5" class="st22" width="278" height="324"/>
<g>
	<line class="st23" x1="2844.47" y1="1651.12" x2="3059.47" y2="1651.12"/>
	<line class="st23" x1="2844.47" y1="1693.12" x2="3059.47" y2="1693.12"/>
	<rect x="2849.47" y="1730.12" class="st15" width="106" height="106"/>
	<rect x="2990.47" y="1730.12" class="st15" width="8" height="106"/>
	<rect x="3018.47" y="1730.12" class="st15" width="9" height="106"/>
	<rect x="3047.47" y="1730.12" class="st15" width="8" height="106"/>
	<line class="st15" x1="2849.47" y1="1869.12" x2="2927.97" y2="1869.12"/>
	<line class="st15" x1="2940.47" y1="1869.12" x2="2988.47" y2="1869.12"/>
	<line class="st15" x1="3002.47" y1="1869.12" x2="3033.47" y2="1869.12"/>
	<line class="st15" x1="3043.47" y1="1869.12" x2="3059.47" y2="1869.12"/>
	<line class="st15" x1="2849.47" y1="1886.12" x2="3002.47" y2="1886.12"/>
	<line class="st15" x1="3012.47" y1="1886.12" x2="3059.47" y2="1886.12"/>
	<line class="st15" x1="2849.47" y1="1907.12" x2="2900.47" y2="1907.12"/>
	<line class="st15" x1="2911.47" y1="1907.12" x2="3002.47" y2="1907.12"/>
	<line class="st15" x1="3012.47" y1="1907.12" x2="3059.47" y2="1907.12"/>
	<line class="st15" x1="2849.47" y1="1925.12" x2="3059.47" y2="1925.12"/>
	<circle class="st15" cx="2902.47" cy="1783.12" r="38"/>
	<line class="st15" x1="2866.47" y1="1771.12" x2="2935.47" y2="1771.12"/>
	<line class="st15" x1="2866.47" y1="1794.12" x2="2935.47" y2="1794.12"/>
	<ellipse class="st15" cx="2902.47" cy="1783.12" rx="13" ry="38"/>
</g>
<path class="st19" d="M3309.68,1793.34L3309.68,1793.34c-22.41,23.27-59.44,23.97-82.72,1.56l0,0
	c-23.27-22.41-23.97-59.44-1.56-82.72l0,0c22.41-23.27,59.44-23.97,82.72-1.56v0C3331.39,1733.03,3332.09,1770.06,3309.68,1793.34z"
	/>
<rect x="3362.61" y="1802.21" transform="matrix(0.6936 -0.7203 0.7203 0.6936 -299.8413 2993.7412)" class="st19" width="13.55" height="94.28"/>
<line class="st19" x1="3308.5" y1="1790.5" x2="3333.5" y2="1814.5"/>
<line class="st19" x1="3229.5" y1="1724.5" x2="3270.76" y2="1724.5"/>
<line class="st19" x1="3275.92" y1="1724.5" x2="3305.5" y2="1724.5"/>
<line class="st19" x1="3229.5" y1="1737.39" x2="3254.43" y2="1737.39"/>
<line class="st19" x1="3257.87" y1="1737.39" x2="3306" y2="1737.39"/>
<line class="st19" x1="3229.5" y1="1750.29" x2="3272.48" y2="1750.29"/>
<line class="st19" x1="3306" y1="1750.29" x2="3292.25" y2="1750.29"/>
<line class="st19" x1="3229.5" y1="1762.32" x2="3266.46" y2="1762.32"/>
<line class="st19" x1="3269.9" y1="1762.32" x2="3306" y2="1762.32"/>
<line class="st19" x1="3229.5" y1="1776.5" x2="3305.5" y2="1776.5"/>
<line class="st19" x1="3290.1" y1="1750.29" x2="3276.35" y2="1750.29"/>
<polygon class="st24" points="3685.15,1623.24 3900.65,1996.5 3469.65,1996.5 "/>
<rect x="3681" y="1732" class="st24" width="8" height="177"/>
<rect x="3681.19" y="1949" class="st24" width="8" height="8.07"/>
<rect x="4264" y="1915" class="st25" width="50" height="50"/>
<rect x="4198" y="1977" class="st25" width="50" height="50"/>
<rect x="4132" y="1911" class="st25" width="50" height="50"/>
<rect x="4330" y="1849" class="st25" width="50" height="50"/>
<rect x="4000" y="1779" class="st25" width="50" height="50"/>
<rect x="4396" y="1783" class="st25" width="50" height="50"/>
<rect x="4000" y="1716" class="st25" width="50" height="50"/>
<rect x="4396" y="1720" class="st25" width="50" height="50"/>
<rect x="4066" y="1845" class="st25" width="50" height="50"/>
<rect x="4000" y="1653" class="st25" width="50" height="50"/>
<rect x="4396" y="1657" class="st25" width="50" height="50"/>
<rect x="4066" y="1589" class="st25" width="50" height="50"/>
<rect x="4330" y="1593" class="st25" width="50" height="50"/>
<rect x="4264" y="1593" class="st25" width="50" height="50"/>
<rect x="4132" y="1589" class="st25" width="50" height="50"/>
<rect x="4198" y="1653" class="st25" width="50" height="50"/>
<g>
	
		<rect x="4831.27" y="1504.5" transform="matrix(0.7071 -0.7071 0.7071 0.7071 293.7614 3995.5586)" class="st25" width="277.36" height="277.36"/>
	
		<rect x="5006.13" y="1673.52" transform="matrix(0.7071 -0.7071 0.7071 0.7071 221.3077 4170.1069)" class="st25" width="276.58" height="288.79"/>
	
		<rect x="5172.36" y="1521.82" transform="matrix(0.7071 -0.7071 0.7071 0.7071 381.4188 4241.8184)" class="st25" width="277.36" height="277.36"/>
</g>
<g>
	<rect x="4508" y="2242" class="st26" width="25" height="25"/>
	<rect x="4533" y="2217" class="st26" width="50" height="25"/>
	<rect x="4583" y="2242" class="st26" width="25" height="25"/>
	<rect x="4483" y="2267" class="st26" width="25" height="74"/>
	<rect x="4533" y="2366" class="st26" width="25" height="25"/>
	<rect x="4508" y="2341" class="st26" width="25" height="25"/>
	<rect x="4608" y="2267" class="st26" width="25" height="25"/>
	<rect x="4608" y="2441" class="st26" width="25" height="25"/>
	<g>
		<rect x="4558" y="2391" class="st26" width="25" height="25"/>
		<rect x="4583" y="2416" class="st26" width="25" height="25"/>
	</g>
	<rect x="4708" y="2242" transform="matrix(-1 -4.489266e-11 4.489266e-11 -1 9441 4509)" class="st26" width="25" height="25"/>
	<rect x="4658" y="2217" transform="matrix(-1 -4.489266e-11 4.489266e-11 -1 9366 4459)" class="st26" width="50" height="25"/>
	<rect x="4633" y="2242" transform="matrix(-1 -4.489266e-11 4.489266e-11 -1 9291 4509)" class="st26" width="25" height="25"/>
	<rect x="4733" y="2267" transform="matrix(-1 -4.489266e-11 4.489266e-11 -1 9491 4608)" class="st26" width="25" height="74"/>
	<rect x="4683" y="2366" transform="matrix(-1 -4.489266e-11 4.489266e-11 -1 9391 4757)" class="st26" width="25" height="25"/>
	<rect x="4708" y="2341" transform="matrix(-1 -4.489266e-11 4.489266e-11 -1 9441 4707)" class="st26" width="25" height="25"/>
	<g>
		<rect x="4658" y="2391" transform="matrix(-1 -4.489266e-11 4.489266e-11 -1 9341 4807)" class="st26" width="25" height="25"/>
		<rect x="4633" y="2416" transform="matrix(-1 -4.489266e-11 4.489266e-11 -1 9291 4857)" class="st26" width="25" height="25"/>
	</g>
</g>
<g>
	<rect x="4727.65" y="2621.46" class="st26" width="25" height="25"/>
	<rect x="4752.65" y="2596.46" class="st26" width="50" height="25"/>
	<rect x="4802.65" y="2621.46" class="st26" width="25" height="25"/>
	<rect x="4702.65" y="2646.46" class="st26" width="25" height="98.54"/>
	<rect x="4753" y="2770" class="st26" width="25" height="25"/>
	<rect x="4728" y="2745" class="st26" width="25" height="25"/>
	<rect x="4827.65" y="2646.46" class="st26" width="25" height="25"/>
	<rect x="4828" y="2845" class="st26" width="25" height="25"/>
	<g>
		<rect x="4778" y="2795" class="st26" width="25" height="25"/>
		<rect x="4803" y="2820" class="st26" width="25" height="25"/>
	</g>
	
		<rect x="4927.65" y="2621.46" transform="matrix(-1 -4.489266e-11 4.489266e-11 -1 9880.2979 5267.915)" class="st26" width="25" height="25"/>
	
		<rect x="4877.65" y="2596.46" transform="matrix(-1 -4.489266e-11 4.489266e-11 -1 9805.2979 5217.915)" class="st26" width="50" height="25"/>
	
		<rect x="4852.65" y="2621.46" transform="matrix(-1 -4.489266e-11 4.489266e-11 -1 9730.2979 5267.915)" class="st26" width="25" height="25"/>
	
		<rect x="4952.65" y="2646.46" transform="matrix(-1 -5.980828e-11 5.980828e-11 -1 9930.2979 5391.4575)" class="st26" width="25" height="98.54"/>
	<rect x="4903" y="2770" transform="matrix(-1 -4.489266e-11 4.489266e-11 -1 9831 5565)" class="st26" width="25" height="25"/>
	<rect x="4928" y="2745" transform="matrix(-1 -4.489266e-11 4.489266e-11 -1 9881 5515)" class="st26" width="25" height="25"/>
	<g>
		<rect x="4878" y="2795" transform="matrix(-1 -4.489266e-11 4.489266e-11 -1 9781 5615)" class="st26" width="25" height="25"/>
		<rect x="4853" y="2820" transform="matrix(-1 -4.489266e-11 4.489266e-11 -1 9731 5665)" class="st26" width="25" height="25"/>
	</g>
</g>
<g>
	<rect x="5164" y="2391" class="st26" width="285" height="247"/>
	<line class="st26" x1="5164" y1="2442" x2="5449" y2="2442"/>
	<g>
		<rect x="5215" y="2355" class="st27" width="30" height="64"/>
		<rect x="5368" y="2355" class="st28" width="30" height="64"/>
	</g>
	<g>
		<rect x="5215" y="2487" class="st28" width="37" height="37"/>
		<rect x="5250" y="2487" class="st26" width="37" height="37"/>
		<rect x="5287" y="2487" class="st26" width="37" height="37"/>
		<rect x="5324" y="2487" class="st26" width="37" height="37"/>
		<rect x="5361" y="2487" class="st26" width="37" height="37"/>
		<g>
			<rect x="5215" y="2524" class="st26" width="37" height="37"/>
			<rect x="5250" y="2524" class="st26" width="37" height="37"/>
			<rect x="5287" y="2524" class="st26" width="37" height="37"/>
			<rect x="5324" y="2524" class="st26" width="37" height="37"/>
			<rect x="5361" y="2524" class="st26" width="37" height="37"/>
		</g>
		<rect x="5215" y="2561" class="st26" width="37" height="37"/>
		<rect x="5250" y="2561" class="st26" width="37" height="37"/>
		<rect x="5287" y="2561" class="st26" width="37" height="37"/>
		<rect x="5324" y="2561" class="st26" width="37" height="37"/>
		<rect x="5361" y="2561" class="st28" width="37" height="37"/>
	</g>
</g>
<line class="st29" x1="2394.01" y1="960" x2="2393.51" y2="732.5"/>
<rect x="2469.87" y="708.04" transform="matrix(0.7071 -0.7071 0.7071 0.7071 143.3459 1988.799)" class="st30" width="5" height="226.65"/>
<rect x="2312.82" y="707.78" transform="matrix(-0.7071 -0.7071 0.7071 -0.7071 3371.8872 3038.894)" class="st30" width="5" height="226.65"/>
<rect x="2469.51" y="611.99" transform="matrix(0.7071 -0.7071 0.7071 0.7071 211.1563 1960.4185)" class="st30" width="5" height="226.65"/>
<rect x="2312.47" y="611.73" transform="matrix(-0.7071 -0.7071 0.7071 -0.7071 3439.1982 2874.6863)" class="st30" width="5" height="226.65"/>
<rect x="1535" y="613" class="st31" width="2" height="278"/>
<rect x="1520" y="540" class="st30" width="30" height="107"/>
<line class="st32" x1="1498" y1="889" x2="1497.5" y2="757.98"/>
<line class="st32" x1="1563.09" y1="786.15" x2="1563.09" y2="670.11"/>
<line class="st32" x1="1505" y1="752" x2="1505.09" y2="678.11"/>
<line class="st32" x1="1570.09" y1="901.15" x2="1570" y2="801"/>
<rect x="1510" y="531" class="st33" width="50" height="126"/>
<line class="st32" x1="1483.13" y1="818.21" x2="1483.13" y2="702.17"/>
<line class="st32" x1="1608" y1="483" x2="1569.78" y2="523.66"/>
<line class="st32" x1="1634" y1="531" x2="1574.9" y2="547.29"/>
<line class="st32" x1="1616.23" y1="684.43" x2="1571.34" y2="651.27"/>
<line class="st32" x1="1635" y1="635" x2="1574.86" y2="618.53"/>
<line class="st32" x1="1648" y1="584" x2="1577.89" y2="583.85"/>
<g>
	<line class="st32" x1="1460.07" y1="480.22" x2="1498.29" y2="520.88"/>
	<line class="st32" x1="1434.07" y1="528.22" x2="1493.17" y2="544.52"/>
	<line class="st32" x1="1451.83" y1="681.65" x2="1496.72" y2="648.5"/>
	<line class="st32" x1="1433.07" y1="632.22" x2="1493.2" y2="615.75"/>
	<line class="st32" x1="1420.07" y1="581.22" x2="1490.18" y2="581.08"/>
</g>
<line class="st32" x1="1582.02" y1="838.79" x2="1582.02" y2="722.75"/>
<rect x="1129" y="627" class="st31" width="2" height="278"/>
<rect x="1114.99" y="554.32" class="st30" width="30" height="107"/>
<line class="st32" x1="1092.99" y1="903.32" x2="1092.49" y2="772.3"/>
<line class="st32" x1="1158.07" y1="800.47" x2="1158.07" y2="684.43"/>
<line class="st32" x1="1099.99" y1="766.32" x2="1100.07" y2="692.43"/>
<line class="st32" x1="1165.07" y1="915.47" x2="1164.99" y2="815.32"/>
<rect x="1104.99" y="545.32" class="st33" width="50" height="126"/>
<line class="st32" x1="1073.12" y1="845.53" x2="1073.12" y2="729.5"/>
<line class="st32" x1="1183.01" y1="853.11" x2="1183.01" y2="737.07"/>
<line class="st32" x1="1081.62" y1="690.38" x2="1081.62" y2="574.34"/>
<line class="st32" x1="1203.62" y1="722.38" x2="1204" y2="618"/>
<line class="st32" x1="1176.43" y1="631.55" x2="1177" y2="548"/>
<line class="st32" x1="1501.99" y1="464.84" x2="1517.84" y2="518.35"/>
<line class="st32" x1="1570.84" y1="466.84" x2="1554.99" y2="520.35"/>
<g>
	<rect x="1045.5" y="1165.5" class="st34" width="89" height="89"/>
	<rect x="1182.5" y="1165.5" class="st34" width="89" height="89"/>
	<rect x="1182.5" y="1292.5" class="st34" width="89" height="89"/>
	<rect x="1045.5" y="1292.5" class="st34" width="89" height="89"/>
</g>
<rect x="10" y="397" class="st35" width="113" height="59.19"/>
<line class="st36" x1="45" y1="454" x2="22.49" y2="477.51"/>
<line class="st36" x1="22" y1="454" x2="22" y2="480"/>
<rect x="45" y="410.93" transform="matrix(-1 -5.327662e-11 5.327662e-11 -1 185.2234 881.0435)" class="st35" width="95.22" height="59.19"/>
<line class="st36" x1="105.22" y1="467.93" x2="127.73" y2="491.43"/>
<line class="st36" x1="128.22" y1="467.93" x2="128.22" y2="493.93"/>
<g>
	<g>
		<line class="st32" x1="7.94" y1="1626.37" x2="7.94" y2="1559.37"/>
		<g>
			<line class="st32" x1="3.94" y1="1563.37" x2="98.94" y2="1563.37"/>
			<line class="st32" x1="93.94" y1="1559.37" x2="93.94" y2="1627.37"/>
			<circle class="st32" cx="49.94" cy="1519.37" r="40"/>
		</g>
	</g>
	<g>
		<line class="st37" x1="46" y1="1646" x2="46" y2="1579"/>
		<g>
			<line class="st37" x1="42" y1="1583" x2="137" y2="1583"/>
			<line class="st37" x1="132" y1="1579" x2="132" y2="1647"/>
			<circle class="st37" cx="88" cy="1539" r="40"/>
		</g>
	</g>
</g>
<polygon class="st37" points="710,741 710,849.79 794,826.53 794,714.98 "/>
<polygon class="st37" points="705,741.34 705,850.13 621,826.87 621,715.32 "/>
<path class="st37" d="M907,287"/>
<polygon class="st38" points="757,284 757,320.26 790,338 825,322 825,284 791,267.49 "/>
<g>
	<polyline class="st38" points="757,284 790.5,297.5 825,284 	"/>
</g>
<line class="st39" x1="790.5" y1="297.5" x2="790.5" y2="337.5"/>
<line class="st39" x1="776.05" y1="275.43" x2="808.5" y2="290.5"/>
<g>
	<rect x="22" y="895" class="st40" width="122" height="84"/>
	<rect x="7" y="859" class="st40" width="151" height="36"/>
	<path class="st41" d="M161,859c-51.67,0-103.33,0-155,0c4.16-7.67,8.32-15.33,12.48-23c41.61,0,83.22,0,124.83,0
		C149.21,843.67,155.11,851.33,161,859z"/>
	<path class="st40" d="M174,831"/>
	<path class="st40" d="M187,842"/>
	<rect x="62" y="897" class="st41" width="41" height="19"/>
</g>
<line class="st42" x1="1180" y1="330" x2="1180" y2="449"/>
<line class="st42" x1="1287" y1="401" x2="1180" y2="449"/>
<line class="st42" x1="1073" y1="402" x2="1180" y2="449"/>
<line class="st42" x1="1073" y1="286" x2="1073" y2="402"/>
<line class="st42" x1="1287" y1="286" x2="1287" y2="401"/>
<line class="st42" x1="1073" y1="286" x2="1180" y2="333"/>
<line class="st42" x1="1287" y1="286" x2="1180" y2="333"/>
<line class="st42" x1="1180" y1="243" x2="1073" y2="286"/>
<line class="st42" x1="1287" y1="286" x2="1180" y2="243"/>
<g>
	<line class="st43" x1="67.5" y1="1771.5" x2="67.5" y2="1694.5"/>
	<line class="st43" x1="67.5" y1="1782" x2="67.5" y2="1795.5"/>
</g>
<g>
	<circle class="st44" cx="75.16" cy="2177.24" r="58.76"/>
	<line class="st44" x1="19.5" y1="2158.69" x2="126.18" y2="2158.69"/>
	<line class="st44" x1="19.5" y1="2194.25" x2="126.18" y2="2194.25"/>
	<ellipse class="st44" cx="75.16" cy="2177.24" rx="20.1" ry="58.76"/>
</g>
<g>
	<rect y="232" class="st45" width="140" height="75"/>
	<g>
		<line class="st45" x1="10.5" y1="247.5" x2="29.5" y2="247.5"/>
		<line class="st46" x1="10.5" y1="258.5" x2="125.5" y2="258.5"/>
		<line class="st46" x1="11" y1="271.5" x2="126" y2="271.5"/>
		<line class="st46" x1="11" y1="297.5" x2="126" y2="297.5"/>
		<line class="st46" x1="36.5" y1="272" x2="36.5" y2="297"/>
		<line class="st46" x1="99.5" y1="272" x2="99.5" y2="297"/>
		<g>
			<polygon class="st47" points="20.19,230 32.82,230 40.9,216 28.28,216 			"/>
			<polygon class="st47" points="96.66,216 84.75,216 76.66,230 88.58,230 			"/>
			<polygon class="st47" points="140.98,216 132.9,230 146.5,230 146.5,216 			"/>
			<polygon class="st47" points="68.9,216 56.75,216 48.66,230 60.82,230 			"/>
			<polygon class="st47" points="12.43,216 -6,216 -6,230 4.35,230 			"/>
			<polygon class="st47" points="125.13,216 112.51,216 104.43,230 117.05,230 			"/>
		</g>
		<g>
			<polygon class="st47" points="25.95,212.38 38.18,209.27 26.9,197.7 14.66,200.8 			"/>
			<polygon class="st47" points="135.18,184.62 145.21,182.07 141.76,168.5 123.9,173.04 			"/>
			<polygon class="st47" points="53.81,190.86 42.26,193.79 53.54,205.37 65.09,202.43 			"/>
			<polygon class="st47" points="-0.69,204.71 -6.04,206.07 -2.59,219.64 10.59,216.29 			"/>
			<polygon class="st47" points="108.54,176.95 96.3,180.06 107.59,191.63 119.82,188.53 			"/>
			<polygon class="st47" points="80.95,183.96 69.17,186.95 80.45,198.53 92.23,195.54 			"/>
		</g>
		<rect y="207" class="st47" width="19" height="18"/>
	</g>
</g>
<g>
	<rect x="11" y="27" class="st48" width="109" height="72"/>
	<rect x="11" y="10" class="st48" width="109" height="17"/>
	<polyline class="st48" points="27,40 47,60 27,80 	"/>
	<line class="st48" x1="58" y1="80" x2="105" y2="80"/>
</g>
<g>
	<rect x="5366" y="-224" width="1170" height="315"/>
	<text transform="matrix(1 0 0 1 5816.7021 -25.4043)" class="st0" style="font-family:'PixelFont-7'; font-size:113px;">Шапка</text>
</g>
<g>
	<rect x="5366" y="91" class="st49" width="1170" height="183"/>
	<text transform="matrix(1 0 0 1 5610.5742 213.6807)" style="font-family:'PixelFont-7'; font-size:113px;">Боковое меню</text>
</g>
<g>
	<rect x="5366" y="274" class="st50" width="1170" height="644"/>
	<text transform="matrix(1 0 0 1 5762.915 612.6172)" style="font-family:'PixelFont-7'; font-size:113px;">Контент</text>
</g>
<g>
	<rect x="5366" y="918" class="st51" width="1170" height="352"/>
	<text transform="matrix(1 0 0 1 5769.0215 1145.1699)" style="font-family:'PixelFont-7'; font-size:113px;">Подвал</text>
</g>
<line class="st52" x1="6622.5" y1="532.5" x2="7030.5" y2="532.5"/>
<g>
	<rect x="7382" y="-219" width="1170" height="315"/>
	<text transform="matrix(1 0 0 1 7832.7021 -20.4043)" class="st0" style="font-family:'PixelFont-7'; font-size:113px;">Шапка</text>
</g>
<g>
	
		<rect x="6797.5" y="500.5" transform="matrix(5.242391e-11 -1 1 5.242391e-11 6706.5 7890.4995)" class="st49" width="1002" height="183"/>
	
		<text transform="matrix(4.489659e-11 -0.8564 1 3.844990e-11 7329.6807 883.543)" style="font-family:'PixelFont-7'; font-size:113px;">Боковое меню</text>
</g>
<g>
	<rect x="7382" y="98" class="st50" width="1170" height="644"/>
	<text transform="matrix(1 0 0 1 7778.915 436.6172)" style="font-family:'PixelFont-7'; font-size:113px;">Контент</text>
</g>
<g>
	<rect x="7382" y="742" class="st51" width="1170" height="352"/>
	<text transform="matrix(1 0 0 1 7785.0215 969.1699)" style="font-family:'PixelFont-7'; font-size:113px;">Подвал</text>
</g>
<g>
	<rect x="988" y="1791" class="st53" width="113" height="132"/>
	<rect x="988" y="1713" class="st53" width="339" height="90"/>
	<rect x="1214" y="1791" class="st53" width="113" height="132"/>
	<polygon class="st53" points="988,1713 1157.5,1615.89 1324.66,1713 	"/>
	
		<rect x="915.7" y="1613.81" transform="matrix(0.866 -0.5 0.5 0.866 -673.572 742.8093)" class="st53" width="267.23" height="29"/>
	
		<rect x="1132.56" y="1613.44" transform="matrix(-0.866 -0.5 0.5 -0.866 1548.7377 3670.8555)" class="st53" width="267.23" height="29"/>
	<rect x="1280" y="1535" class="st53" width="48" height="116"/>
</g>
<rect x="1957.86" y="1187.65" class="st19" width="286" height="343"/>
<line class="st20" x1="1993.86" y1="1226.65" x2="2208.86" y2="1226.65"/>
<line class="st20" x1="1994" y1="1256" x2="2209" y2="1256"/>
<rect x="2142.5" y="1445.5" transform="matrix(4.502005e-11 -1 1 4.502005e-11 648 3645)" class="st19" width="8" height="106"/>
<rect x="2142" y="1417" transform="matrix(4.486906e-11 -1 1 4.486906e-11 676.5 3616.5)" class="st19" width="9" height="106"/>
<rect x="2142.5" y="1388.5" transform="matrix(4.479268e-11 -1 1 4.479268e-11 705 3588)" class="st19" width="8" height="106"/>
<line class="st19" x1="1993.85" y1="1339.65" x2="2072.35" y2="1339.66"/>
<line class="st19" x1="2084.86" y1="1339.65" x2="2132.86" y2="1339.65"/>
<line class="st19" x1="2146.86" y1="1339.65" x2="2177.86" y2="1339.65"/>
<line class="st19" x1="2187.86" y1="1339.65" x2="2203.86" y2="1339.65"/>
<line class="st19" x1="1993.86" y1="1356.65" x2="2146.86" y2="1356.65"/>
<line class="st19" x1="2156.86" y1="1356.65" x2="2203.86" y2="1356.65"/>
<line class="st19" x1="1993.86" y1="1377.65" x2="2044.86" y2="1377.65"/>
<line class="st19" x1="2055.86" y1="1377.65" x2="2146.86" y2="1377.65"/>
<line class="st19" x1="2156.86" y1="1377.65" x2="2203.86" y2="1377.65"/>
<line class="st19" x1="1993.86" y1="1395.65" x2="2203.86" y2="1395.65"/>
<line class="st19" x1="1956.86" y1="1187.65" x2="1974.86" y2="1165.65"/>
<line class="st19" x1="2240.89" y1="1187.71" x2="2258.89" y2="1165.71"/>
<line class="st19" x1="2243.89" y1="1530.71" x2="2261.89" y2="1508.71"/>
<path class="st19" d="M2272.86,1315.65"/>
<line class="st19" x1="1970.86" y1="1167.65" x2="2260.86" y2="1167.65"/>
<line class="st19" x1="2259.86" y1="1511.65" x2="2259.86" y2="1165.65"/>
<rect x="1994" y="1432" class="st53" width="51" height="74"/>
<line class="st20" x1="2070" y1="1289" x2="2209" y2="1289"/>
<rect x="1538.5" y="1185.5" class="st19" width="286" height="343"/>
<line class="st20" x1="1578.37" y1="1219.64" x2="1793.37" y2="1219.64"/>
<line class="st20" x1="1578.51" y1="1248.98" x2="1793.51" y2="1248.98"/>
<rect x="1727.01" y="1438.48" transform="matrix(4.502005e-11 -1 1 4.502005e-11 239.5272 3222.4907)" class="st19" width="8" height="106"/>
<rect x="1726.51" y="1409.98" transform="matrix(4.486906e-11 -1 1 4.486906e-11 268.0272 3193.9907)" class="st19" width="9" height="106"/>
<rect x="1727.01" y="1381.48" transform="matrix(4.479268e-11 -1 1 4.479268e-11 296.5272 3165.4907)" class="st19" width="8" height="106"/>
<line class="st19" x1="1578.36" y1="1332.63" x2="1656.86" y2="1332.64"/>
<line class="st19" x1="1669.37" y1="1332.64" x2="1717.37" y2="1332.64"/>
<line class="st19" x1="1731.37" y1="1332.64" x2="1762.37" y2="1332.64"/>
<line class="st19" x1="1772.37" y1="1332.64" x2="1788.37" y2="1332.64"/>
<line class="st19" x1="1578.37" y1="1349.64" x2="1731.37" y2="1349.64"/>
<line class="st19" x1="1741.37" y1="1349.64" x2="1788.37" y2="1349.64"/>
<line class="st19" x1="1578.37" y1="1370.64" x2="1629.37" y2="1370.64"/>
<line class="st19" x1="1640.37" y1="1370.64" x2="1731.37" y2="1370.64"/>
<line class="st19" x1="1741.37" y1="1370.64" x2="1788.37" y2="1370.64"/>
<line class="st19" x1="1578.37" y1="1388.64" x2="1788.37" y2="1388.64"/>
<rect x="1578.51" y="1424.98" class="st53" width="51" height="74"/>
<line class="st20" x1="1579" y1="1282" x2="1718" y2="1282"/>
<rect x="-123.4" y="-130.64" style="fill:none;" width="539.4" height="77.64"/>
<text transform="matrix(1 0 0 1 -123.4043 -62.8398)" style="font-family:'PixelFont-7'; font-size:113px;">Submenu</text>
<g>
	<line class="st54" x1="104" y1="741" x2="104" y2="674"/>
	<line class="st26" x1="100" y1="678" x2="195" y2="678"/>
	<line class="st26" x1="190" y1="674" x2="190" y2="742"/>
	<circle class="st26" cx="146" cy="634" r="40"/>
	<line class="st54" x1="-30" y1="740" x2="-30" y2="673"/>
	<line class="st26" x1="-34" y1="677" x2="61" y2="677"/>
	<line class="st26" x1="56" y1="673" x2="56" y2="741"/>
	<path class="st26" d="M53,628c1.46,24.76-18.26,45.17-41,45c-20.86-0.15-40-17.58-40-40c0-22.19,18.77-39.69,40-40
		C31.89,592.71,49.63,607.55,53,628z"/>
	<line class="st55" x1="26.93" y1="752.47" x2="26.93" y2="668.48"/>
	<line class="st55" x1="21.91" y1="673.5" x2="141" y2="673.5"/>
	<line class="st55" x1="134.73" y1="668.48" x2="134.73" y2="753.72"/>
	<circle class="st56" cx="79.58" cy="618.34" r="50.14"/>
</g>
<line class="st32" x1="2085" y1="2088" x2="2085" y2="1925"/>
<line class="st32" x1="1890" y1="1925" x2="2085" y2="1925"/>
<g>
	<polyline class="st32" points="171,1157 171,1048.17 2.49,1048.17 -47,1073 -47,1348 81.13,1348 	"/>
	<polyline class="st32" points="-0.57,1348 -1,1372 199.6,1372 199.6,1307.57 	"/>
	<polyline class="st32" points="199.6,1120.68 199.6,1075.74 171,1075.74 	"/>
	<polyline class="st32" points="2,1048 2,1073 -47.49,1072.83 	"/>
	<line class="st32" x1="-13" y1="1128" x2="147" y2="1128"/>
	<line class="st32" x1="-13" y1="1154" x2="147" y2="1154"/>
	<line class="st32" x1="-13" y1="1181" x2="147" y2="1181"/>
	<line class="st32" x1="-13" y1="1208" x2="147" y2="1208"/>
	<line class="st32" x1="-13" y1="1235" x2="147" y2="1235"/>
	<line class="st32" x1="-13" y1="1262" x2="147" y2="1262"/>
	<g>
		
			<rect x="153.93" y="1209.34" transform="matrix(-0.9247 -0.3808 0.3808 -0.9247 -169.737 2525.1047)" class="st32" width="22" height="140"/>
		<path class="st57" d="M147.03,1350.38l-16.17,17.36c-1.46,1.49-3.99,0.45-3.99-1.64l0.74-23.71"/>
		
			<rect x="178.13" y="1200.72" transform="matrix(-0.9247 -0.3808 0.3808 -0.9247 -85.1055 2397.6028)" class="st58" width="33" height="13"/>
		<path class="st41" d="M190.13,1185.34l23.12,9.52c1.02,0.42,1.51,1.59,1.09,2.61l-2.68,6.5c-0.42,1.02-1.59,1.51-2.61,1.09
			l-23.12-9.52c-1.02-0.42-1.51-1.59-1.09-2.61l2.68-6.5C187.94,1185.41,189.11,1184.92,190.13,1185.34z"/>
	</g>
</g>
<g>
	<polyline class="st59" points="33.5,1901.65 33.5,1872.5 101.27,1872.5 101.27,1901.65 101.27,1917.84 67.39,1917.84 
		67.39,1945.51 67.39,1947.72 67.39,1950.2 67.39,1952.68 	"/>
	<rect x="59.03" y="1964.81" class="st60" width="16.19" height="16.19"/>
</g>
</svg>
