<?xml version="1.0" encoding="utf-8"?>
<!-- Generator: Adobe Illustrator 25.4.1, SVG Export Plug-In . SVG Version: 6.00 Build 0)  -->
<svg version="1.1" id="Слой_1" xmlns="http://www.w3.org/2000/svg" xmlns:xlink="http://www.w3.org/1999/xlink" x="0px" y="0px"
	 viewBox="0 0 118 138" style="enable-background:new 0 0 118 138;" xml:space="preserve">
<style type="text/css">
	.st0{fill:#FFFFFF;}
	.st1{fill:none;stroke:#000000;stroke-width:9;stroke-miterlimit:10;}
	.st2{fill:none;stroke:#000000;stroke-width:5;stroke-miterlimit:10;}
	.st3{fill:#FFFFFF;stroke:#000000;stroke-width:9;stroke-miterlimit:10;}
	.st4{fill:none;stroke:#000000;stroke-width:7;stroke-miterlimit:10;}
	.st5{stroke:#000000;stroke-width:3;stroke-miterlimit:10;}
	.st6{fill:#FFFFFF;stroke:#000000;stroke-width:4;stroke-miterlimit:10;}
	.st7{stroke:#000000;stroke-width:2;stroke-miterlimit:10;}
	.st8{fill:#FFFFFF;stroke:#000000;stroke-width:2;stroke-miterlimit:10;}
	.st9{stroke:#000000;stroke-miterlimit:10;}
	.st10{fill:none;stroke:#000000;stroke-miterlimit:10;}
	.st11{fill:#FFFFFF;stroke:#000000;stroke-miterlimit:10;}
	.st12{stroke:#FFFFFF;stroke-width:9;stroke-miterlimit:10;}
	.st13{fill:none;stroke:#FFFFFF;stroke-width:7;stroke-miterlimit:10;}
	.st14{fill:#FFFFFF;stroke:#FFFFFF;stroke-width:3;stroke-miterlimit:10;}
	.st15{fill:none;stroke:#FFFFFF;stroke-width:9;stroke-miterlimit:10;}
	.st16{fill:none;stroke:#FFFFFF;stroke-width:5;stroke-miterlimit:10;}
	.st17{fill:#FFFFFF;stroke:#FFFFFF;stroke-width:6;stroke-miterlimit:10;}
	.st18{fill:none;stroke:#FFFFFF;stroke-width:6;stroke-miterlimit:10;}
	.st19{fill:none;stroke:#00FFF0;stroke-width:9;stroke-miterlimit:10;}
	.st20{fill:none;stroke:#00FFF0;stroke-width:20;stroke-miterlimit:10;}
	.st21{fill:#00FFF0;stroke:#00FFFF;stroke-width:9;stroke-miterlimit:10;}
	.st22{fill:#00FFF0;stroke:#00FFF0;stroke-width:9;stroke-miterlimit:10;}
	.st23{fill:none;stroke:#FFFFFF;stroke-width:20;stroke-miterlimit:10;}
	.st24{fill:none;stroke:#FF433F;stroke-width:16;stroke-miterlimit:10;}
	.st25{fill:#FF433F;stroke:#FF433F;stroke-width:16;stroke-miterlimit:10;}
	.st26{fill:none;stroke:#00FFF0;stroke-width:10;stroke-miterlimit:10;}
	.st27{fill:#00FFFF;stroke:#00FFFF;stroke-width:10;stroke-miterlimit:10;}
	.st28{fill:#00FFF0;stroke:#00FFF0;stroke-width:10;stroke-miterlimit:10;}
	.st29{fill:none;stroke:#00FFFF;stroke-width:32;stroke-miterlimit:10;}
	.st30{fill:none;stroke:#00FFFF;stroke-width:30;stroke-miterlimit:10;}
	.st31{fill:none;stroke:#00FFFF;stroke-width:20;stroke-miterlimit:10;}
	.st32{fill:none;stroke:#00FFFF;stroke-width:10;stroke-miterlimit:10;}
	.st33{fill:#FFFFFF;stroke:#00FFFF;stroke-width:13;stroke-miterlimit:10;}
	.st34{fill:#00FFFF;stroke:#00FFFF;stroke-width:15;stroke-miterlimit:10;}
	.st35{fill:#FFFFFF;stroke:#000000;stroke-width:8;stroke-miterlimit:10;}
	.st36{fill:none;stroke:#000000;stroke-width:10;stroke-miterlimit:10;}
	.st37{fill:#FFFFFF;stroke:#000000;stroke-width:10;stroke-miterlimit:10;}
	.st38{fill:#FFFFFF;stroke:#00FFFF;stroke-width:10;stroke-miterlimit:10;}
	.st39{fill:#FFFFFF;stroke:#00FFFF;stroke-width:5;stroke-miterlimit:10;}
	.st40{fill:none;stroke:#00FFFF;stroke-width:5;stroke-miterlimit:10;}
	.st41{fill:none;stroke:#000000;stroke-width:6;stroke-miterlimit:10;}
	.st42{fill:none;stroke:#000000;stroke-width:4;stroke-miterlimit:10;}
	.st43{fill:#00FFFF;stroke:#00FFFF;stroke-width:13;stroke-miterlimit:10;}
	.st44{fill:none;stroke:#000000;stroke-width:13;stroke-miterlimit:10;}
	.st45{fill:none;stroke:#000000;stroke-width:12;stroke-miterlimit:10;}
	.st46{stroke:#000000;stroke-width:5;stroke-miterlimit:10;}
	.st47{stroke:#000000;stroke-width:6;stroke-miterlimit:10;}
	.st48{fill:#00F4FF;}
	.st49{fill:#FF3435;}
	.st50{fill:#F26900;}
	.st51{fill:none;stroke:#000000;stroke-width:23;stroke-miterlimit:10;}
	.st52{fill:#00FFF0;}
	.st53{fill:none;stroke:#000000;stroke-width:15;stroke-miterlimit:10;}
	.st54{fill:#FFFFFF;stroke:#000000;stroke-width:15;stroke-miterlimit:10;}
	.st55{fill:none;stroke:#000000;stroke-width:11;stroke-miterlimit:10;}
	.st56{fill:none;stroke:#000000;stroke-width:17;stroke-miterlimit:10;}
	.st57{stroke:#000000;stroke-width:7;stroke-miterlimit:10;}
</style>
<g>
	<g>
		<rect x="1565.5" y="-2248.5" class="st0" width="309" height="137"/>
		<path d="M1870-2244v128h-300v-128H1870 M1879-2253h-318v146h318V-2253L1879-2253z"/>
	</g>
	<g>
		<line class="st1" x1="1720.5" y1="-2109" x2="1720.5" y2="-2068"/>
	</g>
	<line class="st2" x1="1646.5" y1="-2068.5" x2="1798" y2="-2068.5"/>
</g>
<g>
	<rect x="1423.92" y="-2219.07" class="st0" width="2.98" height="9.71"/>
	<rect x="1423.92" y="-2209.36" class="st0" width="12.89" height="2.65"/>
	<rect x="1433.84" y="-2219.07" class="st0" width="2.98" height="9.71"/>
	<rect x="1433.84" y="-2206.71" class="st0" width="2.98" height="9.71"/>
	<rect x="1442.76" y="-2219.07" class="st0" width="2.98" height="9.71"/>
	<rect x="1442.76" y="-2209.36" class="st0" width="12.89" height="2.65"/>
	<rect x="1452.68" y="-2219.07" class="st0" width="2.98" height="9.71"/>
	<rect x="1452.68" y="-2206.71" class="st0" width="2.98" height="9.71"/>
	<rect x="1414" y="-2219.07" class="st0" width="2.98" height="22.07"/>
	<rect x="1470.53" y="-2219.07" class="st0" width="2.98" height="22.07"/>
	<rect x="1471.52" y="-2219.07" class="st0" width="12.89" height="1.77"/>
	<rect x="1483.42" y="-2217.3" class="st0" width="0.99" height="0"/>
	<rect x="1471.52" y="-2209.36" class="st0" width="12.89" height="1.77"/>
	<rect x="1487.39" y="-2219.07" class="st0" width="2.98" height="22.07"/>
	<rect x="1488.38" y="-2219.07" class="st0" width="12.89" height="1.77"/>
	<rect x="1500.28" y="-2217.3" class="st0" width="0.99" height="0"/>
	<rect x="1488.38" y="-2209.36" class="st0" width="12.89" height="1.77"/>
	<rect x="1498.3" y="-2219.07" class="st0" width="2.98" height="11.48"/>
	<rect x="1505.24" y="-2219.07" class="st0" width="2.98" height="11.48"/>
	<rect x="1506.23" y="-2219.07" class="st0" width="12.89" height="1.77"/>
	<rect x="1518.14" y="-2217.3" class="st0" width="0.99" height="0"/>
	<rect x="1506.23" y="-2209.36" class="st0" width="12.89" height="1.77"/>
	<rect x="1516.15" y="-2207.59" class="st0" width="2.98" height="10.59"/>
	<rect x="1505.24" y="-2198.76" class="st0" width="12.89" height="1.77"/>
	<rect x="1915.83" y="-2310" width="1064.17" height="211"/>
</g>
<g>
	<rect x="1412.5" y="-2173.87" class="st3" width="88.33" height="197.25"/>
	<line class="st4" x1="1502.45" y1="-1975" x2="1552.31" y2="-1996.68"/>
	<line class="st4" x1="1503.54" y1="-2175.5" x2="1552.31" y2="-2159.24"/>
	<line class="st4" x1="1550.14" y1="-2162.49" x2="1550.14" y2="-1993.42"/>
	
		<rect x="1500.92" y="-2008.09" transform="matrix(0.934 -0.3573 0.3573 0.934 814.7858 413.0504)" class="st5" width="48.77" height="18.82"/>
	
		<rect x="1502.41" y="-2016.64" transform="matrix(0.9881 -0.1538 0.1538 0.9881 327.3331 210.6671)" class="st5" width="46.19" height="11.92"/>
	
		<rect x="1502.4" y="-2167.75" transform="matrix(0.9487 0.3162 -0.3162 0.9487 -606.0096 -593.5162)" class="st5" width="46.61" height="7.59"/>
	<rect x="1505.71" y="-2064.95" class="st5" width="42.27" height="9.75"/>
	<rect x="1541.47" y="-2132.15" class="st5" width="5.42" height="31.43"/>
	<rect x="1467.77" y="-2154.91" class="st5" width="10.84" height="45.52"/>
	<rect x="1505.71" y="-2164.66" class="st5" width="29.58" height="89"/>
	<rect x="1504.62" y="-2048.7" class="st5" width="42.27" height="9.75"/>
	<rect x="1422.25" y="-2161.41" class="st5" width="2.17" height="7.59"/>
	<rect x="1422.25" y="-2148.41" class="st5" width="2.17" height="7.59"/>
</g>
<g>
	<rect x="1855" y="-2023" class="st6" width="25" height="39"/>
	<rect x="1865" y="-2017" class="st7" width="5" height="12"/>
	<rect x="1856" y="-2022" class="st8" width="5" height="13"/>
	<rect x="1874" y="-2022" class="st8" width="5" height="13"/>
	<rect x="1853" y="-2008" class="st6" width="1" height="6"/>
	<rect x="1853" y="-1997" class="st6" width="1" height="6"/>
</g>
<g>
	<rect x="1711" y="-2054" width="4" height="13"/>
	<rect x="1867" y="-2050" width="3" height="25"/>
	<rect x="1547" y="-2054" width="323" height="4"/>
	<rect x="1623" y="-2112" width="4" height="59"/>
</g>
<g>
	<rect x="1581.5" y="-2038.5" class="st2" width="258" height="74"/>
	<rect x="1596" y="-1981" width="34" height="8"/>
	<rect x="1642" y="-1981" width="134" height="8"/>
	<rect x="1785" y="-1981" width="34" height="8"/>
	<g>
		<rect x="1599.5" y="-2026.5" class="st2" width="11" height="4"/>
		<rect x="1619.5" y="-2026.5" class="st2" width="11" height="4"/>
		<rect x="1599.5" y="-2014.5" class="st2" width="11" height="4"/>
		<rect x="1619.5" y="-2014.5" class="st2" width="11" height="4"/>
		<rect x="1599.5" y="-2002.5" class="st2" width="11" height="4"/>
		<rect x="1619.5" y="-2002.5" class="st2" width="11" height="4"/>
	</g>
	<g>
		<rect x="1786.5" y="-2026.5" class="st2" width="11" height="4"/>
		<rect x="1806.5" y="-2026.5" class="st2" width="11" height="4"/>
		<rect x="1786.5" y="-2014.5" class="st2" width="11" height="4"/>
		<rect x="1806.5" y="-2014.5" class="st2" width="11" height="4"/>
		<rect x="1786.5" y="-2002.5" class="st2" width="11" height="4"/>
		<rect x="1806.5" y="-2002.5" class="st2" width="11" height="4"/>
	</g>
	<g>
		<rect x="1644.5" y="-2026.5" class="st2" width="11" height="4"/>
		<rect x="1664.5" y="-2026.5" class="st2" width="11" height="4"/>
		<rect x="1644.5" y="-2014.5" class="st2" width="11" height="4"/>
		<rect x="1664.5" y="-2014.5" class="st2" width="11" height="4"/>
		<rect x="1644.5" y="-2002.5" class="st2" width="11" height="4"/>
		<rect x="1664.5" y="-2002.5" class="st2" width="11" height="4"/>
		<rect x="1683.5" y="-2026.5" class="st2" width="11" height="4"/>
		<rect x="1703.5" y="-2026.5" class="st2" width="11" height="4"/>
		<rect x="1683.5" y="-2014.5" class="st2" width="11" height="4"/>
		<rect x="1703.5" y="-2014.5" class="st2" width="11" height="4"/>
		<rect x="1683.5" y="-2002.5" class="st2" width="11" height="4"/>
		<rect x="1703.5" y="-2002.5" class="st2" width="11" height="4"/>
		<rect x="1722.5" y="-2026.5" class="st2" width="11" height="4"/>
		<rect x="1742.5" y="-2026.5" class="st2" width="11" height="4"/>
		<rect x="1722.5" y="-2014.5" class="st2" width="11" height="4"/>
		<rect x="1742.5" y="-2014.5" class="st2" width="11" height="4"/>
		<rect x="1722.5" y="-2002.5" class="st2" width="11" height="4"/>
		<rect x="1742.5" y="-2002.5" class="st2" width="11" height="4"/>
		<rect x="1762.5" y="-2026.5" class="st2" width="11" height="4"/>
		<rect x="1762.5" y="-2014.5" class="st2" width="11" height="4"/>
		<rect x="1762.5" y="-2002.5" class="st2" width="11" height="4"/>
	</g>
</g>
<rect x="1790.5" y="-2160.5" transform="matrix(6.123234e-17 -1 1 6.123234e-17 3922 -333)" class="st9" width="8" height="66"/>
<rect x="1575" y="-2237" width="15" height="15"/>
<rect x="1595" y="-2237" width="2" height="15"/>
<rect x="1595" y="-2237" width="7" height="2"/>
<rect x="1595" y="-2231" width="7" height="2"/>
<rect x="1602" y="-2237" width="2" height="8"/>
<rect x="1606" y="-2237" width="2" height="15"/>
<rect x="1608" y="-2224" width="7" height="2"/>
<rect x="1608" y="-2230" width="7" height="2"/>
<rect x="1608" y="-2237" width="7" height="2"/>
<rect x="1617" y="-2237" width="2" height="15"/>
<rect x="1619" y="-2224" width="7" height="2"/>
<rect x="1619" y="-2237" width="7" height="2"/>
<rect x="1673.5" y="-2202.5" class="st9" width="45" height="45"/>
<line class="st10" x1="1718.5" y1="-2157.5" x2="1729.5" y2="-2164.5"/>
<line class="st10" x1="1717.5" y1="-2201.5" x2="1729.9" y2="-2208.76"/>
<line class="st10" x1="1673.5" y1="-2202.5" x2="1684.5" y2="-2208.5"/>
<line class="st10" x1="1684" y1="-2208.5" x2="1729" y2="-2208.5"/>
<line class="st10" x1="1729.5" y1="-2164" x2="1729.5" y2="-2209"/>
<line class="st10" x1="1715.2" y1="-2182.63" x2="1727.61" y2="-2189.88"/>
<rect x="1683.5" y="-2207.5" class="st9" width="46" height="43"/>
<rect x="1723.5" y="-2201.5" class="st9" width="2" height="1"/>
<rect x="1716.46" y="-2165.65" transform="matrix(0.8632 -0.5049 0.5049 0.8632 1327.693 573.3374)" class="st9" width="10.58" height="5"/>
<rect x="1709.5" y="-2173.5" class="st9" width="13" height="6"/>
<rect x="1675.18" y="-2205.1" transform="matrix(0.8632 -0.5049 0.5049 0.8632 1341.9628 547.0979)" class="st9" width="10.58" height="5"/>
<rect x="1673.5" y="-2157.5" class="st9" width="1" height="43"/>
<rect x="1797" y="-2281" transform="matrix(6.123234e-17 -1 1 6.123234e-17 4005.5 -410.5)" class="st9" width="1" height="146"/>
<rect x="1600" y="-2231" width="2" height="4"/>
<rect x="1602" y="-2227" width="2" height="5"/>
<g>
	<rect x="1579.5" y="-2134.5" class="st9" width="1" height="14"/>
	<rect x="1586" y="-2128" transform="matrix(6.123234e-17 -1 1 6.123234e-17 3707.5 -534.5)" class="st9" width="1" height="14"/>
</g>
<g>
	
		<rect x="1850" y="-2128" transform="matrix(-3.267951e-07 -1 1 -3.267951e-07 3971.5005 -270.5007)" class="st9" width="1" height="14"/>
	
		<rect x="1856.5" y="-2134.5" transform="matrix(-1 3.267942e-07 -3.267942e-07 -1 3713.9993 -4255.0005)" class="st9" width="1" height="14"/>
</g>
<g>
	
		<rect x="1856.5" y="-2237.5" transform="matrix(-1 3.267960e-07 -3.267960e-07 -1 3713.9993 -4461.0005)" class="st9" width="1" height="14"/>
	
		<rect x="1850" y="-2244" transform="matrix(3.267942e-07 1 -1 3.267942e-07 -386.5006 -4087.4993)" class="st9" width="1" height="14"/>
</g>
<g>
	<rect x="1589.5" y="-2202.5" class="st9" width="24" height="3"/>
	<rect x="1616.5" y="-2202.5" class="st9" width="24" height="3"/>
	<rect x="1589.5" y="-2196.5" class="st9" width="13" height="3"/>
	<rect x="1605.5" y="-2196.5" class="st9" width="35" height="3"/>
	<rect x="1626.5" y="-2190.5" class="st9" width="14" height="3"/>
	<rect x="1589.5" y="-2184.5" class="st9" width="24" height="3"/>
	<rect x="1594.5" y="-2190.5" class="st9" width="30" height="3"/>
	<rect x="1589.5" y="-2190.5" class="st9" width="3" height="3"/>
	<rect x="1616.5" y="-2184.5" class="st9" width="3" height="3"/>
	<rect x="1622.5" y="-2184.5" class="st9" width="3" height="3"/>
	<rect x="1628.5" y="-2184.5" class="st9" width="12" height="3"/>
</g>
<rect x="1611" y="-2197" transform="matrix(6.123234e-17 -1 1 6.123234e-17 3786.5 -556.5)" class="st9" width="8" height="51"/>
<rect x="1751.5" y="-2196.5" class="st9" width="84" height="3"/>
<rect x="1751.5" y="-2195.5" class="st9" width="0" height="33"/>
<rect x="1835.5" y="-2195.06" class="st9" width="0" height="32.56"/>
<rect x="1751.5" y="-2163.5" class="st9" width="84" height="1"/>
<rect x="1828.5" y="-2196.5" class="st11" width="3" height="3"/>
<rect x="1825.5" y="-2195.5" class="st11" width="3" height="2"/>
<rect x="1820.5" y="-2177.5" transform="matrix(6.123234e-17 -1 1 6.123234e-17 3988 -346)" class="st9" width="1" height="21"/>
<rect x="1755.5" y="-2181.5" class="st9" width="1" height="15"/>
<g>
	<rect x="1944.86" y="-2303.02" class="st12" width="88.33" height="197.25"/>
	<line class="st13" x1="2034.81" y1="-2104.14" x2="2084.67" y2="-2125.82"/>
	<line class="st13" x1="2035.9" y1="-2304.64" x2="2084.67" y2="-2288.38"/>
	<line class="st13" x1="2082.5" y1="-2291.64" x2="2082.5" y2="-2122.57"/>
	
		<rect x="2033.28" y="-2137.23" transform="matrix(0.934 -0.3573 0.3573 0.934 896.0656 594.7329)" class="st14" width="48.77" height="18.82"/>
	
		<rect x="2034.77" y="-2145.79" transform="matrix(0.9881 -0.1538 0.1538 0.9881 353.5233 290.9939)" class="st14" width="46.19" height="11.92"/>
	
		<rect x="2034.76" y="-2296.89" transform="matrix(0.9487 0.3162 -0.3162 0.9487 -619.5287 -768.4907)" class="st14" width="46.61" height="7.59"/>
	<rect x="2038.07" y="-2194.1" class="st14" width="42.27" height="9.75"/>
	<rect x="2073.83" y="-2261.29" class="st14" width="5.42" height="31.43"/>
	<rect x="2000.13" y="-2284.05" class="st14" width="10.84" height="45.52"/>
	<rect x="2038.07" y="-2293.8" class="st14" width="29.58" height="89"/>
	<rect x="2036.98" y="-2177.84" class="st14" width="42.27" height="9.75"/>
	<rect x="1954.61" y="-2290.55" class="st14" width="2.17" height="7.59"/>
	<rect x="1954.61" y="-2277.55" class="st14" width="2.17" height="7.59"/>
</g>
<g>
	<g>
		<rect x="2102.76" y="-2286.5" width="309" height="137"/>
		<path class="st0" d="M2407.26-2282v128h-300v-128H2407.26 M2416.26-2291h-318v146h318V-2291L2416.26-2291z"/>
	</g>
	<g>
		<line class="st15" x1="2257.76" y1="-2147" x2="2257.76" y2="-2106"/>
	</g>
	<line class="st16" x1="2183.76" y1="-2106.5" x2="2335.26" y2="-2106.5"/>
</g>
<g>
	<path class="st0" d="M2121.99-2245.18h5.65v-5.65h50.85v11.3h-45.2v45.2h45.2v11.3h-50.85v-5.65h-5.65V-2245.18z"/>
	<path class="st0" d="M2189.79-2239.53h11.3v33.9h22.6v-33.9h11.3v62.15h-5.65v5.65h-33.9v-11.3h28.25v-11.3h-28.25v-5.65h-5.65
		V-2239.53z"/>
	<path class="st0" d="M2246.29-2250.83h11.3v16.95h28.25v5.65h5.65v39.55h-5.65v5.65h-39.55V-2250.83z M2257.59-2194.33h22.6v-28.25
		h-22.6V-2194.33z"/>
	<path class="st0" d="M2302.79-2233.88h5.65v-5.65h33.9v5.65h5.65v28.25h-33.9v11.3h28.25v11.3h-33.9v-5.65h-5.65V-2233.88z
		 M2314.09-2216.93h22.6v-11.3h-22.6V-2216.93z"/>
	<path class="st0" d="M2359.29-2239.53h11.3v5.65h5.65v-5.65h22.6v5.65h5.65v11.3h-11.3v-5.65h-16.95v5.65h-5.65v39.55h-11.3
		V-2239.53z"/>
</g>
<rect x="2980" y="-2309" class="st0" width="764.9" height="209.66"/>
<text transform="matrix(1.2222 0 0 1 3000 -2146.5195)" style="font-family:'Roboto-Regular'; font-size:186.4234px;">Games</text>
<g>
	<path class="st0" d="M2449.11-2264.54h18.43v73.73h18.43v-36.87h18.43v36.87h18.43v-73.73h18.43v82.95h-9.22v9.22h-9.22v18.43
		h-18.43v-18.43h-18.43v18.43h-18.43v-18.43h-9.22v-9.22h-9.22V-2264.54z"/>
	<path class="st0" d="M2559.7-2236.89h9.22v-9.22h55.3v9.22h9.22v73.73h-9.22v9.22h-55.3v-9.22h-9.22V-2236.89z M2578.13-2172.38
		H2615v-55.3h-36.87V-2172.38z"/>
	<path class="st0" d="M2651.86-2246.11h18.43v9.22h9.22v-9.22h36.86v9.22h9.22v18.43h-18.43v-9.22h-27.65v9.22h-9.22v64.51h-18.43
		V-2246.11z"/>
	<path class="st0" d="M2744.03-2264.54h18.43v110.59h-18.43V-2264.54z"/>
	<path class="st0" d="M2780.89-2227.68h9.22v-9.22h46.08v-27.65h18.43v110.59h-64.51v-9.22h-9.22V-2227.68z M2799.32-2172.38h36.87
		v-46.08h-36.87V-2172.38z"/>
	<path class="st0" d="M2873.05-2236.89h9.22v-9.22h64.51v18.43h-55.3v18.43h46.08v9.22h9.22v36.87h-9.22v9.22h-64.51v-18.43h55.3
		v-18.43h-46.08v-9.22h-9.22V-2236.89z"/>
</g>
<g>
	<rect x="1946.91" y="-2077.68" class="st3" width="88.33" height="197.25"/>
	<line class="st4" x1="2036.86" y1="-1878.81" x2="2086.72" y2="-1900.49"/>
	<line class="st4" x1="2037.95" y1="-2079.31" x2="2086.72" y2="-2063.05"/>
	<line class="st4" x1="2084.55" y1="-2066.3" x2="2084.55" y2="-1897.23"/>
	
		<rect x="2035.33" y="-1911.9" transform="matrix(0.934 -0.3573 0.3573 0.934 815.6923 610.3381)" class="st5" width="48.77" height="18.82"/>
	
		<rect x="2036.82" y="-1920.45" transform="matrix(0.9881 -0.1538 0.1538 0.9881 318.8977 293.989)" class="st5" width="46.19" height="11.92"/>
	
		<rect x="2036.81" y="-2071.56" transform="matrix(0.9487 0.3162 -0.3162 0.9487 -548.1673 -757.5753)" class="st5" width="46.61" height="7.59"/>
	<rect x="2040.12" y="-1968.76" class="st5" width="42.27" height="9.75"/>
	<rect x="2075.88" y="-2035.96" class="st5" width="5.42" height="31.43"/>
	<rect x="2002.18" y="-2058.72" class="st5" width="10.84" height="45.52"/>
	<rect x="2040.11" y="-2068.47" class="st5" width="29.58" height="89"/>
	<rect x="2039.03" y="-1952.51" class="st5" width="42.27" height="9.75"/>
	<rect x="1956.66" y="-2065.22" class="st5" width="2.17" height="7.59"/>
	<rect x="1956.66" y="-2052.21" class="st5" width="2.17" height="7.59"/>
</g>
<g>
	<g>
		<path d="M2437.3-2066v136.94h-300V-2066H2437.3 M2446.3-2075h-318v154.94h318V-2075L2446.3-2075z"/>
	</g>
	<g>
		<line class="st1" x1="2287.8" y1="-1922.18" x2="2287.8" y2="-1878.67"/>
	</g>
	<line class="st2" x1="2213.8" y1="-1879.2" x2="2365.3" y2="-1879.2"/>
</g>
<g>
	<rect x="3189" y="-2074" width="713" height="204.76"/>
	<g>
		<g>
			<path class="st0" d="M3370.96-1913.2h-9.1c-0.79-1.52-1.19-8.1-1.39-20.43c-4.96,8.84-15.8,21.92-44.23,21.92
				c-39.43,0-59.67-28.14-59.67-64.74c0-38.44,21.62-67.32,61.9-67.32c29.74,0,49.37,14.62,53.67,38.31h-11
				c-5.82-18-19.22-28.84-43.06-28.84c-34.19,0-49.72,24.95-49.72,57.29c0,29.27,14.98,55.83,48.38,55.83
				c34.13,0,43.63-20.87,43.63-49.01v-1.46h-44.02v-9.49h54.62V-1913.2z"/>
			<path class="st0" d="M3469.35-1930.83c0,8.12,0.78,14.7,1.37,17.63h-9.79c-0.79-2.2-1.37-6.27-1.76-14.06
				c-3.34,6.78-11.94,16.27-32.09,16.27c-22.79,0-32.62-13.83-32.62-27.65c0-20.27,16.72-29.49,46.15-29.49c8.17,0,14.64,0,18.55,0
				v-9.31c0-9.15-2.94-21.35-25.1-21.35c-19.64,0-22.58,9.64-24.72,17.17h-10.18c1.18-10.27,7.95-25.86,35.11-25.86
				c22.47,0,35.07,8.86,35.07,29.15V-1930.83z M3459.35-1960.04c-3.7,0-12.64,0-19.06,0c-21.67,0-35.05,5.32-35.05,21
				c0,11.49,8.73,19.35,22.39,19.35c27.83,0,31.72-17.35,31.72-37.06V-1960.04z"/>
			<path class="st0" d="M3501.55-1981.51c0-7.92,0-16.55-0.2-23.75h9.99c0.2,3.11,0.6,10.96,0.41,16.26
				c4.14-9.15,13.15-18.47,29.4-18.47c13.75,0,24.48,6.45,28.4,18.13c4.93-9.53,14.71-18.13,31.96-18.13
				c15.16,0,30.83,8.14,30.83,33.7v60.57h-10.19v-59.42c0-12.25-4.68-25.57-22.78-25.57c-18.88,0-27.42,14.2-27.42,31.97v53.02h-10
				v-59.22c0-13.35-4.28-25.76-22.2-25.76c-18.87,0-28,15.62-28,34.33v50.65h-10.2V-1981.51z"/>
			<path class="st0" d="M3666.97-1958.03c0.19,23.48,12.81,38.13,31.53,38.13c18.29,0,24.51-9.63,28.02-17.14h10.4
				c-4.11,12.13-14.52,26.05-38.82,26.05c-29.9,0-41.54-24.09-41.54-47.49c0-26.39,13.98-48.99,42.71-48.99
				c30.31,0,39.97,24.45,39.97,41.89c0,2.59,0,5.15-0.2,7.55H3666.97z M3728.66-1966.3c-0.2-18.06-10.66-32.3-29.77-32.3
				c-20.06,0-29.2,13.15-31.33,32.3H3728.66z"/>
			<path class="st0" d="M3763.5-1938.66c3.31,11.86,12.28,18.98,27.67,18.98c17.31,0,24.3-7.46,24.3-17.66
				c0-10.39-4.7-15.48-26.51-20.42c-25.48-5.75-31.74-12.97-31.74-25.14c0-12.72,10.21-24.56,32.56-24.56
				c22.36,0,32.95,12.76,34.5,25.82h-10.18c-1.75-7.63-8.13-17.14-24.74-17.14c-16.9,0-21.76,7.82-21.76,15.12
				c0,8.38,4.67,12.57,24.03,16.97c27.8,6.28,34.62,14.79,34.62,28.6c0,16.72-14.48,27.11-35.3,27.11
				c-22.55,0-35.11-11.1-37.84-27.67H3763.5z"/>
		</g>
	</g>
</g>
<g>
	<g>
		<path d="M2514.34-1877.43l-45.35-172.09h13.64c11.1,42.11,35.54,135.97,39.25,156.1h0.23c3.11-16.31,29.8-110.7,41.24-156.1h14.43
			c10.72,41.85,36.74,142.16,39.38,155.82h0.23c5.16-24.63,32.31-115.07,43.44-155.82h13.34l-49.99,172.09h-14.99
			c-10.73-40.51-36.01-139.14-38.88-154.21h-0.23c-4.25,22.55-29.32,111.6-40.96,154.21H2514.34z"/>
		<path d="M2794.22-1939.21c0,34.28-18.12,64.73-53.1,64.73c-31.75,0-51.48-27.32-51.48-64.47c0-35.26,18.59-64.49,52.66-64.49
			C2773.55-2003.44,2794.22-1977.85,2794.22-1939.21z M2702.53-1938.96c0,29.16,14.88,52.57,39.52,52.57
			c25.11,0,39.28-21.73,39.28-52.57c0-28.97-13.95-52.58-39.75-52.58C2715.12-1991.54,2702.53-1968.42,2702.53-1938.96z"/>
		<path d="M2823.11-1967.02c0-20.48-0.23-29.39-0.23-33.47h11.94c0.24,3.91,0.48,11.88,0.48,27.43
			c6.76-18.36,21.71-29.42,40.72-30.38v13.72c-24.36,1.67-40.72,19.14-40.72,48.53v63.76h-12.19V-1967.02z"/>
		<path d="M2899.47-1877.43v-181.21h12.19v181.21H2899.47z"/>
		<path d="M3040.69-2058.64v145.81c0,11.8,0,23.12,0.23,35.4h-11.7c-0.47-2.97-0.72-14.42-0.72-20.5
			c-5.86,14.89-18.92,23.45-39.25,23.45c-30.46,0-48.75-26.06-48.75-63.01c0-37.9,19.93-65.95,51.84-65.95
			c23.29,0,32.66,10.49,36.16,18.31v-73.51H3040.69z M2953.4-1938c0,33.5,16.47,51.59,36.53,51.59c30.75,0,39.06-22.33,39.06-55.45
			c0-31.51-7.17-49.67-36.98-49.67C2968.95-1991.52,2953.4-1972.2,2953.4-1938z"/>
		<path d="M3079.43-1911.46c3.95,15.86,14.66,25.36,33.04,25.36c20.66,0,29.01-9.97,29.01-23.61c0-13.89-5.61-20.7-31.66-27.29
			c-30.42-7.68-37.89-17.34-37.89-33.61c0-17.01,12.19-32.83,38.88-32.83c26.69,0,39.34,17.06,41.19,34.51h-12.15
			c-2.09-10.21-9.71-22.91-29.53-22.91c-20.18,0-25.98,10.46-25.98,20.21c0,11.21,5.58,16.8,28.7,22.68
			c33.19,8.39,41.33,19.78,41.33,38.23c0,22.35-17.29,36.24-42.15,36.24c-26.92,0-41.92-14.84-45.18-36.98H3079.43z"/>
	</g>
</g>
<line class="st17" x1="2305" y1="-2168" x2="2392" y2="-2168"/>
<line class="st18" x1="2115" y1="-2270" x2="2115" y2="-2167"/>
<rect x="1897" y="-2324" width="20" height="228"/>
<rect x="2196" y="-2216" class="st0" width="14" height="3"/>
<rect x="2193" y="-2216" width="9" height="3"/>
<rect x="2257" y="-2245" class="st0" width="4" height="9"/>
<rect x="2254" y="-2245" width="4" height="9"/>
<rect x="2370" y="-2211" class="st0" width="3" height="22"/>
<rect x="2375" y="-2196" class="st0" width="1" height="1"/>
<rect x="2368" y="-2211" width="3" height="22"/>
<rect x="2173" y="-2190" width="7" height="5"/>
<rect x="2327" y="-2242" width="22" height="5"/>
<line class="st19" x1="4311" y1="-1712.5" x2="4510" y2="-1712.5"/>
<line class="st19" x1="4305" y1="-1729.5" x2="4515" y2="-1729.5"/>
<g>
	<line class="st19" x1="4424" y1="-1529.5" x2="4540" y2="-1529.5"/>
	<line class="st19" x1="4575.5" y1="-1681.5" x2="4628.5" y2="-1467.5"/>
	<line class="st19" x1="4579.5" y1="-1442.5" x2="4630.5" y2="-1470.5"/>
	<line class="st19" x1="4516.5" y1="-1528.5" x2="4584.5" y2="-1442.5"/>
</g>
<g>
	<line class="st19" x1="4335.5" y1="-1710.5" x2="4349.5" y2="-1652.5"/>
	<line class="st19" x1="4346" y1="-1654.5" x2="4407" y2="-1654.5"/>
</g>
<g>
	<line class="st19" x1="4486" y1="-1709.5" x2="4472" y2="-1651.5"/>
	<line class="st19" x1="4476" y1="-1653.5" x2="4415" y2="-1653.5"/>
</g>
<g>
	<line class="st19" x1="4398" y1="-1529.5" x2="4282" y2="-1529.5"/>
	<line class="st19" x1="4246.32" y1="-1681.31" x2="4193.32" y2="-1467.31"/>
	<line class="st19" x1="4242.32" y1="-1442.31" x2="4191.32" y2="-1470.31"/>
	<line class="st19" x1="4305.32" y1="-1528.31" x2="4237.32" y2="-1442.31"/>
</g>
<g>
	<line class="st19" x1="4229.5" y1="-1705.5" x2="4305.5" y2="-1739.5"/>
	<line class="st19" x1="4242.08" y1="-1680.04" x2="4318.08" y2="-1714.04"/>
	<line class="st19" x1="4300.5" y1="-1740.5" x2="4314.5" y2="-1711.5"/>
	<line class="st19" x1="4232.08" y1="-1709.54" x2="4246.08" y2="-1680.54"/>
</g>
<g>
	<line class="st19" x1="4591.38" y1="-1705.77" x2="4515.38" y2="-1739.77"/>
	<line class="st19" x1="4578.79" y1="-1680.31" x2="4502.79" y2="-1714.31"/>
	<line class="st19" x1="4520.38" y1="-1740.77" x2="4506.38" y2="-1711.77"/>
	<line class="st19" x1="4588.79" y1="-1709.81" x2="4574.79" y2="-1680.81"/>
</g>
<g>
	<line class="st19" x1="4285.5" y1="-1531.5" x2="4244.5" y2="-1478.5"/>
	<line class="st19" x1="4238.5" y1="-1470.5" x2="4232.5" y2="-1463.5"/>
</g>
<g>
	<line class="st19" x1="4536.09" y1="-1530.87" x2="4577.09" y2="-1477.87"/>
	<line class="st19" x1="4583.09" y1="-1469.87" x2="4589.09" y2="-1462.87"/>
</g>
<line class="st19" x1="4364" y1="-1636.5" x2="4383" y2="-1636.5"/>
<line class="st19" x1="4439" y1="-1636.5" x2="4458" y2="-1636.5"/>
<line class="st19" x1="4331.5" y1="-1590" x2="4331.5" y2="-1564"/>
<g>
	<line class="st19" x1="4348.5" y1="-1607" x2="4348.5" y2="-1581"/>
	<line class="st19" x1="4348.5" y1="-1573" x2="4348.5" y2="-1547"/>
	<line class="st19" x1="4332" y1="-1585.5" x2="4352" y2="-1585.5"/>
	<line class="st19" x1="4332" y1="-1568.5" x2="4352" y2="-1568.5"/>
	<line class="st19" x1="4345" y1="-1603.5" x2="4371" y2="-1603.5"/>
</g>
<g>
	<line class="st19" x1="4366.5" y1="-1547" x2="4366.5" y2="-1573"/>
	<line class="st19" x1="4366.5" y1="-1581" x2="4366.5" y2="-1607"/>
	<line class="st19" x1="4383" y1="-1568.5" x2="4363" y2="-1568.5"/>
	<line class="st19" x1="4383" y1="-1585.5" x2="4363" y2="-1585.5"/>
	<line class="st19" x1="4370" y1="-1550.5" x2="4344" y2="-1550.5"/>
</g>
<line class="st19" x1="4383.5" y1="-1590" x2="4383.5" y2="-1564"/>
<path class="st19" d="M4422.5-1683.5c0.23,15.57-24.23,15.57-24,0C4398.27-1699.07,4422.73-1699.07,4422.5-1683.5z"/>
<g>
	<path class="st19" d="M4309.5-1645.5c0.25,16.87-26.25,16.87-26,0C4283.25-1662.37,4309.75-1662.37,4309.5-1645.5z"/>
	<path class="st19" d="M4326.22-1645.82c0.56,38.05-59.21,38.05-58.65,0C4267.02-1683.87,4326.78-1683.87,4326.22-1645.82z"/>
</g>
<g>
	<path class="st19" d="M4490.39-1576.46c0.25,16.87-26.25,16.87-26,0C4464.14-1593.33,4490.64-1593.33,4490.39-1576.46z"/>
	<path class="st19" d="M4507.11-1576.79c0.56,38.05-59.21,38.05-58.65,0C4447.91-1614.83,4507.67-1614.83,4507.11-1576.79z"/>
</g>
<path class="st19" d="M4532.5-1668.5c0.17,11.68-18.17,11.68-18,0C4514.33-1680.18,4532.67-1680.18,4532.5-1668.5z"/>
<path class="st19" d="M4532.5-1622.5c0.17,11.68-18.17,11.68-18,0C4514.33-1634.18,4532.67-1634.18,4532.5-1622.5z"/>
<path class="st19" d="M4555.5-1645.5c0.17,11.68-18.17,11.68-18,0C4537.33-1657.18,4555.67-1657.18,4555.5-1645.5z"/>
<path class="st19" d="M4509.5-1645.5c0.17,11.68-18.17,11.68-18,0C4491.33-1657.18,4509.67-1657.18,4509.5-1645.5z"/>
<path class="st19" d="M4412.5-1528.5c-1.78,0.26-2.26-0.22-2-2C4412.28-1530.76,4412.76-1530.28,4412.5-1528.5z"/>
<g>
	<line class="st19" x1="3587.5" y1="-771.5" x2="3587.5" y2="-974.5"/>
	<line class="st19" x1="3535.5" y1="-771" x2="3535.5" y2="-1185.5"/>
	<line class="st19" x1="3694.74" y1="-771.47" x2="3694.5" y2="-1214.5"/>
	<line class="st19" x1="3587.5" y1="-984" x2="3587.5" y2="-1214.5"/>
	<line class="st19" x1="3535.5" y1="-775.5" x2="3699.5" y2="-775.5"/>
	<line class="st19" x1="3532" y1="-803.5" x2="3591.5" y2="-803.5"/>
	<line class="st19" x1="3531.5" y1="-1181.5" x2="3587.5" y2="-1181.5"/>
	<line class="st19" x1="3583.5" y1="-1210.5" x2="3698.5" y2="-1210.5"/>
	<line class="st19" x1="3628.5" y1="-1206.5" x2="3628.5" y2="-964.5"/>
	<line class="st19" x1="3654.5" y1="-1213" x2="3654.5" y2="-1102.5"/>
	<line class="st19" x1="3654.34" y1="-1076.65" x2="3654.5" y2="-965.5"/>
	<line class="st19" x1="3627.5" y1="-969.5" x2="3658.5" y2="-969.5"/>
	<line class="st19" x1="3654.5" y1="-1095" x2="3654.5" y2="-1085.5"/>
	<line class="st19" x1="3552.5" y1="-1168.5" x2="3552.5" y2="-1124.5"/>
	<line class="st19" x1="3570.5" y1="-1168.5" x2="3570.5" y2="-1124.5"/>
	<line class="st19" x1="3548.5" y1="-1164.5" x2="3574.5" y2="-1164.5"/>
	<line class="st19" x1="3548" y1="-1128.5" x2="3574.5" y2="-1128.5"/>
	<line class="st19" x1="3553.17" y1="-860.68" x2="3553.17" y2="-816.68"/>
	<line class="st19" x1="3571.17" y1="-860.68" x2="3571.17" y2="-816.68"/>
	<line class="st19" x1="3549.17" y1="-856.68" x2="3575.17" y2="-856.68"/>
	<line class="st19" x1="3548.67" y1="-820.68" x2="3575.17" y2="-820.68"/>
	<line class="st19" x1="3561.5" y1="-886" x2="3561.5" y2="-869.5"/>
	<circle class="st19" cx="3641.5" cy="-942.5" r="9"/>
	<circle class="st19" cx="3641.5" cy="-838.5" r="13"/>
	<g>
		<line class="st19" x1="3707" y1="-894.5" x2="3823" y2="-894.5"/>
		<line class="st19" x1="3858.5" y1="-1046.5" x2="3911.5" y2="-832.5"/>
		<line class="st19" x1="3862.5" y1="-807.5" x2="3913.5" y2="-835.5"/>
		<line class="st19" x1="3799.5" y1="-893.5" x2="3867.5" y2="-807.5"/>
	</g>
	<g>
		<line class="st19" x1="3769" y1="-1074.5" x2="3755" y2="-1016.5"/>
		<line class="st19" x1="3759" y1="-1018.5" x2="3698" y2="-1018.5"/>
	</g>
	<g>
		<line class="st19" x1="3874.38" y1="-1070.77" x2="3798.38" y2="-1104.77"/>
		<line class="st19" x1="3861.79" y1="-1045.31" x2="3785.79" y2="-1079.31"/>
		<line class="st19" x1="3803.38" y1="-1105.77" x2="3789.38" y2="-1076.77"/>
		<line class="st19" x1="3871.79" y1="-1074.81" x2="3857.79" y2="-1045.81"/>
	</g>
	<g>
		<line class="st19" x1="3819.09" y1="-895.87" x2="3860.09" y2="-842.87"/>
		<line class="st19" x1="3866.09" y1="-834.87" x2="3872.09" y2="-827.87"/>
	</g>
	<line class="st19" x1="3722" y1="-1001.5" x2="3741" y2="-1001.5"/>
	<g>
		<path class="st19" d="M3773.39-941.46c0.25,16.87-26.25,16.87-26,0C3747.14-958.33,3773.64-958.33,3773.39-941.46z"/>
		<path class="st19" d="M3790.11-941.79c0.56,38.05-59.21,38.05-58.65,0C3730.91-979.83,3790.67-979.83,3790.11-941.79z"/>
	</g>
	<path class="st19" d="M3815.5-1033.5c0.17,11.68-18.17,11.68-18,0C3797.33-1045.18,3815.67-1045.18,3815.5-1033.5z"/>
	<path class="st19" d="M3815.5-987.5c0.17,11.68-18.17,11.68-18,0C3797.33-999.18,3815.67-999.18,3815.5-987.5z"/>
	<path class="st19" d="M3838.5-1010.5c0.17,11.68-18.17,11.68-18,0C3820.33-1022.18,3838.67-1022.18,3838.5-1010.5z"/>
	<path class="st19" d="M3792.5-1010.5c0.17,11.68-18.17,11.68-18,0C3774.33-1022.18,3792.67-1022.18,3792.5-1010.5z"/>
	<path class="st19" d="M3695.5-893.5c-1.78,0.26-2.26-0.22-2-2C3695.28-895.76,3695.76-895.28,3695.5-893.5z"/>
	<line class="st19" x1="3694.5" y1="-1093.5" x2="3797.5" y2="-1093.5"/>
	<line class="st19" x1="3693" y1="-1076.5" x2="3796" y2="-1076.5"/>
	<path class="st19" d="M3712.5-1046c0,1.17,0.02,9.21-6,12.5c-2.8,1.53-7.31,2.25-10,0c-0.92-0.77-1.98-2.18-2-12
		c-0.02-8.39,0.01-12.62,2-14c3.16-2.2,8.84-0.02,12,3C3712.48-1052.7,3712.5-1047.53,3712.5-1046z"/>
</g>
<rect x="2396.5" y="-671.5" class="st19" width="286" height="343"/>
<line class="st20" x1="2432.5" y1="-632.5" x2="2647.5" y2="-632.5"/>
<line class="st20" x1="2432.5" y1="-590.5" x2="2647.5" y2="-590.5"/>
<rect x="2437.5" y="-553.5" class="st19" width="106" height="106"/>
<rect x="2578.5" y="-553.5" class="st19" width="8" height="106"/>
<rect x="2606.5" y="-553.5" class="st19" width="9" height="106"/>
<rect x="2635.5" y="-553.5" class="st19" width="8" height="106"/>
<line class="st19" x1="2437.5" y1="-414.5" x2="2516" y2="-414.5"/>
<line class="st19" x1="2528.5" y1="-414.5" x2="2576.5" y2="-414.5"/>
<line class="st19" x1="2590.5" y1="-414.5" x2="2621.5" y2="-414.5"/>
<line class="st19" x1="2631.5" y1="-414.5" x2="2647.5" y2="-414.5"/>
<line class="st19" x1="2437.5" y1="-397.5" x2="2590.5" y2="-397.5"/>
<line class="st19" x1="2600.5" y1="-397.5" x2="2647.5" y2="-397.5"/>
<line class="st19" x1="2437.5" y1="-376.5" x2="2488.5" y2="-376.5"/>
<line class="st19" x1="2499.5" y1="-376.5" x2="2590.5" y2="-376.5"/>
<line class="st19" x1="2600.5" y1="-376.5" x2="2647.5" y2="-376.5"/>
<line class="st19" x1="2437.5" y1="-358.5" x2="2647.5" y2="-358.5"/>
<line class="st19" x1="2395.5" y1="-671.5" x2="2413.5" y2="-693.5"/>
<line class="st19" x1="2679.53" y1="-671.45" x2="2697.53" y2="-693.45"/>
<line class="st19" x1="2682.53" y1="-328.45" x2="2700.53" y2="-350.45"/>
<path class="st19" d="M2711.5-543.5"/>
<line class="st19" x1="2409.5" y1="-691.5" x2="2699.5" y2="-691.5"/>
<line class="st19" x1="2698.5" y1="-347.5" x2="2698.5" y2="-693.5"/>
<circle class="st19" cx="2490.5" cy="-500.5" r="38"/>
<line class="st19" x1="2454.5" y1="-512.5" x2="2523.5" y2="-512.5"/>
<line class="st19" x1="2454.5" y1="-489.5" x2="2523.5" y2="-489.5"/>
<ellipse class="st19" cx="2490.5" cy="-500.5" rx="13" ry="38"/>
<rect x="2794.47" y="-236.88" class="st19" width="286" height="343"/>
<line class="st19" x1="2793.47" y1="-236.88" x2="2811.47" y2="-258.88"/>
<line class="st19" x1="3077.51" y1="-236.83" x2="3095.51" y2="-258.83"/>
<line class="st19" x1="3080.51" y1="106.17" x2="3098.51" y2="84.17"/>
<path class="st19" d="M3109.47-108.88"/>
<line class="st19" x1="2807.47" y1="-256.88" x2="3097.47" y2="-256.88"/>
<line class="st19" x1="3096.47" y1="87.12" x2="3096.47" y2="-258.88"/>
<rect x="2807.5" y="-252.5" class="st21" width="283" height="13"/>
<rect x="3086.5" y="-242.5" class="st22" width="4" height="333"/>
<rect x="2793.5" y="-227.5" class="st22" width="278" height="324"/>
<g>
	<line class="st23" x1="2834.47" y1="-200.88" x2="3049.47" y2="-200.88"/>
	<line class="st23" x1="2834.47" y1="-158.88" x2="3049.47" y2="-158.88"/>
	<rect x="2839.47" y="-121.88" class="st15" width="106" height="106"/>
	<rect x="2980.47" y="-121.88" class="st15" width="8" height="106"/>
	<rect x="3008.47" y="-121.88" class="st15" width="9" height="106"/>
	<rect x="3037.47" y="-121.88" class="st15" width="8" height="106"/>
	<line class="st15" x1="2839.47" y1="17.12" x2="2917.97" y2="17.12"/>
	<line class="st15" x1="2930.47" y1="17.12" x2="2978.47" y2="17.12"/>
	<line class="st15" x1="2992.47" y1="17.12" x2="3023.47" y2="17.12"/>
	<line class="st15" x1="3033.47" y1="17.12" x2="3049.47" y2="17.12"/>
	<line class="st15" x1="2839.47" y1="34.12" x2="2992.47" y2="34.12"/>
	<line class="st15" x1="3002.47" y1="34.12" x2="3049.47" y2="34.12"/>
	<line class="st15" x1="2839.47" y1="55.12" x2="2890.47" y2="55.12"/>
	<line class="st15" x1="2901.47" y1="55.12" x2="2992.47" y2="55.12"/>
	<line class="st15" x1="3002.47" y1="55.12" x2="3049.47" y2="55.12"/>
	<line class="st15" x1="2839.47" y1="73.12" x2="3049.47" y2="73.12"/>
	<circle class="st15" cx="2892.47" cy="-68.88" r="38"/>
	<line class="st15" x1="2856.47" y1="-80.88" x2="2925.47" y2="-80.88"/>
	<line class="st15" x1="2856.47" y1="-57.88" x2="2925.47" y2="-57.88"/>
	<ellipse class="st15" cx="2892.47" cy="-68.88" rx="13" ry="38"/>
</g>
<path class="st19" d="M3299.68-58.66L3299.68-58.66c-22.41,23.27-59.44,23.97-82.72,1.56v0c-23.27-22.41-23.97-59.44-1.56-82.72l0,0
	c22.41-23.27,59.44-23.97,82.72-1.56v0C3321.39-118.97,3322.09-81.94,3299.68-58.66z"/>
<rect x="3352.61" y="-49.79" transform="matrix(0.6936 -0.7203 0.7203 0.6936 1031.1776 2419.1106)" class="st19" width="13.55" height="94.28"/>
<line class="st19" x1="3298.5" y1="-61.5" x2="3323.5" y2="-37.5"/>
<line class="st19" x1="3219.5" y1="-127.5" x2="3260.76" y2="-127.5"/>
<line class="st19" x1="3265.92" y1="-127.5" x2="3295.5" y2="-127.5"/>
<line class="st19" x1="3219.5" y1="-114.61" x2="3244.43" y2="-114.61"/>
<line class="st19" x1="3247.87" y1="-114.61" x2="3296" y2="-114.61"/>
<line class="st19" x1="3219.5" y1="-101.71" x2="3262.48" y2="-101.71"/>
<line class="st19" x1="3296" y1="-101.71" x2="3282.25" y2="-101.71"/>
<line class="st19" x1="3219.5" y1="-89.68" x2="3256.46" y2="-89.68"/>
<line class="st19" x1="3259.9" y1="-89.68" x2="3296" y2="-89.68"/>
<line class="st19" x1="3219.5" y1="-75.5" x2="3295.5" y2="-75.5"/>
<line class="st19" x1="3280.1" y1="-101.71" x2="3266.35" y2="-101.71"/>
<polygon class="st24" points="3675.15,-228.76 3890.65,144.5 3459.65,144.5 "/>
<rect x="3671" y="-120" class="st24" width="8" height="177"/>
<rect x="3671.19" y="97" class="st24" width="8" height="8.07"/>
<rect x="4254" y="63" class="st25" width="50" height="50"/>
<rect x="4188" y="125" class="st25" width="50" height="50"/>
<rect x="4122" y="59" class="st25" width="50" height="50"/>
<rect x="4320" y="-3" class="st25" width="50" height="50"/>
<rect x="3990" y="-73" class="st25" width="50" height="50"/>
<rect x="4386" y="-69" class="st25" width="50" height="50"/>
<rect x="3990" y="-136" class="st25" width="50" height="50"/>
<rect x="4386" y="-132" class="st25" width="50" height="50"/>
<rect x="4056" y="-7" class="st25" width="50" height="50"/>
<rect x="3990" y="-199" class="st25" width="50" height="50"/>
<rect x="4386" y="-195" class="st25" width="50" height="50"/>
<rect x="4056" y="-263" class="st25" width="50" height="50"/>
<rect x="4320" y="-259" class="st25" width="50" height="50"/>
<rect x="4254" y="-259" class="st25" width="50" height="50"/>
<rect x="4122" y="-263" class="st25" width="50" height="50"/>
<rect x="4188" y="-199" class="st25" width="50" height="50"/>
<g>
	
		<rect x="4821.27" y="-347.5" transform="matrix(0.7071 -0.7071 0.7071 0.7071 1600.3942 3446.0491)" class="st25" width="277.36" height="277.36"/>
	
		<rect x="4996.13" y="-178.48" transform="matrix(0.7071 -0.7071 0.7071 0.7071 1527.9406 3620.5979)" class="st25" width="276.58" height="288.79"/>
	
		<rect x="5162.36" y="-330.18" transform="matrix(0.7071 -0.7071 0.7071 0.7071 1688.0516 3692.3088)" class="st25" width="277.36" height="277.36"/>
</g>
<g>
	<rect x="4498" y="390" class="st26" width="25" height="25"/>
	<rect x="4523" y="365" class="st26" width="50" height="25"/>
	<rect x="4573" y="390" class="st26" width="25" height="25"/>
	<rect x="4473" y="415" class="st26" width="25" height="74"/>
	<rect x="4523" y="514" class="st26" width="25" height="25"/>
	<rect x="4498" y="489" class="st26" width="25" height="25"/>
	<rect x="4598" y="415" class="st26" width="25" height="25"/>
	<rect x="4598" y="589" class="st26" width="25" height="25"/>
	<g>
		<rect x="4548" y="539" class="st26" width="25" height="25"/>
		<rect x="4573" y="564" class="st26" width="25" height="25"/>
	</g>
	<rect x="4698" y="390" transform="matrix(-1 -4.489266e-11 4.489266e-11 -1 9421 805)" class="st26" width="25" height="25"/>
	<rect x="4648" y="365" transform="matrix(-1 -4.489266e-11 4.489266e-11 -1 9346 755)" class="st26" width="50" height="25"/>
	<rect x="4623" y="390" transform="matrix(-1 -4.489266e-11 4.489266e-11 -1 9271 805)" class="st26" width="25" height="25"/>
	<rect x="4723" y="415" transform="matrix(-1 -4.489266e-11 4.489266e-11 -1 9471 904)" class="st26" width="25" height="74"/>
	<rect x="4673" y="514" transform="matrix(-1 -4.489266e-11 4.489266e-11 -1 9371 1053)" class="st26" width="25" height="25"/>
	<rect x="4698" y="489" transform="matrix(-1 -4.489266e-11 4.489266e-11 -1 9421 1003)" class="st26" width="25" height="25"/>
	<g>
		<rect x="4648" y="539" transform="matrix(-1 -4.489266e-11 4.489266e-11 -1 9321 1103)" class="st26" width="25" height="25"/>
		<rect x="4623" y="564" transform="matrix(-1 -4.489266e-11 4.489266e-11 -1 9271 1153)" class="st26" width="25" height="25"/>
	</g>
</g>
<g>
	<rect x="4717.65" y="769.46" class="st26" width="25" height="25"/>
	<rect x="4742.65" y="744.46" class="st26" width="50" height="25"/>
	<rect x="4792.65" y="769.46" class="st26" width="25" height="25"/>
	<rect x="4692.65" y="794.46" class="st26" width="25" height="98.54"/>
	<rect x="4743" y="918" class="st26" width="25" height="25"/>
	<rect x="4718" y="893" class="st26" width="25" height="25"/>
	<rect x="4817.65" y="794.46" class="st26" width="25" height="25"/>
	<rect x="4818" y="993" class="st26" width="25" height="25"/>
	<g>
		<rect x="4768" y="943" class="st26" width="25" height="25"/>
		<rect x="4793" y="968" class="st26" width="25" height="25"/>
	</g>
	
		<rect x="4917.65" y="769.46" transform="matrix(-1 -4.489266e-11 4.489266e-11 -1 9860.2979 1563.9149)" class="st26" width="25" height="25"/>
	
		<rect x="4867.65" y="744.46" transform="matrix(-1 -4.489266e-11 4.489266e-11 -1 9785.2979 1513.9149)" class="st26" width="50" height="25"/>
	
		<rect x="4842.65" y="769.46" transform="matrix(-1 -4.489266e-11 4.489266e-11 -1 9710.2979 1563.9149)" class="st26" width="25" height="25"/>
	
		<rect x="4942.65" y="794.46" transform="matrix(-1 -5.980828e-11 5.980828e-11 -1 9910.2979 1687.4574)" class="st26" width="25" height="98.54"/>
	<rect x="4893" y="918" transform="matrix(-1 -4.489266e-11 4.489266e-11 -1 9811 1861)" class="st26" width="25" height="25"/>
	<rect x="4918" y="893" transform="matrix(-1 -4.489266e-11 4.489266e-11 -1 9861 1811)" class="st26" width="25" height="25"/>
	<g>
		<rect x="4868" y="943" transform="matrix(-1 -4.489266e-11 4.489266e-11 -1 9761 1911)" class="st26" width="25" height="25"/>
		<rect x="4843" y="968" transform="matrix(-1 -4.489266e-11 4.489266e-11 -1 9711 1961)" class="st26" width="25" height="25"/>
	</g>
</g>
<g>
	<rect x="5154" y="539" class="st26" width="285" height="247"/>
	<line class="st26" x1="5154" y1="590" x2="5439" y2="590"/>
	<g>
		<rect x="5205" y="503" class="st27" width="30" height="64"/>
		<rect x="5358" y="503" class="st28" width="30" height="64"/>
	</g>
	<g>
		<rect x="5205" y="635" class="st28" width="37" height="37"/>
		<rect x="5240" y="635" class="st26" width="37" height="37"/>
		<rect x="5277" y="635" class="st26" width="37" height="37"/>
		<rect x="5314" y="635" class="st26" width="37" height="37"/>
		<rect x="5351" y="635" class="st26" width="37" height="37"/>
		<g>
			<rect x="5205" y="672" class="st26" width="37" height="37"/>
			<rect x="5240" y="672" class="st26" width="37" height="37"/>
			<rect x="5277" y="672" class="st26" width="37" height="37"/>
			<rect x="5314" y="672" class="st26" width="37" height="37"/>
			<rect x="5351" y="672" class="st26" width="37" height="37"/>
		</g>
		<rect x="5205" y="709" class="st26" width="37" height="37"/>
		<rect x="5240" y="709" class="st26" width="37" height="37"/>
		<rect x="5277" y="709" class="st26" width="37" height="37"/>
		<rect x="5314" y="709" class="st26" width="37" height="37"/>
		<rect x="5351" y="709" class="st28" width="37" height="37"/>
	</g>
</g>
<line class="st29" x1="2384.01" y1="-892" x2="2383.51" y2="-1119.5"/>
<rect x="2459.87" y="-1143.96" transform="matrix(0.7071 -0.7071 0.7071 0.7071 1449.9788 1439.2896)" class="st30" width="5" height="226.65"/>
<rect x="2302.82" y="-1144.22" transform="matrix(-0.7071 -0.7071 0.7071 -0.7071 4664.3779 -129.7387)" class="st30" width="5" height="226.65"/>
<rect x="2459.51" y="-1240.01" transform="matrix(0.7071 -0.7071 0.7071 0.7071 1517.7891 1410.9092)" class="st30" width="5" height="226.65"/>
<rect x="2302.47" y="-1240.27" transform="matrix(-0.7071 -0.7071 0.7071 -0.7071 4731.689 -293.9465)" class="st30" width="5" height="226.65"/>
<rect x="1525" y="-1239" class="st31" width="2" height="278"/>
<rect x="1510" y="-1312" class="st30" width="30" height="107"/>
<line class="st32" x1="1488" y1="-963" x2="1487.5" y2="-1094.02"/>
<line class="st32" x1="1553.09" y1="-1065.85" x2="1553.09" y2="-1181.89"/>
<line class="st32" x1="1495" y1="-1100" x2="1495.09" y2="-1173.89"/>
<line class="st32" x1="1560.09" y1="-950.85" x2="1560" y2="-1051"/>
<rect x="1500" y="-1321" class="st33" width="50" height="126"/>
<line class="st32" x1="1473.13" y1="-1033.79" x2="1473.13" y2="-1149.83"/>
<line class="st32" x1="1598" y1="-1369" x2="1559.78" y2="-1328.34"/>
<line class="st32" x1="1624" y1="-1321" x2="1564.9" y2="-1304.71"/>
<line class="st32" x1="1606.23" y1="-1167.57" x2="1561.34" y2="-1200.73"/>
<line class="st32" x1="1625" y1="-1217" x2="1564.86" y2="-1233.47"/>
<line class="st32" x1="1638" y1="-1268" x2="1567.89" y2="-1268.15"/>
<g>
	<line class="st32" x1="1450.07" y1="-1371.78" x2="1488.29" y2="-1331.12"/>
	<line class="st32" x1="1424.07" y1="-1323.78" x2="1483.17" y2="-1307.48"/>
	<line class="st32" x1="1441.83" y1="-1170.35" x2="1486.72" y2="-1203.5"/>
	<line class="st32" x1="1423.07" y1="-1219.78" x2="1483.2" y2="-1236.25"/>
	<line class="st32" x1="1410.07" y1="-1270.78" x2="1480.18" y2="-1270.92"/>
</g>
<line class="st32" x1="1572.02" y1="-1013.21" x2="1572.02" y2="-1129.25"/>
<rect x="1119" y="-1225" class="st31" width="2" height="278"/>
<rect x="1104.99" y="-1297.68" class="st30" width="30" height="107"/>
<line class="st32" x1="1082.99" y1="-948.68" x2="1082.49" y2="-1079.7"/>
<line class="st32" x1="1148.07" y1="-1051.53" x2="1148.07" y2="-1167.57"/>
<line class="st32" x1="1089.99" y1="-1085.68" x2="1090.07" y2="-1159.57"/>
<line class="st32" x1="1155.07" y1="-936.53" x2="1154.99" y2="-1036.68"/>
<rect x="1094.99" y="-1306.68" class="st33" width="50" height="126"/>
<line class="st32" x1="1063.12" y1="-1006.47" x2="1063.12" y2="-1122.5"/>
<line class="st32" x1="1173.01" y1="-998.89" x2="1173.01" y2="-1114.93"/>
<line class="st32" x1="1071.62" y1="-1161.62" x2="1071.62" y2="-1277.66"/>
<line class="st32" x1="1193.62" y1="-1129.62" x2="1194" y2="-1234"/>
<line class="st32" x1="1166.43" y1="-1220.45" x2="1167" y2="-1304"/>
<line class="st32" x1="1491.99" y1="-1387.16" x2="1507.84" y2="-1333.65"/>
<line class="st32" x1="1560.84" y1="-1385.16" x2="1544.99" y2="-1331.65"/>
<g>
	<rect x="1035.5" y="-686.5" class="st34" width="89" height="89"/>
	<rect x="1172.5" y="-686.5" class="st34" width="89" height="89"/>
	<rect x="1172.5" y="-559.5" class="st34" width="89" height="89"/>
	<rect x="1035.5" y="-559.5" class="st34" width="89" height="89"/>
</g>
<rect x="0" y="-1455" class="st3" width="113" height="59.19"/>
<line class="st35" x1="35" y1="-1398" x2="12.49" y2="-1374.49"/>
<line class="st35" x1="12" y1="-1398" x2="12" y2="-1372"/>
<rect x="35" y="-1441.07" transform="matrix(-1 -5.327662e-11 5.327662e-11 -1 165.2234 -2822.9565)" class="st3" width="95.22" height="59.19"/>
<line class="st35" x1="95.22" y1="-1384.07" x2="117.73" y2="-1360.57"/>
<line class="st35" x1="118.22" y1="-1384.07" x2="118.22" y2="-1358.07"/>
<g>
	<g>
		<line class="st36" x1="-2.06" y1="-225.63" x2="-2.06" y2="-292.63"/>
		<g>
			<line class="st36" x1="-6.06" y1="-288.63" x2="88.94" y2="-288.63"/>
			<line class="st36" x1="83.94" y1="-292.63" x2="83.94" y2="-224.63"/>
			<circle class="st36" cx="39.94" cy="-332.63" r="40"/>
		</g>
	</g>
	<g>
		<line class="st37" x1="36" y1="-206" x2="36" y2="-273"/>
		<g>
			<line class="st37" x1="32" y1="-269" x2="127" y2="-269"/>
			<line class="st37" x1="122" y1="-273" x2="122" y2="-205"/>
			<circle class="st37" cx="78" cy="-313" r="40"/>
		</g>
	</g>
</g>
<polygon class="st38" points="700,-1111 700,-1002.21 784,-1025.47 784,-1137.02 "/>
<polygon class="st38" points="695,-1110.66 695,-1001.87 611,-1025.13 611,-1136.68 "/>
<path class="st38" d="M897-1565"/>
<polygon class="st39" points="747,-1568 747,-1531.74 780,-1514 815,-1530 815,-1568 781,-1584.51 "/>
<g>
	<polyline class="st39" points="747,-1568 780.5,-1554.5 815,-1568 	"/>
</g>
<line class="st40" x1="780.5" y1="-1554.5" x2="780.5" y2="-1514.5"/>
<line class="st40" x1="766.05" y1="-1576.57" x2="798.5" y2="-1561.5"/>
<g>
	<rect x="11" y="-960" class="st41" width="122" height="84"/>
	<rect x="-4" y="-996" class="st41" width="151" height="36"/>
	<path class="st42" d="M146.28-996C95.9-996.09,45.38-996-5-996c-0.06,0-0.03-1.94,0-2c4.14-7.6,8.34-13.38,12.48-21h124.83
		c5.14,6.68,10.28,13.37,15.42,20.05C148.66-997.75,147.8-996,146.28-996z"/>
	<path class="st41" d="M163-1024"/>
	<path class="st41" d="M176-1013"/>
	<rect x="51" y="-958" class="st42" width="41" height="19"/>
</g>
<line class="st43" x1="1170" y1="-1522" x2="1170" y2="-1403"/>
<line class="st43" x1="1277" y1="-1451" x2="1170" y2="-1403"/>
<line class="st43" x1="1063" y1="-1450" x2="1170" y2="-1403"/>
<line class="st43" x1="1063" y1="-1566" x2="1063" y2="-1450"/>
<line class="st43" x1="1277" y1="-1566" x2="1277" y2="-1451"/>
<line class="st43" x1="1063" y1="-1566" x2="1170" y2="-1519"/>
<line class="st43" x1="1277" y1="-1566" x2="1170" y2="-1519"/>
<line class="st43" x1="1170" y1="-1609" x2="1063" y2="-1566"/>
<line class="st43" x1="1277" y1="-1566" x2="1170" y2="-1609"/>
<g>
	<line class="st44" x1="57.5" y1="-80.5" x2="57.5" y2="-157.5"/>
	<line class="st44" x1="57.5" y1="-70" x2="57.5" y2="-56.5"/>
</g>
<g>
	<circle class="st45" cx="65.16" cy="325.24" r="58.76"/>
	<line class="st45" x1="9.5" y1="306.69" x2="116.18" y2="306.69"/>
	<line class="st45" x1="9.5" y1="342.25" x2="116.18" y2="342.25"/>
	<ellipse class="st45" cx="65.16" cy="325.24" rx="20.1" ry="58.76"/>
</g>
<g>
	<rect x="-10" y="-1620" class="st2" width="140" height="75"/>
	<g>
		<line class="st46" x1="0.5" y1="-1604.5" x2="19.5" y2="-1604.5"/>
		<line class="st5" x1="0.5" y1="-1593.5" x2="115.5" y2="-1593.5"/>
		<line class="st5" x1="1" y1="-1580.5" x2="116" y2="-1580.5"/>
		<line class="st5" x1="1" y1="-1554.5" x2="116" y2="-1554.5"/>
		<line class="st5" x1="26.5" y1="-1580" x2="26.5" y2="-1555"/>
		<line class="st5" x1="89.5" y1="-1580" x2="89.5" y2="-1555"/>
		<g>
			<polygon class="st47" points="10.19,-1622 22.82,-1622 30.9,-1636 18.28,-1636 			"/>
			<polygon class="st47" points="86.66,-1636 74.75,-1636 66.66,-1622 78.58,-1622 			"/>
			<polygon class="st47" points="130.98,-1636 122.9,-1622 136.5,-1622 136.5,-1636 			"/>
			<polygon class="st47" points="58.9,-1636 46.75,-1636 38.66,-1622 50.82,-1622 			"/>
			<polygon class="st47" points="2.43,-1636 -16,-1636 -16,-1622 -5.65,-1622 			"/>
			<polygon class="st47" points="115.13,-1636 102.51,-1636 94.43,-1622 107.05,-1622 			"/>
		</g>
		<g>
			<polygon class="st47" points="15.95,-1639.62 28.18,-1642.73 16.9,-1654.3 4.66,-1651.2 			"/>
			<polygon class="st47" points="125.18,-1667.38 135.21,-1669.93 131.76,-1683.5 113.9,-1678.96 			"/>
			<polygon class="st47" points="43.81,-1661.14 32.26,-1658.21 43.54,-1646.63 55.09,-1649.57 			"/>
			<polygon class="st47" points="-10.69,-1647.29 -16.04,-1645.93 -12.59,-1632.36 0.59,-1635.71 			"/>
			<polygon class="st47" points="98.54,-1675.05 86.3,-1671.94 97.59,-1660.37 109.82,-1663.47 			"/>
			<polygon class="st47" points="70.95,-1668.04 59.17,-1665.05 70.45,-1653.47 82.23,-1656.46 			"/>
		</g>
		<rect x="-10" y="-1645" class="st47" width="19" height="18"/>
	</g>
</g>
<g>
	<rect x="1" y="-1825" class="st41" width="109" height="72"/>
	<rect x="1" y="-1842" class="st41" width="109" height="17"/>
	<polyline class="st41" points="17,-1812 37,-1792 17,-1772 	"/>
	<line class="st41" x1="48" y1="-1772" x2="95" y2="-1772"/>
</g>
<g>
	<rect x="5356" y="-2076" width="1170" height="315"/>
	<text transform="matrix(1 0 0 1 5806.7021 -1877.4043)" class="st0" style="font-family:'PixelFont-7'; font-size:113px;">Шапка</text>
</g>
<g>
	<rect x="5356" y="-1761" class="st48" width="1170" height="183"/>
	<text transform="matrix(1 0 0 1 5600.5742 -1638.3193)" style="font-family:'PixelFont-7'; font-size:113px;">Боковое меню</text>
</g>
<g>
	<rect x="5356" y="-1578" class="st49" width="1170" height="644"/>
	<text transform="matrix(1 0 0 1 5752.915 -1239.3828)" style="font-family:'PixelFont-7'; font-size:113px;">Контент</text>
</g>
<g>
	<rect x="5356" y="-934" class="st50" width="1170" height="352"/>
	<text transform="matrix(1 0 0 1 5759.0215 -706.8301)" style="font-family:'PixelFont-7'; font-size:113px;">Подвал</text>
</g>
<line class="st51" x1="6612.5" y1="-1319.5" x2="7020.5" y2="-1319.5"/>
<g>
	<rect x="7372" y="-2071" width="1170" height="315"/>
	<text transform="matrix(1 0 0 1 7822.7021 -1872.4043)" class="st0" style="font-family:'PixelFont-7'; font-size:113px;">Шапка</text>
</g>
<g>
	
		<rect x="6787.5" y="-1351.5" transform="matrix(5.242391e-11 -1 1 5.242391e-11 8548.5 6028.4995)" class="st48" width="1002" height="183"/>
	
		<text transform="matrix(4.489659e-11 -0.8564 1 3.844990e-11 7319.6807 -968.457)" style="font-family:'PixelFont-7'; font-size:113px;">Боковое меню</text>
</g>
<g>
	<rect x="7372" y="-1754" class="st49" width="1170" height="644"/>
	<text transform="matrix(1 0 0 1 7768.915 -1415.3828)" style="font-family:'PixelFont-7'; font-size:113px;">Контент</text>
</g>
<g>
	<rect x="7372" y="-1110" class="st50" width="1170" height="352"/>
	<text transform="matrix(1 0 0 1 7775.0215 -882.8301)" style="font-family:'PixelFont-7'; font-size:113px;">Подвал</text>
</g>
<g>
	<rect x="978" y="-61" class="st52" width="113" height="132"/>
	<rect x="978" y="-139" class="st52" width="339" height="90"/>
	<rect x="1204" y="-61" class="st52" width="113" height="132"/>
	<polygon class="st52" points="978,-139 1147.5,-236.11 1314.66,-139 	"/>
	
		<rect x="905.7" y="-238.19" transform="matrix(0.866 -0.5 0.5 0.866 251.0883 489.6883)" class="st52" width="267.23" height="29"/>
	
		<rect x="1122.56" y="-238.56" transform="matrix(-0.866 -0.5 0.5 -0.866 2456.0774 209.9763)" class="st52" width="267.23" height="29"/>
	<rect x="1270" y="-317" class="st52" width="48" height="116"/>
</g>
<rect x="1947.86" y="-664.35" class="st19" width="286" height="343"/>
<line class="st20" x1="1983.86" y1="-625.35" x2="2198.86" y2="-625.35"/>
<line class="st20" x1="1984" y1="-596" x2="2199" y2="-596"/>
<rect x="2132.5" y="-406.5" transform="matrix(4.502005e-11 -1 1 4.502005e-11 2490 1783)" class="st19" width="8" height="106"/>
<rect x="2132" y="-435" transform="matrix(4.486906e-11 -1 1 4.486906e-11 2518.5 1754.5)" class="st19" width="9" height="106"/>
<rect x="2132.5" y="-463.5" transform="matrix(4.479268e-11 -1 1 4.479268e-11 2547 1726)" class="st19" width="8" height="106"/>
<line class="st19" x1="1983.85" y1="-512.35" x2="2062.35" y2="-512.34"/>
<line class="st19" x1="2074.86" y1="-512.35" x2="2122.86" y2="-512.35"/>
<line class="st19" x1="2136.86" y1="-512.35" x2="2167.86" y2="-512.35"/>
<line class="st19" x1="2177.86" y1="-512.35" x2="2193.86" y2="-512.35"/>
<line class="st19" x1="1983.86" y1="-495.35" x2="2136.86" y2="-495.35"/>
<line class="st19" x1="2146.86" y1="-495.35" x2="2193.86" y2="-495.35"/>
<line class="st19" x1="1983.86" y1="-474.35" x2="2034.86" y2="-474.35"/>
<line class="st19" x1="2045.86" y1="-474.35" x2="2136.86" y2="-474.35"/>
<line class="st19" x1="2146.86" y1="-474.35" x2="2193.86" y2="-474.35"/>
<line class="st19" x1="1983.86" y1="-456.35" x2="2193.86" y2="-456.35"/>
<line class="st19" x1="1946.86" y1="-664.35" x2="1964.86" y2="-686.35"/>
<line class="st19" x1="2230.89" y1="-664.29" x2="2248.89" y2="-686.29"/>
<line class="st19" x1="2233.89" y1="-321.29" x2="2251.89" y2="-343.29"/>
<path class="st19" d="M2262.86-536.35"/>
<line class="st19" x1="1960.86" y1="-684.35" x2="2250.86" y2="-684.35"/>
<line class="st19" x1="2249.86" y1="-340.35" x2="2249.86" y2="-686.35"/>
<rect x="1984" y="-420" class="st52" width="51" height="74"/>
<line class="st20" x1="2060" y1="-563" x2="2199" y2="-563"/>
<rect x="1528.5" y="-666.5" class="st19" width="286" height="343"/>
<line class="st20" x1="1568.37" y1="-632.36" x2="1783.37" y2="-632.36"/>
<line class="st20" x1="1568.51" y1="-603.02" x2="1783.51" y2="-603.02"/>
<rect x="1717.01" y="-413.52" transform="matrix(4.502005e-11 -1 1 4.502005e-11 2081.5271 1360.4907)" class="st19" width="8" height="106"/>
<rect x="1716.51" y="-442.02" transform="matrix(4.486906e-11 -1 1 4.486906e-11 2110.0271 1331.9907)" class="st19" width="9" height="106"/>
<rect x="1717.01" y="-470.52" transform="matrix(4.479268e-11 -1 1 4.479268e-11 2138.5271 1303.4907)" class="st19" width="8" height="106"/>
<line class="st19" x1="1568.36" y1="-519.37" x2="1646.86" y2="-519.36"/>
<line class="st19" x1="1659.37" y1="-519.36" x2="1707.37" y2="-519.36"/>
<line class="st19" x1="1721.37" y1="-519.36" x2="1752.37" y2="-519.36"/>
<line class="st19" x1="1762.37" y1="-519.36" x2="1778.37" y2="-519.36"/>
<line class="st19" x1="1568.37" y1="-502.36" x2="1721.37" y2="-502.36"/>
<line class="st19" x1="1731.37" y1="-502.36" x2="1778.37" y2="-502.36"/>
<line class="st19" x1="1568.37" y1="-481.36" x2="1619.37" y2="-481.36"/>
<line class="st19" x1="1630.37" y1="-481.36" x2="1721.37" y2="-481.36"/>
<line class="st19" x1="1731.37" y1="-481.36" x2="1778.37" y2="-481.36"/>
<line class="st19" x1="1568.37" y1="-463.36" x2="1778.37" y2="-463.36"/>
<rect x="1568.51" y="-427.02" class="st52" width="51" height="74"/>
<line class="st20" x1="1569" y1="-570" x2="1708" y2="-570"/>
<rect x="-133.4" y="-1982.64" style="fill:none;" width="539.4" height="77.64"/>
<text transform="matrix(1 0 0 1 -133.4043 -1914.8398)" style="font-family:'PixelFont-7'; font-size:113px;">Submenu</text>
<g>
	<line class="st37" x1="94" y1="-1111" x2="94" y2="-1178"/>
	<line class="st36" x1="90" y1="-1174" x2="185" y2="-1174"/>
	<line class="st36" x1="180" y1="-1178" x2="180" y2="-1110"/>
	<circle class="st36" cx="136" cy="-1218" r="40"/>
	<line class="st37" x1="-40" y1="-1112" x2="-40" y2="-1179"/>
	<line class="st36" x1="-44" y1="-1175" x2="51" y2="-1175"/>
	<line class="st36" x1="46" y1="-1179" x2="46" y2="-1111"/>
	<path class="st36" d="M43-1224c1.46,24.76-18.26,45.17-41,45c-20.86-0.15-40-17.58-40-40c0-22.19,18.77-39.69,40-40
		C21.89-1259.29,39.63-1244.45,43-1224z"/>
	<line class="st53" x1="16.93" y1="-1099.53" x2="16.93" y2="-1183.52"/>
	<line class="st53" x1="11.91" y1="-1178.5" x2="131" y2="-1178.5"/>
	<line class="st53" x1="124.73" y1="-1183.52" x2="124.73" y2="-1098.28"/>
	<circle class="st54" cx="69.58" cy="-1233.66" r="50.14"/>
</g>
<line class="st32" x1="2075" y1="236" x2="2075" y2="73"/>
<line class="st32" x1="1880" y1="73" x2="2075" y2="73"/>
<g>
	<polyline class="st36" points="161,-695 161,-803.83 -7.51,-803.83 -57,-779 -57,-504 71.13,-504 	"/>
	<polyline class="st36" points="-10.57,-504 -11,-480 189.6,-480 189.6,-544.43 	"/>
	<polyline class="st36" points="189.6,-731.32 189.6,-776.26 161,-776.26 	"/>
	<polyline class="st36" points="-8,-804 -8,-779 -57.49,-779.17 	"/>
	<line class="st36" x1="-23" y1="-724" x2="137" y2="-724"/>
	<line class="st36" x1="-23" y1="-698" x2="137" y2="-698"/>
	<line class="st36" x1="-23" y1="-671" x2="137" y2="-671"/>
	<line class="st36" x1="-23" y1="-644" x2="137" y2="-644"/>
	<line class="st36" x1="-23" y1="-617" x2="137" y2="-617"/>
	<line class="st36" x1="-23" y1="-590" x2="137" y2="-590"/>
	<g>
		
			<rect x="143.93" y="-642.66" transform="matrix(-0.9247 -0.3808 0.3808 -0.9247 516.2585 -1043.1686)" class="st36" width="22" height="140"/>
		<path class="st55" d="M137.03-501.62l-16.17,17.36c-1.46,1.49-3.99,0.45-3.99-1.64l0.74-23.71"/>
		
			<rect x="168.13" y="-651.28" transform="matrix(-0.9247 -0.3808 0.3808 -0.9247 600.8901 -1170.6705)" class="st4" width="33" height="13"/>
		<path class="st42" d="M180.13-666.66l23.12,9.52c1.02,0.42,1.51,1.59,1.09,2.61l-2.68,6.5c-0.42,1.02-1.59,1.51-2.61,1.09
			l-23.12-9.52c-1.02-0.42-1.51-1.59-1.09-2.61l2.68-6.5C177.94-666.59,179.11-667.08,180.13-666.66z"/>
	</g>
</g>
<g>
	<polyline class="st56" points="23.5,49.65 23.5,20.5 91.27,20.5 91.27,49.65 91.27,65.84 57.39,65.84 57.39,93.51 57.39,95.72 
		57.39,98.2 57.39,100.68 	"/>
	<rect x="49.03" y="112.81" class="st57" width="16.19" height="16.19"/>
</g>
</svg>
