<?xml version="1.0" encoding="utf-8"?>
<!-- Generator: Adobe Illustrator 25.4.1, SVG Export Plug-In . SVG Version: 6.00 Build 0)  -->
<svg version="1.1" id="Слой_1" xmlns="http://www.w3.org/2000/svg" xmlns:xlink="http://www.w3.org/1999/xlink" x="0px" y="0px"
	 viewBox="0 0 154 149" style="enable-background:new 0 0 154 149;" xml:space="preserve">
<style type="text/css">
	.st0{fill:#FFFFFF;}
	.st1{fill:none;stroke:#000000;stroke-width:9;stroke-miterlimit:10;}
	.st2{fill:none;stroke:#000000;stroke-width:5;stroke-miterlimit:10;}
	.st3{fill:#FFFFFF;stroke:#000000;stroke-width:9;stroke-miterlimit:10;}
	.st4{fill:none;stroke:#000000;stroke-width:7;stroke-miterlimit:10;}
	.st5{stroke:#000000;stroke-width:3;stroke-miterlimit:10;}
	.st6{fill:#FFFFFF;stroke:#000000;stroke-width:4;stroke-miterlimit:10;}
	.st7{stroke:#000000;stroke-width:2;stroke-miterlimit:10;}
	.st8{fill:#FFFFFF;stroke:#000000;stroke-width:2;stroke-miterlimit:10;}
	.st9{stroke:#000000;stroke-miterlimit:10;}
	.st10{fill:none;stroke:#000000;stroke-miterlimit:10;}
	.st11{fill:#FFFFFF;stroke:#000000;stroke-miterlimit:10;}
	.st12{stroke:#FFFFFF;stroke-width:9;stroke-miterlimit:10;}
	.st13{fill:none;stroke:#FFFFFF;stroke-width:7;stroke-miterlimit:10;}
	.st14{fill:#FFFFFF;stroke:#FFFFFF;stroke-width:3;stroke-miterlimit:10;}
	.st15{fill:none;stroke:#FFFFFF;stroke-width:9;stroke-miterlimit:10;}
	.st16{fill:none;stroke:#FFFFFF;stroke-width:5;stroke-miterlimit:10;}
	.st17{fill:#FFFFFF;stroke:#FFFFFF;stroke-width:6;stroke-miterlimit:10;}
	.st18{fill:none;stroke:#FFFFFF;stroke-width:6;stroke-miterlimit:10;}
	.st19{fill:none;stroke:#00FFF0;stroke-width:9;stroke-miterlimit:10;}
	.st20{fill:none;stroke:#00FFF0;stroke-width:20;stroke-miterlimit:10;}
	.st21{fill:#00FFF0;stroke:#00FFFF;stroke-width:9;stroke-miterlimit:10;}
	.st22{fill:#00FFF0;stroke:#00FFF0;stroke-width:9;stroke-miterlimit:10;}
	.st23{fill:none;stroke:#FFFFFF;stroke-width:20;stroke-miterlimit:10;}
	.st24{fill:none;stroke:#FF433F;stroke-width:16;stroke-miterlimit:10;}
	.st25{fill:#FF433F;stroke:#FF433F;stroke-width:16;stroke-miterlimit:10;}
	.st26{fill:none;stroke:#00FFF0;stroke-width:10;stroke-miterlimit:10;}
	.st27{fill:#00FFFF;stroke:#00FFFF;stroke-width:10;stroke-miterlimit:10;}
	.st28{fill:#00FFF0;stroke:#00FFF0;stroke-width:10;stroke-miterlimit:10;}
	.st29{fill:none;stroke:#00FFFF;stroke-width:32;stroke-miterlimit:10;}
	.st30{fill:none;stroke:#00FFFF;stroke-width:30;stroke-miterlimit:10;}
	.st31{fill:none;stroke:#00FFFF;stroke-width:20;stroke-miterlimit:10;}
	.st32{fill:none;stroke:#00FFFF;stroke-width:10;stroke-miterlimit:10;}
	.st33{fill:#FFFFFF;stroke:#00FFFF;stroke-width:13;stroke-miterlimit:10;}
	.st34{fill:#00FFFF;stroke:#00FFFF;stroke-width:15;stroke-miterlimit:10;}
	.st35{fill:#FFFFFF;stroke:#000000;stroke-width:8;stroke-miterlimit:10;}
	.st36{fill:none;stroke:#000000;stroke-width:10;stroke-miterlimit:10;}
	.st37{fill:#FFFFFF;stroke:#000000;stroke-width:10;stroke-miterlimit:10;}
	.st38{fill:#FFFFFF;stroke:#00FFFF;stroke-width:10;stroke-miterlimit:10;}
	.st39{fill:#FFFFFF;stroke:#00FFFF;stroke-width:5;stroke-miterlimit:10;}
	.st40{fill:none;stroke:#00FFFF;stroke-width:5;stroke-miterlimit:10;}
	.st41{fill:none;stroke:#000000;stroke-width:6;stroke-miterlimit:10;}
	.st42{fill:none;stroke:#000000;stroke-width:4;stroke-miterlimit:10;}
	.st43{fill:#00FFFF;stroke:#00FFFF;stroke-width:13;stroke-miterlimit:10;}
	.st44{fill:none;stroke:#000000;stroke-width:13;stroke-miterlimit:10;}
	.st45{fill:none;stroke:#000000;stroke-width:12;stroke-miterlimit:10;}
	.st46{stroke:#000000;stroke-width:5;stroke-miterlimit:10;}
	.st47{stroke:#000000;stroke-width:6;stroke-miterlimit:10;}
	.st48{fill:#00F4FF;}
	.st49{fill:#FF3435;}
	.st50{fill:#F26900;}
	.st51{fill:none;stroke:#000000;stroke-width:23;stroke-miterlimit:10;}
	.st52{fill:#00FFF0;}
	.st53{fill:none;stroke:#000000;stroke-width:15;stroke-miterlimit:10;}
	.st54{fill:#FFFFFF;stroke:#000000;stroke-width:15;stroke-miterlimit:10;}
	.st55{fill:none;stroke:#000000;stroke-width:11;stroke-miterlimit:10;}
	.st56{fill:none;stroke:#000000;stroke-width:17;stroke-miterlimit:10;}
	.st57{stroke:#000000;stroke-width:7;stroke-miterlimit:10;}
</style>
<g>
	<g>
		<rect x="1575.5" y="-2497.5" class="st0" width="309" height="137"/>
		<path d="M1880-2493v128h-300v-128H1880 M1889-2502h-318v146h318V-2502L1889-2502z"/>
	</g>
	<g>
		<line class="st1" x1="1730.5" y1="-2358" x2="1730.5" y2="-2317"/>
	</g>
	<line class="st2" x1="1656.5" y1="-2317.5" x2="1808" y2="-2317.5"/>
</g>
<g>
	<rect x="1433.92" y="-2468.07" class="st0" width="2.98" height="9.71"/>
	<rect x="1433.92" y="-2458.36" class="st0" width="12.89" height="2.65"/>
	<rect x="1443.84" y="-2468.07" class="st0" width="2.98" height="9.71"/>
	<rect x="1443.84" y="-2455.71" class="st0" width="2.98" height="9.71"/>
	<rect x="1452.76" y="-2468.07" class="st0" width="2.98" height="9.71"/>
	<rect x="1452.76" y="-2458.36" class="st0" width="12.89" height="2.65"/>
	<rect x="1462.68" y="-2468.07" class="st0" width="2.98" height="9.71"/>
	<rect x="1462.68" y="-2455.71" class="st0" width="2.98" height="9.71"/>
	<rect x="1424" y="-2468.07" class="st0" width="2.98" height="22.07"/>
	<rect x="1480.53" y="-2468.07" class="st0" width="2.98" height="22.07"/>
	<rect x="1481.52" y="-2468.07" class="st0" width="12.89" height="1.77"/>
	<rect x="1493.42" y="-2466.3" class="st0" width="0.99" height="0"/>
	<rect x="1481.52" y="-2458.36" class="st0" width="12.89" height="1.77"/>
	<rect x="1497.39" y="-2468.07" class="st0" width="2.98" height="22.07"/>
	<rect x="1498.38" y="-2468.07" class="st0" width="12.89" height="1.77"/>
	<rect x="1510.28" y="-2466.3" class="st0" width="0.99" height="0"/>
	<rect x="1498.38" y="-2458.36" class="st0" width="12.89" height="1.77"/>
	<rect x="1508.3" y="-2468.07" class="st0" width="2.98" height="11.48"/>
	<rect x="1515.24" y="-2468.07" class="st0" width="2.98" height="11.48"/>
	<rect x="1516.23" y="-2468.07" class="st0" width="12.89" height="1.77"/>
	<rect x="1528.14" y="-2466.3" class="st0" width="0.99" height="0"/>
	<rect x="1516.23" y="-2458.36" class="st0" width="12.89" height="1.77"/>
	<rect x="1526.15" y="-2456.59" class="st0" width="2.98" height="10.59"/>
	<rect x="1515.24" y="-2447.76" class="st0" width="12.89" height="1.77"/>
	<rect x="1925.83" y="-2559" width="1064.17" height="211"/>
</g>
<g>
	<rect x="1422.5" y="-2422.87" class="st3" width="88.33" height="197.25"/>
	<line class="st4" x1="1512.45" y1="-2224" x2="1562.31" y2="-2245.68"/>
	<line class="st4" x1="1513.54" y1="-2424.5" x2="1562.31" y2="-2408.24"/>
	<line class="st4" x1="1560.14" y1="-2411.49" x2="1560.14" y2="-2242.42"/>
	
		<rect x="1510.92" y="-2257.09" transform="matrix(0.934 -0.3573 0.3573 0.934 904.4108 400.1878)" class="st5" width="48.77" height="18.82"/>
	
		<rect x="1512.41" y="-2265.64" transform="matrix(0.9881 -0.1538 0.1538 0.9881 365.7415 209.2433)" class="st5" width="46.19" height="11.92"/>
	
		<rect x="1512.4" y="-2416.75" transform="matrix(0.9487 0.3162 -0.3162 0.9487 -684.2371 -609.4564)" class="st5" width="46.61" height="7.59"/>
	<rect x="1515.71" y="-2313.95" class="st5" width="42.27" height="9.75"/>
	<rect x="1551.47" y="-2381.15" class="st5" width="5.42" height="31.43"/>
	<rect x="1477.77" y="-2403.91" class="st5" width="10.84" height="45.52"/>
	<rect x="1515.71" y="-2413.66" class="st5" width="29.58" height="89"/>
	<rect x="1514.62" y="-2297.7" class="st5" width="42.27" height="9.75"/>
	<rect x="1432.25" y="-2410.41" class="st5" width="2.17" height="7.59"/>
	<rect x="1432.25" y="-2397.41" class="st5" width="2.17" height="7.59"/>
</g>
<g>
	<rect x="1865" y="-2272" class="st6" width="25" height="39"/>
	<rect x="1875" y="-2266" class="st7" width="5" height="12"/>
	<rect x="1866" y="-2271" class="st8" width="5" height="13"/>
	<rect x="1884" y="-2271" class="st8" width="5" height="13"/>
	<rect x="1863" y="-2257" class="st6" width="1" height="6"/>
	<rect x="1863" y="-2246" class="st6" width="1" height="6"/>
</g>
<g>
	<rect x="1721" y="-2303" width="4" height="13"/>
	<rect x="1877" y="-2299" width="3" height="25"/>
	<rect x="1557" y="-2303" width="323" height="4"/>
	<rect x="1633" y="-2361" width="4" height="59"/>
</g>
<g>
	<rect x="1591.5" y="-2287.5" class="st2" width="258" height="74"/>
	<rect x="1606" y="-2230" width="34" height="8"/>
	<rect x="1652" y="-2230" width="134" height="8"/>
	<rect x="1795" y="-2230" width="34" height="8"/>
	<g>
		<rect x="1609.5" y="-2275.5" class="st2" width="11" height="4"/>
		<rect x="1629.5" y="-2275.5" class="st2" width="11" height="4"/>
		<rect x="1609.5" y="-2263.5" class="st2" width="11" height="4"/>
		<rect x="1629.5" y="-2263.5" class="st2" width="11" height="4"/>
		<rect x="1609.5" y="-2251.5" class="st2" width="11" height="4"/>
		<rect x="1629.5" y="-2251.5" class="st2" width="11" height="4"/>
	</g>
	<g>
		<rect x="1796.5" y="-2275.5" class="st2" width="11" height="4"/>
		<rect x="1816.5" y="-2275.5" class="st2" width="11" height="4"/>
		<rect x="1796.5" y="-2263.5" class="st2" width="11" height="4"/>
		<rect x="1816.5" y="-2263.5" class="st2" width="11" height="4"/>
		<rect x="1796.5" y="-2251.5" class="st2" width="11" height="4"/>
		<rect x="1816.5" y="-2251.5" class="st2" width="11" height="4"/>
	</g>
	<g>
		<rect x="1654.5" y="-2275.5" class="st2" width="11" height="4"/>
		<rect x="1674.5" y="-2275.5" class="st2" width="11" height="4"/>
		<rect x="1654.5" y="-2263.5" class="st2" width="11" height="4"/>
		<rect x="1674.5" y="-2263.5" class="st2" width="11" height="4"/>
		<rect x="1654.5" y="-2251.5" class="st2" width="11" height="4"/>
		<rect x="1674.5" y="-2251.5" class="st2" width="11" height="4"/>
		<rect x="1693.5" y="-2275.5" class="st2" width="11" height="4"/>
		<rect x="1713.5" y="-2275.5" class="st2" width="11" height="4"/>
		<rect x="1693.5" y="-2263.5" class="st2" width="11" height="4"/>
		<rect x="1713.5" y="-2263.5" class="st2" width="11" height="4"/>
		<rect x="1693.5" y="-2251.5" class="st2" width="11" height="4"/>
		<rect x="1713.5" y="-2251.5" class="st2" width="11" height="4"/>
		<rect x="1732.5" y="-2275.5" class="st2" width="11" height="4"/>
		<rect x="1752.5" y="-2275.5" class="st2" width="11" height="4"/>
		<rect x="1732.5" y="-2263.5" class="st2" width="11" height="4"/>
		<rect x="1752.5" y="-2263.5" class="st2" width="11" height="4"/>
		<rect x="1732.5" y="-2251.5" class="st2" width="11" height="4"/>
		<rect x="1752.5" y="-2251.5" class="st2" width="11" height="4"/>
		<rect x="1772.5" y="-2275.5" class="st2" width="11" height="4"/>
		<rect x="1772.5" y="-2263.5" class="st2" width="11" height="4"/>
		<rect x="1772.5" y="-2251.5" class="st2" width="11" height="4"/>
	</g>
</g>
<rect x="1800.5" y="-2409.5" transform="matrix(6.123234e-17 -1 1 6.123234e-17 4181 -572)" class="st9" width="8" height="66"/>
<rect x="1585" y="-2486" width="15" height="15"/>
<rect x="1605" y="-2486" width="2" height="15"/>
<rect x="1605" y="-2486" width="7" height="2"/>
<rect x="1605" y="-2480" width="7" height="2"/>
<rect x="1612" y="-2486" width="2" height="8"/>
<rect x="1616" y="-2486" width="2" height="15"/>
<rect x="1618" y="-2473" width="7" height="2"/>
<rect x="1618" y="-2479" width="7" height="2"/>
<rect x="1618" y="-2486" width="7" height="2"/>
<rect x="1627" y="-2486" width="2" height="15"/>
<rect x="1629" y="-2473" width="7" height="2"/>
<rect x="1629" y="-2486" width="7" height="2"/>
<rect x="1683.5" y="-2451.5" class="st9" width="45" height="45"/>
<line class="st10" x1="1728.5" y1="-2406.5" x2="1739.5" y2="-2413.5"/>
<line class="st10" x1="1727.5" y1="-2450.5" x2="1739.9" y2="-2457.76"/>
<line class="st10" x1="1683.5" y1="-2451.5" x2="1694.5" y2="-2457.5"/>
<line class="st10" x1="1694" y1="-2457.5" x2="1739" y2="-2457.5"/>
<line class="st10" x1="1739.5" y1="-2413" x2="1739.5" y2="-2458"/>
<line class="st10" x1="1725.2" y1="-2431.63" x2="1737.61" y2="-2438.88"/>
<rect x="1693.5" y="-2456.5" class="st9" width="46" height="43"/>
<rect x="1733.5" y="-2450.5" class="st9" width="2" height="1"/>
<rect x="1726.46" y="-2414.65" transform="matrix(0.8632 -0.5049 0.5049 0.8632 1454.7771 544.3199)" class="st9" width="10.58" height="5"/>
<rect x="1719.5" y="-2422.5" class="st9" width="13" height="6"/>
<rect x="1685.18" y="-2454.1" transform="matrix(0.8632 -0.5049 0.5049 0.8632 1469.0468 518.0804)" class="st9" width="10.58" height="5"/>
<rect x="1683.5" y="-2406.5" class="st9" width="1" height="43"/>
<rect x="1807" y="-2530" transform="matrix(6.123234e-17 -1 1 6.123234e-17 4264.5 -649.5)" class="st9" width="1" height="146"/>
<rect x="1610" y="-2480" width="2" height="4"/>
<rect x="1612" y="-2476" width="2" height="5"/>
<g>
	<rect x="1589.5" y="-2383.5" class="st9" width="1" height="14"/>
	<rect x="1596" y="-2377" transform="matrix(6.123234e-17 -1 1 6.123234e-17 3966.5 -773.5)" class="st9" width="1" height="14"/>
</g>
<g>
	
		<rect x="1860" y="-2377" transform="matrix(-3.267951e-07 -1 1 -3.267951e-07 4230.5005 -509.5008)" class="st9" width="1" height="14"/>
	
		<rect x="1866.5" y="-2383.5" transform="matrix(-1 3.267942e-07 -3.267942e-07 -1 3733.9993 -4753.0005)" class="st9" width="1" height="14"/>
</g>
<g>
	
		<rect x="1866.5" y="-2486.5" transform="matrix(-1 3.267960e-07 -3.267960e-07 -1 3733.9993 -4959.0005)" class="st9" width="1" height="14"/>
	
		<rect x="1860" y="-2493" transform="matrix(3.267942e-07 1 -1 3.267942e-07 -625.5006 -4346.499)" class="st9" width="1" height="14"/>
</g>
<g>
	<rect x="1599.5" y="-2451.5" class="st9" width="24" height="3"/>
	<rect x="1626.5" y="-2451.5" class="st9" width="24" height="3"/>
	<rect x="1599.5" y="-2445.5" class="st9" width="13" height="3"/>
	<rect x="1615.5" y="-2445.5" class="st9" width="35" height="3"/>
	<rect x="1636.5" y="-2439.5" class="st9" width="14" height="3"/>
	<rect x="1599.5" y="-2433.5" class="st9" width="24" height="3"/>
	<rect x="1604.5" y="-2439.5" class="st9" width="30" height="3"/>
	<rect x="1599.5" y="-2439.5" class="st9" width="3" height="3"/>
	<rect x="1626.5" y="-2433.5" class="st9" width="3" height="3"/>
	<rect x="1632.5" y="-2433.5" class="st9" width="3" height="3"/>
	<rect x="1638.5" y="-2433.5" class="st9" width="12" height="3"/>
</g>
<rect x="1621" y="-2446" transform="matrix(6.123234e-17 -1 1 6.123234e-17 4045.5 -795.5)" class="st9" width="8" height="51"/>
<rect x="1761.5" y="-2445.5" class="st9" width="84" height="3"/>
<rect x="1761.5" y="-2444.5" class="st9" width="0" height="33"/>
<rect x="1845.5" y="-2444.06" class="st9" width="0" height="32.56"/>
<rect x="1761.5" y="-2412.5" class="st9" width="84" height="1"/>
<rect x="1838.5" y="-2445.5" class="st11" width="3" height="3"/>
<rect x="1835.5" y="-2444.5" class="st11" width="3" height="2"/>
<rect x="1830.5" y="-2426.5" transform="matrix(6.123234e-17 -1 1 6.123234e-17 4247 -585)" class="st9" width="1" height="21"/>
<rect x="1765.5" y="-2430.5" class="st9" width="1" height="15"/>
<g>
	<rect x="1954.86" y="-2552.02" class="st12" width="88.33" height="197.25"/>
	<line class="st13" x1="2044.81" y1="-2353.14" x2="2094.67" y2="-2374.82"/>
	<line class="st13" x1="2045.9" y1="-2553.64" x2="2094.67" y2="-2537.38"/>
	<line class="st13" x1="2092.5" y1="-2540.64" x2="2092.5" y2="-2371.57"/>
	
		<rect x="2043.28" y="-2386.23" transform="matrix(0.934 -0.3573 0.3573 0.934 985.6906 581.8703)" class="st14" width="48.77" height="18.82"/>
	
		<rect x="2044.77" y="-2394.79" transform="matrix(0.9881 -0.1538 0.1538 0.9881 391.9318 289.5701)" class="st14" width="46.19" height="11.92"/>
	
		<rect x="2044.76" y="-2545.89" transform="matrix(0.9487 0.3162 -0.3162 0.9487 -697.7562 -784.4308)" class="st14" width="46.61" height="7.59"/>
	<rect x="2048.07" y="-2443.1" class="st14" width="42.27" height="9.75"/>
	<rect x="2083.83" y="-2510.29" class="st14" width="5.42" height="31.43"/>
	<rect x="2010.13" y="-2533.05" class="st14" width="10.84" height="45.52"/>
	<rect x="2048.07" y="-2542.8" class="st14" width="29.58" height="89"/>
	<rect x="2046.98" y="-2426.84" class="st14" width="42.27" height="9.75"/>
	<rect x="1964.61" y="-2539.55" class="st14" width="2.17" height="7.59"/>
	<rect x="1964.61" y="-2526.55" class="st14" width="2.17" height="7.59"/>
</g>
<g>
	<g>
		<rect x="2112.76" y="-2535.5" width="309" height="137"/>
		<path class="st0" d="M2417.26-2531v128h-300v-128H2417.26 M2426.26-2540h-318v146h318V-2540L2426.26-2540z"/>
	</g>
	<g>
		<line class="st15" x1="2267.76" y1="-2396" x2="2267.76" y2="-2355"/>
	</g>
	<line class="st16" x1="2193.76" y1="-2355.5" x2="2345.26" y2="-2355.5"/>
</g>
<g>
	<path class="st0" d="M2131.99-2494.18h5.65v-5.65h50.85v11.3h-45.2v45.2h45.2v11.3h-50.85v-5.65h-5.65V-2494.18z"/>
	<path class="st0" d="M2199.79-2488.53h11.3v33.9h22.6v-33.9h11.3v62.15h-5.65v5.65h-33.9v-11.3h28.25v-11.3h-28.25v-5.65h-5.65
		V-2488.53z"/>
	<path class="st0" d="M2256.29-2499.83h11.3v16.95h28.25v5.65h5.65v39.55h-5.65v5.65h-39.55V-2499.83z M2267.59-2443.33h22.6v-28.25
		h-22.6V-2443.33z"/>
	<path class="st0" d="M2312.79-2482.88h5.65v-5.65h33.9v5.65h5.65v28.25h-33.9v11.3h28.25v11.3h-33.9v-5.65h-5.65V-2482.88z
		 M2324.09-2465.93h22.6v-11.3h-22.6V-2465.93z"/>
	<path class="st0" d="M2369.29-2488.53h11.3v5.65h5.65v-5.65h22.6v5.65h5.65v11.3h-11.3v-5.65h-16.95v5.65h-5.65v39.55h-11.3
		V-2488.53z"/>
</g>
<rect x="2990" y="-2558" class="st0" width="764.9" height="209.66"/>
<text transform="matrix(1.2222 0 0 1 3010 -2395.5195)" style="font-family:'Roboto-Regular'; font-size:186.4234px;">Games</text>
<g>
	<path class="st0" d="M2459.11-2513.54h18.43v73.73h18.43v-36.87h18.43v36.87h18.43v-73.73h18.43v82.95h-9.22v9.22h-9.22v18.43
		h-18.43v-18.43h-18.43v18.43h-18.43v-18.43h-9.22v-9.22h-9.22V-2513.54z"/>
	<path class="st0" d="M2569.7-2485.89h9.22v-9.22h55.3v9.22h9.22v73.73h-9.22v9.22h-55.3v-9.22h-9.22V-2485.89z M2588.13-2421.38
		H2625v-55.3h-36.87V-2421.38z"/>
	<path class="st0" d="M2661.86-2495.11h18.43v9.22h9.22v-9.22h36.86v9.22h9.22v18.43h-18.43v-9.22h-27.65v9.22h-9.22v64.51h-18.43
		V-2495.11z"/>
	<path class="st0" d="M2754.03-2513.54h18.43v110.59h-18.43V-2513.54z"/>
	<path class="st0" d="M2790.89-2476.68h9.22v-9.22h46.08v-27.65h18.43v110.59h-64.51v-9.22h-9.22V-2476.68z M2809.32-2421.38h36.87
		v-46.08h-36.87V-2421.38z"/>
	<path class="st0" d="M2883.05-2485.89h9.22v-9.22h64.51v18.43h-55.3v18.43h46.08v9.22h9.22v36.87h-9.22v9.22h-64.51v-18.43h55.3
		v-18.43h-46.08v-9.22h-9.22V-2485.89z"/>
</g>
<g>
	<rect x="1956.91" y="-2326.68" class="st3" width="88.33" height="197.25"/>
	<line class="st4" x1="2046.86" y1="-2127.81" x2="2096.72" y2="-2149.49"/>
	<line class="st4" x1="2047.95" y1="-2328.31" x2="2096.72" y2="-2312.05"/>
	<line class="st4" x1="2094.55" y1="-2315.3" x2="2094.55" y2="-2146.23"/>
	
		<rect x="2045.33" y="-2160.9" transform="matrix(0.934 -0.3573 0.3573 0.934 905.3172 597.4755)" class="st5" width="48.77" height="18.82"/>
	
		<rect x="2046.82" y="-2169.45" transform="matrix(0.9881 -0.1538 0.1538 0.9881 357.3062 292.5652)" class="st5" width="46.19" height="11.92"/>
	
		<rect x="2046.81" y="-2320.56" transform="matrix(0.9487 0.3162 -0.3162 0.9487 -626.3948 -773.5154)" class="st5" width="46.61" height="7.59"/>
	<rect x="2050.11" y="-2217.76" class="st5" width="42.27" height="9.75"/>
	<rect x="2085.88" y="-2284.96" class="st5" width="5.42" height="31.43"/>
	<rect x="2012.18" y="-2307.72" class="st5" width="10.84" height="45.52"/>
	<rect x="2050.11" y="-2317.47" class="st5" width="29.58" height="89"/>
	<rect x="2049.03" y="-2201.51" class="st5" width="42.27" height="9.75"/>
	<rect x="1966.66" y="-2314.22" class="st5" width="2.17" height="7.59"/>
	<rect x="1966.66" y="-2301.21" class="st5" width="2.17" height="7.59"/>
</g>
<g>
	<g>
		<path d="M2447.3-2315v136.94h-300V-2315H2447.3 M2456.3-2324h-318v154.94h318V-2324L2456.3-2324z"/>
	</g>
	<g>
		<line class="st1" x1="2297.8" y1="-2171.18" x2="2297.8" y2="-2127.67"/>
	</g>
	<line class="st2" x1="2223.8" y1="-2128.2" x2="2375.3" y2="-2128.2"/>
</g>
<g>
	<rect x="3199" y="-2323" width="713" height="204.76"/>
	<g>
		<g>
			<path class="st0" d="M3380.96-2162.2h-9.1c-0.79-1.52-1.19-8.1-1.39-20.43c-4.96,8.84-15.8,21.92-44.23,21.92
				c-39.43,0-59.67-28.14-59.67-64.74c0-38.44,21.62-67.32,61.9-67.32c29.74,0,49.37,14.62,53.67,38.31h-11
				c-5.82-18-19.22-28.84-43.06-28.84c-34.19,0-49.72,24.95-49.72,57.29c0,29.27,14.98,55.83,48.38,55.83
				c34.13,0,43.63-20.87,43.63-49.01v-1.46h-44.02v-9.49h54.62V-2162.2z"/>
			<path class="st0" d="M3479.35-2179.83c0,8.12,0.78,14.7,1.37,17.63h-9.79c-0.79-2.2-1.37-6.27-1.76-14.06
				c-3.34,6.78-11.94,16.27-32.09,16.27c-22.79,0-32.62-13.83-32.62-27.65c0-20.27,16.72-29.49,46.15-29.49c8.17,0,14.64,0,18.55,0
				v-9.31c0-9.15-2.94-21.35-25.1-21.35c-19.64,0-22.58,9.64-24.72,17.17h-10.18c1.18-10.27,7.95-25.86,35.11-25.86
				c22.47,0,35.07,8.86,35.07,29.15V-2179.83z M3469.35-2209.04c-3.7,0-12.64,0-19.06,0c-21.67,0-35.05,5.32-35.05,21
				c0,11.49,8.73,19.35,22.39,19.35c27.83,0,31.72-17.35,31.72-37.06V-2209.04z"/>
			<path class="st0" d="M3511.55-2230.51c0-7.92,0-16.55-0.2-23.75h9.99c0.2,3.11,0.6,10.96,0.41,16.26
				c4.14-9.15,13.15-18.47,29.4-18.47c13.75,0,24.48,6.45,28.4,18.13c4.93-9.53,14.71-18.13,31.96-18.13
				c15.16,0,30.83,8.14,30.83,33.7v60.57h-10.19v-59.42c0-12.25-4.68-25.57-22.78-25.57c-18.88,0-27.42,14.2-27.42,31.97v53.02h-10
				v-59.22c0-13.35-4.28-25.76-22.2-25.76c-18.87,0-28,15.62-28,34.33v50.65h-10.2V-2230.51z"/>
			<path class="st0" d="M3676.97-2207.03c0.19,23.48,12.81,38.13,31.53,38.13c18.29,0,24.51-9.63,28.02-17.14h10.4
				c-4.11,12.13-14.52,26.05-38.82,26.05c-29.9,0-41.54-24.09-41.54-47.49c0-26.39,13.98-48.99,42.71-48.99
				c30.31,0,39.97,24.45,39.97,41.89c0,2.59,0,5.15-0.2,7.55H3676.97z M3738.66-2215.3c-0.2-18.06-10.66-32.3-29.77-32.3
				c-20.06,0-29.2,13.15-31.33,32.3H3738.66z"/>
			<path class="st0" d="M3773.5-2187.66c3.31,11.86,12.28,18.98,27.67,18.98c17.31,0,24.3-7.46,24.3-17.66
				c0-10.39-4.7-15.48-26.51-20.42c-25.48-5.75-31.74-12.97-31.74-25.14c0-12.72,10.21-24.56,32.56-24.56
				c22.36,0,32.95,12.76,34.5,25.82h-10.18c-1.75-7.63-8.13-17.14-24.74-17.14c-16.9,0-21.76,7.82-21.76,15.12
				c0,8.38,4.67,12.57,24.03,16.97c27.8,6.28,34.62,14.79,34.62,28.6c0,16.72-14.48,27.11-35.3,27.11
				c-22.55,0-35.11-11.1-37.84-27.67H3773.5z"/>
		</g>
	</g>
</g>
<g>
	<g>
		<path d="M2524.34-2126.43l-45.35-172.09h13.64c11.1,42.11,35.54,135.97,39.25,156.1h0.23c3.11-16.31,29.8-110.7,41.24-156.1h14.43
			c10.72,41.85,36.74,142.16,39.38,155.82h0.23c5.16-24.63,32.31-115.07,43.44-155.82h13.34l-49.99,172.09h-14.99
			c-10.73-40.51-36.01-139.14-38.88-154.21h-0.23c-4.25,22.55-29.32,111.6-40.96,154.21H2524.34z"/>
		<path d="M2804.22-2188.21c0,34.28-18.12,64.73-53.1,64.73c-31.75,0-51.48-27.32-51.48-64.47c0-35.26,18.59-64.49,52.66-64.49
			C2783.55-2252.44,2804.22-2226.85,2804.22-2188.21z M2712.53-2187.96c0,29.16,14.88,52.57,39.52,52.57
			c25.11,0,39.28-21.73,39.28-52.57c0-28.97-13.95-52.58-39.75-52.58C2725.12-2240.54,2712.53-2217.42,2712.53-2187.96z"/>
		<path d="M2833.11-2216.02c0-20.48-0.23-29.39-0.23-33.47h11.94c0.24,3.91,0.48,11.88,0.48,27.43
			c6.76-18.36,21.71-29.42,40.72-30.38v13.72c-24.36,1.67-40.72,19.14-40.72,48.53v63.76h-12.19V-2216.02z"/>
		<path d="M2909.47-2126.43v-181.21h12.19v181.21H2909.47z"/>
		<path d="M3050.69-2307.64v145.81c0,11.8,0,23.12,0.23,35.4h-11.7c-0.47-2.97-0.72-14.42-0.72-20.5
			c-5.86,14.89-18.92,23.45-39.25,23.45c-30.46,0-48.75-26.06-48.75-63.01c0-37.9,19.93-65.95,51.84-65.95
			c23.29,0,32.66,10.49,36.16,18.31v-73.51H3050.69z M2963.4-2187c0,33.5,16.47,51.59,36.53,51.59c30.75,0,39.06-22.33,39.06-55.45
			c0-31.51-7.17-49.67-36.98-49.67C2978.95-2240.52,2963.4-2221.2,2963.4-2187z"/>
		<path d="M3089.43-2160.46c3.95,15.86,14.66,25.36,33.04,25.36c20.66,0,29.01-9.97,29.01-23.61c0-13.89-5.61-20.7-31.66-27.29
			c-30.42-7.68-37.89-17.34-37.89-33.61c0-17.01,12.19-32.83,38.88-32.83c26.69,0,39.34,17.06,41.19,34.51h-12.15
			c-2.09-10.21-9.71-22.91-29.53-22.91c-20.18,0-25.98,10.46-25.98,20.21c0,11.21,5.58,16.8,28.7,22.68
			c33.19,8.39,41.33,19.78,41.33,38.23c0,22.35-17.29,36.24-42.15,36.24c-26.92,0-41.92-14.84-45.18-36.98H3089.43z"/>
	</g>
</g>
<line class="st17" x1="2315" y1="-2417" x2="2402" y2="-2417"/>
<line class="st18" x1="2125" y1="-2519" x2="2125" y2="-2416"/>
<rect x="1907" y="-2573" width="20" height="228"/>
<rect x="2206" y="-2465" class="st0" width="14" height="3"/>
<rect x="2203" y="-2465" width="9" height="3"/>
<rect x="2267" y="-2494" class="st0" width="4" height="9"/>
<rect x="2264" y="-2494" width="4" height="9"/>
<rect x="2380" y="-2460" class="st0" width="3" height="22"/>
<rect x="2385" y="-2445" class="st0" width="1" height="1"/>
<rect x="2378" y="-2460" width="3" height="22"/>
<rect x="2183" y="-2439" width="7" height="5"/>
<rect x="2337" y="-2491" width="22" height="5"/>
<line class="st19" x1="4321" y1="-1961.5" x2="4520" y2="-1961.5"/>
<line class="st19" x1="4315" y1="-1978.5" x2="4525" y2="-1978.5"/>
<g>
	<line class="st19" x1="4434" y1="-1778.5" x2="4550" y2="-1778.5"/>
	<line class="st19" x1="4585.5" y1="-1930.5" x2="4638.5" y2="-1716.5"/>
	<line class="st19" x1="4589.5" y1="-1691.5" x2="4640.5" y2="-1719.5"/>
	<line class="st19" x1="4526.5" y1="-1777.5" x2="4594.5" y2="-1691.5"/>
</g>
<g>
	<line class="st19" x1="4345.5" y1="-1959.5" x2="4359.5" y2="-1901.5"/>
	<line class="st19" x1="4356" y1="-1903.5" x2="4417" y2="-1903.5"/>
</g>
<g>
	<line class="st19" x1="4496" y1="-1958.5" x2="4482" y2="-1900.5"/>
	<line class="st19" x1="4486" y1="-1902.5" x2="4425" y2="-1902.5"/>
</g>
<g>
	<line class="st19" x1="4408" y1="-1778.5" x2="4292" y2="-1778.5"/>
	<line class="st19" x1="4256.32" y1="-1930.31" x2="4203.32" y2="-1716.31"/>
	<line class="st19" x1="4252.32" y1="-1691.31" x2="4201.32" y2="-1719.31"/>
	<line class="st19" x1="4315.32" y1="-1777.31" x2="4247.32" y2="-1691.31"/>
</g>
<g>
	<line class="st19" x1="4239.5" y1="-1954.5" x2="4315.5" y2="-1988.5"/>
	<line class="st19" x1="4252.08" y1="-1929.04" x2="4328.08" y2="-1963.04"/>
	<line class="st19" x1="4310.5" y1="-1989.5" x2="4324.5" y2="-1960.5"/>
	<line class="st19" x1="4242.08" y1="-1958.54" x2="4256.08" y2="-1929.54"/>
</g>
<g>
	<line class="st19" x1="4601.38" y1="-1954.77" x2="4525.38" y2="-1988.77"/>
	<line class="st19" x1="4588.79" y1="-1929.31" x2="4512.79" y2="-1963.31"/>
	<line class="st19" x1="4530.38" y1="-1989.77" x2="4516.38" y2="-1960.77"/>
	<line class="st19" x1="4598.79" y1="-1958.81" x2="4584.79" y2="-1929.81"/>
</g>
<g>
	<line class="st19" x1="4295.5" y1="-1780.5" x2="4254.5" y2="-1727.5"/>
	<line class="st19" x1="4248.5" y1="-1719.5" x2="4242.5" y2="-1712.5"/>
</g>
<g>
	<line class="st19" x1="4546.09" y1="-1779.87" x2="4587.09" y2="-1726.87"/>
	<line class="st19" x1="4593.09" y1="-1718.87" x2="4599.09" y2="-1711.87"/>
</g>
<line class="st19" x1="4374" y1="-1885.5" x2="4393" y2="-1885.5"/>
<line class="st19" x1="4449" y1="-1885.5" x2="4468" y2="-1885.5"/>
<line class="st19" x1="4341.5" y1="-1839" x2="4341.5" y2="-1813"/>
<g>
	<line class="st19" x1="4358.5" y1="-1856" x2="4358.5" y2="-1830"/>
	<line class="st19" x1="4358.5" y1="-1822" x2="4358.5" y2="-1796"/>
	<line class="st19" x1="4342" y1="-1834.5" x2="4362" y2="-1834.5"/>
	<line class="st19" x1="4342" y1="-1817.5" x2="4362" y2="-1817.5"/>
	<line class="st19" x1="4355" y1="-1852.5" x2="4381" y2="-1852.5"/>
</g>
<g>
	<line class="st19" x1="4376.5" y1="-1796" x2="4376.5" y2="-1822"/>
	<line class="st19" x1="4376.5" y1="-1830" x2="4376.5" y2="-1856"/>
	<line class="st19" x1="4393" y1="-1817.5" x2="4373" y2="-1817.5"/>
	<line class="st19" x1="4393" y1="-1834.5" x2="4373" y2="-1834.5"/>
	<line class="st19" x1="4380" y1="-1799.5" x2="4354" y2="-1799.5"/>
</g>
<line class="st19" x1="4393.5" y1="-1839" x2="4393.5" y2="-1813"/>
<path class="st19" d="M4432.5-1932.5c0.23,15.57-24.23,15.57-24,0C4408.27-1948.07,4432.73-1948.07,4432.5-1932.5z"/>
<g>
	<path class="st19" d="M4319.5-1894.5c0.25,16.87-26.25,16.87-26,0C4293.25-1911.37,4319.75-1911.37,4319.5-1894.5z"/>
	<path class="st19" d="M4336.22-1894.82c0.56,38.05-59.21,38.05-58.65,0C4277.02-1932.87,4336.78-1932.87,4336.22-1894.82z"/>
</g>
<g>
	<path class="st19" d="M4500.39-1825.46c0.25,16.87-26.25,16.87-26,0C4474.14-1842.33,4500.64-1842.33,4500.39-1825.46z"/>
	<path class="st19" d="M4517.11-1825.79c0.56,38.05-59.21,38.05-58.65,0C4457.91-1863.83,4517.67-1863.83,4517.11-1825.79z"/>
</g>
<path class="st19" d="M4542.5-1917.5c0.17,11.68-18.17,11.68-18,0C4524.33-1929.18,4542.67-1929.18,4542.5-1917.5z"/>
<path class="st19" d="M4542.5-1871.5c0.17,11.68-18.17,11.68-18,0C4524.33-1883.18,4542.67-1883.18,4542.5-1871.5z"/>
<path class="st19" d="M4565.5-1894.5c0.17,11.68-18.17,11.68-18,0C4547.33-1906.18,4565.67-1906.18,4565.5-1894.5z"/>
<path class="st19" d="M4519.5-1894.5c0.17,11.68-18.17,11.68-18,0C4501.33-1906.18,4519.67-1906.18,4519.5-1894.5z"/>
<path class="st19" d="M4422.5-1777.5c-1.78,0.26-2.26-0.22-2-2C4422.28-1779.76,4422.76-1779.28,4422.5-1777.5z"/>
<g>
	<line class="st19" x1="3597.5" y1="-1020.5" x2="3597.5" y2="-1223.5"/>
	<line class="st19" x1="3545.5" y1="-1020" x2="3545.5" y2="-1434.5"/>
	<line class="st19" x1="3704.74" y1="-1020.47" x2="3704.5" y2="-1463.5"/>
	<line class="st19" x1="3597.5" y1="-1233" x2="3597.5" y2="-1463.5"/>
	<line class="st19" x1="3545.5" y1="-1024.5" x2="3709.5" y2="-1024.5"/>
	<line class="st19" x1="3542" y1="-1052.5" x2="3601.5" y2="-1052.5"/>
	<line class="st19" x1="3541.5" y1="-1430.5" x2="3597.5" y2="-1430.5"/>
	<line class="st19" x1="3593.5" y1="-1459.5" x2="3708.5" y2="-1459.5"/>
	<line class="st19" x1="3638.5" y1="-1455.5" x2="3638.5" y2="-1213.5"/>
	<line class="st19" x1="3664.5" y1="-1462" x2="3664.5" y2="-1351.5"/>
	<line class="st19" x1="3664.34" y1="-1325.65" x2="3664.5" y2="-1214.5"/>
	<line class="st19" x1="3637.5" y1="-1218.5" x2="3668.5" y2="-1218.5"/>
	<line class="st19" x1="3664.5" y1="-1344" x2="3664.5" y2="-1334.5"/>
	<line class="st19" x1="3562.5" y1="-1417.5" x2="3562.5" y2="-1373.5"/>
	<line class="st19" x1="3580.5" y1="-1417.5" x2="3580.5" y2="-1373.5"/>
	<line class="st19" x1="3558.5" y1="-1413.5" x2="3584.5" y2="-1413.5"/>
	<line class="st19" x1="3558" y1="-1377.5" x2="3584.5" y2="-1377.5"/>
	<line class="st19" x1="3563.17" y1="-1109.68" x2="3563.17" y2="-1065.68"/>
	<line class="st19" x1="3581.17" y1="-1109.68" x2="3581.17" y2="-1065.68"/>
	<line class="st19" x1="3559.17" y1="-1105.68" x2="3585.17" y2="-1105.68"/>
	<line class="st19" x1="3558.67" y1="-1069.68" x2="3585.17" y2="-1069.68"/>
	<line class="st19" x1="3571.5" y1="-1135" x2="3571.5" y2="-1118.5"/>
	<circle class="st19" cx="3651.5" cy="-1191.5" r="9"/>
	<circle class="st19" cx="3651.5" cy="-1087.5" r="13"/>
	<g>
		<line class="st19" x1="3717" y1="-1143.5" x2="3833" y2="-1143.5"/>
		<line class="st19" x1="3868.5" y1="-1295.5" x2="3921.5" y2="-1081.5"/>
		<line class="st19" x1="3872.5" y1="-1056.5" x2="3923.5" y2="-1084.5"/>
		<line class="st19" x1="3809.5" y1="-1142.5" x2="3877.5" y2="-1056.5"/>
	</g>
	<g>
		<line class="st19" x1="3779" y1="-1323.5" x2="3765" y2="-1265.5"/>
		<line class="st19" x1="3769" y1="-1267.5" x2="3708" y2="-1267.5"/>
	</g>
	<g>
		<line class="st19" x1="3884.38" y1="-1319.77" x2="3808.38" y2="-1353.77"/>
		<line class="st19" x1="3871.79" y1="-1294.31" x2="3795.79" y2="-1328.31"/>
		<line class="st19" x1="3813.38" y1="-1354.77" x2="3799.38" y2="-1325.77"/>
		<line class="st19" x1="3881.79" y1="-1323.81" x2="3867.79" y2="-1294.81"/>
	</g>
	<g>
		<line class="st19" x1="3829.09" y1="-1144.87" x2="3870.09" y2="-1091.87"/>
		<line class="st19" x1="3876.09" y1="-1083.87" x2="3882.09" y2="-1076.87"/>
	</g>
	<line class="st19" x1="3732" y1="-1250.5" x2="3751" y2="-1250.5"/>
	<g>
		<path class="st19" d="M3783.39-1190.46c0.25,16.87-26.25,16.87-26,0C3757.14-1207.33,3783.64-1207.33,3783.39-1190.46z"/>
		<path class="st19" d="M3800.11-1190.79c0.56,38.05-59.21,38.05-58.65,0C3740.91-1228.83,3800.67-1228.83,3800.11-1190.79z"/>
	</g>
	<path class="st19" d="M3825.5-1282.5c0.17,11.68-18.17,11.68-18,0C3807.33-1294.18,3825.67-1294.18,3825.5-1282.5z"/>
	<path class="st19" d="M3825.5-1236.5c0.17,11.68-18.17,11.68-18,0C3807.33-1248.18,3825.67-1248.18,3825.5-1236.5z"/>
	<path class="st19" d="M3848.5-1259.5c0.17,11.68-18.17,11.68-18,0C3830.33-1271.18,3848.67-1271.18,3848.5-1259.5z"/>
	<path class="st19" d="M3802.5-1259.5c0.17,11.68-18.17,11.68-18,0C3784.33-1271.18,3802.67-1271.18,3802.5-1259.5z"/>
	<path class="st19" d="M3705.5-1142.5c-1.78,0.26-2.26-0.22-2-2C3705.28-1144.76,3705.76-1144.28,3705.5-1142.5z"/>
	<line class="st19" x1="3704.5" y1="-1342.5" x2="3807.5" y2="-1342.5"/>
	<line class="st19" x1="3703" y1="-1325.5" x2="3806" y2="-1325.5"/>
	<path class="st19" d="M3722.5-1295c0,1.17,0.02,9.21-6,12.5c-2.8,1.53-7.31,2.25-10,0c-0.92-0.77-1.98-2.18-2-12
		c-0.02-8.39,0.01-12.62,2-14c3.16-2.2,8.84-0.02,12,3C3722.48-1301.7,3722.5-1296.53,3722.5-1295z"/>
</g>
<rect x="2406.5" y="-920.5" class="st19" width="286" height="343"/>
<line class="st20" x1="2442.5" y1="-881.5" x2="2657.5" y2="-881.5"/>
<line class="st20" x1="2442.5" y1="-839.5" x2="2657.5" y2="-839.5"/>
<rect x="2447.5" y="-802.5" class="st19" width="106" height="106"/>
<rect x="2588.5" y="-802.5" class="st19" width="8" height="106"/>
<rect x="2616.5" y="-802.5" class="st19" width="9" height="106"/>
<rect x="2645.5" y="-802.5" class="st19" width="8" height="106"/>
<line class="st19" x1="2447.5" y1="-663.5" x2="2526" y2="-663.5"/>
<line class="st19" x1="2538.5" y1="-663.5" x2="2586.5" y2="-663.5"/>
<line class="st19" x1="2600.5" y1="-663.5" x2="2631.5" y2="-663.5"/>
<line class="st19" x1="2641.5" y1="-663.5" x2="2657.5" y2="-663.5"/>
<line class="st19" x1="2447.5" y1="-646.5" x2="2600.5" y2="-646.5"/>
<line class="st19" x1="2610.5" y1="-646.5" x2="2657.5" y2="-646.5"/>
<line class="st19" x1="2447.5" y1="-625.5" x2="2498.5" y2="-625.5"/>
<line class="st19" x1="2509.5" y1="-625.5" x2="2600.5" y2="-625.5"/>
<line class="st19" x1="2610.5" y1="-625.5" x2="2657.5" y2="-625.5"/>
<line class="st19" x1="2447.5" y1="-607.5" x2="2657.5" y2="-607.5"/>
<line class="st19" x1="2405.5" y1="-920.5" x2="2423.5" y2="-942.5"/>
<line class="st19" x1="2689.53" y1="-920.45" x2="2707.53" y2="-942.45"/>
<line class="st19" x1="2692.53" y1="-577.45" x2="2710.53" y2="-599.45"/>
<path class="st19" d="M2721.5-792.5"/>
<line class="st19" x1="2419.5" y1="-940.5" x2="2709.5" y2="-940.5"/>
<line class="st19" x1="2708.5" y1="-596.5" x2="2708.5" y2="-942.5"/>
<circle class="st19" cx="2500.5" cy="-749.5" r="38"/>
<line class="st19" x1="2464.5" y1="-761.5" x2="2533.5" y2="-761.5"/>
<line class="st19" x1="2464.5" y1="-738.5" x2="2533.5" y2="-738.5"/>
<ellipse class="st19" cx="2500.5" cy="-749.5" rx="13" ry="38"/>
<rect x="2804.47" y="-485.88" class="st19" width="286" height="343"/>
<line class="st19" x1="2803.47" y1="-485.88" x2="2821.47" y2="-507.88"/>
<line class="st19" x1="3087.51" y1="-485.83" x2="3105.51" y2="-507.83"/>
<line class="st19" x1="3090.51" y1="-142.83" x2="3108.51" y2="-164.83"/>
<path class="st19" d="M3119.47-357.88"/>
<line class="st19" x1="2817.47" y1="-505.88" x2="3107.47" y2="-505.88"/>
<line class="st19" x1="3106.47" y1="-161.88" x2="3106.47" y2="-507.88"/>
<rect x="2817.5" y="-501.5" class="st21" width="283" height="13"/>
<rect x="3096.5" y="-491.5" class="st22" width="4" height="333"/>
<rect x="2803.5" y="-476.5" class="st22" width="278" height="324"/>
<g>
	<line class="st23" x1="2844.47" y1="-449.88" x2="3059.47" y2="-449.88"/>
	<line class="st23" x1="2844.47" y1="-407.88" x2="3059.47" y2="-407.88"/>
	<rect x="2849.47" y="-370.88" class="st15" width="106" height="106"/>
	<rect x="2990.47" y="-370.88" class="st15" width="8" height="106"/>
	<rect x="3018.47" y="-370.88" class="st15" width="9" height="106"/>
	<rect x="3047.47" y="-370.88" class="st15" width="8" height="106"/>
	<line class="st15" x1="2849.47" y1="-231.88" x2="2927.97" y2="-231.88"/>
	<line class="st15" x1="2940.47" y1="-231.88" x2="2988.47" y2="-231.88"/>
	<line class="st15" x1="3002.47" y1="-231.88" x2="3033.47" y2="-231.88"/>
	<line class="st15" x1="3043.47" y1="-231.88" x2="3059.47" y2="-231.88"/>
	<line class="st15" x1="2849.47" y1="-214.88" x2="3002.47" y2="-214.88"/>
	<line class="st15" x1="3012.47" y1="-214.88" x2="3059.47" y2="-214.88"/>
	<line class="st15" x1="2849.47" y1="-193.88" x2="2900.47" y2="-193.88"/>
	<line class="st15" x1="2911.47" y1="-193.88" x2="3002.47" y2="-193.88"/>
	<line class="st15" x1="3012.47" y1="-193.88" x2="3059.47" y2="-193.88"/>
	<line class="st15" x1="2849.47" y1="-175.88" x2="3059.47" y2="-175.88"/>
	<circle class="st15" cx="2902.47" cy="-317.88" r="38"/>
	<line class="st15" x1="2866.47" y1="-329.88" x2="2935.47" y2="-329.88"/>
	<line class="st15" x1="2866.47" y1="-306.88" x2="2935.47" y2="-306.88"/>
	<ellipse class="st15" cx="2902.47" cy="-317.88" rx="13" ry="38"/>
</g>
<path class="st19" d="M3309.68-307.66L3309.68-307.66c-22.41,23.27-59.44,23.97-82.72,1.56v0c-23.27-22.41-23.97-59.44-1.56-82.72
	l0,0c22.41-23.27,59.44-23.97,82.72-1.56v0C3331.39-367.97,3332.09-330.94,3309.68-307.66z"/>
<rect x="3362.61" y="-298.79" transform="matrix(0.6936 -0.7203 0.7203 0.6936 1213.6078 2350.0239)" class="st19" width="13.55" height="94.28"/>
<line class="st19" x1="3308.5" y1="-310.5" x2="3333.5" y2="-286.5"/>
<line class="st19" x1="3229.5" y1="-376.5" x2="3270.76" y2="-376.5"/>
<line class="st19" x1="3275.92" y1="-376.5" x2="3305.5" y2="-376.5"/>
<line class="st19" x1="3229.5" y1="-363.61" x2="3254.43" y2="-363.61"/>
<line class="st19" x1="3257.87" y1="-363.61" x2="3306" y2="-363.61"/>
<line class="st19" x1="3229.5" y1="-350.71" x2="3272.48" y2="-350.71"/>
<line class="st19" x1="3306" y1="-350.71" x2="3292.25" y2="-350.71"/>
<line class="st19" x1="3229.5" y1="-338.68" x2="3266.46" y2="-338.68"/>
<line class="st19" x1="3269.9" y1="-338.68" x2="3306" y2="-338.68"/>
<line class="st19" x1="3229.5" y1="-324.5" x2="3305.5" y2="-324.5"/>
<line class="st19" x1="3290.1" y1="-350.71" x2="3276.35" y2="-350.71"/>
<polygon class="st24" points="3685.15,-477.76 3900.65,-104.5 3469.65,-104.5 "/>
<rect x="3681" y="-369" class="st24" width="8" height="177"/>
<rect x="3681.19" y="-152" class="st24" width="8" height="8.07"/>
<rect x="4264" y="-186" class="st25" width="50" height="50"/>
<rect x="4198" y="-124" class="st25" width="50" height="50"/>
<rect x="4132" y="-190" class="st25" width="50" height="50"/>
<rect x="4330" y="-252" class="st25" width="50" height="50"/>
<rect x="4000" y="-322" class="st25" width="50" height="50"/>
<rect x="4396" y="-318" class="st25" width="50" height="50"/>
<rect x="4000" y="-385" class="st25" width="50" height="50"/>
<rect x="4396" y="-381" class="st25" width="50" height="50"/>
<rect x="4066" y="-256" class="st25" width="50" height="50"/>
<rect x="4000" y="-448" class="st25" width="50" height="50"/>
<rect x="4396" y="-444" class="st25" width="50" height="50"/>
<rect x="4066" y="-512" class="st25" width="50" height="50"/>
<rect x="4330" y="-508" class="st25" width="50" height="50"/>
<rect x="4264" y="-508" class="st25" width="50" height="50"/>
<rect x="4132" y="-512" class="st25" width="50" height="50"/>
<rect x="4198" y="-448" class="st25" width="50" height="50"/>
<g>
	
		<rect x="4831.27" y="-596.5" transform="matrix(0.7071 -0.7071 0.7071 0.7071 1779.3927 3380.1899)" class="st25" width="277.36" height="277.36"/>
	
		<rect x="5006.13" y="-427.48" transform="matrix(0.7071 -0.7071 0.7071 0.7071 1706.9391 3554.7385)" class="st25" width="276.58" height="288.79"/>
	
		<rect x="5172.36" y="-579.18" transform="matrix(0.7071 -0.7071 0.7071 0.7071 1867.0502 3626.4495)" class="st25" width="277.36" height="277.36"/>
</g>
<g>
	<rect x="4508" y="141" class="st26" width="25" height="25"/>
	<rect x="4533" y="116" class="st26" width="50" height="25"/>
	<rect x="4583" y="141" class="st26" width="25" height="25"/>
	<rect x="4483" y="166" class="st26" width="25" height="74"/>
	<rect x="4533" y="265" class="st26" width="25" height="25"/>
	<rect x="4508" y="240" class="st26" width="25" height="25"/>
	<rect x="4608" y="166" class="st26" width="25" height="25"/>
	<rect x="4608" y="340" class="st26" width="25" height="25"/>
	<g>
		<rect x="4558" y="290" class="st26" width="25" height="25"/>
		<rect x="4583" y="315" class="st26" width="25" height="25"/>
	</g>
	<rect x="4708" y="141" transform="matrix(-1 -4.489266e-11 4.489266e-11 -1 9441 307)" class="st26" width="25" height="25"/>
	<rect x="4658" y="116" transform="matrix(-1 -4.489266e-11 4.489266e-11 -1 9366 257)" class="st26" width="50" height="25"/>
	<rect x="4633" y="141" transform="matrix(-1 -4.489266e-11 4.489266e-11 -1 9291 307)" class="st26" width="25" height="25"/>
	<rect x="4733" y="166" transform="matrix(-1 -4.489266e-11 4.489266e-11 -1 9491 406)" class="st26" width="25" height="74"/>
	<rect x="4683" y="265" transform="matrix(-1 -4.489266e-11 4.489266e-11 -1 9391 555)" class="st26" width="25" height="25"/>
	<rect x="4708" y="240" transform="matrix(-1 -4.489266e-11 4.489266e-11 -1 9441 505)" class="st26" width="25" height="25"/>
	<g>
		<rect x="4658" y="290" transform="matrix(-1 -4.489266e-11 4.489266e-11 -1 9341 605)" class="st26" width="25" height="25"/>
		<rect x="4633" y="315" transform="matrix(-1 -4.489266e-11 4.489266e-11 -1 9291 655)" class="st26" width="25" height="25"/>
	</g>
</g>
<g>
	<rect x="4727.65" y="520.46" class="st26" width="25" height="25"/>
	<rect x="4752.65" y="495.46" class="st26" width="50" height="25"/>
	<rect x="4802.65" y="520.46" class="st26" width="25" height="25"/>
	<rect x="4702.65" y="545.46" class="st26" width="25" height="98.54"/>
	<rect x="4753" y="669" class="st26" width="25" height="25"/>
	<rect x="4728" y="644" class="st26" width="25" height="25"/>
	<rect x="4827.65" y="545.46" class="st26" width="25" height="25"/>
	<rect x="4828" y="744" class="st26" width="25" height="25"/>
	<g>
		<rect x="4778" y="694" class="st26" width="25" height="25"/>
		<rect x="4803" y="719" class="st26" width="25" height="25"/>
	</g>
	
		<rect x="4927.65" y="520.46" transform="matrix(-1 -4.489266e-11 4.489266e-11 -1 9880.2979 1065.9149)" class="st26" width="25" height="25"/>
	
		<rect x="4877.65" y="495.46" transform="matrix(-1 -4.489266e-11 4.489266e-11 -1 9805.2979 1015.9149)" class="st26" width="50" height="25"/>
	
		<rect x="4852.65" y="520.46" transform="matrix(-1 -4.489266e-11 4.489266e-11 -1 9730.2979 1065.9149)" class="st26" width="25" height="25"/>
	
		<rect x="4952.65" y="545.46" transform="matrix(-1 -5.980828e-11 5.980828e-11 -1 9930.2979 1189.4574)" class="st26" width="25" height="98.54"/>
	<rect x="4903" y="669" transform="matrix(-1 -4.489266e-11 4.489266e-11 -1 9831 1363)" class="st26" width="25" height="25"/>
	<rect x="4928" y="644" transform="matrix(-1 -4.489266e-11 4.489266e-11 -1 9881 1313)" class="st26" width="25" height="25"/>
	<g>
		<rect x="4878" y="694" transform="matrix(-1 -4.489266e-11 4.489266e-11 -1 9781 1413)" class="st26" width="25" height="25"/>
		<rect x="4853" y="719" transform="matrix(-1 -4.489266e-11 4.489266e-11 -1 9731 1463)" class="st26" width="25" height="25"/>
	</g>
</g>
<g>
	<rect x="5164" y="290" class="st26" width="285" height="247"/>
	<line class="st26" x1="5164" y1="341" x2="5449" y2="341"/>
	<g>
		<rect x="5215" y="254" class="st27" width="30" height="64"/>
		<rect x="5368" y="254" class="st28" width="30" height="64"/>
	</g>
	<g>
		<rect x="5215" y="386" class="st28" width="37" height="37"/>
		<rect x="5250" y="386" class="st26" width="37" height="37"/>
		<rect x="5287" y="386" class="st26" width="37" height="37"/>
		<rect x="5324" y="386" class="st26" width="37" height="37"/>
		<rect x="5361" y="386" class="st26" width="37" height="37"/>
		<g>
			<rect x="5215" y="423" class="st26" width="37" height="37"/>
			<rect x="5250" y="423" class="st26" width="37" height="37"/>
			<rect x="5287" y="423" class="st26" width="37" height="37"/>
			<rect x="5324" y="423" class="st26" width="37" height="37"/>
			<rect x="5361" y="423" class="st26" width="37" height="37"/>
		</g>
		<rect x="5215" y="460" class="st26" width="37" height="37"/>
		<rect x="5250" y="460" class="st26" width="37" height="37"/>
		<rect x="5287" y="460" class="st26" width="37" height="37"/>
		<rect x="5324" y="460" class="st26" width="37" height="37"/>
		<rect x="5361" y="460" class="st28" width="37" height="37"/>
	</g>
</g>
<line class="st29" x1="2394.01" y1="-1141" x2="2393.51" y2="-1368.5"/>
<rect x="2469.87" y="-1392.96" transform="matrix(0.7071 -0.7071 0.7071 0.7071 1628.9773 1373.4302)" class="st30" width="5" height="226.65"/>
<rect x="2312.82" y="-1393.22" transform="matrix(-0.7071 -0.7071 0.7071 -0.7071 4857.5186 -547.7372)" class="st30" width="5" height="226.65"/>
<rect x="2469.51" y="-1489.01" transform="matrix(0.7071 -0.7071 0.7071 0.7071 1696.7876 1345.0498)" class="st30" width="5" height="226.65"/>
<rect x="2312.47" y="-1489.27" transform="matrix(-0.7071 -0.7071 0.7071 -0.7071 4924.8296 -711.945)" class="st30" width="5" height="226.65"/>
<rect x="1535" y="-1488" class="st31" width="2" height="278"/>
<rect x="1520" y="-1561" class="st30" width="30" height="107"/>
<line class="st32" x1="1498" y1="-1212" x2="1497.5" y2="-1343.02"/>
<line class="st32" x1="1563.09" y1="-1314.85" x2="1563.09" y2="-1430.89"/>
<line class="st32" x1="1505" y1="-1349" x2="1505.09" y2="-1422.89"/>
<line class="st32" x1="1570.09" y1="-1199.85" x2="1570" y2="-1300"/>
<rect x="1510" y="-1570" class="st33" width="50" height="126"/>
<line class="st32" x1="1483.13" y1="-1282.79" x2="1483.13" y2="-1398.83"/>
<line class="st32" x1="1608" y1="-1618" x2="1569.78" y2="-1577.34"/>
<line class="st32" x1="1634" y1="-1570" x2="1574.9" y2="-1553.71"/>
<line class="st32" x1="1616.23" y1="-1416.57" x2="1571.34" y2="-1449.73"/>
<line class="st32" x1="1635" y1="-1466" x2="1574.86" y2="-1482.47"/>
<line class="st32" x1="1648" y1="-1517" x2="1577.89" y2="-1517.15"/>
<g>
	<line class="st32" x1="1460.07" y1="-1620.78" x2="1498.29" y2="-1580.12"/>
	<line class="st32" x1="1434.07" y1="-1572.78" x2="1493.17" y2="-1556.48"/>
	<line class="st32" x1="1451.83" y1="-1419.35" x2="1496.72" y2="-1452.5"/>
	<line class="st32" x1="1433.07" y1="-1468.78" x2="1493.2" y2="-1485.25"/>
	<line class="st32" x1="1420.07" y1="-1519.78" x2="1490.18" y2="-1519.92"/>
</g>
<line class="st32" x1="1582.02" y1="-1262.21" x2="1582.02" y2="-1378.25"/>
<rect x="1129" y="-1474" class="st31" width="2" height="278"/>
<rect x="1114.99" y="-1546.68" class="st30" width="30" height="107"/>
<line class="st32" x1="1092.99" y1="-1197.68" x2="1092.49" y2="-1328.7"/>
<line class="st32" x1="1158.07" y1="-1300.53" x2="1158.07" y2="-1416.57"/>
<line class="st32" x1="1099.99" y1="-1334.68" x2="1100.07" y2="-1408.57"/>
<line class="st32" x1="1165.07" y1="-1185.53" x2="1164.99" y2="-1285.68"/>
<rect x="1104.99" y="-1555.68" class="st33" width="50" height="126"/>
<line class="st32" x1="1073.12" y1="-1255.47" x2="1073.12" y2="-1371.5"/>
<line class="st32" x1="1183.01" y1="-1247.89" x2="1183.01" y2="-1363.93"/>
<line class="st32" x1="1081.62" y1="-1410.62" x2="1081.62" y2="-1526.66"/>
<line class="st32" x1="1203.62" y1="-1378.62" x2="1204" y2="-1483"/>
<line class="st32" x1="1176.43" y1="-1469.45" x2="1177" y2="-1553"/>
<line class="st32" x1="1501.99" y1="-1636.16" x2="1517.84" y2="-1582.65"/>
<line class="st32" x1="1570.84" y1="-1634.16" x2="1554.99" y2="-1580.65"/>
<g>
	<rect x="1045.5" y="-935.5" class="st34" width="89" height="89"/>
	<rect x="1182.5" y="-935.5" class="st34" width="89" height="89"/>
	<rect x="1182.5" y="-808.5" class="st34" width="89" height="89"/>
	<rect x="1045.5" y="-808.5" class="st34" width="89" height="89"/>
</g>
<rect x="10" y="-1704" class="st3" width="113" height="59.19"/>
<line class="st35" x1="45" y1="-1647" x2="22.49" y2="-1623.49"/>
<line class="st35" x1="22" y1="-1647" x2="22" y2="-1621"/>
<rect x="45" y="-1690.07" transform="matrix(-1 -5.327662e-11 5.327662e-11 -1 185.2234 -3320.9565)" class="st3" width="95.22" height="59.19"/>
<line class="st35" x1="105.22" y1="-1633.07" x2="127.73" y2="-1609.57"/>
<line class="st35" x1="128.22" y1="-1633.07" x2="128.22" y2="-1607.07"/>
<g>
	<g>
		<line class="st36" x1="7.94" y1="-474.63" x2="7.94" y2="-541.63"/>
		<g>
			<line class="st36" x1="3.94" y1="-537.63" x2="98.94" y2="-537.63"/>
			<line class="st36" x1="93.94" y1="-541.63" x2="93.94" y2="-473.63"/>
			<circle class="st36" cx="49.94" cy="-581.63" r="40"/>
		</g>
	</g>
	<g>
		<line class="st37" x1="46" y1="-455" x2="46" y2="-522"/>
		<g>
			<line class="st37" x1="42" y1="-518" x2="137" y2="-518"/>
			<line class="st37" x1="132" y1="-522" x2="132" y2="-454"/>
			<circle class="st37" cx="88" cy="-562" r="40"/>
		</g>
	</g>
</g>
<polygon class="st38" points="710,-1360 710,-1251.21 794,-1274.47 794,-1386.02 "/>
<polygon class="st38" points="705,-1359.66 705,-1250.87 621,-1274.13 621,-1385.68 "/>
<path class="st38" d="M907-1814"/>
<polygon class="st39" points="757,-1817 757,-1780.74 790,-1763 825,-1779 825,-1817 791,-1833.51 "/>
<g>
	<polyline class="st39" points="757,-1817 790.5,-1803.5 825,-1817 	"/>
</g>
<line class="st40" x1="790.5" y1="-1803.5" x2="790.5" y2="-1763.5"/>
<line class="st40" x1="776.05" y1="-1825.57" x2="808.5" y2="-1810.5"/>
<g>
	<rect x="21" y="-1209" class="st41" width="122" height="84"/>
	<rect x="6" y="-1245" class="st41" width="151" height="36"/>
	<path class="st42" d="M156.28-1245c-50.38-0.09-100.9,0.01-151.28,0c-0.06,0-0.03-1.94,0-2c4.14-7.6,8.34-13.38,12.48-21h124.83
		c5.14,6.68,10.28,13.37,15.42,20.05C158.66-1246.75,157.8-1245,156.28-1245z"/>
	<path class="st41" d="M173-1273"/>
	<path class="st41" d="M186-1262"/>
	<rect x="61" y="-1207" class="st42" width="41" height="19"/>
</g>
<line class="st43" x1="1180" y1="-1771" x2="1180" y2="-1652"/>
<line class="st43" x1="1287" y1="-1700" x2="1180" y2="-1652"/>
<line class="st43" x1="1073" y1="-1699" x2="1180" y2="-1652"/>
<line class="st43" x1="1073" y1="-1815" x2="1073" y2="-1699"/>
<line class="st43" x1="1287" y1="-1815" x2="1287" y2="-1700"/>
<line class="st43" x1="1073" y1="-1815" x2="1180" y2="-1768"/>
<line class="st43" x1="1287" y1="-1815" x2="1180" y2="-1768"/>
<line class="st43" x1="1180" y1="-1858" x2="1073" y2="-1815"/>
<line class="st43" x1="1287" y1="-1815" x2="1180" y2="-1858"/>
<g>
	<line class="st44" x1="67.5" y1="-329.5" x2="67.5" y2="-406.5"/>
	<line class="st44" x1="67.5" y1="-319" x2="67.5" y2="-305.5"/>
</g>
<g>
	<circle class="st45" cx="75.16" cy="76.24" r="58.76"/>
	<line class="st45" x1="19.5" y1="57.69" x2="126.18" y2="57.69"/>
	<line class="st45" x1="19.5" y1="93.25" x2="126.18" y2="93.25"/>
	<ellipse class="st45" cx="75.16" cy="76.24" rx="20.1" ry="58.76"/>
</g>
<g>
	<rect y="-1869" class="st2" width="140" height="75"/>
	<g>
		<line class="st46" x1="10.5" y1="-1853.5" x2="29.5" y2="-1853.5"/>
		<line class="st5" x1="10.5" y1="-1842.5" x2="125.5" y2="-1842.5"/>
		<line class="st5" x1="11" y1="-1829.5" x2="126" y2="-1829.5"/>
		<line class="st5" x1="11" y1="-1803.5" x2="126" y2="-1803.5"/>
		<line class="st5" x1="36.5" y1="-1829" x2="36.5" y2="-1804"/>
		<line class="st5" x1="99.5" y1="-1829" x2="99.5" y2="-1804"/>
		<g>
			<polygon class="st47" points="20.19,-1871 32.82,-1871 40.9,-1885 28.28,-1885 			"/>
			<polygon class="st47" points="96.66,-1885 84.75,-1885 76.66,-1871 88.58,-1871 			"/>
			<polygon class="st47" points="140.98,-1885 132.9,-1871 146.5,-1871 146.5,-1885 			"/>
			<polygon class="st47" points="68.9,-1885 56.75,-1885 48.66,-1871 60.82,-1871 			"/>
			<polygon class="st47" points="12.43,-1885 -6,-1885 -6,-1871 4.35,-1871 			"/>
			<polygon class="st47" points="125.13,-1885 112.51,-1885 104.43,-1871 117.05,-1871 			"/>
		</g>
		<g>
			<polygon class="st47" points="25.95,-1888.62 38.18,-1891.73 26.9,-1903.3 14.66,-1900.2 			"/>
			<polygon class="st47" points="135.18,-1916.38 145.21,-1918.93 141.76,-1932.5 123.9,-1927.96 			"/>
			<polygon class="st47" points="53.81,-1910.14 42.26,-1907.21 53.54,-1895.63 65.09,-1898.57 			"/>
			<polygon class="st47" points="-0.69,-1896.29 -6.04,-1894.93 -2.59,-1881.36 10.59,-1884.71 			"/>
			<polygon class="st47" points="108.54,-1924.05 96.3,-1920.94 107.59,-1909.37 119.82,-1912.47 			"/>
			<polygon class="st47" points="80.95,-1917.04 69.17,-1914.05 80.45,-1902.47 92.23,-1905.46 			"/>
		</g>
		<rect y="-1894" class="st47" width="19" height="18"/>
	</g>
</g>
<g>
	<rect x="11" y="-2074" class="st41" width="109" height="72"/>
	<rect x="11" y="-2091" class="st41" width="109" height="17"/>
	<polyline class="st41" points="27,-2061 47,-2041 27,-2021 	"/>
	<line class="st41" x1="58" y1="-2021" x2="105" y2="-2021"/>
</g>
<g>
	<rect x="5366" y="-2325" width="1170" height="315"/>
	<text transform="matrix(1 0 0 1 5816.7021 -2126.4043)" class="st0" style="font-family:'PixelFont-7'; font-size:113px;">Шапка</text>
</g>
<g>
	<rect x="5366" y="-2010" class="st48" width="1170" height="183"/>
	<text transform="matrix(1 0 0 1 5610.5742 -1887.3193)" style="font-family:'PixelFont-7'; font-size:113px;">Боковое меню</text>
</g>
<g>
	<rect x="5366" y="-1827" class="st49" width="1170" height="644"/>
	<text transform="matrix(1 0 0 1 5762.915 -1488.3828)" style="font-family:'PixelFont-7'; font-size:113px;">Контент</text>
</g>
<g>
	<rect x="5366" y="-1183" class="st50" width="1170" height="352"/>
	<text transform="matrix(1 0 0 1 5769.0215 -955.8301)" style="font-family:'PixelFont-7'; font-size:113px;">Подвал</text>
</g>
<line class="st51" x1="6622.5" y1="-1568.5" x2="7030.5" y2="-1568.5"/>
<g>
	<rect x="7382" y="-2320" width="1170" height="315"/>
	<text transform="matrix(1 0 0 1 7832.7021 -2121.4043)" class="st0" style="font-family:'PixelFont-7'; font-size:113px;">Шапка</text>
</g>
<g>
	
		<rect x="6797.5" y="-1600.5" transform="matrix(5.242391e-11 -1 1 5.242391e-11 8807.5 5789.4995)" class="st48" width="1002" height="183"/>
	
		<text transform="matrix(4.489659e-11 -0.8564 1 3.844990e-11 7329.6807 -1217.457)" style="font-family:'PixelFont-7'; font-size:113px;">Боковое меню</text>
</g>
<g>
	<rect x="7382" y="-2003" class="st49" width="1170" height="644"/>
	<text transform="matrix(1 0 0 1 7778.915 -1664.3828)" style="font-family:'PixelFont-7'; font-size:113px;">Контент</text>
</g>
<g>
	<rect x="7382" y="-1359" class="st50" width="1170" height="352"/>
	<text transform="matrix(1 0 0 1 7785.0215 -1131.8301)" style="font-family:'PixelFont-7'; font-size:113px;">Подвал</text>
</g>
<g>
	<rect x="988" y="-310" class="st52" width="113" height="132"/>
	<rect x="988" y="-388" class="st52" width="339" height="90"/>
	<rect x="1214" y="-310" class="st52" width="113" height="132"/>
	<polygon class="st52" points="988,-388 1157.5,-485.11 1324.66,-388 	"/>
	<rect x="915.7" y="-487.19" transform="matrix(0.866 -0.5 0.5 0.866 376.928 461.3286)" class="st52" width="267.23" height="29"/>
	
		<rect x="1132.56" y="-487.56" transform="matrix(-0.866 -0.5 0.5 -0.866 2599.2378 -249.664)" class="st52" width="267.23" height="29"/>
	<rect x="1280" y="-566" class="st52" width="48" height="116"/>
</g>
<rect x="1957.86" y="-913.35" class="st19" width="286" height="343"/>
<line class="st20" x1="1993.86" y1="-874.35" x2="2208.86" y2="-874.35"/>
<line class="st20" x1="1994" y1="-845" x2="2209" y2="-845"/>
<rect x="2142.5" y="-655.5" transform="matrix(4.502005e-11 -1 1 4.502005e-11 2749 1544)" class="st19" width="8" height="106"/>
<rect x="2142" y="-684" transform="matrix(4.486906e-11 -1 1 4.486906e-11 2777.5 1515.5)" class="st19" width="9" height="106"/>
<rect x="2142.5" y="-712.5" transform="matrix(4.479268e-11 -1 1 4.479268e-11 2806 1487)" class="st19" width="8" height="106"/>
<line class="st19" x1="1993.85" y1="-761.35" x2="2072.35" y2="-761.34"/>
<line class="st19" x1="2084.86" y1="-761.35" x2="2132.86" y2="-761.35"/>
<line class="st19" x1="2146.86" y1="-761.35" x2="2177.86" y2="-761.35"/>
<line class="st19" x1="2187.86" y1="-761.35" x2="2203.86" y2="-761.35"/>
<line class="st19" x1="1993.86" y1="-744.35" x2="2146.86" y2="-744.35"/>
<line class="st19" x1="2156.86" y1="-744.35" x2="2203.86" y2="-744.35"/>
<line class="st19" x1="1993.86" y1="-723.35" x2="2044.86" y2="-723.35"/>
<line class="st19" x1="2055.86" y1="-723.35" x2="2146.86" y2="-723.35"/>
<line class="st19" x1="2156.86" y1="-723.35" x2="2203.86" y2="-723.35"/>
<line class="st19" x1="1993.86" y1="-705.35" x2="2203.86" y2="-705.35"/>
<line class="st19" x1="1956.86" y1="-913.35" x2="1974.86" y2="-935.35"/>
<line class="st19" x1="2240.89" y1="-913.29" x2="2258.89" y2="-935.29"/>
<line class="st19" x1="2243.89" y1="-570.29" x2="2261.89" y2="-592.29"/>
<path class="st19" d="M2272.86-785.35"/>
<line class="st19" x1="1970.86" y1="-933.35" x2="2260.86" y2="-933.35"/>
<line class="st19" x1="2259.86" y1="-589.35" x2="2259.86" y2="-935.35"/>
<rect x="1994" y="-669" class="st52" width="51" height="74"/>
<line class="st20" x1="2070" y1="-812" x2="2209" y2="-812"/>
<rect x="1538.5" y="-915.5" class="st19" width="286" height="343"/>
<line class="st20" x1="1578.37" y1="-881.36" x2="1793.37" y2="-881.36"/>
<line class="st20" x1="1578.51" y1="-852.02" x2="1793.51" y2="-852.02"/>
<rect x="1727.01" y="-662.52" transform="matrix(4.502005e-11 -1 1 4.502005e-11 2340.5271 1121.4907)" class="st19" width="8" height="106"/>
<rect x="1726.51" y="-691.02" transform="matrix(4.486906e-11 -1 1 4.486906e-11 2369.0271 1092.9907)" class="st19" width="9" height="106"/>
<rect x="1727.01" y="-719.52" transform="matrix(4.479268e-11 -1 1 4.479268e-11 2397.5271 1064.4907)" class="st19" width="8" height="106"/>
<line class="st19" x1="1578.36" y1="-768.37" x2="1656.86" y2="-768.36"/>
<line class="st19" x1="1669.37" y1="-768.36" x2="1717.37" y2="-768.36"/>
<line class="st19" x1="1731.37" y1="-768.36" x2="1762.37" y2="-768.36"/>
<line class="st19" x1="1772.37" y1="-768.36" x2="1788.37" y2="-768.36"/>
<line class="st19" x1="1578.37" y1="-751.36" x2="1731.37" y2="-751.36"/>
<line class="st19" x1="1741.37" y1="-751.36" x2="1788.37" y2="-751.36"/>
<line class="st19" x1="1578.37" y1="-730.36" x2="1629.37" y2="-730.36"/>
<line class="st19" x1="1640.37" y1="-730.36" x2="1731.37" y2="-730.36"/>
<line class="st19" x1="1741.37" y1="-730.36" x2="1788.37" y2="-730.36"/>
<line class="st19" x1="1578.37" y1="-712.36" x2="1788.37" y2="-712.36"/>
<rect x="1578.51" y="-676.02" class="st52" width="51" height="74"/>
<line class="st20" x1="1579" y1="-819" x2="1718" y2="-819"/>
<rect x="-123.4" y="-2231.64" style="fill:none;" width="539.4" height="77.64"/>
<text transform="matrix(1 0 0 1 -123.4043 -2163.8398)" style="font-family:'PixelFont-7'; font-size:113px;">Submenu</text>
<g>
	<line class="st37" x1="104" y1="-1360" x2="104" y2="-1427"/>
	<line class="st36" x1="100" y1="-1423" x2="195" y2="-1423"/>
	<line class="st36" x1="190" y1="-1427" x2="190" y2="-1359"/>
	<circle class="st36" cx="146" cy="-1467" r="40"/>
	<line class="st37" x1="-30" y1="-1361" x2="-30" y2="-1428"/>
	<line class="st36" x1="-34" y1="-1424" x2="61" y2="-1424"/>
	<line class="st36" x1="56" y1="-1428" x2="56" y2="-1360"/>
	<path class="st36" d="M53-1473c1.46,24.76-18.26,45.17-41,45c-20.86-0.15-40-17.58-40-40c0-22.19,18.77-39.69,40-40
		C31.89-1508.29,49.63-1493.45,53-1473z"/>
	<line class="st53" x1="26.93" y1="-1348.53" x2="26.93" y2="-1432.52"/>
	<line class="st53" x1="21.91" y1="-1427.5" x2="141" y2="-1427.5"/>
	<line class="st53" x1="134.73" y1="-1432.52" x2="134.73" y2="-1347.28"/>
	<circle class="st54" cx="79.58" cy="-1482.66" r="50.14"/>
</g>
<line class="st32" x1="2085" y1="-13" x2="2085" y2="-176"/>
<line class="st32" x1="1890" y1="-176" x2="2085" y2="-176"/>
<g>
	<polyline class="st36" points="171,-944 171,-1052.83 2.49,-1052.83 -47,-1028 -47,-753 81.13,-753 	"/>
	<polyline class="st36" points="-0.57,-753 -1,-729 199.6,-729 199.6,-793.43 	"/>
	<polyline class="st36" points="199.6,-980.32 199.6,-1025.26 171,-1025.26 	"/>
	<polyline class="st36" points="2,-1053 2,-1028 -47.49,-1028.17 	"/>
	<line class="st36" x1="-13" y1="-973" x2="147" y2="-973"/>
	<line class="st36" x1="-13" y1="-947" x2="147" y2="-947"/>
	<line class="st36" x1="-13" y1="-920" x2="147" y2="-920"/>
	<line class="st36" x1="-13" y1="-893" x2="147" y2="-893"/>
	<line class="st36" x1="-13" y1="-866" x2="147" y2="-866"/>
	<line class="st36" x1="-13" y1="-839" x2="147" y2="-839"/>
	<g>
		
			<rect x="153.93" y="-891.66" transform="matrix(-0.9247 -0.3808 0.3808 -0.9247 630.3243 -1518.6003)" class="st36" width="22" height="140"/>
		<path class="st55" d="M147.03-750.62l-16.17,17.36c-1.46,1.49-3.99,0.45-3.99-1.64l0.74-23.71"/>
		
			<rect x="178.13" y="-900.28" transform="matrix(-0.9247 -0.3808 0.3808 -0.9247 714.9559 -1646.1022)" class="st4" width="33" height="13"/>
		<path class="st42" d="M190.13-915.66l23.12,9.52c1.02,0.42,1.51,1.59,1.09,2.61l-2.68,6.5c-0.42,1.02-1.59,1.51-2.61,1.09
			l-23.12-9.52c-1.02-0.42-1.51-1.59-1.09-2.61l2.68-6.5C187.94-915.59,189.11-916.08,190.13-915.66z"/>
	</g>
</g>
<g>
	<polyline class="st56" points="33.5,-199.35 33.5,-228.5 101.27,-228.5 101.27,-199.35 101.27,-183.16 67.39,-183.16 
		67.39,-155.49 67.39,-153.28 67.39,-150.8 67.39,-148.32 	"/>
	<rect x="59.03" y="-136.19" class="st57" width="16.19" height="16.19"/>
</g>
</svg>
