<?xml version="1.0" encoding="utf-8"?>
<!-- Generator: Adobe Illustrator 25.4.1, SVG Export Plug-In . SVG Version: 6.00 Build 0)  -->
<svg version="1.1" id="Слой_1" xmlns="http://www.w3.org/2000/svg" xmlns:xlink="http://www.w3.org/1999/xlink" x="0px" y="0px"
	 viewBox="0 0 421 383" style="enable-background:new 0 0 421 383;" xml:space="preserve">
<style type="text/css">
	.st0{fill:#FFFFFF;}
	.st1{fill:none;stroke:#000000;stroke-width:9;stroke-miterlimit:10;}
	.st2{fill:none;stroke:#000000;stroke-width:5;stroke-miterlimit:10;}
	.st3{fill:#FFFFFF;stroke:#000000;stroke-width:9;stroke-miterlimit:10;}
	.st4{fill:none;stroke:#000000;stroke-width:7;stroke-miterlimit:10;}
	.st5{stroke:#000000;stroke-width:3;stroke-miterlimit:10;}
	.st6{fill:#FFFFFF;stroke:#000000;stroke-width:4;stroke-miterlimit:10;}
	.st7{stroke:#000000;stroke-width:2;stroke-miterlimit:10;}
	.st8{fill:#FFFFFF;stroke:#000000;stroke-width:2;stroke-miterlimit:10;}
	.st9{stroke:#000000;stroke-miterlimit:10;}
	.st10{fill:none;stroke:#000000;stroke-miterlimit:10;}
	.st11{fill:#FFFFFF;stroke:#000000;stroke-miterlimit:10;}
	.st12{stroke:#FFFFFF;stroke-width:9;stroke-miterlimit:10;}
	.st13{fill:none;stroke:#FFFFFF;stroke-width:7;stroke-miterlimit:10;}
	.st14{fill:#FFFFFF;stroke:#FFFFFF;stroke-width:3;stroke-miterlimit:10;}
	.st15{fill:none;stroke:#FFFFFF;stroke-width:9;stroke-miterlimit:10;}
	.st16{fill:none;stroke:#FFFFFF;stroke-width:5;stroke-miterlimit:10;}
	.st17{fill:#FFFFFF;stroke:#FFFFFF;stroke-width:6;stroke-miterlimit:10;}
	.st18{fill:none;stroke:#FFFFFF;stroke-width:6;stroke-miterlimit:10;}
	.st19{fill:none;stroke:#00FFF0;stroke-width:9;stroke-miterlimit:10;}
	.st20{fill:none;stroke:#00FFF0;stroke-width:20;stroke-miterlimit:10;}
	.st21{fill:#00FFF0;stroke:#00FFFF;stroke-width:9;stroke-miterlimit:10;}
	.st22{fill:#00FFF0;stroke:#00FFF0;stroke-width:9;stroke-miterlimit:10;}
	.st23{fill:none;stroke:#FFFFFF;stroke-width:20;stroke-miterlimit:10;}
	.st24{fill:none;stroke:#FF433F;stroke-width:16;stroke-miterlimit:10;}
	.st25{fill:#FF433F;stroke:#FF433F;stroke-width:16;stroke-miterlimit:10;}
	.st26{fill:none;stroke:#00FFF0;stroke-width:10;stroke-miterlimit:10;}
	.st27{fill:#00FFFF;stroke:#00FFFF;stroke-width:10;stroke-miterlimit:10;}
	.st28{fill:#00FFF0;stroke:#00FFF0;stroke-width:10;stroke-miterlimit:10;}
</style>
<g>
	<g>
		<rect x="-3675.5" y="-2616.5" class="st0" width="309" height="137"/>
		<path d="M-3371-2612v128h-300v-128H-3371 M-3362-2621h-318v146h318V-2621L-3362-2621z"/>
	</g>
	<g>
		<line class="st1" x1="-3520.5" y1="-2477" x2="-3520.5" y2="-2436"/>
	</g>
	<line class="st2" x1="-3594.5" y1="-2436.5" x2="-3443" y2="-2436.5"/>
</g>
<g>
	<rect x="-3817.08" y="-2587.07" class="st0" width="2.98" height="9.71"/>
	<rect x="-3817.08" y="-2577.36" class="st0" width="12.89" height="2.65"/>
	<rect x="-3807.16" y="-2587.07" class="st0" width="2.98" height="9.71"/>
	<rect x="-3807.16" y="-2574.71" class="st0" width="2.98" height="9.71"/>
	<rect x="-3798.24" y="-2587.07" class="st0" width="2.98" height="9.71"/>
	<rect x="-3798.24" y="-2577.36" class="st0" width="12.89" height="2.65"/>
	<rect x="-3788.32" y="-2587.07" class="st0" width="2.98" height="9.71"/>
	<rect x="-3788.32" y="-2574.71" class="st0" width="2.98" height="9.71"/>
	<rect x="-3827" y="-2587.07" class="st0" width="2.98" height="22.07"/>
	<rect x="-3770.47" y="-2587.07" class="st0" width="2.98" height="22.07"/>
	<rect x="-3769.48" y="-2587.07" class="st0" width="12.89" height="1.77"/>
	<rect x="-3757.58" y="-2585.3" class="st0" width="0.99" height="0"/>
	<rect x="-3769.48" y="-2577.36" class="st0" width="12.89" height="1.77"/>
	<rect x="-3753.61" y="-2587.07" class="st0" width="2.98" height="22.07"/>
	<rect x="-3752.62" y="-2587.07" class="st0" width="12.89" height="1.77"/>
	<rect x="-3740.72" y="-2585.3" class="st0" width="0.99" height="0"/>
	<rect x="-3752.62" y="-2577.36" class="st0" width="12.89" height="1.77"/>
	<rect x="-3742.7" y="-2587.07" class="st0" width="2.98" height="11.48"/>
	<rect x="-3735.76" y="-2587.07" class="st0" width="2.98" height="11.48"/>
	<rect x="-3734.77" y="-2587.07" class="st0" width="12.89" height="1.77"/>
	<rect x="-3722.86" y="-2585.3" class="st0" width="0.99" height="0"/>
	<rect x="-3734.77" y="-2577.36" class="st0" width="12.89" height="1.77"/>
	<rect x="-3724.85" y="-2575.59" class="st0" width="2.98" height="10.59"/>
	<rect x="-3735.76" y="-2566.76" class="st0" width="12.89" height="1.77"/>
	<rect x="-3325.17" y="-2678" width="1064.17" height="211"/>
</g>
<g>
	<rect x="-3828.5" y="-2541.87" class="st3" width="88.33" height="197.25"/>
	<line class="st4" x1="-3738.55" y1="-2343" x2="-3688.69" y2="-2364.68"/>
	<line class="st4" x1="-3737.46" y1="-2543.5" x2="-3688.69" y2="-2527.24"/>
	<line class="st4" x1="-3690.86" y1="-2530.49" x2="-3690.86" y2="-2361.42"/>
	
		<rect x="-3740.08" y="-2376.09" transform="matrix(0.934 -0.3573 0.3573 0.934 600.3305 -1483.79)" class="st5" width="48.77" height="18.82"/>
	
		<rect x="-3738.59" y="-2384.64" transform="matrix(0.9881 -0.1538 0.1538 0.9881 321.5861 -599.6345)" class="st5" width="46.19" height="11.92"/>
	
		<rect x="-3738.6" y="-2535.75" transform="matrix(0.9487 0.3162 -0.3162 0.9487 -991.3322 1044.949)" class="st5" width="46.61" height="7.59"/>
	<rect x="-3735.29" y="-2432.95" class="st5" width="42.27" height="9.75"/>
	<rect x="-3699.53" y="-2500.15" class="st5" width="5.42" height="31.43"/>
	<rect x="-3773.23" y="-2522.91" class="st5" width="10.84" height="45.52"/>
	<rect x="-3735.29" y="-2532.66" class="st5" width="29.58" height="89"/>
	<rect x="-3736.38" y="-2416.7" class="st5" width="42.27" height="9.75"/>
	<rect x="-3818.75" y="-2529.41" class="st5" width="2.17" height="7.59"/>
	<rect x="-3818.75" y="-2516.41" class="st5" width="2.17" height="7.59"/>
</g>
<g>
	<rect x="-3386" y="-2391" class="st6" width="25" height="39"/>
	<rect x="-3376" y="-2385" class="st7" width="5" height="12"/>
	<rect x="-3385" y="-2390" class="st8" width="5" height="13"/>
	<rect x="-3367" y="-2390" class="st8" width="5" height="13"/>
	<rect x="-3388" y="-2376" class="st6" width="1" height="6"/>
	<rect x="-3388" y="-2365" class="st6" width="1" height="6"/>
</g>
<g>
	<rect x="-3530" y="-2422" width="4" height="13"/>
	<rect x="-3374" y="-2418" width="3" height="25"/>
	<rect x="-3694" y="-2422" width="323" height="4"/>
	<rect x="-3618" y="-2480" width="4" height="59"/>
</g>
<g>
	<rect x="-3659.5" y="-2406.5" class="st2" width="258" height="74"/>
	<rect x="-3645" y="-2349" width="34" height="8"/>
	<rect x="-3599" y="-2349" width="134" height="8"/>
	<rect x="-3456" y="-2349" width="34" height="8"/>
	<g>
		<rect x="-3641.5" y="-2394.5" class="st2" width="11" height="4"/>
		<rect x="-3621.5" y="-2394.5" class="st2" width="11" height="4"/>
		<rect x="-3641.5" y="-2382.5" class="st2" width="11" height="4"/>
		<rect x="-3621.5" y="-2382.5" class="st2" width="11" height="4"/>
		<rect x="-3641.5" y="-2370.5" class="st2" width="11" height="4"/>
		<rect x="-3621.5" y="-2370.5" class="st2" width="11" height="4"/>
	</g>
	<g>
		<rect x="-3454.5" y="-2394.5" class="st2" width="11" height="4"/>
		<rect x="-3434.5" y="-2394.5" class="st2" width="11" height="4"/>
		<rect x="-3454.5" y="-2382.5" class="st2" width="11" height="4"/>
		<rect x="-3434.5" y="-2382.5" class="st2" width="11" height="4"/>
		<rect x="-3454.5" y="-2370.5" class="st2" width="11" height="4"/>
		<rect x="-3434.5" y="-2370.5" class="st2" width="11" height="4"/>
	</g>
	<g>
		<rect x="-3596.5" y="-2394.5" class="st2" width="11" height="4"/>
		<rect x="-3576.5" y="-2394.5" class="st2" width="11" height="4"/>
		<rect x="-3596.5" y="-2382.5" class="st2" width="11" height="4"/>
		<rect x="-3576.5" y="-2382.5" class="st2" width="11" height="4"/>
		<rect x="-3596.5" y="-2370.5" class="st2" width="11" height="4"/>
		<rect x="-3576.5" y="-2370.5" class="st2" width="11" height="4"/>
		<rect x="-3557.5" y="-2394.5" class="st2" width="11" height="4"/>
		<rect x="-3537.5" y="-2394.5" class="st2" width="11" height="4"/>
		<rect x="-3557.5" y="-2382.5" class="st2" width="11" height="4"/>
		<rect x="-3537.5" y="-2382.5" class="st2" width="11" height="4"/>
		<rect x="-3557.5" y="-2370.5" class="st2" width="11" height="4"/>
		<rect x="-3537.5" y="-2370.5" class="st2" width="11" height="4"/>
		<rect x="-3518.5" y="-2394.5" class="st2" width="11" height="4"/>
		<rect x="-3498.5" y="-2394.5" class="st2" width="11" height="4"/>
		<rect x="-3518.5" y="-2382.5" class="st2" width="11" height="4"/>
		<rect x="-3498.5" y="-2382.5" class="st2" width="11" height="4"/>
		<rect x="-3518.5" y="-2370.5" class="st2" width="11" height="4"/>
		<rect x="-3498.5" y="-2370.5" class="st2" width="11" height="4"/>
		<rect x="-3478.5" y="-2394.5" class="st2" width="11" height="4"/>
		<rect x="-3478.5" y="-2382.5" class="st2" width="11" height="4"/>
		<rect x="-3478.5" y="-2370.5" class="st2" width="11" height="4"/>
	</g>
</g>
<rect x="-3450.5" y="-2528.5" transform="matrix(6.123234e-17 -1 1 6.123234e-17 -951 -5942)" class="st9" width="8" height="66"/>
<rect x="-3666" y="-2605" width="15" height="15"/>
<rect x="-3646" y="-2605" width="2" height="15"/>
<rect x="-3646" y="-2605" width="7" height="2"/>
<rect x="-3646" y="-2599" width="7" height="2"/>
<rect x="-3639" y="-2605" width="2" height="8"/>
<rect x="-3635" y="-2605" width="2" height="15"/>
<rect x="-3633" y="-2592" width="7" height="2"/>
<rect x="-3633" y="-2598" width="7" height="2"/>
<rect x="-3633" y="-2605" width="7" height="2"/>
<rect x="-3624" y="-2605" width="2" height="15"/>
<rect x="-3622" y="-2592" width="7" height="2"/>
<rect x="-3622" y="-2605" width="7" height="2"/>
<rect x="-3567.5" y="-2570.5" class="st9" width="45" height="45"/>
<line class="st10" x1="-3522.5" y1="-2525.5" x2="-3511.5" y2="-2532.5"/>
<line class="st10" x1="-3523.5" y1="-2569.5" x2="-3511.1" y2="-2576.76"/>
<line class="st10" x1="-3567.5" y1="-2570.5" x2="-3556.5" y2="-2576.5"/>
<line class="st10" x1="-3557" y1="-2576.5" x2="-3512" y2="-2576.5"/>
<line class="st10" x1="-3511.5" y1="-2532" x2="-3511.5" y2="-2577"/>
<line class="st10" x1="-3525.8" y1="-2550.63" x2="-3513.39" y2="-2557.88"/>
<rect x="-3557.5" y="-2575.5" class="st9" width="46" height="43"/>
<rect x="-3517.5" y="-2569.5" class="st9" width="2" height="1"/>
<rect x="-3524.54" y="-2533.65" transform="matrix(0.8632 -0.5049 0.5049 0.8632 796.4562 -2123.103)" class="st9" width="10.58" height="5"/>
<rect x="-3531.5" y="-2541.5" class="st9" width="13" height="6"/>
<rect x="-3565.82" y="-2573.1" transform="matrix(0.8632 -0.5049 0.5049 0.8632 810.726 -2149.3425)" class="st9" width="10.58" height="5"/>
<rect x="-3567.5" y="-2525.5" class="st9" width="1" height="43"/>
<rect x="-3444" y="-2649" transform="matrix(6.123234e-17 -1 1 6.123234e-17 -867.5 -6019.5)" class="st9" width="1" height="146"/>
<rect x="-3641" y="-2599" width="2" height="4"/>
<rect x="-3639" y="-2595" width="2" height="5"/>
<g>
	<rect x="-3661.5" y="-2502.5" class="st9" width="1" height="14"/>
	
		<rect x="-3655" y="-2496" transform="matrix(6.123234e-17 -1 1 6.123234e-17 -1165.5 -6143.5)" class="st9" width="1" height="14"/>
</g>
<g>
	
		<rect x="-3391" y="-2496" transform="matrix(-3.267951e-07 -1 1 -3.267951e-07 -901.5011 -5879.501)" class="st9" width="1" height="14"/>
	
		<rect x="-3384.5" y="-2502.5" transform="matrix(-1 3.267942e-07 -3.267942e-07 -1 -6768.001 -4990.999)" class="st9" width="1" height="14"/>
</g>
<g>
	
		<rect x="-3384.5" y="-2605.5" transform="matrix(-1 3.267960e-07 -3.267960e-07 -1 -6768.001 -5196.999)" class="st9" width="1" height="14"/>
	
		<rect x="-3391" y="-2612" transform="matrix(3.267942e-07 1 -1 3.267942e-07 -5995.499 785.5009)" class="st9" width="1" height="14"/>
</g>
<g>
	<rect x="-3651.5" y="-2570.5" class="st9" width="24" height="3"/>
	<rect x="-3624.5" y="-2570.5" class="st9" width="24" height="3"/>
	<rect x="-3651.5" y="-2564.5" class="st9" width="13" height="3"/>
	<rect x="-3635.5" y="-2564.5" class="st9" width="35" height="3"/>
	<rect x="-3614.5" y="-2558.5" class="st9" width="14" height="3"/>
	<rect x="-3651.5" y="-2552.5" class="st9" width="24" height="3"/>
	<rect x="-3646.5" y="-2558.5" class="st9" width="30" height="3"/>
	<rect x="-3651.5" y="-2558.5" class="st9" width="3" height="3"/>
	<rect x="-3624.5" y="-2552.5" class="st9" width="3" height="3"/>
	<rect x="-3618.5" y="-2552.5" class="st9" width="3" height="3"/>
	<rect x="-3612.5" y="-2552.5" class="st9" width="12" height="3"/>
</g>
<rect x="-3630" y="-2565" transform="matrix(6.123234e-17 -1 1 6.123234e-17 -1086.5 -6165.5)" class="st9" width="8" height="51"/>
<rect x="-3489.5" y="-2564.5" class="st9" width="84" height="3"/>
<rect x="-3489.5" y="-2563.5" class="st9" width="0" height="33"/>
<rect x="-3405.5" y="-2563.06" class="st9" width="0" height="32.56"/>
<rect x="-3489.5" y="-2531.5" class="st9" width="84" height="1"/>
<rect x="-3412.5" y="-2564.5" class="st11" width="3" height="3"/>
<rect x="-3415.5" y="-2563.5" class="st11" width="3" height="2"/>
<rect x="-3420.5" y="-2545.5" transform="matrix(6.123234e-17 -1 1 6.123234e-17 -885 -5955)" class="st9" width="1" height="21"/>
<rect x="-3485.5" y="-2549.5" class="st9" width="1" height="15"/>
<g>
	<rect x="-3296.14" y="-2671.02" class="st12" width="88.33" height="197.25"/>
	<line class="st13" x1="-3206.19" y1="-2472.14" x2="-3156.33" y2="-2493.82"/>
	<line class="st13" x1="-3205.1" y1="-2672.64" x2="-3156.33" y2="-2656.38"/>
	<line class="st13" x1="-3158.5" y1="-2659.64" x2="-3158.5" y2="-2490.57"/>
	
		<rect x="-3207.72" y="-2505.23" transform="matrix(0.934 -0.3573 0.3573 0.934 681.6104 -1302.1075)" class="st14" width="48.77" height="18.82"/>
	
		<rect x="-3206.23" y="-2513.79" transform="matrix(0.9881 -0.1538 0.1538 0.9881 347.7764 -519.3077)" class="st14" width="46.19" height="11.92"/>
	
		<rect x="-3206.24" y="-2664.89" transform="matrix(0.9487 0.3162 -0.3162 0.9487 -1004.8513 869.9745)" class="st14" width="46.61" height="7.59"/>
	<rect x="-3202.93" y="-2562.1" class="st14" width="42.27" height="9.75"/>
	<rect x="-3167.17" y="-2629.29" class="st14" width="5.42" height="31.43"/>
	<rect x="-3240.87" y="-2652.05" class="st14" width="10.84" height="45.52"/>
	<rect x="-3202.93" y="-2661.8" class="st14" width="29.58" height="89"/>
	<rect x="-3204.02" y="-2545.84" class="st14" width="42.27" height="9.75"/>
	<rect x="-3286.39" y="-2658.55" class="st14" width="2.17" height="7.59"/>
	<rect x="-3286.39" y="-2645.55" class="st14" width="2.17" height="7.59"/>
</g>
<g>
	<g>
		<rect x="-3138.24" y="-2654.5" width="309" height="137"/>
		<path class="st0" d="M-2833.74-2650v128h-300v-128H-2833.74 M-2824.74-2659h-318v146h318V-2659L-2824.74-2659z"/>
	</g>
	<g>
		<line class="st15" x1="-2983.24" y1="-2515" x2="-2983.24" y2="-2474"/>
	</g>
	<line class="st16" x1="-3057.24" y1="-2474.5" x2="-2905.74" y2="-2474.5"/>
</g>
<g>
	<path class="st0" d="M-3119.01-2613.18h5.65v-5.65h50.85v11.3h-45.2v45.2h45.2v11.3h-50.85v-5.65h-5.65V-2613.18z"/>
	<path class="st0" d="M-3051.21-2607.53h11.3v33.9h22.6v-33.9h11.3v62.15h-5.65v5.65h-33.9v-11.3h28.25v-11.3h-28.25v-5.65h-5.65
		V-2607.53z"/>
	<path class="st0" d="M-2994.71-2618.83h11.3v16.95h28.25v5.65h5.65v39.55h-5.65v5.65h-39.55V-2618.83z M-2983.41-2562.33h22.6
		v-28.25h-22.6V-2562.33z"/>
	<path class="st0" d="M-2938.21-2601.88h5.65v-5.65h33.9v5.65h5.65v28.25h-33.9v11.3h28.25v11.3h-33.9v-5.65h-5.65V-2601.88z
		 M-2926.91-2584.93h22.6v-11.3h-22.6V-2584.93z"/>
	<path class="st0" d="M-2881.71-2607.53h11.3v5.65h5.65v-5.65h22.6v5.65h5.65v11.3h-11.3v-5.65h-16.95v5.65h-5.65v39.55h-11.3
		V-2607.53z"/>
</g>
<rect x="-2261" y="-2677" class="st0" width="764.9" height="209.66"/>
<text transform="matrix(1.2222 0 0 1 -2241 -2514.5195)" style="font-family:'Roboto-Regular'; font-size:186.4234px;">Games</text>
<g>
	<path class="st0" d="M-2791.89-2632.54h18.43v73.73h18.43v-36.87h18.43v36.87h18.43v-73.73h18.43v82.95h-9.22v9.22h-9.22v18.43
		h-18.43v-18.43h-18.43v18.43h-18.43v-18.43h-9.22v-9.22h-9.22V-2632.54z"/>
	<path class="st0" d="M-2681.3-2604.89h9.22v-9.22h55.3v9.22h9.22v73.73h-9.22v9.22h-55.3v-9.22h-9.22V-2604.89z M-2662.87-2540.38
		h36.87v-55.3h-36.87V-2540.38z"/>
	<path class="st0" d="M-2589.14-2614.11h18.43v9.22h9.22v-9.22h36.86v9.22h9.22v18.43h-18.43v-9.22h-27.65v9.22h-9.22v64.51h-18.43
		V-2614.11z"/>
	<path class="st0" d="M-2496.97-2632.54h18.43v110.59h-18.43V-2632.54z"/>
	<path class="st0" d="M-2460.11-2595.68h9.22v-9.22h46.08v-27.65h18.43v110.59h-64.51v-9.22h-9.22V-2595.68z M-2441.68-2540.38
		h36.87v-46.08h-36.87V-2540.38z"/>
	<path class="st0" d="M-2367.95-2604.89h9.22v-9.22h64.51v18.43h-55.3v18.43h46.08v9.22h9.22v36.87h-9.22v9.22h-64.51v-18.43h55.3
		v-18.43h-46.08v-9.22h-9.22V-2604.89z"/>
</g>
<g>
	<rect x="-3294.09" y="-2445.68" class="st3" width="88.33" height="197.25"/>
	<line class="st4" x1="-3204.14" y1="-2246.81" x2="-3154.28" y2="-2268.49"/>
	<line class="st4" x1="-3203.05" y1="-2447.31" x2="-3154.28" y2="-2431.05"/>
	<line class="st4" x1="-3156.45" y1="-2434.3" x2="-3156.45" y2="-2265.23"/>
	
		<rect x="-3205.67" y="-2279.9" transform="matrix(0.934 -0.3573 0.3573 0.934 601.237 -1286.5023)" class="st5" width="48.77" height="18.82"/>
	
		<rect x="-3204.18" y="-2288.45" transform="matrix(0.9881 -0.1538 0.1538 0.9881 313.1508 -516.3126)" class="st5" width="46.19" height="11.92"/>
	
		<rect x="-3204.19" y="-2439.56" transform="matrix(0.9487 0.3162 -0.3162 0.9487 -933.4899 880.8899)" class="st5" width="46.61" height="7.59"/>
	<rect x="-3200.89" y="-2336.76" class="st5" width="42.27" height="9.75"/>
	<rect x="-3165.12" y="-2403.96" class="st5" width="5.42" height="31.43"/>
	<rect x="-3238.82" y="-2426.72" class="st5" width="10.84" height="45.52"/>
	<rect x="-3200.89" y="-2436.47" class="st5" width="29.58" height="89"/>
	<rect x="-3201.97" y="-2320.51" class="st5" width="42.27" height="9.75"/>
	<rect x="-3284.34" y="-2433.22" class="st5" width="2.17" height="7.59"/>
	<rect x="-3284.34" y="-2420.21" class="st5" width="2.17" height="7.59"/>
</g>
<g>
	<g>
		<path d="M-2803.7-2434v136.94h-300V-2434H-2803.7 M-2794.7-2443h-318v154.94h318V-2443L-2794.7-2443z"/>
	</g>
	<g>
		<line class="st1" x1="-2953.2" y1="-2290.18" x2="-2953.2" y2="-2246.67"/>
	</g>
	<line class="st2" x1="-3027.2" y1="-2247.2" x2="-2875.7" y2="-2247.2"/>
</g>
<g>
	<rect x="-2052" y="-2442" width="713" height="204.76"/>
	<g>
		<g>
			<path class="st0" d="M-1870.04-2281.2h-9.1c-0.79-1.52-1.19-8.1-1.39-20.43c-4.96,8.84-15.8,21.92-44.23,21.92
				c-39.43,0-59.67-28.14-59.67-64.74c0-38.44,21.62-67.32,61.9-67.32c29.74,0,49.37,14.62,53.67,38.31h-11
				c-5.82-18-19.22-28.84-43.06-28.84c-34.19,0-49.72,24.95-49.72,57.29c0,29.27,14.98,55.83,48.38,55.83
				c34.13,0,43.63-20.87,43.63-49.01v-1.46h-44.02v-9.49h54.62V-2281.2z"/>
			<path class="st0" d="M-1771.65-2298.83c0,8.12,0.78,14.7,1.37,17.63h-9.79c-0.79-2.2-1.37-6.27-1.76-14.06
				c-3.34,6.78-11.94,16.27-32.09,16.27c-22.79,0-32.62-13.83-32.62-27.65c0-20.27,16.72-29.49,46.15-29.49c8.17,0,14.64,0,18.55,0
				v-9.31c0-9.15-2.94-21.35-25.1-21.35c-19.64,0-22.58,9.64-24.72,17.17h-10.18c1.18-10.27,7.95-25.86,35.11-25.86
				c22.47,0,35.07,8.86,35.07,29.15V-2298.83z M-1781.65-2328.04c-3.7,0-12.64,0-19.06,0c-21.67,0-35.05,5.32-35.05,21
				c0,11.49,8.73,19.35,22.39,19.35c27.83,0,31.72-17.35,31.72-37.06V-2328.04z"/>
			<path class="st0" d="M-1739.45-2349.51c0-7.92,0-16.55-0.2-23.75h9.99c0.2,3.11,0.6,10.96,0.41,16.26
				c4.14-9.15,13.15-18.47,29.4-18.47c13.75,0,24.48,6.45,28.4,18.13c4.93-9.53,14.71-18.13,31.96-18.13
				c15.16,0,30.83,8.14,30.83,33.7v60.57h-10.19v-59.42c0-12.25-4.68-25.57-22.78-25.57c-18.88,0-27.42,14.2-27.42,31.97v53.02h-10
				v-59.22c0-13.35-4.28-25.76-22.2-25.76c-18.87,0-28,15.62-28,34.33v50.65h-10.2V-2349.51z"/>
			<path class="st0" d="M-1574.03-2326.03c0.19,23.48,12.81,38.13,31.53,38.13c18.29,0,24.51-9.63,28.02-17.14h10.4
				c-4.11,12.13-14.52,26.05-38.82,26.05c-29.9,0-41.54-24.09-41.54-47.49c0-26.39,13.98-48.99,42.71-48.99
				c30.31,0,39.97,24.45,39.97,41.89c0,2.59,0,5.15-0.2,7.55H-1574.03z M-1512.34-2334.3c-0.2-18.06-10.66-32.3-29.77-32.3
				c-20.06,0-29.2,13.15-31.33,32.3H-1512.34z"/>
			<path class="st0" d="M-1477.5-2306.66c3.31,11.86,12.28,18.98,27.67,18.98c17.31,0,24.3-7.46,24.3-17.66
				c0-10.39-4.7-15.48-26.51-20.42c-25.48-5.75-31.74-12.97-31.74-25.14c0-12.72,10.21-24.56,32.56-24.56
				c22.36,0,32.95,12.76,34.5,25.82h-10.18c-1.75-7.63-8.13-17.14-24.74-17.14c-16.9,0-21.76,7.82-21.76,15.12
				c0,8.38,4.67,12.57,24.03,16.97c27.8,6.28,34.62,14.79,34.62,28.6c0,16.72-14.48,27.11-35.3,27.11
				c-22.55,0-35.11-11.1-37.84-27.67H-1477.5z"/>
		</g>
	</g>
</g>
<g>
	<g>
		<path d="M-2726.66-2245.43l-45.35-172.09h13.64c11.1,42.11,35.54,135.97,39.25,156.1h0.23c3.11-16.31,29.8-110.7,41.24-156.1
			h14.43c10.72,41.85,36.74,142.16,39.38,155.82h0.23c5.16-24.63,32.31-115.07,43.44-155.82h13.34l-49.99,172.09h-14.99
			c-10.73-40.51-36.01-139.14-38.88-154.21h-0.23c-4.25,22.55-29.32,111.6-40.96,154.21H-2726.66z"/>
		<path d="M-2446.78-2307.21c0,34.28-18.12,64.73-53.1,64.73c-31.75,0-51.48-27.32-51.48-64.47c0-35.26,18.59-64.49,52.66-64.49
			C-2467.45-2371.44-2446.78-2345.85-2446.78-2307.21z M-2538.47-2306.96c0,29.16,14.88,52.57,39.52,52.57
			c25.11,0,39.28-21.73,39.28-52.57c0-28.97-13.95-52.58-39.75-52.58C-2525.88-2359.54-2538.47-2336.42-2538.47-2306.96z"/>
		<path d="M-2417.89-2335.02c0-20.48-0.23-29.39-0.23-33.47h11.94c0.24,3.91,0.48,11.88,0.48,27.43
			c6.76-18.36,21.71-29.42,40.72-30.38v13.72c-24.36,1.67-40.72,19.14-40.72,48.53v63.76h-12.19V-2335.02z"/>
		<path d="M-2341.53-2245.43v-181.21h12.19v181.21H-2341.53z"/>
		<path d="M-2200.31-2426.64v145.81c0,11.8,0,23.12,0.23,35.4h-11.7c-0.47-2.97-0.72-14.42-0.72-20.5
			c-5.86,14.89-18.92,23.45-39.25,23.45c-30.46,0-48.75-26.06-48.75-63.01c0-37.9,19.93-65.95,51.84-65.95
			c23.29,0,32.66,10.49,36.16,18.31v-73.51H-2200.31z M-2287.6-2306c0,33.5,16.47,51.59,36.53,51.59
			c30.75,0,39.06-22.33,39.06-55.45c0-31.51-7.17-49.67-36.98-49.67C-2272.05-2359.52-2287.6-2340.2-2287.6-2306z"/>
		<path d="M-2161.57-2279.46c3.95,15.86,14.66,25.36,33.04,25.36c20.66,0,29.01-9.97,29.01-23.61c0-13.89-5.61-20.7-31.66-27.29
			c-30.42-7.68-37.89-17.34-37.89-33.61c0-17.01,12.19-32.83,38.88-32.83c26.69,0,39.34,17.06,41.19,34.51h-12.15
			c-2.09-10.21-9.71-22.91-29.53-22.91c-20.18,0-25.98,10.46-25.98,20.21c0,11.21,5.58,16.8,28.7,22.68
			c33.19,8.39,41.33,19.78,41.33,38.23c0,22.35-17.29,36.24-42.15,36.24c-26.92,0-41.92-14.84-45.18-36.98H-2161.57z"/>
	</g>
</g>
<line class="st17" x1="-2936" y1="-2536" x2="-2849" y2="-2536"/>
<line class="st18" x1="-3126" y1="-2638" x2="-3126" y2="-2535"/>
<rect x="-3344" y="-2692" width="20" height="228"/>
<rect x="-3045" y="-2584" class="st0" width="14" height="3"/>
<rect x="-3048" y="-2584" width="9" height="3"/>
<rect x="-2984" y="-2613" class="st0" width="4" height="9"/>
<rect x="-2987" y="-2613" width="4" height="9"/>
<rect x="-2871" y="-2579" class="st0" width="3" height="22"/>
<rect x="-2866" y="-2564" class="st0" width="1" height="1"/>
<rect x="-2873" y="-2579" width="3" height="22"/>
<rect x="-3068" y="-2558" width="7" height="5"/>
<rect x="-2914" y="-2610" width="22" height="5"/>
<line class="st19" x1="-930" y1="-2080.5" x2="-731" y2="-2080.5"/>
<line class="st19" x1="-936" y1="-2097.5" x2="-726" y2="-2097.5"/>
<g>
	<line class="st19" x1="-817" y1="-1897.5" x2="-701" y2="-1897.5"/>
	<line class="st19" x1="-665.5" y1="-2049.5" x2="-612.5" y2="-1835.5"/>
	<line class="st19" x1="-661.5" y1="-1810.5" x2="-610.5" y2="-1838.5"/>
	<line class="st19" x1="-724.5" y1="-1896.5" x2="-656.5" y2="-1810.5"/>
</g>
<g>
	<line class="st19" x1="-905.5" y1="-2078.5" x2="-891.5" y2="-2020.5"/>
	<line class="st19" x1="-895" y1="-2022.5" x2="-834" y2="-2022.5"/>
</g>
<g>
	<line class="st19" x1="-755" y1="-2077.5" x2="-769" y2="-2019.5"/>
	<line class="st19" x1="-765" y1="-2021.5" x2="-826" y2="-2021.5"/>
</g>
<g>
	<line class="st19" x1="-843" y1="-1897.5" x2="-959" y2="-1897.5"/>
	<line class="st19" x1="-994.68" y1="-2049.31" x2="-1047.68" y2="-1835.31"/>
	<line class="st19" x1="-998.68" y1="-1810.31" x2="-1049.68" y2="-1838.31"/>
	<line class="st19" x1="-935.68" y1="-1896.31" x2="-1003.68" y2="-1810.31"/>
</g>
<g>
	<line class="st19" x1="-1011.5" y1="-2073.5" x2="-935.5" y2="-2107.5"/>
	<line class="st19" x1="-998.91" y1="-2048.04" x2="-922.91" y2="-2082.04"/>
	<line class="st19" x1="-940.5" y1="-2108.5" x2="-926.5" y2="-2079.5"/>
	<line class="st19" x1="-1008.91" y1="-2077.54" x2="-994.91" y2="-2048.54"/>
</g>
<g>
	<line class="st19" x1="-649.62" y1="-2073.77" x2="-725.62" y2="-2107.77"/>
	<line class="st19" x1="-662.21" y1="-2048.31" x2="-738.21" y2="-2082.31"/>
	<line class="st19" x1="-720.62" y1="-2108.77" x2="-734.62" y2="-2079.77"/>
	<line class="st19" x1="-652.21" y1="-2077.81" x2="-666.21" y2="-2048.81"/>
</g>
<g>
	<line class="st19" x1="-955.5" y1="-1899.5" x2="-996.5" y2="-1846.5"/>
	<line class="st19" x1="-1002.5" y1="-1838.5" x2="-1008.5" y2="-1831.5"/>
</g>
<g>
	<line class="st19" x1="-704.91" y1="-1898.87" x2="-663.91" y2="-1845.87"/>
	<line class="st19" x1="-657.91" y1="-1837.87" x2="-651.91" y2="-1830.87"/>
</g>
<line class="st19" x1="-877" y1="-2004.5" x2="-858" y2="-2004.5"/>
<line class="st19" x1="-802" y1="-2004.5" x2="-783" y2="-2004.5"/>
<line class="st19" x1="-909.5" y1="-1958" x2="-909.5" y2="-1932"/>
<g>
	<line class="st19" x1="-892.5" y1="-1975" x2="-892.5" y2="-1949"/>
	<line class="st19" x1="-892.5" y1="-1941" x2="-892.5" y2="-1915"/>
	<line class="st19" x1="-909" y1="-1953.5" x2="-889" y2="-1953.5"/>
	<line class="st19" x1="-909" y1="-1936.5" x2="-889" y2="-1936.5"/>
	<line class="st19" x1="-896" y1="-1971.5" x2="-870" y2="-1971.5"/>
</g>
<g>
	<line class="st19" x1="-874.5" y1="-1915" x2="-874.5" y2="-1941"/>
	<line class="st19" x1="-874.5" y1="-1949" x2="-874.5" y2="-1975"/>
	<line class="st19" x1="-858" y1="-1936.5" x2="-878" y2="-1936.5"/>
	<line class="st19" x1="-858" y1="-1953.5" x2="-878" y2="-1953.5"/>
	<line class="st19" x1="-871" y1="-1918.5" x2="-897" y2="-1918.5"/>
</g>
<line class="st19" x1="-857.5" y1="-1958" x2="-857.5" y2="-1932"/>
<path class="st19" d="M-818.5-2051.5c0.23,15.57-24.23,15.57-24,0C-842.73-2067.07-818.27-2067.07-818.5-2051.5z"/>
<g>
	<path class="st19" d="M-931.5-2013.5c0.25,16.87-26.25,16.87-26,0C-957.75-2030.37-931.25-2030.37-931.5-2013.5z"/>
	<path class="st19" d="M-914.78-2013.82c0.56,38.05-59.21,38.05-58.65,0C-973.98-2051.87-914.22-2051.87-914.78-2013.82z"/>
</g>
<g>
	<path class="st19" d="M-750.61-1944.46c0.25,16.87-26.25,16.87-26,0C-776.86-1961.33-750.36-1961.33-750.61-1944.46z"/>
	<path class="st19" d="M-733.89-1944.79c0.56,38.05-59.21,38.05-58.65,0C-793.09-1982.83-733.33-1982.83-733.89-1944.79z"/>
</g>
<path class="st19" d="M-708.5-2036.5c0.17,11.68-18.17,11.68-18,0C-726.67-2048.18-708.33-2048.18-708.5-2036.5z"/>
<path class="st19" d="M-708.5-1990.5c0.17,11.68-18.17,11.68-18,0C-726.67-2002.18-708.33-2002.18-708.5-1990.5z"/>
<path class="st19" d="M-685.5-2013.5c0.17,11.68-18.17,11.68-18,0C-703.67-2025.18-685.33-2025.18-685.5-2013.5z"/>
<path class="st19" d="M-731.5-2013.5c0.17,11.68-18.17,11.68-18,0C-749.67-2025.18-731.33-2025.18-731.5-2013.5z"/>
<path class="st19" d="M-828.5-1896.5c-1.78,0.26-2.26-0.22-2-2C-828.72-1898.76-828.24-1898.28-828.5-1896.5z"/>
<g>
	<line class="st19" x1="-1653.5" y1="-1139.5" x2="-1653.5" y2="-1342.5"/>
	<line class="st19" x1="-1705.5" y1="-1139" x2="-1705.5" y2="-1553.5"/>
	<line class="st19" x1="-1546.26" y1="-1139.47" x2="-1546.5" y2="-1582.5"/>
	<line class="st19" x1="-1653.5" y1="-1352" x2="-1653.5" y2="-1582.5"/>
	<line class="st19" x1="-1705.5" y1="-1143.5" x2="-1541.5" y2="-1143.5"/>
	<line class="st19" x1="-1709" y1="-1171.5" x2="-1649.5" y2="-1171.5"/>
	<line class="st19" x1="-1709.5" y1="-1549.5" x2="-1653.5" y2="-1549.5"/>
	<line class="st19" x1="-1657.5" y1="-1578.5" x2="-1542.5" y2="-1578.5"/>
	<line class="st19" x1="-1612.5" y1="-1574.5" x2="-1612.5" y2="-1332.5"/>
	<line class="st19" x1="-1586.5" y1="-1581" x2="-1586.5" y2="-1470.5"/>
	<line class="st19" x1="-1586.66" y1="-1444.65" x2="-1586.5" y2="-1333.5"/>
	<line class="st19" x1="-1613.5" y1="-1337.5" x2="-1582.5" y2="-1337.5"/>
	<line class="st19" x1="-1586.5" y1="-1463" x2="-1586.5" y2="-1453.5"/>
	<line class="st19" x1="-1688.5" y1="-1536.5" x2="-1688.5" y2="-1492.5"/>
	<line class="st19" x1="-1670.5" y1="-1536.5" x2="-1670.5" y2="-1492.5"/>
	<line class="st19" x1="-1692.5" y1="-1532.5" x2="-1666.5" y2="-1532.5"/>
	<line class="st19" x1="-1693" y1="-1496.5" x2="-1666.5" y2="-1496.5"/>
	<line class="st19" x1="-1687.83" y1="-1228.68" x2="-1687.83" y2="-1184.68"/>
	<line class="st19" x1="-1669.83" y1="-1228.68" x2="-1669.83" y2="-1184.68"/>
	<line class="st19" x1="-1691.83" y1="-1224.68" x2="-1665.83" y2="-1224.68"/>
	<line class="st19" x1="-1692.33" y1="-1188.68" x2="-1665.83" y2="-1188.68"/>
	<line class="st19" x1="-1679.5" y1="-1254" x2="-1679.5" y2="-1237.5"/>
	<circle class="st19" cx="-1599.5" cy="-1310.5" r="9"/>
	<circle class="st19" cx="-1599.5" cy="-1206.5" r="13"/>
	<g>
		<line class="st19" x1="-1534" y1="-1262.5" x2="-1418" y2="-1262.5"/>
		<line class="st19" x1="-1382.5" y1="-1414.5" x2="-1329.5" y2="-1200.5"/>
		<line class="st19" x1="-1378.5" y1="-1175.5" x2="-1327.5" y2="-1203.5"/>
		<line class="st19" x1="-1441.5" y1="-1261.5" x2="-1373.5" y2="-1175.5"/>
	</g>
	<g>
		<line class="st19" x1="-1472" y1="-1442.5" x2="-1486" y2="-1384.5"/>
		<line class="st19" x1="-1482" y1="-1386.5" x2="-1543" y2="-1386.5"/>
	</g>
	<g>
		<line class="st19" x1="-1366.62" y1="-1438.77" x2="-1442.62" y2="-1472.77"/>
		<line class="st19" x1="-1379.21" y1="-1413.31" x2="-1455.21" y2="-1447.31"/>
		<line class="st19" x1="-1437.62" y1="-1473.77" x2="-1451.62" y2="-1444.77"/>
		<line class="st19" x1="-1369.21" y1="-1442.81" x2="-1383.21" y2="-1413.81"/>
	</g>
	<g>
		<line class="st19" x1="-1421.91" y1="-1263.87" x2="-1380.91" y2="-1210.87"/>
		<line class="st19" x1="-1374.91" y1="-1202.87" x2="-1368.91" y2="-1195.87"/>
	</g>
	<line class="st19" x1="-1519" y1="-1369.5" x2="-1500" y2="-1369.5"/>
	<g>
		<path class="st19" d="M-1467.61-1309.46c0.25,16.87-26.25,16.87-26,0C-1493.86-1326.33-1467.36-1326.33-1467.61-1309.46z"/>
		<path class="st19" d="M-1450.89-1309.79c0.56,38.05-59.21,38.05-58.65,0C-1510.09-1347.83-1450.33-1347.83-1450.89-1309.79z"/>
	</g>
	<path class="st19" d="M-1425.5-1401.5c0.17,11.68-18.17,11.68-18,0C-1443.67-1413.18-1425.33-1413.18-1425.5-1401.5z"/>
	<path class="st19" d="M-1425.5-1355.5c0.17,11.68-18.17,11.68-18,0C-1443.67-1367.18-1425.33-1367.18-1425.5-1355.5z"/>
	<path class="st19" d="M-1402.5-1378.5c0.17,11.68-18.17,11.68-18,0C-1420.67-1390.18-1402.33-1390.18-1402.5-1378.5z"/>
	<path class="st19" d="M-1448.5-1378.5c0.17,11.68-18.17,11.68-18,0C-1466.67-1390.18-1448.33-1390.18-1448.5-1378.5z"/>
	<path class="st19" d="M-1545.5-1261.5c-1.78,0.26-2.26-0.22-2-2C-1545.72-1263.76-1545.24-1263.28-1545.5-1261.5z"/>
	<line class="st19" x1="-1546.5" y1="-1461.5" x2="-1443.5" y2="-1461.5"/>
	<line class="st19" x1="-1548" y1="-1444.5" x2="-1445" y2="-1444.5"/>
	<path class="st19" d="M-1528.5-1414c0,1.17,0.02,9.21-6,12.5c-2.8,1.53-7.31,2.25-10,0c-0.92-0.77-1.98-2.18-2-12
		c-0.02-8.39,0.01-12.62,2-14c3.16-2.2,8.84-0.02,12,3C-1528.52-1420.7-1528.5-1415.53-1528.5-1414z"/>
</g>
<rect x="-2844.5" y="-1039.5" class="st19" width="286" height="343"/>
<line class="st20" x1="-2808.5" y1="-1000.5" x2="-2593.5" y2="-1000.5"/>
<line class="st20" x1="-2808.5" y1="-958.5" x2="-2593.5" y2="-958.5"/>
<rect x="-2803.5" y="-921.5" class="st19" width="106" height="106"/>
<rect x="-2662.5" y="-921.5" class="st19" width="8" height="106"/>
<rect x="-2634.5" y="-921.5" class="st19" width="9" height="106"/>
<rect x="-2605.5" y="-921.5" class="st19" width="8" height="106"/>
<line class="st19" x1="-2803.5" y1="-782.5" x2="-2725" y2="-782.5"/>
<line class="st19" x1="-2712.5" y1="-782.5" x2="-2664.5" y2="-782.5"/>
<line class="st19" x1="-2650.5" y1="-782.5" x2="-2619.5" y2="-782.5"/>
<line class="st19" x1="-2609.5" y1="-782.5" x2="-2593.5" y2="-782.5"/>
<line class="st19" x1="-2803.5" y1="-765.5" x2="-2650.5" y2="-765.5"/>
<line class="st19" x1="-2640.5" y1="-765.5" x2="-2593.5" y2="-765.5"/>
<line class="st19" x1="-2803.5" y1="-744.5" x2="-2752.5" y2="-744.5"/>
<line class="st19" x1="-2741.5" y1="-744.5" x2="-2650.5" y2="-744.5"/>
<line class="st19" x1="-2640.5" y1="-744.5" x2="-2593.5" y2="-744.5"/>
<line class="st19" x1="-2803.5" y1="-726.5" x2="-2593.5" y2="-726.5"/>
<line class="st19" x1="-2845.5" y1="-1039.5" x2="-2827.5" y2="-1061.5"/>
<line class="st19" x1="-2561.47" y1="-1039.45" x2="-2543.47" y2="-1061.45"/>
<line class="st19" x1="-2558.47" y1="-696.45" x2="-2540.47" y2="-718.45"/>
<path class="st19" d="M-2529.5-911.5"/>
<line class="st19" x1="-2831.5" y1="-1059.5" x2="-2541.5" y2="-1059.5"/>
<line class="st19" x1="-2542.5" y1="-715.5" x2="-2542.5" y2="-1061.5"/>
<circle class="st19" cx="-2750.5" cy="-868.5" r="38"/>
<line class="st19" x1="-2786.5" y1="-880.5" x2="-2717.5" y2="-880.5"/>
<line class="st19" x1="-2786.5" y1="-857.5" x2="-2717.5" y2="-857.5"/>
<ellipse class="st19" cx="-2750.5" cy="-868.5" rx="13" ry="38"/>
<rect x="-2446.53" y="-604.88" class="st19" width="286" height="343"/>
<line class="st19" x1="-2447.53" y1="-604.88" x2="-2429.53" y2="-626.88"/>
<line class="st19" x1="-2163.49" y1="-604.83" x2="-2145.49" y2="-626.83"/>
<line class="st19" x1="-2160.49" y1="-261.83" x2="-2142.49" y2="-283.83"/>
<path class="st19" d="M-2131.53-476.88"/>
<line class="st19" x1="-2433.53" y1="-624.88" x2="-2143.53" y2="-624.88"/>
<line class="st19" x1="-2144.53" y1="-280.88" x2="-2144.53" y2="-626.88"/>
<rect x="-2433.5" y="-620.5" class="st21" width="283" height="13"/>
<rect x="-2154.5" y="-610.5" class="st22" width="4" height="333"/>
<rect x="-2447.5" y="-595.5" class="st22" width="278" height="324"/>
<g>
	<line class="st23" x1="-2406.53" y1="-568.88" x2="-2191.53" y2="-568.88"/>
	<line class="st23" x1="-2406.53" y1="-526.88" x2="-2191.53" y2="-526.88"/>
	<rect x="-2401.53" y="-489.88" class="st15" width="106" height="106"/>
	<rect x="-2260.53" y="-489.88" class="st15" width="8" height="106"/>
	<rect x="-2232.53" y="-489.88" class="st15" width="9" height="106"/>
	<rect x="-2203.53" y="-489.88" class="st15" width="8" height="106"/>
	<line class="st15" x1="-2401.53" y1="-350.88" x2="-2323.03" y2="-350.88"/>
	<line class="st15" x1="-2310.53" y1="-350.88" x2="-2262.53" y2="-350.88"/>
	<line class="st15" x1="-2248.53" y1="-350.88" x2="-2217.53" y2="-350.88"/>
	<line class="st15" x1="-2207.53" y1="-350.88" x2="-2191.53" y2="-350.88"/>
	<line class="st15" x1="-2401.53" y1="-333.88" x2="-2248.53" y2="-333.88"/>
	<line class="st15" x1="-2238.53" y1="-333.88" x2="-2191.53" y2="-333.88"/>
	<line class="st15" x1="-2401.53" y1="-312.88" x2="-2350.53" y2="-312.88"/>
	<line class="st15" x1="-2339.53" y1="-312.88" x2="-2248.53" y2="-312.88"/>
	<line class="st15" x1="-2238.53" y1="-312.88" x2="-2191.53" y2="-312.88"/>
	<line class="st15" x1="-2401.53" y1="-294.88" x2="-2191.53" y2="-294.88"/>
	<circle class="st15" cx="-2348.53" cy="-436.88" r="38"/>
	<line class="st15" x1="-2384.53" y1="-448.88" x2="-2315.53" y2="-448.88"/>
	<line class="st15" x1="-2384.53" y1="-425.88" x2="-2315.53" y2="-425.88"/>
	<ellipse class="st15" cx="-2348.53" cy="-436.88" rx="13" ry="38"/>
</g>
<path class="st19" d="M-1941.32-426.66L-1941.32-426.66c-22.41,23.27-59.44,23.97-82.72,1.56l0,0
	c-23.27-22.41-23.97-59.44-1.56-82.72l0,0c22.41-23.27,59.44-23.97,82.72-1.56v0C-1919.61-486.97-1918.91-449.94-1941.32-426.66z"/>
<rect x="-1888.39" y="-417.79" transform="matrix(0.6936 -0.7203 0.7203 0.6936 -309.5046 -1468.9784)" class="st19" width="13.55" height="94.28"/>
<line class="st19" x1="-1942.5" y1="-429.5" x2="-1917.5" y2="-405.5"/>
<line class="st19" x1="-2021.5" y1="-495.5" x2="-1980.24" y2="-495.5"/>
<line class="st19" x1="-1975.08" y1="-495.5" x2="-1945.5" y2="-495.5"/>
<line class="st19" x1="-2021.5" y1="-482.61" x2="-1996.57" y2="-482.61"/>
<line class="st19" x1="-1993.13" y1="-482.61" x2="-1945" y2="-482.61"/>
<line class="st19" x1="-2021.5" y1="-469.71" x2="-1978.52" y2="-469.71"/>
<line class="st19" x1="-1945" y1="-469.71" x2="-1958.75" y2="-469.71"/>
<line class="st19" x1="-2021.5" y1="-457.68" x2="-1984.54" y2="-457.68"/>
<line class="st19" x1="-1981.1" y1="-457.68" x2="-1945" y2="-457.68"/>
<line class="st19" x1="-2021.5" y1="-443.5" x2="-1945.5" y2="-443.5"/>
<line class="st19" x1="-1960.9" y1="-469.71" x2="-1974.65" y2="-469.71"/>
<polygon class="st24" points="-1565.85,-596.76 -1350.35,-223.5 -1781.35,-223.5 "/>
<rect x="-1570" y="-488" class="st24" width="8" height="177"/>
<rect x="-1569.81" y="-271" class="st24" width="8" height="8.07"/>
<rect x="-987" y="-305" class="st25" width="50" height="50"/>
<rect x="-1053" y="-243" class="st25" width="50" height="50"/>
<rect x="-1119" y="-309" class="st25" width="50" height="50"/>
<rect x="-921" y="-371" class="st25" width="50" height="50"/>
<rect x="-1251" y="-441" class="st25" width="50" height="50"/>
<rect x="-855" y="-437" class="st25" width="50" height="50"/>
<rect x="-1251" y="-504" class="st25" width="50" height="50"/>
<rect x="-855" y="-500" class="st25" width="50" height="50"/>
<rect x="-1185" y="-375" class="st25" width="50" height="50"/>
<rect x="-1251" y="-567" class="st25" width="50" height="50"/>
<rect x="-855" y="-563" class="st25" width="50" height="50"/>
<rect x="-1185" y="-631" class="st25" width="50" height="50"/>
<rect x="-921" y="-627" class="st25" width="50" height="50"/>
<rect x="-987" y="-627" class="st25" width="50" height="50"/>
<rect x="-1119" y="-631" class="st25" width="50" height="50"/>
<rect x="-1053" y="-567" class="st25" width="50" height="50"/>
<rect x="-419.73" y="-715.5" transform="matrix(0.7071 -0.7071 0.7071 0.7071 325.5561 -367.6822)" class="st25" width="277.36" height="277.36"/>
<rect x="-244.87" y="-546.48" transform="matrix(0.7071 -0.7071 0.7071 0.7071 253.1025 -193.1336)" class="st25" width="276.58" height="288.79"/>
<rect x="-78.64" y="-698.18" transform="matrix(0.7071 -0.7071 0.7071 0.7071 413.2135 -121.4225)" class="st25" width="277.36" height="277.36"/>
<rect x="-1289" y="217" class="st25" width="50" height="50"/>
<rect x="-1355" y="279" class="st25" width="50" height="50"/>
<rect x="-1421" y="213" class="st25" width="50" height="50"/>
<rect x="-1223" y="151" class="st25" width="50" height="50"/>
<rect x="-1553" y="81" class="st25" width="50" height="50"/>
<rect x="-1157" y="85" class="st25" width="50" height="50"/>
<rect x="-1553" y="18" class="st25" width="50" height="50"/>
<rect x="-1157" y="22" class="st25" width="50" height="50"/>
<rect x="-1487" y="147" class="st25" width="50" height="50"/>
<rect x="-1834" y="-109" class="st25" width="50" height="50"/>
<rect x="-1487" y="-52" class="st25" width="50" height="50"/>
<rect x="-1223" y="-48" class="st25" width="50" height="50"/>
<rect x="-1289" y="-48" class="st25" width="50" height="50"/>
<rect x="-1421" y="-52" class="st25" width="50" height="50"/>
<rect x="-1355" y="12" class="st25" width="50" height="50"/>
<g>
	<rect x="-735" y="20" class="st26" width="25" height="25"/>
	<rect x="-710" y="-5" class="st26" width="50" height="25"/>
	<rect x="-660" y="20" class="st26" width="25" height="25"/>
	<rect x="-760" y="45" class="st26" width="25" height="74"/>
	<rect x="-710" y="144" class="st26" width="25" height="25"/>
	<rect x="-735" y="119" class="st26" width="25" height="25"/>
	<rect x="-635" y="45" class="st26" width="25" height="25"/>
	<rect x="-635" y="219" class="st26" width="25" height="25"/>
	<g>
		<rect x="-685" y="169" class="st26" width="25" height="25"/>
		<rect x="-660" y="194" class="st26" width="25" height="25"/>
	</g>
	<rect x="-535" y="20" transform="matrix(-1 -4.489266e-11 4.489266e-11 -1 -1045 65)" class="st26" width="25" height="25"/>
	<rect x="-585" y="-5" transform="matrix(-1 -4.489266e-11 4.489266e-11 -1 -1120 15)" class="st26" width="50" height="25"/>
	<rect x="-610" y="20" transform="matrix(-1 -4.489266e-11 4.489266e-11 -1 -1195 65)" class="st26" width="25" height="25"/>
	<rect x="-510" y="45" transform="matrix(-1 -4.489266e-11 4.489266e-11 -1 -995 164)" class="st26" width="25" height="74"/>
	<rect x="-560" y="144" transform="matrix(-1 -4.489266e-11 4.489266e-11 -1 -1095 313)" class="st26" width="25" height="25"/>
	<rect x="-535" y="119" transform="matrix(-1 -4.489266e-11 4.489266e-11 -1 -1045 263)" class="st26" width="25" height="25"/>
	<g>
		<rect x="-585" y="169" transform="matrix(-1 -4.489266e-11 4.489266e-11 -1 -1145 363)" class="st26" width="25" height="25"/>
		<rect x="-610" y="194" transform="matrix(-1 -4.489266e-11 4.489266e-11 -1 -1195 413)" class="st26" width="25" height="25"/>
	</g>
</g>
<g>
	<rect x="-324.35" y="146.46" class="st26" width="25" height="25"/>
	<rect x="-299.35" y="121.46" class="st26" width="50" height="25"/>
	<rect x="-249.35" y="146.46" class="st26" width="25" height="25"/>
	<rect x="-349.35" y="171.46" class="st26" width="25" height="98.54"/>
	<rect x="-299" y="295" class="st26" width="25" height="25"/>
	<rect x="-324" y="270" class="st26" width="25" height="25"/>
	<rect x="-224.35" y="171.46" class="st26" width="25" height="25"/>
	<rect x="-224" y="370" class="st26" width="25" height="25"/>
	<g>
		<rect x="-274" y="320" class="st26" width="25" height="25"/>
		<rect x="-249" y="345" class="st26" width="25" height="25"/>
	</g>
	
		<rect x="-124.35" y="146.46" transform="matrix(-1 -4.489266e-11 4.489266e-11 -1 -223.7021 317.9149)" class="st26" width="25" height="25"/>
	
		<rect x="-174.35" y="121.46" transform="matrix(-1 -4.489266e-11 4.489266e-11 -1 -298.7021 267.9149)" class="st26" width="50" height="25"/>
	
		<rect x="-199.35" y="146.46" transform="matrix(-1 -4.489266e-11 4.489266e-11 -1 -373.7021 317.9149)" class="st26" width="25" height="25"/>
	
		<rect x="-99.35" y="171.46" transform="matrix(-1 -5.980828e-11 5.980828e-11 -1 -173.7021 441.4575)" class="st26" width="25" height="98.54"/>
	<rect x="-149" y="295" transform="matrix(-1 -4.489266e-11 4.489266e-11 -1 -273 615)" class="st26" width="25" height="25"/>
	<rect x="-124" y="270" transform="matrix(-1 -4.489266e-11 4.489266e-11 -1 -223 565)" class="st26" width="25" height="25"/>
	<g>
		<rect x="-174" y="320" transform="matrix(-1 -4.489266e-11 4.489266e-11 -1 -323 665)" class="st26" width="25" height="25"/>
		<rect x="-199" y="345" transform="matrix(-1 -4.489266e-11 4.489266e-11 -1 -373 715)" class="st26" width="25" height="25"/>
	</g>
	<g>
		<rect x="69" y="86" class="st26" width="285" height="247"/>
		<line class="st26" x1="69" y1="137" x2="354" y2="137"/>
		<g>
			<rect x="120" y="50" class="st27" width="30" height="64"/>
			<rect x="273" y="50" class="st28" width="30" height="64"/>
		</g>
		<g>
			<rect x="120" y="182" class="st28" width="37" height="37"/>
			<rect x="155" y="182" class="st26" width="37" height="37"/>
			<rect x="192" y="182" class="st26" width="37" height="37"/>
			<rect x="229" y="182" class="st26" width="37" height="37"/>
			<rect x="266" y="182" class="st26" width="37" height="37"/>
			<g>
				<rect x="120" y="219" class="st26" width="37" height="37"/>
				<rect x="155" y="219" class="st26" width="37" height="37"/>
				<rect x="192" y="219" class="st26" width="37" height="37"/>
				<rect x="229" y="219" class="st26" width="37" height="37"/>
				<rect x="266" y="219" class="st26" width="37" height="37"/>
			</g>
			<rect x="120" y="256" class="st26" width="37" height="37"/>
			<rect x="155" y="256" class="st26" width="37" height="37"/>
			<rect x="192" y="256" class="st26" width="37" height="37"/>
			<rect x="229" y="256" class="st26" width="37" height="37"/>
			<rect x="266" y="256" class="st28" width="37" height="37"/>
		</g>
	</g>
</g>
</svg>
