<svg width="136" height="36" viewBox="0 0 136 36" fill="none" xmlns="http://www.w3.org/2000/svg">
<path fill-rule="evenodd" clip-rule="evenodd" d="M0 9.35593V18.7119H1.53583H3.07165V20.5932V22.4746H11.704H20.3364V24.2515V26.0283L18.8271 26.0566L17.3178 26.0847L17.2849 26.4661L17.252 26.8475H20.7538H24.2555V26.4407V26.0339H22.7196H21.1838V24.2542V22.4746H29.8168H38.45L38.4228 15.0254L38.3956 7.57627H20.7601H3.12461L3.09718 12.839L3.06974 18.1017H1.85263H0.635514V9.30498V0.508271L68.1324 0.533796L135.629 0.559322L135.656 12.9915L135.683 25.4237H134.835H133.988V22.8814C133.988 21.483 133.952 20.3389 133.908 20.3389C133.864 20.3388 132.501 20.0642 130.879 19.7287L127.929 19.1186H124.709H121.489V23.0847V27.0508L117.702 27.0526C115.62 27.0535 97.3528 27.1443 77.109 27.2542C56.8653 27.3642 35.8814 27.455 30.4782 27.4559L20.6542 27.4576V28.3729V29.2881H17.1589H13.6636V32.6441V36H20.7601H27.8567V32.6441V29.2881H24.4143H20.972V28.5254V27.7627H29.0218H37.0717V28.8814V30H36.2243H35.3769V32.5932V35.1864H37.2305H39.0841V32.5932V30H38.2368H37.3894V28.9322V27.8644L40.4346 27.8627C42.1095 27.8618 60.0428 27.7709 80.2866 27.661C100.53 27.5511 118.083 27.4603 119.291 27.4594L121.489 27.4576V30.8136V34.1695H124.755H128.022L130.554 33.3012C131.948 32.8237 133.29 32.3598 133.537 32.2704L133.988 32.1079V29.0201V25.9322H134.994H136V12.9661V0H68H0V9.35593ZM129.428 2.59932C129.31 2.7358 129.445 2.90634 130.393 3.81966L131.495 4.88136L130.391 5.94498C129.293 7.0022 129.288 7.01003 129.486 7.22044L129.686 7.43207L130.806 6.36L131.926 5.28793L133.034 6.35532L134.142 7.42271L134.353 7.21932L134.565 7.01593L133.457 5.94864L132.35 4.88136L133.452 3.81966C134.4 2.90634 134.534 2.7358 134.417 2.59932C134.341 2.51207 134.226 2.44068 134.162 2.44068C134.097 2.44068 133.566 2.8983 132.981 3.45773L131.918 4.47478L130.863 3.45773C130.283 2.8983 129.753 2.44068 129.686 2.44068C129.62 2.44068 129.503 2.51207 129.428 2.59932ZM97.7536 2.70041C97.4861 2.77942 97.051 3.02705 96.7866 3.25047C95.2651 4.5363 95.5799 6.83095 97.3946 7.68336C98.5348 8.21898 99.8917 7.95702 100.733 7.03881C101.745 5.93583 101.684 4.44732 100.585 3.39234C99.7749 2.61427 98.8274 2.38271 97.7536 2.70041ZM97.7103 3.34536C96.275 3.98339 95.9477 5.68688 97.0562 6.74959C97.9231 7.58064 99.1684 7.63678 100.06 6.88515C100.855 6.21498 101.045 5.22437 100.558 4.28675C100.045 3.29725 98.7679 2.87522 97.7103 3.34536ZM4.3162 4.08427C3.98361 4.20092 3.91519 4.42414 4.23676 4.34339C4.43345 4.29407 4.4486 4.34034 4.4486 4.99261C4.4486 5.39298 4.49414 5.69492 4.55452 5.69492C4.6168 5.69492 4.66044 5.33898 4.66044 4.83051C4.66044 4.35508 4.64857 3.96976 4.63396 3.97414C4.61934 3.97851 4.47645 4.02814 4.3162 4.08427ZM5.58723 4.5599C5.36882 4.88552 5.19003 5.18247 5.19003 5.22C5.19003 5.25742 5.35135 5.28814 5.54836 5.28814C5.81771 5.28814 5.92055 5.33868 5.96218 5.49153C6.03283 5.75095 6.24922 5.75736 6.24922 5.49997C6.24922 5.39278 6.30885 5.28183 6.38162 5.25346C6.48277 5.2141 6.48436 5.18156 6.3884 5.11597C6.31934 5.06868 6.24784 4.80559 6.22952 4.53142C6.2112 4.25715 6.1486 4.01827 6.09034 4.00047C6.03209 3.98258 5.80574 4.23437 5.58723 4.5599ZM6.95475 4.52085C6.74153 4.82929 6.56698 5.12807 6.56698 5.18492C6.56698 5.24166 6.7338 5.28814 6.93769 5.28814C7.23776 5.28814 7.30841 5.32688 7.30841 5.49153C7.30841 5.7422 7.50214 5.75939 7.59524 5.51695C7.63295 5.41902 7.71482 5.30461 7.77731 5.26271C7.85675 5.20942 7.85315 5.16285 7.76535 5.10824C7.69629 5.06522 7.62479 4.80559 7.60647 4.53142C7.58814 4.25715 7.52131 4.01644 7.45786 3.99651C7.39442 3.97647 7.16807 4.21241 6.95475 4.52085ZM8.10884 4.19217C8.01817 4.31644 7.94392 4.60373 7.94392 4.83051C7.94392 5.33024 8.1868 5.69492 8.51949 5.69492C8.85546 5.69492 9.01932 5.47363 9.08266 4.93414C9.17788 4.12271 8.5233 3.624 8.10884 4.19217ZM11.5304 4.16054C11.0319 4.5481 11.2978 5.69492 11.8863 5.69492C11.9977 5.69492 12.1849 5.74434 12.3026 5.80485C12.5459 5.92983 12.7005 5.84827 12.5303 5.68485C12.4505 5.60817 12.4634 5.48807 12.5746 5.2741C12.8663 4.71254 12.5139 3.9661 11.957 3.9661C11.86 3.9661 11.6679 4.05356 11.5304 4.16054ZM13.028 4.83051C13.028 5.33898 13.0717 5.69492 13.134 5.69492C13.1922 5.69492 13.2399 5.51186 13.2399 5.28814V4.88136H13.6636H14.0872V5.28814C14.0872 5.51186 14.1349 5.69492 14.1931 5.69492C14.2554 5.69492 14.2991 5.33898 14.2991 4.83051C14.2991 4.32203 14.2554 3.9661 14.1931 3.9661C14.1349 3.9661 14.0872 4.12627 14.0872 4.32203C14.0872 4.66953 14.0772 4.67797 13.6636 4.67797C13.2499 4.67797 13.2399 4.66953 13.2399 4.32203C13.2399 4.12627 13.1922 3.9661 13.134 3.9661C13.0717 3.9661 13.028 4.32203 13.028 4.83051ZM14.7227 4.81708V5.69492H15.0817C15.6419 5.69492 15.9408 5.39847 15.9408 4.84312C15.9408 4.27637 15.7527 4.07197 15.161 3.9958L14.7227 3.93936V4.81708ZM8.30797 4.302C8.27556 4.38315 8.2638 4.67258 8.28181 4.94512C8.30945 5.36237 8.34811 5.44068 8.52648 5.44068C8.7147 5.44068 8.73832 5.37285 8.73832 4.83193C8.73832 4.33261 8.70495 4.21698 8.55264 4.18881C8.45054 4.1699 8.34038 4.22085 8.30797 4.302ZM11.6576 4.31451C11.473 4.52797 11.5597 5.29515 11.7835 5.4298C12.0905 5.61458 12.3345 5.38495 12.3732 4.87464C12.3985 4.54261 12.3601 4.3982 12.2206 4.30027C11.9789 4.13064 11.8129 4.13481 11.6576 4.31451ZM15.0052 4.23732C14.9664 4.27454 14.9346 4.572 14.9346 4.89834C14.9346 5.52936 15.0277 5.61407 15.4712 5.38627C15.6263 5.30654 15.676 5.1718 15.676 4.83051C15.676 4.48922 15.6263 4.35447 15.4712 4.27475C15.2335 4.15261 15.1042 4.14224 15.0052 4.23732ZM9.37351 4.458C9.3446 4.48576 9.32087 4.86692 9.32087 5.30512C9.32087 5.94539 9.35201 6.10169 9.47975 6.10169C9.56798 6.10169 9.63863 6.01129 9.63863 5.8983C9.63863 5.75044 9.70928 5.69492 9.89739 5.69492C10.377 5.69492 10.6498 5.03359 10.3388 4.62519C10.2022 4.4459 9.51078 4.3262 9.37351 4.458ZM5.68351 4.77966C5.49984 5.07814 5.50048 5.08475 5.71359 5.08475C5.88507 5.08475 5.93146 5.01976 5.93146 4.77966C5.93146 4.61186 5.91791 4.47458 5.90138 4.47458C5.88475 4.47458 5.78678 4.61186 5.68351 4.77966ZM7.04361 4.77966C6.88717 5.0702 6.8895 5.08475 7.09382 5.08475C7.26159 5.08475 7.30841 5.01824 7.30841 4.77966C7.30841 4.61186 7.28585 4.47458 7.2582 4.47458C7.23056 4.47458 7.13396 4.61186 7.04361 4.77966ZM9.68036 4.72027C9.64869 4.79939 9.63831 4.99393 9.65717 5.15247C9.68216 5.36186 9.74953 5.44068 9.90343 5.44068C10.3079 5.44068 10.2258 4.58542 9.8207 4.5778C9.77516 4.57698 9.71203 4.64105 9.68036 4.72027ZM42.4792 6.09356C42.2431 6.42752 42.0498 6.7261 42.0498 6.75712C42.0498 6.78814 42.2405 6.81356 42.4735 6.81356C42.8265 6.81356 42.8972 6.84742 42.8972 7.01695C42.8972 7.12881 42.9449 7.22034 43.0031 7.22034C43.0614 7.22034 43.109 7.13268 43.109 7.02539C43.109 6.9182 43.1687 6.8038 43.2414 6.77115C43.3473 6.72376 43.3473 6.69997 43.2414 6.65258C43.1622 6.61698 43.109 6.39498 43.109 6.09925C43.109 5.82752 43.064 5.57847 43.0088 5.54583C42.9538 5.51308 42.7154 5.75959 42.4792 6.09356ZM44.1429 5.67193C43.9575 5.87583 43.4268 6.68288 43.4268 6.76068C43.4268 6.78976 43.5881 6.81356 43.7851 6.81356C44.0545 6.81356 44.1573 6.8641 44.1989 7.01695C44.2696 7.27637 44.486 7.28278 44.486 7.02539C44.486 6.9182 44.5456 6.8038 44.6184 6.77115C44.7243 6.72376 44.7243 6.69997 44.6184 6.65258C44.5392 6.61698 44.486 6.39498 44.486 6.09925C44.486 5.54512 44.3791 5.412 44.1429 5.67193ZM44.9852 5.55468C44.9437 5.59454 44.9097 5.98556 44.9097 6.42376C44.9097 7.06403 44.9408 7.22034 45.0685 7.22034C45.1795 7.22034 45.2274 7.11295 45.2274 6.86441C45.2274 6.53675 45.2526 6.50847 45.5452 6.50847C45.7199 6.50847 45.8629 6.46271 45.8629 6.40678C45.8629 6.35085 45.7199 6.30508 45.5452 6.30508C45.2789 6.30508 45.2274 6.26481 45.2274 6.05695C45.2274 5.84369 45.2831 5.80444 45.6246 5.77729C45.8431 5.76 46.0218 5.7 46.0218 5.64407C46.0218 5.5262 45.0978 5.44647 44.9852 5.55468ZM46.2866 6.35593C46.2866 6.86441 46.3302 7.22034 46.3925 7.22034C46.4508 7.22034 46.4984 7.08895 46.4984 6.92827C46.4984 6.66651 46.5421 6.62949 46.9187 6.57163C47.679 6.45488 47.7575 5.69766 47.0239 5.55681C46.277 5.41342 46.2866 5.40295 46.2866 6.35593ZM47.9385 5.62434C47.624 5.84512 47.7627 6.22363 48.2461 6.46403C48.4791 6.57986 48.6698 6.74024 48.6698 6.82037C48.6698 7.03617 48.2065 7.06007 47.9719 6.85627C47.7018 6.62156 47.5761 6.75559 47.8218 7.01634C48.0371 7.24464 48.6058 7.29193 48.8075 7.09831C48.8774 7.03119 48.9346 6.86939 48.9346 6.73871C48.9346 6.55414 48.8284 6.45763 48.4579 6.30508C47.9508 6.09641 47.8396 5.85346 48.2008 5.74342C48.341 5.70071 48.4941 5.74078 48.6251 5.85458C48.7378 5.95251 48.8654 5.99847 48.9087 5.95668C49.012 5.85722 48.5393 5.49153 48.3075 5.49153C48.2086 5.49153 48.0426 5.55132 47.9385 5.62434ZM41.0701 5.66329C40.9682 5.68892 40.8847 5.77088 40.8847 5.84542C40.8847 5.93085 40.963 5.96136 41.0966 5.9278C41.2926 5.87858 41.3084 5.92464 41.3084 6.54742C41.3084 6.92827 41.3544 7.22034 41.4143 7.22034C41.4761 7.22034 41.5202 6.88139 41.5202 6.40678C41.5202 5.57064 41.5096 5.55305 41.0701 5.66329ZM46.4984 6.09529C46.4984 6.35095 46.5411 6.40647 46.7368 6.40525C47.3435 6.40129 47.4379 5.87095 46.8418 5.81563C46.5221 5.78593 46.4984 5.80515 46.4984 6.09529ZM42.6793 6.17797C42.5989 6.33183 42.5159 6.492 42.4946 6.5339C42.4733 6.5758 42.5552 6.61017 42.6766 6.61017C42.8581 6.61017 42.8972 6.54712 42.8972 6.25424C42.8972 5.82508 42.8687 5.81512 42.6793 6.17797ZM43.9132 6.35593C43.7478 6.59827 43.7497 6.61017 43.9539 6.61017C44.1119 6.61017 44.1682 6.54336 44.1682 6.35593C44.1682 6.2161 44.1499 6.10169 44.1274 6.10169C44.105 6.10169 44.0086 6.2161 43.9132 6.35593ZM82.7227 8.74576V11.3933L85.3972 11.3661L88.0716 11.339V8.74576V6.15254L85.3972 6.12539L82.7227 6.09824V8.74576ZM83.2523 8.74576V10.7797H85.3707H87.4891V8.74576V6.71186H85.3707H83.2523V8.74576ZM102.636 9.66041V11.7966H101.841H101.047V15.661V19.5254H103.059H105.072V15.661V11.7966H104.277H103.483V10.0671V8.33756L110.871 8.36369L118.259 8.38983L118.288 10.0889L118.317 11.788L117.493 11.8178L116.67 11.8475L116.642 15.6864L116.614 19.5254H117.466H118.319L118.289 20.6695L118.259 21.8136L114.624 21.8403L110.991 21.8671L111.023 22.2471L111.056 22.6271H115.081H119.106L119.135 21.0763L119.164 19.5254H119.956H120.748V15.661V11.7966H119.955H119.163L119.135 9.68644L119.106 7.57627L110.871 7.55024L102.636 7.5242V9.66041ZM3.919 15V21.661H20.7601H37.6012V15V8.33898H20.7601H3.919V15ZM32.2249 8.88051C31.2724 9.38847 31.5184 10.8512 32.5888 11.044C33.3529 11.1817 34 10.6532 34 9.89136C34 9.51051 33.9419 9.38146 33.6399 9.09153C33.3526 8.81573 33.1972 8.74647 32.872 8.74932C32.6477 8.75136 32.3566 8.81034 32.2249 8.88051ZM34.2825 9.22037C34.1694 9.32888 34.201 10.2712 34.3178 10.2712C34.376 10.2712 34.4237 10.1797 34.4237 10.0678C34.4237 9.80176 34.6533 9.80736 34.8292 10.0777C35.0028 10.3446 35.1176 10.2607 34.9615 9.98095C34.8857 9.84488 34.8828 9.75366 34.953 9.71207C35.1185 9.61383 35.0777 9.28281 34.8916 9.21427C34.6705 9.13281 34.3705 9.13576 34.2825 9.22037ZM35.271 9.71186V10.2712L35.6682 10.2559C35.9877 10.2437 36.0084 10.2324 35.7741 10.1984C35.4072 10.145 35.3678 9.7981 35.7212 9.73281L35.9595 9.68868L35.7212 9.67485C35.3856 9.65532 35.4105 9.35593 35.7477 9.35593C35.8933 9.35593 36.0125 9.31017 36.0125 9.25424C36.0125 9.1983 35.8456 9.15254 35.6417 9.15254H35.271V9.71186ZM36.2848 9.3123C35.9576 9.62654 36.16 10.2712 36.5858 10.2712C36.7222 10.2712 36.8932 10.2025 36.9657 10.1186C37.1185 9.9419 36.9609 9.90976 36.7822 10.0813C36.5609 10.2938 36.3138 10.0975 36.3499 9.738C36.3754 9.48397 36.4387 9.39925 36.6215 9.37424C36.7526 9.35644 36.8598 9.39071 36.8598 9.45051C36.8598 9.51041 36.9092 9.55932 36.9694 9.55932C37.0438 9.55932 37.0426 9.49383 36.9657 9.35593C36.8298 9.11227 36.5143 9.09203 36.2848 9.3123ZM34.4237 9.50847C34.4237 9.59319 34.5178 9.66102 34.6355 9.66102C34.7532 9.66102 34.8474 9.59319 34.8474 9.50847C34.8474 9.42376 34.7532 9.35593 34.6355 9.35593C34.5178 9.35593 34.4237 9.42376 34.4237 9.50847ZM7.62617 9.49007C7.62617 9.50786 6.91354 11.8303 6.04257 14.651C5.1716 17.4717 4.49245 19.8101 4.53323 19.8474C4.57411 19.8847 4.69888 19.9305 4.81063 19.9491C4.99217 19.9794 5.17022 19.4786 6.47938 15.2542C8.31019 9.34709 8.22376 9.66305 8.03862 9.55058C7.89573 9.46363 7.62617 9.42407 7.62617 9.49007ZM127.708 10.4893C126.154 13.0364 125.192 14.6739 125.229 14.7095C125.252 14.7311 126.66 14.7367 128.359 14.7219L131.448 14.6949L129.953 12.2034C129.131 10.8331 128.42 9.67271 128.373 9.62492C128.326 9.57702 128.027 9.966 127.708 10.4893ZM34.2118 10.4746C34.2118 10.5373 34.7591 10.5763 35.6417 10.5763C36.5244 10.5763 37.0717 10.5373 37.0717 10.4746C37.0717 10.4118 36.5244 10.3729 35.6417 10.3729C34.7591 10.3729 34.2118 10.4118 34.2118 10.4746ZM20.3618 14.7203L20.3894 18.7627H20.866C21.3086 18.7627 21.3451 18.7425 21.3765 18.4799L21.4104 18.1972L21.7196 18.4472C22.1323 18.7804 23.0465 18.9618 23.5967 18.8196C24.2718 18.645 24.702 18.2979 25.0479 17.6485C25.3466 17.0878 25.3676 16.9748 25.3676 15.9226C25.3676 14.9549 25.3322 14.7215 25.1159 14.262C24.9775 13.9679 24.7048 13.5928 24.5098 13.4285C23.7395 12.7793 22.4912 12.7602 21.7167 13.3858L21.3956 13.6452V12.1616V10.678H20.8649H20.334L20.3618 14.7203ZM58.7044 14.7203L58.7321 18.7627H59.2087H59.6854L59.713 14.7203L59.7408 10.678H59.2087H58.6767L58.7044 14.7203ZM65.0343 12.0986V13.5193L64.6569 13.2734C63.8112 12.7224 62.6566 12.8538 61.892 13.5879C61.2774 14.178 61.0778 14.8548 61.1339 16.158C61.1704 17.0059 61.2176 17.2088 61.4899 17.6875C62.1789 18.8991 63.6887 19.2473 64.789 18.4483L65.1261 18.2034L65.1597 18.483C65.1897 18.7333 65.2405 18.766 65.6433 18.7939L66.0935 18.8253V14.7516V10.678H65.5639H65.0343V12.0986ZM127.276 12.3563C126.714 13.2871 126.255 14.0681 126.255 14.0921C126.255 14.116 127.185 14.1356 128.321 14.1356C129.457 14.1356 130.386 14.1168 130.386 14.0939C130.386 14.0363 128.47 10.8505 128.374 10.7473C128.331 10.7016 127.837 11.4256 127.276 12.3563ZM9.95639 11.0781C9.00778 11.3562 8.41738 11.8677 7.95346 12.8136C7.69639 13.3378 7.67913 13.4686 7.67923 14.8983C7.67945 16.2527 7.70667 16.4884 7.92221 17.0007C8.42713 18.201 9.43865 18.8493 10.8037 18.8475C12.197 18.8457 13.2112 18.2151 13.6049 17.1056C13.8766 16.34 13.8475 16.2712 13.2525 16.2712H12.7354L12.6199 16.7114C12.391 17.5843 11.8006 18 10.79 18C9.97566 18 9.41895 17.6527 9.03743 16.9069C8.75378 16.3523 8.73842 16.2509 8.73948 14.9492C8.74065 13.7378 8.76914 13.5169 8.98193 13.0716C9.41747 12.1598 9.86858 11.8676 10.8567 11.8573C11.825 11.8473 12.4149 12.305 12.6457 13.2458C12.7092 13.5046 12.7536 13.5254 13.2419 13.5254C13.7245 13.5254 13.7695 13.5051 13.7695 13.2875C13.7695 12.8896 13.1546 11.8359 12.7493 11.539C12.0873 11.0542 10.7761 10.8379 9.95639 11.0781ZM78.3794 11.078C77.5171 11.3299 76.7889 11.9863 76.4553 12.8124C76.1418 13.5885 76.0546 15.6816 76.3017 16.4977C76.823 18.2197 78.3735 19.1321 80.2461 18.8189C80.9971 18.6934 81.6693 18.4168 82.0607 18.0725C82.2867 17.8738 82.2991 17.7868 82.2991 16.406V14.9492H80.8692H79.4392V15.3559V15.7627H80.3437H81.2481L81.2175 16.642C81.189 17.4593 81.1671 17.5354 80.9053 17.7227C80.5507 17.9764 79.3237 18.0798 78.7657 17.903C78.2721 17.7467 77.7668 17.2605 77.5033 16.6887C77.2037 16.0384 77.1312 14.3995 77.3634 13.5312C77.6761 12.3628 78.2712 11.87 79.3863 11.8558C80.2513 11.8448 80.6807 12.0887 81.028 12.788C81.2925 13.3206 81.2935 13.3213 81.7959 13.3216C82.3947 13.3221 82.423 13.2258 82.05 12.4569C81.7342 11.8058 81.1776 11.3387 80.4807 11.14C79.9067 10.9762 78.8358 10.9447 78.3794 11.078ZM39.3651 13.3475C39.6783 14.592 40.1141 16.3195 40.3332 17.1864L40.7319 18.7627L41.1722 18.7936C41.51 18.8174 41.6363 18.7818 41.7146 18.6411C41.8366 18.4217 43.4268 13.2201 43.4268 13.0403C43.4268 12.553 43.6968 13.298 44.4416 15.8407L45.2976 18.7627L45.7323 18.7936C46.2687 18.8319 46.2716 18.8273 46.6663 17.2579L46.9682 16.0582L47.3801 16.0884C47.7654 16.1167 47.8023 16.1481 47.9504 16.5763C48.2805 17.5307 49.1551 18.3228 50.1262 18.5468C50.3902 18.6077 50.4174 18.6567 50.4174 19.0697V19.5254H50.8411H51.2648V19.081C51.2648 18.6404 51.2689 18.6355 51.7465 18.5072C52.6906 18.2533 53.5929 17.3835 53.8233 16.5051C53.9335 16.0846 53.9536 16.0678 54.346 16.0678H54.754L54.7835 17.4153L54.8131 18.7627H55.2897H55.7664L55.8193 16.6546L55.8723 14.5464L56.1589 14.2716C56.3911 14.0488 56.5669 13.9882 57.0857 13.9522L57.7259 13.9078V13.4643C57.7259 13.072 57.6942 13.0132 57.4514 12.9547C57.0813 12.8655 56.3799 13.0797 56.0712 13.376L55.8193 13.6179V13.3175C55.8193 13.0247 55.8058 13.0169 55.2897 13.0169H54.7601V14.1356V15.2542H54.3502C53.9583 15.2542 53.9347 15.2352 53.8142 14.822C53.549 13.9136 52.5598 12.9974 51.6533 12.8208C51.3399 12.7597 51.3156 12.7237 51.2854 12.276L51.2531 11.7966H50.8353H50.4174V12.2574C50.4174 12.6071 50.3727 12.7318 50.2321 12.7745C49.6553 12.9496 49.1525 13.21 48.7939 13.519C48.364 13.8896 47.8754 14.7026 47.8754 15.0475C47.8754 15.2142 47.8068 15.2542 47.5211 15.2542H47.1667L47.6776 13.2458C47.9586 12.1411 48.1896 11.2029 48.1909 11.161C48.1921 11.1191 47.958 11.0847 47.6706 11.0847C47.264 11.0847 47.1364 11.1242 47.0948 11.2627C47.0009 11.5754 45.886 16.4079 45.8106 16.829C45.7404 17.2213 45.7287 17.2003 45.4474 16.168C45.2876 15.5815 44.8986 14.1963 44.5831 13.0897L44.0093 11.0777L43.5344 11.1066L43.0595 11.1356L42.2276 13.9831C41.2658 17.2751 41.2837 17.2228 41.2345 16.8814C41.2144 16.7415 40.9038 15.3801 40.5444 13.8559L39.891 11.0847H39.3433H38.7956L39.3651 13.3475ZM101.894 15.661V18.7119H103.059H104.224V15.661V12.6102H103.059H101.894V15.661ZM117.464 15.661V18.7119H118.682H119.9V15.661V12.6102H118.682H117.464V15.661ZM28.1877 13.0823C27.9329 13.1722 27.55 13.4132 27.3368 13.6178C26.0204 14.8817 26.1353 17.4189 27.5538 18.4054C28.057 18.7554 28.962 18.959 29.5826 18.8619C30.1615 18.7713 30.9835 18.3436 31.2063 18.0173C31.3761 17.7684 31.3721 17.752 31.0885 17.5177L30.795 17.2753L30.5175 17.5236C30.0918 17.9042 29.8275 18 29.2033 18C28.2869 18 27.6817 17.4669 27.5003 16.5L27.4383 16.1695H29.4617H31.4852L31.4364 15.3814C31.3702 14.309 30.9325 13.5451 30.1631 13.1591C29.7094 12.9316 28.724 12.8933 28.1877 13.0823ZM34.3551 13.1112C34.1135 13.2166 33.8647 13.3871 33.8022 13.4903C33.7045 13.6519 33.6883 13.6321 33.6854 13.3475C33.6822 13.0189 33.6791 13.0169 33.151 13.0169H32.6198L32.6478 15.8898L32.676 18.7627H33.1526H33.6293L33.6822 16.6546L33.7352 14.5464L34.0218 14.2716C34.254 14.0488 34.4298 13.9882 34.9486 13.9522L35.5888 13.9078V13.4733C35.5888 12.862 35.1932 12.7458 34.3551 13.1112ZM68.9654 13.0679C68.0384 13.3455 67.4186 14.2668 67.6781 14.9815C67.9243 15.6594 68.3688 15.9149 70.0776 16.3608C70.7345 16.5322 71.0716 16.8294 71.0716 17.2373C71.0716 17.7592 70.685 18 69.8474 18C69.2891 18 69.1297 17.9583 68.8624 17.7423C68.6869 17.6005 68.5283 17.3832 68.51 17.2593C68.4822 17.0717 68.3987 17.0285 68.0121 17.002C67.7566 16.9844 67.51 17.0073 67.4643 17.0528C67.3435 17.1728 67.6229 17.8744 67.9116 18.176C68.5773 18.8715 70.1313 19.0803 71.1248 18.6076C71.7912 18.2906 72.1308 17.8211 72.1308 17.2172C72.1308 16.3073 71.5819 15.8388 70.0885 15.4744C69.1241 15.2392 68.7699 15.0428 68.6785 14.6929C68.5201 14.0871 69.3709 13.6098 70.2186 13.8291C70.6314 13.9358 71.0716 14.3373 71.0716 14.6069C71.0716 14.7057 71.2244 14.7458 71.6012 14.7458C72.1913 14.7458 72.235 14.6734 71.9877 14.1053C71.5788 13.1655 70.2094 12.6955 68.9654 13.0679ZM85.5296 13.0044C84.7242 13.2077 83.8878 13.9152 83.8878 14.3934C83.8878 14.6248 83.9266 14.6441 84.3942 14.6441C84.8603 14.6441 84.9102 14.6197 85.0213 14.3373C85.2319 13.8015 86.117 13.5767 86.7964 13.8862C87.1884 14.0648 87.3832 14.3975 87.3832 14.8881V15.2243L86.3862 15.2815C84.8363 15.3703 84.0127 15.8392 83.7993 16.7544C83.5223 17.9419 84.3677 18.8517 85.748 18.8517C86.2606 18.8517 86.4982 18.7944 86.8822 18.5784C87.4693 18.248 87.466 18.2482 87.5082 18.5339C87.5381 18.7364 87.6031 18.7627 88.0716 18.7627C88.5435 18.7627 88.597 18.7405 88.5626 18.5593C88.5413 18.4475 88.4936 17.4178 88.4567 16.2712C88.3801 13.8985 88.3072 13.6619 87.5243 13.2457C87.0528 12.995 86.0482 12.8735 85.5296 13.0044ZM92.0436 13.0347C91.8397 13.0904 91.518 13.2487 91.3287 13.3867L90.9844 13.6375V13.3272C90.9844 13.0273 90.9685 13.0169 90.5078 13.0169H90.0312V15.9208V18.8247L90.5343 18.7937L91.0374 18.7627L91.0955 16.5254C91.1275 15.2949 91.1633 14.276 91.175 14.2612C91.1867 14.2464 91.3511 14.1436 91.5405 14.0328C92.0487 13.7352 92.8949 13.7562 93.2822 14.0757L93.5794 14.321L93.6324 16.5418L93.6854 18.7627L94.1885 18.7937L94.6916 18.8247V16.826C94.6916 14.6211 94.758 14.322 95.3186 14.004C95.4892 13.9073 95.8431 13.8305 96.1183 13.8305C97.2302 13.8305 97.3396 14.0947 97.3396 16.782V18.8247L97.8427 18.7937L98.3458 18.7627V16.5254C98.3458 14.4911 98.3266 14.2513 98.1339 13.8827C97.5879 12.8377 95.951 12.6133 94.8751 13.436L94.4762 13.7411L94.1558 13.4335C93.6597 12.9572 92.8725 12.8086 92.0436 13.0347ZM107.189 13.0102C105.998 13.3582 105.295 14.3157 105.201 15.7199C105.075 17.582 106.187 18.8608 107.931 18.8608C108.683 18.8608 109.388 18.5979 109.843 18.1481L110.204 17.7902L109.896 17.5542L109.587 17.318L109.108 17.6693C108.652 18.0037 108.594 18.0187 107.912 17.9817C107.272 17.9469 107.156 17.9069 106.837 17.6093C106.64 17.4259 106.424 17.1017 106.358 16.8889C106.12 16.1267 106.006 16.1695 108.265 16.1695H110.292L110.23 15.4536C110.153 14.5689 109.78 13.7489 109.295 13.3974C108.716 12.9779 107.847 12.8181 107.189 13.0102ZM112.766 13.0197C111.892 13.2713 111.238 14.1104 111.357 14.8285C111.4 15.0842 111.547 15.3179 111.82 15.5635C112.197 15.9021 112.475 16.013 113.822 16.3617C114.478 16.5315 114.816 16.8291 114.816 17.2373C114.816 17.7592 114.43 18 113.592 18C113.036 18 112.874 17.9579 112.612 17.7461C112.439 17.6064 112.267 17.3776 112.231 17.2376C112.171 17.0086 112.111 16.9831 111.637 16.9831C111.04 16.9831 111.016 17.0308 111.308 17.6482C111.691 18.4566 112.475 18.8598 113.658 18.8559C114.96 18.8514 115.875 18.1714 115.875 17.2088C115.875 16.3113 115.316 15.8395 113.816 15.4715C112.538 15.1577 112.139 14.7585 112.53 14.1845C112.726 13.898 113.407 13.6927 113.833 13.7916C114.272 13.8937 114.678 14.2018 114.753 14.4904C114.814 14.7203 114.873 14.7458 115.348 14.7458C115.701 14.7458 115.875 14.7037 115.873 14.6186C115.868 14.3166 115.446 13.6336 115.117 13.3923C114.552 12.9788 113.492 12.8108 112.766 13.0197ZM14.4469 13.1786C14.4825 13.2675 14.9631 14.5458 15.515 16.0192L16.5185 18.6981L16.3422 19.1546C16.0581 19.891 15.8693 20.0658 15.2894 20.1298L14.7757 20.1864V20.5932V21L15.2733 21.0308C15.8736 21.0679 16.3033 20.8759 16.6794 20.4025C16.845 20.194 17.4506 18.6878 18.2207 16.5692C18.9183 14.6497 19.4891 13.0628 19.4891 13.0428C19.4891 13.0227 19.239 13.0201 18.9333 13.0371L18.3777 13.0678L17.7204 15.0884C17.3589 16.1997 17.0416 17.1296 17.0154 17.1547C16.9891 17.1799 16.6422 16.2592 16.2444 15.1087L15.5211 13.0169H14.9516C14.4748 13.0169 14.3928 13.0432 14.4469 13.1786ZM49.8339 13.5117C49.3525 13.7217 48.7666 14.315 48.5506 14.8114C48.3684 15.23 48.3692 15.2542 48.5639 15.2542C48.6786 15.2542 48.7227 15.3672 48.7227 15.661C48.7227 15.9625 48.6798 16.0678 48.5568 16.0678C48.4334 16.0678 48.4096 16.1266 48.4642 16.2966C48.6789 16.9648 49.1224 17.4735 49.7643 17.788C50.2784 18.0398 50.4174 18.0524 50.4174 17.8475C50.4174 17.7373 50.5351 17.6949 50.8411 17.6949C51.1471 17.6949 51.2648 17.7373 51.2648 17.8475C51.2648 18.0536 51.5114 18.0394 51.984 17.806C52.8043 17.4008 53.6743 16.0678 53.1184 16.0678C53.0037 16.0678 52.9595 15.9548 52.9595 15.661C52.9595 15.3672 53.0037 15.2542 53.1184 15.2542C53.3641 15.2542 53.3074 14.9329 52.9721 14.4253C52.664 13.9587 52.3055 13.6679 51.7629 13.4442C51.3732 13.2835 51.2648 13.2901 51.2648 13.4746C51.2648 13.5847 51.1471 13.6271 50.8411 13.6271C50.5351 13.6271 50.4174 13.5847 50.4174 13.4746C50.4174 13.2809 50.3537 13.285 49.8339 13.5117ZM28.6637 13.8329C28.2642 13.9492 27.8651 14.3094 27.6842 14.7171C27.399 15.3595 27.3919 15.3559 28.9688 15.3559H30.3988V15.0984C30.3988 14.2045 29.5399 13.5781 28.6637 13.8329ZM107.326 13.8379C106.949 13.9466 106.542 14.4095 106.357 14.9389C106.291 15.129 106.237 15.3006 106.237 15.3202C106.237 15.3399 106.909 15.3559 107.731 15.3559H109.226L109.153 14.9746C108.98 14.0654 108.207 13.5841 107.326 13.8379ZM21.8068 14.2253L21.3956 14.6202V15.8955C21.3956 17.1047 21.4093 17.1863 21.6583 17.4706C22.0158 17.8785 22.4603 18.0373 23.0622 17.9721C23.9483 17.8763 24.3618 17.1877 24.3584 15.8136C24.3552 14.5022 23.827 13.8305 22.7987 13.8305C22.2654 13.8305 22.1845 13.8627 21.8068 14.2253ZM62.8142 14.0969C62.3344 14.4846 62.1745 14.9431 62.1745 15.9309C62.1745 17.2626 62.5683 17.8742 63.4901 17.974C64.0579 18.0354 64.5335 17.8721 64.826 17.5149C65.0101 17.2902 65.0343 17.0987 65.0343 15.8613V14.4617L64.6598 14.1462C64.3402 13.8766 64.2021 13.8305 63.7147 13.8305C63.2536 13.8305 63.0807 13.8817 62.8142 14.0969ZM50.6635 15.6204C50.5731 15.8464 50.8553 15.996 51.039 15.8197C51.1187 15.7431 51.1517 15.6304 51.1122 15.5691C51.0056 15.4035 50.738 15.4341 50.6635 15.6204ZM85.9406 16.0602C85.0538 16.1996 84.6243 16.7083 84.8467 17.3554C85.1152 18.1366 86.3207 18.2232 87.0919 17.5168C87.3496 17.2809 87.3832 17.176 87.3832 16.6081V15.9661L86.8801 15.9788C86.6034 15.9858 86.1806 16.0224 85.9406 16.0602ZM26.7975 19.9322V20.2395L31.2196 20.213L35.6417 20.1864V19.9322V19.678L31.2196 19.6514L26.7975 19.6249V19.9322ZM122.336 26.6441V33.3559H124.931H127.526V26.6441V19.9322H124.931H122.336V26.6441ZM128.374 26.6006C128.374 31.9407 128.4 33.1613 128.512 33.1345C128.587 33.1164 129.66 32.7585 130.895 32.339L133.14 31.5763L133.114 26.2884L133.087 21.0006L130.81 20.5226C129.557 20.2599 128.497 20.0423 128.453 20.0393C128.41 20.0363 128.374 22.9889 128.374 26.6006ZM125.09 26.8475V30.7119H125.514H125.938V26.8475V22.9831H125.514H125.09V26.8475ZM4.0926 23.9689C4.05543 24.0047 4.02492 24.4191 4.02492 24.8898C4.02492 25.5291 4.05839 25.7352 4.15732 25.704C4.23019 25.681 4.30465 25.4598 4.32287 25.2124C4.36206 24.6807 4.48048 24.5263 4.70895 24.7083C4.81063 24.7894 4.87227 25.0066 4.87227 25.2836C4.87227 25.5285 4.91994 25.7288 4.97819 25.7288C5.03645 25.7288 5.08411 25.4827 5.08411 25.1819C5.08411 24.5833 4.91549 24.3456 4.55505 24.4361C4.38706 24.4783 4.34268 24.4396 4.34268 24.2507C4.34268 24.0037 4.21102 23.8552 4.0926 23.9689ZM1.65678 24.5578C1.44463 24.8645 1.27103 25.162 1.27103 25.2188C1.27103 25.2756 1.43785 25.322 1.64174 25.322C1.94181 25.322 2.01246 25.3608 2.01246 25.5254C2.01246 25.6373 2.06012 25.7288 2.11838 25.7288C2.17663 25.7288 2.2243 25.6373 2.2243 25.5254C2.2243 25.4124 2.29495 25.322 2.38318 25.322C2.47056 25.322 2.54206 25.2763 2.54206 25.2203C2.54206 25.1644 2.47056 25.1186 2.38318 25.1186C2.26116 25.1186 2.2243 24.9887 2.2243 24.5593C2.2243 24.2517 2.18341 24 2.13342 24C2.08332 24 1.86883 24.251 1.65678 24.5578ZM3.02155 24.5326C2.54947 25.2055 2.54905 25.322 3.01869 25.322C3.31876 25.322 3.38941 25.3608 3.38941 25.5254C3.38941 25.6373 3.43707 25.7288 3.49533 25.7288C3.55358 25.7288 3.60125 25.6411 3.60125 25.5339C3.60125 25.4267 3.66088 25.3123 3.73364 25.2796C3.83956 25.2322 3.83956 25.2084 3.73364 25.1611C3.65166 25.1242 3.60125 24.8921 3.60125 24.5509C3.60125 24.2479 3.55485 24 3.49819 24C3.44141 24 3.22693 24.2396 3.02155 24.5326ZM0.185358 24.1718C0.0833585 24.1974 0 24.266 0 24.3244C0 24.3828 0.0933148 24.4071 0.207284 24.3785C0.395502 24.3312 0.417321 24.3884 0.445601 25.0022C0.488393 25.9344 0.681483 25.8552 0.719402 24.8898C0.752449 24.0493 0.73995 24.0326 0.185358 24.1718ZM3.14749 24.7021C2.91637 25.0778 2.91934 25.1186 3.17757 25.1186C3.34905 25.1186 3.38941 25.0508 3.38941 24.7627C3.38941 24.5669 3.37585 24.4068 3.35933 24.4068C3.3427 24.4068 3.24737 24.5397 3.14749 24.7021ZM5.36946 24.4718C5.24786 24.5885 5.40854 24.7119 5.68213 24.7119H5.94979L5.62292 25.1387C5.44307 25.3734 5.29595 25.6022 5.29595 25.6471C5.29595 25.6921 5.53427 25.7288 5.82554 25.7288C6.11682 25.7288 6.35514 25.6831 6.35514 25.6271C6.35514 25.5712 6.18609 25.5254 5.97955 25.5254H5.60396L5.97786 25.0554C6.18345 24.7969 6.3258 24.5452 6.29413 24.4961C6.22836 24.3937 5.47146 24.3738 5.36946 24.4718ZM1.75984 24.7592C1.54006 25.0811 1.54441 25.1186 1.80062 25.1186C1.96543 25.1186 2.01246 25.0508 2.01246 24.8136C2.01246 24.4434 1.98005 24.4365 1.75984 24.7592ZM14.2991 32.5932V35.3898H20.8131H27.3271V32.5932V29.7966H20.8131H14.2991V32.5932ZM35.9065 31.3729C35.9065 32.0678 35.9254 32.1356 36.1184 32.1356C36.3114 32.1356 36.3302 32.0678 36.3302 31.3729C36.3302 30.678 36.3114 30.6102 36.1184 30.6102C35.9254 30.6102 35.9065 30.678 35.9065 31.3729ZM36.5421 31.4746V32.339H36.2243H35.9065V33.5085V34.678H37.2305H38.5545V33.5085V32.339H38.2368H37.919V31.4746V30.6102H37.2305H36.5421V31.4746ZM38.1527 31.3463C38.1783 31.9525 38.2165 32.0886 38.3692 32.1166C38.5325 32.1465 38.5545 32.059 38.5545 31.3803C38.5545 30.6725 38.537 30.6102 38.338 30.6102C38.1371 30.6102 38.1237 30.663 38.1527 31.3463ZM14.7422 31.0932C14.7713 31.3361 14.828 31.377 15.1729 31.4044C15.5525 31.4346 15.5701 31.4222 15.5701 31.1247C15.5701 30.8286 15.5492 30.8136 15.1394 30.8136C14.732 30.8136 14.7105 30.8287 14.7422 31.0932ZM16.331 31.0932C16.36 31.3361 16.4168 31.377 16.7617 31.4044C17.1413 31.4346 17.1589 31.4222 17.1589 31.1247C17.1589 30.8286 17.138 30.8136 16.7282 30.8136C16.3207 30.8136 16.2992 30.8287 16.331 31.0932ZM17.9198 31.0932C17.9488 31.3361 18.0056 31.377 18.3505 31.4044C18.7301 31.4346 18.7477 31.4222 18.7477 31.1247C18.7477 30.8286 18.7268 30.8136 18.317 30.8136C17.9095 30.8136 17.888 30.8287 17.9198 31.0932ZM19.595 31.1247C19.595 31.4222 19.6126 31.4346 19.9922 31.4044C20.3371 31.377 20.3939 31.3361 20.4229 31.0932C20.4547 30.8287 20.4332 30.8136 20.0257 30.8136C19.6159 30.8136 19.595 30.8286 19.595 31.1247ZM21.1838 31.1247C21.1838 31.4222 21.2014 31.4346 21.581 31.4044C21.9259 31.377 21.9826 31.3361 22.0117 31.0932C22.0434 30.8287 22.0219 30.8136 21.6145 30.8136C21.2047 30.8136 21.1838 30.8286 21.1838 31.1247ZM22.7921 31.0932C22.8215 31.3389 22.8706 31.3729 23.1963 31.3729C23.522 31.3729 23.571 31.3389 23.6004 31.0932C23.6322 30.8281 23.6114 30.8136 23.1963 30.8136C22.7812 30.8136 22.7603 30.8281 22.7921 31.0932ZM24.3809 31.0932C24.4103 31.3389 24.4593 31.3729 24.785 31.3729C25.1107 31.3729 25.1598 31.3389 25.1892 31.0932C25.221 30.8281 25.2001 30.8136 24.785 30.8136C24.37 30.8136 24.3491 30.8281 24.3809 31.0932ZM25.9696 31.0932C25.9987 31.3361 26.0554 31.377 26.4003 31.4044C26.7799 31.4346 26.7975 31.4222 26.7975 31.1247C26.7975 30.8286 26.7766 30.8136 26.3668 30.8136C25.9594 30.8136 25.9379 30.8287 25.9696 31.0932ZM36.9657 32.0339V33.0508H37.2305H37.4953V32.0339V31.017H37.2305H36.9657V32.0339ZM14.7934 31.5933C14.7545 31.6305 14.7227 31.7678 14.7227 31.8983C14.7227 32.1073 14.7732 32.1356 15.1464 32.1356C15.5466 32.1356 15.5701 32.1186 15.5701 31.8305C15.5701 31.5526 15.5387 31.5254 15.2171 31.5254C15.0228 31.5254 14.8322 31.5559 14.7934 31.5933ZM16.3822 31.5933C16.3433 31.6305 16.3115 31.7678 16.3115 31.8983C16.3115 32.1073 16.3619 32.1356 16.7352 32.1356C17.1354 32.1356 17.1589 32.1186 17.1589 31.8305C17.1589 31.5526 17.1275 31.5254 16.8059 31.5254C16.6116 31.5254 16.4209 31.5559 16.3822 31.5933ZM17.9387 31.678C17.8238 31.9652 17.9859 32.1356 18.3737 32.1356C18.7186 32.1356 18.7477 32.1119 18.7477 31.8305C18.7477 31.5491 18.7186 31.5254 18.3737 31.5254C18.1388 31.5254 17.9769 31.5823 17.9387 31.678ZM19.595 31.8305C19.595 32.1351 19.611 32.1466 19.9922 32.1163C20.3366 32.0889 20.3894 32.0509 20.3894 31.8305C20.3894 31.6101 20.3366 31.5721 19.9922 31.5447C19.611 31.5144 19.595 31.5259 19.595 31.8305ZM21.1838 31.8244C21.1838 32.1205 21.2047 32.1356 21.6145 32.1356C22.0219 32.1356 22.0434 32.1204 22.0117 31.8559C21.9826 31.6131 21.9259 31.5721 21.581 31.5447C21.2014 31.5145 21.1838 31.5269 21.1838 31.8244ZM22.8482 31.5884C22.8066 31.6283 22.7726 31.7678 22.7726 31.8983C22.7726 32.108 22.8227 32.1356 23.2033 32.1356C23.6107 32.1356 23.6322 32.1204 23.6004 31.8559C23.5731 31.6276 23.508 31.5707 23.2454 31.5461C23.0685 31.5294 22.8898 31.5485 22.8482 31.5884ZM24.437 31.5884C24.3954 31.6283 24.3614 31.7678 24.3614 31.8983C24.3614 32.108 24.4115 32.1356 24.792 32.1356C25.1995 32.1356 25.221 32.1204 25.1892 31.8559C25.1619 31.6276 25.0968 31.5707 24.8342 31.5461C24.6573 31.5294 24.4786 31.5485 24.437 31.5884ZM26.0208 31.5933C25.9819 31.6305 25.9502 31.7678 25.9502 31.8983C25.9502 32.1073 26.0006 32.1356 26.3738 32.1356C26.774 32.1356 26.7975 32.1186 26.7975 31.8305C26.7975 31.5526 26.7662 31.5254 26.4445 31.5254C26.2502 31.5254 26.0596 31.5559 26.0208 31.5933ZM14.7422 32.6186C14.7713 32.8615 14.828 32.9025 15.1729 32.9298C15.5525 32.96 15.5701 32.9476 15.5701 32.6502C15.5701 32.354 15.5492 32.339 15.1394 32.339C14.732 32.339 14.7105 32.3541 14.7422 32.6186ZM16.331 32.6186C16.36 32.8615 16.4168 32.9025 16.7617 32.9298C17.1413 32.96 17.1589 32.9476 17.1589 32.6502C17.1589 32.354 17.138 32.339 16.7282 32.339C16.3207 32.339 16.2992 32.3541 16.331 32.6186ZM17.9387 32.4915C17.8238 32.7787 17.9859 32.9492 18.3737 32.9492C18.7186 32.9492 18.7477 32.9255 18.7477 32.6441C18.7477 32.3627 18.7186 32.339 18.3737 32.339C18.1388 32.339 17.9769 32.3958 17.9387 32.4915ZM19.595 32.6441C19.595 32.9486 19.611 32.9601 19.9922 32.9298C20.3366 32.9025 20.3894 32.8644 20.3894 32.6441C20.3894 32.4237 20.3366 32.3857 19.9922 32.3583C19.611 32.328 19.595 32.3395 19.595 32.6441ZM21.1838 32.6502C21.1838 32.9476 21.2014 32.96 21.581 32.9298C21.9259 32.9025 21.9826 32.8615 22.0117 32.6186C22.0434 32.3541 22.0219 32.339 21.6145 32.339C21.2047 32.339 21.1838 32.354 21.1838 32.6502ZM22.7726 32.6441C22.7726 32.9322 22.7961 32.9492 23.1963 32.9492C23.5964 32.9492 23.6199 32.9322 23.6199 32.6441C23.6199 32.356 23.5964 32.339 23.1963 32.339C22.7961 32.339 22.7726 32.356 22.7726 32.6441ZM24.3614 32.6441C24.3614 32.9322 24.3849 32.9492 24.785 32.9492C25.1852 32.9492 25.2087 32.9322 25.2087 32.6441C25.2087 32.356 25.1852 32.339 24.785 32.339C24.3849 32.339 24.3614 32.356 24.3614 32.6441ZM25.9696 32.6186C25.9987 32.8615 26.0554 32.9025 26.4003 32.9298C26.7799 32.96 26.7975 32.9476 26.7975 32.6502C26.7975 32.354 26.7766 32.339 26.3668 32.339C25.9594 32.339 25.9379 32.3541 25.9696 32.6186ZM17.9416 33.9078C17.9096 33.9877 17.8993 34.1593 17.9184 34.2892L17.9533 34.5254L20.7866 34.5525L23.6199 34.5796V34.1711V33.7627H20.8098C18.4731 33.7627 17.9898 33.7872 17.9416 33.9078ZM14.7227 34.1695V34.4746H15.9408H17.1589V34.1695V33.8644H15.9408H14.7227V34.1695ZM24.3614 34.1695V34.4746H25.5794H26.7975V34.1695V33.8644H25.5794H24.3614V34.1695Z" fill="#00FFF0"/>
</svg>
