<?xml version="1.0" encoding="utf-8"?>
<!-- Generator: Adobe Illustrator 25.4.1, SVG Export Plug-In . SVG Version: 6.00 Build 0)  -->
<svg version="1.1" id="Слой_1" xmlns="http://www.w3.org/2000/svg" xmlns:xlink="http://www.w3.org/1999/xlink" x="0px" y="0px"
	 viewBox="0 0 334 312" style="enable-background:new 0 0 334 312;" xml:space="preserve">
<style type="text/css">
	.st0{fill:#FFFFFF;}
	.st1{fill:none;stroke:#000000;stroke-width:9;stroke-miterlimit:10;}
	.st2{fill:none;stroke:#000000;stroke-width:5;stroke-miterlimit:10;}
	.st3{fill:#FFFFFF;stroke:#000000;stroke-width:9;stroke-miterlimit:10;}
	.st4{fill:none;stroke:#000000;stroke-width:7;stroke-miterlimit:10;}
	.st5{stroke:#000000;stroke-width:3;stroke-miterlimit:10;}
	.st6{fill:#FFFFFF;stroke:#000000;stroke-width:4;stroke-miterlimit:10;}
	.st7{stroke:#000000;stroke-width:2;stroke-miterlimit:10;}
	.st8{fill:#FFFFFF;stroke:#000000;stroke-width:2;stroke-miterlimit:10;}
	.st9{stroke:#000000;stroke-miterlimit:10;}
	.st10{fill:none;stroke:#000000;stroke-miterlimit:10;}
	.st11{fill:#FFFFFF;stroke:#000000;stroke-miterlimit:10;}
	.st12{stroke:#FFFFFF;stroke-width:9;stroke-miterlimit:10;}
	.st13{fill:none;stroke:#FFFFFF;stroke-width:7;stroke-miterlimit:10;}
	.st14{fill:#FFFFFF;stroke:#FFFFFF;stroke-width:3;stroke-miterlimit:10;}
	.st15{fill:none;stroke:#FFFFFF;stroke-width:9;stroke-miterlimit:10;}
	.st16{fill:none;stroke:#FFFFFF;stroke-width:5;stroke-miterlimit:10;}
	.st17{fill:#FFFFFF;stroke:#FFFFFF;stroke-width:6;stroke-miterlimit:10;}
	.st18{fill:none;stroke:#FFFFFF;stroke-width:6;stroke-miterlimit:10;}
	.st19{fill:none;stroke:#00FFF0;stroke-width:9;stroke-miterlimit:10;}
	.st20{fill:none;stroke:#00FFF0;stroke-width:20;stroke-miterlimit:10;}
	.st21{fill:#00FFF0;stroke:#00FFFF;stroke-width:9;stroke-miterlimit:10;}
	.st22{fill:#00FFF0;stroke:#00FFF0;stroke-width:9;stroke-miterlimit:10;}
	.st23{fill:none;stroke:#FFFFFF;stroke-width:20;stroke-miterlimit:10;}
	.st24{fill:none;stroke:#FF433F;stroke-width:16;stroke-miterlimit:10;}
	.st25{fill:#FF433F;stroke:#FF433F;stroke-width:16;stroke-miterlimit:10;}
	.st26{fill:none;stroke:#00FFF0;stroke-width:10;stroke-miterlimit:10;}
</style>
<g>
	<g>
		<rect x="-2881.5" y="-2582.5" class="st0" width="309" height="137"/>
		<path d="M-2577-2578v128h-300v-128H-2577 M-2568-2587h-318v146h318V-2587L-2568-2587z"/>
	</g>
	<g>
		<line class="st1" x1="-2726.5" y1="-2443" x2="-2726.5" y2="-2402"/>
	</g>
	<line class="st2" x1="-2800.5" y1="-2402.5" x2="-2649" y2="-2402.5"/>
</g>
<g>
	<rect x="-3023.08" y="-2553.07" class="st0" width="2.98" height="9.71"/>
	<rect x="-3023.08" y="-2543.36" class="st0" width="12.89" height="2.65"/>
	<rect x="-3013.16" y="-2553.07" class="st0" width="2.98" height="9.71"/>
	<rect x="-3013.16" y="-2540.71" class="st0" width="2.98" height="9.71"/>
	<rect x="-3004.24" y="-2553.07" class="st0" width="2.98" height="9.71"/>
	<rect x="-3004.24" y="-2543.36" class="st0" width="12.89" height="2.65"/>
	<rect x="-2994.32" y="-2553.07" class="st0" width="2.98" height="9.71"/>
	<rect x="-2994.32" y="-2540.71" class="st0" width="2.98" height="9.71"/>
	<rect x="-3033" y="-2553.07" class="st0" width="2.98" height="22.07"/>
	<rect x="-2976.47" y="-2553.07" class="st0" width="2.98" height="22.07"/>
	<rect x="-2975.48" y="-2553.07" class="st0" width="12.89" height="1.77"/>
	<rect x="-2963.58" y="-2551.3" class="st0" width="0.99" height="0"/>
	<rect x="-2975.48" y="-2543.36" class="st0" width="12.89" height="1.77"/>
	<rect x="-2959.61" y="-2553.07" class="st0" width="2.98" height="22.07"/>
	<rect x="-2958.62" y="-2553.07" class="st0" width="12.89" height="1.77"/>
	<rect x="-2946.72" y="-2551.3" class="st0" width="0.99" height="0"/>
	<rect x="-2958.62" y="-2543.36" class="st0" width="12.89" height="1.77"/>
	<rect x="-2948.7" y="-2553.07" class="st0" width="2.98" height="11.48"/>
	<rect x="-2941.76" y="-2553.07" class="st0" width="2.98" height="11.48"/>
	<rect x="-2940.77" y="-2553.07" class="st0" width="12.89" height="1.77"/>
	<rect x="-2928.86" y="-2551.3" class="st0" width="0.99" height="0"/>
	<rect x="-2940.77" y="-2543.36" class="st0" width="12.89" height="1.77"/>
	<rect x="-2930.85" y="-2541.59" class="st0" width="2.98" height="10.59"/>
	<rect x="-2941.76" y="-2532.76" class="st0" width="12.89" height="1.77"/>
	<rect x="-2531.17" y="-2644" width="1064.17" height="211"/>
</g>
<g>
	<rect x="-3034.5" y="-2507.87" class="st3" width="88.33" height="197.25"/>
	<line class="st4" x1="-2944.55" y1="-2309" x2="-2894.69" y2="-2330.68"/>
	<line class="st4" x1="-2943.46" y1="-2509.5" x2="-2894.69" y2="-2493.24"/>
	<line class="st4" x1="-2896.86" y1="-2496.49" x2="-2896.86" y2="-2327.42"/>
	
		<rect x="-2946.08" y="-2342.09" transform="matrix(0.934 -0.3573 0.3573 0.934 640.5915 -1197.8585)" class="st5" width="48.77" height="18.82"/>
	
		<rect x="-2944.59" y="-2350.64" transform="matrix(0.9881 -0.1538 0.1538 0.9881 325.8015 -477.1343)" class="st5" width="46.19" height="11.92"/>
	
		<rect x="-2944.6" y="-2501.75" transform="matrix(0.9487 0.3162 -0.3162 0.9487 -939.835 795.6088)" class="st5" width="46.61" height="7.59"/>
	<rect x="-2941.29" y="-2398.95" class="st5" width="42.27" height="9.75"/>
	<rect x="-2905.53" y="-2466.15" class="st5" width="5.42" height="31.43"/>
	<rect x="-2979.23" y="-2488.91" class="st5" width="10.84" height="45.52"/>
	<rect x="-2941.29" y="-2498.66" class="st5" width="29.58" height="89"/>
	<rect x="-2942.38" y="-2382.7" class="st5" width="42.27" height="9.75"/>
	<rect x="-3024.75" y="-2495.41" class="st5" width="2.17" height="7.59"/>
	<rect x="-3024.75" y="-2482.41" class="st5" width="2.17" height="7.59"/>
</g>
<g>
	<rect x="-2592" y="-2357" class="st6" width="25" height="39"/>
	<rect x="-2582" y="-2351" class="st7" width="5" height="12"/>
	<rect x="-2591" y="-2356" class="st8" width="5" height="13"/>
	<rect x="-2573" y="-2356" class="st8" width="5" height="13"/>
	<rect x="-2594" y="-2342" class="st6" width="1" height="6"/>
	<rect x="-2594" y="-2331" class="st6" width="1" height="6"/>
</g>
<g>
	<rect x="-2736" y="-2388" width="4" height="13"/>
	<rect x="-2580" y="-2384" width="3" height="25"/>
	<rect x="-2900" y="-2388" width="323" height="4"/>
	<rect x="-2824" y="-2446" width="4" height="59"/>
</g>
<g>
	<rect x="-2865.5" y="-2372.5" class="st2" width="258" height="74"/>
	<rect x="-2851" y="-2315" width="34" height="8"/>
	<rect x="-2805" y="-2315" width="134" height="8"/>
	<rect x="-2662" y="-2315" width="34" height="8"/>
	<g>
		<rect x="-2847.5" y="-2360.5" class="st2" width="11" height="4"/>
		<rect x="-2827.5" y="-2360.5" class="st2" width="11" height="4"/>
		<rect x="-2847.5" y="-2348.5" class="st2" width="11" height="4"/>
		<rect x="-2827.5" y="-2348.5" class="st2" width="11" height="4"/>
		<rect x="-2847.5" y="-2336.5" class="st2" width="11" height="4"/>
		<rect x="-2827.5" y="-2336.5" class="st2" width="11" height="4"/>
	</g>
	<g>
		<rect x="-2660.5" y="-2360.5" class="st2" width="11" height="4"/>
		<rect x="-2640.5" y="-2360.5" class="st2" width="11" height="4"/>
		<rect x="-2660.5" y="-2348.5" class="st2" width="11" height="4"/>
		<rect x="-2640.5" y="-2348.5" class="st2" width="11" height="4"/>
		<rect x="-2660.5" y="-2336.5" class="st2" width="11" height="4"/>
		<rect x="-2640.5" y="-2336.5" class="st2" width="11" height="4"/>
	</g>
	<g>
		<rect x="-2802.5" y="-2360.5" class="st2" width="11" height="4"/>
		<rect x="-2782.5" y="-2360.5" class="st2" width="11" height="4"/>
		<rect x="-2802.5" y="-2348.5" class="st2" width="11" height="4"/>
		<rect x="-2782.5" y="-2348.5" class="st2" width="11" height="4"/>
		<rect x="-2802.5" y="-2336.5" class="st2" width="11" height="4"/>
		<rect x="-2782.5" y="-2336.5" class="st2" width="11" height="4"/>
		<rect x="-2763.5" y="-2360.5" class="st2" width="11" height="4"/>
		<rect x="-2743.5" y="-2360.5" class="st2" width="11" height="4"/>
		<rect x="-2763.5" y="-2348.5" class="st2" width="11" height="4"/>
		<rect x="-2743.5" y="-2348.5" class="st2" width="11" height="4"/>
		<rect x="-2763.5" y="-2336.5" class="st2" width="11" height="4"/>
		<rect x="-2743.5" y="-2336.5" class="st2" width="11" height="4"/>
		<rect x="-2724.5" y="-2360.5" class="st2" width="11" height="4"/>
		<rect x="-2704.5" y="-2360.5" class="st2" width="11" height="4"/>
		<rect x="-2724.5" y="-2348.5" class="st2" width="11" height="4"/>
		<rect x="-2704.5" y="-2348.5" class="st2" width="11" height="4"/>
		<rect x="-2724.5" y="-2336.5" class="st2" width="11" height="4"/>
		<rect x="-2704.5" y="-2336.5" class="st2" width="11" height="4"/>
		<rect x="-2684.5" y="-2360.5" class="st2" width="11" height="4"/>
		<rect x="-2684.5" y="-2348.5" class="st2" width="11" height="4"/>
		<rect x="-2684.5" y="-2336.5" class="st2" width="11" height="4"/>
	</g>
</g>
<rect x="-2656.5" y="-2494.5" transform="matrix(6.123234e-17 -1 1 6.123234e-17 -191 -5114)" class="st9" width="8" height="66"/>
<rect x="-2872" y="-2571" width="15" height="15"/>
<rect x="-2852" y="-2571" width="2" height="15"/>
<rect x="-2852" y="-2571" width="7" height="2"/>
<rect x="-2852" y="-2565" width="7" height="2"/>
<rect x="-2845" y="-2571" width="2" height="8"/>
<rect x="-2841" y="-2571" width="2" height="15"/>
<rect x="-2839" y="-2558" width="7" height="2"/>
<rect x="-2839" y="-2564" width="7" height="2"/>
<rect x="-2839" y="-2571" width="7" height="2"/>
<rect x="-2830" y="-2571" width="2" height="15"/>
<rect x="-2828" y="-2558" width="7" height="2"/>
<rect x="-2828" y="-2571" width="7" height="2"/>
<rect x="-2773.5" y="-2536.5" class="st9" width="45" height="45"/>
<line class="st10" x1="-2728.5" y1="-2491.5" x2="-2717.5" y2="-2498.5"/>
<line class="st10" x1="-2729.5" y1="-2535.5" x2="-2717.1" y2="-2542.76"/>
<line class="st10" x1="-2773.5" y1="-2536.5" x2="-2762.5" y2="-2542.5"/>
<line class="st10" x1="-2763" y1="-2542.5" x2="-2718" y2="-2542.5"/>
<line class="st10" x1="-2717.5" y1="-2498" x2="-2717.5" y2="-2543"/>
<line class="st10" x1="-2731.8" y1="-2516.63" x2="-2719.39" y2="-2523.88"/>
<rect x="-2763.5" y="-2541.5" class="st9" width="46" height="43"/>
<rect x="-2723.5" y="-2535.5" class="st9" width="2" height="1"/>
<rect x="-2730.54" y="-2499.65" transform="matrix(0.8632 -0.5049 0.5049 0.8632 887.9193 -1717.574)" class="st9" width="10.58" height="5"/>
<rect x="-2737.5" y="-2507.5" class="st9" width="13" height="6"/>
<rect x="-2771.82" y="-2539.1" transform="matrix(0.8632 -0.5049 0.5049 0.8632 902.189 -1743.8136)" class="st9" width="10.58" height="5"/>
<rect x="-2773.5" y="-2491.5" class="st9" width="1" height="43"/>
<rect x="-2650" y="-2615" transform="matrix(6.123234e-17 -1 1 6.123234e-17 -107.5 -5191.5)" class="st9" width="1" height="146"/>
<rect x="-2847" y="-2565" width="2" height="4"/>
<rect x="-2845" y="-2561" width="2" height="5"/>
<g>
	<rect x="-2867.5" y="-2468.5" class="st9" width="1" height="14"/>
	<rect x="-2861" y="-2462" transform="matrix(6.123234e-17 -1 1 6.123234e-17 -405.5 -5315.5)" class="st9" width="1" height="14"/>
</g>
<g>
	
		<rect x="-2597" y="-2462" transform="matrix(-3.267951e-07 -1 1 -3.267951e-07 -141.5008 -5051.501)" class="st9" width="1" height="14"/>
	
		<rect x="-2590.5" y="-2468.5" transform="matrix(-1 3.267942e-07 -3.267942e-07 -1 -5180.001 -4922.999)" class="st9" width="1" height="14"/>
</g>
<g>
	
		<rect x="-2590.5" y="-2571.5" transform="matrix(-1 3.267960e-07 -3.267960e-07 -1 -5180.001 -5128.999)" class="st9" width="1" height="14"/>
	
		<rect x="-2597" y="-2578" transform="matrix(3.267942e-07 1 -1 3.267942e-07 -5167.499 25.5008)" class="st9" width="1" height="14"/>
</g>
<g>
	<rect x="-2857.5" y="-2536.5" class="st9" width="24" height="3"/>
	<rect x="-2830.5" y="-2536.5" class="st9" width="24" height="3"/>
	<rect x="-2857.5" y="-2530.5" class="st9" width="13" height="3"/>
	<rect x="-2841.5" y="-2530.5" class="st9" width="35" height="3"/>
	<rect x="-2820.5" y="-2524.5" class="st9" width="14" height="3"/>
	<rect x="-2857.5" y="-2518.5" class="st9" width="24" height="3"/>
	<rect x="-2852.5" y="-2524.5" class="st9" width="30" height="3"/>
	<rect x="-2857.5" y="-2524.5" class="st9" width="3" height="3"/>
	<rect x="-2830.5" y="-2518.5" class="st9" width="3" height="3"/>
	<rect x="-2824.5" y="-2518.5" class="st9" width="3" height="3"/>
	<rect x="-2818.5" y="-2518.5" class="st9" width="12" height="3"/>
</g>
<rect x="-2836" y="-2531" transform="matrix(6.123234e-17 -1 1 6.123234e-17 -326.5 -5337.5)" class="st9" width="8" height="51"/>
<rect x="-2695.5" y="-2530.5" class="st9" width="84" height="3"/>
<rect x="-2695.5" y="-2529.5" class="st9" width="0" height="33"/>
<rect x="-2611.5" y="-2529.06" class="st9" width="0" height="32.56"/>
<rect x="-2695.5" y="-2497.5" class="st9" width="84" height="1"/>
<rect x="-2618.5" y="-2530.5" class="st11" width="3" height="3"/>
<rect x="-2621.5" y="-2529.5" class="st11" width="3" height="2"/>
<rect x="-2626.5" y="-2511.5" transform="matrix(6.123234e-17 -1 1 6.123234e-17 -125 -5127)" class="st9" width="1" height="21"/>
<rect x="-2691.5" y="-2515.5" class="st9" width="1" height="15"/>
<g>
	<rect x="-2502.14" y="-2637.02" class="st12" width="88.33" height="197.25"/>
	<line class="st13" x1="-2412.19" y1="-2438.14" x2="-2362.33" y2="-2459.82"/>
	<line class="st13" x1="-2411.1" y1="-2638.64" x2="-2362.33" y2="-2622.38"/>
	<line class="st13" x1="-2364.5" y1="-2625.64" x2="-2364.5" y2="-2456.57"/>
	
		<rect x="-2413.72" y="-2471.23" transform="matrix(0.934 -0.3573 0.3573 0.934 721.8713 -1016.1761)" class="st14" width="48.77" height="18.82"/>
	
		<rect x="-2412.23" y="-2479.79" transform="matrix(0.9881 -0.1538 0.1538 0.9881 351.9918 -396.8075)" class="st14" width="46.19" height="11.92"/>
	
		<rect x="-2412.24" y="-2630.89" transform="matrix(0.9487 0.3162 -0.3162 0.9487 -953.3541 620.6344)" class="st14" width="46.61" height="7.59"/>
	<rect x="-2408.93" y="-2528.1" class="st14" width="42.27" height="9.75"/>
	<rect x="-2373.17" y="-2595.29" class="st14" width="5.42" height="31.43"/>
	<rect x="-2446.87" y="-2618.05" class="st14" width="10.84" height="45.52"/>
	<rect x="-2408.93" y="-2627.8" class="st14" width="29.58" height="89"/>
	<rect x="-2410.02" y="-2511.84" class="st14" width="42.27" height="9.75"/>
	<rect x="-2492.39" y="-2624.55" class="st14" width="2.17" height="7.59"/>
	<rect x="-2492.39" y="-2611.55" class="st14" width="2.17" height="7.59"/>
</g>
<g>
	<g>
		<rect x="-2344.24" y="-2620.5" width="309" height="137"/>
		<path class="st0" d="M-2039.74-2616v128h-300v-128H-2039.74 M-2030.74-2625h-318v146h318V-2625L-2030.74-2625z"/>
	</g>
	<g>
		<line class="st15" x1="-2189.24" y1="-2481" x2="-2189.24" y2="-2440"/>
	</g>
	<line class="st16" x1="-2263.24" y1="-2440.5" x2="-2111.74" y2="-2440.5"/>
</g>
<g>
	<path class="st0" d="M-2325.01-2579.18h5.65v-5.65h50.85v11.3h-45.2v45.2h45.2v11.3h-50.85v-5.65h-5.65V-2579.18z"/>
	<path class="st0" d="M-2257.21-2573.53h11.3v33.9h22.6v-33.9h11.3v62.15h-5.65v5.65h-33.9v-11.3h28.25v-11.3h-28.25v-5.65h-5.65
		V-2573.53z"/>
	<path class="st0" d="M-2200.71-2584.83h11.3v16.95h28.25v5.65h5.65v39.55h-5.65v5.65h-39.55V-2584.83z M-2189.41-2528.33h22.6
		v-28.25h-22.6V-2528.33z"/>
	<path class="st0" d="M-2144.21-2567.88h5.65v-5.65h33.9v5.65h5.65v28.25h-33.9v11.3h28.25v11.3h-33.9v-5.65h-5.65V-2567.88z
		 M-2132.91-2550.93h22.6v-11.3h-22.6V-2550.93z"/>
	<path class="st0" d="M-2087.71-2573.53h11.3v5.65h5.65v-5.65h22.6v5.65h5.65v11.3h-11.3v-5.65h-16.95v5.65h-5.65v39.55h-11.3
		V-2573.53z"/>
</g>
<rect x="-1467" y="-2643" class="st0" width="764.9" height="209.66"/>
<text transform="matrix(1.2222 0 0 1 -1447 -2480.5195)" style="font-family:'Roboto-Regular'; font-size:186.4234px;">Games</text>
<g>
	<path class="st0" d="M-1997.89-2598.54h18.43v73.73h18.43v-36.87h18.43v36.87h18.43v-73.73h18.43v82.95h-9.22v9.22h-9.22v18.43
		h-18.43v-18.43h-18.43v18.43h-18.43v-18.43h-9.22v-9.22h-9.22V-2598.54z"/>
	<path class="st0" d="M-1887.3-2570.89h9.22v-9.22h55.3v9.22h9.22v73.73h-9.22v9.22h-55.3v-9.22h-9.22V-2570.89z M-1868.87-2506.38
		h36.87v-55.3h-36.87V-2506.38z"/>
	<path class="st0" d="M-1795.14-2580.11h18.43v9.22h9.22v-9.22h36.86v9.22h9.22v18.43h-18.43v-9.22h-27.65v9.22h-9.22v64.51h-18.43
		V-2580.11z"/>
	<path class="st0" d="M-1702.97-2598.54h18.43v110.59h-18.43V-2598.54z"/>
	<path class="st0" d="M-1666.11-2561.68h9.22v-9.22h46.08v-27.65h18.43v110.59h-64.51v-9.22h-9.22V-2561.68z M-1647.68-2506.38
		h36.87v-46.08h-36.87V-2506.38z"/>
	<path class="st0" d="M-1573.95-2570.89h9.22v-9.22h64.51v18.43h-55.3v18.43h46.08v9.22h9.22v36.87h-9.22v9.22h-64.51v-18.43h55.3
		v-18.43h-46.08v-9.22h-9.22V-2570.89z"/>
</g>
<g>
	<rect x="-2500.09" y="-2411.68" class="st3" width="88.33" height="197.25"/>
	<line class="st4" x1="-2410.14" y1="-2212.81" x2="-2360.28" y2="-2234.49"/>
	<line class="st4" x1="-2409.05" y1="-2413.31" x2="-2360.28" y2="-2397.05"/>
	<line class="st4" x1="-2362.45" y1="-2400.3" x2="-2362.45" y2="-2231.23"/>
	
		<rect x="-2411.67" y="-2245.9" transform="matrix(0.934 -0.3573 0.3573 0.934 641.4979 -1000.5709)" class="st5" width="48.77" height="18.82"/>
	
		<rect x="-2410.18" y="-2254.45" transform="matrix(0.9881 -0.1538 0.1538 0.9881 317.3661 -393.8124)" class="st5" width="46.19" height="11.92"/>
	
		<rect x="-2410.19" y="-2405.56" transform="matrix(0.9487 0.3162 -0.3162 0.9487 -881.9927 631.5499)" class="st5" width="46.61" height="7.59"/>
	<rect x="-2406.89" y="-2302.76" class="st5" width="42.27" height="9.75"/>
	<rect x="-2371.12" y="-2369.96" class="st5" width="5.42" height="31.43"/>
	<rect x="-2444.82" y="-2392.72" class="st5" width="10.84" height="45.52"/>
	<rect x="-2406.89" y="-2402.47" class="st5" width="29.58" height="89"/>
	<rect x="-2407.97" y="-2286.51" class="st5" width="42.27" height="9.75"/>
	<rect x="-2490.34" y="-2399.22" class="st5" width="2.17" height="7.59"/>
	<rect x="-2490.34" y="-2386.21" class="st5" width="2.17" height="7.59"/>
</g>
<g>
	<g>
		<path d="M-2009.7-2400v136.94h-300V-2400H-2009.7 M-2000.7-2409h-318v154.94h318V-2409L-2000.7-2409z"/>
	</g>
	<g>
		<line class="st1" x1="-2159.2" y1="-2256.18" x2="-2159.2" y2="-2212.67"/>
	</g>
	<line class="st2" x1="-2233.2" y1="-2213.2" x2="-2081.7" y2="-2213.2"/>
</g>
<g>
	<rect x="-1258" y="-2408" width="713" height="204.76"/>
	<g>
		<g>
			<path class="st0" d="M-1076.04-2247.2h-9.1c-0.79-1.52-1.19-8.1-1.39-20.43c-4.96,8.84-15.8,21.92-44.23,21.92
				c-39.43,0-59.67-28.14-59.67-64.74c0-38.44,21.62-67.32,61.9-67.32c29.74,0,49.37,14.62,53.67,38.31h-11
				c-5.82-18-19.22-28.84-43.06-28.84c-34.19,0-49.72,24.95-49.72,57.29c0,29.27,14.98,55.83,48.38,55.83
				c34.13,0,43.63-20.87,43.63-49.01v-1.46h-44.02v-9.49h54.62V-2247.2z"/>
			<path class="st0" d="M-977.65-2264.83c0,8.12,0.78,14.7,1.37,17.63h-9.79c-0.79-2.2-1.37-6.27-1.76-14.06
				c-3.34,6.78-11.94,16.27-32.09,16.27c-22.79,0-32.62-13.83-32.62-27.65c0-20.27,16.72-29.49,46.15-29.49c8.17,0,14.64,0,18.55,0
				v-9.31c0-9.15-2.94-21.35-25.1-21.35c-19.64,0-22.58,9.64-24.72,17.17h-10.18c1.18-10.27,7.95-25.86,35.11-25.86
				c22.47,0,35.07,8.86,35.07,29.15V-2264.83z M-987.65-2294.04c-3.7,0-12.64,0-19.06,0c-21.67,0-35.05,5.32-35.05,21
				c0,11.49,8.73,19.35,22.39,19.35c27.83,0,31.72-17.35,31.72-37.06V-2294.04z"/>
			<path class="st0" d="M-945.45-2315.51c0-7.92,0-16.55-0.2-23.75h9.99c0.2,3.11,0.6,10.96,0.41,16.26
				c4.14-9.15,13.15-18.47,29.4-18.47c13.75,0,24.48,6.45,28.4,18.13c4.93-9.53,14.71-18.13,31.96-18.13
				c15.16,0,30.83,8.14,30.83,33.7v60.57h-10.19v-59.42c0-12.25-4.68-25.57-22.78-25.57c-18.88,0-27.42,14.2-27.42,31.97v53.02h-10
				v-59.22c0-13.35-4.28-25.76-22.2-25.76c-18.87,0-28,15.62-28,34.33v50.65h-10.2V-2315.51z"/>
			<path class="st0" d="M-780.03-2292.03c0.19,23.48,12.81,38.13,31.53,38.13c18.29,0,24.51-9.63,28.02-17.14h10.4
				c-4.11,12.13-14.52,26.05-38.82,26.05c-29.9,0-41.54-24.09-41.54-47.49c0-26.39,13.98-48.99,42.71-48.99
				c30.31,0,39.97,24.45,39.97,41.89c0,2.59,0,5.15-0.2,7.55H-780.03z M-718.34-2300.3c-0.2-18.06-10.66-32.3-29.77-32.3
				c-20.06,0-29.2,13.15-31.33,32.3H-718.34z"/>
			<path class="st0" d="M-683.5-2272.66c3.31,11.86,12.28,18.98,27.67,18.98c17.31,0,24.3-7.46,24.3-17.66
				c0-10.39-4.7-15.48-26.51-20.42c-25.48-5.75-31.74-12.97-31.74-25.14c0-12.72,10.21-24.56,32.56-24.56
				c22.36,0,32.95,12.76,34.5,25.82h-10.18c-1.75-7.63-8.13-17.14-24.74-17.14c-16.9,0-21.76,7.82-21.76,15.12
				c0,8.38,4.67,12.57,24.03,16.97c27.8,6.28,34.62,14.79,34.62,28.6c0,16.72-14.48,27.11-35.3,27.11
				c-22.55,0-35.11-11.1-37.84-27.67H-683.5z"/>
		</g>
	</g>
</g>
<g>
	<g>
		<path d="M-1932.66-2211.43l-45.35-172.09h13.64c11.1,42.11,35.54,135.97,39.25,156.1h0.23c3.11-16.31,29.8-110.7,41.24-156.1
			h14.43c10.72,41.85,36.74,142.16,39.38,155.82h0.23c5.16-24.63,32.31-115.07,43.44-155.82h13.34l-49.99,172.09h-14.99
			c-10.73-40.51-36.01-139.14-38.88-154.21h-0.23c-4.25,22.55-29.32,111.6-40.96,154.21H-1932.66z"/>
		<path d="M-1652.78-2273.21c0,34.28-18.12,64.73-53.1,64.73c-31.75,0-51.48-27.32-51.48-64.47c0-35.26,18.59-64.49,52.66-64.49
			C-1673.45-2337.44-1652.78-2311.85-1652.78-2273.21z M-1744.47-2272.96c0,29.16,14.88,52.57,39.52,52.57
			c25.11,0,39.28-21.73,39.28-52.57c0-28.97-13.95-52.58-39.75-52.58C-1731.88-2325.54-1744.47-2302.42-1744.47-2272.96z"/>
		<path d="M-1623.89-2301.02c0-20.48-0.23-29.39-0.23-33.47h11.94c0.24,3.91,0.48,11.88,0.48,27.43
			c6.76-18.36,21.71-29.42,40.72-30.38v13.72c-24.36,1.67-40.72,19.14-40.72,48.53v63.76h-12.19V-2301.02z"/>
		<path d="M-1547.53-2211.43v-181.21h12.19v181.21H-1547.53z"/>
		<path d="M-1406.31-2392.64v145.81c0,11.8,0,23.12,0.23,35.4h-11.7c-0.47-2.97-0.72-14.42-0.72-20.5
			c-5.86,14.89-18.92,23.45-39.25,23.45c-30.46,0-48.75-26.06-48.75-63.01c0-37.9,19.93-65.95,51.84-65.95
			c23.29,0,32.66,10.49,36.16,18.31v-73.51H-1406.31z M-1493.6-2272c0,33.5,16.47,51.59,36.53,51.59
			c30.75,0,39.06-22.33,39.06-55.45c0-31.51-7.17-49.67-36.98-49.67C-1478.05-2325.52-1493.6-2306.2-1493.6-2272z"/>
		<path d="M-1367.57-2245.46c3.95,15.86,14.66,25.36,33.04,25.36c20.66,0,29.01-9.97,29.01-23.61c0-13.89-5.61-20.7-31.66-27.29
			c-30.42-7.68-37.89-17.34-37.89-33.61c0-17.01,12.19-32.83,38.88-32.83c26.69,0,39.34,17.06,41.19,34.51h-12.15
			c-2.09-10.21-9.71-22.91-29.53-22.91c-20.18,0-25.98,10.46-25.98,20.21c0,11.21,5.58,16.8,28.7,22.68
			c33.19,8.39,41.33,19.78,41.33,38.23c0,22.35-17.29,36.24-42.15,36.24c-26.92,0-41.92-14.84-45.18-36.98H-1367.57z"/>
	</g>
</g>
<line class="st17" x1="-2142" y1="-2502" x2="-2055" y2="-2502"/>
<line class="st18" x1="-2332" y1="-2604" x2="-2332" y2="-2501"/>
<rect x="-2550" y="-2658" width="20" height="228"/>
<rect x="-2251" y="-2550" class="st0" width="14" height="3"/>
<rect x="-2254" y="-2550" width="9" height="3"/>
<rect x="-2190" y="-2579" class="st0" width="4" height="9"/>
<rect x="-2193" y="-2579" width="4" height="9"/>
<rect x="-2077" y="-2545" class="st0" width="3" height="22"/>
<rect x="-2072" y="-2530" class="st0" width="1" height="1"/>
<rect x="-2079" y="-2545" width="3" height="22"/>
<rect x="-2274" y="-2524" width="7" height="5"/>
<rect x="-2120" y="-2576" width="22" height="5"/>
<line class="st19" x1="-136" y1="-2046.5" x2="63" y2="-2046.5"/>
<line class="st19" x1="-142" y1="-2063.5" x2="68" y2="-2063.5"/>
<g>
	<line class="st19" x1="-23" y1="-1863.5" x2="93" y2="-1863.5"/>
	<line class="st19" x1="128.5" y1="-2015.5" x2="181.5" y2="-1801.5"/>
	<line class="st19" x1="132.5" y1="-1776.5" x2="183.5" y2="-1804.5"/>
	<line class="st19" x1="69.5" y1="-1862.5" x2="137.5" y2="-1776.5"/>
</g>
<g>
	<line class="st19" x1="-111.5" y1="-2044.5" x2="-97.5" y2="-1986.5"/>
	<line class="st19" x1="-101" y1="-1988.5" x2="-40" y2="-1988.5"/>
</g>
<g>
	<line class="st19" x1="39" y1="-2043.5" x2="25" y2="-1985.5"/>
	<line class="st19" x1="29" y1="-1987.5" x2="-32" y2="-1987.5"/>
</g>
<g>
	<line class="st19" x1="-49" y1="-1863.5" x2="-165" y2="-1863.5"/>
	<line class="st19" x1="-200.68" y1="-2015.31" x2="-253.68" y2="-1801.31"/>
	<line class="st19" x1="-204.68" y1="-1776.31" x2="-255.68" y2="-1804.31"/>
	<line class="st19" x1="-141.68" y1="-1862.31" x2="-209.68" y2="-1776.31"/>
</g>
<g>
	<line class="st19" x1="-217.5" y1="-2039.5" x2="-141.5" y2="-2073.5"/>
	<line class="st19" x1="-204.91" y1="-2014.04" x2="-128.91" y2="-2048.04"/>
	<line class="st19" x1="-146.5" y1="-2074.5" x2="-132.5" y2="-2045.5"/>
	<line class="st19" x1="-214.91" y1="-2043.54" x2="-200.91" y2="-2014.54"/>
</g>
<g>
	<line class="st19" x1="144.38" y1="-2039.77" x2="68.38" y2="-2073.77"/>
	<line class="st19" x1="131.79" y1="-2014.31" x2="55.79" y2="-2048.31"/>
	<line class="st19" x1="73.38" y1="-2074.77" x2="59.38" y2="-2045.77"/>
	<line class="st19" x1="141.79" y1="-2043.81" x2="127.79" y2="-2014.81"/>
</g>
<g>
	<line class="st19" x1="-161.5" y1="-1865.5" x2="-202.5" y2="-1812.5"/>
	<line class="st19" x1="-208.5" y1="-1804.5" x2="-214.5" y2="-1797.5"/>
</g>
<g>
	<line class="st19" x1="89.09" y1="-1864.87" x2="130.09" y2="-1811.87"/>
	<line class="st19" x1="136.09" y1="-1803.87" x2="142.09" y2="-1796.87"/>
</g>
<line class="st19" x1="-83" y1="-1970.5" x2="-64" y2="-1970.5"/>
<line class="st19" x1="-8" y1="-1970.5" x2="11" y2="-1970.5"/>
<line class="st19" x1="-115.5" y1="-1924" x2="-115.5" y2="-1898"/>
<g>
	<line class="st19" x1="-98.5" y1="-1941" x2="-98.5" y2="-1915"/>
	<line class="st19" x1="-98.5" y1="-1907" x2="-98.5" y2="-1881"/>
	<line class="st19" x1="-115" y1="-1919.5" x2="-95" y2="-1919.5"/>
	<line class="st19" x1="-115" y1="-1902.5" x2="-95" y2="-1902.5"/>
	<line class="st19" x1="-102" y1="-1937.5" x2="-76" y2="-1937.5"/>
</g>
<g>
	<line class="st19" x1="-80.5" y1="-1881" x2="-80.5" y2="-1907"/>
	<line class="st19" x1="-80.5" y1="-1915" x2="-80.5" y2="-1941"/>
	<line class="st19" x1="-64" y1="-1902.5" x2="-84" y2="-1902.5"/>
	<line class="st19" x1="-64" y1="-1919.5" x2="-84" y2="-1919.5"/>
	<line class="st19" x1="-77" y1="-1884.5" x2="-103" y2="-1884.5"/>
</g>
<line class="st19" x1="-63.5" y1="-1924" x2="-63.5" y2="-1898"/>
<path class="st19" d="M-24.5-2017.5c0.23,15.57-24.23,15.57-24,0C-48.73-2033.07-24.27-2033.07-24.5-2017.5z"/>
<g>
	<path class="st19" d="M-137.5-1979.5c0.25,16.87-26.25,16.87-26,0C-163.75-1996.37-137.25-1996.37-137.5-1979.5z"/>
	<path class="st19" d="M-120.78-1979.82c0.56,38.05-59.21,38.05-58.65,0C-179.98-2017.87-120.22-2017.87-120.78-1979.82z"/>
</g>
<g>
	<path class="st19" d="M43.39-1910.46c0.25,16.87-26.25,16.87-26,0C17.14-1927.33,43.64-1927.33,43.39-1910.46z"/>
	<path class="st19" d="M60.11-1910.79c0.56,38.05-59.21,38.05-58.65,0C0.91-1948.83,60.67-1948.83,60.11-1910.79z"/>
</g>
<path class="st19" d="M85.5-2002.5c0.17,11.68-18.17,11.68-18,0C67.33-2014.18,85.67-2014.18,85.5-2002.5z"/>
<path class="st19" d="M85.5-1956.5c0.17,11.68-18.17,11.68-18,0C67.33-1968.18,85.67-1968.18,85.5-1956.5z"/>
<path class="st19" d="M108.5-1979.5c0.17,11.68-18.17,11.68-18,0C90.33-1991.18,108.67-1991.18,108.5-1979.5z"/>
<path class="st19" d="M62.5-1979.5c0.17,11.68-18.17,11.68-18,0C44.33-1991.18,62.67-1991.18,62.5-1979.5z"/>
<path class="st19" d="M-34.5-1862.5c-1.78,0.26-2.26-0.22-2-2C-34.72-1864.76-34.24-1864.28-34.5-1862.5z"/>
<g>
	<line class="st19" x1="-859.5" y1="-1105.5" x2="-859.5" y2="-1308.5"/>
	<line class="st19" x1="-911.5" y1="-1105" x2="-911.5" y2="-1519.5"/>
	<line class="st19" x1="-752.26" y1="-1105.47" x2="-752.5" y2="-1548.5"/>
	<line class="st19" x1="-859.5" y1="-1318" x2="-859.5" y2="-1548.5"/>
	<line class="st19" x1="-911.5" y1="-1109.5" x2="-747.5" y2="-1109.5"/>
	<line class="st19" x1="-915" y1="-1137.5" x2="-855.5" y2="-1137.5"/>
	<line class="st19" x1="-915.5" y1="-1515.5" x2="-859.5" y2="-1515.5"/>
	<line class="st19" x1="-863.5" y1="-1544.5" x2="-748.5" y2="-1544.5"/>
	<line class="st19" x1="-818.5" y1="-1540.5" x2="-818.5" y2="-1298.5"/>
	<line class="st19" x1="-792.5" y1="-1547" x2="-792.5" y2="-1436.5"/>
	<line class="st19" x1="-792.66" y1="-1410.65" x2="-792.5" y2="-1299.5"/>
	<line class="st19" x1="-819.5" y1="-1303.5" x2="-788.5" y2="-1303.5"/>
	<line class="st19" x1="-792.5" y1="-1429" x2="-792.5" y2="-1419.5"/>
	<line class="st19" x1="-894.5" y1="-1502.5" x2="-894.5" y2="-1458.5"/>
	<line class="st19" x1="-876.5" y1="-1502.5" x2="-876.5" y2="-1458.5"/>
	<line class="st19" x1="-898.5" y1="-1498.5" x2="-872.5" y2="-1498.5"/>
	<line class="st19" x1="-899" y1="-1462.5" x2="-872.5" y2="-1462.5"/>
	<line class="st19" x1="-893.83" y1="-1194.68" x2="-893.83" y2="-1150.68"/>
	<line class="st19" x1="-875.83" y1="-1194.68" x2="-875.83" y2="-1150.68"/>
	<line class="st19" x1="-897.83" y1="-1190.68" x2="-871.83" y2="-1190.68"/>
	<line class="st19" x1="-898.33" y1="-1154.68" x2="-871.83" y2="-1154.68"/>
	<line class="st19" x1="-885.5" y1="-1220" x2="-885.5" y2="-1203.5"/>
	<circle class="st19" cx="-805.5" cy="-1276.5" r="9"/>
	<circle class="st19" cx="-805.5" cy="-1172.5" r="13"/>
	<g>
		<line class="st19" x1="-740" y1="-1228.5" x2="-624" y2="-1228.5"/>
		<line class="st19" x1="-588.5" y1="-1380.5" x2="-535.5" y2="-1166.5"/>
		<line class="st19" x1="-584.5" y1="-1141.5" x2="-533.5" y2="-1169.5"/>
		<line class="st19" x1="-647.5" y1="-1227.5" x2="-579.5" y2="-1141.5"/>
	</g>
	<g>
		<line class="st19" x1="-678" y1="-1408.5" x2="-692" y2="-1350.5"/>
		<line class="st19" x1="-688" y1="-1352.5" x2="-749" y2="-1352.5"/>
	</g>
	<g>
		<line class="st19" x1="-572.62" y1="-1404.77" x2="-648.62" y2="-1438.77"/>
		<line class="st19" x1="-585.21" y1="-1379.31" x2="-661.21" y2="-1413.31"/>
		<line class="st19" x1="-643.62" y1="-1439.77" x2="-657.62" y2="-1410.77"/>
		<line class="st19" x1="-575.21" y1="-1408.81" x2="-589.21" y2="-1379.81"/>
	</g>
	<g>
		<line class="st19" x1="-627.91" y1="-1229.87" x2="-586.91" y2="-1176.87"/>
		<line class="st19" x1="-580.91" y1="-1168.87" x2="-574.91" y2="-1161.87"/>
	</g>
	<line class="st19" x1="-725" y1="-1335.5" x2="-706" y2="-1335.5"/>
	<g>
		<path class="st19" d="M-673.61-1275.46c0.25,16.87-26.25,16.87-26,0C-699.86-1292.33-673.36-1292.33-673.61-1275.46z"/>
		<path class="st19" d="M-656.89-1275.79c0.56,38.05-59.21,38.05-58.65,0C-716.09-1313.83-656.33-1313.83-656.89-1275.79z"/>
	</g>
	<path class="st19" d="M-631.5-1367.5c0.17,11.68-18.17,11.68-18,0C-649.67-1379.18-631.33-1379.18-631.5-1367.5z"/>
	<path class="st19" d="M-631.5-1321.5c0.17,11.68-18.17,11.68-18,0C-649.67-1333.18-631.33-1333.18-631.5-1321.5z"/>
	<path class="st19" d="M-608.5-1344.5c0.17,11.68-18.17,11.68-18,0C-626.67-1356.18-608.33-1356.18-608.5-1344.5z"/>
	<path class="st19" d="M-654.5-1344.5c0.17,11.68-18.17,11.68-18,0C-672.67-1356.18-654.33-1356.18-654.5-1344.5z"/>
	<path class="st19" d="M-751.5-1227.5c-1.78,0.26-2.26-0.22-2-2C-751.72-1229.76-751.24-1229.28-751.5-1227.5z"/>
	<line class="st19" x1="-752.5" y1="-1427.5" x2="-649.5" y2="-1427.5"/>
	<line class="st19" x1="-754" y1="-1410.5" x2="-651" y2="-1410.5"/>
	<path class="st19" d="M-734.5-1380c0,1.17,0.02,9.21-6,12.5c-2.8,1.53-7.31,2.25-10,0c-0.92-0.77-1.98-2.18-2-12
		c-0.02-8.39,0.01-12.62,2-14c3.16-2.2,8.84-0.02,12,3C-734.52-1386.7-734.5-1381.53-734.5-1380z"/>
</g>
<rect x="-2050.5" y="-1005.5" class="st19" width="286" height="343"/>
<line class="st20" x1="-2014.5" y1="-966.5" x2="-1799.5" y2="-966.5"/>
<line class="st20" x1="-2014.5" y1="-924.5" x2="-1799.5" y2="-924.5"/>
<rect x="-2009.5" y="-887.5" class="st19" width="106" height="106"/>
<rect x="-1868.5" y="-887.5" class="st19" width="8" height="106"/>
<rect x="-1840.5" y="-887.5" class="st19" width="9" height="106"/>
<rect x="-1811.5" y="-887.5" class="st19" width="8" height="106"/>
<line class="st19" x1="-2009.5" y1="-748.5" x2="-1931" y2="-748.5"/>
<line class="st19" x1="-1918.5" y1="-748.5" x2="-1870.5" y2="-748.5"/>
<line class="st19" x1="-1856.5" y1="-748.5" x2="-1825.5" y2="-748.5"/>
<line class="st19" x1="-1815.5" y1="-748.5" x2="-1799.5" y2="-748.5"/>
<line class="st19" x1="-2009.5" y1="-731.5" x2="-1856.5" y2="-731.5"/>
<line class="st19" x1="-1846.5" y1="-731.5" x2="-1799.5" y2="-731.5"/>
<line class="st19" x1="-2009.5" y1="-710.5" x2="-1958.5" y2="-710.5"/>
<line class="st19" x1="-1947.5" y1="-710.5" x2="-1856.5" y2="-710.5"/>
<line class="st19" x1="-1846.5" y1="-710.5" x2="-1799.5" y2="-710.5"/>
<line class="st19" x1="-2009.5" y1="-692.5" x2="-1799.5" y2="-692.5"/>
<line class="st19" x1="-2051.5" y1="-1005.5" x2="-2033.5" y2="-1027.5"/>
<line class="st19" x1="-1767.47" y1="-1005.45" x2="-1749.47" y2="-1027.45"/>
<line class="st19" x1="-1764.47" y1="-662.45" x2="-1746.47" y2="-684.45"/>
<path class="st19" d="M-1735.5-877.5"/>
<line class="st19" x1="-2037.5" y1="-1025.5" x2="-1747.5" y2="-1025.5"/>
<line class="st19" x1="-1748.5" y1="-681.5" x2="-1748.5" y2="-1027.5"/>
<circle class="st19" cx="-1956.5" cy="-834.5" r="38"/>
<line class="st19" x1="-1992.5" y1="-846.5" x2="-1923.5" y2="-846.5"/>
<line class="st19" x1="-1992.5" y1="-823.5" x2="-1923.5" y2="-823.5"/>
<ellipse class="st19" cx="-1956.5" cy="-834.5" rx="13" ry="38"/>
<rect x="-1652.53" y="-570.88" class="st19" width="286" height="343"/>
<line class="st19" x1="-1653.53" y1="-570.88" x2="-1635.53" y2="-592.88"/>
<line class="st19" x1="-1369.49" y1="-570.83" x2="-1351.49" y2="-592.83"/>
<line class="st19" x1="-1366.49" y1="-227.83" x2="-1348.49" y2="-249.83"/>
<path class="st19" d="M-1337.53-442.88"/>
<line class="st19" x1="-1639.53" y1="-590.88" x2="-1349.53" y2="-590.88"/>
<line class="st19" x1="-1350.53" y1="-246.88" x2="-1350.53" y2="-592.88"/>
<rect x="-1639.5" y="-586.5" class="st21" width="283" height="13"/>
<rect x="-1360.5" y="-576.5" class="st22" width="4" height="333"/>
<rect x="-1653.5" y="-561.5" class="st22" width="278" height="324"/>
<g>
	<line class="st23" x1="-1612.53" y1="-534.88" x2="-1397.53" y2="-534.88"/>
	<line class="st23" x1="-1612.53" y1="-492.88" x2="-1397.53" y2="-492.88"/>
	<rect x="-1607.53" y="-455.88" class="st15" width="106" height="106"/>
	<rect x="-1466.53" y="-455.88" class="st15" width="8" height="106"/>
	<rect x="-1438.53" y="-455.88" class="st15" width="9" height="106"/>
	<rect x="-1409.53" y="-455.88" class="st15" width="8" height="106"/>
	<line class="st15" x1="-1607.53" y1="-316.88" x2="-1529.03" y2="-316.88"/>
	<line class="st15" x1="-1516.53" y1="-316.88" x2="-1468.53" y2="-316.88"/>
	<line class="st15" x1="-1454.53" y1="-316.88" x2="-1423.53" y2="-316.88"/>
	<line class="st15" x1="-1413.53" y1="-316.88" x2="-1397.53" y2="-316.88"/>
	<line class="st15" x1="-1607.53" y1="-299.88" x2="-1454.53" y2="-299.88"/>
	<line class="st15" x1="-1444.53" y1="-299.88" x2="-1397.53" y2="-299.88"/>
	<line class="st15" x1="-1607.53" y1="-278.88" x2="-1556.53" y2="-278.88"/>
	<line class="st15" x1="-1545.53" y1="-278.88" x2="-1454.53" y2="-278.88"/>
	<line class="st15" x1="-1444.53" y1="-278.88" x2="-1397.53" y2="-278.88"/>
	<line class="st15" x1="-1607.53" y1="-260.88" x2="-1397.53" y2="-260.88"/>
	<circle class="st15" cx="-1554.53" cy="-402.88" r="38"/>
	<line class="st15" x1="-1590.53" y1="-414.88" x2="-1521.53" y2="-414.88"/>
	<line class="st15" x1="-1590.53" y1="-391.88" x2="-1521.53" y2="-391.88"/>
	<ellipse class="st15" cx="-1554.53" cy="-402.88" rx="13" ry="38"/>
</g>
<path class="st19" d="M-1147.32-392.66L-1147.32-392.66c-22.41,23.27-59.44,23.97-82.72,1.56l0,0
	c-23.27-22.41-23.97-59.44-1.56-82.72l0,0c22.41-23.27,59.44-23.97,82.72-1.56v0C-1125.61-452.97-1124.91-415.94-1147.32-392.66z"/>
<rect x="-1094.39" y="-383.79" transform="matrix(0.6936 -0.7203 0.7203 0.6936 -90.7258 -886.6058)" class="st19" width="13.55" height="94.28"/>
<line class="st19" x1="-1148.5" y1="-395.5" x2="-1123.5" y2="-371.5"/>
<line class="st19" x1="-1227.5" y1="-461.5" x2="-1186.24" y2="-461.5"/>
<line class="st19" x1="-1181.08" y1="-461.5" x2="-1151.5" y2="-461.5"/>
<line class="st19" x1="-1227.5" y1="-448.61" x2="-1202.57" y2="-448.61"/>
<line class="st19" x1="-1199.13" y1="-448.61" x2="-1151" y2="-448.61"/>
<line class="st19" x1="-1227.5" y1="-435.71" x2="-1184.52" y2="-435.71"/>
<line class="st19" x1="-1151" y1="-435.71" x2="-1164.75" y2="-435.71"/>
<line class="st19" x1="-1227.5" y1="-423.68" x2="-1190.54" y2="-423.68"/>
<line class="st19" x1="-1187.1" y1="-423.68" x2="-1151" y2="-423.68"/>
<line class="st19" x1="-1227.5" y1="-409.5" x2="-1151.5" y2="-409.5"/>
<line class="st19" x1="-1166.9" y1="-435.71" x2="-1180.65" y2="-435.71"/>
<polygon class="st24" points="-771.85,-562.76 -556.35,-189.5 -987.35,-189.5 "/>
<rect x="-776" y="-454" class="st24" width="8" height="177"/>
<rect x="-775.81" y="-237" class="st24" width="8" height="8.07"/>
<rect x="-193" y="-271" class="st25" width="50" height="50"/>
<rect x="-259" y="-209" class="st25" width="50" height="50"/>
<rect x="-325" y="-275" class="st25" width="50" height="50"/>
<rect x="-127" y="-337" class="st25" width="50" height="50"/>
<rect x="-457" y="-407" class="st25" width="50" height="50"/>
<rect x="-61" y="-403" class="st25" width="50" height="50"/>
<rect x="-457" y="-470" class="st25" width="50" height="50"/>
<rect x="-61" y="-466" class="st25" width="50" height="50"/>
<rect x="-391" y="-341" class="st25" width="50" height="50"/>
<rect x="-457" y="-533" class="st25" width="50" height="50"/>
<rect x="-61" y="-529" class="st25" width="50" height="50"/>
<rect x="-391" y="-597" class="st25" width="50" height="50"/>
<rect x="-127" y="-593" class="st25" width="50" height="50"/>
<rect x="-193" y="-593" class="st25" width="50" height="50"/>
<rect x="-325" y="-597" class="st25" width="50" height="50"/>
<rect x="-259" y="-533" class="st25" width="50" height="50"/>
<rect x="374.27" y="-681.5" transform="matrix(0.7071 -0.7071 0.7071 0.7071 534.0717 203.719)" class="st25" width="277.36" height="277.36"/>
<rect x="549.13" y="-512.48" transform="matrix(0.7071 -0.7071 0.7071 0.7071 461.6181 378.2676)" class="st25" width="276.58" height="288.79"/>
<rect x="715.36" y="-664.18" transform="matrix(0.7071 -0.7071 0.7071 0.7071 621.7291 449.9787)" class="st25" width="277.36" height="277.36"/>
<rect x="-495" y="251" class="st25" width="50" height="50"/>
<rect x="-561" y="313" class="st25" width="50" height="50"/>
<rect x="-627" y="247" class="st25" width="50" height="50"/>
<rect x="-429" y="185" class="st25" width="50" height="50"/>
<rect x="-759" y="115" class="st25" width="50" height="50"/>
<rect x="-363" y="119" class="st25" width="50" height="50"/>
<rect x="-759" y="52" class="st25" width="50" height="50"/>
<rect x="-363" y="56" class="st25" width="50" height="50"/>
<rect x="-693" y="181" class="st25" width="50" height="50"/>
<rect x="-1040" y="-75" class="st25" width="50" height="50"/>
<rect x="-693" y="-18" class="st25" width="50" height="50"/>
<rect x="-429" y="-14" class="st25" width="50" height="50"/>
<rect x="-495" y="-14" class="st25" width="50" height="50"/>
<rect x="-627" y="-18" class="st25" width="50" height="50"/>
<rect x="-561" y="46" class="st25" width="50" height="50"/>
<g>
	<rect x="59" y="54" class="st26" width="25" height="25"/>
	<rect x="84" y="29" class="st26" width="50" height="25"/>
	<rect x="134" y="54" class="st26" width="25" height="25"/>
	<rect x="34" y="79" class="st26" width="25" height="74"/>
	<rect x="84" y="178" class="st26" width="25" height="25"/>
	<rect x="59" y="153" class="st26" width="25" height="25"/>
	<rect x="159" y="79" class="st26" width="25" height="25"/>
	<rect x="159" y="253" class="st26" width="25" height="25"/>
	<g>
		<rect x="109" y="203" class="st26" width="25" height="25"/>
		<rect x="134" y="228" class="st26" width="25" height="25"/>
	</g>
	<rect x="259" y="54" transform="matrix(-1 -4.489266e-11 4.489266e-11 -1 543 133)" class="st26" width="25" height="25"/>
	<rect x="209" y="29" transform="matrix(-1 -4.489266e-11 4.489266e-11 -1 468 83)" class="st26" width="50" height="25"/>
	<rect x="184" y="54" transform="matrix(-1 -4.489266e-11 4.489266e-11 -1 393 133)" class="st26" width="25" height="25"/>
	<rect x="284" y="79" transform="matrix(-1 -4.489266e-11 4.489266e-11 -1 593 232)" class="st26" width="25" height="74"/>
	<rect x="234" y="178" transform="matrix(-1 -4.489266e-11 4.489266e-11 -1 493 381)" class="st26" width="25" height="25"/>
	<rect x="259" y="153" transform="matrix(-1 -4.489266e-11 4.489266e-11 -1 543 331)" class="st26" width="25" height="25"/>
	<g>
		<rect x="209" y="203" transform="matrix(-1 -4.489266e-11 4.489266e-11 -1 443 431)" class="st26" width="25" height="25"/>
		<rect x="184" y="228" transform="matrix(-1 -4.489266e-11 4.489266e-11 -1 393 481)" class="st26" width="25" height="25"/>
	</g>
</g>
</svg>
