<?xml version="1.0" encoding="utf-8"?>
<!-- Generator: Adobe Illustrator 25.4.1, SVG Export Plug-In . SVG Version: 6.00 Build 0)  -->
<svg version="1.1" id="Слой_1" xmlns="http://www.w3.org/2000/svg" xmlns:xlink="http://www.w3.org/1999/xlink" x="0px" y="0px"
	 viewBox="0 0 318 376" style="enable-background:new 0 0 318 376;" xml:space="preserve">
<style type="text/css">
	.st0{fill:#FFFFFF;}
	.st1{fill:none;stroke:#000000;stroke-width:9;stroke-miterlimit:10;}
	.st2{fill:none;stroke:#000000;stroke-width:5;stroke-miterlimit:10;}
	.st3{fill:#FFFFFF;stroke:#000000;stroke-width:9;stroke-miterlimit:10;}
	.st4{fill:none;stroke:#000000;stroke-width:7;stroke-miterlimit:10;}
	.st5{stroke:#000000;stroke-width:3;stroke-miterlimit:10;}
	.st6{fill:#FFFFFF;stroke:#000000;stroke-width:4;stroke-miterlimit:10;}
	.st7{stroke:#000000;stroke-width:2;stroke-miterlimit:10;}
	.st8{fill:#FFFFFF;stroke:#000000;stroke-width:2;stroke-miterlimit:10;}
	.st9{stroke:#000000;stroke-miterlimit:10;}
	.st10{fill:none;stroke:#000000;stroke-miterlimit:10;}
	.st11{fill:#FFFFFF;stroke:#000000;stroke-miterlimit:10;}
	.st12{stroke:#FFFFFF;stroke-width:9;stroke-miterlimit:10;}
	.st13{fill:none;stroke:#FFFFFF;stroke-width:7;stroke-miterlimit:10;}
	.st14{fill:#FFFFFF;stroke:#FFFFFF;stroke-width:3;stroke-miterlimit:10;}
	.st15{fill:none;stroke:#FFFFFF;stroke-width:9;stroke-miterlimit:10;}
	.st16{fill:none;stroke:#FFFFFF;stroke-width:5;stroke-miterlimit:10;}
	.st17{fill:#FFFFFF;stroke:#FFFFFF;stroke-width:6;stroke-miterlimit:10;}
	.st18{fill:none;stroke:#FFFFFF;stroke-width:6;stroke-miterlimit:10;}
	.st19{fill:none;stroke:#00FFF0;stroke-width:9;stroke-miterlimit:10;}
	.st20{fill:none;stroke:#00FFF0;stroke-width:20;stroke-miterlimit:10;}
	.st21{fill:#00FFF0;stroke:#00FFFF;stroke-width:9;stroke-miterlimit:10;}
	.st22{fill:#00FFF0;stroke:#00FFF0;stroke-width:9;stroke-miterlimit:10;}
	.st23{fill:none;stroke:#FFFFFF;stroke-width:20;stroke-miterlimit:10;}
	.st24{fill:none;stroke:#FF433F;stroke-width:16;stroke-miterlimit:10;}
	.st25{fill:#FF433F;stroke:#FF433F;stroke-width:16;stroke-miterlimit:10;}
	.st26{fill:none;stroke:#00FFF0;stroke-width:10;stroke-miterlimit:10;}
	.st27{fill:#00FFFF;stroke:#00FFFF;stroke-width:10;stroke-miterlimit:10;}
	.st28{fill:#00FFF0;stroke:#00FFF0;stroke-width:10;stroke-miterlimit:10;}
	.st29{fill:none;stroke:#00FFFF;stroke-width:32;stroke-miterlimit:10;}
	.st30{fill:none;stroke:#00FFFF;stroke-width:30;stroke-miterlimit:10;}
	.st31{fill:none;stroke:#00FFFF;stroke-width:20;stroke-miterlimit:10;}
	.st32{fill:none;stroke:#00FFFF;stroke-width:10;stroke-miterlimit:10;}
	.st33{fill:#FFFFFF;stroke:#00FFFF;stroke-width:13;stroke-miterlimit:10;}
	.st34{fill:#FFFFFF;stroke:#FFFFFF;stroke-width:10;stroke-miterlimit:10;}
	.st35{fill:none;stroke:#FFFFFF;stroke-width:10;stroke-miterlimit:10;}
	.st36{fill:#00FFFF;stroke:#00FFFF;stroke-width:15;stroke-miterlimit:10;}
	.st37{fill:none;stroke:#FFFFFF;stroke-width:15;stroke-miterlimit:10;}
	.st38{fill:#FFFFFF;stroke:#00FFFF;stroke-width:9;stroke-miterlimit:10;}
	.st39{fill:#FFFFFF;stroke:#00FFFF;stroke-width:8;stroke-miterlimit:10;}
	.st40{fill:#FFFFFF;stroke:#00FFFF;stroke-width:10;stroke-miterlimit:10;}
	.st41{fill:#FFFFFF;stroke:#00FFFF;stroke-width:5;stroke-miterlimit:10;}
	.st42{fill:none;stroke:#00FFFF;stroke-width:5;stroke-miterlimit:10;}
	.st43{fill:none;stroke:#00FFFF;stroke-width:6;stroke-miterlimit:10;}
	.st44{fill:none;stroke:#00FFFF;stroke-width:4;stroke-miterlimit:10;}
	.st45{fill:#00FFFF;stroke:#00FFFF;stroke-width:13;stroke-miterlimit:10;}
	.st46{fill:none;stroke:#00FFFF;stroke-width:13;stroke-miterlimit:10;}
	.st47{fill:none;stroke:#00FFF0;stroke-width:12;stroke-miterlimit:10;}
	.st48{fill:none;stroke:#00FFF0;stroke-width:5;stroke-miterlimit:10;}
	.st49{fill:none;stroke:#00FFF0;stroke-width:3;stroke-miterlimit:10;}
	.st50{fill:#00FFFF;stroke:#00FFF0;stroke-width:6;stroke-miterlimit:10;}
	.st51{fill:none;stroke:#00FFF0;stroke-width:6;stroke-miterlimit:10;}
	.st52{fill:#00F4FF;}
	.st53{fill:#FF3435;}
	.st54{fill:#F26900;}
	.st55{fill:none;stroke:#000000;stroke-width:23;stroke-miterlimit:10;}
	.st56{fill:#00FFF0;}
</style>
<g>
	<g>
		<rect x="56.5" y="-1564.5" class="st0" width="309" height="137"/>
		<path d="M361-1560v128H61v-128H361 M370-1569H52v146h318V-1569L370-1569z"/>
	</g>
	<g>
		<line class="st1" x1="211.5" y1="-1425" x2="211.5" y2="-1384"/>
	</g>
	<line class="st2" x1="137.5" y1="-1384.5" x2="289" y2="-1384.5"/>
</g>
<g>
	<rect x="-85.08" y="-1535.07" class="st0" width="2.98" height="9.71"/>
	<rect x="-85.08" y="-1525.36" class="st0" width="12.89" height="2.65"/>
	<rect x="-75.16" y="-1535.07" class="st0" width="2.98" height="9.71"/>
	<rect x="-75.16" y="-1522.71" class="st0" width="2.98" height="9.71"/>
	<rect x="-66.24" y="-1535.07" class="st0" width="2.98" height="9.71"/>
	<rect x="-66.24" y="-1525.36" class="st0" width="12.89" height="2.65"/>
	<rect x="-56.32" y="-1535.07" class="st0" width="2.98" height="9.71"/>
	<rect x="-56.32" y="-1522.71" class="st0" width="2.98" height="9.71"/>
	<rect x="-95" y="-1535.07" class="st0" width="2.98" height="22.07"/>
	<rect x="-38.47" y="-1535.07" class="st0" width="2.98" height="22.07"/>
	<rect x="-37.48" y="-1535.07" class="st0" width="12.89" height="1.77"/>
	<rect x="-25.58" y="-1533.3" class="st0" width="0.99" height="0"/>
	<rect x="-37.48" y="-1525.36" class="st0" width="12.89" height="1.77"/>
	<rect x="-21.61" y="-1535.07" class="st0" width="2.98" height="22.07"/>
	<rect x="-20.62" y="-1535.07" class="st0" width="12.89" height="1.77"/>
	<rect x="-8.72" y="-1533.3" class="st0" width="0.99" height="0"/>
	<rect x="-20.62" y="-1525.36" class="st0" width="12.89" height="1.77"/>
	<rect x="-10.7" y="-1535.07" class="st0" width="2.98" height="11.48"/>
	<rect x="-3.76" y="-1535.07" class="st0" width="2.98" height="11.48"/>
	<rect x="-2.77" y="-1535.07" class="st0" width="12.89" height="1.77"/>
	<rect x="9.14" y="-1533.3" class="st0" width="0.99" height="0"/>
	<rect x="-2.77" y="-1525.36" class="st0" width="12.89" height="1.77"/>
	<rect x="7.15" y="-1523.59" class="st0" width="2.98" height="10.59"/>
	<rect x="-3.76" y="-1514.76" class="st0" width="12.89" height="1.77"/>
	<rect x="406.83" y="-1626" width="1064.17" height="211"/>
</g>
<g>
	<rect x="-96.5" y="-1489.87" class="st3" width="88.33" height="197.25"/>
	<line class="st4" x1="-6.55" y1="-1291" x2="43.31" y2="-1312.68"/>
	<line class="st4" x1="-5.46" y1="-1491.5" x2="43.31" y2="-1475.24"/>
	<line class="st4" x1="41.14" y1="-1478.49" x2="41.14" y2="-1309.42"/>
	
		<rect x="-8.08" y="-1324.09" transform="matrix(0.934 -0.3573 0.3573 0.934 470.7972 -80.9501)" class="st5" width="48.77" height="18.82"/>
	
		<rect x="-6.59" y="-1332.64" transform="matrix(0.9881 -0.1538 0.1538 0.9881 204.2045 -13.2411)" class="st5" width="46.19" height="11.92"/>
	
		<rect x="-6.6" y="-1483.75" transform="matrix(0.9487 0.3162 -0.3162 0.9487 -467.1467 -81.2279)" class="st5" width="46.61" height="7.59"/>
	<rect x="-3.29" y="-1380.95" class="st5" width="42.27" height="9.75"/>
	<rect x="32.47" y="-1448.15" class="st5" width="5.42" height="31.43"/>
	<rect x="-41.23" y="-1470.91" class="st5" width="10.84" height="45.52"/>
	<rect x="-3.29" y="-1480.66" class="st5" width="29.58" height="89"/>
	<rect x="-4.38" y="-1364.7" class="st5" width="42.27" height="9.75"/>
	<rect x="-86.75" y="-1477.41" class="st5" width="2.17" height="7.59"/>
	<rect x="-86.75" y="-1464.41" class="st5" width="2.17" height="7.59"/>
</g>
<g>
	<rect x="346" y="-1339" class="st6" width="25" height="39"/>
	<rect x="356" y="-1333" class="st7" width="5" height="12"/>
	<rect x="347" y="-1338" class="st8" width="5" height="13"/>
	<rect x="365" y="-1338" class="st8" width="5" height="13"/>
	<rect x="344" y="-1324" class="st6" width="1" height="6"/>
	<rect x="344" y="-1313" class="st6" width="1" height="6"/>
</g>
<g>
	<rect x="202" y="-1370" width="4" height="13"/>
	<rect x="358" y="-1366" width="3" height="25"/>
	<rect x="38" y="-1370" width="323" height="4"/>
	<rect x="114" y="-1428" width="4" height="59"/>
</g>
<g>
	<rect x="72.5" y="-1354.5" class="st2" width="258" height="74"/>
	<rect x="87" y="-1297" width="34" height="8"/>
	<rect x="133" y="-1297" width="134" height="8"/>
	<rect x="276" y="-1297" width="34" height="8"/>
	<g>
		<rect x="90.5" y="-1342.5" class="st2" width="11" height="4"/>
		<rect x="110.5" y="-1342.5" class="st2" width="11" height="4"/>
		<rect x="90.5" y="-1330.5" class="st2" width="11" height="4"/>
		<rect x="110.5" y="-1330.5" class="st2" width="11" height="4"/>
		<rect x="90.5" y="-1318.5" class="st2" width="11" height="4"/>
		<rect x="110.5" y="-1318.5" class="st2" width="11" height="4"/>
	</g>
	<g>
		<rect x="277.5" y="-1342.5" class="st2" width="11" height="4"/>
		<rect x="297.5" y="-1342.5" class="st2" width="11" height="4"/>
		<rect x="277.5" y="-1330.5" class="st2" width="11" height="4"/>
		<rect x="297.5" y="-1330.5" class="st2" width="11" height="4"/>
		<rect x="277.5" y="-1318.5" class="st2" width="11" height="4"/>
		<rect x="297.5" y="-1318.5" class="st2" width="11" height="4"/>
	</g>
	<g>
		<rect x="135.5" y="-1342.5" class="st2" width="11" height="4"/>
		<rect x="155.5" y="-1342.5" class="st2" width="11" height="4"/>
		<rect x="135.5" y="-1330.5" class="st2" width="11" height="4"/>
		<rect x="155.5" y="-1330.5" class="st2" width="11" height="4"/>
		<rect x="135.5" y="-1318.5" class="st2" width="11" height="4"/>
		<rect x="155.5" y="-1318.5" class="st2" width="11" height="4"/>
		<rect x="174.5" y="-1342.5" class="st2" width="11" height="4"/>
		<rect x="194.5" y="-1342.5" class="st2" width="11" height="4"/>
		<rect x="174.5" y="-1330.5" class="st2" width="11" height="4"/>
		<rect x="194.5" y="-1330.5" class="st2" width="11" height="4"/>
		<rect x="174.5" y="-1318.5" class="st2" width="11" height="4"/>
		<rect x="194.5" y="-1318.5" class="st2" width="11" height="4"/>
		<rect x="213.5" y="-1342.5" class="st2" width="11" height="4"/>
		<rect x="233.5" y="-1342.5" class="st2" width="11" height="4"/>
		<rect x="213.5" y="-1330.5" class="st2" width="11" height="4"/>
		<rect x="233.5" y="-1330.5" class="st2" width="11" height="4"/>
		<rect x="213.5" y="-1318.5" class="st2" width="11" height="4"/>
		<rect x="233.5" y="-1318.5" class="st2" width="11" height="4"/>
		<rect x="253.5" y="-1342.5" class="st2" width="11" height="4"/>
		<rect x="253.5" y="-1330.5" class="st2" width="11" height="4"/>
		<rect x="253.5" y="-1318.5" class="st2" width="11" height="4"/>
	</g>
</g>
<rect x="281.5" y="-1476.5" transform="matrix(6.123234e-17 -1 1 6.123234e-17 1729 -1158)" class="st9" width="8" height="66"/>
<rect x="66" y="-1553" width="15" height="15"/>
<rect x="86" y="-1553" width="2" height="15"/>
<rect x="86" y="-1553" width="7" height="2"/>
<rect x="86" y="-1547" width="7" height="2"/>
<rect x="93" y="-1553" width="2" height="8"/>
<rect x="97" y="-1553" width="2" height="15"/>
<rect x="99" y="-1540" width="7" height="2"/>
<rect x="99" y="-1546" width="7" height="2"/>
<rect x="99" y="-1553" width="7" height="2"/>
<rect x="108" y="-1553" width="2" height="15"/>
<rect x="110" y="-1540" width="7" height="2"/>
<rect x="110" y="-1553" width="7" height="2"/>
<rect x="164.5" y="-1518.5" class="st9" width="45" height="45"/>
<line class="st10" x1="209.5" y1="-1473.5" x2="220.5" y2="-1480.5"/>
<line class="st10" x1="208.5" y1="-1517.5" x2="220.9" y2="-1524.76"/>
<line class="st10" x1="164.5" y1="-1518.5" x2="175.5" y2="-1524.5"/>
<line class="st10" x1="175" y1="-1524.5" x2="220" y2="-1524.5"/>
<line class="st10" x1="220.5" y1="-1480" x2="220.5" y2="-1525"/>
<line class="st10" x1="206.2" y1="-1498.63" x2="218.61" y2="-1505.88"/>
<rect x="174.5" y="-1523.5" class="st9" width="46" height="43"/>
<rect x="214.5" y="-1517.5" class="st9" width="2" height="1"/>
<rect x="207.46" y="-1481.65" transform="matrix(0.8632 -0.5049 0.5049 0.8632 775.9029 -94.9518)" class="st9" width="10.58" height="5"/>
<rect x="200.5" y="-1489.5" class="st9" width="13" height="6"/>
<rect x="166.18" y="-1521.1" transform="matrix(0.8632 -0.5049 0.5049 0.8632 790.1726 -121.1913)" class="st9" width="10.58" height="5"/>
<rect x="164.5" y="-1473.5" class="st9" width="1" height="43"/>
<rect x="288" y="-1597" transform="matrix(6.123234e-17 -1 1 6.123234e-17 1812.5 -1235.5)" class="st9" width="1" height="146"/>
<rect x="91" y="-1547" width="2" height="4"/>
<rect x="93" y="-1543" width="2" height="5"/>
<g>
	<rect x="70.5" y="-1450.5" class="st9" width="1" height="14"/>
	<rect x="77" y="-1444" transform="matrix(6.123234e-17 -1 1 6.123234e-17 1514.5 -1359.5)" class="st9" width="1" height="14"/>
</g>
<g>
	
		<rect x="341" y="-1444" transform="matrix(-3.267951e-07 -1 1 -3.267951e-07 1778.5001 -1095.5005)" class="st9" width="1" height="14"/>
	
		<rect x="347.5" y="-1450.5" transform="matrix(-1 3.267942e-07 -3.267942e-07 -1 695.9995 -2887)" class="st9" width="1" height="14"/>
</g>
<g>
	
		<rect x="347.5" y="-1553.5" transform="matrix(-1 3.267960e-07 -3.267960e-07 -1 695.9995 -3093)" class="st9" width="1" height="14"/>
	
		<rect x="341" y="-1560" transform="matrix(3.267942e-07 1 -1 3.267942e-07 -1211.5001 -1894.4995)" class="st9" width="1" height="14"/>
</g>
<g>
	<rect x="80.5" y="-1518.5" class="st9" width="24" height="3"/>
	<rect x="107.5" y="-1518.5" class="st9" width="24" height="3"/>
	<rect x="80.5" y="-1512.5" class="st9" width="13" height="3"/>
	<rect x="96.5" y="-1512.5" class="st9" width="35" height="3"/>
	<rect x="117.5" y="-1506.5" class="st9" width="14" height="3"/>
	<rect x="80.5" y="-1500.5" class="st9" width="24" height="3"/>
	<rect x="85.5" y="-1506.5" class="st9" width="30" height="3"/>
	<rect x="80.5" y="-1506.5" class="st9" width="3" height="3"/>
	<rect x="107.5" y="-1500.5" class="st9" width="3" height="3"/>
	<rect x="113.5" y="-1500.5" class="st9" width="3" height="3"/>
	<rect x="119.5" y="-1500.5" class="st9" width="12" height="3"/>
</g>
<rect x="102" y="-1513" transform="matrix(6.123234e-17 -1 1 6.123234e-17 1593.5 -1381.5)" class="st9" width="8" height="51"/>
<rect x="242.5" y="-1512.5" class="st9" width="84" height="3"/>
<rect x="242.5" y="-1511.5" class="st9" width="0" height="33"/>
<rect x="326.5" y="-1511.06" class="st9" width="0" height="32.56"/>
<rect x="242.5" y="-1479.5" class="st9" width="84" height="1"/>
<rect x="319.5" y="-1512.5" class="st11" width="3" height="3"/>
<rect x="316.5" y="-1511.5" class="st11" width="3" height="2"/>
<rect x="311.5" y="-1493.5" transform="matrix(6.123234e-17 -1 1 6.123234e-17 1795 -1171)" class="st9" width="1" height="21"/>
<rect x="246.5" y="-1497.5" class="st9" width="1" height="15"/>
<g>
	<rect x="435.86" y="-1619.02" class="st12" width="88.33" height="197.25"/>
	<line class="st13" x1="525.82" y1="-1420.14" x2="575.67" y2="-1441.82"/>
	<line class="st13" x1="526.9" y1="-1620.64" x2="575.67" y2="-1604.38"/>
	<line class="st13" x1="573.5" y1="-1607.64" x2="573.5" y2="-1438.57"/>
	
		<rect x="524.28" y="-1453.23" transform="matrix(0.934 -0.3573 0.3573 0.934 552.077 100.7323)" class="st14" width="48.77" height="18.82"/>
	
		<rect x="525.77" y="-1461.79" transform="matrix(0.9881 -0.1538 0.1538 0.9881 230.3948 67.0857)" class="st14" width="46.19" height="11.92"/>
	
		<rect x="525.76" y="-1612.89" transform="matrix(0.9487 0.3162 -0.3162 0.9487 -480.6658 -256.2024)" class="st14" width="46.61" height="7.59"/>
	<rect x="529.07" y="-1510.1" class="st14" width="42.27" height="9.75"/>
	<rect x="564.83" y="-1577.29" class="st14" width="5.42" height="31.43"/>
	<rect x="491.13" y="-1600.05" class="st14" width="10.84" height="45.52"/>
	<rect x="529.07" y="-1609.8" class="st14" width="29.58" height="89"/>
	<rect x="527.98" y="-1493.84" class="st14" width="42.27" height="9.75"/>
	<rect x="445.61" y="-1606.55" class="st14" width="2.17" height="7.59"/>
	<rect x="445.61" y="-1593.55" class="st14" width="2.17" height="7.59"/>
</g>
<g>
	<g>
		<rect x="593.76" y="-1602.5" width="309" height="137"/>
		<path class="st0" d="M898.26-1598v128h-300v-128H898.26 M907.26-1607h-318v146h318V-1607L907.26-1607z"/>
	</g>
	<g>
		<line class="st15" x1="748.76" y1="-1463" x2="748.76" y2="-1422"/>
	</g>
	<line class="st16" x1="674.76" y1="-1422.5" x2="826.26" y2="-1422.5"/>
</g>
<g>
	<path class="st0" d="M612.99-1561.18h5.65v-5.65h50.85v11.3h-45.2v45.2h45.2v11.3h-50.85v-5.65h-5.65V-1561.18z"/>
	<path class="st0" d="M680.79-1555.53h11.3v33.9h22.6v-33.9h11.3v62.15h-5.65v5.65h-33.9v-11.3h28.25v-11.3h-28.25v-5.65h-5.65
		V-1555.53z"/>
	<path class="st0" d="M737.29-1566.83h11.3v16.95h28.25v5.65h5.65v39.55h-5.65v5.65h-39.55V-1566.83z M748.59-1510.33h22.6v-28.25
		h-22.6V-1510.33z"/>
	<path class="st0" d="M793.79-1549.88h5.65v-5.65h33.9v5.65h5.65v28.25h-33.9v11.3h28.25v11.3h-33.9v-5.65h-5.65V-1549.88z
		 M805.09-1532.93h22.6v-11.3h-22.6V-1532.93z"/>
	<path class="st0" d="M850.29-1555.53h11.3v5.65h5.65v-5.65h22.6v5.65h5.65v11.3h-11.3v-5.65h-16.95v5.65h-5.65v39.55h-11.3
		V-1555.53z"/>
</g>
<rect x="1471" y="-1625" class="st0" width="764.9" height="209.66"/>
<text transform="matrix(1.2222 0 0 1 1491 -1462.5195)" style="font-family:'Roboto-Regular'; font-size:186.4234px;">Games</text>
<g>
	<path class="st0" d="M940.11-1580.54h18.43v73.73h18.43v-36.87h18.43v36.87h18.43v-73.73h18.43v82.95h-9.22v9.22h-9.22v18.43
		h-18.43v-18.43h-18.43v18.43h-18.43v-18.43h-9.22v-9.22h-9.22V-1580.54z"/>
	<path class="st0" d="M1050.7-1552.89h9.22v-9.22h55.3v9.22h9.22v73.73h-9.22v9.22h-55.3v-9.22h-9.22V-1552.89z M1069.13-1488.38
		H1106v-55.3h-36.87V-1488.38z"/>
	<path class="st0" d="M1142.86-1562.11h18.43v9.22h9.22v-9.22h36.86v9.22h9.22v18.43h-18.43v-9.22h-27.65v9.22h-9.22v64.51h-18.43
		V-1562.11z"/>
	<path class="st0" d="M1235.03-1580.54h18.43v110.59h-18.43V-1580.54z"/>
	<path class="st0" d="M1271.89-1543.68h9.22v-9.22h46.08v-27.65h18.43v110.59h-64.51v-9.22h-9.22V-1543.68z M1290.32-1488.38h36.87
		v-46.08h-36.87V-1488.38z"/>
	<path class="st0" d="M1364.05-1552.89h9.22v-9.22h64.51v18.43h-55.3v18.43h46.08v9.22h9.22v36.87h-9.22v9.22h-64.51v-18.43h55.3
		v-18.43h-46.08v-9.22h-9.22V-1552.89z"/>
</g>
<g>
	<rect x="437.91" y="-1393.68" class="st3" width="88.33" height="197.25"/>
	<line class="st4" x1="527.86" y1="-1194.81" x2="577.72" y2="-1216.49"/>
	<line class="st4" x1="528.95" y1="-1395.31" x2="577.72" y2="-1379.05"/>
	<line class="st4" x1="575.55" y1="-1382.3" x2="575.55" y2="-1213.23"/>
	
		<rect x="526.33" y="-1227.9" transform="matrix(0.934 -0.3573 0.3573 0.934 471.7037 116.3376)" class="st5" width="48.77" height="18.82"/>
	
		<rect x="527.82" y="-1236.45" transform="matrix(0.9881 -0.1538 0.1538 0.9881 195.7692 70.0808)" class="st5" width="46.19" height="11.92"/>
	
		<rect x="527.81" y="-1387.56" transform="matrix(0.9487 0.3162 -0.3162 0.9487 -409.3044 -245.2869)" class="st5" width="46.61" height="7.59"/>
	<rect x="531.12" y="-1284.76" class="st5" width="42.27" height="9.75"/>
	<rect x="566.88" y="-1351.96" class="st5" width="5.42" height="31.43"/>
	<rect x="493.18" y="-1374.72" class="st5" width="10.84" height="45.52"/>
	<rect x="531.12" y="-1384.47" class="st5" width="29.58" height="89"/>
	<rect x="530.03" y="-1268.51" class="st5" width="42.27" height="9.75"/>
	<rect x="447.66" y="-1381.22" class="st5" width="2.17" height="7.59"/>
	<rect x="447.66" y="-1368.21" class="st5" width="2.17" height="7.59"/>
</g>
<g>
	<g>
		<path d="M928.3-1382v136.94h-300V-1382H928.3 M937.3-1391h-318v154.94h318V-1391L937.3-1391z"/>
	</g>
	<g>
		<line class="st1" x1="778.8" y1="-1238.18" x2="778.8" y2="-1194.67"/>
	</g>
	<line class="st2" x1="704.8" y1="-1195.2" x2="856.3" y2="-1195.2"/>
</g>
<g>
	<rect x="1680" y="-1390" width="713" height="204.76"/>
	<g>
		<g>
			<path class="st0" d="M1861.96-1229.2h-9.1c-0.79-1.52-1.19-8.1-1.39-20.43c-4.96,8.84-15.8,21.92-44.23,21.92
				c-39.43,0-59.67-28.14-59.67-64.74c0-38.44,21.62-67.32,61.9-67.32c29.74,0,49.37,14.62,53.67,38.31h-11
				c-5.82-18-19.22-28.84-43.06-28.84c-34.19,0-49.72,24.95-49.72,57.29c0,29.27,14.98,55.83,48.38,55.83
				c34.13,0,43.63-20.87,43.63-49.01v-1.46h-44.02v-9.49h54.62V-1229.2z"/>
			<path class="st0" d="M1960.35-1246.83c0,8.12,0.78,14.7,1.37,17.63h-9.79c-0.79-2.2-1.37-6.27-1.76-14.06
				c-3.34,6.78-11.94,16.27-32.09,16.27c-22.79,0-32.62-13.83-32.62-27.65c0-20.27,16.72-29.49,46.15-29.49c8.17,0,14.64,0,18.55,0
				v-9.31c0-9.15-2.94-21.35-25.1-21.35c-19.64,0-22.58,9.64-24.72,17.17h-10.18c1.18-10.27,7.95-25.86,35.11-25.86
				c22.47,0,35.07,8.86,35.07,29.15V-1246.83z M1950.35-1276.04c-3.7,0-12.64,0-19.06,0c-21.67,0-35.05,5.32-35.05,21
				c0,11.49,8.73,19.35,22.39,19.35c27.83,0,31.72-17.35,31.72-37.06V-1276.04z"/>
			<path class="st0" d="M1992.55-1297.51c0-7.92,0-16.55-0.2-23.75h9.99c0.2,3.11,0.6,10.96,0.41,16.26
				c4.14-9.15,13.15-18.47,29.4-18.47c13.75,0,24.48,6.45,28.4,18.13c4.93-9.53,14.71-18.13,31.96-18.13
				c15.16,0,30.83,8.14,30.83,33.7v60.57h-10.19v-59.42c0-12.25-4.68-25.57-22.78-25.57c-18.88,0-27.42,14.2-27.42,31.97v53.02h-10
				v-59.22c0-13.35-4.28-25.76-22.2-25.76c-18.87,0-28,15.62-28,34.33v50.65h-10.2V-1297.51z"/>
			<path class="st0" d="M2157.97-1274.03c0.19,23.48,12.81,38.13,31.53,38.13c18.29,0,24.51-9.63,28.02-17.14h10.4
				c-4.11,12.13-14.52,26.05-38.82,26.05c-29.9,0-41.54-24.09-41.54-47.49c0-26.39,13.98-48.99,42.71-48.99
				c30.31,0,39.97,24.45,39.97,41.89c0,2.59,0,5.15-0.2,7.55H2157.97z M2219.66-1282.3c-0.2-18.06-10.66-32.3-29.77-32.3
				c-20.06,0-29.2,13.15-31.33,32.3H2219.66z"/>
			<path class="st0" d="M2254.5-1254.66c3.31,11.86,12.28,18.98,27.67,18.98c17.31,0,24.3-7.46,24.3-17.66
				c0-10.39-4.7-15.48-26.51-20.42c-25.48-5.75-31.74-12.97-31.74-25.14c0-12.72,10.21-24.56,32.56-24.56
				c22.36,0,32.95,12.76,34.5,25.82h-10.18c-1.75-7.63-8.13-17.14-24.74-17.14c-16.9,0-21.76,7.82-21.76,15.12
				c0,8.38,4.67,12.57,24.03,16.97c27.8,6.28,34.62,14.79,34.62,28.6c0,16.72-14.48,27.11-35.3,27.11
				c-22.55,0-35.11-11.1-37.84-27.67H2254.5z"/>
		</g>
	</g>
</g>
<g>
	<g>
		<path d="M1005.34-1193.43l-45.35-172.09h13.64c11.1,42.11,35.54,135.97,39.25,156.1h0.23c3.11-16.31,29.8-110.7,41.24-156.1h14.43
			c10.72,41.85,36.74,142.16,39.38,155.82h0.23c5.16-24.63,32.31-115.07,43.44-155.82h13.34l-49.99,172.09h-14.99
			c-10.73-40.51-36.01-139.14-38.88-154.21h-0.23c-4.25,22.55-29.32,111.6-40.96,154.21H1005.34z"/>
		<path d="M1285.22-1255.21c0,34.28-18.12,64.73-53.1,64.73c-31.75,0-51.48-27.32-51.48-64.47c0-35.26,18.59-64.49,52.66-64.49
			C1264.55-1319.44,1285.22-1293.85,1285.22-1255.21z M1193.53-1254.96c0,29.16,14.88,52.57,39.52,52.57
			c25.11,0,39.28-21.73,39.28-52.57c0-28.97-13.95-52.58-39.75-52.58C1206.12-1307.54,1193.53-1284.42,1193.53-1254.96z"/>
		<path d="M1314.11-1283.02c0-20.48-0.23-29.39-0.23-33.47h11.94c0.24,3.91,0.48,11.88,0.48,27.43
			c6.76-18.36,21.71-29.42,40.72-30.38v13.72c-24.36,1.67-40.72,19.14-40.72,48.53v63.76h-12.19V-1283.02z"/>
		<path d="M1390.47-1193.43v-181.21h12.19v181.21H1390.47z"/>
		<path d="M1531.69-1374.64v145.81c0,11.8,0,23.12,0.23,35.4h-11.7c-0.47-2.97-0.72-14.42-0.72-20.5
			c-5.86,14.89-18.92,23.45-39.25,23.45c-30.46,0-48.75-26.06-48.75-63.01c0-37.9,19.93-65.95,51.84-65.95
			c23.29,0,32.66,10.49,36.16,18.31v-73.51H1531.69z M1444.4-1254c0,33.5,16.47,51.59,36.53,51.59c30.75,0,39.06-22.33,39.06-55.45
			c0-31.51-7.17-49.67-36.98-49.67C1459.95-1307.52,1444.4-1288.2,1444.4-1254z"/>
		<path d="M1570.43-1227.46c3.95,15.86,14.66,25.36,33.04,25.36c20.66,0,29.01-9.97,29.01-23.61c0-13.89-5.61-20.7-31.66-27.29
			c-30.42-7.68-37.89-17.34-37.89-33.61c0-17.01,12.19-32.83,38.88-32.83c26.69,0,39.34,17.06,41.19,34.51h-12.15
			c-2.09-10.21-9.71-22.91-29.53-22.91c-20.18,0-25.98,10.46-25.98,20.21c0,11.21,5.58,16.8,28.7,22.68
			c33.19,8.39,41.33,19.78,41.33,38.23c0,22.35-17.29,36.24-42.15,36.24c-26.92,0-41.92-14.84-45.18-36.98H1570.43z"/>
	</g>
</g>
<line class="st17" x1="796" y1="-1484" x2="883" y2="-1484"/>
<line class="st18" x1="606" y1="-1586" x2="606" y2="-1483"/>
<rect x="388" y="-1640" width="20" height="228"/>
<rect x="687" y="-1532" class="st0" width="14" height="3"/>
<rect x="684" y="-1532" width="9" height="3"/>
<rect x="748" y="-1561" class="st0" width="4" height="9"/>
<rect x="745" y="-1561" width="4" height="9"/>
<rect x="861" y="-1527" class="st0" width="3" height="22"/>
<rect x="866" y="-1512" class="st0" width="1" height="1"/>
<rect x="859" y="-1527" width="3" height="22"/>
<rect x="664" y="-1506" width="7" height="5"/>
<rect x="818" y="-1558" width="22" height="5"/>
<line class="st19" x1="2802" y1="-1028.5" x2="3001" y2="-1028.5"/>
<line class="st19" x1="2796" y1="-1045.5" x2="3006" y2="-1045.5"/>
<g>
	<line class="st19" x1="2915" y1="-845.5" x2="3031" y2="-845.5"/>
	<line class="st19" x1="3066.5" y1="-997.5" x2="3119.5" y2="-783.5"/>
	<line class="st19" x1="3070.5" y1="-758.5" x2="3121.5" y2="-786.5"/>
	<line class="st19" x1="3007.5" y1="-844.5" x2="3075.5" y2="-758.5"/>
</g>
<g>
	<line class="st19" x1="2826.5" y1="-1026.5" x2="2840.5" y2="-968.5"/>
	<line class="st19" x1="2837" y1="-970.5" x2="2898" y2="-970.5"/>
</g>
<g>
	<line class="st19" x1="2977" y1="-1025.5" x2="2963" y2="-967.5"/>
	<line class="st19" x1="2967" y1="-969.5" x2="2906" y2="-969.5"/>
</g>
<g>
	<line class="st19" x1="2889" y1="-845.5" x2="2773" y2="-845.5"/>
	<line class="st19" x1="2737.32" y1="-997.31" x2="2684.32" y2="-783.31"/>
	<line class="st19" x1="2733.32" y1="-758.31" x2="2682.32" y2="-786.31"/>
	<line class="st19" x1="2796.32" y1="-844.31" x2="2728.32" y2="-758.31"/>
</g>
<g>
	<line class="st19" x1="2720.5" y1="-1021.5" x2="2796.5" y2="-1055.5"/>
	<line class="st19" x1="2733.09" y1="-996.04" x2="2809.09" y2="-1030.04"/>
	<line class="st19" x1="2791.5" y1="-1056.5" x2="2805.5" y2="-1027.5"/>
	<line class="st19" x1="2723.09" y1="-1025.54" x2="2737.09" y2="-996.54"/>
</g>
<g>
	<line class="st19" x1="3082.38" y1="-1021.77" x2="3006.38" y2="-1055.77"/>
	<line class="st19" x1="3069.79" y1="-996.31" x2="2993.79" y2="-1030.31"/>
	<line class="st19" x1="3011.38" y1="-1056.77" x2="2997.38" y2="-1027.77"/>
	<line class="st19" x1="3079.79" y1="-1025.81" x2="3065.79" y2="-996.81"/>
</g>
<g>
	<line class="st19" x1="2776.5" y1="-847.5" x2="2735.5" y2="-794.5"/>
	<line class="st19" x1="2729.5" y1="-786.5" x2="2723.5" y2="-779.5"/>
</g>
<g>
	<line class="st19" x1="3027.09" y1="-846.87" x2="3068.09" y2="-793.87"/>
	<line class="st19" x1="3074.09" y1="-785.87" x2="3080.09" y2="-778.87"/>
</g>
<line class="st19" x1="2855" y1="-952.5" x2="2874" y2="-952.5"/>
<line class="st19" x1="2930" y1="-952.5" x2="2949" y2="-952.5"/>
<line class="st19" x1="2822.5" y1="-906" x2="2822.5" y2="-880"/>
<g>
	<line class="st19" x1="2839.5" y1="-923" x2="2839.5" y2="-897"/>
	<line class="st19" x1="2839.5" y1="-889" x2="2839.5" y2="-863"/>
	<line class="st19" x1="2823" y1="-901.5" x2="2843" y2="-901.5"/>
	<line class="st19" x1="2823" y1="-884.5" x2="2843" y2="-884.5"/>
	<line class="st19" x1="2836" y1="-919.5" x2="2862" y2="-919.5"/>
</g>
<g>
	<line class="st19" x1="2857.5" y1="-863" x2="2857.5" y2="-889"/>
	<line class="st19" x1="2857.5" y1="-897" x2="2857.5" y2="-923"/>
	<line class="st19" x1="2874" y1="-884.5" x2="2854" y2="-884.5"/>
	<line class="st19" x1="2874" y1="-901.5" x2="2854" y2="-901.5"/>
	<line class="st19" x1="2861" y1="-866.5" x2="2835" y2="-866.5"/>
</g>
<line class="st19" x1="2874.5" y1="-906" x2="2874.5" y2="-880"/>
<path class="st19" d="M2913.5-999.5c0.23,15.57-24.23,15.57-24,0C2889.27-1015.07,2913.73-1015.07,2913.5-999.5z"/>
<g>
	<path class="st19" d="M2800.5-961.5c0.25,16.87-26.25,16.87-26,0C2774.25-978.37,2800.75-978.37,2800.5-961.5z"/>
	<path class="st19" d="M2817.22-961.82c0.56,38.05-59.21,38.05-58.65,0C2758.02-999.87,2817.78-999.87,2817.22-961.82z"/>
</g>
<g>
	<path class="st19" d="M2981.39-892.46c0.25,16.87-26.25,16.87-26,0C2955.14-909.33,2981.64-909.33,2981.39-892.46z"/>
	<path class="st19" d="M2998.11-892.79c0.56,38.05-59.21,38.05-58.65,0C2938.91-930.83,2998.67-930.83,2998.11-892.79z"/>
</g>
<path class="st19" d="M3023.5-984.5c0.17,11.68-18.17,11.68-18,0C3005.33-996.18,3023.67-996.18,3023.5-984.5z"/>
<path class="st19" d="M3023.5-938.5c0.17,11.68-18.17,11.68-18,0C3005.33-950.18,3023.67-950.18,3023.5-938.5z"/>
<path class="st19" d="M3046.5-961.5c0.17,11.68-18.17,11.68-18,0C3028.33-973.18,3046.67-973.18,3046.5-961.5z"/>
<path class="st19" d="M3000.5-961.5c0.17,11.68-18.17,11.68-18,0C2982.33-973.18,3000.67-973.18,3000.5-961.5z"/>
<path class="st19" d="M2903.5-844.5c-1.78,0.26-2.26-0.22-2-2C2903.28-846.76,2903.76-846.28,2903.5-844.5z"/>
<g>
	<line class="st19" x1="2078.5" y1="-87.5" x2="2078.5" y2="-290.5"/>
	<line class="st19" x1="2026.5" y1="-87" x2="2026.5" y2="-501.5"/>
	<line class="st19" x1="2185.74" y1="-87.47" x2="2185.5" y2="-530.5"/>
	<line class="st19" x1="2078.5" y1="-300" x2="2078.5" y2="-530.5"/>
	<line class="st19" x1="2026.5" y1="-91.5" x2="2190.5" y2="-91.5"/>
	<line class="st19" x1="2023" y1="-119.5" x2="2082.5" y2="-119.5"/>
	<line class="st19" x1="2022.5" y1="-497.5" x2="2078.5" y2="-497.5"/>
	<line class="st19" x1="2074.5" y1="-526.5" x2="2189.5" y2="-526.5"/>
	<line class="st19" x1="2119.5" y1="-522.5" x2="2119.5" y2="-280.5"/>
	<line class="st19" x1="2145.5" y1="-529" x2="2145.5" y2="-418.5"/>
	<line class="st19" x1="2145.34" y1="-392.65" x2="2145.5" y2="-281.5"/>
	<line class="st19" x1="2118.5" y1="-285.5" x2="2149.5" y2="-285.5"/>
	<line class="st19" x1="2145.5" y1="-411" x2="2145.5" y2="-401.5"/>
	<line class="st19" x1="2043.5" y1="-484.5" x2="2043.5" y2="-440.5"/>
	<line class="st19" x1="2061.5" y1="-484.5" x2="2061.5" y2="-440.5"/>
	<line class="st19" x1="2039.5" y1="-480.5" x2="2065.5" y2="-480.5"/>
	<line class="st19" x1="2039" y1="-444.5" x2="2065.5" y2="-444.5"/>
	<line class="st19" x1="2044.17" y1="-176.68" x2="2044.17" y2="-132.68"/>
	<line class="st19" x1="2062.17" y1="-176.68" x2="2062.17" y2="-132.68"/>
	<line class="st19" x1="2040.17" y1="-172.68" x2="2066.17" y2="-172.68"/>
	<line class="st19" x1="2039.67" y1="-136.68" x2="2066.17" y2="-136.68"/>
	<line class="st19" x1="2052.5" y1="-202" x2="2052.5" y2="-185.5"/>
	<circle class="st19" cx="2132.5" cy="-258.5" r="9"/>
	<circle class="st19" cx="2132.5" cy="-154.5" r="13"/>
	<g>
		<line class="st19" x1="2198" y1="-210.5" x2="2314" y2="-210.5"/>
		<line class="st19" x1="2349.5" y1="-362.5" x2="2402.5" y2="-148.5"/>
		<line class="st19" x1="2353.5" y1="-123.5" x2="2404.5" y2="-151.5"/>
		<line class="st19" x1="2290.5" y1="-209.5" x2="2358.5" y2="-123.5"/>
	</g>
	<g>
		<line class="st19" x1="2260" y1="-390.5" x2="2246" y2="-332.5"/>
		<line class="st19" x1="2250" y1="-334.5" x2="2189" y2="-334.5"/>
	</g>
	<g>
		<line class="st19" x1="2365.38" y1="-386.77" x2="2289.38" y2="-420.77"/>
		<line class="st19" x1="2352.79" y1="-361.31" x2="2276.79" y2="-395.31"/>
		<line class="st19" x1="2294.38" y1="-421.77" x2="2280.38" y2="-392.77"/>
		<line class="st19" x1="2362.79" y1="-390.81" x2="2348.79" y2="-361.81"/>
	</g>
	<g>
		<line class="st19" x1="2310.09" y1="-211.87" x2="2351.09" y2="-158.87"/>
		<line class="st19" x1="2357.09" y1="-150.87" x2="2363.09" y2="-143.87"/>
	</g>
	<line class="st19" x1="2213" y1="-317.5" x2="2232" y2="-317.5"/>
	<g>
		<path class="st19" d="M2264.39-257.46c0.25,16.87-26.25,16.87-26,0C2238.14-274.33,2264.64-274.33,2264.39-257.46z"/>
		<path class="st19" d="M2281.11-257.79c0.56,38.05-59.21,38.05-58.65,0C2221.91-295.83,2281.67-295.83,2281.11-257.79z"/>
	</g>
	<path class="st19" d="M2306.5-349.5c0.17,11.68-18.17,11.68-18,0C2288.33-361.18,2306.67-361.18,2306.5-349.5z"/>
	<path class="st19" d="M2306.5-303.5c0.17,11.68-18.17,11.68-18,0C2288.33-315.18,2306.67-315.18,2306.5-303.5z"/>
	<path class="st19" d="M2329.5-326.5c0.17,11.68-18.17,11.68-18,0C2311.33-338.18,2329.67-338.18,2329.5-326.5z"/>
	<path class="st19" d="M2283.5-326.5c0.17,11.68-18.17,11.68-18,0C2265.33-338.18,2283.67-338.18,2283.5-326.5z"/>
	<path class="st19" d="M2186.5-209.5c-1.78,0.26-2.26-0.22-2-2C2186.28-211.76,2186.76-211.28,2186.5-209.5z"/>
	<line class="st19" x1="2185.5" y1="-409.5" x2="2288.5" y2="-409.5"/>
	<line class="st19" x1="2184" y1="-392.5" x2="2287" y2="-392.5"/>
	<path class="st19" d="M2203.5-362c0,1.17,0.02,9.21-6,12.5c-2.8,1.53-7.31,2.25-10,0c-0.92-0.77-1.98-2.18-2-12
		c-0.02-8.39,0.01-12.62,2-14c3.16-2.2,8.84-0.02,12,3C2203.48-368.7,2203.5-363.53,2203.5-362z"/>
</g>
<rect x="887.5" y="12.5" class="st19" width="286" height="343"/>
<line class="st20" x1="923.5" y1="51.5" x2="1138.5" y2="51.5"/>
<line class="st20" x1="923.5" y1="93.5" x2="1138.5" y2="93.5"/>
<rect x="928.5" y="130.5" class="st19" width="106" height="106"/>
<rect x="1069.5" y="130.5" class="st19" width="8" height="106"/>
<rect x="1097.5" y="130.5" class="st19" width="9" height="106"/>
<rect x="1126.5" y="130.5" class="st19" width="8" height="106"/>
<line class="st19" x1="928.5" y1="269.5" x2="1007" y2="269.5"/>
<line class="st19" x1="1019.5" y1="269.5" x2="1067.5" y2="269.5"/>
<line class="st19" x1="1081.5" y1="269.5" x2="1112.5" y2="269.5"/>
<line class="st19" x1="1122.5" y1="269.5" x2="1138.5" y2="269.5"/>
<line class="st19" x1="928.5" y1="286.5" x2="1081.5" y2="286.5"/>
<line class="st19" x1="1091.5" y1="286.5" x2="1138.5" y2="286.5"/>
<line class="st19" x1="928.5" y1="307.5" x2="979.5" y2="307.5"/>
<line class="st19" x1="990.5" y1="307.5" x2="1081.5" y2="307.5"/>
<line class="st19" x1="1091.5" y1="307.5" x2="1138.5" y2="307.5"/>
<line class="st19" x1="928.5" y1="325.5" x2="1138.5" y2="325.5"/>
<line class="st19" x1="886.5" y1="12.5" x2="904.5" y2="-9.5"/>
<line class="st19" x1="1170.53" y1="12.55" x2="1188.53" y2="-9.45"/>
<line class="st19" x1="1173.53" y1="355.55" x2="1191.53" y2="333.55"/>
<path class="st19" d="M1202.5,140.5"/>
<line class="st19" x1="900.5" y1="-7.5" x2="1190.5" y2="-7.5"/>
<line class="st19" x1="1189.5" y1="336.5" x2="1189.5" y2="-9.5"/>
<circle class="st19" cx="981.5" cy="183.5" r="38"/>
<line class="st19" x1="945.5" y1="171.5" x2="1014.5" y2="171.5"/>
<line class="st19" x1="945.5" y1="194.5" x2="1014.5" y2="194.5"/>
<ellipse class="st19" cx="981.5" cy="183.5" rx="13" ry="38"/>
<rect x="1285.47" y="447.12" class="st19" width="286" height="343"/>
<line class="st19" x1="1284.47" y1="447.12" x2="1302.47" y2="425.12"/>
<line class="st19" x1="1568.51" y1="447.17" x2="1586.51" y2="425.17"/>
<line class="st19" x1="1571.51" y1="790.17" x2="1589.51" y2="768.17"/>
<path class="st19" d="M1600.47,575.12"/>
<line class="st19" x1="1298.47" y1="427.12" x2="1588.47" y2="427.12"/>
<line class="st19" x1="1587.47" y1="771.12" x2="1587.47" y2="425.12"/>
<rect x="1298.5" y="431.5" class="st21" width="283" height="13"/>
<rect x="1577.5" y="441.5" class="st22" width="4" height="333"/>
<rect x="1284.5" y="456.5" class="st22" width="278" height="324"/>
<g>
	<line class="st23" x1="1325.47" y1="483.12" x2="1540.47" y2="483.12"/>
	<line class="st23" x1="1325.47" y1="525.12" x2="1540.47" y2="525.12"/>
	<rect x="1330.47" y="562.12" class="st15" width="106" height="106"/>
	<rect x="1471.47" y="562.12" class="st15" width="8" height="106"/>
	<rect x="1499.47" y="562.12" class="st15" width="9" height="106"/>
	<rect x="1528.47" y="562.12" class="st15" width="8" height="106"/>
	<line class="st15" x1="1330.47" y1="701.12" x2="1408.97" y2="701.12"/>
	<line class="st15" x1="1421.47" y1="701.12" x2="1469.47" y2="701.12"/>
	<line class="st15" x1="1483.47" y1="701.12" x2="1514.47" y2="701.12"/>
	<line class="st15" x1="1524.47" y1="701.12" x2="1540.47" y2="701.12"/>
	<line class="st15" x1="1330.47" y1="718.12" x2="1483.47" y2="718.12"/>
	<line class="st15" x1="1493.47" y1="718.12" x2="1540.47" y2="718.12"/>
	<line class="st15" x1="1330.47" y1="739.12" x2="1381.47" y2="739.12"/>
	<line class="st15" x1="1392.47" y1="739.12" x2="1483.47" y2="739.12"/>
	<line class="st15" x1="1493.47" y1="739.12" x2="1540.47" y2="739.12"/>
	<line class="st15" x1="1330.47" y1="757.12" x2="1540.47" y2="757.12"/>
	<circle class="st15" cx="1383.47" cy="615.12" r="38"/>
	<line class="st15" x1="1347.47" y1="603.12" x2="1416.47" y2="603.12"/>
	<line class="st15" x1="1347.47" y1="626.12" x2="1416.47" y2="626.12"/>
	<ellipse class="st15" cx="1383.47" cy="615.12" rx="13" ry="38"/>
</g>
<path class="st19" d="M1790.68,625.34L1790.68,625.34c-22.41,23.27-59.44,23.97-82.72,1.56l0,0c-23.27-22.41-23.97-59.44-1.56-82.72
	l0,0c22.41-23.27,59.44-23.97,82.72-1.56v0C1812.39,565.03,1813.09,602.06,1790.68,625.34z"/>
<rect x="1843.61" y="634.21" transform="matrix(0.6936 -0.7203 0.7203 0.6936 76.1235 1541.6749)" class="st19" width="13.55" height="94.28"/>
<line class="st19" x1="1789.5" y1="622.5" x2="1814.5" y2="646.5"/>
<line class="st19" x1="1710.5" y1="556.5" x2="1751.76" y2="556.5"/>
<line class="st19" x1="1756.92" y1="556.5" x2="1786.5" y2="556.5"/>
<line class="st19" x1="1710.5" y1="569.39" x2="1735.43" y2="569.39"/>
<line class="st19" x1="1738.87" y1="569.39" x2="1787" y2="569.39"/>
<line class="st19" x1="1710.5" y1="582.29" x2="1753.48" y2="582.29"/>
<line class="st19" x1="1787" y1="582.29" x2="1773.25" y2="582.29"/>
<line class="st19" x1="1710.5" y1="594.32" x2="1747.46" y2="594.32"/>
<line class="st19" x1="1750.9" y1="594.32" x2="1787" y2="594.32"/>
<line class="st19" x1="1710.5" y1="608.5" x2="1786.5" y2="608.5"/>
<line class="st19" x1="1771.1" y1="582.29" x2="1757.35" y2="582.29"/>
<polygon class="st24" points="2166.15,455.24 2381.65,828.5 1950.65,828.5 "/>
<rect x="2162" y="564" class="st24" width="8" height="177"/>
<rect x="2162.19" y="781" class="st24" width="8" height="8.07"/>
<rect x="2745" y="747" class="st25" width="50" height="50"/>
<rect x="2679" y="809" class="st25" width="50" height="50"/>
<rect x="2613" y="743" class="st25" width="50" height="50"/>
<rect x="2811" y="681" class="st25" width="50" height="50"/>
<rect x="2481" y="611" class="st25" width="50" height="50"/>
<rect x="2877" y="615" class="st25" width="50" height="50"/>
<rect x="2481" y="548" class="st25" width="50" height="50"/>
<rect x="2877" y="552" class="st25" width="50" height="50"/>
<rect x="2547" y="677" class="st25" width="50" height="50"/>
<rect x="2481" y="485" class="st25" width="50" height="50"/>
<rect x="2877" y="489" class="st25" width="50" height="50"/>
<rect x="2547" y="421" class="st25" width="50" height="50"/>
<rect x="2811" y="425" class="st25" width="50" height="50"/>
<rect x="2745" y="425" class="st25" width="50" height="50"/>
<rect x="2613" y="421" class="st25" width="50" height="50"/>
<rect x="2679" y="485" class="st25" width="50" height="50"/>
<rect x="3312.27" y="336.5" transform="matrix(0.7071 -0.7071 0.7071 0.7071 674.7573 2579.364)" class="st25" width="277.36" height="277.36"/>
<rect x="3487.13" y="505.52" transform="matrix(0.7071 -0.7071 0.7071 0.7071 602.3036 2753.9126)" class="st25" width="276.58" height="288.79"/>
<rect x="3653.36" y="353.82" transform="matrix(0.7071 -0.7071 0.7071 0.7071 762.4147 2825.6238)" class="st25" width="277.36" height="277.36"/>
<rect x="2443" y="1269" class="st25" width="50" height="50"/>
<rect x="2377" y="1331" class="st25" width="50" height="50"/>
<rect x="2311" y="1265" class="st25" width="50" height="50"/>
<rect x="2509" y="1203" class="st25" width="50" height="50"/>
<rect x="2179" y="1133" class="st25" width="50" height="50"/>
<rect x="2575" y="1137" class="st25" width="50" height="50"/>
<rect x="2179" y="1070" class="st25" width="50" height="50"/>
<rect x="2575" y="1074" class="st25" width="50" height="50"/>
<rect x="2245" y="1199" class="st25" width="50" height="50"/>
<rect x="1898" y="943" class="st25" width="50" height="50"/>
<rect x="2245" y="1000" class="st25" width="50" height="50"/>
<rect x="2509" y="1004" class="st25" width="50" height="50"/>
<rect x="2443" y="1004" class="st25" width="50" height="50"/>
<rect x="2311" y="1000" class="st25" width="50" height="50"/>
<rect x="2377" y="1064" class="st25" width="50" height="50"/>
<g>
	<rect x="2997" y="1072" class="st26" width="25" height="25"/>
	<rect x="3022" y="1047" class="st26" width="50" height="25"/>
	<rect x="3072" y="1072" class="st26" width="25" height="25"/>
	<rect x="2972" y="1097" class="st26" width="25" height="74"/>
	<rect x="3022" y="1196" class="st26" width="25" height="25"/>
	<rect x="2997" y="1171" class="st26" width="25" height="25"/>
	<rect x="3097" y="1097" class="st26" width="25" height="25"/>
	<rect x="3097" y="1271" class="st26" width="25" height="25"/>
	<g>
		<rect x="3047" y="1221" class="st26" width="25" height="25"/>
		<rect x="3072" y="1246" class="st26" width="25" height="25"/>
	</g>
	<rect x="3197" y="1072" transform="matrix(-1 -4.489266e-11 4.489266e-11 -1 6419 2169)" class="st26" width="25" height="25"/>
	<rect x="3147" y="1047" transform="matrix(-1 -4.489266e-11 4.489266e-11 -1 6344 2119)" class="st26" width="50" height="25"/>
	<rect x="3122" y="1072" transform="matrix(-1 -4.489266e-11 4.489266e-11 -1 6269 2169)" class="st26" width="25" height="25"/>
	<rect x="3222" y="1097" transform="matrix(-1 -4.489266e-11 4.489266e-11 -1 6469 2268)" class="st26" width="25" height="74"/>
	<rect x="3172" y="1196" transform="matrix(-1 -4.489266e-11 4.489266e-11 -1 6369 2417)" class="st26" width="25" height="25"/>
	<rect x="3197" y="1171" transform="matrix(-1 -4.489266e-11 4.489266e-11 -1 6419 2367)" class="st26" width="25" height="25"/>
	<g>
		<rect x="3147" y="1221" transform="matrix(-1 -4.489266e-11 4.489266e-11 -1 6319 2467)" class="st26" width="25" height="25"/>
		<rect x="3122" y="1246" transform="matrix(-1 -4.489266e-11 4.489266e-11 -1 6269 2517)" class="st26" width="25" height="25"/>
	</g>
</g>
<g>
	<rect x="3293.65" y="1235.46" class="st26" width="25" height="25"/>
	<rect x="3318.65" y="1210.46" class="st26" width="50" height="25"/>
	<rect x="3368.65" y="1235.46" class="st26" width="25" height="25"/>
	<rect x="3268.65" y="1260.46" class="st26" width="25" height="98.54"/>
	<rect x="3319" y="1384" class="st26" width="25" height="25"/>
	<rect x="3294" y="1359" class="st26" width="25" height="25"/>
	<rect x="3393.65" y="1260.46" class="st26" width="25" height="25"/>
	<rect x="3394" y="1459" class="st26" width="25" height="25"/>
	<g>
		<rect x="3344" y="1409" class="st26" width="25" height="25"/>
		<rect x="3369" y="1434" class="st26" width="25" height="25"/>
	</g>
	
		<rect x="3493.65" y="1235.46" transform="matrix(-1 -4.489266e-11 4.489266e-11 -1 7012.2979 2495.9148)" class="st26" width="25" height="25"/>
	
		<rect x="3443.65" y="1210.46" transform="matrix(-1 -4.489266e-11 4.489266e-11 -1 6937.2979 2445.9148)" class="st26" width="50" height="25"/>
	
		<rect x="3418.65" y="1235.46" transform="matrix(-1 -4.489266e-11 4.489266e-11 -1 6862.2979 2495.9148)" class="st26" width="25" height="25"/>
	
		<rect x="3518.65" y="1260.46" transform="matrix(-1 -5.980828e-11 5.980828e-11 -1 7062.2979 2619.4575)" class="st26" width="25" height="98.54"/>
	<rect x="3469" y="1384" transform="matrix(-1 -4.489266e-11 4.489266e-11 -1 6963 2793)" class="st26" width="25" height="25"/>
	<rect x="3494" y="1359" transform="matrix(-1 -4.489266e-11 4.489266e-11 -1 7013 2743)" class="st26" width="25" height="25"/>
	<g>
		<rect x="3444" y="1409" transform="matrix(-1 -4.489266e-11 4.489266e-11 -1 6913 2843)" class="st26" width="25" height="25"/>
		<rect x="3419" y="1434" transform="matrix(-1 -4.489266e-11 4.489266e-11 -1 6863 2893)" class="st26" width="25" height="25"/>
	</g>
	<g>
		<rect x="3687" y="1158" class="st26" width="285" height="247"/>
		<line class="st26" x1="3687" y1="1209" x2="3972" y2="1209"/>
		<g>
			<rect x="3738" y="1122" class="st27" width="30" height="64"/>
			<rect x="3891" y="1122" class="st28" width="30" height="64"/>
		</g>
		<g>
			<rect x="3738" y="1254" class="st28" width="37" height="37"/>
			<rect x="3773" y="1254" class="st26" width="37" height="37"/>
			<rect x="3810" y="1254" class="st26" width="37" height="37"/>
			<rect x="3847" y="1254" class="st26" width="37" height="37"/>
			<rect x="3884" y="1254" class="st26" width="37" height="37"/>
			<g>
				<rect x="3738" y="1291" class="st26" width="37" height="37"/>
				<rect x="3773" y="1291" class="st26" width="37" height="37"/>
				<rect x="3810" y="1291" class="st26" width="37" height="37"/>
				<rect x="3847" y="1291" class="st26" width="37" height="37"/>
				<rect x="3884" y="1291" class="st26" width="37" height="37"/>
			</g>
			<rect x="3738" y="1328" class="st26" width="37" height="37"/>
			<rect x="3773" y="1328" class="st26" width="37" height="37"/>
			<rect x="3810" y="1328" class="st26" width="37" height="37"/>
			<rect x="3847" y="1328" class="st26" width="37" height="37"/>
			<rect x="3884" y="1328" class="st28" width="37" height="37"/>
		</g>
	</g>
	<line class="st29" x1="897.01" y1="-227" x2="896.51" y2="-454.5"/>
	
		<rect x="972.87" y="-478.96" transform="matrix(0.7071 -0.7071 0.7071 0.7071 544.2205 582.5958)" class="st30" width="5" height="226.65"/>
	
		<rect x="815.82" y="-479.22" transform="matrix(-0.7071 -0.7071 0.7071 -0.7071 1655.6841 -45.9805)" class="st30" width="5" height="226.65"/>
	
		<rect x="972.51" y="-575.01" transform="matrix(0.7071 -0.7071 0.7071 0.7071 612.0309 554.2154)" class="st30" width="5" height="226.65"/>
	
		<rect x="815.47" y="-575.27" transform="matrix(-0.7071 -0.7071 0.7071 -0.7071 1722.9951 -210.1883)" class="st30" width="5" height="226.65"/>
	<rect x="38" y="-574" class="st31" width="2" height="278"/>
	<rect x="23" y="-647" class="st30" width="30" height="107"/>
	<line class="st32" x1="1" y1="-298" x2="0.5" y2="-429.02"/>
	<line class="st32" x1="66.09" y1="-400.85" x2="66.09" y2="-516.89"/>
	<line class="st32" x1="8" y1="-435" x2="8.09" y2="-508.89"/>
	<line class="st32" x1="73.09" y1="-285.85" x2="73" y2="-386"/>
	<rect x="13" y="-656" class="st33" width="50" height="126"/>
	<line class="st32" x1="-13.87" y1="-368.79" x2="-13.87" y2="-484.83"/>
	<line class="st32" x1="111" y1="-704" x2="72.78" y2="-663.34"/>
	<line class="st32" x1="137" y1="-656" x2="77.9" y2="-639.71"/>
	<line class="st32" x1="119.23" y1="-502.57" x2="74.34" y2="-535.73"/>
	<line class="st32" x1="138" y1="-552" x2="77.86" y2="-568.47"/>
	<line class="st32" x1="151" y1="-603" x2="80.89" y2="-603.15"/>
	<g>
		<line class="st32" x1="-36.93" y1="-706.78" x2="1.29" y2="-666.12"/>
		<line class="st32" x1="-62.93" y1="-658.78" x2="-3.83" y2="-642.48"/>
		<line class="st32" x1="-45.17" y1="-505.35" x2="-0.28" y2="-538.5"/>
		<line class="st32" x1="-63.93" y1="-554.78" x2="-3.8" y2="-571.25"/>
		<line class="st32" x1="-76.93" y1="-605.78" x2="-6.82" y2="-605.92"/>
	</g>
	<line class="st32" x1="85.02" y1="-348.21" x2="85.02" y2="-464.25"/>
	<rect x="-368" y="-560" class="st31" width="2" height="278"/>
	<rect x="-382.01" y="-632.68" class="st30" width="30" height="107"/>
	<line class="st32" x1="-404.01" y1="-283.68" x2="-404.51" y2="-414.7"/>
	<line class="st32" x1="-338.93" y1="-386.53" x2="-338.93" y2="-502.57"/>
	<line class="st32" x1="-397.01" y1="-420.68" x2="-396.93" y2="-494.57"/>
	<line class="st32" x1="-331.93" y1="-271.53" x2="-332.01" y2="-371.68"/>
	<rect x="-392.01" y="-641.68" class="st33" width="50" height="126"/>
	<line class="st32" x1="-423.88" y1="-341.47" x2="-423.88" y2="-457.5"/>
	<line class="st32" x1="-313.99" y1="-333.89" x2="-313.99" y2="-449.93"/>
	<line class="st32" x1="-415.38" y1="-496.62" x2="-415.38" y2="-612.66"/>
	<line class="st32" x1="-293.38" y1="-464.62" x2="-293" y2="-569"/>
	<line class="st32" x1="-320.57" y1="-555.45" x2="-320" y2="-639"/>
	<line class="st32" x1="4.99" y1="-722.16" x2="20.84" y2="-668.65"/>
	<line class="st32" x1="73.84" y1="-720.16" x2="57.99" y2="-666.65"/>
</g>
<line class="st34" x1="-1111" y1="-696" x2="-1111" y2="-763"/>
<g>
	<line class="st35" x1="-1115" y1="-759" x2="-1020" y2="-759"/>
	<line class="st35" x1="-1025" y1="-763" x2="-1025" y2="-695"/>
	<circle class="st35" cx="-1069" cy="-803" r="40"/>
</g>
<rect x="-1239.5" y="-629.5" class="st36" width="89" height="89"/>
<rect x="-1102.5" y="-629.5" class="st36" width="89" height="89"/>
<rect x="-1102.5" y="-502.5" class="st36" width="89" height="89"/>
<rect x="-1239.5" y="-502.5" class="st36" width="89" height="89"/>
<line class="st34" x1="-1245" y1="-697" x2="-1245" y2="-764"/>
<g>
	<line class="st35" x1="-1249" y1="-760" x2="-1154" y2="-760"/>
	<line class="st35" x1="-1159" y1="-764" x2="-1159" y2="-696"/>
	<circle class="st35" cx="-1203" cy="-804" r="40"/>
</g>
<line class="st37" x1="-1188.07" y1="-684.53" x2="-1188.07" y2="-768.52"/>
<line class="st37" x1="-1193.09" y1="-763.5" x2="-1074" y2="-763.5"/>
<line class="st37" x1="-1080.27" y1="-768.52" x2="-1080.27" y2="-683.28"/>
<circle class="st37" cx="-1135.42" cy="-818.66" r="50.14"/>
<rect x="-1031" y="-990" class="st38" width="113" height="59.19"/>
<line class="st39" x1="-996" y1="-933" x2="-1018.51" y2="-909.49"/>
<line class="st39" x1="-1019" y1="-933" x2="-1019" y2="-907"/>
<rect x="-996" y="-976.07" transform="matrix(-1 -5.327662e-11 5.327662e-11 -1 -1896.7766 -1892.9565)" class="st38" width="95.22" height="59.19"/>
<line class="st39" x1="-935.78" y1="-919.07" x2="-913.27" y2="-895.57"/>
<line class="st39" x1="-912.78" y1="-919.07" x2="-912.78" y2="-893.07"/>
<g>
	<line class="st32" x1="-925.06" y1="-682.63" x2="-925.06" y2="-749.63"/>
	<g>
		<line class="st32" x1="-929.06" y1="-745.63" x2="-834.06" y2="-745.63"/>
		<line class="st32" x1="-839.06" y1="-749.63" x2="-839.06" y2="-681.63"/>
		<circle class="st32" cx="-883.06" cy="-789.63" r="40"/>
	</g>
</g>
<g>
	<line class="st40" x1="-887" y1="-663" x2="-887" y2="-730"/>
	<g>
		<line class="st40" x1="-891" y1="-726" x2="-796" y2="-726"/>
		<line class="st40" x1="-801" y1="-730" x2="-801" y2="-662"/>
		<circle class="st40" cx="-845" cy="-770" r="40"/>
	</g>
</g>
<polygon class="st40" points="-809,-427 -809,-318.21 -725,-341.47 -725,-453.02 "/>
<polygon class="st40" points="-814,-426.66 -814,-317.87 -898,-341.13 -898,-452.68 "/>
<path class="st40" d="M-612-881"/>
<polygon class="st41" points="-762,-884 -762,-847.74 -729,-830 -694,-846 -694,-884 -728,-900.51 "/>
<g>
	<polyline class="st41" points="-762,-884 -728.5,-870.5 -694,-884 	"/>
</g>
<line class="st42" x1="-728.5" y1="-870.5" x2="-728.5" y2="-830.5"/>
<line class="st42" x1="-742.95" y1="-892.57" x2="-710.5" y2="-877.5"/>
<rect x="-728" y="-705" class="st43" width="122" height="84"/>
<rect x="-743" y="-741" class="st43" width="151" height="36"/>
<path class="st44" d="M-589-741c-51.67,0-103.33,0-155,0c4.16-7.67,8.32-15.33,12.48-23c41.61,0,83.22,0,124.83,0
	C-600.79-756.33-594.89-748.67-589-741z"/>
<path class="st43" d="M-576-769"/>
<path class="st43" d="M-563-758"/>
<rect x="-688" y="-703" class="st44" width="41" height="19"/>
<line class="st45" x1="-339" y1="-838" x2="-339" y2="-719"/>
<line class="st45" x1="-232" y1="-767" x2="-339" y2="-719"/>
<line class="st45" x1="-446" y1="-766" x2="-339" y2="-719"/>
<line class="st45" x1="-446" y1="-882" x2="-446" y2="-766"/>
<line class="st45" x1="-232" y1="-882" x2="-232" y2="-767"/>
<line class="st45" x1="-446" y1="-882" x2="-339" y2="-835"/>
<line class="st45" x1="-232" y1="-882" x2="-339" y2="-835"/>
<line class="st45" x1="-339" y1="-925" x2="-446" y2="-882"/>
<line class="st45" x1="-232" y1="-882" x2="-339" y2="-925"/>
<line class="st46" x1="323.5" y1="-572.5" x2="323.5" y2="-649.5"/>
<line class="st46" x1="323.5" y1="-562" x2="323.5" y2="-548.5"/>
<circle class="st47" cx="415.16" cy="-600.76" r="58.76"/>
<line class="st47" x1="359.5" y1="-619.31" x2="466.18" y2="-619.31"/>
<line class="st47" x1="359.5" y1="-583.75" x2="466.18" y2="-583.75"/>
<ellipse class="st47" cx="415.16" cy="-600.76" rx="20.1" ry="58.76"/>
<rect x="-786" y="-1001" class="st48" width="140" height="75"/>
<line class="st48" x1="-775.5" y1="-985.5" x2="-756.5" y2="-985.5"/>
<line class="st49" x1="-775.5" y1="-974.5" x2="-660.5" y2="-974.5"/>
<line class="st49" x1="-775" y1="-961.5" x2="-660" y2="-961.5"/>
<line class="st49" x1="-775" y1="-935.5" x2="-660" y2="-935.5"/>
<line class="st49" x1="-749.5" y1="-961" x2="-749.5" y2="-936"/>
<line class="st49" x1="-686.5" y1="-961" x2="-686.5" y2="-936"/>
<g>
	<polygon class="st50" points="-765.81,-1003 -753.18,-1003 -745.1,-1017 -757.72,-1017 	"/>
	<polygon class="st50" points="-689.34,-1017 -701.25,-1017 -709.34,-1003 -697.42,-1003 	"/>
	<polygon class="st50" points="-645.02,-1017 -653.1,-1003 -639.5,-1003 -639.5,-1017 	"/>
	<polygon class="st50" points="-717.1,-1017 -729.25,-1017 -737.34,-1003 -725.18,-1003 	"/>
	<polygon class="st50" points="-773.57,-1017 -792,-1017 -792,-1003 -781.65,-1003 	"/>
	<polygon class="st50" points="-660.87,-1017 -673.49,-1017 -681.57,-1003 -668.95,-1003 	"/>
</g>
<g>
	<polygon class="st50" points="-760.05,-1020.62 -747.82,-1023.73 -759.1,-1035.3 -771.34,-1032.2 	"/>
	<polygon class="st50" points="-650.82,-1048.38 -640.79,-1050.93 -644.24,-1064.5 -662.1,-1059.96 	"/>
	<polygon class="st50" points="-732.19,-1042.14 -743.74,-1039.21 -732.46,-1027.63 -720.91,-1030.57 	"/>
	<polygon class="st50" points="-786.69,-1028.29 -792.04,-1026.93 -788.59,-1013.36 -775.41,-1016.71 	"/>
	<polygon class="st50" points="-677.46,-1056.05 -689.7,-1052.94 -678.41,-1041.37 -666.18,-1044.47 	"/>
	<polygon class="st50" points="-705.05,-1049.04 -716.83,-1046.05 -705.55,-1034.47 -693.77,-1037.46 	"/>
</g>
<rect x="-786" y="-1026" class="st50" width="19" height="18"/>
<rect x="-576" y="-1010" class="st51" width="109" height="72"/>
<rect x="-576" y="-1027" class="st51" width="109" height="17"/>
<polyline class="st51" points="-560,-997 -540,-977 -560,-957 "/>
<line class="st51" x1="-529" y1="-957" x2="-482" y2="-957"/>
<g>
	<rect x="3847" y="-1392" width="1170" height="315"/>
	<text transform="matrix(1 0 0 1 4297.7021 -1193.4043)" class="st0" style="font-family:'PixelFont-7'; font-size:113px;">Шапка</text>
</g>
<g>
	<rect x="3847" y="-1077" class="st52" width="1170" height="183"/>
	<text transform="matrix(1 0 0 1 4091.5742 -954.3193)" style="font-family:'PixelFont-7'; font-size:113px;">Боковое меню</text>
</g>
<g>
	<rect x="3847" y="-894" class="st53" width="1170" height="644"/>
	<text transform="matrix(1 0 0 1 4243.915 -555.3828)" style="font-family:'PixelFont-7'; font-size:113px;">Контент</text>
</g>
<g>
	<rect x="3847" y="-250" class="st54" width="1170" height="352"/>
	<text transform="matrix(1 0 0 1 4250.0215 -22.8301)" style="font-family:'PixelFont-7'; font-size:113px;">Подвал</text>
</g>
<line class="st55" x1="5103.5" y1="-635.5" x2="5511.5" y2="-635.5"/>
<g>
	<rect x="5863" y="-1387" width="1170" height="315"/>
	<text transform="matrix(1 0 0 1 6313.7021 -1188.4043)" class="st0" style="font-family:'PixelFont-7'; font-size:113px;">Шапка</text>
</g>
<g>
	
		<rect x="5278.5" y="-667.5" transform="matrix(5.242391e-11 -1 1 5.242391e-11 6355.5 5203.4995)" class="st52" width="1002" height="183"/>
	
		<text transform="matrix(4.489659e-11 -0.8564 1 3.844990e-11 5810.6807 -284.457)" style="font-family:'PixelFont-7'; font-size:113px;">Боковое меню</text>
</g>
<g>
	<rect x="5863" y="-1070" class="st53" width="1170" height="644"/>
	<text transform="matrix(1 0 0 1 6259.915 -731.3828)" style="font-family:'PixelFont-7'; font-size:113px;">Контент</text>
</g>
<g>
	<rect x="5863" y="-426" class="st54" width="1170" height="352"/>
	<text transform="matrix(1 0 0 1 6266.0215 -198.8301)" style="font-family:'PixelFont-7'; font-size:113px;">Подвал</text>
</g>
<rect x="-1328" y="-42" class="st56" width="113" height="132"/>
<rect x="-1328" y="-120" class="st56" width="339" height="90"/>
<rect x="-1102" y="-42" class="st56" width="113" height="132"/>
<polygon class="st56" points="-1328,-120 -1158.5,-217.11 -991.34,-120 "/>
<rect x="-1400.3" y="-219.19" transform="matrix(0.866 -0.5 0.5 0.866 -67.3571 -660.7662)" class="st56" width="267.23" height="29"/>
<rect x="-1183.44" y="-219.56" transform="matrix(-0.866 -0.5 0.5 -0.866 -1856.4772 -907.5692)" class="st56" width="267.23" height="29"/>
<rect x="-1036" y="-298" class="st56" width="48" height="116"/>
<rect x="438.86" y="19.65" class="st19" width="286" height="343"/>
<line class="st20" x1="474.86" y1="58.65" x2="689.86" y2="58.65"/>
<line class="st20" x1="475" y1="88" x2="690" y2="88"/>
<rect x="623.5" y="277.5" transform="matrix(4.502005e-11 -1 1 4.502005e-11 297 958)" class="st19" width="8" height="106"/>
<rect x="623" y="249" transform="matrix(4.486906e-11 -1 1 4.486906e-11 325.5 929.5)" class="st19" width="9" height="106"/>
<rect x="623.5" y="220.5" transform="matrix(4.479268e-11 -1 1 4.479268e-11 354 901)" class="st19" width="8" height="106"/>
<line class="st19" x1="474.85" y1="171.65" x2="553.35" y2="171.66"/>
<line class="st19" x1="565.86" y1="171.65" x2="613.86" y2="171.65"/>
<line class="st19" x1="627.86" y1="171.65" x2="658.86" y2="171.65"/>
<line class="st19" x1="668.86" y1="171.65" x2="684.86" y2="171.65"/>
<line class="st19" x1="474.86" y1="188.65" x2="627.86" y2="188.65"/>
<line class="st19" x1="637.86" y1="188.65" x2="684.86" y2="188.65"/>
<line class="st19" x1="474.86" y1="209.65" x2="525.86" y2="209.65"/>
<line class="st19" x1="536.86" y1="209.65" x2="627.86" y2="209.65"/>
<line class="st19" x1="637.86" y1="209.65" x2="684.86" y2="209.65"/>
<line class="st19" x1="474.86" y1="227.65" x2="684.86" y2="227.65"/>
<line class="st19" x1="437.86" y1="19.65" x2="455.86" y2="-2.35"/>
<line class="st19" x1="721.89" y1="19.71" x2="739.89" y2="-2.29"/>
<line class="st19" x1="724.89" y1="362.71" x2="742.89" y2="340.71"/>
<path class="st19" d="M753.86,147.65"/>
<line class="st19" x1="451.86" y1="-0.35" x2="741.86" y2="-0.35"/>
<line class="st19" x1="740.86" y1="343.65" x2="740.86" y2="-2.35"/>
<rect x="475" y="264" class="st56" width="51" height="74"/>
<line class="st20" x1="551" y1="121" x2="690" y2="121"/>
<rect x="19.5" y="17.5" class="st19" width="286" height="343"/>
<line class="st20" x1="59.37" y1="51.64" x2="274.37" y2="51.64"/>
<line class="st20" x1="59.51" y1="80.98" x2="274.51" y2="80.98"/>
<rect x="208.01" y="270.48" transform="matrix(4.502005e-11 -1 1 4.502005e-11 -111.4728 535.4907)" class="st19" width="8" height="106"/>
<rect x="207.51" y="241.98" transform="matrix(4.486906e-11 -1 1 4.486906e-11 -82.9728 506.9907)" class="st19" width="9" height="106"/>
<rect x="208.01" y="213.48" transform="matrix(4.479268e-11 -1 1 4.479268e-11 -54.4728 478.4907)" class="st19" width="8" height="106"/>
<line class="st19" x1="59.36" y1="164.63" x2="137.86" y2="164.64"/>
<line class="st19" x1="150.37" y1="164.64" x2="198.37" y2="164.64"/>
<line class="st19" x1="212.37" y1="164.64" x2="243.37" y2="164.64"/>
<line class="st19" x1="253.37" y1="164.64" x2="269.37" y2="164.64"/>
<line class="st19" x1="59.37" y1="181.64" x2="212.37" y2="181.64"/>
<line class="st19" x1="222.37" y1="181.64" x2="269.37" y2="181.64"/>
<line class="st19" x1="59.37" y1="202.64" x2="110.37" y2="202.64"/>
<line class="st19" x1="121.37" y1="202.64" x2="212.37" y2="202.64"/>
<line class="st19" x1="222.37" y1="202.64" x2="269.37" y2="202.64"/>
<line class="st19" x1="59.37" y1="220.64" x2="269.37" y2="220.64"/>
<rect x="59.51" y="256.98" class="st56" width="51" height="74"/>
<line class="st20" x1="60" y1="114" x2="199" y2="114"/>
</svg>
