<?xml version="1.0" encoding="utf-8"?>
<!-- Generator: Adobe Illustrator 25.4.1, SVG Export Plug-In . SVG Version: 6.00 Build 0)  -->
<svg version="1.1" id="Слой_1" xmlns="http://www.w3.org/2000/svg" xmlns:xlink="http://www.w3.org/1999/xlink" x="0px" y="0px"
	 viewBox="0 0 1014 228" style="enable-background:new 0 0 1014 228;" xml:space="preserve">
<style type="text/css">
	.st0{fill:#FFFFFF;}
	.st1{fill:none;stroke:#000000;stroke-width:9;stroke-miterlimit:10;}
	.st2{fill:none;stroke:#000000;stroke-width:5;stroke-miterlimit:10;}
	.st3{fill:#FFFFFF;stroke:#000000;stroke-width:9;stroke-miterlimit:10;}
	.st4{fill:none;stroke:#000000;stroke-width:7;stroke-miterlimit:10;}
	.st5{stroke:#000000;stroke-width:3;stroke-miterlimit:10;}
	.st6{fill:#FFFFFF;stroke:#000000;stroke-width:4;stroke-miterlimit:10;}
	.st7{stroke:#000000;stroke-width:2;stroke-miterlimit:10;}
	.st8{fill:#FFFFFF;stroke:#000000;stroke-width:2;stroke-miterlimit:10;}
	.st9{stroke:#000000;stroke-miterlimit:10;}
	.st10{fill:none;stroke:#000000;stroke-miterlimit:10;}
	.st11{fill:#FFFFFF;stroke:#000000;stroke-miterlimit:10;}
	.st12{stroke:#FFFFFF;stroke-width:9;stroke-miterlimit:10;}
	.st13{fill:none;stroke:#FFFFFF;stroke-width:7;stroke-miterlimit:10;}
	.st14{fill:#FFFFFF;stroke:#FFFFFF;stroke-width:3;stroke-miterlimit:10;}
	.st15{fill:none;stroke:#FFFFFF;stroke-width:9;stroke-miterlimit:10;}
	.st16{fill:none;stroke:#FFFFFF;stroke-width:5;stroke-miterlimit:10;}
	.st17{fill:#FFFFFF;stroke:#FFFFFF;stroke-miterlimit:10;}
	.st18{fill:none;stroke:#FFFFFF;stroke-miterlimit:10;}
	.st19{stroke:#FFFFFF;stroke-miterlimit:10;}
	.st20{stroke:#000000;stroke-width:6;stroke-miterlimit:10;}
	.st21{fill:none;stroke:#000000;stroke-width:6;stroke-miterlimit:10;}
</style>
<g>
	<g>
		<rect x="-351.5" y="75.5" class="st0" width="309" height="137"/>
		<path d="M-47,80v128h-300V80H-47 M-38,71h-318v146h318V71L-38,71z"/>
	</g>
	<g>
		<line class="st1" x1="-196.5" y1="215" x2="-196.5" y2="256"/>
	</g>
	<line class="st2" x1="-270.5" y1="255.5" x2="-119" y2="255.5"/>
</g>
<g>
	<rect x="-504.5" y="150.13" class="st3" width="88.33" height="197.25"/>
	<line class="st4" x1="-414.55" y1="349" x2="-364.69" y2="327.32"/>
	<line class="st4" x1="-413.46" y1="148.5" x2="-364.69" y2="164.76"/>
	<line class="st4" x1="-366.86" y1="161.51" x2="-366.86" y2="330.58"/>
	
		<rect x="-416.08" y="315.91" transform="matrix(0.934 -0.3573 0.3573 0.934 -142.0867 -118.4741)" class="st5" width="48.77" height="18.82"/>
	
		<rect x="-414.59" y="307.36" transform="matrix(0.9881 -0.1538 0.1538 0.9881 -52.836 -56.4747)" class="st5" width="46.19" height="11.92"/>
	
		<rect x="-414.6" y="156.25" transform="matrix(0.9487 0.3162 -0.3162 0.9487 30.5297 131.9524)" class="st5" width="46.61" height="7.59"/>
	<rect x="-411.29" y="259.05" class="st5" width="42.27" height="9.75"/>
	<rect x="-375.53" y="191.85" class="st5" width="5.42" height="31.43"/>
	<rect x="-449.23" y="169.09" class="st5" width="10.84" height="45.52"/>
	<rect x="-411.29" y="159.34" class="st5" width="29.58" height="89"/>
	<rect x="-412.38" y="275.3" class="st5" width="42.27" height="9.75"/>
	<rect x="-494.75" y="162.59" class="st5" width="2.17" height="7.59"/>
	<rect x="-494.75" y="175.59" class="st5" width="2.17" height="7.59"/>
</g>
<g>
	<rect x="-62" y="301" class="st6" width="25" height="39"/>
	<rect x="-52" y="307" class="st7" width="5" height="12"/>
	<rect x="-61" y="302" class="st8" width="5" height="13"/>
	<rect x="-43" y="302" class="st8" width="5" height="13"/>
	<rect x="-64" y="316" class="st6" width="1" height="6"/>
	<rect x="-64" y="327" class="st6" width="1" height="6"/>
</g>
<g>
	<rect x="-206" y="270" width="4" height="13"/>
	<rect x="-50" y="274" width="3" height="25"/>
	<rect x="-370" y="270" width="323" height="4"/>
	<rect x="-294" y="212" width="4" height="59"/>
</g>
<g>
	<rect x="-335.5" y="285.5" class="st2" width="258" height="74"/>
	<rect x="-321" y="343" width="34" height="8"/>
	<rect x="-275" y="343" width="134" height="8"/>
	<rect x="-132" y="343" width="34" height="8"/>
	<g>
		<rect x="-317.5" y="297.5" class="st2" width="11" height="4"/>
		<rect x="-297.5" y="297.5" class="st2" width="11" height="4"/>
		<rect x="-317.5" y="309.5" class="st2" width="11" height="4"/>
		<rect x="-297.5" y="309.5" class="st2" width="11" height="4"/>
		<rect x="-317.5" y="321.5" class="st2" width="11" height="4"/>
		<rect x="-297.5" y="321.5" class="st2" width="11" height="4"/>
	</g>
	<g>
		<rect x="-130.5" y="297.5" class="st2" width="11" height="4"/>
		<rect x="-110.5" y="297.5" class="st2" width="11" height="4"/>
		<rect x="-130.5" y="309.5" class="st2" width="11" height="4"/>
		<rect x="-110.5" y="309.5" class="st2" width="11" height="4"/>
		<rect x="-130.5" y="321.5" class="st2" width="11" height="4"/>
		<rect x="-110.5" y="321.5" class="st2" width="11" height="4"/>
	</g>
	<g>
		<rect x="-272.5" y="297.5" class="st2" width="11" height="4"/>
		<rect x="-252.5" y="297.5" class="st2" width="11" height="4"/>
		<rect x="-272.5" y="309.5" class="st2" width="11" height="4"/>
		<rect x="-252.5" y="309.5" class="st2" width="11" height="4"/>
		<rect x="-272.5" y="321.5" class="st2" width="11" height="4"/>
		<rect x="-252.5" y="321.5" class="st2" width="11" height="4"/>
		<rect x="-233.5" y="297.5" class="st2" width="11" height="4"/>
		<rect x="-213.5" y="297.5" class="st2" width="11" height="4"/>
		<rect x="-233.5" y="309.5" class="st2" width="11" height="4"/>
		<rect x="-213.5" y="309.5" class="st2" width="11" height="4"/>
		<rect x="-233.5" y="321.5" class="st2" width="11" height="4"/>
		<rect x="-213.5" y="321.5" class="st2" width="11" height="4"/>
		<rect x="-194.5" y="297.5" class="st2" width="11" height="4"/>
		<rect x="-174.5" y="297.5" class="st2" width="11" height="4"/>
		<rect x="-194.5" y="309.5" class="st2" width="11" height="4"/>
		<rect x="-174.5" y="309.5" class="st2" width="11" height="4"/>
		<rect x="-194.5" y="321.5" class="st2" width="11" height="4"/>
		<rect x="-174.5" y="321.5" class="st2" width="11" height="4"/>
		<rect x="-154.5" y="297.5" class="st2" width="11" height="4"/>
		<rect x="-154.5" y="309.5" class="st2" width="11" height="4"/>
		<rect x="-154.5" y="321.5" class="st2" width="11" height="4"/>
	</g>
</g>
<g>
	<rect x="-517" y="96" class="st0" width="3" height="11"/>
	<rect x="-517" y="107" class="st0" width="13" height="3"/>
	<rect x="-507" y="96" class="st0" width="3" height="11"/>
	<rect x="-507" y="110" class="st0" width="3" height="11"/>
	<rect x="-498" y="96" class="st0" width="3" height="11"/>
	<rect x="-498" y="107" class="st0" width="13" height="3"/>
	<rect x="-488" y="96" class="st0" width="3" height="11"/>
	<rect x="-488" y="110" class="st0" width="3" height="11"/>
	<rect x="-527" y="96" class="st0" width="3" height="25"/>
	<rect x="-470" y="96" class="st0" width="3" height="25"/>
	<rect x="-469" y="96" class="st0" width="13" height="2"/>
	<rect x="-457" y="98" class="st0" width="1" height="0"/>
	<rect x="-469" y="107" class="st0" width="13" height="2"/>
	<rect x="-453" y="96" class="st0" width="3" height="25"/>
	<rect x="-452" y="96" class="st0" width="13" height="2"/>
	<rect x="-440" y="98" class="st0" width="1" height="0"/>
	<rect x="-452" y="107" class="st0" width="13" height="2"/>
	<rect x="-442" y="96" class="st0" width="3" height="13"/>
	<rect x="-435" y="96" class="st0" width="3" height="13"/>
	<rect x="-434" y="96" class="st0" width="13" height="2"/>
	<rect x="-422" y="98" class="st0" width="1" height="0"/>
	<rect x="-434" y="107" class="st0" width="13" height="2"/>
	<rect x="-424" y="109" class="st0" width="3" height="12"/>
	<rect x="-435" y="119" class="st0" width="13" height="2"/>
</g>
<rect x="-126.5" y="163.5" transform="matrix(6.123234e-17 -1 1 6.123234e-17 -319 74)" class="st9" width="8" height="66"/>
<rect x="-342" y="87" width="15" height="15"/>
<rect x="-322" y="87" width="2" height="15"/>
<rect x="-322" y="87" width="7" height="2"/>
<rect x="-322" y="93" width="7" height="2"/>
<rect x="-315" y="87" width="2" height="8"/>
<rect x="-311" y="87" width="2" height="15"/>
<rect x="-309" y="100" width="7" height="2"/>
<rect x="-309" y="94" width="7" height="2"/>
<rect x="-309" y="87" width="7" height="2"/>
<rect x="-300" y="87" width="2" height="15"/>
<rect x="-298" y="100" width="7" height="2"/>
<rect x="-298" y="87" width="7" height="2"/>
<rect x="-243.5" y="121.5" class="st9" width="45" height="45"/>
<line class="st10" x1="-198.5" y1="166.5" x2="-187.5" y2="159.5"/>
<line class="st10" x1="-199.5" y1="122.5" x2="-187.1" y2="115.24"/>
<line class="st10" x1="-243.5" y1="121.5" x2="-232.5" y2="115.5"/>
<line class="st10" x1="-233" y1="115.5" x2="-188" y2="115.5"/>
<line class="st10" x1="-187.5" y1="160" x2="-187.5" y2="115"/>
<line class="st10" x1="-201.8" y1="141.37" x2="-189.39" y2="134.12"/>
<rect x="-233.5" y="116.5" class="st9" width="46" height="43"/>
<rect x="-193.5" y="122.5" class="st9" width="2" height="1"/>
<rect x="-200.54" y="158.35" transform="matrix(0.8632 -0.5049 0.5049 0.8632 -107.9252 -76.5719)" class="st9" width="10.58" height="5"/>
<rect x="-207.5" y="150.5" class="st9" width="13" height="6"/>
<rect x="-241.82" y="118.9" transform="matrix(0.8632 -0.5049 0.5049 0.8632 -93.6555 -102.8114)" class="st9" width="10.58" height="5"/>
<rect x="-243.5" y="166.5" class="st9" width="1" height="43"/>
<rect x="-120" y="43" transform="matrix(6.123234e-17 -1 1 6.123234e-17 -235.5 -3.5)" class="st9" width="1" height="146"/>
<rect x="-317" y="93" width="2" height="4"/>
<rect x="-315" y="97" width="2" height="5"/>
<g>
	<rect x="-337.5" y="189.5" class="st9" width="1" height="14"/>
	<rect x="-331" y="196" transform="matrix(6.123234e-17 -1 1 6.123234e-17 -533.5 -127.5)" class="st9" width="1" height="14"/>
</g>
<g>
	<rect x="-67" y="196" transform="matrix(-3.267951e-07 -1 1 -3.267951e-07 -269.5 136.5001)" class="st9" width="1" height="14"/>
	
		<rect x="-60.5" y="189.5" transform="matrix(-1 3.267942e-07 -3.267942e-07 -1 -119.9999 393)" class="st9" width="1" height="14"/>
</g>
<g>
	<rect x="-60.5" y="86.5" transform="matrix(-1 3.267960e-07 -3.267960e-07 -1 -120 187)" class="st9" width="1" height="14"/>
	<rect x="-67" y="80" transform="matrix(3.267942e-07 1 -1 3.267942e-07 20.5 153.5)" class="st9" width="1" height="14"/>
</g>
<g>
	<rect x="-327.5" y="121.5" class="st9" width="24" height="3"/>
	<rect x="-300.5" y="121.5" class="st9" width="24" height="3"/>
	<rect x="-327.5" y="127.5" class="st9" width="13" height="3"/>
	<rect x="-311.5" y="127.5" class="st9" width="35" height="3"/>
	<rect x="-290.5" y="133.5" class="st9" width="14" height="3"/>
	<rect x="-327.5" y="139.5" class="st9" width="24" height="3"/>
	<rect x="-322.5" y="133.5" class="st9" width="30" height="3"/>
	<rect x="-327.5" y="133.5" class="st9" width="3" height="3"/>
	<rect x="-300.5" y="139.5" class="st9" width="3" height="3"/>
	<rect x="-294.5" y="139.5" class="st9" width="3" height="3"/>
	<rect x="-288.5" y="139.5" class="st9" width="12" height="3"/>
</g>
<rect x="-306" y="127" transform="matrix(6.123234e-17 -1 1 6.123234e-17 -454.5 -149.5)" class="st9" width="8" height="51"/>
<rect x="-165.5" y="127.5" class="st9" width="84" height="3"/>
<rect x="-165.5" y="128.5" class="st9" width="0" height="33"/>
<rect x="-81.5" y="128.94" class="st9" width="0" height="32.56"/>
<rect x="-165.5" y="160.5" class="st9" width="84" height="1"/>
<rect x="-88.5" y="127.5" class="st11" width="3" height="3"/>
<rect x="-91.5" y="128.5" class="st11" width="3" height="2"/>
<rect x="-96.5" y="146.5" transform="matrix(6.123234e-17 -1 1 6.123234e-17 -253 61)" class="st9" width="1" height="21"/>
<rect x="-161.5" y="142.5" class="st9" width="1" height="15"/>
<g>
	<rect x="29.86" y="14.98" class="st12" width="88.33" height="197.25"/>
	<line class="st13" x1="119.81" y1="213.86" x2="169.67" y2="192.18"/>
	<line class="st13" x1="120.9" y1="13.36" x2="169.67" y2="29.62"/>
	<line class="st13" x1="167.5" y1="26.36" x2="167.5" y2="195.43"/>
	
		<rect x="118.28" y="180.77" transform="matrix(0.934 -0.3573 0.3573 0.934 -58.5312 63.5269)" class="st14" width="48.77" height="18.82"/>
	
		<rect x="119.77" y="172.21" transform="matrix(0.9881 -0.1538 0.1538 0.9881 -25.6993 24.0883)" class="st14" width="46.19" height="11.92"/>
	
		<rect x="119.76" y="21.11" transform="matrix(0.9487 0.3162 -0.3162 0.9487 15.2158 -43.9624)" class="st14" width="46.61" height="7.59"/>
	<rect x="123.07" y="123.9" class="st14" width="42.27" height="9.75"/>
	<rect x="158.83" y="56.71" class="st14" width="5.42" height="31.43"/>
	<rect x="85.13" y="33.95" class="st14" width="10.84" height="45.52"/>
	<rect x="123.07" y="24.2" class="st14" width="29.58" height="89"/>
	<rect x="121.98" y="140.16" class="st14" width="42.27" height="9.75"/>
	<rect x="39.61" y="27.45" class="st14" width="2.17" height="7.59"/>
	<rect x="39.61" y="40.45" class="st14" width="2.17" height="7.59"/>
</g>
<g>
	<g>
		<g>
			<rect x="200.76" y="36.5" width="309" height="137"/>
			<path class="st0" d="M505.26,41v128h-300V41H505.26 M514.26,32h-318v146h318V32L514.26,32z"/>
		</g>
		<g>
			<line class="st15" x1="355.76" y1="176" x2="355.76" y2="217"/>
		</g>
		<line class="st16" x1="281.76" y1="216.5" x2="433.26" y2="216.5"/>
	</g>
	
		<rect x="425.76" y="124.5" transform="matrix(6.123234e-17 -1 1 6.123234e-17 272.2553 587.2553)" class="st17" width="8" height="66"/>
	<rect x="210.26" y="48" class="st0" width="15" height="15"/>
	<rect x="230.26" y="48" class="st0" width="2" height="15"/>
	<rect x="230.26" y="48" class="st0" width="7" height="2"/>
	<rect x="230.26" y="54" class="st0" width="7" height="2"/>
	<rect x="237.26" y="48" class="st0" width="2" height="8"/>
	<rect x="241.26" y="48" class="st0" width="2" height="15"/>
	<rect x="243.26" y="61" class="st0" width="7" height="2"/>
	<rect x="243.26" y="55" class="st0" width="7" height="2"/>
	<rect x="243.26" y="48" class="st0" width="7" height="2"/>
	<rect x="252.26" y="48" class="st0" width="2" height="15"/>
	<rect x="254.26" y="61" class="st0" width="7" height="2"/>
	<rect x="254.26" y="48" class="st0" width="7" height="2"/>
	<rect x="308.76" y="82.5" class="st17" width="45" height="45"/>
	<line class="st18" x1="353.76" y1="127.5" x2="364.76" y2="120.5"/>
	<line class="st18" x1="352.76" y1="83.5" x2="365.16" y2="76.24"/>
	<line class="st18" x1="308.76" y1="82.5" x2="319.76" y2="76.5"/>
	<line class="st18" x1="319.26" y1="76.5" x2="364.26" y2="76.5"/>
	<line class="st18" x1="364.76" y1="121" x2="364.76" y2="76"/>
	<line class="st18" x1="350.46" y1="102.37" x2="362.86" y2="95.12"/>
	<rect x="318.76" y="77.5" class="st17" width="46" height="43"/>
	<rect x="358.76" y="83.5" class="st17" width="2" height="1"/>
	
		<rect x="351.72" y="119.35" transform="matrix(0.8632 -0.5049 0.5049 0.8632 -12.6794 196.9169)" class="st17" width="10.58" height="5"/>
	<rect x="344.76" y="111.5" class="st17" width="13" height="6"/>
	
		<rect x="310.43" y="79.9" transform="matrix(0.8632 -0.5049 0.5049 0.8632 1.5903 170.6774)" class="st17" width="10.58" height="5"/>
	<rect x="308.76" y="127.5" class="st17" width="1" height="43"/>
	
		<rect x="432.26" y="4" transform="matrix(6.123234e-17 -1 1 6.123234e-17 355.7553 509.7553)" class="st17" width="1" height="146"/>
	<rect x="235.26" y="54" class="st0" width="2" height="4"/>
	<rect x="237.26" y="58" class="st0" width="2" height="5"/>
	<g>
		<rect x="214.76" y="150.5" class="st17" width="1" height="14"/>
		
			<rect x="221.26" y="157" transform="matrix(6.123234e-17 -1 1 6.123234e-17 57.7553 385.7553)" class="st17" width="1" height="14"/>
	</g>
	<g>
		
			<rect x="485.26" y="157" transform="matrix(-3.267960e-07 -1 1 -3.267960e-07 321.7555 649.7554)" class="st17" width="1" height="14"/>
		
			<rect x="491.76" y="150.5" transform="matrix(-1 3.267924e-07 -3.267924e-07 -1 984.5107 314.9998)" class="st17" width="1" height="14"/>
	</g>
	<g>
		
			<rect x="491.76" y="47.5" transform="matrix(-1 3.267960e-07 -3.267960e-07 -1 984.5107 108.9998)" class="st17" width="1" height="14"/>
		
			<rect x="485.26" y="41" transform="matrix(3.267960e-07 1 -1 3.267960e-07 533.7552 -437.7553)" class="st17" width="1" height="14"/>
	</g>
	<g>
		<rect x="224.76" y="82.5" class="st17" width="24" height="3"/>
		<rect x="251.76" y="82.5" class="st17" width="24" height="3"/>
		<rect x="224.76" y="88.5" class="st17" width="13" height="3"/>
		<rect x="240.76" y="88.5" class="st17" width="35" height="3"/>
		<rect x="261.76" y="94.5" class="st17" width="14" height="3"/>
		<rect x="224.76" y="100.5" class="st17" width="24" height="3"/>
		<rect x="229.76" y="94.5" class="st17" width="30" height="3"/>
		<rect x="224.76" y="94.5" class="st17" width="3" height="3"/>
		<rect x="251.76" y="100.5" class="st17" width="3" height="3"/>
		<rect x="257.76" y="100.5" class="st17" width="3" height="3"/>
		<rect x="263.76" y="100.5" class="st17" width="12" height="3"/>
	</g>
	
		<rect x="246.26" y="88" transform="matrix(6.123234e-17 -1 1 6.123234e-17 136.7553 363.7553)" class="st17" width="8" height="51"/>
	<rect x="386.76" y="88.5" class="st17" width="84" height="3"/>
	<rect x="386.76" y="89.5" class="st17" width="0" height="33"/>
	<rect x="470.76" y="89.94" class="st17" width="0" height="32.56"/>
	<rect x="386.76" y="121.5" class="st17" width="84" height="1"/>
	<rect x="463.76" y="88.5" class="st19" width="3" height="3"/>
	<rect x="460.76" y="89.5" class="st19" width="3" height="2"/>
	
		<rect x="455.76" y="107.5" transform="matrix(6.123234e-17 -1 1 6.123234e-17 338.2553 574.2553)" class="st17" width="1" height="21"/>
	<rect x="390.76" y="103.5" class="st17" width="1" height="15"/>
</g>
<g>
	<g>
		<path d="M303.41,338.95c-3.52,11.92-12.33,20.93-28.22,20.93c-21.55,0-32.88-17.11-32.88-38.18c0-20.22,11.13-38.62,33-38.62
			c16.23,0,25.75,9.04,28.2,21.56h-6c-3.38-9.65-9.64-16.05-22.53-16.05c-18.5,0-26.25,16.9-26.25,33
			c0,15.97,7.63,32.79,26.68,32.79c12.16,0,18.3-6.33,21.99-15.42H303.41z"/>
		<path d="M315.62,305.47c10.7,30.35,15.41,43.07,17.21,48.84h0.11c2.12-6.51,6.38-18.92,16.67-48.84h5.77l-20.08,56.61
			c-5.66,15.84-9.53,19.39-19.24,19.39c-1.91,0-3.24-0.11-4.97-0.32v-5.5c1.59,0.21,3.09,0.32,4.8,0.32
			c7.66,0,10.13-3.71,14.05-14.62l-20.43-55.88H315.62z"/>
		<path d="M365.55,280.17h5.57v34.22c2.56-5.31,7.79-10.2,18.24-10.2c12.68,0,21.95,10.42,21.95,26.88
			c0,16.88-8.34,29.23-23.34,29.23c-8.97,0-14.07-3.61-16.85-9.67c0,3.39-0.11,6.89-0.22,8.38h-5.45c0.11-6.1,0.11-12.2,0.11-18.29
			V280.17z M405.42,331.18c0-13.28-6.56-21.8-16.69-21.8c-13.27,0-17.95,9.02-17.95,22.98c0,12.55,4.14,22.76,17.32,22.76
			C398.85,355.11,405.42,346.17,405.42,331.18z"/>
		<path d="M425.92,332.94c0.11,13.65,6.98,22.17,17.2,22.17c9.98,0,13.37-5.6,15.28-9.97h5.67c-2.24,7.05-7.92,15.15-21.17,15.15
			c-16.31,0-22.65-14.01-22.65-27.62c0-15.34,7.62-28.49,23.29-28.49c16.53,0,21.8,14.22,21.8,24.36c0,1.51,0,3-0.11,4.39H425.92z
			 M459.57,328.13c-0.11-10.5-5.81-18.79-16.24-18.79c-10.94,0-15.92,7.65-17.09,18.79H459.57z"/>
		<path d="M478.33,320.04c0-8.91-0.1-12.79-0.11-14.56h5.46c0.11,1.7,0.22,5.17,0.22,11.93c3.09-7.99,9.92-12.8,18.6-13.22v5.97
			c-11.13,0.73-18.6,8.33-18.6,21.11v27.74h-5.57V320.04z"/>
	</g>
</g>
<g>
	<rect x="1037" y="26" width="529" height="145"/>
	<g>
		<g>
			<path class="st0" d="M1172,139.87h-6.75c-0.59-1.08-0.88-5.73-1.03-14.47c-3.68,6.26-11.73,15.52-32.82,15.52
				c-29.25,0-44.27-19.93-44.27-45.85c0-27.22,16.04-47.67,45.92-47.67c22.06,0,36.63,10.35,39.82,27.13h-8.16
				c-4.32-12.75-14.26-20.42-31.95-20.42c-25.37,0-36.89,17.67-36.89,40.57c0,20.73,11.11,39.54,35.89,39.54
				c25.32,0,32.37-14.78,32.37-34.71v-1.04h-32.66v-6.72H1172V139.87z"/>
			<path class="st0" d="M1245,127.38c0,5.75,0.58,10.41,1.02,12.49h-7.27c-0.58-1.56-1.02-4.44-1.3-9.96
				c-2.48,4.8-8.86,11.52-23.81,11.52c-16.91,0-24.2-9.79-24.2-19.58c0-14.35,12.4-20.88,34.24-20.88c6.06,0,10.86,0,13.76,0v-6.59
				c0-6.48-2.18-15.12-18.62-15.12c-14.57,0-16.75,6.83-18.34,12.16h-7.55c0.88-7.27,5.9-18.31,26.05-18.31
				c16.67,0,26.02,6.27,26.02,20.64V127.38z M1237.58,106.7c-2.74,0-9.38,0-14.14,0c-16.08,0-26,3.77-26,14.87
				c0,8.14,6.48,13.71,16.61,13.71c20.65,0,23.53-12.29,23.53-26.25V106.7z"/>
			<path class="st0" d="M1268.89,91.5c0-5.61,0-11.72-0.15-16.82h7.41c0.15,2.2,0.44,7.76,0.3,11.52
				c3.07-6.48,9.75-13.08,21.81-13.08c10.2,0,18.16,4.57,21.07,12.84c3.66-6.75,10.92-12.84,23.71-12.84
				c11.25,0,22.88,5.76,22.88,23.86v42.89h-7.56V97.79c0-8.67-3.47-18.1-16.9-18.1c-14,0-20.34,10.05-20.34,22.64v37.54h-7.42V97.93
				c0-9.46-3.17-18.24-16.47-18.24c-14,0-20.78,11.06-20.78,24.31v35.87h-7.57V91.5z"/>
			<path class="st0" d="M1391.62,108.12c0.14,16.62,9.5,27,23.4,27c13.57,0,18.18-6.82,20.79-12.14h7.72
				c-3.05,8.59-10.77,18.44-28.8,18.44c-22.18,0-30.82-17.06-30.82-33.63c0-18.68,10.37-34.69,31.69-34.69
				c22.49,0,29.66,17.31,29.66,29.66c0,1.83,0,3.65-0.15,5.35H1391.62z M1437.39,102.27c-0.15-12.79-7.91-22.87-22.09-22.87
				c-14.88,0-21.66,9.31-23.25,22.87H1437.39z"/>
			<path class="st0" d="M1463.24,121.84c2.45,8.4,9.11,13.44,20.53,13.44c12.84,0,18.03-5.28,18.03-12.51
				c0-7.36-3.49-10.96-19.67-14.46c-18.9-4.07-23.55-9.19-23.55-17.8c0-9.01,7.57-17.39,24.16-17.39c16.59,0,24.44,9.04,25.6,18.28
				h-7.55c-1.3-5.41-6.04-12.14-18.35-12.14c-12.54,0-16.15,5.54-16.15,10.7c0,5.94,3.47,8.9,17.83,12.02
				c20.62,4.45,25.68,10.48,25.68,20.25c0,11.84-10.74,19.2-26.19,19.2c-16.73,0-26.05-7.86-28.08-19.59H1463.24z"/>
		</g>
	</g>
</g>
<g>
	<g>
		<path class="st0" d="M591.8,154.6L562.76,49.63h8.74c7.11,25.68,22.76,82.93,25.13,95.21h0.15c1.99-9.95,19.08-67.52,26.41-95.21
			h9.24c6.87,25.52,23.53,86.7,25.21,95.04h0.15c3.3-15.02,20.69-70.18,27.81-95.04h8.54L662.14,154.6h-9.6
			c-6.87-24.71-23.06-84.86-24.9-94.05h-0.15c-2.72,13.75-18.77,68.07-26.23,94.05H591.8z"/>
		<path class="st0" d="M771.03,116.92c0,20.91-11.6,39.48-34,39.48c-20.33,0-32.96-16.66-32.96-39.32
			c0-21.5,11.91-39.33,33.72-39.33C757.8,77.74,771.03,93.35,771.03,116.92z M712.32,117.07c0,17.79,9.53,32.07,25.31,32.07
			c16.08,0,25.15-13.25,25.15-32.06c0-17.67-8.93-32.07-25.45-32.07C720.38,85,712.32,99.1,712.32,117.07z"/>
		<path class="st0" d="M789.54,99.96c0-12.49-0.15-17.92-0.15-20.41h7.65c0.15,2.39,0.31,7.25,0.31,16.73
			c4.33-11.2,13.9-17.94,26.07-18.53v8.37c-15.6,1.02-26.07,11.67-26.07,29.6v38.89h-7.8V99.96z"/>
		<path class="st0" d="M838.43,154.6V44.07h7.8V154.6H838.43z"/>
		<path class="st0" d="M928.87,44.07V133c0,7.2,0,14.1,0.15,21.59h-7.49c-0.3-1.81-0.46-8.79-0.46-12.5
			c-3.75,9.08-12.11,14.3-25.13,14.3c-19.5,0-31.22-15.9-31.22-38.43c0-23.12,12.76-40.22,33.2-40.22c14.92,0,20.92,6.4,23.15,11.17
			V44.07H928.87z M872.97,117.66c0,20.43,10.55,31.47,23.39,31.47c19.69,0,25.01-13.62,25.01-33.82c0-19.22-4.59-30.29-23.68-30.29
			C882.93,85.01,872.97,96.8,872.97,117.66z"/>
		<path class="st0" d="M953.68,133.84c2.53,9.67,9.39,15.47,21.16,15.47c13.23,0,18.58-6.08,18.58-14.4
			c0-8.47-3.59-12.62-20.27-16.64c-19.48-4.68-24.26-10.58-24.26-20.5c0-10.37,7.81-20.03,24.9-20.03
			c17.09,0,25.19,10.4,26.38,21.05h-7.78c-1.34-6.23-6.22-13.97-18.91-13.97c-12.92,0-16.64,6.38-16.64,12.32
			c0,6.83,3.57,10.25,18.38,13.83c21.25,5.12,26.47,12.06,26.47,23.31c0,13.63-11.07,22.1-26.99,22.1
			c-17.24,0-26.84-9.05-28.93-22.56H953.68z"/>
	</g>
</g>
<g>
	<rect x="29.91" y="246.32" class="st3" width="88.33" height="197.25"/>
	<line class="st4" x1="119.86" y1="445.19" x2="169.72" y2="423.51"/>
	<line class="st4" x1="120.95" y1="244.69" x2="169.72" y2="260.95"/>
	<line class="st4" x1="167.55" y1="257.7" x2="167.55" y2="426.77"/>
	
		<rect x="118.33" y="412.1" transform="matrix(0.934 -0.3573 0.3573 0.934 -141.1803 78.8136)" class="st5" width="48.77" height="18.82"/>
	
		<rect x="119.82" y="403.55" transform="matrix(0.9881 -0.1538 0.1538 0.9881 -61.2714 26.8472)" class="st5" width="46.19" height="11.92"/>
	
		<rect x="119.81" y="252.44" transform="matrix(0.9487 0.3162 -0.3162 0.9487 88.3719 -32.1066)" class="st5" width="46.61" height="7.59"/>
	<rect x="123.12" y="355.24" class="st5" width="42.27" height="9.75"/>
	<rect x="158.88" y="288.04" class="st5" width="5.42" height="31.43"/>
	<rect x="85.18" y="265.28" class="st5" width="10.84" height="45.52"/>
	<rect x="123.12" y="255.53" class="st5" width="29.58" height="89"/>
	<rect x="122.03" y="371.49" class="st5" width="42.27" height="9.75"/>
	<rect x="39.66" y="258.78" class="st5" width="2.17" height="7.59"/>
	<rect x="39.66" y="271.79" class="st5" width="2.17" height="7.59"/>
</g>
<g>
	<g>
		<path d="M520.3,258v136.94h-300V258H520.3 M529.3,249h-318v154.94h318V249L529.3,249z"/>
	</g>
	<g>
		<line class="st1" x1="370.8" y1="401.82" x2="370.8" y2="445.33"/>
	</g>
	<line class="st2" x1="296.8" y1="444.8" x2="448.3" y2="444.8"/>
</g>
<g>
	<rect x="1037.05" y="257.33" width="529" height="145"/>
	<g>
		<g>
			<path class="st0" d="M1172.05,371.2h-6.75c-0.59-1.08-0.88-5.73-1.03-14.47c-3.68,6.26-11.73,15.52-32.82,15.52
				c-29.25,0-44.27-19.93-44.27-45.85c0-27.22,16.04-47.67,45.92-47.67c22.06,0,36.63,10.35,39.82,27.13h-8.16
				c-4.32-12.75-14.26-20.42-31.95-20.42c-25.37,0-36.89,17.67-36.89,40.57c0,20.73,11.11,39.54,35.89,39.54
				c25.32,0,32.37-14.78,32.37-34.71v-1.04h-32.66v-6.72h40.52V371.2z"/>
			<path class="st0" d="M1245.05,358.71c0,5.75,0.58,10.41,1.02,12.49h-7.27c-0.58-1.56-1.02-4.44-1.3-9.96
				c-2.48,4.8-8.86,11.52-23.81,11.52c-16.91,0-24.2-9.79-24.2-19.58c0-14.35,12.4-20.88,34.24-20.88c6.06,0,10.86,0,13.76,0v-6.59
				c0-6.48-2.18-15.12-18.62-15.12c-14.57,0-16.75,6.83-18.34,12.16h-7.55c0.88-7.27,5.9-18.31,26.05-18.31
				c16.67,0,26.02,6.27,26.02,20.64V358.71z M1237.63,338.03c-2.74,0-9.38,0-14.14,0c-16.08,0-26,3.77-26,14.87
				c0,8.14,6.48,13.71,16.61,13.71c20.65,0,23.53-12.29,23.53-26.25V338.03z"/>
			<path class="st0" d="M1268.94,322.83c0-5.61,0-11.72-0.15-16.82h7.41c0.15,2.2,0.44,7.76,0.3,11.52
				c3.07-6.48,9.75-13.08,21.81-13.08c10.2,0,18.16,4.57,21.07,12.84c3.66-6.75,10.92-12.84,23.71-12.84
				c11.25,0,22.88,5.76,22.88,23.86v42.89h-7.56v-42.08c0-8.67-3.47-18.1-16.9-18.1c-14,0-20.34,10.05-20.34,22.64v37.54h-7.42
				v-41.94c0-9.46-3.17-18.24-16.47-18.24c-14,0-20.78,11.06-20.78,24.31v35.87h-7.57V322.83z"/>
			<path class="st0" d="M1391.67,339.46c0.14,16.62,9.5,27,23.4,27c13.57,0,18.18-6.82,20.79-12.14h7.72
				c-3.05,8.59-10.77,18.44-28.8,18.44c-22.18,0-30.82-17.06-30.82-33.63c0-18.68,10.37-34.69,31.69-34.69
				c22.49,0,29.66,17.31,29.66,29.66c0,1.83,0,3.65-0.15,5.35H1391.67z M1437.44,333.6c-0.15-12.79-7.91-22.87-22.09-22.87
				c-14.88,0-21.66,9.31-23.25,22.87H1437.44z"/>
			<path class="st0" d="M1463.29,353.17c2.45,8.4,9.11,13.44,20.53,13.44c12.84,0,18.03-5.28,18.03-12.51
				c0-7.36-3.49-10.96-19.67-14.46c-18.9-4.07-23.55-9.19-23.55-17.8c0-9.01,7.57-17.39,24.16-17.39c16.59,0,24.44,9.04,25.6,18.28
				h-7.55c-1.3-5.41-6.04-12.14-18.35-12.14c-12.54,0-16.15,5.54-16.15,10.7c0,5.94,3.47,8.9,17.83,12.02
				c20.62,4.45,25.68,10.48,25.68,20.25c0,11.84-10.74,19.2-26.19,19.2c-16.73,0-26.05-7.86-28.08-19.59H1463.29z"/>
		</g>
	</g>
</g>
<g>
	<g>
		<path d="M591.85,385.93l-29.04-104.96h8.74c7.11,25.68,22.76,82.93,25.13,95.21h0.15c1.99-9.95,19.08-67.52,26.41-95.21h9.24
			c6.87,25.52,23.53,86.7,25.21,95.04h0.15c3.3-15.02,20.69-70.18,27.81-95.04h8.54l-32.01,104.96h-9.6
			c-6.87-24.71-23.06-84.86-24.9-94.05h-0.15c-2.72,13.75-18.77,68.07-26.23,94.05H591.85z"/>
		<path d="M771.08,348.25c0,20.91-11.6,39.48-34,39.48c-20.33,0-32.96-16.66-32.96-39.32c0-21.5,11.91-39.33,33.72-39.33
			C757.85,309.07,771.08,324.68,771.08,348.25z M712.37,348.4c0,17.79,9.53,32.07,25.31,32.07c16.08,0,25.15-13.25,25.15-32.06
			c0-17.67-8.93-32.07-25.45-32.07C720.43,316.33,712.37,330.44,712.37,348.4z"/>
		<path d="M789.58,331.29c0-12.49-0.15-17.92-0.15-20.41h7.65c0.15,2.39,0.31,7.25,0.31,16.73c4.33-11.2,13.9-17.94,26.07-18.53
			v8.37c-15.6,1.02-26.07,11.67-26.07,29.6v38.89h-7.8V331.29z"/>
		<path d="M838.48,385.93V275.41h7.8v110.52H838.48z"/>
		<path d="M928.92,275.41v88.93c0,7.2,0,14.1,0.15,21.59h-7.49c-0.3-1.81-0.46-8.8-0.46-12.5c-3.75,9.08-12.11,14.3-25.13,14.3
			c-19.5,0-31.22-15.9-31.22-38.43c0-23.12,12.76-40.22,33.2-40.22c14.92,0,20.92,6.4,23.15,11.17v-44.83H928.92z M873.02,348.99
			c0,20.43,10.55,31.47,23.39,31.47c19.69,0,25.01-13.62,25.01-33.82c0-19.22-4.59-30.29-23.68-30.29
			C882.98,316.34,873.02,328.13,873.02,348.99z"/>
		<path d="M953.72,365.17c2.53,9.67,9.39,15.47,21.16,15.47c13.23,0,18.58-6.08,18.58-14.4c0-8.47-3.59-12.62-20.27-16.64
			c-19.48-4.68-24.26-10.58-24.26-20.5c0-10.37,7.81-20.03,24.9-20.03c17.09,0,25.19,10.4,26.38,21.05h-7.78
			c-1.34-6.23-6.22-13.97-18.91-13.97c-12.92,0-16.64,6.38-16.64,12.32c0,6.83,3.57,10.25,18.38,13.83
			c21.25,5.12,26.47,12.06,26.47,23.32c0,13.63-11.07,22.1-26.99,22.1c-17.24,0-26.84-9.05-28.93-22.56H953.72z"/>
	</g>
</g>
<line class="st20" x1="424" y1="371" x2="511" y2="371"/>
<line class="st21" x1="232" y1="275" x2="232" y2="378"/>
</svg>
