<?xml version="1.0" encoding="utf-8"?>
<!-- Generator: Adobe Illustrator 25.4.1, SVG Export Plug-In . SVG Version: 6.00 Build 0)  -->
<svg version="1.1" id="Слой_1" xmlns="http://www.w3.org/2000/svg" xmlns:xlink="http://www.w3.org/1999/xlink" x="0px" y="0px"
	 viewBox="0 0 1047 210" style="enable-background:new 0 0 1047 210;" xml:space="preserve">
<style type="text/css">
	.st0{fill:#FFFFFF;}
	.st1{fill:none;stroke:#000000;stroke-width:9;stroke-miterlimit:10;}
	.st2{fill:none;stroke:#000000;stroke-width:5;stroke-miterlimit:10;}
	.st3{fill:#FFFFFF;stroke:#000000;stroke-width:9;stroke-miterlimit:10;}
	.st4{fill:none;stroke:#000000;stroke-width:7;stroke-miterlimit:10;}
	.st5{stroke:#000000;stroke-width:3;stroke-miterlimit:10;}
	.st6{fill:#FFFFFF;stroke:#000000;stroke-width:4;stroke-miterlimit:10;}
	.st7{stroke:#000000;stroke-width:2;stroke-miterlimit:10;}
	.st8{fill:#FFFFFF;stroke:#000000;stroke-width:2;stroke-miterlimit:10;}
	.st9{stroke:#000000;stroke-miterlimit:10;}
	.st10{fill:none;stroke:#000000;stroke-miterlimit:10;}
	.st11{fill:#FFFFFF;stroke:#000000;stroke-miterlimit:10;}
	.st12{stroke:#FFFFFF;stroke-width:9;stroke-miterlimit:10;}
	.st13{fill:none;stroke:#FFFFFF;stroke-width:7;stroke-miterlimit:10;}
	.st14{fill:#FFFFFF;stroke:#FFFFFF;stroke-width:3;stroke-miterlimit:10;}
	.st15{fill:none;stroke:#FFFFFF;stroke-width:9;stroke-miterlimit:10;}
	.st16{fill:none;stroke:#FFFFFF;stroke-width:5;stroke-miterlimit:10;}
	.st17{fill:#FFFFFF;stroke:#FFFFFF;stroke-miterlimit:10;}
	.st18{fill:none;stroke:#FFFFFF;stroke-miterlimit:10;}
	.st19{stroke:#FFFFFF;stroke-miterlimit:10;}
	.st20{stroke:#000000;stroke-width:6;stroke-miterlimit:10;}
	.st21{fill:none;stroke:#000000;stroke-width:6;stroke-miterlimit:10;}
</style>
<g>
	<g>
		<rect x="-351.5" y="60.5" class="st0" width="309" height="137"/>
		<path d="M-47,65v128h-300V65H-47 M-38,56h-318v146h318V56L-38,56z"/>
	</g>
	<g>
		<line class="st1" x1="-196.5" y1="200" x2="-196.5" y2="241"/>
	</g>
	<line class="st2" x1="-270.5" y1="240.5" x2="-119" y2="240.5"/>
</g>
<g>
	<rect x="-493.08" y="89.93" class="st0" width="2.98" height="9.71"/>
	<rect x="-493.08" y="99.64" class="st0" width="12.89" height="2.65"/>
	<rect x="-483.16" y="89.93" class="st0" width="2.98" height="9.71"/>
	<rect x="-483.16" y="102.29" class="st0" width="2.98" height="9.71"/>
	<rect x="-474.24" y="89.93" class="st0" width="2.98" height="9.71"/>
	<rect x="-474.24" y="99.64" class="st0" width="12.89" height="2.65"/>
	<rect x="-464.32" y="89.93" class="st0" width="2.98" height="9.71"/>
	<rect x="-464.32" y="102.29" class="st0" width="2.98" height="9.71"/>
	<rect x="-503" y="89.93" class="st0" width="2.98" height="22.07"/>
	<rect x="-446.47" y="89.93" class="st0" width="2.98" height="22.07"/>
	<rect x="-445.48" y="89.93" class="st0" width="12.89" height="1.77"/>
	<rect x="-433.58" y="91.7" class="st0" width="0.99" height="0"/>
	<rect x="-445.48" y="99.64" class="st0" width="12.89" height="1.77"/>
	<rect x="-429.61" y="89.93" class="st0" width="2.98" height="22.07"/>
	<rect x="-428.62" y="89.93" class="st0" width="12.89" height="1.77"/>
	<rect x="-416.72" y="91.7" class="st0" width="0.99" height="0"/>
	<rect x="-428.62" y="99.64" class="st0" width="12.89" height="1.77"/>
	<rect x="-418.7" y="89.93" class="st0" width="2.98" height="11.48"/>
	<rect x="-411.76" y="89.93" class="st0" width="2.98" height="11.48"/>
	<rect x="-410.77" y="89.93" class="st0" width="12.89" height="1.77"/>
	<rect x="-398.86" y="91.7" class="st0" width="0.99" height="0"/>
	<rect x="-410.77" y="99.64" class="st0" width="12.89" height="1.77"/>
	<rect x="-400.85" y="101.41" class="st0" width="2.98" height="10.59"/>
	<rect x="-411.76" y="110.24" class="st0" width="12.89" height="1.77"/>
	<rect x="-1.17" y="-1" width="1064.17" height="211"/>
</g>
<g>
	<rect x="-504.5" y="135.13" class="st3" width="88.33" height="197.25"/>
	<line class="st4" x1="-414.55" y1="334" x2="-364.69" y2="312.32"/>
	<line class="st4" x1="-413.46" y1="133.5" x2="-364.69" y2="149.76"/>
	<line class="st4" x1="-366.86" y1="146.51" x2="-366.86" y2="315.58"/>
	
		<rect x="-416.08" y="300.91" transform="matrix(0.934 -0.3573 0.3573 0.934 -136.7274 -119.4642)" class="st5" width="48.77" height="18.82"/>
	
		<rect x="-414.59" y="292.36" transform="matrix(0.9881 -0.1538 0.1538 0.9881 -50.5294 -56.6531)" class="st5" width="46.19" height="11.92"/>
	
		<rect x="-414.6" y="141.25" transform="matrix(0.9487 0.3162 -0.3162 0.9487 25.7862 131.1826)" class="st5" width="46.61" height="7.59"/>
	<rect x="-411.29" y="244.05" class="st5" width="42.27" height="9.75"/>
	<rect x="-375.53" y="176.85" class="st5" width="5.42" height="31.43"/>
	<rect x="-449.23" y="154.09" class="st5" width="10.84" height="45.52"/>
	<rect x="-411.29" y="144.34" class="st5" width="29.58" height="89"/>
	<rect x="-412.38" y="260.3" class="st5" width="42.27" height="9.75"/>
	<rect x="-494.75" y="147.59" class="st5" width="2.17" height="7.59"/>
	<rect x="-494.75" y="160.59" class="st5" width="2.17" height="7.59"/>
</g>
<g>
	<rect x="-62" y="286" class="st6" width="25" height="39"/>
	<rect x="-52" y="292" class="st7" width="5" height="12"/>
	<rect x="-61" y="287" class="st8" width="5" height="13"/>
	<rect x="-43" y="287" class="st8" width="5" height="13"/>
	<rect x="-64" y="301" class="st6" width="1" height="6"/>
	<rect x="-64" y="312" class="st6" width="1" height="6"/>
</g>
<g>
	<rect x="-206" y="255" width="4" height="13"/>
	<rect x="-50" y="259" width="3" height="25"/>
	<rect x="-370" y="255" width="323" height="4"/>
	<rect x="-294" y="197" width="4" height="59"/>
</g>
<g>
	<rect x="-335.5" y="270.5" class="st2" width="258" height="74"/>
	<rect x="-321" y="328" width="34" height="8"/>
	<rect x="-275" y="328" width="134" height="8"/>
	<rect x="-132" y="328" width="34" height="8"/>
	<g>
		<rect x="-317.5" y="282.5" class="st2" width="11" height="4"/>
		<rect x="-297.5" y="282.5" class="st2" width="11" height="4"/>
		<rect x="-317.5" y="294.5" class="st2" width="11" height="4"/>
		<rect x="-297.5" y="294.5" class="st2" width="11" height="4"/>
		<rect x="-317.5" y="306.5" class="st2" width="11" height="4"/>
		<rect x="-297.5" y="306.5" class="st2" width="11" height="4"/>
	</g>
	<g>
		<rect x="-130.5" y="282.5" class="st2" width="11" height="4"/>
		<rect x="-110.5" y="282.5" class="st2" width="11" height="4"/>
		<rect x="-130.5" y="294.5" class="st2" width="11" height="4"/>
		<rect x="-110.5" y="294.5" class="st2" width="11" height="4"/>
		<rect x="-130.5" y="306.5" class="st2" width="11" height="4"/>
		<rect x="-110.5" y="306.5" class="st2" width="11" height="4"/>
	</g>
	<g>
		<rect x="-272.5" y="282.5" class="st2" width="11" height="4"/>
		<rect x="-252.5" y="282.5" class="st2" width="11" height="4"/>
		<rect x="-272.5" y="294.5" class="st2" width="11" height="4"/>
		<rect x="-252.5" y="294.5" class="st2" width="11" height="4"/>
		<rect x="-272.5" y="306.5" class="st2" width="11" height="4"/>
		<rect x="-252.5" y="306.5" class="st2" width="11" height="4"/>
		<rect x="-233.5" y="282.5" class="st2" width="11" height="4"/>
		<rect x="-213.5" y="282.5" class="st2" width="11" height="4"/>
		<rect x="-233.5" y="294.5" class="st2" width="11" height="4"/>
		<rect x="-213.5" y="294.5" class="st2" width="11" height="4"/>
		<rect x="-233.5" y="306.5" class="st2" width="11" height="4"/>
		<rect x="-213.5" y="306.5" class="st2" width="11" height="4"/>
		<rect x="-194.5" y="282.5" class="st2" width="11" height="4"/>
		<rect x="-174.5" y="282.5" class="st2" width="11" height="4"/>
		<rect x="-194.5" y="294.5" class="st2" width="11" height="4"/>
		<rect x="-174.5" y="294.5" class="st2" width="11" height="4"/>
		<rect x="-194.5" y="306.5" class="st2" width="11" height="4"/>
		<rect x="-174.5" y="306.5" class="st2" width="11" height="4"/>
		<rect x="-154.5" y="282.5" class="st2" width="11" height="4"/>
		<rect x="-154.5" y="294.5" class="st2" width="11" height="4"/>
		<rect x="-154.5" y="306.5" class="st2" width="11" height="4"/>
	</g>
</g>
<rect x="-126.5" y="148.5" transform="matrix(6.123234e-17 -1 1 6.123234e-17 -304 59)" class="st9" width="8" height="66"/>
<rect x="-342" y="72" width="15" height="15"/>
<rect x="-322" y="72" width="2" height="15"/>
<rect x="-322" y="72" width="7" height="2"/>
<rect x="-322" y="78" width="7" height="2"/>
<rect x="-315" y="72" width="2" height="8"/>
<rect x="-311" y="72" width="2" height="15"/>
<rect x="-309" y="85" width="7" height="2"/>
<rect x="-309" y="79" width="7" height="2"/>
<rect x="-309" y="72" width="7" height="2"/>
<rect x="-300" y="72" width="2" height="15"/>
<rect x="-298" y="85" width="7" height="2"/>
<rect x="-298" y="72" width="7" height="2"/>
<rect x="-243.5" y="106.5" class="st9" width="45" height="45"/>
<line class="st10" x1="-198.5" y1="151.5" x2="-187.5" y2="144.5"/>
<line class="st10" x1="-199.5" y1="107.5" x2="-187.1" y2="100.24"/>
<line class="st10" x1="-243.5" y1="106.5" x2="-232.5" y2="100.5"/>
<line class="st10" x1="-233" y1="100.5" x2="-188" y2="100.5"/>
<line class="st10" x1="-187.5" y1="145" x2="-187.5" y2="100"/>
<line class="st10" x1="-201.8" y1="126.37" x2="-189.39" y2="119.12"/>
<rect x="-233.5" y="101.5" class="st9" width="46" height="43"/>
<rect x="-193.5" y="107.5" class="st9" width="2" height="1"/>
<rect x="-200.54" y="143.35" transform="matrix(0.8632 -0.5049 0.5049 0.8632 -100.352 -78.6241)" class="st9" width="10.58" height="5"/>
<rect x="-207.5" y="135.5" class="st9" width="13" height="6"/>
<rect x="-241.82" y="103.9" transform="matrix(0.8632 -0.5049 0.5049 0.8632 -86.0822 -104.8636)" class="st9" width="10.58" height="5"/>
<rect x="-243.5" y="151.5" class="st9" width="1" height="43"/>
<rect x="-120" y="28" transform="matrix(6.123234e-17 -1 1 6.123234e-17 -220.5 -18.5)" class="st9" width="1" height="146"/>
<rect x="-317" y="78" width="2" height="4"/>
<rect x="-315" y="82" width="2" height="5"/>
<g>
	<rect x="-337.5" y="174.5" class="st9" width="1" height="14"/>
	<rect x="-331" y="181" transform="matrix(6.123234e-17 -1 1 6.123234e-17 -518.5 -142.5)" class="st9" width="1" height="14"/>
</g>
<g>
	<rect x="-67" y="181" transform="matrix(-3.267951e-07 -1 1 -3.267951e-07 -254.5 121.5001)" class="st9" width="1" height="14"/>
	
		<rect x="-60.5" y="174.5" transform="matrix(-1 3.267942e-07 -3.267942e-07 -1 -119.9999 363)" class="st9" width="1" height="14"/>
</g>
<g>
	<rect x="-60.5" y="71.5" transform="matrix(-1 3.267960e-07 -3.267960e-07 -1 -120 157)" class="st9" width="1" height="14"/>
	<rect x="-67" y="65" transform="matrix(3.267942e-07 1 -1 3.267942e-07 5.5 138.5)" class="st9" width="1" height="14"/>
</g>
<g>
	<rect x="-327.5" y="106.5" class="st9" width="24" height="3"/>
	<rect x="-300.5" y="106.5" class="st9" width="24" height="3"/>
	<rect x="-327.5" y="112.5" class="st9" width="13" height="3"/>
	<rect x="-311.5" y="112.5" class="st9" width="35" height="3"/>
	<rect x="-290.5" y="118.5" class="st9" width="14" height="3"/>
	<rect x="-327.5" y="124.5" class="st9" width="24" height="3"/>
	<rect x="-322.5" y="118.5" class="st9" width="30" height="3"/>
	<rect x="-327.5" y="118.5" class="st9" width="3" height="3"/>
	<rect x="-300.5" y="124.5" class="st9" width="3" height="3"/>
	<rect x="-294.5" y="124.5" class="st9" width="3" height="3"/>
	<rect x="-288.5" y="124.5" class="st9" width="12" height="3"/>
</g>
<rect x="-306" y="112" transform="matrix(6.123234e-17 -1 1 6.123234e-17 -439.5 -164.5)" class="st9" width="8" height="51"/>
<rect x="-165.5" y="112.5" class="st9" width="84" height="3"/>
<rect x="-165.5" y="113.5" class="st9" width="0" height="33"/>
<rect x="-81.5" y="113.94" class="st9" width="0" height="32.56"/>
<rect x="-165.5" y="145.5" class="st9" width="84" height="1"/>
<rect x="-88.5" y="112.5" class="st11" width="3" height="3"/>
<rect x="-91.5" y="113.5" class="st11" width="3" height="2"/>
<rect x="-96.5" y="131.5" transform="matrix(6.123234e-17 -1 1 6.123234e-17 -238 46)" class="st9" width="1" height="21"/>
<rect x="-161.5" y="127.5" class="st9" width="1" height="15"/>
<g>
	<rect x="27.86" y="5.98" class="st12" width="88.33" height="197.25"/>
	<line class="st13" x1="117.81" y1="204.86" x2="167.67" y2="183.18"/>
	<line class="st13" x1="118.9" y1="4.36" x2="167.67" y2="20.62"/>
	<line class="st13" x1="165.5" y1="17.36" x2="165.5" y2="186.43"/>
	
		<rect x="116.28" y="171.77" transform="matrix(0.934 -0.3573 0.3573 0.934 -55.4476 62.2183)" class="st14" width="48.77" height="18.82"/>
	
		<rect x="117.77" y="163.21" transform="matrix(0.9881 -0.1538 0.1538 0.9881 -24.3391 23.6737)" class="st14" width="46.19" height="11.92"/>
	
		<rect x="117.76" y="12.11" transform="matrix(0.9487 0.3162 -0.3162 0.9487 12.2671 -43.7918)" class="st14" width="46.61" height="7.59"/>
	<rect x="121.07" y="114.9" class="st14" width="42.27" height="9.75"/>
	<rect x="156.83" y="47.71" class="st14" width="5.42" height="31.43"/>
	<rect x="83.13" y="24.95" class="st14" width="10.84" height="45.52"/>
	<rect x="121.07" y="15.2" class="st14" width="29.58" height="89"/>
	<rect x="119.98" y="131.16" class="st14" width="42.27" height="9.75"/>
	<rect x="37.61" y="18.45" class="st14" width="2.17" height="7.59"/>
	<rect x="37.61" y="31.45" class="st14" width="2.17" height="7.59"/>
</g>
<g>
	<g>
		<g>
			<rect x="185.76" y="22.5" width="309" height="137"/>
			<path class="st0" d="M490.26,27v128h-300V27H490.26 M499.26,18h-318v146h318V18L499.26,18z"/>
		</g>
		<g>
			<line class="st15" x1="340.76" y1="162" x2="340.76" y2="203"/>
		</g>
		<line class="st16" x1="266.76" y1="202.5" x2="418.26" y2="202.5"/>
	</g>
	
		<rect x="410.76" y="110.5" transform="matrix(6.123234e-17 -1 1 6.123234e-17 271.2553 558.2553)" class="st17" width="8" height="66"/>
	<rect x="195.26" y="34" class="st0" width="15" height="15"/>
	<rect x="215.26" y="34" class="st0" width="2" height="15"/>
	<rect x="215.26" y="34" class="st0" width="7" height="2"/>
	<rect x="215.26" y="40" class="st0" width="7" height="2"/>
	<rect x="222.26" y="34" class="st0" width="2" height="8"/>
	<rect x="226.26" y="34" class="st0" width="2" height="15"/>
	<rect x="228.26" y="47" class="st0" width="7" height="2"/>
	<rect x="228.26" y="41" class="st0" width="7" height="2"/>
	<rect x="228.26" y="34" class="st0" width="7" height="2"/>
	<rect x="237.26" y="34" class="st0" width="2" height="15"/>
	<rect x="239.26" y="47" class="st0" width="7" height="2"/>
	<rect x="239.26" y="34" class="st0" width="7" height="2"/>
	<rect x="293.76" y="68.5" class="st17" width="45" height="45"/>
	<line class="st18" x1="338.76" y1="113.5" x2="349.76" y2="106.5"/>
	<line class="st18" x1="337.76" y1="69.5" x2="350.16" y2="62.24"/>
	<line class="st18" x1="293.76" y1="68.5" x2="304.76" y2="62.5"/>
	<line class="st18" x1="304.26" y1="62.5" x2="349.26" y2="62.5"/>
	<line class="st18" x1="349.76" y1="107" x2="349.76" y2="62"/>
	<line class="st18" x1="335.46" y1="88.37" x2="347.86" y2="81.12"/>
	<rect x="303.76" y="63.5" class="st17" width="46" height="43"/>
	<rect x="343.76" y="69.5" class="st17" width="2" height="1"/>
	
		<rect x="336.72" y="105.35" transform="matrix(0.8632 -0.5049 0.5049 0.8632 -7.6632 187.4283)" class="st17" width="10.58" height="5"/>
	<rect x="329.76" y="97.5" class="st17" width="13" height="6"/>
	
		<rect x="295.43" y="65.9" transform="matrix(0.8632 -0.5049 0.5049 0.8632 6.6065 161.1888)" class="st17" width="10.58" height="5"/>
	<rect x="293.76" y="113.5" class="st17" width="1" height="43"/>
	
		<rect x="417.26" y="-10" transform="matrix(6.123234e-17 -1 1 6.123234e-17 354.7553 480.7553)" class="st17" width="1" height="146"/>
	<rect x="220.26" y="40" class="st0" width="2" height="4"/>
	<rect x="222.26" y="44" class="st0" width="2" height="5"/>
	<g>
		<rect x="199.76" y="136.5" class="st17" width="1" height="14"/>
		
			<rect x="206.26" y="143" transform="matrix(6.123234e-17 -1 1 6.123234e-17 56.7553 356.7553)" class="st17" width="1" height="14"/>
	</g>
	<g>
		
			<rect x="470.26" y="143" transform="matrix(-3.267960e-07 -1 1 -3.267960e-07 320.7555 620.7554)" class="st17" width="1" height="14"/>
		
			<rect x="476.76" y="136.5" transform="matrix(-1 3.267924e-07 -3.267924e-07 -1 954.5107 286.9998)" class="st17" width="1" height="14"/>
	</g>
	<g>
		
			<rect x="476.76" y="33.5" transform="matrix(-1 3.267960e-07 -3.267960e-07 -1 954.5107 80.9998)" class="st17" width="1" height="14"/>
		
			<rect x="470.26" y="27" transform="matrix(3.267960e-07 1 -1 3.267960e-07 504.7552 -436.7553)" class="st17" width="1" height="14"/>
	</g>
	<g>
		<rect x="209.76" y="68.5" class="st17" width="24" height="3"/>
		<rect x="236.76" y="68.5" class="st17" width="24" height="3"/>
		<rect x="209.76" y="74.5" class="st17" width="13" height="3"/>
		<rect x="225.76" y="74.5" class="st17" width="35" height="3"/>
		<rect x="246.76" y="80.5" class="st17" width="14" height="3"/>
		<rect x="209.76" y="86.5" class="st17" width="24" height="3"/>
		<rect x="214.76" y="80.5" class="st17" width="30" height="3"/>
		<rect x="209.76" y="80.5" class="st17" width="3" height="3"/>
		<rect x="236.76" y="86.5" class="st17" width="3" height="3"/>
		<rect x="242.76" y="86.5" class="st17" width="3" height="3"/>
		<rect x="248.76" y="86.5" class="st17" width="12" height="3"/>
	</g>
	
		<rect x="231.26" y="74" transform="matrix(6.123234e-17 -1 1 6.123234e-17 135.7553 334.7553)" class="st17" width="8" height="51"/>
	<rect x="371.76" y="74.5" class="st17" width="84" height="3"/>
	<rect x="371.76" y="75.5" class="st17" width="0" height="33"/>
	<rect x="455.76" y="75.94" class="st17" width="0" height="32.56"/>
	<rect x="371.76" y="107.5" class="st17" width="84" height="1"/>
	<rect x="448.76" y="74.5" class="st19" width="3" height="3"/>
	<rect x="445.76" y="75.5" class="st19" width="3" height="2"/>
	
		<rect x="440.76" y="93.5" transform="matrix(6.123234e-17 -1 1 6.123234e-17 337.2553 545.2553)" class="st17" width="1" height="21"/>
	<rect x="375.76" y="89.5" class="st17" width="1" height="15"/>
</g>
<g>
	<g>
		<path d="M303.41,323.95c-3.52,11.92-12.33,20.93-28.22,20.93c-21.55,0-32.88-17.11-32.88-38.18c0-20.22,11.13-38.62,33-38.62
			c16.23,0,25.75,9.04,28.2,21.56h-6c-3.38-9.65-9.64-16.05-22.53-16.05c-18.5,0-26.25,16.9-26.25,33
			c0,15.97,7.63,32.79,26.68,32.79c12.16,0,18.3-6.33,21.99-15.42H303.41z"/>
		<path d="M315.62,290.47c10.7,30.35,15.41,43.07,17.21,48.84h0.11c2.12-6.51,6.38-18.92,16.67-48.84h5.77l-20.08,56.61
			c-5.66,15.84-9.53,19.39-19.24,19.39c-1.91,0-3.24-0.11-4.97-0.32v-5.5c1.59,0.21,3.09,0.32,4.8,0.32
			c7.66,0,10.13-3.71,14.05-14.62l-20.43-55.88H315.62z"/>
		<path d="M365.55,265.17h5.57v34.22c2.56-5.31,7.79-10.2,18.24-10.2c12.68,0,21.95,10.42,21.95,26.88
			c0,16.88-8.34,29.23-23.34,29.23c-8.97,0-14.07-3.61-16.85-9.67c0,3.39-0.11,6.89-0.22,8.38h-5.45c0.11-6.1,0.11-12.2,0.11-18.29
			V265.17z M405.42,316.18c0-13.28-6.56-21.8-16.69-21.8c-13.27,0-17.95,9.02-17.95,22.98c0,12.55,4.14,22.76,17.32,22.76
			C398.85,340.11,405.42,331.17,405.42,316.18z"/>
		<path d="M425.92,317.94c0.11,13.65,6.98,22.17,17.2,22.17c9.98,0,13.37-5.6,15.28-9.97h5.67c-2.24,7.05-7.92,15.15-21.17,15.15
			c-16.31,0-22.65-14.01-22.65-27.62c0-15.34,7.62-28.49,23.29-28.49c16.53,0,21.8,14.22,21.8,24.36c0,1.51,0,3-0.11,4.39H425.92z
			 M459.57,313.13c-0.11-10.5-5.81-18.79-16.24-18.79c-10.94,0-15.92,7.65-17.09,18.79H459.57z"/>
		<path d="M478.33,305.04c0-8.91-0.1-12.79-0.11-14.56h5.46c0.11,1.7,0.22,5.17,0.22,11.93c3.09-7.99,9.92-12.8,18.6-13.22v5.97
			c-11.13,0.73-18.6,8.33-18.6,21.11v27.74h-5.57V305.04z"/>
	</g>
</g>
<rect x="1063" y="0" class="st0" width="764.9" height="209.66"/>
<text transform="matrix(1.2222 0 0 1 1083 162.4805)" style="font-family:'Roboto-Regular'; font-size:186.4234px;">Games</text>
<g>
	<path class="st0" d="M532.11,44.46h18.43v73.73h18.43V81.32h18.43v36.87h18.43V44.46h18.43v82.95h-9.22v9.22h-9.22v18.43h-18.43
		v-18.43h-18.43v18.43h-18.43v-18.43h-9.22v-9.22h-9.22V44.46z"/>
	<path class="st0" d="M642.7,72.11h9.22v-9.22h55.3v9.22h9.22v73.73h-9.22v9.22h-55.3v-9.22h-9.22V72.11z M661.13,136.62H698v-55.3
		h-36.87V136.62z"/>
	<path class="st0" d="M734.86,62.89h18.43v9.22h9.22v-9.22h36.86v9.22h9.22v18.43h-18.43v-9.22h-27.65v9.22h-9.22v64.51h-18.43
		V62.89z"/>
	<path class="st0" d="M827.03,44.46h18.43v110.59h-18.43V44.46z"/>
	<path class="st0" d="M863.89,81.32h9.22v-9.22h46.08V44.46h18.43v110.59h-64.51v-9.22h-9.22V81.32z M882.32,136.62h36.87V90.54
		h-36.87V136.62z"/>
	<path class="st0" d="M956.05,72.11h9.22v-9.22h64.51v18.43h-55.3v18.43h46.08v9.22h9.22v36.87h-9.22v9.22h-64.51v-18.43h55.3
		v-18.43h-46.08v-9.22h-9.22V72.11z"/>
</g>
<g>
	<rect x="29.91" y="231.32" class="st3" width="88.33" height="197.25"/>
	<line class="st4" x1="119.86" y1="430.19" x2="169.72" y2="408.51"/>
	<line class="st4" x1="120.95" y1="229.69" x2="169.72" y2="245.95"/>
	<line class="st4" x1="167.55" y1="242.7" x2="167.55" y2="411.77"/>
	
		<rect x="118.33" y="397.1" transform="matrix(0.934 -0.3573 0.3573 0.934 -135.821 77.8235)" class="st5" width="48.77" height="18.82"/>
	
		<rect x="119.82" y="388.55" transform="matrix(0.9881 -0.1538 0.1538 0.9881 -58.9648 26.6688)" class="st5" width="46.19" height="11.92"/>
	
		<rect x="119.81" y="237.44" transform="matrix(0.9487 0.3162 -0.3162 0.9487 83.6285 -32.8764)" class="st5" width="46.61" height="7.59"/>
	<rect x="123.12" y="340.24" class="st5" width="42.27" height="9.75"/>
	<rect x="158.88" y="273.04" class="st5" width="5.42" height="31.43"/>
	<rect x="85.18" y="250.28" class="st5" width="10.84" height="45.52"/>
	<rect x="123.12" y="240.53" class="st5" width="29.58" height="89"/>
	<rect x="122.03" y="356.49" class="st5" width="42.27" height="9.75"/>
	<rect x="39.66" y="243.78" class="st5" width="2.17" height="7.59"/>
	<rect x="39.66" y="256.79" class="st5" width="2.17" height="7.59"/>
</g>
<g>
	<g>
		<path d="M520.3,243v136.94h-300V243H520.3 M529.3,234h-318v154.94h318V234L529.3,234z"/>
	</g>
	<g>
		<line class="st1" x1="370.8" y1="386.82" x2="370.8" y2="430.33"/>
	</g>
	<line class="st2" x1="296.8" y1="429.8" x2="448.3" y2="429.8"/>
</g>
<g>
	<rect x="1272" y="235" width="713" height="204.76"/>
	<g>
		<g>
			<path class="st0" d="M1453.96,395.8h-9.1c-0.79-1.52-1.19-8.1-1.39-20.43c-4.96,8.84-15.8,21.92-44.23,21.92
				c-39.43,0-59.67-28.14-59.67-64.74c0-38.44,21.62-67.32,61.9-67.32c29.74,0,49.37,14.62,53.67,38.31h-11
				c-5.82-18-19.22-28.84-43.06-28.84c-34.19,0-49.72,24.95-49.72,57.29c0,29.27,14.98,55.83,48.38,55.83
				c34.13,0,43.63-20.87,43.63-49.01v-1.46h-44.02v-9.49h54.62V395.8z"/>
			<path class="st0" d="M1552.35,378.17c0,8.12,0.78,14.7,1.37,17.63h-9.79c-0.79-2.2-1.37-6.27-1.76-14.06
				c-3.34,6.78-11.94,16.27-32.09,16.27c-22.79,0-32.62-13.83-32.62-27.65c0-20.27,16.72-29.49,46.15-29.49c8.17,0,14.64,0,18.55,0
				v-9.31c0-9.15-2.94-21.35-25.1-21.35c-19.64,0-22.58,9.64-24.72,17.17h-10.18c1.18-10.27,7.95-25.86,35.11-25.86
				c22.47,0,35.07,8.86,35.07,29.15V378.17z M1542.35,348.96c-3.7,0-12.64,0-19.06,0c-21.67,0-35.05,5.32-35.05,21
				c0,11.49,8.73,19.35,22.39,19.35c27.83,0,31.72-17.35,31.72-37.06V348.96z"/>
			<path class="st0" d="M1584.55,327.49c0-7.92,0-16.55-0.2-23.75h9.99c0.2,3.11,0.6,10.96,0.41,16.26
				c4.14-9.15,13.15-18.47,29.4-18.47c13.75,0,24.48,6.45,28.4,18.13c4.93-9.53,14.71-18.13,31.96-18.13
				c15.16,0,30.83,8.14,30.83,33.7v60.57h-10.19v-59.42c0-12.25-4.68-25.57-22.78-25.57c-18.88,0-27.42,14.2-27.42,31.97v53.02h-10
				v-59.22c0-13.35-4.28-25.76-22.2-25.76c-18.87,0-28,15.62-28,34.33v50.65h-10.2V327.49z"/>
			<path class="st0" d="M1749.97,350.97c0.19,23.48,12.81,38.13,31.53,38.13c18.29,0,24.51-9.63,28.02-17.14h10.4
				c-4.11,12.13-14.52,26.05-38.82,26.05c-29.9,0-41.54-24.09-41.54-47.49c0-26.39,13.98-48.99,42.71-48.99
				c30.31,0,39.97,24.45,39.97,41.89c0,2.59,0,5.15-0.2,7.55H1749.97z M1811.66,342.7c-0.2-18.06-10.66-32.3-29.77-32.3
				c-20.06,0-29.2,13.15-31.33,32.3H1811.66z"/>
			<path class="st0" d="M1846.5,370.34c3.31,11.86,12.28,18.98,27.67,18.98c17.31,0,24.3-7.46,24.3-17.66
				c0-10.39-4.7-15.48-26.51-20.42c-25.48-5.75-31.74-12.97-31.74-25.14c0-12.72,10.21-24.56,32.56-24.56
				c22.36,0,32.95,12.76,34.5,25.82h-10.18c-1.75-7.63-8.13-17.14-24.74-17.14c-16.9,0-21.76,7.82-21.76,15.12
				c0,8.38,4.67,12.57,24.03,16.97c27.8,6.28,34.62,14.79,34.62,28.6c0,16.72-14.48,27.11-35.3,27.11
				c-22.55,0-35.11-11.1-37.84-27.67H1846.5z"/>
		</g>
	</g>
</g>
<g>
	<g>
		<path d="M597.34,431.57l-45.35-172.09h13.64c11.1,42.11,35.54,135.97,39.25,156.1h0.23c3.11-16.31,29.8-110.7,41.24-156.1h14.43
			c10.72,41.85,36.74,142.16,39.38,155.82h0.23c5.16-24.63,32.31-115.07,43.44-155.82h13.34l-49.99,172.09h-14.99
			c-10.73-40.51-36.01-139.14-38.88-154.21h-0.23c-4.25,22.55-29.32,111.6-40.96,154.21H597.34z"/>
		<path d="M877.22,369.79c0,34.28-18.12,64.73-53.1,64.73c-31.75,0-51.48-27.32-51.48-64.47c0-35.26,18.59-64.49,52.66-64.49
			C856.55,305.56,877.22,331.15,877.22,369.79z M785.53,370.04c0,29.16,14.88,52.57,39.52,52.57c25.11,0,39.28-21.73,39.28-52.57
			c0-28.97-13.95-52.58-39.75-52.58C798.12,317.46,785.53,340.58,785.53,370.04z"/>
		<path d="M906.11,341.98c0-20.48-0.23-29.39-0.23-33.47h11.94c0.24,3.91,0.48,11.88,0.48,27.43c6.76-18.36,21.71-29.42,40.72-30.38
			v13.72c-24.36,1.67-40.72,19.14-40.72,48.53v63.76h-12.19V341.98z"/>
		<path d="M982.47,431.57V250.36h12.19v181.21H982.47z"/>
		<path d="M1123.69,250.36v145.81c0,11.8,0,23.12,0.23,35.4h-11.7c-0.47-2.97-0.72-14.42-0.72-20.5
			c-5.86,14.89-18.92,23.45-39.25,23.45c-30.46,0-48.75-26.06-48.75-63.01c0-37.9,19.93-65.95,51.84-65.95
			c23.29,0,32.66,10.49,36.16,18.31v-73.51H1123.69z M1036.4,371c0,33.5,16.47,51.59,36.53,51.59c30.75,0,39.06-22.33,39.06-55.45
			c0-31.51-7.17-49.67-36.98-49.67C1051.95,317.48,1036.4,336.8,1036.4,371z"/>
		<path d="M1162.43,397.54c3.95,15.86,14.66,25.36,33.04,25.36c20.66,0,29.01-9.97,29.01-23.61c0-13.89-5.61-20.7-31.66-27.29
			c-30.42-7.68-37.89-17.34-37.89-33.61c0-17.01,12.19-32.83,38.88-32.83c26.69,0,39.34,17.06,41.19,34.51h-12.15
			c-2.09-10.21-9.71-22.91-29.53-22.91c-20.18,0-25.98,10.46-25.98,20.21c0,11.21,5.58,16.8,28.7,22.68
			c33.19,8.39,41.33,19.78,41.33,38.23c0,22.35-17.29,36.24-42.15,36.24c-26.92,0-41.92-14.84-45.18-36.98H1162.43z"/>
	</g>
</g>
<line class="st20" x1="424" y1="356" x2="511" y2="356"/>
<line class="st21" x1="232" y1="260" x2="232" y2="363"/>
<rect x="-20" y="-15" width="20" height="228"/>
</svg>
