<?xml version="1.0" encoding="utf-8"?>
<!-- Generator: Adobe Illustrator 25.4.1, SVG Export Plug-In . SVG Version: 6.00 Build 0)  -->
<svg version="1.1" id="Слой_1" xmlns="http://www.w3.org/2000/svg" xmlns:xlink="http://www.w3.org/1999/xlink" x="0px" y="0px"
	 viewBox="0 0 155 217" style="enable-background:new 0 0 155 217;" xml:space="preserve">
<style type="text/css">
	.st0{fill:#FFFFFF;}
	.st1{fill:none;stroke:#FFFFFF;stroke-width:9;stroke-miterlimit:10;}
	.st2{fill:none;stroke:#FFFFFF;stroke-width:5;stroke-miterlimit:10;}
	.st3{fill:#FFFFFF;stroke:#FFFFFF;stroke-width:9;stroke-miterlimit:10;}
	.st4{fill:none;stroke:#FFFFFF;stroke-width:7;stroke-miterlimit:10;}
	.st5{stroke:#FFFFFF;stroke-width:3;stroke-miterlimit:10;}
	.st6{fill:#FFFFFF;stroke:#FFFFFF;stroke-width:4;stroke-miterlimit:10;}
	.st7{stroke:#FFFFFF;stroke-width:2;stroke-miterlimit:10;}
	.st8{fill:#FFFFFF;stroke:#FFFFFF;stroke-width:2;stroke-miterlimit:10;}
	.st9{stroke:#FFFFFF;stroke-miterlimit:10;}
	.st10{fill:none;stroke:#FFFFFF;stroke-miterlimit:10;}
	.st11{fill:#FFFFFF;stroke:#FFFFFF;stroke-miterlimit:10;}
</style>
<g>
	<g>
		<rect x="163.5" y="-64.5" class="st0" width="309" height="137"/>
		<path d="M468-60V68H168V-60H468 M477-69H159V77h318V-69L477-69z"/>
	</g>
	<g>
		<line class="st1" x1="318.5" y1="75" x2="318.5" y2="116"/>
	</g>
	<line class="st2" x1="244.5" y1="115.5" x2="396" y2="115.5"/>
</g>
<g>
	<rect x="10.5" y="10.13" class="st3" width="88.33" height="197.25"/>
	<line class="st4" x1="100.45" y1="209" x2="150.31" y2="187.32"/>
	<line class="st4" x1="101.54" y1="8.5" x2="150.31" y2="24.76"/>
	<line class="st4" x1="148.14" y1="21.51" x2="148.14" y2="190.58"/>
	
		<rect x="98.92" y="175.91" transform="matrix(0.934 -0.3573 0.3573 0.934 -58.0732 56.2888)" class="st5" width="48.77" height="18.82"/>
	
		<rect x="100.41" y="167.36" transform="matrix(0.9881 -0.1538 0.1538 0.9881 -25.1825 21.0534)" class="st5" width="46.19" height="11.92"/>
	
		<rect x="100.4" y="16.25" transform="matrix(0.9487 0.3162 -0.3162 0.9487 12.6859 -38.0893)" class="st5" width="46.61" height="7.59"/>
	<rect x="103.71" y="119.05" class="st5" width="42.27" height="9.75"/>
	<rect x="139.47" y="51.85" class="st5" width="5.42" height="31.43"/>
	<rect x="65.77" y="29.09" class="st5" width="10.84" height="45.52"/>
	<rect x="103.71" y="19.34" class="st5" width="29.58" height="89"/>
	<rect x="102.62" y="135.3" class="st5" width="42.27" height="9.75"/>
	<rect x="20.25" y="22.59" class="st5" width="2.17" height="7.59"/>
	<rect x="20.25" y="35.59" class="st5" width="2.17" height="7.59"/>
</g>
<g>
	<rect x="453" y="161" class="st6" width="25" height="39"/>
	<rect x="463" y="167" class="st7" width="5" height="12"/>
	<rect x="454" y="162" class="st8" width="5" height="13"/>
	<rect x="472" y="162" class="st8" width="5" height="13"/>
	<rect x="451" y="176" class="st6" width="1" height="6"/>
	<rect x="451" y="187" class="st6" width="1" height="6"/>
</g>
<g>
	<rect x="309" y="130" width="4" height="13"/>
	<rect x="465" y="134" width="3" height="25"/>
	<rect x="145" y="130" width="323" height="4"/>
	<rect x="221" y="72" width="4" height="59"/>
</g>
<g>
	<rect x="179.5" y="145.5" class="st2" width="258" height="74"/>
	<rect x="194" y="203" width="34" height="8"/>
	<rect x="240" y="203" width="134" height="8"/>
	<rect x="383" y="203" width="34" height="8"/>
	<g>
		<rect x="197.5" y="157.5" class="st2" width="11" height="4"/>
		<rect x="217.5" y="157.5" class="st2" width="11" height="4"/>
		<rect x="197.5" y="169.5" class="st2" width="11" height="4"/>
		<rect x="217.5" y="169.5" class="st2" width="11" height="4"/>
		<rect x="197.5" y="181.5" class="st2" width="11" height="4"/>
		<rect x="217.5" y="181.5" class="st2" width="11" height="4"/>
	</g>
	<g>
		<rect x="384.5" y="157.5" class="st2" width="11" height="4"/>
		<rect x="404.5" y="157.5" class="st2" width="11" height="4"/>
		<rect x="384.5" y="169.5" class="st2" width="11" height="4"/>
		<rect x="404.5" y="169.5" class="st2" width="11" height="4"/>
		<rect x="384.5" y="181.5" class="st2" width="11" height="4"/>
		<rect x="404.5" y="181.5" class="st2" width="11" height="4"/>
	</g>
	<g>
		<rect x="242.5" y="157.5" class="st2" width="11" height="4"/>
		<rect x="262.5" y="157.5" class="st2" width="11" height="4"/>
		<rect x="242.5" y="169.5" class="st2" width="11" height="4"/>
		<rect x="262.5" y="169.5" class="st2" width="11" height="4"/>
		<rect x="242.5" y="181.5" class="st2" width="11" height="4"/>
		<rect x="262.5" y="181.5" class="st2" width="11" height="4"/>
		<rect x="281.5" y="157.5" class="st2" width="11" height="4"/>
		<rect x="301.5" y="157.5" class="st2" width="11" height="4"/>
		<rect x="281.5" y="169.5" class="st2" width="11" height="4"/>
		<rect x="301.5" y="169.5" class="st2" width="11" height="4"/>
		<rect x="281.5" y="181.5" class="st2" width="11" height="4"/>
		<rect x="301.5" y="181.5" class="st2" width="11" height="4"/>
		<rect x="320.5" y="157.5" class="st2" width="11" height="4"/>
		<rect x="340.5" y="157.5" class="st2" width="11" height="4"/>
		<rect x="320.5" y="169.5" class="st2" width="11" height="4"/>
		<rect x="340.5" y="169.5" class="st2" width="11" height="4"/>
		<rect x="320.5" y="181.5" class="st2" width="11" height="4"/>
		<rect x="340.5" y="181.5" class="st2" width="11" height="4"/>
		<rect x="360.5" y="157.5" class="st2" width="11" height="4"/>
		<rect x="360.5" y="169.5" class="st2" width="11" height="4"/>
		<rect x="360.5" y="181.5" class="st2" width="11" height="4"/>
	</g>
</g>
<g>
	<rect x="-2" y="-44" class="st0" width="3" height="11"/>
	<rect x="-2" y="-33" class="st0" width="13" height="3"/>
	<rect x="8" y="-44" class="st0" width="3" height="11"/>
	<rect x="8" y="-30" class="st0" width="3" height="11"/>
	<rect x="17" y="-44" class="st0" width="3" height="11"/>
	<rect x="17" y="-33" class="st0" width="13" height="3"/>
	<rect x="27" y="-44" class="st0" width="3" height="11"/>
	<rect x="27" y="-30" class="st0" width="3" height="11"/>
	<rect x="-12" y="-44" class="st0" width="3" height="25"/>
	<rect x="45" y="-44" class="st0" width="3" height="25"/>
	<rect x="46" y="-44" class="st0" width="13" height="2"/>
	<rect x="58" y="-42" class="st0" width="1" height="0"/>
	<rect x="46" y="-33" class="st0" width="13" height="2"/>
	<rect x="62" y="-44" class="st0" width="3" height="25"/>
	<rect x="63" y="-44" class="st0" width="13" height="2"/>
	<rect x="75" y="-42" class="st0" width="1" height="0"/>
	<rect x="63" y="-33" class="st0" width="13" height="2"/>
	<rect x="73" y="-44" class="st0" width="3" height="13"/>
	<rect x="80" y="-44" class="st0" width="3" height="13"/>
	<rect x="81" y="-44" class="st0" width="13" height="2"/>
	<rect x="93" y="-42" class="st0" width="1" height="0"/>
	<rect x="81" y="-33" class="st0" width="13" height="2"/>
	<rect x="91" y="-31" class="st0" width="3" height="12"/>
	<rect x="80" y="-21" class="st0" width="13" height="2"/>
</g>
<rect x="388.5" y="23.5" transform="matrix(6.123234e-17 -1 1 6.123234e-17 336 449)" class="st9" width="8" height="66"/>
<rect x="173" y="-53" width="15" height="15"/>
<rect x="193" y="-53" width="2" height="15"/>
<rect x="193" y="-53" width="7" height="2"/>
<rect x="193" y="-47" width="7" height="2"/>
<rect x="200" y="-53" width="2" height="8"/>
<rect x="204" y="-53" width="2" height="15"/>
<rect x="206" y="-40" width="7" height="2"/>
<rect x="206" y="-46" width="7" height="2"/>
<rect x="206" y="-53" width="7" height="2"/>
<rect x="215" y="-53" width="2" height="15"/>
<rect x="217" y="-40" width="7" height="2"/>
<rect x="217" y="-53" width="7" height="2"/>
<rect x="271.5" y="-18.5" class="st9" width="45" height="45"/>
<line class="st10" x1="316.5" y1="26.5" x2="327.5" y2="19.5"/>
<line class="st10" x1="315.5" y1="-17.5" x2="327.9" y2="-24.76"/>
<line class="st10" x1="271.5" y1="-18.5" x2="282.5" y2="-24.5"/>
<line class="st10" x1="282" y1="-24.5" x2="327" y2="-24.5"/>
<line class="st10" x1="327.5" y1="20" x2="327.5" y2="-25"/>
<line class="st10" x1="313.2" y1="1.37" x2="325.61" y2="-5.88"/>
<rect x="281.5" y="-23.5" class="st9" width="46" height="43"/>
<rect x="321.5" y="-17.5" class="st9" width="2" height="1"/>
<rect x="314.46" y="18.35" transform="matrix(0.8632 -0.5049 0.5049 0.8632 33.2168 164.2893)" class="st9" width="10.58" height="5"/>
<rect x="307.5" y="10.5" class="st9" width="13" height="6"/>
<rect x="273.18" y="-21.1" transform="matrix(0.8632 -0.5049 0.5049 0.8632 47.4866 138.0498)" class="st9" width="10.58" height="5"/>
<rect x="271.5" y="26.5" class="st9" width="1" height="43"/>
<rect x="395" y="-97" transform="matrix(6.123234e-17 -1 1 6.123234e-17 419.5 371.5)" class="st9" width="1" height="146"/>
<rect x="198" y="-47" width="2" height="4"/>
<rect x="200" y="-43" width="2" height="5"/>
<g>
	<rect x="177.5" y="49.5" class="st9" width="1" height="14"/>
	<rect x="184" y="56" transform="matrix(6.123234e-17 -1 1 6.123234e-17 121.5 247.5)" class="st9" width="1" height="14"/>
</g>
<g>
	<rect x="448" y="56" transform="matrix(-3.267951e-07 -1 1 -3.267951e-07 385.5002 511.5)" class="st9" width="1" height="14"/>
	<rect x="454.5" y="49.5" transform="matrix(-1 3.267942e-07 -3.267942e-07 -1 910 112.9999)" class="st9" width="1" height="14"/>
</g>
<g>
	<rect x="454.5" y="-53.5" transform="matrix(-1 3.267960e-07 -3.267960e-07 -1 910 -93.0001)" class="st9" width="1" height="14"/>
	<rect x="448" y="-60" transform="matrix(3.267942e-07 1 -1 3.267942e-07 395.4998 -501.5)" class="st9" width="1" height="14"/>
</g>
<g>
	<rect x="187.5" y="-18.5" class="st9" width="24" height="3"/>
	<rect x="214.5" y="-18.5" class="st9" width="24" height="3"/>
	<rect x="187.5" y="-12.5" class="st9" width="13" height="3"/>
	<rect x="203.5" y="-12.5" class="st9" width="35" height="3"/>
	<rect x="224.5" y="-6.5" class="st9" width="14" height="3"/>
	<rect x="187.5" y="-0.5" class="st9" width="24" height="3"/>
	<rect x="192.5" y="-6.5" class="st9" width="30" height="3"/>
	<rect x="187.5" y="-6.5" class="st9" width="3" height="3"/>
	<rect x="214.5" y="-0.5" class="st9" width="3" height="3"/>
	<rect x="220.5" y="-0.5" class="st9" width="3" height="3"/>
	<rect x="226.5" y="-0.5" class="st9" width="12" height="3"/>
</g>
<rect x="209" y="-13" transform="matrix(6.123234e-17 -1 1 6.123234e-17 200.5 225.5)" class="st9" width="8" height="51"/>
<rect x="349.5" y="-12.5" class="st9" width="84" height="3"/>
<rect x="349.5" y="-11.5" class="st9" width="0" height="33"/>
<rect x="433.5" y="-11.06" class="st9" width="0" height="32.56"/>
<rect x="349.5" y="20.5" class="st9" width="84" height="1"/>
<rect x="426.5" y="-12.5" class="st11" width="3" height="3"/>
<rect x="423.5" y="-11.5" class="st11" width="3" height="2"/>
<rect x="418.5" y="6.5" transform="matrix(6.123234e-17 -1 1 6.123234e-17 402 436)" class="st9" width="1" height="21"/>
<rect x="353.5" y="2.5" class="st9" width="1" height="15"/>
</svg>
