<?xml version="1.0" encoding="utf-8"?>
<!-- Generator: Adobe Illustrator 25.4.1, SVG Export Plug-In . SVG Version: 6.00 Build 0)  -->
<svg version="1.1" id="Слой_1" xmlns="http://www.w3.org/2000/svg" xmlns:xlink="http://www.w3.org/1999/xlink" x="0px" y="0px"
	 viewBox="0 0 535 325" style="enable-background:new 0 0 535 325;" xml:space="preserve">
<style type="text/css">
	.st0{fill:#FFFFFF;}
	.st1{fill:none;stroke:#FFFFFF;stroke-width:9;stroke-miterlimit:10;}
	.st2{fill:none;stroke:#FFFFFF;stroke-width:5;stroke-miterlimit:10;}
	.st3{fill:#FFFFFF;stroke:#FFFFFF;stroke-width:9;stroke-miterlimit:10;}
	.st4{fill:none;stroke:#FFFFFF;stroke-width:7;stroke-miterlimit:10;}
	.st5{stroke:#FFFFFF;stroke-width:3;stroke-miterlimit:10;}
	.st6{fill:#FFFFFF;stroke:#FFFFFF;stroke-width:4;stroke-miterlimit:10;}
	.st7{stroke:#FFFFFF;stroke-width:2;stroke-miterlimit:10;}
	.st8{fill:#FFFFFF;stroke:#FFFFFF;stroke-width:2;stroke-miterlimit:10;}
	.st9{stroke:#FFFFFF;stroke-miterlimit:10;}
	.st10{fill:none;stroke:#FFFFFF;stroke-miterlimit:10;}
</style>
<g>
	<g>
		<rect x="175.5" y="22.5" class="st0" width="309" height="137"/>
		<path d="M480,27v128H180V27H480 M489,18H171v146h318V18L489,18z"/>
	</g>
	<g>
		<line class="st1" x1="330.5" y1="162" x2="330.5" y2="203"/>
	</g>
	<line class="st2" x1="256.5" y1="202.5" x2="408" y2="202.5"/>
</g>
<g>
	<rect x="22.5" y="97.13" class="st3" width="88.33" height="197.25"/>
	<line class="st4" x1="112.45" y1="296" x2="162.31" y2="274.32"/>
	<line class="st4" x1="113.54" y1="95.5" x2="162.31" y2="111.76"/>
	<line class="st4" x1="160.14" y1="108.51" x2="160.14" y2="277.58"/>
	
		<rect x="110.92" y="262.91" transform="matrix(0.934 -0.3573 0.3573 0.934 -88.3653 66.3188)" class="st5" width="48.77" height="18.82"/>
	
		<rect x="112.41" y="254.36" transform="matrix(0.9881 -0.1538 0.1538 0.9881 -38.418 23.9334)" class="st5" width="46.19" height="11.92"/>
	
		<rect x="112.4" y="103.25" transform="matrix(0.9487 0.3162 -0.3162 0.9487 40.8135 -37.4194)" class="st5" width="46.61" height="7.59"/>
	<rect x="115.71" y="206.05" class="st5" width="42.27" height="9.75"/>
	<rect x="151.47" y="138.85" class="st5" width="5.42" height="31.43"/>
	<rect x="77.77" y="116.09" class="st5" width="10.84" height="45.52"/>
	<rect x="115.71" y="106.34" class="st5" width="29.58" height="89"/>
	<rect x="114.62" y="222.3" class="st5" width="42.27" height="9.75"/>
	<rect x="32.25" y="109.59" class="st5" width="2.17" height="7.59"/>
	<rect x="32.25" y="122.59" class="st5" width="2.17" height="7.59"/>
</g>
<g>
	<rect x="465" y="248" class="st6" width="25" height="39"/>
	<rect x="475" y="254" class="st7" width="5" height="12"/>
	<rect x="466" y="249" class="st8" width="5" height="13"/>
	<rect x="484" y="249" class="st8" width="5" height="13"/>
	<rect x="463" y="263" class="st6" width="1" height="6"/>
	<rect x="463" y="274" class="st6" width="1" height="6"/>
</g>
<g>
	<rect x="321" y="217" width="4" height="13"/>
	<rect x="477" y="221" width="3" height="25"/>
	<rect x="157" y="217" width="323" height="4"/>
	<rect x="233" y="159" width="4" height="59"/>
</g>
<g>
	<rect x="191.5" y="232.5" class="st2" width="258" height="74"/>
	<rect x="206" y="290" width="34" height="8"/>
	<rect x="252" y="290" width="134" height="8"/>
	<rect x="395" y="290" width="34" height="8"/>
	<g>
		<rect x="209.5" y="244.5" class="st2" width="11" height="4"/>
		<rect x="229.5" y="244.5" class="st2" width="11" height="4"/>
		<rect x="209.5" y="256.5" class="st2" width="11" height="4"/>
		<rect x="229.5" y="256.5" class="st2" width="11" height="4"/>
		<rect x="209.5" y="268.5" class="st2" width="11" height="4"/>
		<rect x="229.5" y="268.5" class="st2" width="11" height="4"/>
	</g>
	<g>
		<rect x="396.5" y="244.5" class="st2" width="11" height="4"/>
		<rect x="416.5" y="244.5" class="st2" width="11" height="4"/>
		<rect x="396.5" y="256.5" class="st2" width="11" height="4"/>
		<rect x="416.5" y="256.5" class="st2" width="11" height="4"/>
		<rect x="396.5" y="268.5" class="st2" width="11" height="4"/>
		<rect x="416.5" y="268.5" class="st2" width="11" height="4"/>
	</g>
	<g>
		<rect x="254.5" y="244.5" class="st2" width="11" height="4"/>
		<rect x="274.5" y="244.5" class="st2" width="11" height="4"/>
		<rect x="254.5" y="256.5" class="st2" width="11" height="4"/>
		<rect x="274.5" y="256.5" class="st2" width="11" height="4"/>
		<rect x="254.5" y="268.5" class="st2" width="11" height="4"/>
		<rect x="274.5" y="268.5" class="st2" width="11" height="4"/>
		<rect x="293.5" y="244.5" class="st2" width="11" height="4"/>
		<rect x="313.5" y="244.5" class="st2" width="11" height="4"/>
		<rect x="293.5" y="256.5" class="st2" width="11" height="4"/>
		<rect x="313.5" y="256.5" class="st2" width="11" height="4"/>
		<rect x="293.5" y="268.5" class="st2" width="11" height="4"/>
		<rect x="313.5" y="268.5" class="st2" width="11" height="4"/>
		<rect x="332.5" y="244.5" class="st2" width="11" height="4"/>
		<rect x="352.5" y="244.5" class="st2" width="11" height="4"/>
		<rect x="332.5" y="256.5" class="st2" width="11" height="4"/>
		<rect x="352.5" y="256.5" class="st2" width="11" height="4"/>
		<rect x="332.5" y="268.5" class="st2" width="11" height="4"/>
		<rect x="352.5" y="268.5" class="st2" width="11" height="4"/>
		<rect x="372.5" y="244.5" class="st2" width="11" height="4"/>
		<rect x="372.5" y="256.5" class="st2" width="11" height="4"/>
		<rect x="372.5" y="268.5" class="st2" width="11" height="4"/>
	</g>
</g>
<g>
	<rect x="10" y="43" class="st0" width="3" height="11"/>
	<rect x="10" y="54" class="st0" width="13" height="3"/>
	<rect x="20" y="43" class="st0" width="3" height="11"/>
	<rect x="20" y="57" class="st0" width="3" height="11"/>
	<rect x="29" y="43" class="st0" width="3" height="11"/>
	<rect x="29" y="54" class="st0" width="13" height="3"/>
	<rect x="39" y="43" class="st0" width="3" height="11"/>
	<rect x="39" y="57" class="st0" width="3" height="11"/>
	<rect y="43" class="st0" width="3" height="25"/>
	<rect x="57" y="43" class="st0" width="3" height="25"/>
	<rect x="58" y="43" class="st0" width="13" height="2"/>
	<rect x="70" y="45" class="st0" width="1" height="0"/>
	<rect x="58" y="54" class="st0" width="13" height="2"/>
	<rect x="74" y="43" class="st0" width="3" height="25"/>
	<rect x="75" y="43" class="st0" width="13" height="2"/>
	<rect x="87" y="45" class="st0" width="1" height="0"/>
	<rect x="75" y="54" class="st0" width="13" height="2"/>
	<rect x="85" y="43" class="st0" width="3" height="13"/>
	<rect x="92" y="43" class="st0" width="3" height="13"/>
	<rect x="93" y="43" class="st0" width="13" height="2"/>
	<rect x="105" y="45" class="st0" width="1" height="0"/>
	<rect x="93" y="54" class="st0" width="13" height="2"/>
	<rect x="103" y="56" class="st0" width="3" height="12"/>
	<rect x="92" y="66" class="st0" width="13" height="2"/>
</g>
<rect x="400.5" y="110.5" transform="matrix(6.123234e-17 -1 1 6.123234e-17 261 548)" class="st9" width="8" height="66"/>
<rect x="185" y="34" width="15" height="15"/>
<rect x="205" y="34" width="2" height="15"/>
<rect x="205" y="34" width="7" height="2"/>
<rect x="205" y="40" width="7" height="2"/>
<rect x="212" y="34" width="2" height="8"/>
<rect x="216" y="34" width="2" height="15"/>
<rect x="218" y="47" width="7" height="2"/>
<rect x="218" y="41" width="7" height="2"/>
<rect x="218" y="34" width="7" height="2"/>
<rect x="227" y="34" width="2" height="15"/>
<rect x="229" y="47" width="7" height="2"/>
<rect x="229" y="34" width="7" height="2"/>
<rect x="283.5" y="68.5" class="st9" width="45" height="45"/>
<line class="st10" x1="328.5" y1="113.5" x2="339.5" y2="106.5"/>
<line class="st10" x1="327.5" y1="69.5" x2="339.9" y2="62.24"/>
<line class="st10" x1="283.5" y1="68.5" x2="294.5" y2="62.5"/>
<line class="st10" x1="294" y1="62.5" x2="339" y2="62.5"/>
<line class="st10" x1="339.5" y1="107" x2="339.5" y2="62"/>
<line class="st10" x1="325.2" y1="88.37" x2="337.61" y2="81.12"/>
<rect x="293.5" y="63.5" class="st9" width="46" height="43"/>
<rect x="333.5" y="69.5" class="st9" width="2" height="1"/>
<rect x="326.46" y="105.35" transform="matrix(0.8632 -0.5049 0.5049 0.8632 -9.0663 182.2506)" class="st9" width="10.58" height="5"/>
<rect x="319.5" y="97.5" class="st9" width="13" height="6"/>
<rect x="285.18" y="65.9" transform="matrix(0.8632 -0.5049 0.5049 0.8632 5.2035 156.011)" class="st9" width="10.58" height="5"/>
<rect x="283.5" y="113.5" class="st9" width="1" height="43"/>
<rect x="407" y="-10" transform="matrix(6.123234e-17 -1 1 6.123234e-17 344.5 470.5)" class="st9" width="1" height="146"/>
<rect x="210" y="40" width="2" height="4"/>
<rect x="212" y="44" width="2" height="5"/>
<g>
	<rect x="189.5" y="136.5" class="st9" width="1" height="14"/>
	<rect x="196" y="143" transform="matrix(6.123234e-17 -1 1 6.123234e-17 46.5 346.5)" class="st9" width="1" height="14"/>
</g>
<g>
	
		<rect x="460" y="143" transform="matrix(-3.267951e-07 -1 1 -3.267951e-07 310.5002 610.5001)" class="st9" width="1" height="14"/>
	
		<rect x="466.5" y="136.5" transform="matrix(-1 3.267942e-07 -3.267942e-07 -1 934.0001 286.9998)" class="st9" width="1" height="14"/>
</g>
<g>
	<rect x="466.5" y="33.5" transform="matrix(-1 3.267960e-07 -3.267960e-07 -1 934 80.9998)" class="st9" width="1" height="14"/>
	<rect x="460" y="27" transform="matrix(3.267942e-07 1 -1 3.267942e-07 494.4998 -426.5)" class="st9" width="1" height="14"/>
</g>
<rect x="199.5" y="68.5" class="st9" width="24" height="3"/>
<rect x="226.5" y="68.5" class="st9" width="24" height="3"/>
<rect x="199.5" y="74.5" class="st9" width="13" height="3"/>
<rect x="215.5" y="74.5" class="st9" width="35" height="3"/>
<rect x="236.5" y="80.5" class="st9" width="14" height="3"/>
<rect x="199.5" y="86.5" class="st9" width="24" height="3"/>
<rect x="204.5" y="80.5" class="st9" width="30" height="3"/>
<rect x="199.5" y="80.5" class="st9" width="3" height="3"/>
<rect x="226.5" y="86.5" class="st9" width="3" height="3"/>
<rect x="232.5" y="86.5" class="st9" width="3" height="3"/>
<rect x="238.5" y="86.5" class="st9" width="12" height="3"/>
<rect x="221" y="74" transform="matrix(6.123234e-17 -1 1 6.123234e-17 125.5 324.5)" class="st9" width="8" height="51"/>
</svg>
